<svg width="138" height="28" viewBox="0 0 138 28" fill="none" xmlns="http://www.w3.org/2000/svg">
<path d="M4.58558 17.9614C4.58558 19.8953 5.1217 21.4131 6.19395 22.515C7.2662 23.6169 8.70347 24.1678 10.5058 24.1678C12.2852 24.1678 13.6997 23.6281 14.7491 22.5487C15.7986 21.4469 16.3233 19.9177 16.3233 17.9614V4.91094C16.3233 4.44334 16.7078 4.06428 17.1822 4.06428H20.0499C20.5243 4.06428 20.9089 4.44334 20.9089 4.91094V17.9614C20.9089 20.0302 20.4868 21.8179 19.6427 23.3245C18.8214 24.8087 17.6237 25.9555 16.0495 26.7651C14.4982 27.5746 12.6503 27.9794 10.5058 27.9794C8.33845 27.9794 6.46772 27.5746 4.89356 26.7651C3.31941 25.9555 2.11028 24.8087 1.26617 23.3245C0.422056 21.8179 0 20.0302 0 17.9614V4.91094C0 4.44334 0.384567 4.06428 0.858954 4.06428H3.72662C4.20101 4.06428 4.58558 4.44334 4.58558 4.91094V17.9614Z" fill="white"/>
<path d="M31.1662 4.91094C31.1662 4.44334 31.5508 4.06428 32.0252 4.06428H34.8928C35.3672 4.06428 35.7518 4.44334 35.7518 4.91094V26.8292C35.7518 27.2968 35.3672 27.6758 34.8928 27.6758H32.0252C31.5508 27.6758 31.1662 27.2968 31.1662 26.8292V4.91094Z" fill="white"/>
<path d="M78.5158 3.81505C80.3181 3.81505 81.9949 4.11862 83.5463 4.72578C85.0976 5.33293 86.4436 6.18744 87.5843 7.28931C88.7478 8.39118 89.649 9.67295 90.2878 11.1346C90.9494 12.5738 91.2802 14.1479 91.2802 15.8569C91.2802 17.5435 90.9494 19.1288 90.2878 20.613C89.649 22.0971 88.7478 23.3901 87.5843 24.492C86.4436 25.5939 85.0976 26.4596 83.5463 27.0893C81.9949 27.6964 80.3181 28 78.5158 28C76.7135 28 75.0367 27.6964 73.4854 27.0893C71.9569 26.4596 70.6108 25.5939 69.4473 24.492C68.2838 23.3901 67.3713 22.1084 66.7097 20.6467C66.0709 19.1625 65.7515 17.566 65.7515 15.8569C65.7515 14.1479 66.0709 12.5626 66.7097 11.1009C67.3713 9.63922 68.2838 8.3687 69.4473 7.28931C70.6108 6.18744 71.9569 5.33293 73.4854 4.72578C75.0367 4.11862 76.7135 3.81505 78.5158 3.81505ZM78.5843 7.62662C77.4664 7.62662 76.417 7.84025 75.436 8.26751C74.455 8.67227 73.5881 9.25694 72.8352 10.0215C72.0823 10.7636 71.4892 11.6293 71.0557 12.6188C70.6451 13.6082 70.4398 14.6876 70.4398 15.8569C70.4398 17.0263 70.6565 18.1169 71.09 19.1288C71.5234 20.1182 72.1166 20.9952 72.8694 21.7598C73.6223 22.5244 74.4892 23.1203 75.4702 23.5475C76.4512 23.9748 77.4892 24.1884 78.5843 24.1884C79.6793 24.1884 80.706 23.9748 81.6641 23.5475C82.6451 23.1203 83.5007 22.5244 84.2307 21.7598C84.9607 20.9952 85.5311 20.1182 85.9417 19.1288C86.3752 18.1169 86.5919 17.0263 86.5919 15.8569C86.5919 14.6876 86.3752 13.6082 85.9417 12.6188C85.5311 11.6293 84.9607 10.7636 84.2307 10.0215C83.5007 9.25694 82.6451 8.67227 81.6641 8.26751C80.706 7.84025 79.6793 7.62662 78.5843 7.62662Z" fill="white"/>
<path d="M105.297 4.08489C108.399 4.08489 110.795 4.79324 112.483 6.20993C114.171 7.62662 115.015 9.61674 115.015 12.1803C115.015 14.8562 114.171 16.9363 112.483 18.4205C110.795 19.9046 108.399 20.6467 105.297 20.6467H100.749C100.274 20.6467 99.8899 21.0258 99.8899 21.4933V26.8498C99.8899 27.3174 99.5053 27.6964 99.0309 27.6964H96.1633C95.6889 27.6964 95.3043 27.3174 95.3043 26.8498V4.93155C95.3043 4.46395 95.6889 4.08489 96.1633 4.08489H105.297ZM105.297 16.9026C107.008 16.9026 108.331 16.5203 109.266 15.7557C110.202 14.9912 110.669 13.8331 110.669 12.2815C110.669 10.7973 110.202 9.69544 109.266 8.97585C108.331 8.23378 107.008 7.86274 105.297 7.86274H100.749C100.274 7.86274 99.8899 8.2418 99.8899 8.70939V16.0559C99.8899 16.5235 100.274 16.9026 100.749 16.9026H105.297ZM105.875 20.1983C105.542 19.6338 105.956 18.9264 106.618 18.9264H109.147C109.435 18.9264 109.704 19.069 109.863 19.306L114.613 26.3826C114.991 26.9455 114.581 27.6964 113.896 27.6964H110.787C110.481 27.6964 110.198 27.5359 110.045 27.275L105.875 20.1983Z" fill="white"/>
<path d="M120.034 4.93155C120.034 4.46395 120.419 4.08489 120.893 4.08489H136.73C137.205 4.08489 137.589 4.46395 137.589 4.93155V7.01608C137.589 7.48368 137.205 7.86274 136.73 7.86274H125.479C125.004 7.86274 124.62 8.2418 124.62 8.70939V13.1213C124.62 13.5889 125.004 13.968 125.479 13.968H135.396C135.87 13.968 136.255 14.3471 136.255 14.8147V16.8655C136.255 17.3331 135.87 17.7121 135.396 17.7121H125.479C125.004 17.7121 124.62 18.0912 124.62 18.5588V23.0719C124.62 23.5395 125.004 23.9186 125.479 23.9186H137.141C137.615 23.9186 138 24.2976 138 24.7652V26.8498C138 27.3174 137.615 27.6964 137.141 27.6964H120.893C120.419 27.6964 120.034 27.3174 120.034 26.8498V4.93155Z" fill="white"/>
<path d="M24.3754 8.57069L31.5184 4.20057C31.8584 3.99257 32.306 4.11375 32.4905 4.46372L33.7655 6.8821C33.9302 7.19453 33.8246 7.57925 33.5226 7.76719L26.6597 12.037C26.3436 12.2337 25.926 12.1452 25.7198 11.8379L24.1646 9.51978C23.951 9.20139 24.0464 8.77199 24.3754 8.57069Z" fill="white"/>
<path d="M57.2502 6.85593V5.55204C57.2502 5.43986 57.2879 5.33084 57.3573 5.24199L60.8116 0.822795C61.1684 0.366379 60.6007 -0.230365 60.1157 0.0912452L54.7064 3.6782C54.6213 3.73458 54.5212 3.76463 54.4187 3.76493C52.9839 3.76911 51.4365 3.82942 50.9083 3.9013C50.3734 3.97581 49.4693 4.17449 48.9089 4.34834C48.3486 4.52219 47.5463 4.83264 47.1261 5.04375C46.7058 5.24243 46.0182 5.63981 45.5979 5.913C45.1777 6.19862 44.5027 6.73259 44.0825 7.10512C43.675 7.49008 43.0892 8.11098 42.7963 8.48351C42.4906 8.85605 42.0194 9.58871 41.7265 10.0978C41.4464 10.607 41.0643 11.439 40.886 11.9357C40.7078 12.42 40.4785 13.3762 40.3639 14.0343C40.2238 14.8912 40.1856 15.6238 40.2366 16.4931C40.2748 17.1761 40.4021 18.095 40.504 18.542C40.6186 18.9891 40.8224 19.6596 40.9624 20.0322C41.1025 20.4047 41.4591 21.1374 41.7393 21.6465C42.0194 22.1557 42.4906 22.8883 42.7963 23.2608C43.0892 23.6334 43.675 24.2543 44.0825 24.6392C44.5027 25.0118 45.1777 25.5457 45.5979 25.8314C46.0182 26.1046 46.7058 26.5019 47.1261 26.7006C47.5463 26.9117 48.3486 27.2222 48.9089 27.396C49.4693 27.5699 50.3734 27.7686 50.9083 27.8431C51.4389 27.9152 53.4039 27.9758 58.645 27.9795C58.9296 27.9797 59.1604 27.7522 59.1604 27.4717V24.7576C59.1604 24.4789 58.9326 24.2522 58.6498 24.2497L55.0244 24.2168C50.9972 24.1798 50.9319 24.1792 49.9277 23.8569C49.3674 23.6706 48.476 23.2484 47.9538 22.9131C47.4317 22.5903 46.6549 21.9445 46.2346 21.4975C45.8144 21.0505 45.2541 20.2805 44.9994 19.7714C44.7319 19.2623 44.4008 18.3806 44.248 17.797C44.0188 16.9153 43.9806 16.5179 44.0443 15.4376C44.0952 14.469 44.2098 13.8729 44.4645 13.1402C44.6555 12.5938 45.0885 11.7494 45.4196 11.2775C45.738 10.8057 46.3238 10.1351 46.6931 9.7874C47.0751 9.45211 47.7246 8.95539 48.1449 8.70704C48.5651 8.45868 49.3674 8.09856 49.9277 7.92471C50.6642 7.67746 51.1604 7.58649 52.9139 7.55655C53.0985 7.5534 53.2712 7.6488 53.3651 7.80548L55.6838 11.6749C57.0337 13.9474 58.1162 15.8473 58.0907 15.897C58.0671 15.9545 57.6391 16.2252 56.2599 17.0152C56.0564 17.1317 55.7979 17.0974 55.6331 16.9317L53.1114 14.3944C51.5705 12.8546 50.2588 11.588 50.1824 11.588C50.1112 11.588 49.5747 12.0632 47.943 13.6482C47.7387 13.8466 47.7383 14.1718 47.9422 14.3706L51.4559 17.797C53.5953 19.8832 55.3782 21.5968 55.4291 21.6093C55.4928 21.6217 56.1678 21.2864 56.9446 20.8642C57.7214 20.442 59.4533 19.4858 60.7905 18.7283C62.1404 17.9708 63.2356 17.3127 63.2356 17.2382C63.2356 17.164 61.9122 14.8654 57.3218 7.11427C57.2758 7.03654 57.2502 6.94593 57.2502 6.85593Z" fill="white"/>
<path d="M60.1157 0.0912452L54.8036 3.61371C54.6613 3.7081 54.5759 3.86611 54.5759 4.03521V5.37903H56.9967C57.1565 5.37903 57.3074 5.3059 57.4049 5.18107L60.8116 0.822795C61.1684 0.366379 60.6007 -0.230365 60.1157 0.0912452Z" fill="#FED500"/>
</svg>
