<svg width="32" height="32" viewBox="0 0 32 32" fill="none" xmlns="http://www.w3.org/2000/svg">
<path d="M27.9225 17.3613C28.1954 14.9718 27.7439 12.5554 26.6267 10.4256C25.5094 8.29577 23.778 6.55081 21.6569 5.41704C19.5359 4.28327 17.1231 3.81301 14.7315 4.06725C12.3399 4.32148 10.0799 5.28849 8.24459 6.84285C6.4093 8.3972 5.08341 10.4672 4.4389 12.7843C3.7944 15.1014 3.86102 17.5587 4.63012 19.8374C5.39922 22.1162 6.83531 24.1113 8.75213 25.5639C10.6689 27.0165 12.978 27.8597 15.3799 27.984" stroke="#FED500" stroke-width="1.7" stroke-linecap="round" stroke-linejoin="round"/>
<path d="M16 9.3335V16.0002L20 20.0002" stroke="#FED500" stroke-width="1.7" stroke-linecap="round" stroke-linejoin="round"/>
<path d="M20 25.3332L22.6667 27.9998L28 22.6665" stroke="#FED500" stroke-width="1.7" stroke-linecap="round" stroke-linejoin="round"/>
</svg>
