<svg width="32" height="32" viewBox="0 0 32 32" fill="none" xmlns="http://www.w3.org/2000/svg">
<path d="M5.33398 10.6668V8.00016C5.33398 7.29292 5.61494 6.61464 6.11503 6.11454C6.61513 5.61445 7.29341 5.3335 8.00065 5.3335H10.6673" stroke="#FED500" stroke-width="1.7" stroke-linecap="round" stroke-linejoin="round"/>
<path d="M5.33398 21.3335V24.0002C5.33398 24.7074 5.61494 25.3857 6.11503 25.8858C6.61513 26.3859 7.29341 26.6668 8.00065 26.6668H10.6673" stroke="#FED500" stroke-width="1.7" stroke-linecap="round" stroke-linejoin="round"/>
<path d="M21.334 5.3335H24.0007C24.7079 5.3335 25.3862 5.61445 25.8863 6.11454C26.3864 6.61464 26.6673 7.29292 26.6673 8.00016V10.6668" stroke="#FED500" stroke-width="1.7" stroke-linecap="round" stroke-linejoin="round"/>
<path d="M21.334 26.6668H24.0007C24.7079 26.6668 25.3862 26.3859 25.8863 25.8858C26.3864 25.3857 26.6673 24.7074 26.6673 24.0002V21.3335" stroke="#FED500" stroke-width="1.7" stroke-linecap="round" stroke-linejoin="round"/>
<path d="M10.666 14.6665C10.666 15.1918 10.7695 15.7119 10.9705 16.1972C11.1715 16.6825 11.4662 17.1235 11.8376 17.4949C12.209 17.8664 12.65 18.161 13.1353 18.362C13.6206 18.563 14.1407 18.6665 14.666 18.6665C15.1913 18.6665 15.7114 18.563 16.1967 18.362C16.6821 18.161 17.123 17.8664 17.4944 17.4949C17.8659 17.1235 18.1605 16.6825 18.3615 16.1972C18.5626 15.7119 18.666 15.1918 18.666 14.6665C18.666 13.6056 18.2446 12.5882 17.4944 11.8381C16.7443 11.0879 15.7269 10.6665 14.666 10.6665C13.6051 10.6665 12.5877 11.0879 11.8376 11.8381C11.0874 12.5882 10.666 13.6056 10.666 14.6665Z" stroke="#FED500" stroke-width="1.7" stroke-linecap="round" stroke-linejoin="round"/>
<path d="M21.3333 21.3333L18 18" stroke="#FED500" stroke-width="1.7" stroke-linecap="round" stroke-linejoin="round"/>
</svg>
