<svg width="32" height="32" viewBox="0 0 32 32" fill="none" xmlns="http://www.w3.org/2000/svg">
<path d="M20 13.3335L26.0707 10.2988C26.2739 10.1973 26.4997 10.1493 26.7267 10.1596C26.9536 10.1698 27.1742 10.2378 27.3675 10.3572C27.5608 10.4766 27.7203 10.6435 27.831 10.8419C27.9417 11.0402 27.9999 11.2636 28 11.4908V20.5095C27.9999 20.7367 27.9417 20.9601 27.831 21.1585C27.7203 21.3569 27.5608 21.5237 27.3675 21.6431C27.1742 21.7625 26.9536 21.8305 26.7267 21.8408C26.4997 21.851 26.2739 21.803 26.0707 21.7015L20 18.6668V13.3335Z" stroke="#FED500" stroke-width="1.7" stroke-linecap="round" stroke-linejoin="round"/>
<path d="M4 10.6667C4 9.95942 4.28095 9.28115 4.78105 8.78105C5.28115 8.28095 5.95942 8 6.66667 8H17.3333C18.0406 8 18.7189 8.28095 19.219 8.78105C19.719 9.28115 20 9.95942 20 10.6667V21.3333C20 22.0406 19.719 22.7189 19.219 23.219C18.7189 23.719 18.0406 24 17.3333 24H6.66667C5.95942 24 5.28115 23.719 4.78105 23.219C4.28095 22.7189 4 22.0406 4 21.3333V10.6667Z" stroke="#FED500" stroke-width="1.7" stroke-linecap="round" stroke-linejoin="round"/>
</svg>
