<svg width="32" height="32" viewBox="0 0 32 32" fill="none" xmlns="http://www.w3.org/2000/svg">
<path d="M25.9998 16.7629L15.9997 26.6669L5.99975 16.7629C5.34016 16.1211 4.82061 15.3496 4.47381 14.4971C4.12702 13.6446 3.9605 12.7295 3.98473 11.8095C4.00897 10.8895 4.22343 9.98442 4.61463 9.15135C5.00582 8.31829 5.56526 7.57524 6.25773 6.96901C6.9502 6.36278 7.76069 5.90649 8.63817 5.62888C9.51564 5.35127 10.4411 5.25835 11.3562 5.35597C12.2714 5.45359 13.1564 5.73965 13.9556 6.19611C14.7548 6.65258 15.4507 7.26957 15.9997 8.00824C16.5511 7.27493 17.2479 6.66333 18.0466 6.21171C18.8452 5.76009 19.7284 5.47817 20.641 5.3836C21.5536 5.28902 22.4759 5.38383 23.3501 5.66209C24.2244 5.94035 25.0318 6.39607 25.7218 7.00072C26.4119 7.60537 26.9697 8.34595 27.3603 9.17609C27.751 10.0062 27.9661 10.9081 27.9922 11.8252C28.0183 12.7423 27.8548 13.6549 27.5119 14.5059C27.1691 15.3569 26.6543 16.128 25.9998 16.7709" stroke="#FED500" stroke-width="1.7" stroke-linecap="round" stroke-linejoin="round"/>
<path d="M15.9998 8L11.6091 12.3907C11.3592 12.6407 11.2188 12.9798 11.2188 13.3333C11.2188 13.6869 11.3592 14.026 11.6091 14.276L12.3331 15C13.2531 15.92 14.7465 15.92 15.6665 15L16.9998 13.6667C17.7955 12.871 18.8746 12.424 19.9998 12.424C21.125 12.424 22.2041 12.871 22.9998 13.6667L25.9998 16.6667" stroke="#FED500" stroke-width="1.7" stroke-linecap="round" stroke-linejoin="round"/>
<path d="M16.666 20.6665L19.3327 23.3332" stroke="#FED500" stroke-width="1.7" stroke-linecap="round" stroke-linejoin="round"/>
<path d="M20 17.3335L22.6667 20.0002" stroke="#FED500" stroke-width="1.7" stroke-linecap="round" stroke-linejoin="round"/>
</svg>
