<svg width="26" height="26" viewBox="0 0 26 26" fill="none" xmlns="http://www.w3.org/2000/svg">
<g filter="url(#filter0_ii_11_41223)">
<path d="M12.4475 22.1876C12.7409 22.3458 13.1099 22.3464 13.4045 22.1906C21.4347 17.9207 22.0395 9.51418 22.0426 7.12317C22.0427 6.931 21.9867 6.74299 21.8815 6.58215C21.7763 6.42132 21.6265 6.29464 21.4505 6.21765L13.4157 2.61749C13.2878 2.56048 13.1494 2.53081 13.0094 2.53039C12.8694 2.52997 12.7309 2.5588 12.6027 2.61504L4.5936 6.14706C4.41948 6.2226 4.27074 6.34661 4.16511 6.50431C4.05948 6.66202 4.00141 6.84676 3.99782 7.03653C3.95371 9.41537 4.39692 17.8443 12.4475 22.1876Z" fill="url(#paint0_linear_11_41223)"/>
</g>
<g filter="url(#filter1_dii_11_41223)">
<path fill-rule="evenodd" clip-rule="evenodd" d="M17.9958 8.25146C18.4847 8.73765 18.487 9.52819 18.0008 10.0172L12.7812 15.2667C12.3089 15.7417 11.546 15.7594 11.0522 15.3068L8.62884 13.0858C8.12049 12.6199 8.08608 11.8301 8.55198 11.3218C9.01789 10.8134 9.80768 10.779 10.316 11.2449L11.8556 12.656L16.23 8.25651C16.7162 7.76752 17.5068 7.76526 17.9958 8.25146Z" fill="white"/>
</g>
<defs>
<filter id="filter0_ii_11_41223" x="3.99609" y="1.55918" width="18.0469" height="20.7475" filterUnits="userSpaceOnUse" color-interpolation-filters="sRGB">
<feFlood flood-opacity="0" result="BackgroundImageFix"/>
<feBlend mode="normal" in="SourceGraphic" in2="BackgroundImageFix" result="shape"/>
<feColorMatrix in="SourceAlpha" type="matrix" values="0 0 0 0 0 0 0 0 0 0 0 0 0 0 0 0 0 0 127 0" result="hardAlpha"/>
<feOffset dy="-0.971098"/>
<feGaussianBlur stdDeviation="1.59538"/>
<feComposite in2="hardAlpha" operator="arithmetic" k2="-1" k3="1"/>
<feColorMatrix type="matrix" values="0 0 0 0 0 0 0 0 0 0 0 0 0 0 0 0 0 0 0.25 0"/>
<feBlend mode="normal" in2="shape" result="effect1_innerShadow_11_41223"/>
<feColorMatrix in="SourceAlpha" type="matrix" values="0 0 0 0 0 0 0 0 0 0 0 0 0 0 0 0 0 0 127 0" result="hardAlpha"/>
<feOffset dy="-0.416185"/>
<feGaussianBlur stdDeviation="0.277457"/>
<feComposite in2="hardAlpha" operator="arithmetic" k2="-1" k3="1"/>
<feColorMatrix type="matrix" values="0 0 0 0 0.974333 0 0 0 0 1 0 0 0 0 0.954167 0 0 0 0.67 0"/>
<feBlend mode="normal" in2="effect1_innerShadow_11_41223" result="effect2_innerShadow_11_41223"/>
</filter>
<filter id="filter1_dii_11_41223" x="6.97605" y="7.19503" width="12.6358" height="10.2432" filterUnits="userSpaceOnUse" color-interpolation-filters="sRGB">
<feFlood flood-opacity="0" result="BackgroundImageFix"/>
<feColorMatrix in="SourceAlpha" type="matrix" values="0 0 0 0 0 0 0 0 0 0 0 0 0 0 0 0 0 0 127 0" result="hardAlpha"/>
<feOffset dy="0.554913"/>
<feGaussianBlur stdDeviation="0.624277"/>
<feColorMatrix type="matrix" values="0 0 0 0 0 0 0 0 0 0 0 0 0 0 0 0 0 0 0.15 0"/>
<feBlend mode="normal" in2="BackgroundImageFix" result="effect1_dropShadow_11_41223"/>
<feBlend mode="normal" in="SourceGraphic" in2="effect1_dropShadow_11_41223" result="shape"/>
<feColorMatrix in="SourceAlpha" type="matrix" values="0 0 0 0 0 0 0 0 0 0 0 0 0 0 0 0 0 0 127 0" result="hardAlpha"/>
<feOffset dy="-0.693642"/>
<feGaussianBlur stdDeviation="0.346821"/>
<feComposite in2="hardAlpha" operator="arithmetic" k2="-1" k3="1"/>
<feColorMatrix type="matrix" values="0 0 0 0 0 0 0 0 0 0 0 0 0 0 0 0 0 0 0.25 0"/>
<feBlend mode="normal" in2="shape" result="effect2_innerShadow_11_41223"/>
<feColorMatrix in="SourceAlpha" type="matrix" values="0 0 0 0 0 0 0 0 0 0 0 0 0 0 0 0 0 0 127 0" result="hardAlpha"/>
<feOffset dy="-0.416185"/>
<feGaussianBlur stdDeviation="0.416185"/>
<feComposite in2="hardAlpha" operator="arithmetic" k2="-1" k3="1"/>
<feColorMatrix type="matrix" values="0 0 0 0 1 0 0 0 0 1 0 0 0 0 1 0 0 0 0.85 0"/>
<feBlend mode="normal" in2="effect2_innerShadow_11_41223" result="effect3_innerShadow_11_41223"/>
</filter>
<linearGradient id="paint0_linear_11_41223" x1="13.0388" y1="2.53051" x2="12.9548" y2="22.307" gradientUnits="userSpaceOnUse">
<stop stop-color="#FED500"/>
<stop offset="1" stop-color="#C29900"/>
</linearGradient>
</defs>
</svg>
