<svg width="431" height="425" viewBox="0 0 431 425" fill="none" xmlns="http://www.w3.org/2000/svg">
<path d="M201.967 469.422C208.959 473.194 217.753 473.207 224.777 469.495C416.17 367.725 430.582 167.363 430.657 110.376C430.659 105.795 429.324 101.314 426.818 97.4807C424.311 93.6473 420.74 90.6282 416.544 88.7932L225.042 2.98656C221.994 1.62768 218.696 0.920536 215.36 0.910467C212.023 0.900399 208.721 1.58762 205.665 2.92809L14.7756 87.1106C10.6254 88.9112 7.08038 91.8669 4.56278 95.6255C2.04518 99.3842 0.661153 103.787 0.575585 108.31C-0.475594 165.008 10.0878 365.905 201.967 469.422Z" fill="url(#paint0_linear_11_41220)" fill-opacity="0.2"/>
<path d="M215.358 1.41045C218.625 1.42034 221.854 2.1119 224.837 3.44194L224.837 3.44291L416.34 89.2492L416.343 89.2512C420.451 91.0473 423.946 94.0021 426.399 97.754C428.776 101.389 430.076 105.619 430.154 109.956L430.157 110.375C430.082 167.104 415.785 365.861 226.774 467.858L224.542 469.053C217.666 472.688 209.048 472.673 202.205 468.982C10.5894 365.607 0.0246288 164.979 1.07509 108.32C1.1589 103.892 2.51425 99.5824 4.97845 95.9035C7.44269 92.2246 10.9128 89.3313 14.9749 87.5689L14.9768 87.568L205.866 3.38578L205.865 3.3848C208.857 2.07237 212.091 1.40059 215.358 1.41045Z" stroke="url(#paint1_linear_11_41220)" stroke-opacity="0.5"/>
<defs>
<linearGradient id="paint0_linear_11_41220" x1="216.06" y1="0.913424" x2="216.06" y2="179.898" gradientUnits="userSpaceOnUse">
<stop stop-color="#FED500"/>
<stop offset="1" stop-color="#C29900" stop-opacity="0"/>
</linearGradient>
<linearGradient id="paint1_linear_11_41220" x1="216.06" y1="0.913424" x2="216.06" y2="251.398" gradientUnits="userSpaceOnUse">
<stop stop-color="#FED500"/>
<stop offset="1" stop-color="#C29900" stop-opacity="0"/>
</linearGradient>
</defs>
</svg>
