<svg viewBox="0 0 24 24" xmlns="http://www.w3.org/2000/svg"><path d="M21.817 6.666V2.183h-4.483a.85.85 0 1 1 0-1.7h5.333c.47 0 .85.38.85.85v5.333a.851.851 0 0 1-1.7 0"/><path d="M22.065.732a.849.849 0 1 1 1.201 1.202l-8 8a.849.849 0 1 1-1.2-1.202z"/><path d="M.484 17.333a.85.85 0 1 1 1.7 0v4.483h4.483a.85.85 0 1 1 0 1.7H1.334a.85.85 0 0 1-.85-.85z"/><path d="M8.733 14.066a.849.849 0 1 1 1.202 1.201l-8 8a.849.849 0 1 1-1.202-1.2z"/><path d="M21.817 17.333a.85.85 0 0 1 1.7 0v5.333c0 .47-.38.85-.85.85h-5.333a.85.85 0 0 1 0-1.7h4.483z"/><path d="M14.065 14.066a.85.85 0 0 1 1.202 0l8 8a.849.849 0 1 1-1.202 1.201l-8-8a.85.85 0 0 1 0-1.2"/><path d="M.484 6.666V1.333c0-.47.38-.85.85-.85h5.333a.85.85 0 1 1 0 1.7H2.184v4.483a.85.85 0 1 1-1.7 0"/><path d="M.4.4a.85.85 0 0 1 1.2 0l8 8a.849.849 0 1 1-1.2 1.2l-8-8A.85.85 0 0 1 .4.4"/></svg>