<svg viewBox="0 0 26 25" xmlns="http://www.w3.org/2000/svg"><path d="M5.483 21.334a1.818 1.818 0 0 0-3.101-1.285 1.818 1.818 0 0 0 1.285 3.101 1.817 1.817 0 0 0 1.816-1.816m1.7 0a3.517 3.517 0 1 1-7.033-.001 3.517 3.517 0 0 1 7.034.001"/><path d="M12.15 18.666V8a3.52 3.52 0 0 1 3.517-3.517h9.334a.85.85 0 1 1 0 1.7h-9.334A1.817 1.817 0 0 0 13.851 8v10.666a3.52 3.52 0 0 1-3.517 3.517h-4a.85.85 0 1 1 0-1.7h4a1.817 1.817 0 0 0 1.816-1.817"/><path d="M20.4.732a.85.85 0 0 1 1.2 0l4 4a.85.85 0 0 1 0 1.202l-4 4a.849.849 0 1 1-1.2-1.202l3.399-3.4-3.4-3.398a.85.85 0 0 1 0-1.202"/></svg>