<svg viewBox="0 0 18 12" xmlns="http://www.w3.org/2000/svg"><g opacity="0.4"><path d="M17.19 7.812h-.59a.8.8 0 0 1-.797-.745l-.05-.7v-.03a1.66 1.66 0 0 0-.58-1.208 1.9 1.9 0 0 0-1.085-.384h-.02a3 3 0 0 0-.172-.006h-.034a1.86 1.86 0 0 0-1.25.415 1.93 1.93 0 0 0-.578 1.18l-.004.033-.096.64a1 1 0 0 1 .016.128l.027.678v.021a2.25 2.25 0 0 0 .467 1.342 1.86 1.86 0 0 0 .973.614l.004.001a2.2 2.2 0 0 0 .564.071h.065a2.04 2.04 0 0 0 1.2-.404.8.8 0 0 1 .479-.158h.436a.8.8 0 0 1 .432 1.473 4.6 4.6 0 0 1-2.623.728 4.35 4.35 0 0 1-2.926-.971l-.054-.048A3.96 3.96 0 0 1 9.8 7.577l-.004-.217a4.56 4.56 0 0 1 .97-3.055l.025-.03a3 3 0 0 1 .17-.182l.022-.021a4.06 4.06 0 0 1 2.912-1.076 4.2 4.2 0 0 1 2.743.878l.037.03a3.76 3.76 0 0 1 1.254 2.358 6 6 0 0 1 .061.728.8.8 0 0 1-.8.822M5.237.516l.307.013a3.6 3.6 0 0 1 2.29.871l.03.027a2.5 2.5 0 0 1 .578.827l.001.002a2.5 2.5 0 0 1 .136.412 2.6 2.6 0 0 1 .064.425 3 3 0 0 1 .005.166A2.59 2.59 0 0 1 7.273 5.57l-.017.009.041.016a2.79 2.79 0 0 1 1.705 2.656 3 3 0 0 1-.068.63 3 3 0 0 1-1.206 1.822l-.02.014a4.7 4.7 0 0 1-2.613.77 8 8 0 0 1-.245.003H.8a.8.8 0 0 1-.8-.8V1.315a.8.8 0 0 1 .8-.8h4.403zM4.704 2.7H2.25v2.2h2.684a2 2 0 0 0 .234-.015.8.8 0 0 1 .588.162l.31.11a.8.8 0 0 1 .148-.775.9.9 0 0 0 .218-.58v-.01a.92.92 0 0 0-.387-.732 2.2 2.2 0 0 0-1.306-.36zM2.25 9.311h2.506l.032.001a2.08 2.08 0 0 0 1.258-.36.92.92 0 0 0 .38-.71 1.377 1.377 0 0 0-1.533-1.149 1 1 0 0 1-.1.007H2.25z" fill-rule="evenodd"/></g></svg>