<svg viewBox="0 0 28 20" xmlns="http://www.w3.org/2000/svg"><path d="M26.333.15a.85.85 0 0 1 .798 1.144L22.464 13.96l-.017.042c-1.197 2.784-4.069 5.18-8.114 5.18a.85.85 0 0 1-.808-.59l-.035-.154v-.006l-.004-.023-.01-.088-.042-.33a2821 2821 0 0 1-.604-4.796l-.212-1.69-.51 1.53-.22.654-.06.182q-.012.03-.016.048l-.004.013-.001.002-.001.002-.018.047c-1.17 2.908-4.115 5.18-8.117 5.2a.85.85 0 0 1-.845-.721L.16 1.156A.85.85 0 0 1 1 .176c2.808 0 5.926 2.46 6.178 6.058v.004l.002.012.005.046.02.176.074.632c.056.472.127 1.09.2 1.734l.144-.358.867-2.165.282-.7q.05-.128.079-.196l.02-.05.005-.015.001-.002.001-.001c.509-1.34 1.191-2.647 2.274-3.62C12.265.734 13.73.151 15.668.151l.15.012a.85.85 0 0 1 .685.677v.002l.001.006.004.021.017.085.061.323c.053.279.13.677.22 1.156.184.958.427 2.242.674 3.543.16.843.32 1.704.468 2.49.235-.622.465-1.224.636-1.675l.21-.553.059-.153.015-.041.004-.01.001-.003.001-.003C19.916 3.314 22.16.151 26.333.15M14.97 1.884c-1.188.116-2.034.532-2.682 1.113-.792.712-1.357 1.731-1.826 2.97l-.007.016v.004l-.007.014-.02.05-.078.196-.281.701L9.2 9.112a827 827 0 0 0-1.408 3.528.85.85 0 0 1-1.642-.277v-.008l-.002-.023-.006-.075-.023-.24-.077-.737a353 353 0 0 0-.227-2.034L5.59 7.301l-.074-.631q-.014-.114-.02-.176l-.006-.046-.002-.011v-.004l-.003-.046c-.142-2.243-1.798-3.871-3.472-4.359l2.376 15.42c2.917-.262 4.962-1.992 5.81-4.072l.016-.044.06-.182.22-.653.668-2 .684-2.049.236-.714q.046-.135.072-.22l.022-.066.006-.02.002-.005.056-.14a.85.85 0 0 1 1.606.322c0-.01.002.02.014.122l.044.364c.038.307.09.734.154 1.24a3358 3358 0 0 0 .91 7.263c.042.324.078.613.108.854 2.902-.265 4.919-2.066 5.801-4.103L25.063 1.99c-2.347.535-3.79 2.532-4.603 4.646l.001.002v.002l-.005.01-.015.04-.059.154-.21.55c-.174.46-.409 1.076-.648 1.71-.487 1.287-.973 2.585-1.046 2.818a.85.85 0 0 1-1.656-.158l-.006-.043-.02-.12q-.025-.15-.07-.396a1125 1125 0 0 0-.918-4.914c-.245-1.3-.49-2.582-.672-3.54z"/></svg>