<svg viewBox="0 0 26 26" xmlns="http://www.w3.org/2000/svg"><path d="M3.967 13.955a6.19 6.19 0 0 1 6.74 1.34A6.184 6.184 0 0 1 6.332 25.85H1A.85.85 0 0 1 .15 25v-5.334a6.18 6.18 0 0 1 3.817-5.712M1.85 24.15h4.483a4.484 4.484 0 0 0 3.17-7.654 4.485 4.485 0 0 0-7.653 3.17z"/><path d="M24.885.158a.85.85 0 1 1 .23 1.684A20.48 20.48 0 0 0 8.73 14.9a.85.85 0 1 1-1.59-.6A22.18 22.18 0 0 1 24.885.158"/><path d="M25.118.158a.85.85 0 0 1 .727.957 22.18 22.18 0 0 1-14.142 17.747.85.85 0 0 1-.6-1.59A20.48 20.48 0 0 0 24.16.884a.85.85 0 0 1 .956-.727"/><path d="M10.366 8.644a.85.85 0 0 1 1.127-.415 12.85 12.85 0 0 1 6.283 6.282.85.85 0 0 1-1.544.712A11.15 11.15 0 0 0 10.78 9.77a.85.85 0 0 1-.415-1.127"/></svg>