<svg viewBox="0 0 26 26" xmlns="http://www.w3.org/2000/svg"><path d="M25 24.15a.85.85 0 1 1 0 1.7H1a.85.85 0 1 1 0-1.7z"/><path d="M25 9.483a.85.85 0 1 1 0 1.7H1a.85.85 0 1 1 0-1.7z"/><path d="M12.667.22a.85.85 0 0 1 .67 0l9.334 4A.85.85 0 0 1 22 5.781l-9-3.858-8.997 3.858a.85.85 0 0 1-.67-1.563z"/><path d="M1.482 25V10.333a.85.85 0 1 1 1.7 0V25a.85.85 0 0 1-1.7 0"/><path d="M22.818 25V10.333a.85.85 0 1 1 1.7 0V25a.85.85 0 0 1-1.7 0"/><path d="M6.818 19.667v-4a.85.85 0 1 1 1.7 0v4a.85.85 0 1 1-1.7 0"/><path d="M12.15 19.667v-4a.85.85 0 1 1 1.7 0v4a.85.85 0 1 1-1.7 0"/><path d="M17.482 19.667v-4a.85.85 0 1 1 1.7 0v4a.85.85 0 1 1-1.7 0"/></svg>