<svg viewBox="0 0 24 24" xmlns="http://www.w3.org/2000/svg"><path d="M5.817 5.333a.484.484 0 0 0-.483-.483H2.667a.484.484 0 0 0-.483.483v4a.485.485 0 0 0 .483.483h2.667a.483.483 0 0 0 .483-.483zm1.7 4a2.184 2.184 0 0 1-2.183 2.184H2.667A2.185 2.185 0 0 1 .484 9.333v-4A2.184 2.184 0 0 1 2.667 3.15h2.667a2.183 2.183 0 0 1 2.184 2.183z"/><path d="M3.15 4V1.333a.85.85 0 1 1 1.7 0V4a.85.85 0 0 1-1.7 0"/><path d="M3.15 22.667v-12a.85.85 0 1 1 1.7 0v12a.85.85 0 1 1-1.7 0"/><path d="M13.817 16a.485.485 0 0 0-.483-.483h-2.667a.484.484 0 0 0-.483.483v4a.485.485 0 0 0 .483.483h2.667a.484.484 0 0 0 .483-.483zm1.7 4a2.184 2.184 0 0 1-2.183 2.184h-2.667A2.185 2.185 0 0 1 8.484 20v-4a2.183 2.183 0 0 1 2.183-2.183h2.667A2.183 2.183 0 0 1 15.518 16z"/><path d="M11.15 14.666V1.333a.85.85 0 1 1 1.7 0v13.333a.85.85 0 1 1-1.7 0"/><path d="M11.15 22.666v-1.333a.85.85 0 1 1 1.7 0v1.333a.85.85 0 1 1-1.7 0"/><path d="M21.817 4a.485.485 0 0 0-.483-.483h-2.667a.484.484 0 0 0-.483.483v5.334a.484.484 0 0 0 .483.483h2.667a.484.484 0 0 0 .483-.483zm1.7 5.334a2.184 2.184 0 0 1-2.183 2.183h-2.667a2.184 2.184 0 0 1-2.183-2.183V4a2.184 2.184 0 0 1 2.183-2.183h2.667A2.183 2.183 0 0 1 23.518 4z"/><path d="M19.15 2.666V1.333a.85.85 0 1 1 1.7 0v1.333a.85.85 0 1 1-1.7 0"/><path d="M19.15 22.667v-12a.85.85 0 1 1 1.7 0v12a.85.85 0 1 1-1.7 0"/></svg>