<svg viewBox="0 0 38 38" xmlns="http://www.w3.org/2000/svg"><path d="M34.165 16.479c0-7.36-5.823-13.279-12.948-13.279-6.945 0-12.653 5.623-12.938 12.723q-.01.277-.01.556c0 7.36 5.822 13.279 12.948 13.279q.146 0 .293-.004a12.6 12.6 0 0 0 5.43-1.36l.425-.215 6.816 2.02c.194.058.353.104.486.142-.045-.144-.1-.318-.172-.533l-2.144-6.526.24-.452a13.5 13.5 0 0 0 1.574-6.351M23.435 17.6a1.2 1.2 0 0 1 0 2.4h-9.257a1.2 1.2 0 0 1 0-2.4zm4.962-4.538a1.2 1.2 0 0 1 0 2.4h-14.22a1.2 1.2 0 0 1 0-2.4zM3.67 24.752c0 1.654.411 3.206 1.132 4.558l.241.452-.161.487-1.418 4.306L7.98 33.22l.458-.136.424.215a9.1 9.1 0 0 0 4.108.977c2.3 0 4.409-.857 6.037-2.282-6.813-1.002-12.156-6.568-13.018-13.534a9.62 9.62 0 0 0-2.318 6.292m32.894-8.274a15.9 15.9 0 0 1-1.619 7.014l1.83 5.566c.136.416.265.806.34 1.128.072.31.15.767-.01 1.244a2.13 2.13 0 0 1-1.228 1.305c-.479.19-.948.128-1.256.067-.322-.064-.712-.181-1.123-.303l-5.914-1.753a15 15 0 0 1-5.422 1.379c-2.137 2.764-5.456 4.55-9.193 4.55a11.5 11.5 0 0 1-4.748-1.025l-4.279 1.267c-.299.089-.605.18-.861.23-.242.048-.664.111-1.105-.064a1.89 1.89 0 0 1-1.091-1.157c-.147-.439-.072-.849-.016-1.091.06-.255.161-.56.26-.863l1.318-4.004a12.1 12.1 0 0 1-1.177-5.216c0-3.88 1.82-7.333 4.645-9.512C6.533 7.183 13.124.8 21.216.8c8.503 0 15.35 7.046 15.35 15.679"/></svg>