<!--Generated by IcoMoon.io--><svg version="1.1" xmlns="http://www.w3.org/2000/svg" viewBox="0 0 768 768"><path d="M374.624 521.376 237.248 384l137.376-137.376c12.512-12.512 12.512-32.768 0-45.248s-32.768-12.512-45.248 0l-160 160c-12.512 12.512-12.512 32.768 0 45.248l160 160c12.512 12.512 32.768 12.512 45.248 0s12.512-32.768 0-45.248m224 0L461.248 384l137.376-137.376c12.512-12.512 12.512-32.768 0-45.248s-32.768-12.512-45.248 0l-160 160c-12.512 12.512-12.512 32.768 0 45.248l160 160c12.512 12.512 32.768 12.512 45.248 0s12.512-32.768 0-45.248"/></svg>