<!--Generated by IcoMoon.io--><svg version="1.1" xmlns="http://www.w3.org/2000/svg" viewBox="0 0 768 768"><path d="m438.624 566.624 160-160c12.512-12.512 12.512-32.768 0-45.248l-160-160c-12.512-12.512-32.768-12.512-45.248 0s-12.512 32.768 0 45.248L530.752 384 393.376 521.376c-12.512 12.512-12.512 32.768 0 45.248s32.768 12.512 45.248 0m-224 0 160-160c12.512-12.512 12.512-32.768 0-45.248l-160-160c-12.512-12.512-32.768-12.512-45.248 0s-12.512 32.768 0 45.248L306.752 384 169.376 521.376c-12.512 12.512-12.512 32.768 0 45.248s32.768 12.512 45.248 0"/></svg>