<!--Generated by IcoMoon.io--><svg version="1.1" xmlns="http://www.w3.org/2000/svg" viewBox="0 0 768 768"><path d="m201.376 438.624 160 160c12.512 12.512 32.768 12.512 45.248 0l160-160c12.512-12.512 12.512-32.768 0-45.248s-32.768-12.512-45.248 0L384 530.752 246.624 393.376c-12.512-12.512-32.768-12.512-45.248 0s-12.512 32.768 0 45.248m0-224 160 160c12.512 12.512 32.768 12.512 45.248 0l160-160c12.512-12.512 12.512-32.768 0-45.248s-32.768-12.512-45.248 0L384 306.752 246.624 169.376c-12.512-12.512-32.768-12.512-45.248 0s-12.512 32.768 0 45.248"/></svg>