<svg viewBox="0 0 26 26" xmlns="http://www.w3.org/2000/svg"><path d="M4.37 8.225a1 1 0 0 1 1.337.068l4 4a1 1 0 0 1 0 1.414l-4 4a1 1 0 0 1-1.414 0l-4-4a1 1 0 0 1 0-1.414l4-4zM2.413 13 5 15.586 7.586 13 5 10.414z"/><path d="M20.37 8.225a1 1 0 0 1 1.337.068l4 4a1 1 0 0 1 0 1.414l-4 4a1 1 0 0 1-1.414 0l-4-4a1 1 0 0 1 0-1.414l4-4zM18.413 13 21 15.586 23.586 13 21 10.414z"/><path d="M12.37.225a1 1 0 0 1 1.337.068l4 4a1 1 0 0 1 0 1.414l-4 4a1 1 0 0 1-1.414 0l-4-4a1 1 0 0 1 0-1.414l4-4zM10.413 5 13 7.586 15.586 5 13 2.414z"/><path d="M12.37 16.225a1 1 0 0 1 1.337.068l4 4a1 1 0 0 1 0 1.414l-4 4a1 1 0 0 1-1.414 0l-4-4a1 1 0 0 1 0-1.414l4-4zM10.413 21 13 23.586 15.586 21 13 18.414z"/></svg>