<svg viewBox="0 0 32 26" xmlns="http://www.w3.org/2000/svg"><path d="M30.083 10.331H1.916v3.707c0 1.792 0 3.086.083 4.103.082 1.007.24 1.668.513 2.208a5.47 5.47 0 0 0 2.38 2.403c.534.274 1.186.433 2.183.515 1.007.083 2.289.083 4.066.083h9.717c1.777 0 3.059 0 4.066-.083.997-.082 1.65-.241 2.183-.515a5.48 5.48 0 0 0 2.381-2.403c.273-.54.43-1.201.512-2.208.082-1.017.083-2.31.083-4.103zm-5.361 5.595a.85.85 0 0 1 0 1.7H18.68a.85.85 0 0 1 0-1.7zM8.682 2.649c-1.26 0-1.785.004-2.21.075-2.294.384-4.099 2.2-4.482 4.525-.052.319-.068.693-.072 1.382h28.163c-.004-.689-.019-1.063-.071-1.382-.383-2.325-2.188-4.141-4.483-4.525-.425-.071-.95-.075-2.21-.075zm23.101 11.39c0 1.764 0 3.138-.089 4.24-.09 1.11-.275 2.018-.688 2.836a7.18 7.18 0 0 1-3.122 3.149c-.814.418-1.717.605-2.82.696-1.093.09-2.457.09-4.206.09h-9.717c-1.75 0-3.113 0-4.205-.09-1.103-.09-2.006-.278-2.82-.696a7.18 7.18 0 0 1-3.122-3.149c-.413-.818-.6-1.726-.69-2.837-.089-1.101-.087-2.475-.087-4.24V9.481c0-1.202-.004-1.906.096-2.508.499-3.035 2.859-5.42 5.878-5.926.6-.1 1.3-.097 2.49-.097h14.636c1.191 0 1.891-.003 2.49.097 3.02.506 5.38 2.89 5.88 5.926.099.602.096 1.306.096 2.508z"/></svg>