<svg viewBox="0 0 32 32" xmlns="http://www.w3.org/2000/svg"><path d="M30.083 16c0-7.778-6.305-14.084-14.083-14.084S1.916 8.222 1.916 16 8.222 30.083 16 30.083 30.083 23.778 30.083 16m-9.598 3.003c0-1.16-.944-2.12-2.052-2.12h-4.301v4.173h4.3c1.134 0 2.053-.92 2.053-2.053m0-5.956c0-1.18-.956-2.137-2.136-2.137h-4.217v4.274h4.217c1.18 0 2.136-.957 2.136-2.137M31.783 16c0 8.717-7.066 15.783-15.783 15.783S.217 24.717.217 16 7.283.217 16 .217 31.783 7.283 31.783 16m-9.597-2.953a3.83 3.83 0 0 1-1.42 2.977 3.87 3.87 0 0 1 1.42 2.979 3.75 3.75 0 0 1-3.625 3.749v1.503a.851.851 0 0 1-1.7 0v-1.5h-2.73v1.5a.851.851 0 0 1-1.7 0v-1.5h-1.498a.85.85 0 1 1 0-1.7h1.499V10.91h-1.5a.851.851 0 0 1 0-1.7h1.5V7.442a.85.85 0 0 1 1.7 0V9.21h2.73V7.442a.85.85 0 0 1 1.7 0v1.774a3.837 3.837 0 0 1 3.624 3.83"/></svg>