<svg viewBox="0 0 27 28" xmlns="http://www.w3.org/2000/svg"><path d="M21.815 5c0-.222-.116-.535-.551-.92-.435-.386-1.112-.771-2.022-1.112C17.43 2.288 14.87 1.85 12 1.85s-5.432.438-7.244 1.118c-.91.34-1.586.726-2.02 1.111-.436.386-.553.7-.553.921s.117.535.552.92c.435.386 1.112.771 2.02 1.112C6.568 7.712 9.13 8.15 12 8.15s5.43-.438 7.243-1.118c.91-.34 1.587-.726 2.022-1.111.435-.386.551-.7.551-.921m1.7 0c0 .883-.48 1.622-1.124 2.193-.646.572-1.53 1.048-2.551 1.431-2.048.768-4.82 1.226-7.841 1.226s-5.793-.458-7.84-1.226c-1.022-.383-1.907-.859-2.553-1.43C.962 6.621.482 5.882.482 5s.48-1.622 1.124-2.193c.646-.572 1.531-1.048 2.552-1.431C6.206.608 8.978.15 12 .15s5.793.458 7.84 1.226c1.021.383 1.906.859 2.552 1.43.644.572 1.125 1.311 1.125 2.194"/><path d="M.482 13V5a.85.85 0 1 1 1.7 0v8c0 .222.117.535.552.92.435.386 1.112.771 2.02 1.112 1.813.68 4.375 1.118 7.245 1.118a.85.85 0 0 1 0 1.7c-3.02 0-5.793-.458-7.84-1.226-1.022-.383-1.907-.859-2.553-1.43C.962 14.621.482 13.882.482 13m21.333-.667V5a.85.85 0 1 1 1.7 0v7.333a.851.851 0 0 1-1.7 0"/><path d="M.482 21v-8a.85.85 0 1 1 1.7 0v8c0 .222.117.535.552.92.435.386 1.112.771 2.02 1.112 1.813.68 4.375 1.118 7.245 1.118a.85.85 0 0 1 0 1.7c-3.02 0-5.793-.458-7.84-1.226-1.022-.383-1.907-.859-2.553-1.43C.962 22.621.482 21.882.482 21"/><path d="M23.15 21a3.15 3.15 0 1 0-6.3 0 3.15 3.15 0 0 0 6.3 0m1.7 0a4.85 4.85 0 1 1-9.7.002 4.85 4.85 0 0 1 9.7-.002"/><path d="M22.333 23.333a.85.85 0 0 1 1.201 0l2.4 2.4a.85.85 0 1 1-1.202 1.201l-2.4-2.4a.85.85 0 0 1 0-1.201"/></svg>