<svg viewBox="0 0 26 24" xmlns="http://www.w3.org/2000/svg"><path d="M25 8.484a.85.85 0 1 1 0 1.699H1a.85.85 0 1 1 0-1.7z"/><path d="M24.15 6.666a4.484 4.484 0 0 0-4.483-4.483H6.333A4.484 4.484 0 0 0 1.85 6.666v10.667a4.484 4.484 0 0 0 4.483 4.484h13.334a4.484 4.484 0 0 0 4.483-4.484zm1.7 10.667a6.183 6.183 0 0 1-6.183 6.184H6.333A6.184 6.184 0 0 1 .15 17.333V6.666A6.183 6.183 0 0 1 6.333.484h13.334a6.183 6.183 0 0 1 6.183 6.182z"/><path d="M5.484 11.333v-2a.85.85 0 1 1 1.7 0v2a1.15 1.15 0 0 0 1.15 1.15h9.333a1.15 1.15 0 0 0 1.15-1.15v-2a.85.85 0 1 1 1.7 0v2a2.85 2.85 0 0 1-2.85 2.85H8.334a2.85 2.85 0 0 1-2.85-2.85"/></svg>