<svg viewBox="0 0 18 18" xmlns="http://www.w3.org/2000/svg"><g opacity="0.4"><path d="m.71 12.502 2.212-.932-.003-.007-.003-.007zm.83 1.532-1.996 1.332.004.007.005.007zm2.427 2.426L2.61 18.44l.007.005.007.004zm1.527.83.945-2.206-.004-.002zm1.688.527-.487 2.35.01.002zm3.63 0 .47 2.354.008-.002.008-.002zm1.694-.527-.93-2.212-.004.001zm3.954-3.256 1.978 1.36.005-.008.004-.006zm.83-1.532-2.206-.946-.003.007-.003.007zm.527-1.688 2.35.488.002-.012zm0-3.628 2.352-.476-.002-.011zM17.29 5.49l-2.212.932.001.004zm-3.257-3.95-1.345 1.988.007.004zM12.506.71l-.945 2.206.004.002zM10.811.183l.482-2.351-.006-.002zm-3.63 0L6.707-2.17l-.011.003zM5.495.71l.93 2.212.008-.003.007-.003zM1.54 3.966l-1.978-1.36-.005.008-.004.007zM.71 5.49l2.206.946.003-.007.003-.007zM.183 7.186l-2.351-.482-.001.006zm0 3.628-2.352.476.002.011zm4.08 4.233 1.486-1.884-3.183 3.581zm.007.007-2.328-.583 4.508 1.585zm6.035-4.802.79 2.266.145-.05.138-.07zm.049-.014 2.24-.863-.592-1.537h-1.648zm1.639 5.835.95 2.205 1.727-.744-.31-1.855zm1.301-.696-2.367.395.615 3.69 3.098-2.097zm-1.498-5.491-.376-2.37-2.88.456 1.002 2.738zm4.79.337 2.37.375.31-1.954-1.86-.676zm-1.653-6.11 1.857-1.52-2.054-2.51-1.8 2.699zm1.752 4.81-.442 2.359 2.875.539-.034-2.926zm-5.353-.253L9.12 9.6l.706 1.676 1.804-.226zm-.169-.394 2.212-.932-.004-.009zm-.514-1.118-.905-2.223-2.383.97 1.134 2.31zm3.426-3.924 1.92 1.44L17.327 2.9 15.66 1.433zM10.059 6.02 7.952 7.168l.998 1.83 1.952-.732zM7.182 1.533 6.62-.8 3.016.068 5.283 3zm-.035.007h-2.4v5.792l4.096-4.095zm-1.428.506L7.602.56 6.42-.94l-1.726.815zm2.855 4.43.614 2.32 3-.794L10.665 5.3zm-7.097.935-2.35-.487-.577 2.787 2.844.099zm-.162 1.35v-2.4h-2.4v2.4zm7.893-1.097 2.139-1.088-.909-1.787-1.92.576zm.626 1.308.659 2.308 2.672-.764-1.144-2.532zm-.303.091.739 2.284.034-.011.034-.012zm-6.253 5.07-2.09-1.18-.31.55v.63zm0 .007-1.786 1.603 4.186 4.665V14.14zM.71 12.502l-2.211.931c.289.687.645 1.333 1.045 1.933l1.996-1.332 1.997-1.331a7 7 0 0 1-.615-1.133zm.83 1.532L-.447 15.38q.614.908 1.388 1.682l1.697-1.698 1.696-1.697q-.45-.45-.806-.977zm1.098 1.33L.94 17.06c.524.523 1.09.982 1.668 1.378l1.358-1.979 1.358-1.979a7 7 0 0 1-.99-.815zm1.33 1.096-1.345 1.988c.61.412 1.265.766 1.929 1.05l.942-2.208.941-2.208a7 7 0 0 1-1.123-.61zm1.526.83-.946 2.206c.697.299 1.421.52 2.147.671l.487-2.35.487-2.35a6.5 6.5 0 0 1-1.23-.383zm1.688.527-.476 2.352c.743.15 1.515.231 2.29.231v-4.8c-.448 0-.9-.046-1.338-.135zM8.996 18v2.4c.779 0 1.542-.08 2.286-.23l-.47-2.353-.471-2.353q-.678.135-1.345.136zm1.815-.183.487 2.35a11.5 11.5 0 0 0 2.143-.667l-.935-2.21-.934-2.21c-.401.169-.82.299-1.248.387zm1.695-.527.931 2.212a11.3 11.3 0 0 0 1.94-1.054l-1.344-1.988-1.345-1.988c-.354.24-.73.444-1.113.606zm1.527-.83 1.344 1.988a11.4 11.4 0 0 0 1.682-1.387l-1.697-1.698-1.697-1.697q-.449.45-.977.806zm1.33-1.097 1.696 1.698c.524-.524.982-1.09 1.379-1.668l-1.978-1.359-1.979-1.358c-.25.364-.524.698-.816.99zm1.097-1.329 1.987 1.345c.413-.61.77-1.268 1.054-1.946l-2.211-.931-2.212-.932a6.6 6.6 0 0 1-.606 1.12zm.83-1.532 2.205.945c.3-.696.522-1.42.672-2.146l-2.35-.487-2.35-.487a6.5 6.5 0 0 1-.383 1.229zm.527-1.688 2.352.476c.15-.743.231-1.514.231-2.29h-4.8c0 .448-.046.9-.135 1.338zM18 9h2.4c0-.776-.08-1.547-.23-2.29l-2.353.476-2.352.476c.088.438.135.89.135 1.338zm-.183-1.814 2.35-.487a11.5 11.5 0 0 0-.667-2.143l-2.21.935-2.21.936c.169.4.299.82.387 1.246zM17.29 5.49l2.21-.93a11.3 11.3 0 0 0-1.054-1.94L16.46 3.967 14.472 5.31c.24.354.444.729.606 1.112zm-.83-1.525 1.987-1.345A11.4 11.4 0 0 0 17.06.939l-1.697 1.698-1.697 1.697q.45.45.807.977zm-1.098-1.33L17.06.94a11.4 11.4 0 0 0-1.688-1.392L14.033 1.54l-1.338 1.992c.337.227.668.5.97.802zm-1.33-1.096 1.345-1.988a11.6 11.6 0 0 0-1.929-1.05L12.506.71l-.941 2.208c.391.167.776.375 1.123.61zM12.507.71l.945-2.206a11 11 0 0 0-2.158-.672L10.81.182l-.481 2.352c.432.089.846.217 1.231.382zM10.811.183l.476-2.353a11.6 11.6 0 0 0-2.29-.23v4.8c.448 0 .9.047 1.338.135zM8.996 0v-2.4c-.775 0-1.547.08-2.29.23L7.182.183l.476 2.352c.438-.088.89-.135 1.338-.135zM7.182.183l-.487-2.35c-.726.15-1.45.373-2.147.671L5.494.71l.945 2.206a6.5 6.5 0 0 1 1.23-.383zM5.494.71l-.931-2.212c-.686.289-1.338.646-1.94 1.054L3.967 1.54l1.345 1.988c.354-.24.73-.444 1.113-.606zm-1.527.83L2.623-.448Q1.715.166.94.939l1.697 1.698 1.696 1.697q.45-.45.978-.806zm-1.33 1.097L.942.939c-.524.524-.982 1.09-1.379 1.668L1.54 3.966l1.98 1.358c.25-.364.524-.698.815-.99zM1.54 3.966-.447 2.62a11.3 11.3 0 0 0-1.054 1.94l2.211.93 2.212.932c.162-.383.367-.758.606-1.112zM.71 5.49l-2.205-.945c-.3.697-.523 1.423-.673 2.158l2.35.482 2.352.482c.089-.432.217-.846.382-1.23zM.183 7.186-2.17 6.71c-.15.743-.23 1.514-.23 2.29h4.8c0-.448.047-.9.135-1.338zM0 9h-2.4c0 .776.08 1.547.23 2.29l2.353-.476 2.352-.476A7 7 0 0 1 2.4 9zm.183 1.814-2.35.487c.15.726.373 1.45.672 2.146l2.205-.945 2.206-.946a6.5 6.5 0 0 1-.383-1.23zm8.813 5.871v-2.4a5.2 5.2 0 0 1-3.247-1.122l-1.486 1.884-1.487 1.884a10 10 0 0 0 6.22 2.154zm-4.733-1.638-1.697 1.697.006.006h-.001l-.002-.003-.012-.012-.016-.017-.031-.032c-.565-1.036-.568-2.215 1.76-1.632s2.324-.596 1.76-1.632l-.031-.033-.016-.016-.013-.012-.002-.003-.001-.001-.001-.001-.007-.006zm.007.007a247 247 0 0 1 2.178 1.006l-.001.004-.003.007-.005.01-.004.008.017-.033a4 4 0 0 1 .138-.23c.141-.22.38-.554.74-.936.71-.759 1.9-1.722 3.765-2.372l-.79-2.266-.79-2.267c-2.693.94-4.52 2.377-5.688 3.622-.58.62-.996 1.189-1.274 1.622a8 8 0 0 0-.444.78l-.016.034-.002.004-.001.002c0 .001-.001.003 2.18 1.005m6.035-4.802 1.073 2.146a2.25 2.25 0 0 1-1.024.24v-4.8c-.558 0-.972.192-1.122.267zm.049-.014-2.24.862c1.007 2.614 1.416 4.793 1.512 5.368l2.367-.395 2.367-.394c-.129-.776-.606-3.293-1.766-6.304zm1.639 5.835-.95-2.204a5.2 5.2 0 0 1-2.047.416v4.8c1.39 0 2.733-.285 3.946-.807zm1.301-.696 2.368-.394c-.093-.553-.531-2.966-1.612-5.921l-2.254.824-2.254.824c.945 2.585 1.322 4.687 1.385 5.062zm-1.498-5.491.376 2.37c1.936-.307 3.655.245 3.594.223l.82-2.256.82-2.255c-.37-.135-2.956-.933-5.986-.452zm4.79.337-2.37-.374a5.3 5.3 0 0 1-2.268 3.541l1.346 1.987 1.346 1.987a10.1 10.1 0 0 0 4.317-6.766zm-1.653-6.11-1.857 1.52a5.3 5.3 0 0 1 1.209 3.317l2.4-.027 2.4-.028a10.1 10.1 0 0 0-2.295-6.302zm1.752 4.81.442-2.36c.035.007-.23-.047-.558-.102a22 22 0 0 0-1.37-.184c-1.097-.113-2.603-.185-4.166.011l.299 2.382.298 2.38c2.214-.276 4.463.204 4.612.232zm-5.353-.253 2.212-.932-.094-.218-.075-.176-2.212.932-2.212.931.094.219.075.175zm-.169-.394 2.208-.941c-.18-.423-.367-.828-.567-1.235l-2.155 1.058-2.154 1.057c.166.339.317.666.46 1.002zm-.514-1.118.906 2.223c3.585-1.46 5.162-3.617 5.375-3.936l-1.997-1.332-1.996-1.331c.184-.277-.7 1.138-3.193 2.153zM8.997 1.315v2.4a5.25 5.25 0 0 1 3.493 1.32l1.586-1.8 1.586-1.802a10.05 10.05 0 0 0-6.665-2.518zm5.079 1.92-1.92-1.441c-.013.018-.157.254-.584.625-.44.384-1.193.917-2.355 1.353l.843 2.247.843 2.247c1.743-.654 2.987-1.5 3.823-2.228.417-.364.73-.695.951-.956.213-.25.387-.498.319-.407zM10.06 6.019l2.107-1.15A41 41 0 0 0 9.08.066l-1.9 1.468L5.284 3l.02.026a13 13 0 0 1 .247.336 37 37 0 0 1 2.402 3.805zM7.182 1.533l.562 2.333q.614-.15 1.252-.151v-4.8c-.825 0-1.619.102-2.376.285zm-.035.007h2.4a2.393 2.393 0 0 1-2.398 2.395 2.4 2.4 0 0 1-1.7-4.093zl1.696 1.697A2.41 2.41 0 0 0 9.44.82a2.4 2.4 0 0 0-4.693.72zm0 0 1.696 1.697c.012-.012-.01.011.002-.001.008-.009-.008.008 0-.001.002-.002 0 .001 0 0h.001c.002-.002-.001 0 0-.001h.001l.001-.002-1.696-1.697L5.455-.163c-.003.003.002-.001-.001.002h-.001c-.005.005.004-.004 0 .001l-.003.002zl1.696 1.697c.012-.012-.01.011.002-.001.008-.009-.008.008 0-.001.002-.002 0 .001 0 0h.001c.002-.002-.001 0 0-.001h.001l.001-.002-1.696-1.697L5.455-.163c-.003.003.002-.001-.001.002h-.001c-.005.005.004-.004 0 .001l-.003.002zm-1.428.506L3.835 3.534a44 44 0 0 1 2.648 4.12l2.091-1.178 2.092-1.177C9.273 2.824 7.782.787 7.602.559zm2.855 4.43-.614-2.32c-1.68.444-3.262.662-4.451.766-1.197.104-1.951.09-1.95.09l-.082 2.399-.083 2.399c.352.012 3.803.042 7.794-1.014zm-7.097.935 2.35.487a5.28 5.28 0 0 1 2.916-3.681l-1.024-2.17L4.694-.125A10.08 10.08 0 0 0-.873 6.924zm-.162 1.35v2.4c-.012 0 .315.006.788-.005.48-.01 1.141-.039 1.93-.107 1.565-.134 3.678-.43 5.864-1.086l-.69-2.299-.69-2.299c-3.588 1.077-7.068.996-7.202.996zm7.893-1.097-2.14 1.088c.2.392.395.801.578 1.208l2.188-.988 2.187-.988a34 34 0 0 0-.674-1.408zm.626 1.308-.66-2.308c-.038.011-.256.07-.45.139l.807 2.26.807 2.26c-.012.005-.01.004.02-.005l.053-.015.082-.023zm-.303.091L8.792 6.78c-2.576.833-4.466 2.386-5.684 3.669a15 15 0 0 0-1.396 1.694 12 12 0 0 0-.516.796l-.005.008-.002.003v.002s-.001.001 2.089 1.18 2.09 1.181 2.09 1.182l-.002.001v.002l-.003.004-.002.004.005-.008.043-.07c.044-.071.118-.185.222-.331.207-.294.528-.71.957-1.161.871-.917 2.108-1.899 3.682-2.408zm-6.253 5.07h-2.4v.006h4.8v-.006zm0 .007 1.786-1.603A5.27 5.27 0 0 1 3.708 9h-4.8c0 2.592.981 4.957 2.584 6.743zM1.308 9h2.4c0 .019 0 .029.001-.016l.004-.084.002-.14h-4.8v-.022.033A4 4 0 0 0-1.092 9z" mask="url(#path-1-inside-1_11_59537)"/></g></svg>