<svg viewBox="0 0 32 26" xmlns="http://www.w3.org/2000/svg"><path d="M27.396 24.734V22.26l-2.434-2.397a.85.85 0 0 1 0-1.21l2.433-2.398V8.3l-2.42.85v6.136a.85.85 0 0 1-.388.715 16.39 16.39 0 0 1-17.724 0 .85.85 0 0 1-.39-.715V9.15L.786 7.153a.85.85 0 0 1 .003-1.605L15.446.464a.85.85 0 0 1 .558 0l14.658 5.084a.85.85 0 0 1 .003 1.605l-1.57.55v8.552l2.434 2.397a.85.85 0 0 1 0 1.211l-2.433 2.397v2.473a.85.85 0 0 1-1.7 0m-.626-5.476 1.475 1.454 1.477-1.454-1.477-1.455zm-10.763-6.96a.85.85 0 0 1-.564 0l-7.27-2.552v5.067a14.69 14.69 0 0 0 15.103 0V9.746zM3.647 6.356l12.078 4.238 12.078-4.238-12.078-4.19z"/></svg>