<!--Generated by IcoMoon.io--><svg version="1.1" xmlns="http://www.w3.org/2000/svg" viewBox="0 0 768 768"><path d="M544 416v192c0 8.832-3.552 16.8-9.376 22.624S520.832 640 512 640H160c-8.832 0-16.8-3.552-22.624-9.376S128 616.832 128 608V256c0-8.832 3.552-16.8 9.376-22.624S151.168 224 160 224h192c17.664 0 32-14.336 32-32s-14.336-32-32-32H160c-26.496 0-50.56 10.784-67.872 28.128S64 229.504 64 256v352c0 26.496 10.784 50.56 28.128 67.872S133.504 704 160 704h352c26.496 0 50.56-10.784 67.872-28.128S608 634.496 608 608V416c0-17.664-14.336-32-32-32s-32 14.336-32 32m-201.376 54.624L640 173.248V288c0 17.664 14.336 32 32 32s32-14.336 32-32V96a31.87 31.87 0 0 0-9.344-22.592l-.064-.064A31.86 31.86 0 0 0 672 64H480c-17.664 0-32 14.336-32 32s14.336 32 32 32h114.752L297.376 425.376c-12.512 12.512-12.512 32.768 0 45.248s32.768 12.512 45.248 0"/></svg>