<!--Generated by IcoMoon.io--><svg version="1.1" xmlns="http://www.w3.org/2000/svg" viewBox="0 0 768 768"><path d="M562.752 224H480v-82.752zm99.872 9.376-192-192c-2.944-2.944-6.464-5.312-10.368-6.944S452.16 32 448 32H192c-26.496 0-50.56 10.784-67.872 28.128S96 101.504 96 128v512c0 26.496 10.784 50.56 28.128 67.872S165.504 736 192 736h384c26.496 0 50.56-10.784 67.872-28.128S672 666.496 672 640V256c0-8.832-3.584-16.832-9.376-22.624M416 96v160c0 17.664 14.336 32 32 32h160v352c0 8.832-3.552 16.8-9.376 22.624S584.832 672 576 672H192c-8.832 0-16.8-3.552-22.624-9.376S160 648.832 160 640V128c0-8.832 3.552-16.8 9.376-22.624S183.168 96 192 96zm96 288H256c-17.664 0-32 14.336-32 32s14.336 32 32 32h256c17.664 0 32-14.336 32-32s-14.336-32-32-32m0 128H256c-17.664 0-32 14.336-32 32s14.336 32 32 32h256c17.664 0 32-14.336 32-32s-14.336-32-32-32M320 256h-64c-17.664 0-32 14.336-32 32s14.336 32 32 32h64c17.664 0 32-14.336 32-32s-14.336-32-32-32"/></svg>