<svg viewBox="0 0 20 24" xmlns="http://www.w3.org/2000/svg"><path d="M13.09.433a.6.6 0 0 1 .762.764c-.803 2.307-.128 5.112 1.08 6.784.315.435.688.805 1.105 1.196.407.38.87.793 1.293 1.272.88.996 1.594 2.284 1.745 4.436.236 3.357-1.25 5.572-3.205 6.918-1.916 1.318-4.267 1.798-5.872 1.796h-.041c-2.66-.144-4.642-.834-6.068-1.91-1.431-1.08-2.256-2.514-2.662-4.053-.804-3.043.013-6.532.98-8.798a.6.6 0 0 1 .719-.34l3.007.872c.18-2.528 1.297-4.504 2.656-5.955 1.49-1.59 3.28-2.565 4.502-2.982m-2.205 12.39a5.2 5.2 0 0 0-.944.788c-.639.683-1.134 1.611-1.125 2.824a.6.6 0 0 1-.768.58l-1.38-.402c-.35 1.021-.559 2.32-.27 3.414.164.623.485 1.168 1.029 1.58.547.413 1.367.725 2.59.792.675-.002 1.676-.213 2.466-.757.763-.526 1.341-1.364 1.246-2.726-.063-.89-.342-1.36-.667-1.73-.18-.203-.37-.373-.6-.588a5 5 0 0 1-.679-.742c-.553-.767-.933-1.896-.898-3.033M12.41 2.027a10.9 10.9 0 0 0-2.944 2.208c-1.332 1.422-2.378 3.375-2.36 5.921a.6.6 0 0 1-.768.581l-3.225-.936c-.814 2.122-1.38 5.047-.725 7.528.349 1.322 1.04 2.509 2.224 3.402q.468.354 1.052.647a4.3 4.3 0 0 1-.426-1.045c-.433-1.644.01-3.498.515-4.685l.053-.098a.6.6 0 0 1 .666-.243l1.197.347c.17-1.2.732-2.152 1.398-2.863.796-.85 1.753-1.374 2.416-1.601a.6.6 0 0 1 .761.764c-.373 1.074-.058 2.409.513 3.2.143.197.316.37.526.568.201.188.452.412.68.67.489.555.882 1.273.964 2.44.069.985-.138 1.794-.509 2.447q.398-.209.773-.465c1.644-1.131 2.89-2.957 2.688-5.845-.132-1.874-.732-2.915-1.447-3.725-.375-.424-.778-.783-1.214-1.191-.426-.399-.871-.834-1.257-1.368-1.195-1.654-1.948-4.235-1.55-6.658"/></svg>