<svg viewBox="0 0 38 38" xmlns="http://www.w3.org/2000/svg"><path d="M17.698 36v-2.317c-7.154-.581-12.853-6.309-13.43-13.483H2a1.2 1.2 0 0 1 0-2.4h2.269c.576-7.174 6.275-12.903 13.43-13.484V2a1.2 1.2 0 0 1 2.4 0v2.316c7.154.581 12.853 6.31 13.43 13.484H36a1.2 1.2 0 0 1 0 2.4h-2.472c-.576 7.174-6.275 12.902-13.43 13.483V36a1.2 1.2 0 0 1-2.4 0m6.163-17c0-2.76-2.226-4.988-4.963-4.988S13.936 16.24 13.936 19s2.226 4.988 4.962 4.988c2.737 0 4.963-2.229 4.963-4.988M17.698 8.528V6.727C11.877 7.294 7.24 11.946 6.678 17.8h1.824a1.2 1.2 0 0 1 0 2.4H6.678c.562 5.854 5.199 10.505 11.02 11.073v-1.699a1.2 1.2 0 0 1 2.4 0v1.698c5.822-.567 10.458-5.218 11.021-11.072h-1.723a1.2 1.2 0 0 1 0-2.4h1.723C30.556 11.946 25.92 7.294 20.1 6.727v1.801a1.2 1.2 0 0 1-2.4 0M26.262 19c0 4.076-3.292 7.388-7.364 7.388-4.07 0-7.363-3.312-7.363-7.388s3.292-7.388 7.363-7.388 7.364 3.312 7.364 7.388"/></svg>