<svg viewBox="0 0 26 26" xmlns="http://www.w3.org/2000/svg"><path d="M24.15 13a11.15 11.15 0 1 0-22.3.002A11.15 11.15 0 0 0 24.15 13m1.7 0a12.85 12.85 0 0 1-3.764 9.086A12.849 12.849 0 1 1 3.914 3.914 12.85 12.85 0 0 1 25.85 13"/><path d="M24.2 8.15a.85.85 0 0 1 0 1.7H1.798a.85.85 0 1 1 0-1.7z"/><path d="M24.2 16.15a.85.85 0 0 1 0 1.7H1.798a.85.85 0 1 1 0-1.7z"/><path d="M8.047 13c0-4.402 1.235-8.716 3.565-12.45a.85.85 0 0 1 1.443.9 21.82 21.82 0 0 0 0 23.1.85.85 0 0 1-1.443.9A23.5 23.5 0 0 1 8.047 13"/><path d="M16.253 13a21.8 21.8 0 0 0-3.308-11.55.85.85 0 0 1 1.442-.9 23.52 23.52 0 0 1 0 24.9.85.85 0 0 1-1.442-.9A21.8 21.8 0 0 0 16.253 13"/></svg>