<svg viewBox="0 0 26 24" xmlns="http://www.w3.org/2000/svg"><path d="M5.38.818a7.52 7.52 0 0 1 7.622 1.894 7.52 7.52 0 0 1 12.127 2.103 7.52 7.52 0 0 1-1.535 8.562 1 1 0 0 1-.072.062l-9.926 9.831a.85.85 0 0 1-1.196 0l-10-9.903A7.516 7.516 0 0 1 5.38.817M8.264 2.2a5.817 5.817 0 0 0-4.882 9.737l.21.215.004.006 9.402 9.31 9.402-9.31.059-.053A5.82 5.82 0 0 0 24.14 7.85a5.818 5.818 0 0 0-10.464-3.33.85.85 0 0 1-1.36-.004A5.82 5.82 0 0 0 8.263 2.2"/><path d="M17 7.574c1.35 0 2.646.537 3.6 1.491l3 3a.85.85 0 0 1-1.202 1.203l-3-3a3.39 3.39 0 0 0-4.797 0L13.268 11.6a3.21 3.21 0 0 1-4.536 0l-.724-.723a2.184 2.184 0 0 1 0-3.087l4.39-4.39a.85.85 0 0 1 1.203 1.2L9.21 8.993h-.001a.485.485 0 0 0 .001.683l.725.724a1.51 1.51 0 0 0 2.13 0l1.333-1.334A5.1 5.1 0 0 1 17 7.575"/><path d="M13.065 16.066a.85.85 0 0 1 1.202 0l2.666 2.666a.85.85 0 1 1-1.202 1.202l-2.666-2.667a.85.85 0 0 1 0-1.201"/><path d="M16.4 12.733a.85.85 0 0 1 1.2 0l2.667 2.666a.85.85 0 1 1-1.202 1.202L16.4 13.934a.85.85 0 0 1 0-1.201"/></svg>