<svg viewBox="0 0 24 24" xmlns="http://www.w3.org/2000/svg"><path d="M5.818 22.667c0-2.91 1.107-4.839 2.673-6.014 1.526-1.144 3.392-1.503 4.844-1.503a.85.85 0 0 1 0 1.7c-1.215 0-2.682.308-3.823 1.164-1.1.825-1.994 2.229-1.994 4.653a.85.85 0 0 1-1.7 0"/><path d="M12.482 13.334a1.82 1.82 0 0 0-1.817-1.818H3.999a1.82 1.82 0 0 0-1.817 1.818V20a1.82 1.82 0 0 0 1.817 1.817h6.666A1.82 1.82 0 0 0 12.482 20zm1.7 6.666a3.517 3.517 0 0 1-3.517 3.516H3.999A3.517 3.517 0 0 1 .482 20v-6.666A3.517 3.517 0 0 1 4 9.817h6.666a3.517 3.517 0 0 1 3.517 3.517z"/><path d="M.482 5.334V2.667A2.184 2.184 0 0 1 2.665.484h2.667a.85.85 0 1 1 0 1.7H2.665a.484.484 0 0 0-.483.482v2.668a.85.85 0 1 1-1.7 0"/><path d="M13.335.484a.85.85 0 1 1 0 1.7h-2.667a.85.85 0 1 1 0-1.7z"/><path d="M21.818 5.334V2.667a.485.485 0 0 0-.483-.484h-2.667a.85.85 0 1 1 0-1.7h2.667a2.184 2.184 0 0 1 2.183 2.184v2.667a.85.85 0 1 1-1.7 0"/><path d="M21.818 13.334v-2.668a.85.85 0 1 1 1.7 0v2.668a.85.85 0 0 1-1.7 0"/><path d="M21.818 21.334v-2.668a.85.85 0 1 1 1.7 0v2.668a2.183 2.183 0 0 1-2.183 2.182h-2.667a.85.85 0 1 1 0-1.7h2.667a.484.484 0 0 0 .483-.482"/></svg>