<svg viewBox="0 0 25 21" xmlns="http://www.w3.org/2000/svg"><path d="M21.815 6.666V4A1.82 1.82 0 0 0 20 2.183H4A1.82 1.82 0 0 0 2.182 4v6.666a1.82 1.82 0 0 0 1.817 1.817h5.333a.85.85 0 1 1 0 1.7H3.999a3.517 3.517 0 0 1-3.517-3.517V4A3.517 3.517 0 0 1 4 .483h16A3.517 3.517 0 0 1 23.516 4v2.666a.851.851 0 0 1-1.7 0"/><path d="M19.151 20v-5.333a1.818 1.818 0 0 0-3.101-1.285c-.34.34-.532.803-.532 1.285V20a.85.85 0 1 1-1.7 0v-5.333a3.517 3.517 0 1 1 7.034 0V20a.85.85 0 0 1-1.7 0"/><path d="M20.001 16.483a.85.85 0 1 1 0 1.7h-5.333a.85.85 0 1 1 0-1.7z"/><path d="M23.15 20v-8a.85.85 0 1 1 1.7 0v8a.85.85 0 1 1-1.7 0"/></svg>