<svg viewBox="0 0 46 38" xmlns="http://www.w3.org/2000/svg"><path d="M34.132 14.015C34.132 8.07 29.178 3.2 23 3.2S11.868 8.071 11.868 14.015c0 2.56.915 4.912 2.45 6.768.291.352.567.616.887.936.31.309.662.67.981 1.14.663.977 1.07 2.251 1.25 4.392.072.856.77 1.51 1.587 1.51h7.954c.817 0 1.515-.654 1.587-1.51.18-2.14.587-3.415 1.25-4.392.319-.47.67-.831.98-1.14.321-.32.597-.584.888-.936a10.57 10.57 0 0 0 2.45-6.768M20.224 33.298v.392q.02.033.037.067l.064.144.06.13c.16.295.426.534.76.664.077.03.21.065.514.084.314.02.722.02 1.341.02s1.027 0 1.34-.02c.305-.02.438-.054.515-.084.382-.148.675-.44.82-.794l.064-.144.035-.067.002-.392v-2.136h-5.552zM6.509 20.068a1.2 1.2 0 0 1 1.198 2.08L4.76 23.847a1.2 1.2 0 1 1-1.198-2.08zm31.344.44a1.2 1.2 0 0 1 1.638-.44l2.947 1.7a1.2 1.2 0 0 1-1.198 2.079l-2.947-1.699a1.2 1.2 0 0 1-.44-1.64m-32.448-6.84a1.2 1.2 0 0 1 0 2.4H2a1.2 1.2 0 1 1 0-2.4zm38.595 0a1.2 1.2 0 0 1 0 2.4h-3.405a1.2 1.2 0 1 1 0-2.4zM21.51 6.27a1.2 1.2 0 0 1 .431 2.36c-2.447.447-3.976 2.278-4.797 4.87a1.2 1.2 0 1 1-2.288-.725c.976-3.08 3.015-5.84 6.654-6.505M3.12 6.102a1.2 1.2 0 0 1 1.639-.44L7.707 7.36a1.2 1.2 0 0 1-1.198 2.08L3.562 7.741a1.2 1.2 0 0 1-.44-1.64m38.12-.44a1.2 1.2 0 0 1 1.197 2.08L39.491 9.44a1.2 1.2 0 0 1-1.198-2.08zm-4.709 8.353c0 3.145-1.126 6.033-3 8.299-.383.461-.758.82-1.044 1.105-.296.295-.507.52-.688.787-.34.5-.683 1.314-.845 3.246-.136 1.622-1.238 3.03-2.778 3.523v2.323c0 .285 0 .49-.004.627a3 3 0 0 1-.013.23 1.5 1.5 0 0 1-.095.387c-.056.14-.129.248-.197.332a3.85 3.85 0 0 1-2.144 2.059c-.402.156-.81.214-1.229.24-.409.027-.907.027-1.495.027s-1.086 0-1.495-.026c-.419-.027-.827-.085-1.229-.241a3.85 3.85 0 0 1-2.145-2.059 1.3 1.3 0 0 1-.196-.332 1.5 1.5 0 0 1-.095-.388 3 3 0 0 1-.013-.23 29 29 0 0 1-.004-.626v-2.323c-1.54-.492-2.642-1.9-2.778-3.523-.162-1.932-.506-2.746-.845-3.246-.181-.267-.392-.492-.688-.787-.286-.285-.661-.644-1.043-1.105a12.98 12.98 0 0 1-3.001-8.3C9.468 6.688 15.556.8 23 .8s13.532 5.887 13.532 13.215"/></svg>