<svg viewBox="0 0 12 12" xmlns="http://www.w3.org/2000/svg"><path d="M6 3.267H2.665a.5.5 0 0 0-.362.15.5.5 0 0 0-.15.36v5.556a.5.5 0 0 0 .15.362.5.5 0 0 0 .362.15H8.22a.5.5 0 0 0 .362-.15.5.5 0 0 0 .15-.362V6a.6.6 0 0 1 1.2 0v3.333a1.7 1.7 0 0 1-.502 1.21 1.7 1.7 0 0 1-1.21.501H2.666a1.7 1.7 0 0 1-1.21-.5 1.7 1.7 0 0 1-.501-1.21V3.777a1.7 1.7 0 0 1 .5-1.21 1.7 1.7 0 0 1 1.21-.501H6a.6.6 0 0 1 0 1.2"/><path d="m5.021 6.131 5-5a.6.6 0 0 1 .849.849l-5 5a.6.6 0 0 1-.849-.849"/><path d="M7.664.956h2.778a.6.6 0 0 1 .6.6v2.777a.6.6 0 0 1-1.2 0V2.156H7.664a.6.6 0 0 1 0-1.2"/></svg>