<svg viewBox="0 0 18 18" xmlns="http://www.w3.org/2000/svg"><g opacity="0.4"><path d="M18 12.153V16.8a1.2 1.2 0 0 1-1.2 1.2h-1.52a1.2 1.2 0 0 1-1.2-1.2v-4.46l.004-.209.004-.267v-.01a6 6 0 0 0-.106-1.178 3 3 0 0 0-.068-.272 2.6 2.6 0 0 0-.148-.382l-.003-.006a1.8 1.8 0 0 0-.426-.571 1.83 1.83 0 0 0-1.218-.417h-.043a2 2 0 0 0-.672.108 1.2 1.2 0 0 1-1.463-.612v2.63a1.2 1.2 0 0 1 .01.336l-.007.067-.001.007-.002.012V16.8a1.2 1.2 0 0 1-1.2 1.2H7.313a1.2 1.2 0 0 1-1.2-1.2V7.139a1.2 1.2 0 0 1 1.2-1.2h1.428a1.2 1.2 0 0 1 1.2 1.2v.335a1 1 0 0 1 .09-.154 3.4 3.4 0 0 1 1.182-1.07l.063-.031a4.8 4.8 0 0 1 2.208-.463h.034a4.54 4.54 0 0 1 2.528.629l.048.03.028.019.021.014a3.67 3.67 0 0 1 1.316 1.685l.004.01a8.1 8.1 0 0 1 .515 2.722A28 28 0 0 1 18 12.146zM4.388 7.14v9.66a1.2 1.2 0 0 1-1.2 1.2H1.76a1.2 1.2 0 0 1-1.2-1.2V7.14a1.2 1.2 0 0 1 1.2-1.2h1.428a1.2 1.2 0 0 1 1.2 1.2m.561-4.69A2.466 2.466 0 0 0 2.475 0 2.466 2.466 0 0 0 0 2.45v.016a2.466 2.466 0 0 0 2.475 2.45 2.466 2.466 0 0 0 2.474-2.45zm-2.4.009a.066.066 0 0 0-.067-.058h-.015a.066.066 0 0 0-.066.058.066.066 0 0 0 .066.058h.015a.066.066 0 0 0 .067-.058" fill-rule="evenodd"/></g></svg>