<svg width="10" height="10" viewBox="0 0 10 10" fill="none" xmlns="http://www.w3.org/2000/svg">
<path d="M9.56909 4.36636L6.74909 3.25091L5.63364 0.430909C5.53091 0.170909 5.27909 0 5 0C4.72091 0 4.46909 0.170909 4.36636 0.430909L3.25091 3.25091L0.430909 4.36636C0.170909 4.46909 0 4.72091 0 5C0 5.27909 0.170909 5.53091 0.430909 5.63364L3.25091 6.74909L4.36636 9.56909C4.46909 9.82909 4.72091 10 5 10C5.27909 10 5.53091 9.82909 5.63364 9.56909L6.74909 6.74909L9.56909 5.63364C9.82909 5.53091 10 5.27909 10 5C10 4.72091 9.82909 4.46909 9.56909 4.36636Z" fill="#FED500"/>
</svg>
