<svg viewBox="0 0 30 34" xmlns="http://www.w3.org/2000/svg"><path d="M23.646 22.078a.85.85 0 0 1 .793.546l.514 1.34c.477 1.244 1.498 2.236 2.809 2.704l1.39.496a.85.85 0 0 1 0 1.6l-1.39.497c-1.31.468-2.332 1.46-2.809 2.703l-.514 1.34a.85.85 0 0 1-1.587 0l-.514-1.34c-.477-1.243-1.5-2.235-2.81-2.703l-1.39-.496a.85.85 0 0 1 0-1.6l1.39-.497c1.31-.468 2.333-1.46 2.81-2.703l.514-1.341a.85.85 0 0 1 .793-.546m-.002 3.116a6.36 6.36 0 0 1-2.832 2.77 6.36 6.36 0 0 1 2.832 2.768 6.37 6.37 0 0 1 2.834-2.768 6.36 6.36 0 0 1-2.834-2.77M11.612 5.936a.85.85 0 0 1 .794.545l1.033 2.69c1.05 2.737 3.29 4.906 6.148 5.926l2.79.996a.85.85 0 0 1 0 1.6l-2.79.996c-2.858 1.02-5.099 3.19-6.148 5.925l-1.033 2.69a.85.85 0 0 1-1.587 0l-1.032-2.69c-1.05-2.736-3.291-4.905-6.15-5.925l-2.79-.996a.85.85 0 0 1 0-1.6l2.79-.996c2.859-1.02 5.1-3.19 6.15-5.925l1.032-2.69.056-.119a.85.85 0 0 1 .737-.427m-.238 3.845c-1.233 3.214-3.855 5.736-7.165 6.917l-.547.195.547.195c3.31 1.181 5.932 3.703 7.165 6.917l.238.622.24-.622c1.232-3.213 3.854-5.736 7.164-6.917l.546-.195-.546-.195c-3.31-1.181-5.931-3.703-7.164-6.917l-.24-.623zM23.645.151a.85.85 0 0 1 .794.544l.514 1.341c.477 1.243 1.498 2.235 2.809 2.703l1.39.496a.85.85 0 0 1 0 1.6l-1.39.497c-1.31.468-2.332 1.46-2.809 2.703l-.514 1.341a.85.85 0 0 1-1.587 0l-.514-1.34c-.477-1.244-1.5-2.236-2.81-2.704l-1.39-.496a.85.85 0 0 1 0-1.6l1.39-.497c1.31-.467 2.333-1.46 2.81-2.703l.514-1.34.055-.118a.85.85 0 0 1 .738-.428m0 3.116a6.36 6.36 0 0 1-2.834 2.768 6.36 6.36 0 0 1 2.834 2.77 6.37 6.37 0 0 1 2.832-2.77 6.36 6.36 0 0 1-2.832-2.768"/></svg>