<svg viewBox="0 0 14 12" xmlns="http://www.w3.org/2000/svg"><path d="M2.333.733h9.334a1.93 1.93 0 0 1 1.367.566 1.93 1.93 0 0 1 .566 1.367v6.667a1.93 1.93 0 0 1-.566 1.367 1.93 1.93 0 0 1-1.367.566H2.333A1.933 1.933 0 0 1 .4 9.333V2.666A1.93 1.93 0 0 1 .966 1.3 1.93 1.93 0 0 1 2.333.733m0 1.2h9.334a.73.73 0 0 1 .518.215.73.73 0 0 1 .215.518v6.667a.73.73 0 0 1-.215.519.73.73 0 0 1-.518.214H2.333a.73.73 0 0 1-.518-.214.73.73 0 0 1-.215-.519V2.666a.73.73 0 0 1 .215-.518.73.73 0 0 1 .518-.215" fill-rule="evenodd"/><path d="M1.333 2.167 7 5.945l5.667-3.778a.6.6 0 0 1 .666.998l-6 4a.6.6 0 0 1-.666 0l-6-4a.6.6 0 0 1 .666-.998"/></svg>