<!--Generated by IcoMoon.io--><svg version="1.1" xmlns="http://www.w3.org/2000/svg" viewBox="0 0 768 768"><path d="M96 253.472 365.664 442.24c10.88 7.52 25.44 7.872 36.704 0L672 253.472V576c0 8.704-3.52 16.672-9.44 22.56S648.704 608 640 608H128c-8.704 0-16.672-3.52-22.56-9.44S96 584.704 96 576zm-64-62.016V576c0 26.496 10.88 50.528 28.16 67.84S101.504 672 128 672h512c26.496 0 50.528-10.88 67.84-28.16S736 602.496 736 576V191.424c-.16-26.272-10.976-50.08-28.16-67.264C690.528 106.88 666.496 96 640 96H128c-26.496 0-50.528 10.88-67.84 28.16-17.184 17.184-28 40.992-28.16 67.296m636.608-13.728L384 376.928l-284.608-199.2c1.536-3.072 3.584-5.856 6.016-8.288 5.92-5.92 13.888-9.44 22.592-9.44h512c8.704 0 16.672 3.52 22.56 9.44a32.5 32.5 0 0 1 6.016 8.288z"/></svg>