<svg viewBox="0 0 26 26" xmlns="http://www.w3.org/2000/svg"><path d="M24.15 11.667c0-5.33-4.896-9.817-11.15-9.817a11.15 11.15 0 0 0-.553 22.287l.553.013.077.003a.884.884 0 0 0 .946-1.058.9.9 0 0 0-.226-.427 3.5 3.5 0 0 1-1.41-1.624 3.518 3.518 0 0 1 3.28-4.894H19c1.395 0 2.717-.495 3.678-1.348.956-.85 1.472-1.982 1.472-3.135m1.7 0c0 1.673-.749 3.256-2.042 4.405-1.29 1.147-3.022 1.778-4.808 1.778h-3.347a1.82 1.82 0 0 0-1.7 2.528c.138.326.369.604.662.8l.13.078.086.055a1 1 0 0 1 .08.064 2.583 2.583 0 0 1-1.94 4.474A12.848 12.848 0 0 1 3.914 3.914 12.85 12.85 0 0 1 13 .15c7 0 12.85 5.066 12.85 11.517"/><path d="M8.816 11a.484.484 0 1 0-.968 0 .484.484 0 0 0 .968 0m1.7 0a2.184 2.184 0 1 1-4.367-.001 2.184 2.184 0 0 1 4.368 0"/><path d="M14.15 7a.484.484 0 1 0-.968 0 .484.484 0 0 0 .968 0m1.7 0a2.184 2.184 0 1 1-4.367 0 2.184 2.184 0 0 1 4.368 0"/><path d="M19.482 11a.484.484 0 1 0-.968 0 .484.484 0 0 0 .968 0m1.7 0a2.184 2.184 0 1 1-4.367-.001 2.184 2.184 0 0 1 4.368 0"/></svg>