<svg viewBox="0 0 30 30" xmlns="http://www.w3.org/2000/svg"><path d="M11.482 7c0-.948 0-1.607-.042-2.12-.04-.504-.118-.79-.228-1.007a2.5 2.5 0 0 0-1.085-1.085c-.217-.11-.505-.188-1.008-.229-.513-.042-1.173-.043-2.12-.043s-1.607.001-2.12.043c-.503.041-.79.118-1.007.229a2.5 2.5 0 0 0-1.085 1.085c-.11.216-.187.503-.228 1.006-.042.514-.043 1.173-.043 2.12v16c0 .948 0 1.608.043 2.12.04.504.118.792.228 1.008.238.468.618.847 1.085 1.085.217.11.504.188 1.007.229.513.042 1.173.042 2.12.042s1.607 0 2.12-.042c.503-.041.791-.118 1.008-.229a2.5 2.5 0 0 0 1.085-1.085c.11-.216.187-.504.228-1.007.042-.514.042-1.173.042-2.12zm1.7 16c0 .919.002 1.66-.047 2.258-.05.609-.156 1.145-.408 1.64a4.2 4.2 0 0 1-1.829 1.83c-.496.252-1.032.357-1.64.407-.599.05-1.34.048-2.259.048s-1.66.001-2.258-.048c-.608-.05-1.144-.155-1.64-.408A4.2 4.2 0 0 1 1.272 26.9c-.253-.496-.358-1.032-.408-1.64-.049-.6-.048-1.34-.048-2.26V7c0-.919 0-1.659.048-2.257.05-.608.155-1.145.407-1.64h.001a4.2 4.2 0 0 1 1.829-1.829v-.001c.496-.253 1.032-.358 1.64-.407C5.34.815 6.08.817 7 .817S8.66.816 9.259.865c.608.05 1.144.154 1.64.407v.001a4.2 4.2 0 0 1 1.829 1.828c.252.496.358 1.032.408 1.64.049.599.048 1.34.048 2.259z"/><path d="M8.333 23.484a.85.85 0 0 1 0 1.7H5.666a.85.85 0 1 1 0-1.7z"/><path d="M19.23 2.536a4.2 4.2 0 0 1 2.587 0c.53.172.982.477 1.448.872.457.389.98.913 1.63 1.563s1.175 1.174 1.564 1.632c.395.465.7.918.871 1.448.273.84.273 1.745 0 2.585-.172.53-.476.984-.87 1.45-.39.457-.914.98-1.564 1.63L11.485 27.127V12.2c0-1.02-.015-1.767.267-2.45.283-.682.821-1.2 1.543-1.922l2.856-2.856c.65-.65 1.174-1.174 1.631-1.563.466-.395.919-.7 1.449-.872m-6.046 20.488 10.51-10.51c.67-.67 1.136-1.137 1.47-1.53.326-.384.475-.642.55-.873a2.5 2.5 0 0 0 0-1.535c-.075-.231-.224-.489-.55-.874-.334-.392-.8-.859-1.47-1.529s-1.137-1.136-1.53-1.469c-.385-.326-.642-.475-.873-.55a2.5 2.5 0 0 0-1.535 0c-.231.075-.488.224-.873.55-.392.333-.86.8-1.53 1.469L14.498 9.03c-.82.82-1.051 1.073-1.175 1.37-.123.298-.138.641-.138 1.8z"/><path d="M27.483 23c0-.948 0-1.608-.043-2.12-.04-.503-.117-.79-.227-1.007a2.5 2.5 0 0 0-1.086-1.085c-.217-.11-.504-.188-1.007-.229-.513-.042-1.173-.043-2.12-.043h-3.333v-1.7H23c.92 0 1.66 0 2.259.049.608.05 1.144.155 1.64.408a4.2 4.2 0 0 1 1.828 1.828c.253.496.358 1.033.408 1.64.049.6.049 1.34.049 2.259s0 1.66-.05 2.258c-.049.609-.154 1.145-.407 1.64a4.2 4.2 0 0 1-1.828 1.83c-.496.252-1.032.357-1.64.407-.599.05-1.34.048-2.259.048H7v-1.7h16c.947 0 1.607 0 2.12-.042.503-.041.79-.118 1.007-.229a2.5 2.5 0 0 0 1.086-1.085c.11-.216.186-.504.227-1.007.042-.514.043-1.173.043-2.12"/></svg>