<svg viewBox="0 0 34 34" xmlns="http://www.w3.org/2000/svg"><path d="M25.698.288a2.9 2.9 0 0 1 1.764 0c.378.122.69.335.987.584.29.243.617.568 1.005.952l2.56 2.535c.389.384.717.707.963.994.252.294.468.605.591.982a2.82 2.82 0 0 1 0 1.761c-.123.377-.34.688-.591.981-.246.287-.574.611-.962.995l-7.523 7.445 7.878 7.798a4.97 4.97 0 0 1 0 7.074 5.07 5.07 0 0 1-7.123 0l-7.892-7.81-6.659 6.592-.542.538c-.388.385-.715.71-1.005.952-.297.25-.61.462-.987.583a2.9 2.9 0 0 1-1.765 0c-.377-.121-.69-.333-.987-.583-.29-.243-.616-.567-1.005-.952l-2.56-2.535c-.388-.384-.717-.708-.962-.994-.252-.294-.468-.605-.592-.982a2.82 2.82 0 0 1 0-1.761c.124-.378.34-.688.592-.982.246-.286.573-.61.962-.995l7.19-7.116-4.369-4.324a.9.9 0 0 1-.18-.265L1.068 3.904c-.16-.367-.303-.695-.391-.96C.6 2.709.488 2.32.618 1.92l.066-.17a1.52 1.52 0 0 1 .921-.81l.149-.036c.342-.062.663.029.87.096.267.087.597.229.968.387l7.933 3.38.073.035q.106.058.192.144l4.38 4.336 7.536-7.458c.389-.384.716-.709 1.005-.952.297-.25.61-.462.987-.584m-1.396 28.775 2.14 2.118a3.373 3.373 0 0 0 4.733 0 3.27 3.27 0 0 0 0-4.658l-2.154-2.131zm2.64-27.156a1.2 1.2 0 0 0-.723 0c-.082.026-.2.085-.415.266-.224.188-.494.455-.903.86L10.933 16.857a1 1 0 0 1-.078.091 1 1 0 0 1-.103.087L3.041 24.67c-.408.404-.678.671-.868.893-.184.214-.241.328-.267.405a1.12 1.12 0 0 0 0 .7c.026.077.083.192.267.406.19.221.46.489.868.893l2.56 2.534c.409.404.68.672.903.86.216.181.333.24.414.266.235.076.489.076.724 0 .081-.026.198-.085.414-.266.211-.178.463-.426.834-.793l-2.13-2.109a.85.85 0 1 1 1.195-1.208l2.143 2.121 1.611-1.594-3.549-3.512a.85.85 0 0 1 1.196-1.208l3.561 3.523 1.753-1.734-2.13-2.108a.85.85 0 1 1 1.195-1.208l2.143 2.12 1.8-1.782-3.548-3.511a.85.85 0 0 1 1.196-1.208l3.56 3.523 1.73-1.71-2.13-2.11a.85.85 0 0 1 1.196-1.207l2.142 2.12.795-.786a1 1 0 0 1 .133-.132l.873-.863-3.549-3.512a.85.85 0 0 1 1.197-1.208l3.56 3.523 1.73-1.71-2.131-2.109a.85.85 0 1 1 1.195-1.208l2.143 2.121 1.896-1.876-3.549-3.512a.85.85 0 1 1 1.195-1.208l3.561 3.524c.378-.374.632-.627.813-.838.184-.214.242-.328.267-.405a1.12 1.12 0 0 0 0-.7c-.025-.078-.083-.192-.267-.406-.19-.221-.46-.49-.868-.893l-2.56-2.534a17 17 0 0 0-.902-.86c-.216-.181-.333-.24-.415-.266m-8.378 21.476 4.53 4.483 4.72-4.67-4.53-4.483zM6.472 11.415l3.771 3.733 4.72-4.671-3.772-3.732zm-3.844-8.19 2.92 6.713 4.146-4.103-6.768-2.884c-.205-.087-.37-.158-.507-.213.055.132.124.292.209.488"/></svg>