<svg viewBox="0 0 22 20" xmlns="http://www.w3.org/2000/svg"><path d="M13.667 11.333h5.334a1.333 1.333 0 0 1 1.333 1.334v4A1.334 1.334 0 0 1 19.001 18h-4a1.334 1.334 0 0 1-1.334-1.333z"/><path d="M19 16.667v-4h-4v4zm-6.667-8c0-2.003.504-3.766 1.625-5.167 1.118-1.397 2.739-2.299 4.718-2.794a1.334 1.334 0 0 1 .647 2.588c-1.577.394-2.622 1.047-3.282 1.872C15.385 5.986 15 7.114 15 8.667V10h4a2.67 2.67 0 0 1 2.666 2.667v4A2.667 2.667 0 0 1 19 19.333h-4a2.667 2.667 0 0 1-2.667-2.666z"/><path d="M1.667 11.333h5.334a1.333 1.333 0 0 1 1.333 1.334v4A1.333 1.333 0 0 1 7.001 18H3a1.334 1.334 0 0 1-1.334-1.333z"/><path d="M7 16.667v-4H3v4zm-6.667-8c0-2.003.504-3.766 1.625-5.167C3.076 2.103 4.697 1.201 6.676.706a1.334 1.334 0 0 1 .647 2.588c-1.577.394-2.622 1.047-3.282 1.872C3.385 5.986 3 7.114 3 8.667V10h4a2.67 2.67 0 0 1 2.666 2.667v4A2.667 2.667 0 0 1 7 19.333H3a2.667 2.667 0 0 1-2.667-2.666z"/></svg>