<svg viewBox="0 0 40 38" xmlns="http://www.w3.org/2000/svg"><path d="M18.988.634a2.57 2.57 0 0 1 2.161.063c.585.292.927.84 1.159 1.274.247.464.51 1.089.818 1.816l3.169 7.487c.1.234.153.358.197.447l.026.047a.2.2 0 0 0 .05.035c-.026-.011-.023-.004.067.009.103.014.244.027.5.047l8.226.648c.802.063 1.482.115 2.001.202.478.08 1.105.225 1.57.683.587.577.868 1.41.735 2.24-.107.665-.543 1.16-.882 1.5-.37.373-.892.81-1.502 1.323l-6.267 5.276a9 9 0 0 0-.374.323q-.03.027-.04.04l-.006.016.006.042c.018.097.049.227.109.474l1.915 7.889c.186.766.347 1.424.425 1.943.072.48.127 1.14-.184 1.737a2.57 2.57 0 0 1-1.884 1.356c-.633.099-1.221-.14-1.663-.355-.473-.23-1.056-.582-1.742-.994l-7.044-4.226c-.22-.132-.339-.204-.43-.252-.08-.04-.085-.034-.058-.029a.2.2 0 0 0-.092 0c.027-.005.021-.012-.058.03-.091.047-.21.119-.43.25l-7.044 4.227c-.686.412-1.269.763-1.742.994-.441.215-1.03.454-1.663.355a2.57 2.57 0 0 1-1.884-1.356c-.31-.598-.255-1.257-.184-1.737.078-.52.24-1.177.425-1.943l1.915-7.889a9 9 0 0 0 .108-.474q.005-.027.006-.042l-.006-.017-.039-.039a9 9 0 0 0-.374-.323l-6.267-5.276c-.61-.513-1.131-.95-1.502-1.323-.34-.34-.775-.835-.882-1.5a2.57 2.57 0 0 1 .735-2.24c.465-.458 1.092-.603 1.57-.683.52-.087 1.2-.14 2-.202l8.227-.648c.256-.02.396-.033.5-.047.09-.013.093-.02.067-.01a.2.2 0 0 0 .05-.034l.026-.047c.044-.089.098-.213.197-.447l3.169-7.487c.308-.727.571-1.352.818-1.816.232-.433.574-.982 1.159-1.274zm.972 2.245c-.029.04-.082.119-.16.262-.182.343-.396.844-.723 1.617l-3.169 7.487c-.152.361-.328.816-.647 1.171a2.6 2.6 0 0 1-.905.647c-.43.183-.905.206-1.306.237l-8.227.648c-.847.067-1.404.112-1.798.178a3 3 0 0 0-.303.067c.034.043.09.107.176.194.277.278.699.635 1.345 1.179l6.269 5.275c.263.222.588.48.83.815l.098.148.07.124c.156.294.254.618.286.953.047.482-.086.959-.177 1.334l-1.915 7.889c-.198.814-.325 1.342-.382 1.723-.02.13-.025.216-.027.268a.2.2 0 0 0 .035.02c.044-.013.144-.046.317-.13.357-.174.833-.458 1.56-.894l7.042-4.226c.344-.207.745-.464 1.201-.564a2.55 2.55 0 0 1 1.1 0c.456.1.857.357 1.201.564l7.043 4.226c.726.436 1.202.72 1.558.893.173.084.272.117.317.13l.035-.018a2 2 0 0 0-.026-.27c-.057-.38-.184-.908-.382-1.722l-1.915-7.889c-.091-.375-.224-.852-.177-1.334l.018-.143c.05-.331.166-.649.338-.934.245-.409.627-.71.928-.963l6.269-5.275c.646-.544 1.068-.9 1.345-1.18.086-.086.14-.15.175-.193a2.4 2.4 0 0 0-.302-.067c-.394-.066-.951-.111-1.798-.178L26.95 14.3c-.401-.031-.876-.054-1.305-.237a2.6 2.6 0 0 1-.906-.647c-.32-.355-.495-.81-.647-1.17l-3.17-7.488c-.326-.773-.54-1.274-.723-1.617a2 2 0 0 0-.16-.262.2.2 0 0 0-.079 0"/></svg>