<svg viewBox="0 0 24 24" xmlns="http://www.w3.org/2000/svg"><path d="M6.14 2.065a11.65 11.65 0 0 1 17.367 8.485.85.85 0 1 1-1.684.234A9.95 9.95 0 0 0 3.37 7.15h3.296a.85.85 0 1 1 0 1.7H1.332A.85.85 0 0 1 .482 8V2.667a.85.85 0 1 1 1.7 0v3.169a11.65 11.65 0 0 1 3.959-3.77"/><path d="M21.816 21.333v-3.17A11.647 11.647 0 0 1 .49 13.45a.85.85 0 0 1 1.683-.234 9.95 9.95 0 0 0 18.454 3.634h-3.296a.85.85 0 0 1 0-1.7h5.333c.47 0 .851.38.851.85v5.333a.85.85 0 0 1-1.7 0"/><path d="M11.15 12V8a.85.85 0 1 1 1.7 0v4a.85.85 0 1 1-1.7 0"/><path d="M12.014 15.15a.85.85 0 0 1 0 1.7H12a.85.85 0 1 1 0-1.7z"/></svg>