<svg viewBox="0 0 22 26" xmlns="http://www.w3.org/2000/svg"><path d="M.818 22.334v-16a3.517 3.517 0 0 1 3.517-3.517h2.666a.85.85 0 1 1 0 1.7H4.335a1.82 1.82 0 0 0-1.817 1.817v16a1.817 1.817 0 0 0 1.817 1.816h13.333a1.816 1.816 0 0 0 1.816-1.816v-16a1.82 1.82 0 0 0-1.816-1.817h-2.667a.85.85 0 1 1 0-1.7h2.667a3.516 3.516 0 0 1 3.517 3.517v16a3.517 3.517 0 0 1-3.517 3.517H4.335a3.52 3.52 0 0 1-3.517-3.517"/><path d="M14.15 3.667a1.82 1.82 0 0 0-1.817-1.817H9.667a1.818 1.818 0 0 0 0 3.633h2.666a1.82 1.82 0 0 0 1.817-1.816m1.7 0a3.517 3.517 0 0 1-3.517 3.517H9.667A3.518 3.518 0 0 1 7.18 1.18 3.52 3.52 0 0 1 9.667.15h2.666a3.517 3.517 0 0 1 3.517 3.517"/><path d="M13.665 14.817a.85.85 0 1 1 0 1.7H8.332a.85.85 0 1 1 0-1.7z"/><path d="M10.15 18.333V13a.85.85 0 1 1 1.7 0v5.333a.85.85 0 1 1-1.7 0"/></svg>