<svg viewBox="0 0 34 34" xmlns="http://www.w3.org/2000/svg"><path d="M13.929 7.54C20.692 1.068 28.927-.08 32.67.186l.355.03.146.029a.85.85 0 0 1 .612.73c.367 3.556-.64 12.11-7.326 19.096l.162.356c.692 1.518.974 2.5 1.047 3.39a5.2 5.2 0 0 1-.348 2.331c-.345.87-1.01 1.606-2.04 2.775l-.003.003-2.846 3.193c-.382.432-.705.803-.987 1.07-.275.26-.618.529-1.06.62a2.07 2.07 0 0 1-1.688-.395c-.355-.277-.543-.672-.674-1.028-.133-.363-.259-.838-.408-1.394l-.812-3.04c-.925.512-1.694.837-2.303 1.016-.06.018-.166.051-.299.07a2.3 2.3 0 0 1-.883-.064 2.5 2.5 0 0 1-.46-.16c-.343-.172-.521-.356-.712-.547l-6.41-6.41c-.192-.191-.375-.37-.546-.712a2.5 2.5 0 0 1-.162-.46 2.3 2.3 0 0 1-.063-.883c.019-.134.052-.24.07-.3.179-.609.502-1.378 1.015-2.303l-3.04-.812c-.555-.148-1.03-.274-1.394-.408-.355-.13-.75-.318-1.027-.674a2.07 2.07 0 0 1-.395-1.688l.042-.161c.116-.365.351-.658.579-.899.266-.281.635-.606 1.068-.987l3.193-2.846.004-.003c1.169-1.03 1.904-1.694 2.775-2.04a5.2 5.2 0 0 1 2.332-.347c.888.073 1.871.355 3.388 1.047zM3.622 23.669a.85.85 0 0 1 1.568.66c-1.108 2.627-1.61 4.917-1.766 6.45 1.533-.155 3.823-.656 6.451-1.764a.85.85 0 1 1 .66 1.567c-3.384 1.426-6.313 1.934-8.006 1.952a.85.85 0 0 1-.859-.859c.018-1.692.526-4.621 1.952-8.006m21.549-2.316c-2.75 2.667-5.038 4.477-6.857 5.676l.942 3.524c.157.59.261.974.361 1.247.072.194.119.262.13.277a.37.37 0 0 0 .286.066 1.1 1.1 0 0 0 .242-.191c.212-.2.477-.498.88-.956l.003-.004 2.849-3.196c1.114-1.264 1.522-1.746 1.732-2.275a3.5 3.5 0 0 0 .234-1.565c-.048-.58-.228-1.31-.802-2.603m6.97-19.494c-3.612-.132-11.246 1.113-17.433 7.299-3.36 3.36-5.423 6.018-6.637 7.96-.807 1.292-1.226 2.246-1.409 2.865l-.015.054c0-.008-.004.013 0 .106-.001-.023-.003-.021.003.014a2 2 0 0 0 .055.214c.012.034.013.035.003.014a.4.4 0 0 0 .059.094c.028.034.066.074.168.176l6.41 6.411c.103.102.142.14.176.168.02.017.042.033.094.059-.02-.01-.02-.009.015.003a2 2 0 0 0 .214.054c.035.007.037.005.014.004.093.003.113 0 .106 0l.054-.016c.618-.182 1.572-.6 2.865-1.409 1.942-1.213 4.6-3.276 7.96-6.636 6.187-6.187 7.43-13.823 7.298-17.434M10.045 8.027a3.5 3.5 0 0 0-1.565.233c-.53.21-1.012.62-2.278 1.736L3.01 12.84l-.004.003c-.458.404-.756.669-.956.88a1.2 1.2 0 0 0-.192.242.37.37 0 0 0 .066.286c.013.01.079.057.278.13.273.1.657.204 1.246.362l3.524.941c1.198-1.819 3.01-4.107 5.676-6.857-1.293-.573-2.023-.753-2.602-.801m10.542-.293a4.232 4.232 0 1 1 5.984 5.985 4.232 4.232 0 0 1-5.984-5.985m4.782 1.202a2.532 2.532 0 1 0-3.58 3.581 2.532 2.532 0 0 0 3.58-3.58"/></svg>