<svg viewBox="0 0 24 24" xmlns="http://www.w3.org/2000/svg"><path d="M18.667.484a4.85 4.85 0 0 1 4.85 4.85l-.001.045a12.85 12.85 0 0 1-8.037 11.222 8.85 8.85 0 0 1-4.387 6.802.85.85 0 0 1-1.268-.636 9.82 9.82 0 0 0-8.59-8.59.85.85 0 0 1-.636-1.269A8.85 8.85 0 0 1 7.4 8.521 12.85 12.85 0 0 1 18.62.485zm.025 1.699a11.15 11.15 0 0 0-9.889 7.432.85.85 0 0 1-.774.568 7.15 7.15 0 0 0-5.24 2.55 11.52 11.52 0 0 1 8.477 8.477 7.2 7.2 0 0 0 1.537-1.796 7.15 7.15 0 0 0 1.015-3.442l.014-.129a.85.85 0 0 1 .553-.645 11.15 11.15 0 0 0 7.432-9.89 3.15 3.15 0 0 0-3.125-3.125"/><path d="M4.915 13.927a.85.85 0 0 1 .836 1.48 7.15 7.15 0 0 0-3.63 6.47 7.15 7.15 0 0 0 6.472-3.628.85.85 0 0 1 1.48.836 8.85 8.85 0 0 1-8.85 4.424.85.85 0 0 1-.733-.733 8.85 8.85 0 0 1 4.425-8.85"/><path d="M16.482 8a.484.484 0 1 0-.968 0 .484.484 0 0 0 .968 0m1.7 0a2.184 2.184 0 1 1-4.367 0 2.184 2.184 0 0 1 4.368 0"/></svg>