<svg viewBox="0 0 30 28" xmlns="http://www.w3.org/2000/svg"><path d="M27.623 12.402c0-1.795-1.474-3.267-3.315-3.267a.9.9 0 0 1-.9-.9v-.782c0-3.021-2.573-5.442-5.653-5.272a5.38 5.38 0 0 0-3.73 1.796l-.431.487a.9.9 0 0 1-.674.303h-1.1c-2.096 0-3.777 1.677-3.777 3.723a.9.9 0 0 1-.9.9H5.997c-2.009 0-3.62 1.607-3.62 3.567.001 1.96 1.611 3.568 3.62 3.568h18.611c1.675 0 3.015-1.34 3.015-2.97zm1.8 1.153c0 2.644-2.166 4.77-4.815 4.77h-3.602v4.808h3.302a.9.9 0 1 1 0 1.8h-3.636c-.8 0-1.467-.644-1.467-1.46v-5.148h-2.702v8.402a.9.9 0 0 1-1.8 0v-8.402h-2.58v5.148c0 .816-.667 1.46-1.467 1.46H7.144a.9.9 0 0 1 0-1.8h3.178v-4.808H5.997c-2.983 0-5.42-2.394-5.42-5.368S3.014 7.59 5.997 7.59h.321c.435-2.629 2.74-4.623 5.503-4.623h.694l.163-.184A7.18 7.18 0 0 1 17.655.384c4.077-.225 7.528 2.972 7.55 7.03 2.39.42 4.218 2.485 4.218 4.988z"/></svg>