<svg viewBox="0 0 12 15" xmlns="http://www.w3.org/2000/svg"><path fill-rule="evenodd" clip-rule="evenodd" d="M6.04.503a.3.3 0 0 0-.08 0c-.031.004-.061.014-.121.034L.454 2.37l-.109.037a.6.6 0 0 0-.198.098.4.4 0 0 0-.12.17c-.029.074-.028.16-.027.335l.027 3.396v.086c.065 3.636 2.402 6.833 5.824 7.976l.035.012a.34.34 0 0 0 .229 0l.034-.012c3.422-1.143 5.76-4.34 5.823-7.976l.001-.086L12 3.009c.002-.174.002-.261-.026-.336a.4.4 0 0 0-.12-.169c-.06-.051-.143-.08-.307-.135L6.16.537c-.06-.02-.09-.03-.12-.034m4.106 5.888a6.74 6.74 0 0 1-3.77 6.01c-.12.057-.18.086-.263.102a1 1 0 0 1-.11.009V2.452q.04 0 .079.006c.06.008.12.028.24.07L9.48 3.6c.247.084.37.126.46.203a.6.6 0 0 1 .18.254c.043.111.042.242.04.503z"/></svg>