<svg viewBox="0 0 30 34" xmlns="http://www.w3.org/2000/svg"><path fill-rule="evenodd" clip-rule="evenodd" d="M15.102.007a.8.8 0 0 0-.204 0c-.077.01-.151.034-.3.083L1.135 4.54l-.272.091c-.238.082-.382.144-.496.238-.134.11-.237.251-.3.41-.07.18-.07.392-.066.815l.065 8.247.003.21c.16 8.83 6.004 16.594 14.558 19.37l.087.029a.85.85 0 0 0 .386.046 1 1 0 0 0 .186-.046l.088-.029c8.553-2.776 14.397-10.54 14.557-19.37l.002-.21L30 6.093c.003-.423.005-.634-.067-.815a1 1 0 0 0-.3-.41c-.15-.125-.356-.193-.767-.329L15.402.09c-.149-.049-.223-.074-.3-.083m10.264 14.299c-.05 6.301-3.776 11.922-9.426 14.594-.299.142-.448.212-.659.25a2 2 0 0 1-.273.021V4.742q.099 0 .196.013c.153.02.302.07.6.168L23.7 7.532c.617.204.925.306 1.152.493.2.165.355.377.45.616.107.27.104.588.1 1.222z"/></svg>