<svg viewBox="0 0 40 36" xmlns="http://www.w3.org/2000/svg"><path d="M14.111 22.368a1.5 1.5 0 0 1 2.458 1.72l-.354.506A11.5 11.5 0 0 1 6.794 29.5H2a1.5 1.5 0 0 1 0-3h4.794l.256-.004a8.5 8.5 0 0 0 6.707-3.622zM38 6.5a1.5 1.5 0 0 1 0 3h-6.794a8.5 8.5 0 0 0-6.962 3.623l-.353.509a1.5 1.5 0 1 1-2.461-1.716l.353-.508.002-.002A11.5 11.5 0 0 1 31.206 6.5z"/><path d="M30.94.94a1.5 1.5 0 0 1 2.12 0l6 6a1.5 1.5 0 0 1 0 2.12l-6 6a1.5 1.5 0 1 1-2.12-2.12L35.878 8l-4.94-4.94a1.5 1.5 0 0 1 0-2.12"/><path d="M6.794 6.5a11.5 11.5 0 0 1 9.42 4.906l8.03 11.468a8.5 8.5 0 0 0 6.962 3.626H38a1.5 1.5 0 0 1 0 3h-6.794a11.5 11.5 0 0 1-9.218-4.625l-.203-.281-8.028-11.468A8.5 8.5 0 0 0 7.05 9.504L6.794 9.5H2a1.5 1.5 0 1 1 0-3z"/><path d="M30.94 20.94a1.5 1.5 0 0 1 2.12 0l6 6a1.5 1.5 0 0 1 0 2.12l-6 6a1.5 1.5 0 1 1-2.12-2.12L35.878 28l-4.94-4.94a1.5 1.5 0 0 1 0-2.12"/></svg>