<svg viewBox="0 0 18 26" xmlns="http://www.w3.org/2000/svg"><path d="M16.15 3.667a1.82 1.82 0 0 0-1.817-1.817H3.667A1.82 1.82 0 0 0 1.85 3.667v18.666a1.82 1.82 0 0 0 1.817 1.817h10.666a1.82 1.82 0 0 0 1.817-1.817zm1.7 18.666a3.517 3.517 0 0 1-3.517 3.517H3.667A3.517 3.517 0 0 1 .15 22.333V3.667A3.517 3.517 0 0 1 3.667.15h10.666a3.517 3.517 0 0 1 3.517 3.517z"/><path d="M10.333 1.484a.85.85 0 1 1 0 1.7H7.666a.85.85 0 1 1 0-1.7z"/><path d="M8.15 19.68v-.014a.85.85 0 1 1 1.7 0v.014a.85.85 0 0 1-1.7 0"/></svg>