<svg viewBox="0 0 24 24" xmlns="http://www.w3.org/2000/svg"><path d="M.482 18.667V12a.85.85 0 1 1 1.7 0v6.666a3.15 3.15 0 0 0 3.15 3.15h13.333a3.15 3.15 0 0 0 3.15-3.15V5.334a3.15 3.15 0 0 0-3.15-3.15h-3.333a.85.85 0 1 1 0-1.7h3.333a4.85 4.85 0 0 1 4.85 4.85v13.333a4.85 4.85 0 0 1-4.85 4.85H5.332a4.85 4.85 0 0 1-4.85-4.85"/><path d="M3.397 2.066A.85.85 0 0 1 4.6 3.267L2.533 5.332 4.6 7.4a.85.85 0 0 1-1.203 1.2L.731 5.934a.85.85 0 0 1 0-1.202z"/><path d="M8.731 2.066a.85.85 0 0 1 1.202 0L12.6 4.732a.85.85 0 0 1 0 1.202L9.933 8.601A.85.85 0 1 1 8.73 7.399l2.065-2.067L8.73 3.267a.85.85 0 0 1 0-1.201"/></svg>