<svg viewBox="0 0 26 26" xmlns="http://www.w3.org/2000/svg"><path d="M6.818 13a6.183 6.183 0 0 1 6.183-6.183.85.85 0 1 1 0 1.7 4.484 4.484 0 0 0 0 8.966.851.851 0 0 1 0 1.7A6.183 6.183 0 0 1 6.818 13"/><path d="M2.333 12.15a.85.85 0 1 1 0 1.7H1a.85.85 0 1 1 0-1.7z"/><path d="M12.15 2.333V1a.85.85 0 1 1 1.7 0v1.333a.85.85 0 1 1-1.7 0"/><path d="M12.15 25v-1.333a.85.85 0 1 1 1.7 0V25a.85.85 0 1 1-1.7 0"/><path d="M3.868 3.865a.85.85 0 0 1 1.201 0l.934.933A.85.85 0 0 1 4.8 6l-.933-.934a.85.85 0 0 1 0-1.2"/><path d="M4.8 20a.85.85 0 0 1 1.204 1.2l-.934.934a.85.85 0 1 1-1.2-1.202z"/><path d="M22.94 5.896a.85.85 0 0 1 1.456.875L21.17 12.15h3.832a.851.851 0 0 1 .73 1.287l-4 6.667a.85.85 0 0 1-1.459-.874l3.228-5.38h-3.832a.85.85 0 0 1-.729-1.287z"/></svg>