<svg viewBox="0 0 26 21" xmlns="http://www.w3.org/2000/svg"><path d="M.15 9.23V3.666A3.517 3.517 0 0 1 3.667.15h5.562l.175.004a3.52 3.52 0 0 1 2.312 1.027l7.613 7.613a4.064 4.064 0 0 1 0 5.746l-4.789 4.79a4.064 4.064 0 0 1-5.746 0l-7.613-7.614A3.52 3.52 0 0 1 .154 9.404zm1.7 0c0 .481.191.943.532 1.284l7.614 7.613.173.157a2.365 2.365 0 0 0 3.169-.157l4.789-4.79.157-.173a2.36 2.36 0 0 0 0-2.995l-.157-.173-7.613-7.613v-.001a1.82 1.82 0 0 0-1.285-.532H3.667A1.82 1.82 0 0 0 1.85 3.667z"/><path d="M24.154 11.667a5.58 5.58 0 0 0-1.633-3.943L16.4 1.6A.849.849 0 1 1 17.6.399l6.124 6.122a7.28 7.28 0 0 1 0 10.29L21.6 18.935a.85.85 0 0 1-1.202-1.203l2.122-2.123a5.58 5.58 0 0 0 1.633-3.942"/><path d="M6.33 5.483a.85.85 0 0 1 0 1.7h-.014a.85.85 0 1 1 0-1.7z"/></svg>