<svg viewBox="0 0 17 28" xmlns="http://www.w3.org/2000/svg"><path d="M9.076.15a2.185 2.185 0 0 1 2.166 1.914c.043.35.001.705-.122 1.036L9.884 6.393l3.278 14.419a.85.85 0 0 1-.228.789l-5.333 5.334a.85.85 0 0 1-1.202 0L1.066 21.6a.85.85 0 0 1-.229-.79L4.114 6.394 2.88 3.1A2.183 2.183 0 0 1 4.923.15zm-4.152 1.7a.486.486 0 0 0-.48.423q-.014.119.028.23l1.323 3.532a.85.85 0 0 1 .034.486l-3.23 14.21 4.4 4.4 4.401-4.4L8.171 6.52a.85.85 0 0 1 .033-.486l1.324-3.532a.485.485 0 0 0-.337-.639l-.115-.014z"/><path d="M9 5.484a.85.85 0 0 1 .629.278l6.667 7.333a.85.85 0 0 1-1.258 1.143L8.624 7.184H5a.85.85 0 1 1 0-1.7z"/></svg>