<svg viewBox="0 0 18 18" xmlns="http://www.w3.org/2000/svg"><path d="M9.369.579c.92-.015 1.835-.007 2.748-.015a4.37 4.37 0 0 0 1.232 2.933l-.001-.001a4.93 4.93 0 0 0 2.964 1.257h.016v2.834a7.5 7.5 0 0 1-2.998-.702l.046.02a8.7 8.7 0 0 1-1.169-.673l.03.019c-.007 2.052.006 4.105-.014 6.15a5.35 5.35 0 0 1-.96 2.787l.01-.018a5.24 5.24 0 0 1-4.146 2.257H7.12a5.102 5.102 0 0 1-2.89-.737l.021.013a5.31 5.31 0 0 1-2.563-3.99l-.003-.024a13 13 0 0 1-.006-1.047c.275-2.688 2.527-4.768 5.265-4.768q.463 0 .902.077l-.031-.005c.014 1.04-.028 2.08-.028 3.12a2.413 2.413 0 0 0-3.074 1.473l-.005.018a2.7 2.7 0 0 0-.098 1.145v-.013a2.396 2.396 0 0 0 2.464 2.017h-.005a2.36 2.36 0 0 0 1.941-1.122l.006-.01c.15-.21.253-.462.287-.738v-.007c.071-1.259.043-2.51.05-3.768.006-2.833-.007-5.659.014-8.484z" fill-opacity="0.4"/></svg>