<svg viewBox="0 0 24 24" xmlns="http://www.w3.org/2000/svg"><path d="M5.817 20a1.818 1.818 0 0 0-3.101-1.285A1.818 1.818 0 0 0 4 21.816 1.817 1.817 0 0 0 5.817 20m1.7 0a3.517 3.517 0 1 1-7.033-.001A3.517 3.517 0 0 1 7.518 20"/><path d="M21.817 20a1.819 1.819 0 0 0-3.101-1.285A1.818 1.818 0 0 0 20 21.816 1.817 1.817 0 0 0 21.817 20m1.7 0a3.517 3.517 0 1 1-7.033-.002 3.517 3.517 0 0 1 7.034.002"/><path d="M21.817 4a1.819 1.819 0 0 0-3.101-1.285A1.818 1.818 0 0 0 20 5.816 1.817 1.817 0 0 0 21.817 4m1.7 0a3.517 3.517 0 1 1-7.034-.002A3.517 3.517 0 0 1 23.518 4"/><path d="M5.817 4a1.818 1.818 0 0 0-3.101-1.285A1.818 1.818 0 0 0 4 5.816 1.817 1.817 0 0 0 5.817 4m1.7 0a3.517 3.517 0 1 1-7.033-.001A3.517 3.517 0 0 1 7.518 4"/><path d="M3.15 17.334V6.667a.85.85 0 1 1 1.7 0v10.667a.85.85 0 0 1-1.7 0"/><path d="M19.15 17.334V6.667a.85.85 0 1 1 1.7 0v10.667a.85.85 0 0 1-1.7 0"/><path d="M17.333 3.15a.85.85 0 0 1 0 1.7H6.666a.85.85 0 1 1 0-1.7z"/><path d="M17.333 19.15a.85.85 0 0 1 0 1.7H6.666a.85.85 0 1 1 0-1.7z"/></svg>