<svg viewBox="0 0 20 32" xmlns="http://www.w3.org/2000/svg"><path d="M17.684 11.784c0-.583-.002-.97-.026-1.265-.023-.287-.064-.413-.103-.49a1.2 1.2 0 0 0-.517-.517c-.077-.04-.204-.08-.49-.104-.296-.024-.683-.025-1.266-.025H4.718c-.583 0-.97.001-1.266.025-.286.024-.413.064-.49.104a1.2 1.2 0 0 0-.517.516c-.04.078-.08.204-.103.49a17 17 0 0 0-.026 1.266v13.544c0 .583.002.969.026 1.265.023.285.064.413.103.49.114.222.295.403.517.517.077.04.204.08.49.104.296.024.683.024 1.266.024h10.564c.583 0 .97 0 1.266-.024.286-.023.413-.065.49-.104.222-.114.403-.295.517-.517.04-.077.08-.204.103-.49.024-.296.026-.682.026-1.265zM4.748 24.081V12.828a.85.85 0 0 1 1.7 0v11.253a.851.851 0 0 1-1.7 0m4.334 0V12.828a.85.85 0 0 1 1.7 0v11.253a.85.85 0 1 1-1.7 0m4.402 0V12.828a.85.85 0 0 1 1.7 0v11.253a.85.85 0 0 1-1.7 0M7.803 7.683h4.191V1.916H7.803zm11.58 17.645c0 .555 0 1.022-.03 1.403-.032.392-.102.767-.284 1.124a2.9 2.9 0 0 1-1.26 1.26c-.356.181-.731.252-1.123.283a11 11 0 0 1-.756.027v1.508a.851.851 0 0 1-1.7 0v-1.504H5.77v1.504a.85.85 0 1 1-1.7 0v-1.508a11 11 0 0 1-.757-.027c-.39-.032-.766-.102-1.123-.284a2.9 2.9 0 0 1-1.26-1.259c-.181-.357-.25-.732-.283-1.124-.03-.38-.03-.848-.03-1.403V11.784c0-.555 0-1.023.03-1.404.032-.391.102-.766.284-1.123a2.9 2.9 0 0 1 1.26-1.26c.356-.182.731-.251 1.122-.283.382-.031.85-.031 1.405-.031h1.385V1.916H4.92a.85.85 0 1 1 0-1.7h10.158a.85.85 0 1 1 0 1.7h-1.385v5.767h1.588c.555 0 1.023 0 1.404.03.392.033.767.102 1.124.284a2.9 2.9 0 0 1 1.26 1.26c.181.357.25.732.282 1.123.032.381.032.85.032 1.404z"/></svg>