<svg viewBox="0 0 30 18" xmlns="http://www.w3.org/2000/svg"><path d="M7.483 13A.484.484 0 0 0 7 12.516H4.333A.484.484 0 0 0 3.85 13v2.667a.484.484 0 0 0 .483.484H7a.484.484 0 0 0 .483-.483zm1.7 2.666A2.183 2.183 0 0 1 7 17.85H4.333a2.184 2.184 0 0 1-2.183-2.184V13a2.183 2.183 0 0 1 2.183-2.182H7A2.183 2.183 0 0 1 9.184 13z"/><path d="M26.15 13a.484.484 0 0 0-.484-.484h-2.667a.484.484 0 0 0-.483.483v2.667a.484.484 0 0 0 .483.484h2.667a.484.484 0 0 0 .483-.483zm1.7 2.666a2.184 2.184 0 0 1-2.184 2.184h-2.667a2.184 2.184 0 0 1-2.183-2.184V13A2.183 2.183 0 0 1 23 10.817h2.667a2.183 2.183 0 0 1 2.184 2.182z"/><path d="M16.817 2.333a.485.485 0 0 0-.483-.483h-2.667a.484.484 0 0 0-.483.483V5a.484.484 0 0 0 .483.483h2.667A.484.484 0 0 0 16.817 5zM18.517 5a2.184 2.184 0 0 1-2.183 2.184h-2.667A2.185 2.185 0 0 1 11.484 5V2.333A2.184 2.184 0 0 1 13.667.15h2.667a2.183 2.183 0 0 1 2.184 2.183z"/><path d="M12.194 3.495a.85.85 0 0 1 .279 1.677 7.15 7.15 0 0 0-5.96 6.554.85.85 0 0 1-1.695-.118 8.85 8.85 0 0 1 7.376-8.113"/><path d="M16.828 4.194a.85.85 0 0 1 .979-.7 8.85 8.85 0 0 1 7.375 8.114.85.85 0 0 1-1.697.118 7.15 7.15 0 0 0-5.958-6.554.85.85 0 0 1-.699-.978"/><path d="M12.334 2.817a.85.85 0 1 1 0 1.7h-8a.85.85 0 1 1 0-1.7z"/><path d="M25.666 2.817a.85.85 0 1 1 0 1.7h-8a.85.85 0 1 1 0-1.7z"/><path d="M3.482 3.667a.484.484 0 1 0-.968 0 .484.484 0 0 0 .968 0m1.7 0a2.184 2.184 0 1 1-4.367-.001 2.184 2.184 0 0 1 4.368 0"/><path d="M27.482 3.667a.484.484 0 1 0-.968 0 .484.484 0 0 0 .968 0m1.7 0a2.184 2.184 0 1 1-4.367-.001 2.184 2.184 0 0 1 4.368 0"/></svg>