<svg viewBox="0 0 28 28" xmlns="http://www.w3.org/2000/svg"><path d="M13.484 6.333a4.483 4.483 0 1 0-8.967 0 4.483 4.483 0 0 0 8.967 0m1.7 0A6.185 6.185 0 0 1 4.63 10.706a6.185 6.185 0 0 1 8.745-8.745 6.18 6.18 0 0 1 1.81 4.372"/><path d="M.15 25v-2.667a6.183 6.183 0 0 1 6.183-6.183h5.334c1.483 0 2.844.523 3.91 1.393a.85.85 0 0 1-1.074 1.317 4.47 4.47 0 0 0-2.836-1.01H6.333a4.484 4.484 0 0 0-4.483 4.483V25a.85.85 0 1 1-1.7 0"/><path d="M21.493 6.34a4.484 4.484 0 0 0-3.371-4.343.85.85 0 0 1 .421-1.647 6.184 6.184 0 0 1 0 11.98.85.85 0 0 1-.421-1.647 4.484 4.484 0 0 0 3.37-4.343"/><path d="M26.332 21.483a.85.85 0 1 1 0 1.7h-8a.85.85 0 1 1 0-1.7z"/><path d="M21.482 26.333v-8a.85.85 0 1 1 1.7 0v8a.85.85 0 1 1-1.7 0"/></svg>