<svg viewBox="0 0 28 28" xmlns="http://www.w3.org/2000/svg"><path d="M2.816 6.333a6.18 6.18 0 0 0 1.811 4.373A6.18 6.18 0 0 0 9 12.516a6.18 6.18 0 0 0 4.373-1.81 6.18 6.18 0 0 0 1.81-4.373 6.18 6.18 0 0 0-1.81-4.372A6.18 6.18 0 0 0 8.999.15a6.18 6.18 0 0 0-4.372 1.811 6.18 6.18 0 0 0-1.811 4.372m1.7 0a4.48 4.48 0 0 0 1.313 3.17A4.48 4.48 0 0 0 9 10.818a4.48 4.48 0 0 0 3.17-1.313 4.48 4.48 0 0 0 1.314-3.17 4.48 4.48 0 0 0-1.313-3.17A4.48 4.48 0 0 0 9 1.85a4.48 4.48 0 0 0-3.17 1.313 4.48 4.48 0 0 0-1.314 3.17" fill-rule="evenodd"/><path d="M.15 25v-2.667a6.183 6.183 0 0 1 6.183-6.183h5.333a6.17 6.17 0 0 1 3.912 1.393.85.85 0 1 1-1.076 1.316 4.47 4.47 0 0 0-2.834-1.009H6.333a4.48 4.48 0 0 0-3.17 1.313 4.48 4.48 0 0 0-1.313 3.17V25a.85.85 0 0 1-1.7 0"/><path d="M21.896 2.548A6.2 6.2 0 0 0 18.545.35a.85.85 0 0 0-.422 1.647 4.5 4.5 0 0 1 2.43 1.594 4.48 4.48 0 0 1 0 5.498 4.5 4.5 0 0 1-2.43 1.595.85.85 0 0 0 .422 1.647 6.2 6.2 0 0 0 3.35-2.199 6.18 6.18 0 0 0 0-7.583"/><path d="M18.334 21.483h8a.85.85 0 0 1 0 1.7h-8a.85.85 0 0 1 0-1.7"/><path d="M23.184 18.333v8a.85.85 0 0 1-1.7 0v-8a.85.85 0 0 1 1.7 0"/></svg>