<svg viewBox="0 0 26 26" xmlns="http://www.w3.org/2000/svg"><path d="M14.815 14.334a1.818 1.818 0 1 0-3.636 0 1.818 1.818 0 0 0 3.636 0m1.7 0a3.517 3.517 0 1 1-7.034-.002 3.517 3.517 0 0 1 7.035.002"/><path d="M17.484 25v-1.333a1.82 1.82 0 0 0-1.816-1.817h-5.333a1.82 1.82 0 0 0-1.817 1.817V25a.85.85 0 1 1-1.7 0v-1.333a3.517 3.517 0 0 1 3.517-3.517h5.333a3.516 3.516 0 0 1 3.517 3.517V25a.85.85 0 0 1-1.7 0"/><path d="M21.483 3.667a1.818 1.818 0 0 0-3.633 0 1.817 1.817 0 0 0 3.633 0m1.7 0a3.517 3.517 0 1 1-7.034-.002 3.517 3.517 0 0 1 7.035.002"/><path d="M24.151 14.333V13a1.82 1.82 0 0 0-1.816-1.817h-2.667a.85.85 0 1 1 0-1.7h2.667A3.517 3.517 0 0 1 25.852 13v1.333a.85.85 0 0 1-1.7 0"/><path d="M8.151 3.667a1.818 1.818 0 0 0-3.633 0 1.817 1.817 0 0 0 3.633 0m1.7 0a3.517 3.517 0 1 1-7.033-.001 3.517 3.517 0 0 1 7.034.001"/><path d="M.15 14.333V13a3.517 3.517 0 0 1 3.517-3.516h2.666a.85.85 0 1 1 0 1.699H3.667A1.82 1.82 0 0 0 1.85 13v1.333a.85.85 0 1 1-1.7 0"/></svg>