<svg viewBox="0 0 26 18" xmlns="http://www.w3.org/2000/svg"><path d="M24.147 4.43a.49.49 0 0 0-.458-.421.5.5 0 0 0-.239.05l-5.6 2.8v4.282l5.601 2.8a.482.482 0 0 0 .7-.431V4.491zm1.703 9.08-.004.14a2.183 2.183 0 0 1-3.156 1.812l-6.07-3.035a.85.85 0 0 1-.47-.76V6.333a.85.85 0 0 1 .47-.76l6.07-3.035.127-.057a2.183 2.183 0 0 1 3.033 2.01z"/><path d="M16.15 3.667a1.82 1.82 0 0 0-1.817-1.817H3.667A1.82 1.82 0 0 0 1.85 3.667v10.666a1.82 1.82 0 0 0 1.817 1.817h10.666a1.82 1.82 0 0 0 1.817-1.817zm1.7 10.666a3.517 3.517 0 0 1-3.517 3.517H3.667A3.517 3.517 0 0 1 .15 14.333V3.667A3.517 3.517 0 0 1 3.667.15h10.666a3.517 3.517 0 0 1 3.517 3.517z"/></svg>