<svg viewBox="0 0 30 26" xmlns="http://www.w3.org/2000/svg"><path d="M14.998.15a12.85 12.85 0 0 1 10.708 5.711.85.85 0 1 1-1.415.945 11.15 11.15 0 0 0-9.29-4.956h-.002a11.14 11.14 0 0 0-9.272 4.956.85.85 0 0 1-1.414-.945A12.84 12.84 0 0 1 14.998.151"/><path d="M13.613.55a.85.85 0 0 1 1.441.9 21.8 21.8 0 0 0-2.342 5.133.85.85 0 0 1-1.625-.5A23.5 23.5 0 0 1 13.613.55"/><path d="M15.216.28a.85.85 0 0 1 1.171.27 23.5 23.5 0 0 1 2.53 5.533.85.85 0 0 1-1.626.501 21.8 21.8 0 0 0-2.345-5.133.85.85 0 0 1 .27-1.171"/><path d="M24.291 19.194a.85.85 0 0 1 1.415.945 12.85 12.85 0 0 1-10.708 5.711 12.84 12.84 0 0 1-10.685-5.712.85.85 0 0 1 1.414-.943 11.14 11.14 0 0 0 9.271 4.955H15a11.15 11.15 0 0 0 9.291-4.956"/><path d="M11.65 18.854a.85.85 0 0 1 1.062.563 21.8 21.8 0 0 0 2.342 5.132.85.85 0 0 1-1.441.9 23.5 23.5 0 0 1-2.526-5.532.85.85 0 0 1 .562-1.063"/><path d="M17.291 19.417a.85.85 0 0 1 1.625.5 23.5 23.5 0 0 1-2.529 5.534.85.85 0 0 1-1.441-.902 21.8 21.8 0 0 0 2.345-5.132"/><path d="M7.508 10.127a.85.85 0 0 1 1.65.412l-1.334 5.333a.85.85 0 0 1-1.62.093l-1.205-3.21-1.204 3.21a.85.85 0 0 1-1.62-.093L.842 10.54a.85.85 0 1 1 1.648-.412l.671 2.685 1.042-2.778.056-.118a.85.85 0 0 1 1.536.118l1.041 2.778z"/><path d="M27.508 10.127a.85.85 0 0 1 1.65.412l-1.334 5.333a.85.85 0 0 1-1.62.093l-1.205-3.21-1.204 3.21a.85.85 0 0 1-1.62-.093l-1.333-5.333a.85.85 0 1 1 1.648-.412l.671 2.685 1.042-2.778.056-.118a.85.85 0 0 1 1.536.118l1.041 2.778z"/><path d="M17.508 10.127a.85.85 0 0 1 1.65.412l-1.334 5.333a.85.85 0 0 1-1.62.093l-1.205-3.21-1.204 3.21a.85.85 0 0 1-1.62-.093l-1.333-5.333a.85.85 0 1 1 1.648-.412l.671 2.685 1.042-2.778.056-.118a.85.85 0 0 1 1.536.118l1.041 2.778z"/></svg>