<svg viewBox="0 0 24 24" xmlns="http://www.w3.org/2000/svg"><path d="M.484 6.667V4A3.52 3.52 0 0 1 4.001.484h2.666a.85.85 0 1 1 0 1.7H4.001A1.82 1.82 0 0 0 2.184 4v2.667a.85.85 0 1 1-1.7 0"/><path d="M.484 20v-2.666a.85.85 0 1 1 1.7 0V20A1.817 1.817 0 0 0 4 21.818h2.666a.85.85 0 1 1 0 1.7H4.001A3.52 3.52 0 0 1 .484 20"/><path d="M21.817 6.667V4a1.82 1.82 0 0 0-1.816-1.817h-2.667a.85.85 0 1 1 0-1.7h2.667A3.516 3.516 0 0 1 23.518 4v2.667a.851.851 0 0 1-1.7 0"/><path d="M21.817 20v-2.666a.85.85 0 0 1 1.7 0V20a3.517 3.517 0 0 1-3.516 3.517h-2.667a.85.85 0 0 1 0-1.7h2.667A1.817 1.817 0 0 0 21.817 20"/><path d="M13.816 10.667a3.15 3.15 0 1 0-6.301 0 3.15 3.15 0 0 0 6.301 0m1.7 0a4.85 4.85 0 0 1-2.993 4.48 4.853 4.853 0 0 1-6.337-2.624 4.852 4.852 0 0 1 4.48-6.706 4.85 4.85 0 0 1 4.85 4.85"/><path d="M13.4 13.4a.85.85 0 0 1 1.2 0l3.335 3.332a.85.85 0 0 1-1.203 1.203L13.4 14.6a.85.85 0 0 1 0-1.202"/></svg>