<svg width="27" height="40" viewBox="0 0 27 40" fill="none" xmlns="http://www.w3.org/2000/svg">
<g opacity="0.5">
<path d="M13.4605 29.4992C13.3815 29.4151 13.3815 29.4992 13.4605 29.4992L13.0654 29.247L12.9863 29.1629L3.6611 22.1018C3.6611 22.1018 3.58207 22.1018 3.58207 22.0177L3.42402 21.8496L3.34499 21.7655H3.18693L0.5 19.748L5.79484 20.5887C6.03192 20.5887 6.11095 20.6727 6.34803 20.7568C6.42706 20.7568 6.58511 20.8408 6.58511 20.8408C6.8222 20.9249 6.90122 21.009 7.05928 21.093C7.21733 21.1771 7.29636 21.2612 7.45442 21.3452C7.53344 21.4293 7.6915 21.5133 7.6915 21.5974C7.77052 21.6815 7.84955 21.6815 7.92858 21.7655C8.08663 21.8496 8.16566 21.9336 8.16566 22.0177C8.40274 22.2699 8.5608 22.5221 8.79788 22.6902L12.9863 28.9948L13.0654 29.0789L13.4605 29.4992Z" fill="#747474"/>
<path d="M13.4605 39.2503L13.0653 38.5778L12.9863 38.4937L0.578979 19.748L3.26591 21.7655L3.74008 22.1018L13.0653 29.1629H13.1443L13.4605 29.4151C13.4605 29.4151 13.5395 29.4151 13.5395 29.4992L13.9346 29.1629L26.5 19.748L13.8556 38.5778L13.7766 38.6619L13.4605 39.2503Z" fill="white"/>
<path d="M15.4361 6.38211C15.4361 10.0808 9.43001 12.0142 9.43001 15.9651C9.35098 16.8898 9.58806 17.8145 9.9832 18.6551C9.9832 18.6551 7.69141 16.3014 7.69141 13.7795C7.69141 11.2577 9.90417 7.47491 9.90417 7.47491C9.90417 9.15614 10.5364 9.66051 11.1686 9.74457H11.2476C11.9589 9.74457 12.354 9.15614 12.354 8.31553C12.354 7.47491 11.4847 6.6343 11.4847 4.95307C11.4847 3.3559 13.3814 0.75 13.3814 0.75C14.7248 2.43123 15.4361 4.36464 15.4361 6.38211Z" fill="white"/>
<path d="M13.7767 19.8313C11.88 19.8313 10.4575 18.2341 10.4575 16.3007V16.2167C10.4575 11.9295 16.0685 11.5092 16.0685 5.70898C16.2265 5.96117 17.728 8.14676 17.728 10.5005C17.728 13.4426 15.1201 14.1992 15.1201 15.6282C15.1201 16.2167 15.3572 16.637 16.1475 16.637C16.2265 16.637 16.3056 16.637 16.3846 16.5529C17.8861 15.8804 18.9135 14.3673 18.9925 12.602C18.9925 12.6861 19.7828 19.8313 13.7767 19.8313Z" fill="white"/>
</g>
</svg>
