<svg width="131" height="36" viewBox="0 0 131 36" fill="none" xmlns="http://www.w3.org/2000/svg">
<path d="M25.3707 25.1429C23.5603 26.5714 21.0259 27.6429 18.4914 27.6429C12.6983 27.6429 8.71552 23.3571 8.71552 17.6429C8.71552 11.9286 12.6983 8 18.4914 8C21.0259 8 23.5603 8.71428 25.3707 10.5L26.4569 11.5714L32.25 6.21428L30.8017 5.14285C27.5431 2.28571 23.1983 0.5 18.4914 0.5C8.35346 0.5 0.75 8 0.75 18C0.75 28 8.35346 35.5 18.4914 35.5C23.1983 35.5 27.5431 33.7143 30.8017 30.8571L32.25 29.7857L26.4569 24.0714L25.3707 25.1429Z" fill="white"/>
<path opacity="0.4" d="M18.1292 23.7128C21.3286 23.7128 23.9223 21.1544 23.9223 17.9985C23.9223 14.8426 21.3286 12.2842 18.1292 12.2842C14.9297 12.2842 12.3361 14.8426 12.3361 17.9985C12.3361 21.1544 14.9297 23.7128 18.1292 23.7128Z" fill="white"/>
<path d="M52.3057 0.267036C52.4874 -0.0890116 53.0126 -0.089012 53.1943 0.267035L54.8191 3.44977C54.8913 3.59116 55.0308 3.68916 55.1922 3.71183L58.8252 4.22221C59.2316 4.2793 59.3939 4.76217 59.0998 5.03931L56.4709 7.51673C56.3541 7.62678 56.3009 7.78534 56.3284 7.94074L56.949 11.4389C57.0184 11.8302 56.5936 12.1287 56.2301 11.9439L52.9806 10.2923C52.8362 10.2189 52.6638 10.2189 52.5194 10.2923L49.2699 11.9439C48.9064 12.1287 48.4816 11.8302 48.551 11.4389L49.1716 7.94074C49.1991 7.78534 49.1459 7.62678 49.0291 7.51673L46.4002 5.03931C46.1061 4.76217 46.2684 4.2793 46.6748 4.22221L50.3078 3.71183C50.4692 3.68916 50.6087 3.59116 50.6809 3.44977L52.3057 0.267036Z" fill="white" fill-opacity="0.4"/>
<path d="M69.3057 0.267036C69.4874 -0.0890116 70.0126 -0.089012 70.1943 0.267035L71.8191 3.44977C71.8913 3.59116 72.0308 3.68916 72.1922 3.71183L75.8252 4.22221C76.2316 4.2793 76.3939 4.76217 76.0998 5.03931L73.4709 7.51673C73.3541 7.62678 73.3009 7.78534 73.3284 7.94074L73.949 11.4389C74.0184 11.8302 73.5936 12.1287 73.2301 11.9439L69.9806 10.2923C69.8362 10.2189 69.6638 10.2189 69.5194 10.2923L66.2699 11.9439C65.9064 12.1287 65.4816 11.8302 65.551 11.4389L66.1716 7.94074C66.1991 7.78534 66.1459 7.62678 66.0291 7.51673L63.4002 5.03931C63.1061 4.76217 63.2684 4.2793 63.6748 4.22221L67.3078 3.71183C67.4692 3.68916 67.6087 3.59116 67.6809 3.44977L69.3057 0.267036Z" fill="white" fill-opacity="0.4"/>
<path d="M86.3057 0.267036C86.4874 -0.0890116 87.0126 -0.089012 87.1943 0.267035L88.8191 3.44977C88.8913 3.59116 89.0308 3.68916 89.1922 3.71183L92.8252 4.22221C93.2316 4.2793 93.3939 4.76217 93.0998 5.03931L90.4709 7.51673C90.3541 7.62678 90.3009 7.78534 90.3284 7.94074L90.949 11.4389C91.0184 11.8302 90.5936 12.1287 90.2301 11.9439L86.9806 10.2923C86.8362 10.2189 86.6638 10.2189 86.5194 10.2923L83.2699 11.9439C82.9064 12.1287 82.4816 11.8302 82.551 11.4389L83.1716 7.94074C83.1991 7.78534 83.1459 7.62678 83.0291 7.51673L80.4002 5.03931C80.1061 4.76217 80.2684 4.2793 80.6748 4.22221L84.3078 3.71183C84.4692 3.68916 84.6087 3.59116 84.6809 3.44977L86.3057 0.267036Z" fill="white" fill-opacity="0.4"/>
<path d="M103.306 0.267036C103.487 -0.0890116 104.013 -0.089012 104.194 0.267035L105.819 3.44977C105.891 3.59116 106.031 3.68916 106.192 3.71183L109.825 4.22221C110.232 4.2793 110.394 4.76217 110.1 5.03931L107.471 7.51673C107.354 7.62678 107.301 7.78534 107.328 7.94074L107.949 11.4389C108.018 11.8302 107.594 12.1287 107.23 11.9439L103.981 10.2923C103.836 10.2189 103.664 10.2189 103.519 10.2923L100.27 11.9439C99.9064 12.1287 99.4816 11.8302 99.551 11.4389L100.172 7.94074C100.199 7.78534 100.146 7.62678 100.029 7.51673L97.4002 5.03931C97.1061 4.76217 97.2684 4.2793 97.6748 4.22221L101.308 3.71183C101.469 3.68916 101.609 3.59116 101.681 3.44977L103.306 0.267036Z" fill="white" fill-opacity="0.4"/>
<path d="M120.306 0.267036C120.487 -0.0890116 121.013 -0.089012 121.194 0.267035L122.819 3.44977C122.891 3.59116 123.031 3.68916 123.192 3.71183L126.825 4.22221C127.232 4.2793 127.394 4.76217 127.1 5.03931L124.471 7.51673C124.354 7.62678 124.301 7.78534 124.328 7.94074L124.949 11.4389C125.018 11.8302 124.594 12.1287 124.23 11.9439L120.981 10.2923C120.836 10.2189 120.664 10.2189 120.519 10.2923L117.27 11.9439C116.906 12.1287 116.482 11.8302 116.551 11.4389L117.172 7.94074C117.199 7.78534 117.146 7.62678 117.029 7.51673L114.4 5.03931C114.106 4.76217 114.268 4.2793 114.675 4.22221L118.308 3.71183C118.469 3.68916 118.609 3.59116 118.681 3.44977L120.306 0.267036Z" fill="white" fill-opacity="0.4"/>
<path d="M50.7741 31.1392C50.0914 31.1392 49.4815 31.0215 48.9446 30.7862C48.411 30.5509 47.9884 30.2244 47.6768 29.8068C47.3686 29.3859 47.2029 28.8987 47.1797 28.3452H48.7408C48.7607 28.6468 48.8617 28.9086 49.044 29.1307C49.2296 29.3494 49.4716 29.5185 49.7699 29.6378C50.0682 29.7571 50.3996 29.8168 50.7642 29.8168C51.1652 29.8168 51.5199 29.7472 51.8281 29.608C52.1397 29.4687 52.3833 29.2749 52.5589 29.0263C52.7346 28.7744 52.8224 28.4844 52.8224 28.1562C52.8224 27.8149 52.7346 27.5149 52.5589 27.2564C52.3866 26.9946 52.133 26.7891 51.7983 26.6399C51.4669 26.4908 51.0658 26.4162 50.5952 26.4162H49.7351V25.1634H50.5952C50.973 25.1634 51.3045 25.0954 51.5895 24.9595C51.8778 24.8236 52.1032 24.6347 52.2656 24.3928C52.428 24.1475 52.5092 23.8608 52.5092 23.5327C52.5092 23.2178 52.438 22.9444 52.2955 22.7124C52.1563 22.477 51.9574 22.2931 51.6989 22.1605C51.4437 22.0279 51.142 21.9616 50.794 21.9616C50.4626 21.9616 50.1527 22.023 49.8643 22.1456C49.5793 22.2649 49.3473 22.4373 49.1683 22.6626C48.9893 22.8847 48.8932 23.1515 48.88 23.4631H47.3935C47.41 22.9129 47.5724 22.429 47.8807 22.0114C48.1922 21.5937 48.6032 21.2673 49.1136 21.032C49.6241 20.7966 50.1908 20.679 50.8139 20.679C51.4669 20.679 52.0303 20.8066 52.5043 21.0618C52.9815 21.3137 53.3494 21.6501 53.608 22.071C53.8698 22.492 53.9991 22.9527 53.9957 23.4531C53.9991 24.0232 53.84 24.5071 53.5185 24.9048C53.2003 25.3026 52.776 25.5694 52.2457 25.7053V25.7848C52.9219 25.8875 53.4455 26.156 53.8168 26.5902C54.1913 27.0244 54.3769 27.563 54.3736 28.206C54.3769 28.7661 54.2211 29.2682 53.9062 29.7124C53.5947 30.1565 53.1688 30.5062 52.6286 30.7614C52.0883 31.0133 51.4702 31.1392 50.7741 31.1392ZM59.7276 31.169C58.9421 31.1657 58.2709 30.9586 57.7141 30.5476C57.1573 30.1366 56.7314 29.5384 56.4364 28.7528C56.1414 27.9673 55.9939 27.0211 55.9939 25.9141C55.9939 24.8104 56.1414 23.8674 56.4364 23.0852C56.7347 22.303 57.1622 21.7064 57.7191 21.2955C58.2792 20.8845 58.9487 20.679 59.7276 20.679C60.5065 20.679 61.1743 20.8861 61.7311 21.3004C62.288 21.7114 62.7139 22.308 63.0088 23.0902C63.3071 23.8691 63.4563 24.8104 63.4563 25.9141C63.4563 27.0244 63.3088 27.9723 63.0138 28.7578C62.7188 29.54 62.2929 30.1383 61.7361 30.5526C61.1793 30.9635 60.5098 31.169 59.7276 31.169ZM59.7276 29.8416C60.417 29.8416 60.9556 29.5052 61.3434 28.8324C61.7345 28.1596 61.93 27.1868 61.93 25.9141C61.93 25.0689 61.8405 24.3546 61.6615 23.7713C61.4859 23.1847 61.2323 22.7405 60.9009 22.4389C60.5728 22.134 60.1817 21.9815 59.7276 21.9815C59.0415 21.9815 58.5029 22.3196 58.1118 22.9957C57.7207 23.6719 57.5235 24.6446 57.5202 25.9141C57.5202 26.7625 57.608 27.4801 57.7837 28.0668C57.9627 28.6501 58.2162 29.0926 58.5443 29.3942C58.8725 29.6925 59.2669 29.8416 59.7276 29.8416ZM68.8049 31V23.3636H70.2417V24.5767H70.3213C70.4605 24.1657 70.7057 23.8426 71.057 23.6072C71.4117 23.3686 71.8127 23.2493 72.2602 23.2493C72.353 23.2493 72.4623 23.2526 72.5883 23.2592C72.7176 23.2659 72.8186 23.2741 72.8916 23.2841V24.706C72.8319 24.6894 72.7258 24.6712 72.5734 24.6513C72.4209 24.6281 72.2685 24.6165 72.116 24.6165C71.7647 24.6165 71.4515 24.6911 71.1764 24.8402C70.9046 24.986 70.6891 25.1899 70.5301 25.4517C70.371 25.7102 70.2914 26.0052 70.2914 26.3366V31H68.8049ZM77.1257 31.1541C76.3733 31.1541 75.7254 30.9934 75.1818 30.6719C74.6416 30.3471 74.224 29.8913 73.929 29.3047C73.6373 28.7147 73.4915 28.0237 73.4915 27.2315C73.4915 26.4493 73.6373 25.7599 73.929 25.1634C74.224 24.5668 74.6349 24.1011 75.1619 23.7663C75.6922 23.4316 76.312 23.2642 77.0213 23.2642C77.4522 23.2642 77.8698 23.3355 78.2742 23.478C78.6785 23.6205 79.0414 23.8442 79.3629 24.1491C79.6844 24.4541 79.938 24.8501 80.1236 25.3374C80.3092 25.8213 80.402 26.4096 80.402 27.1023V27.6293H74.3317V26.5156H78.9453C78.9453 26.1245 78.8658 25.7782 78.7067 25.4766C78.5476 25.1716 78.3239 24.9313 78.0355 24.7557C77.7505 24.58 77.4157 24.4922 77.0313 24.4922C76.6136 24.4922 76.2491 24.5949 75.9375 24.8004C75.6293 25.0026 75.3906 25.2678 75.2216 25.5959C75.0559 25.9207 74.973 26.2737 74.973 26.6548V27.5249C74.973 28.0353 75.0625 28.4695 75.2415 28.8274C75.4238 29.1854 75.6773 29.4588 76.0021 29.6477C76.3269 29.8333 76.7064 29.9261 77.1406 29.9261C77.4224 29.9261 77.6792 29.8864 77.9112 29.8068C78.1432 29.724 78.3438 29.6013 78.5128 29.4389C78.6818 29.2765 78.8111 29.076 78.9006 28.8374L80.3075 29.0909C80.1948 29.5052 79.9927 29.8681 79.701 30.1797C79.4126 30.4879 79.0497 30.7282 78.6122 30.9006C78.178 31.0696 77.6825 31.1541 77.1257 31.1541ZM88.2952 23.3636L85.5261 31H83.9352L81.161 23.3636H82.7569L84.6908 29.2401H84.7704L86.6994 23.3636H88.2952ZM89.6223 31V23.3636H91.1088V31H89.6223ZM90.373 22.1854C90.1144 22.1854 89.8924 22.0992 89.7068 21.9268C89.5245 21.7512 89.4333 21.5424 89.4333 21.3004C89.4333 21.0552 89.5245 20.8464 89.7068 20.674C89.8924 20.4983 90.1144 20.4105 90.373 20.4105C90.6315 20.4105 90.8519 20.4983 91.0342 20.674C91.2198 20.8464 91.3126 21.0552 91.3126 21.3004C91.3126 21.5424 91.2198 21.7512 91.0342 21.9268C90.8519 22.0992 90.6315 22.1854 90.373 22.1854ZM96.3298 31.1541C95.5774 31.1541 94.9294 30.9934 94.3859 30.6719C93.8456 30.3471 93.428 29.8913 93.133 29.3047C92.8414 28.7147 92.6955 28.0237 92.6955 27.2315C92.6955 26.4493 92.8414 25.7599 93.133 25.1634C93.428 24.5668 93.839 24.1011 94.366 23.7663C94.8963 23.4316 95.5161 23.2642 96.2254 23.2642C96.6562 23.2642 97.0739 23.3355 97.4782 23.478C97.8826 23.6205 98.2455 23.8442 98.567 24.1491C98.8885 24.4541 99.142 24.8501 99.3276 25.3374C99.5133 25.8213 99.6061 26.4096 99.6061 27.1023V27.6293H93.5357V26.5156H98.1494C98.1494 26.1245 98.0698 25.7782 97.9107 25.4766C97.7517 25.1716 97.5279 24.9313 97.2396 24.7557C96.9545 24.58 96.6198 24.4922 96.2353 24.4922C95.8177 24.4922 95.4531 24.5949 95.1416 24.8004C94.8333 25.0026 94.5947 25.2678 94.4257 25.5959C94.2599 25.9207 94.1771 26.2737 94.1771 26.6548V27.5249C94.1771 28.0353 94.2666 28.4695 94.4455 28.8274C94.6278 29.1854 94.8814 29.4588 95.2062 29.6477C95.531 29.8333 95.9105 29.9261 96.3447 29.9261C96.6264 29.9261 96.8833 29.8864 97.1153 29.8068C97.3473 29.724 97.5478 29.6013 97.7169 29.4389C97.8859 29.2765 98.0151 29.076 98.1046 28.8374L99.5116 29.0909C99.3989 29.5052 99.1967 29.8681 98.9051 30.1797C98.6167 30.4879 98.2538 30.7282 97.8163 30.9006C97.3821 31.0696 96.8866 31.1541 96.3298 31.1541ZM102.827 31L100.58 23.3636H102.116L103.613 28.9716H103.687L105.189 23.3636H106.725L108.216 28.9467H108.291L109.778 23.3636H111.314L109.072 31H107.555L106.004 25.4865H105.89L104.339 31H102.827ZM118.377 25.228L117.029 25.4666C116.973 25.2943 116.884 25.1302 116.761 24.9744C116.642 24.8187 116.479 24.6911 116.274 24.5916C116.068 24.4922 115.811 24.4425 115.503 24.4425C115.082 24.4425 114.731 24.5369 114.449 24.7259C114.167 24.9115 114.027 25.1518 114.027 25.4467C114.027 25.7019 114.121 25.9074 114.31 26.0632C114.499 26.219 114.804 26.3466 115.225 26.446L116.438 26.7244C117.14 26.8868 117.664 27.1371 118.009 27.4751C118.354 27.8132 118.526 28.2524 118.526 28.7926C118.526 29.25 118.393 29.6577 118.128 30.0156C117.866 30.3703 117.5 30.6487 117.029 30.8509C116.562 31.053 116.02 31.1541 115.404 31.1541C114.549 31.1541 113.851 30.9718 113.311 30.6072C112.77 30.2393 112.439 29.7173 112.316 29.0412L113.753 28.8224C113.843 29.197 114.027 29.4804 114.305 29.6726C114.583 29.8615 114.946 29.956 115.394 29.956C115.881 29.956 116.27 29.8549 116.562 29.6527C116.854 29.4472 117 29.197 117 28.902C117 28.6634 116.91 28.4628 116.731 28.3004C116.555 28.138 116.285 28.0154 115.921 27.9325L114.628 27.6491C113.916 27.4867 113.389 27.2282 113.047 26.8736C112.709 26.5189 112.54 26.0698 112.54 25.5263C112.54 25.0755 112.666 24.6811 112.918 24.343C113.17 24.005 113.518 23.7415 113.962 23.5526C114.406 23.3603 114.915 23.2642 115.488 23.2642C116.314 23.2642 116.963 23.4432 117.437 23.8011C117.911 24.1558 118.224 24.6314 118.377 25.228Z" fill="white" fill-opacity="0.5"/>
</svg>
