<svg width="39" height="26" viewBox="0 0 39 26" fill="none" xmlns="http://www.w3.org/2000/svg">
<path opacity="0.5" d="M29.8829 2.20387C25.8106 2.22275 22.7138 4.80604 21.5553 8.92213C19.6112 6.05285 18.0943 2.77112 17.2241 0L12.9373 0.0188773L12.9904 10.9136C12.9951 11.9495 12.5707 12.9447 11.8104 13.6807C11.0501 14.4166 10.0162 14.8329 8.93589 14.8381C7.85558 14.8426 6.81761 14.4357 6.05012 13.7067C5.28263 12.9777 4.84843 11.9863 4.84296 10.9504L4.78882 0.0556867L0.5 0.0745639L0.553155 10.9693C0.575795 15.4903 4.34291 19.0731 8.9536 19.0514C13.5643 19.0297 17.2989 15.4158 17.2773 10.8938L17.2674 9.04389C18.1317 10.6833 19.2125 12.4257 20.4006 13.9632L17.7793 26L22.1734 25.9811L24.0634 17.2355C25.7831 18.2567 27.7055 18.8636 29.9656 18.8532C34.6826 18.8315 38.5245 15.1156 38.4999 10.387C38.4819 8.20834 37.5659 6.12497 35.9516 4.59166C34.3374 3.05835 32.1561 2.19962 29.8839 2.20293L29.8829 2.20387ZM29.9439 14.6409C28.2292 14.6484 26.5115 13.9368 25.1127 12.8117L25.533 11.1666V11.0722C25.848 9.32232 26.795 6.3379 30.0118 6.32468C31.1461 6.32288 32.2352 6.7507 33.0421 7.51503C33.849 8.27936 34.3084 9.31834 34.3203 10.4059C34.2239 12.7702 32.1971 14.6295 29.9449 14.6399L29.9439 14.6409Z" fill="white"/>
</svg>
