<svg width="350" height="410" viewBox="0 0 350 410" fill="none" xmlns="http://www.w3.org/2000/svg">
<path d="M259 105.365V85.3259C259 83.602 259.573 81.9266 260.629 80.561L313.147 12.645C318.571 5.63066 309.94 -3.54034 302.566 1.40229L220.324 56.528C219.031 57.3946 217.509 57.8564 215.95 57.861C194.136 57.9251 170.61 58.8521 162.579 59.9567C154.447 61.1018 140.7 64.1553 132.181 66.8271C123.662 69.4989 111.464 74.27 105.074 77.5144C98.6851 80.5679 88.2297 86.6749 81.8404 90.8734C75.451 95.2628 65.1893 103.469 58.7999 109.194C52.6042 115.111 43.6978 124.653 39.2446 130.378C34.5978 136.103 27.4339 147.363 22.9808 155.188C18.7212 163.012 12.9126 175.799 10.202 183.433C7.49137 190.876 4.00627 205.57 2.26374 215.685C0.133936 228.853 -0.446926 240.113 0.327508 253.472C0.908364 263.969 2.84458 278.091 4.39353 284.962C6.1361 291.832 9.2339 302.137 11.3637 307.863C13.4935 313.588 18.9148 324.848 23.1744 332.672C27.434 340.497 34.5978 351.757 39.2446 357.482C43.6978 363.207 52.6042 372.75 58.7999 378.666C65.1893 384.391 75.451 392.597 81.8404 396.987C88.2297 401.185 98.6851 407.292 105.074 410.346C111.464 413.59 123.662 418.361 132.181 421.033C140.7 423.705 154.447 426.758 162.579 427.903C170.645 429.013 200.521 429.943 280.206 430C284.534 430.003 288.043 426.507 288.043 422.196V380.485C288.043 376.202 284.578 372.718 280.279 372.679L225.159 372.174C163.93 371.605 162.937 371.595 147.67 366.643C139.151 363.78 125.598 357.291 117.66 352.139C109.721 347.177 97.9106 337.253 91.5212 330.382C85.1318 323.512 76.6127 311.68 72.7403 303.855C68.6744 296.03 63.6404 282.481 61.317 273.511C57.8318 259.961 57.251 253.854 58.2191 237.251C58.9935 222.365 60.7361 213.204 64.6084 201.944C67.5127 193.547 74.0957 180.57 79.1297 173.318C83.9701 166.066 92.8765 155.76 98.4914 150.417C104.3 145.264 114.174 137.63 120.564 133.813C126.953 129.996 139.151 124.462 147.67 121.79C158.868 117.99 166.411 116.592 193.072 116.132C195.878 116.084 198.504 117.55 199.931 119.958L235.185 179.425C255.709 214.349 272.166 243.548 271.779 244.312C271.42 245.196 264.913 249.356 243.943 261.496C240.849 263.288 236.919 262.76 234.414 260.213L196.074 221.22C172.647 197.555 152.704 178.089 151.542 178.089C150.459 178.089 142.303 185.392 117.495 209.751C114.389 212.801 114.382 217.798 117.482 220.854L170.904 273.511C203.432 305.573 230.538 331.909 231.313 332.1C232.281 332.291 242.543 327.138 254.353 320.649C266.164 314.161 292.496 299.466 312.826 287.824C333.349 276.183 350 266.068 350 264.923C350 263.784 329.879 228.457 260.089 109.335C259.389 108.14 259 106.748 259 105.365Z" fill="white"/>
<path d="M302.566 1.40229L221.802 55.5369C219.638 56.9875 218.34 59.416 218.34 62.0147V82.6671H255.145C257.576 82.6671 259.869 81.5433 261.352 79.6249L313.147 12.645C318.571 5.63066 309.94 -3.54034 302.566 1.40229Z" fill="white"/>
</svg>
