<svg width="32" height="32" viewBox="0 0 32 32" fill="none" xmlns="http://www.w3.org/2000/svg">
<path d="M26.6654 14.6663V11.9997C26.6654 11.2924 26.3844 10.6142 25.8843 10.1141C25.3842 9.61396 24.7059 9.33301 23.9987 9.33301H7.9987C7.29145 9.33301 6.61318 9.61396 6.11308 10.1141C5.61298 10.6142 5.33203 11.2924 5.33203 11.9997V18.6663C5.33203 19.3736 5.61298 20.0519 6.11308 20.552C6.61318 21.0521 7.29145 21.333 7.9987 21.333H13.332" stroke="#FED500" stroke-width="1.7" stroke-linecap="round" stroke-linejoin="round"/>
<path d="M18.668 28V22.6667C18.668 21.9594 18.9489 21.2811 19.449 20.781C19.9491 20.281 20.6274 20 21.3346 20C22.0419 20 22.7202 20.281 23.2203 20.781C23.7204 21.2811 24.0013 21.9594 24.0013 22.6667V28" stroke="#FED500" stroke-width="1.7" stroke-linecap="round" stroke-linejoin="round"/>
<path d="M18.668 25.333H24.0013" stroke="#FED500" stroke-width="1.7" stroke-linecap="round" stroke-linejoin="round"/>
<path d="M28 20V28" stroke="#FED500" stroke-width="1.7" stroke-linecap="round" stroke-linejoin="round"/>
</svg>
