<svg width="32" height="32" viewBox="0 0 32 32" fill="none" xmlns="http://www.w3.org/2000/svg">
<path d="M4 10.6667V16.2293C4.00015 16.9365 4.2812 17.6147 4.78133 18.1147L12.3947 25.728C12.9973 26.3305 13.8145 26.669 14.6667 26.669C15.5188 26.669 16.3361 26.3305 16.9387 25.728L21.728 20.9387C22.3305 20.3361 22.669 19.5188 22.669 18.6667C22.669 17.8145 22.3305 16.9973 21.728 16.3947L14.1147 8.78133C13.6147 8.2812 12.9365 8.00015 12.2293 8H6.66667C5.95942 8 5.28115 8.28095 4.78105 8.78105C4.28095 9.28115 4 9.95942 4 10.6667Z" stroke="#FED500" stroke-width="1.7" stroke-linecap="round" stroke-linejoin="round"/>
<path d="M24 25.3333L26.1227 23.2107C27.3277 22.0055 28.0047 20.371 28.0047 18.6667C28.0047 16.9624 27.3277 15.3279 26.1227 14.1227L20 8" stroke="#FED500" stroke-width="1.7" stroke-linecap="round" stroke-linejoin="round"/>
<path d="M9.32974 13.333H9.31641" stroke="#FED500" stroke-width="1.7" stroke-linecap="round" stroke-linejoin="round"/>
</svg>
