<svg width="32" height="32" viewBox="0 0 32 32" fill="none" xmlns="http://www.w3.org/2000/svg">
<path d="M5.33398 9.33333C5.33398 8.97971 5.47446 8.64057 5.72451 8.39052C5.97456 8.14048 6.3137 8 6.66732 8H9.33398C9.68761 8 10.0267 8.14048 10.2768 8.39052C10.5268 8.64057 10.6673 8.97971 10.6673 9.33333V13.3333C10.6673 13.687 10.5268 14.0261 10.2768 14.2761C10.0267 14.5262 9.68761 14.6667 9.33398 14.6667H6.66732C6.3137 14.6667 5.97456 14.5262 5.72451 14.2761C5.47446 14.0261 5.33398 13.687 5.33398 13.3333V9.33333Z" stroke="#FED500" stroke-width="1.7" stroke-linecap="round" stroke-linejoin="round"/>
<path d="M8 5.33301V7.99967" stroke="#FED500" stroke-width="1.7" stroke-linecap="round" stroke-linejoin="round"/>
<path d="M8 14.667V26.667" stroke="#FED500" stroke-width="1.7" stroke-linecap="round" stroke-linejoin="round"/>
<path d="M13.334 20.0003C13.334 19.6467 13.4745 19.3076 13.7245 19.0575C13.9746 18.8075 14.3137 18.667 14.6673 18.667H17.334C17.6876 18.667 18.0267 18.8075 18.2768 19.0575C18.5268 19.3076 18.6673 19.6467 18.6673 20.0003V24.0003C18.6673 24.3539 18.5268 24.6931 18.2768 24.9431C18.0267 25.1932 17.6876 25.3337 17.334 25.3337H14.6673C14.3137 25.3337 13.9746 25.1932 13.7245 24.9431C13.4745 24.6931 13.334 24.3539 13.334 24.0003V20.0003Z" stroke="#FED500" stroke-width="1.7" stroke-linecap="round" stroke-linejoin="round"/>
<path d="M16 5.33301V18.6663" stroke="#FED500" stroke-width="1.7" stroke-linecap="round" stroke-linejoin="round"/>
<path d="M16 25.333V26.6663" stroke="#FED500" stroke-width="1.7" stroke-linecap="round" stroke-linejoin="round"/>
<path d="M21.334 8.00033C21.334 7.6467 21.4745 7.30757 21.7245 7.05752C21.9746 6.80747 22.3137 6.66699 22.6673 6.66699H25.334C25.6876 6.66699 26.0267 6.80747 26.2768 7.05752C26.5268 7.30757 26.6673 7.6467 26.6673 8.00033V13.3337C26.6673 13.6873 26.5268 14.0264 26.2768 14.2765C26.0267 14.5265 25.6876 14.667 25.334 14.667H22.6673C22.3137 14.667 21.9746 14.5265 21.7245 14.2765C21.4745 14.0264 21.334 13.6873 21.334 13.3337V8.00033Z" stroke="#FED500" stroke-width="1.7" stroke-linecap="round" stroke-linejoin="round"/>
<path d="M24 5.33301V6.66634" stroke="#FED500" stroke-width="1.7" stroke-linecap="round" stroke-linejoin="round"/>
<path d="M24 14.667V26.667" stroke="#FED500" stroke-width="1.7" stroke-linecap="round" stroke-linejoin="round"/>
</svg>
