<svg width="288" height="176" viewBox="0 0 288 176" fill="none" xmlns="http://www.w3.org/2000/svg">
<rect x="112.002" width="64" height="64" rx="16" fill="url(#paint0_linear_11_40809)"/>
<rect x="112.002" width="64" height="64" rx="16" fill="url(#paint1_linear_11_40809)"/>
<rect x="112.502" y="0.5" width="63" height="63" rx="15.5" stroke="white" stroke-opacity="0.05"/>
<path d="M161.278 21.7002L150.254 43.2501H139.9L144.516 34.316H144.311C140.5 39.2608 134.821 42.5106 126.729 43.2501V34.4455C126.729 34.4455 131.905 34.1378 134.95 30.9421H126.729V21.7002H135.965V29.301H136.17L139.949 21.7002H146.934V29.2524H147.139L151.059 21.7002H161.278Z" fill="white"/>
<g clip-path="url(#clip0_11_40809)">
<rect x="223.197" y="19.5493" width="64" height="64" rx="16" transform="rotate(45 223.197 19.5493)" fill="url(#paint2_linear_11_40809)"/>
<rect x="223.197" y="19.5493" width="64" height="64" rx="16" transform="rotate(45 223.197 19.5493)" fill="url(#paint3_linear_11_40809)"/>
<g clip-path="url(#clip1_11_40809)">
<path d="M212.59 56.5547L218.482 62.4472" stroke="white" stroke-width="3.33333" stroke-linecap="round" stroke-linejoin="round"/>
<path d="M218.482 69.5189L227.91 60.0908L231.446 63.6264C232.071 64.2515 232.422 65.0993 232.422 65.9834C232.422 66.8674 232.071 67.7153 231.446 68.3404L230.267 69.5189C229.642 70.144 228.794 70.4952 227.91 70.4952C227.026 70.4952 226.178 70.144 225.553 69.5189L222.018 65.9834" stroke="white" stroke-width="3.33333" stroke-linecap="round" stroke-linejoin="round"/>
<path d="M237.34 69.5195L227.912 78.9476" stroke="white" stroke-width="3.33333" stroke-linecap="round" stroke-linejoin="round"/>
<path d="M214.947 65.9828L221.429 59.5009C222.21 58.7195 222.649 57.6597 222.649 56.5547C222.649 55.4496 222.21 54.3898 221.429 53.6084C220.647 52.827 219.587 52.388 218.482 52.388C217.377 52.388 216.318 52.827 215.536 53.6084L209.054 60.0902" stroke="white" stroke-width="3.33333" stroke-linecap="round" stroke-linejoin="round"/>
</g>
</g>
<rect x="223.197" y="20.2564" width="63" height="63" rx="15.5" transform="rotate(45 223.197 20.2564)" stroke="white" stroke-opacity="0.05"/>
<rect x="288.002" y="112" width="64" height="64" rx="16" transform="rotate(90 288.002 112)" fill="url(#paint4_linear_11_40809)"/>
<rect x="287.502" y="112.5" width="63" height="63" rx="15.5" transform="rotate(90 287.502 112.5)" stroke="white" stroke-opacity="0.05"/>
<path d="M263.002 137L263.686 137.945C263.885 137.8 264.034 137.596 264.111 137.362C264.187 137.128 264.187 136.875 264.111 136.641C264.035 136.406 263.887 136.202 263.688 136.057C263.489 135.912 263.248 135.833 263.002 135.833V137ZM240.835 144C240.835 139.978 242.433 136.12 245.278 133.276C248.122 130.431 251.98 128.833 256.002 128.833V126.5C251.361 126.5 246.909 128.344 243.628 131.626C240.346 134.908 238.502 139.359 238.502 144H240.835ZM256.002 159.167C254.01 159.167 252.038 158.774 250.198 158.012C248.358 157.25 246.686 156.133 245.278 154.724C243.869 153.316 242.752 151.644 241.99 149.804C241.228 147.964 240.835 145.992 240.835 144H238.502C238.502 148.641 240.346 153.092 243.628 156.374C246.909 159.656 251.361 161.5 256.002 161.5V159.167ZM271.169 144C271.169 145.992 270.776 147.964 270.014 149.804C269.252 151.644 268.135 153.316 266.726 154.724C265.318 156.133 263.646 157.25 261.806 158.012C259.966 158.774 257.994 159.167 256.002 159.167V161.5C260.643 161.5 265.094 159.656 268.376 156.374C271.658 153.092 273.502 148.641 273.502 144H271.169ZM273.502 144C273.502 139.359 271.658 134.908 268.376 131.626C265.094 128.344 260.643 126.5 256.002 126.5V128.833C260.024 128.833 263.882 130.431 266.726 133.276C269.571 136.12 271.169 139.978 271.169 144H273.502ZM245.502 138.167H263.002V135.833H245.502V138.167ZM262.318 136.055L241.318 151.222L242.686 153.112L263.686 137.945L262.318 136.055ZM264.169 149.833H250.169V152.167H264.169V149.833Z" fill="white"/>
<rect x="0.00195312" y="176" width="64" height="64" rx="16" transform="rotate(-90 0.00195312 176)" fill="url(#paint5_linear_11_40809)"/>
<rect x="0.00195312" y="176" width="64" height="64" rx="16" transform="rotate(-90 0.00195312 176)" fill="url(#paint6_linear_11_40809)"/>
<rect x="0.501953" y="175.5" width="63" height="63" rx="15.5" transform="rotate(-90 0.501953 175.5)" stroke="white" stroke-opacity="0.05"/>
<path d="M20.1035 141.726L23.6452 147.861" stroke="white" stroke-width="2.5" stroke-linecap="round"/>
<path d="M33.8555 148.461L23.5742 148.07" stroke="white" stroke-width="2.08333" stroke-linecap="round"/>
<path d="M28.9171 130.845C27.4797 130.378 25.9346 130.356 24.4845 130.782C23.0343 131.208 21.7468 132.063 20.7907 133.233C19.8346 134.404 19.2546 135.836 19.1266 137.342C18.9986 138.848 19.3286 140.358 20.0734 141.673M43.8982 146.273L40.3565 140.139" stroke="white" stroke-width="2.5" stroke-linecap="round"/>
<path d="M30.1465 139.538L40.4277 139.929" stroke="white" stroke-width="2.08333" stroke-linecap="round"/>
<path d="M35.0848 157.155C36.5223 157.622 38.0672 157.643 39.5171 157.217C40.967 156.79 42.2543 155.936 43.2103 154.766C44.1663 153.595 44.7464 152.163 44.8746 150.657C45.0028 149.151 44.6731 147.642 43.9288 146.327M24.084 153.166L31.1673 153.166M28.0204 132.56L24.4788 138.694" stroke="white" stroke-width="2.5" stroke-linecap="round"/>
<path d="M36.7926 144.625L31.3134 153.333M29.0638 147.837L24.2617 138.738" stroke="white" stroke-width="2.08333" stroke-linecap="round"/>
<path d="M19.0662 140.093C17.9427 141.104 17.1511 142.431 16.795 143.9C16.439 145.369 16.5351 146.912 17.0709 148.325C17.6067 149.738 18.5571 150.957 19.7974 151.821C21.0378 152.685 22.5103 153.154 24.0218 153.166M41.8524 134.751C41.5382 133.272 40.7846 131.923 39.6904 130.881C38.5962 129.838 37.2125 129.15 35.7206 128.908C34.2288 128.665 32.6984 128.879 31.3302 129.521C29.9619 130.163 28.8195 131.203 28.0528 132.506M39.9181 134.833L32.8347 134.833M35.9816 155.439L39.5233 149.305" stroke="white" stroke-width="2.5" stroke-linecap="round"/>
<path d="M27.209 143.375L32.6882 134.667M34.9377 140.163L39.7398 149.262" stroke="white" stroke-width="2.08333" stroke-linecap="round"/>
<path d="M44.9366 147.906C46.0597 146.895 46.8509 145.568 47.2067 144.099C47.5625 142.63 47.4663 141.088 46.9305 139.675C46.3948 138.261 45.4447 137.043 44.2046 136.179C42.9645 135.315 41.4923 134.846 39.981 134.833M22.1504 153.248C22.4646 154.727 23.2183 156.076 24.3124 157.118C25.4066 158.161 26.7903 158.849 28.2822 159.092C29.774 159.334 31.3044 159.121 32.6727 158.479C34.0409 157.836 35.1833 156.796 35.95 155.493" stroke="white" stroke-width="2.5" stroke-linecap="round"/>
<g clip-path="url(#clip2_11_40809)">
<rect x="19.5508" y="64.8042" width="64" height="64" rx="16" transform="rotate(-45 19.5508 64.8042)" fill="url(#paint7_linear_11_40809)"/>
<rect x="19.5508" y="64.8042" width="64" height="64" rx="16" transform="rotate(-45 19.5508 64.8042)" fill="url(#paint8_linear_11_40809)"/>
<g clip-path="url(#clip3_11_40809)">
<path d="M62.5781 62.5766C63.792 61.3627 65.7719 61.3627 67.0093 62.6001C68.1878 63.7786 68.1996 65.7703 66.9858 66.9842C65.7719 68.1981 63.7802 68.1863 62.6017 67.0078C61.3643 65.7703 61.3643 63.7904 62.5781 62.5766ZM68.7771 79.6885C69.9674 79.3939 70.9102 77.084 71.0163 73.4424C69.7081 73.3599 68.3528 73.2067 66.9975 72.9828C65.957 73.8416 64.8712 74.6442 63.7449 75.387C65.6658 78.51 67.6222 80.0185 68.7771 79.6885ZM62.8492 72.0871L61.9064 71.8279C62.1185 72.2993 62.3306 72.7707 62.5781 73.1832C62.967 72.9357 63.3795 72.641 63.8038 72.3346L62.8492 72.0871ZM69.661 63.484L68.8478 60.7617L66.1254 59.9485C65.1473 59.6774 64.2163 59.5006 63.3206 59.2885C62.6488 59.8896 61.9771 60.5613 61.27 61.2684C60.5629 61.9755 59.8911 62.6473 59.2901 63.319C59.5022 64.2147 59.679 65.1457 59.95 66.1239L60.7632 68.8462L63.4856 69.6594C64.4637 69.9305 65.3948 70.1072 66.2904 70.3194C66.9622 69.7183 67.6339 69.0466 68.341 68.3395C69.0482 67.6324 69.7199 66.9606 70.3209 66.2889C70.1088 65.3932 69.932 64.4622 69.661 63.484ZM58.6537 58.6521C58.689 59.1353 58.7244 59.6421 58.8069 60.196L60.1975 58.8053C59.6436 58.7228 59.1369 58.6875 58.6537 58.6521ZM70.9573 70.9558C70.922 70.4726 70.8866 69.9658 70.8041 69.4119L69.4135 70.8026C69.9674 70.8851 70.4741 70.9204 70.9573 70.9558ZM60.8221 49.9311C59.6436 50.214 58.7008 52.5239 58.5948 56.1655C59.9029 56.248 61.2582 56.4012 62.6135 56.6251C63.6741 55.753 64.7702 54.9398 65.8662 54.2209C63.9452 51.0979 61.9889 49.5894 60.8221 49.9311ZM66.7618 57.5207L67.7046 57.78C67.4925 57.3086 67.2804 56.8372 67.0329 56.4247C66.644 56.6722 66.2315 56.9668 65.8072 57.2733L66.7618 57.5207ZM60.1622 47.5034C62.8845 46.7609 65.6776 49.1769 67.9875 52.9481C71.8648 50.8386 75.4828 50.1433 77.4745 52.1349C79.4662 54.1266 78.7709 57.7447 76.6613 61.622C80.4326 63.9318 82.8485 66.7249 82.1061 69.4473C81.3754 72.1579 77.8988 73.3717 73.4794 73.4778C73.3733 77.8972 72.1594 81.3738 69.4371 82.1163C66.7265 82.847 63.9334 80.431 61.6235 76.6598C57.7462 78.7693 54.1282 79.4646 52.1365 77.4729C50.1448 75.4813 50.8402 71.8632 52.9497 67.9859C49.1785 65.676 46.7625 62.883 47.4932 60.1724C48.2356 57.45 51.7123 56.2362 56.1317 56.1301C56.2377 51.7107 57.4516 48.2341 60.1622 47.5034ZM70.7923 58.8171C72.0769 59.3003 73.3144 59.8306 74.5047 60.4317C76.2371 57.2143 76.5671 54.763 75.7067 53.9027C74.8464 53.0424 72.3951 53.3724 69.1778 55.1048C69.7788 56.2951 70.3092 57.5325 70.7923 58.8171ZM58.8187 70.7908C57.5341 70.3076 56.2967 69.7773 55.1064 69.1762C53.374 72.3936 53.044 74.8449 53.9043 75.7052C54.7646 76.5655 57.2159 76.2355 60.4332 74.5031C59.8322 73.3128 59.3019 72.0754 58.8187 70.7908ZM72.0887 62.8476L72.3362 63.8022C72.6426 63.3779 72.9372 62.9655 73.1847 62.5766C72.7722 62.3291 72.3008 62.1169 71.8294 61.9048L72.0887 62.8476ZM73.444 71.0147C77.0856 70.9086 79.3955 69.9658 79.6783 68.7873C80.0201 67.6206 78.5116 65.6643 75.3885 63.7433C74.6697 64.8393 73.8565 65.9353 72.9844 66.996C73.2083 68.3513 73.3615 69.7066 73.444 71.0147ZM57.5223 66.7603L57.2748 65.8057C56.9684 66.2299 56.6738 66.6424 56.4263 67.0313C56.8388 67.2788 57.3102 67.491 57.7816 67.7031L57.5223 66.7603ZM56.167 58.5932C52.5254 58.6993 50.2155 59.6421 49.9209 60.8324C49.5909 61.9873 51.0994 63.9436 54.2225 65.8646C54.9653 64.7383 55.7678 63.6525 56.6266 62.6119C56.4027 61.2566 56.2495 59.9013 56.167 58.5932Z" fill="white"/>
</g>
</g>
<rect x="20.2579" y="64.8042" width="63" height="63" rx="15.5" transform="rotate(-45 20.2579 64.8042)" stroke="white" stroke-opacity="0.05"/>
<defs>
<linearGradient id="paint0_linear_11_40809" x1="144.002" y1="0" x2="144.002" y2="64" gradientUnits="userSpaceOnUse">
<stop stop-color="#006FFE"/>
<stop offset="1" stop-color="#0065F4"/>
</linearGradient>
<linearGradient id="paint1_linear_11_40809" x1="144.002" y1="0" x2="144.002" y2="64" gradientUnits="userSpaceOnUse">
<stop stop-color="#2B2B2B"/>
<stop offset="1" stop-color="#1B1B1B"/>
</linearGradient>
<linearGradient id="paint2_linear_11_40809" x1="255.197" y1="19.5493" x2="255.197" y2="83.5493" gradientUnits="userSpaceOnUse">
<stop stop-color="#FD6666"/>
<stop offset="1" stop-color="#DF4848"/>
</linearGradient>
<linearGradient id="paint3_linear_11_40809" x1="255.197" y1="19.5493" x2="255.197" y2="83.5493" gradientUnits="userSpaceOnUse">
<stop stop-color="#2B2B2B"/>
<stop offset="1" stop-color="#1B1B1B"/>
</linearGradient>
<linearGradient id="paint4_linear_11_40809" x1="320.002" y1="112" x2="320.002" y2="176" gradientUnits="userSpaceOnUse">
<stop stop-color="#2B2B2B"/>
<stop offset="1" stop-color="#1B1B1B"/>
</linearGradient>
<linearGradient id="paint5_linear_11_40809" x1="32.002" y1="176" x2="32.002" y2="240" gradientUnits="userSpaceOnUse">
<stop stop-color="#59D1B7"/>
<stop offset="1" stop-color="#43A38E"/>
</linearGradient>
<linearGradient id="paint6_linear_11_40809" x1="32.002" y1="176" x2="32.002" y2="240" gradientUnits="userSpaceOnUse">
<stop stop-color="#2B2B2B"/>
<stop offset="1" stop-color="#1B1B1B"/>
</linearGradient>
<linearGradient id="paint7_linear_11_40809" x1="51.5508" y1="64.8042" x2="51.5508" y2="128.804" gradientUnits="userSpaceOnUse">
<stop stop-color="#4AD5FE"/>
<stop offset="1" stop-color="#18BCEF"/>
</linearGradient>
<linearGradient id="paint8_linear_11_40809" x1="51.5508" y1="64.8042" x2="51.5508" y2="128.804" gradientUnits="userSpaceOnUse">
<stop stop-color="#2B2B2B"/>
<stop offset="1" stop-color="#1B1B1B"/>
</linearGradient>
<clipPath id="clip0_11_40809">
<rect x="223.197" y="19.5493" width="64" height="64" rx="16" transform="rotate(45 223.197 19.5493)" fill="white"/>
</clipPath>
<clipPath id="clip1_11_40809">
<rect width="40" height="40" fill="white" transform="translate(223.197 36.52) rotate(45)"/>
</clipPath>
<clipPath id="clip2_11_40809">
<rect x="19.5508" y="64.8042" width="64" height="64" rx="16" transform="rotate(-45 19.5508 64.8042)" fill="white"/>
</clipPath>
<clipPath id="clip3_11_40809">
<rect width="40" height="40" fill="white" transform="translate(36.5215 64.8042) rotate(-45)"/>
</clipPath>
</defs>
</svg>
