<svg width="249" height="306" viewBox="0 0 249 306" fill="none" xmlns="http://www.w3.org/2000/svg">
<path d="M184.26 74.9805V60.7203C184.26 59.4935 184.667 58.3012 185.419 57.3294L222.782 8.99857C226.641 4.00693 220.5 -2.51941 215.254 0.997911L156.745 40.2269C155.825 40.8436 154.742 41.1722 153.633 41.1755C138.114 41.2211 121.377 41.8808 115.663 42.6669C109.878 43.4817 100.098 45.6547 94.0372 47.556C87.9764 49.4574 79.2985 52.8526 74.7529 55.1614C70.2074 57.3343 62.7691 61.6803 58.2236 64.6681C53.678 67.7917 46.3775 73.6315 41.8319 77.7058C37.4241 81.9159 31.0879 88.7064 27.9197 92.7807C24.6138 96.855 19.5173 104.868 16.3492 110.436C13.3188 116.004 9.18643 125.103 7.25801 130.536C5.32957 135.832 2.85017 146.29 1.61049 153.488C0.0952862 162.859 -0.317956 170.871 0.232999 180.378C0.646236 187.848 2.02372 197.897 3.12568 202.787C4.36539 207.676 6.56926 215.009 8.08446 219.084C9.59964 223.158 13.4565 231.171 16.4869 236.739C19.5173 242.307 24.6138 250.32 27.9197 254.394C31.0879 258.469 37.4241 265.259 41.8319 269.469C46.3775 273.543 53.678 279.383 58.2236 282.507C62.7691 285.495 70.2074 289.841 74.7529 292.014C79.2985 294.322 87.9764 297.718 94.0372 299.619C100.098 301.52 109.878 303.693 115.663 304.508C121.402 305.298 142.657 305.96 199.347 306C202.425 306.002 204.922 303.515 204.922 300.446V270.764C204.922 267.716 202.457 265.236 199.398 265.208L160.185 264.849C116.625 264.444 115.918 264.438 105.057 260.913C98.996 258.876 89.3539 254.258 83.7063 250.592C78.0588 247.061 69.6564 239.998 65.1108 235.109C60.5652 230.22 54.5044 221.8 51.7495 216.232C48.8569 210.664 45.2756 201.021 43.6226 194.638C41.1432 184.995 40.73 180.65 41.4187 168.834C41.9697 158.241 43.2094 151.722 45.9643 143.709C48.0304 137.734 52.7138 128.499 56.2951 123.338C59.7387 118.177 66.075 110.843 70.0696 107.041C74.2019 103.374 81.2269 97.9415 85.7725 95.2253C90.3181 92.5091 98.996 88.5706 105.057 86.6692C113.023 83.9652 118.39 82.9703 137.357 82.6429C139.353 82.6084 141.221 83.6517 142.237 85.3653L167.317 127.684C181.918 152.537 193.627 173.316 193.351 173.859C193.096 174.488 188.466 177.449 173.548 186.088C171.347 187.363 168.551 186.987 166.769 185.175L139.493 157.426C122.826 140.586 108.638 126.733 107.812 126.733C107.041 126.733 101.238 131.93 83.589 149.265C81.3793 151.435 81.3745 154.991 83.5799 157.166L121.586 194.638C144.727 217.454 164.012 236.196 164.562 236.332C165.251 236.467 172.552 232.801 180.954 228.183C189.357 223.565 208.09 213.108 222.553 204.824C237.154 196.539 249 189.341 249 188.527C249 187.716 234.686 162.576 185.035 77.8058C184.537 76.9557 184.26 75.9648 184.26 74.9805Z" fill="white"/>
<path d="M215.254 0.997911L157.796 39.5216C156.257 40.5539 155.333 42.2821 155.333 44.1314V58.8282H181.518C183.247 58.8282 184.878 58.0285 185.933 56.6633L222.782 8.99857C226.641 4.00693 220.5 -2.51941 215.254 0.997911Z" fill="#FED500"/>
</svg>
