<svg width="120" height="142" viewBox="0 0 120 142" fill="none" xmlns="http://www.w3.org/2000/svg">
<g clip-path="url(#clip0_11_57158)">
<mask id="mask0_11_57158" style="mask-type:alpha" maskUnits="userSpaceOnUse" x="0" y="-97" width="206" height="206">
<circle cx="102.524" cy="5.82554" r="102.524" fill="#D9D9D9"/>
</mask>
<g mask="url(#mask0_11_57158)">
<path d="M81.6549 37.2744V31.7365C81.6549 31.26 81.8132 30.797 82.1049 30.4196L96.6149 11.6504C98.1134 9.71185 95.7288 7.17735 93.6915 8.5433L70.9693 23.7779C70.6121 24.0174 70.1916 24.145 69.7611 24.1462C63.7342 24.164 57.2343 24.4202 55.0154 24.7254C52.7687 25.0419 48.9706 25.8857 46.617 26.6241C44.2633 27.3625 40.8932 28.681 39.1279 29.5777C37.3627 30.4215 34.474 32.1093 32.7087 33.2696C30.9435 34.4826 28.1083 36.7505 26.3431 38.3328C24.6313 39.9678 22.1706 42.6048 20.9403 44.1871C19.6564 45.7693 17.6772 48.8811 16.4468 51.0435C15.27 53.2059 13.6652 56.7396 12.9163 58.8493C12.1674 60.9062 11.2045 64.9673 10.7231 67.7626C10.1347 71.4018 9.97418 74.5135 10.1881 78.2055C10.3486 81.1063 10.8836 85.0091 11.3115 86.9078C11.793 88.8065 12.6488 91.6546 13.2373 93.2368C13.8257 94.8191 15.3235 97.9308 16.5003 100.093C17.6772 102.256 19.6564 105.367 20.9403 106.95C22.1706 108.532 24.6313 111.169 26.3431 112.804C28.1083 114.386 30.9435 116.654 32.7087 117.867C34.474 119.027 37.3627 120.715 39.1279 121.559C40.8932 122.456 44.2633 123.774 46.617 124.513C48.9706 125.251 52.7687 126.095 55.0154 126.411C57.244 126.718 65.4983 126.975 87.5138 126.991C88.7095 126.992 89.6789 126.025 89.6789 124.834V113.307C89.6789 112.123 88.7217 111.16 87.5339 111.149L72.3052 111.01C55.3888 110.853 55.1144 110.85 50.8964 109.481C48.5427 108.69 44.7982 106.897 42.605 105.473C40.4118 104.102 37.1487 101.359 35.3834 99.4603C33.6181 97.5617 31.2644 94.2917 30.1946 92.1292C29.0712 89.9668 27.6804 86.2222 27.0385 83.7433C26.0756 79.9987 25.9151 78.3109 26.1826 73.7224C26.3966 69.6086 26.878 67.077 27.9479 63.9652C28.7503 61.6446 30.569 58.0582 31.9598 56.054C33.2972 54.0498 35.7578 51.2017 37.3091 49.725C38.9139 48.3009 41.6421 46.1913 43.4074 45.1364C45.1726 44.0816 48.5427 42.5521 50.8964 41.8137C53.9902 40.7636 56.0742 40.3772 63.4401 40.2501C64.2155 40.2367 64.9408 40.6419 65.3352 41.3074L75.0753 57.7417C80.7456 67.3934 85.2925 75.4629 85.1855 75.6739C85.0864 75.9182 83.2885 77.0678 77.4949 80.4229C76.64 80.918 75.5542 80.7722 74.8623 80.0683L64.2697 69.2921C57.797 62.7521 52.2872 57.3725 51.9662 57.3725C51.6669 57.3725 49.4136 59.3908 42.5594 66.1227C41.7013 66.9654 41.6994 68.3465 42.5559 69.191L57.3156 83.7433C66.3024 92.6039 73.7914 99.8823 74.0054 99.935C74.2729 99.9877 77.108 98.5637 80.3711 96.7705C83.6342 94.9773 90.9093 90.9162 96.526 87.699C102.196 84.4817 106.797 81.6864 106.797 81.3699C106.797 81.0551 101.238 71.2922 81.9557 38.3716C81.7624 38.0415 81.6549 37.6567 81.6549 37.2744Z" fill="white"/>
<path d="M93.6915 8.5433L71.3778 23.504C70.7799 23.9049 70.4213 24.576 70.4213 25.2942V31.0017H80.5899C81.2615 31.0017 81.895 30.6911 82.3048 30.1609L96.6149 11.6504C98.1134 9.71185 95.7288 7.17735 93.6915 8.5433Z" fill="#FED500"/>
</g>
</g>
<defs>
<clipPath id="clip0_11_57158">
<rect width="120" height="142" fill="white"/>
</clipPath>
</defs>
</svg>
