<svg width="64" height="30" viewBox="0 0 64 30" fill="none" xmlns="http://www.w3.org/2000/svg">
<g opacity="0.6">
<path d="M16.6406 6H19.5846V24H16.6406V6Z" fill="white"/>
<path d="M29.8238 18.2958C29.8238 21.0846 27.5198 21.3381 26.7518 21.3381C24.9598 21.3381 24.7038 19.6902 24.7038 18.8029V11.8311H21.7598V18.6761C21.7598 20.324 22.2718 21.8451 23.2958 22.7325C24.1918 23.6198 25.3438 24.0001 26.7518 24.0001C27.7758 24.0001 29.0558 23.7465 29.8238 22.986V24.0001H32.7678V11.8311H29.8238V18.2958Z" fill="white"/>
<path d="M38.5282 7.39453H35.5842V11.8312H33.4082V14.6199H35.5842V24.0002H38.5282V14.6199H40.7042V11.8312H38.5282V7.39453Z" fill="white"/>
<path d="M49.9208 20.3236C49.2808 20.8307 48.3848 21.211 47.4888 21.211C45.4408 21.211 44.0328 19.6898 44.0328 17.6617C44.0328 15.6335 45.4408 14.2391 47.4888 14.2391C48.3848 14.2391 49.2808 14.4926 49.9208 15.1264L50.3048 15.5067L52.3528 13.6053L51.8408 13.225C50.6888 12.2109 49.1528 11.5771 47.4888 11.5771C43.9048 11.5771 41.2168 14.2391 41.2168 17.7884C41.2168 21.3377 43.9048 23.9997 47.4888 23.9997C49.1528 23.9997 50.6888 23.3659 51.8408 22.3518L52.3528 21.9715L50.3048 19.9433L49.9208 20.3236Z" fill="white"/>
<path d="M62.7198 12.8451C61.8238 11.9577 60.9278 11.5775 59.5198 11.5775C58.4958 11.5775 57.4718 11.831 56.7038 12.5915V6H53.7598V24H56.7038V17.2817C56.7038 14.493 58.6238 14.2394 59.3918 14.2394C61.1838 14.2394 61.0558 15.8873 61.0558 16.7746V23.8732H63.9998V16.9014C63.9998 15.2535 63.6158 13.7324 62.7198 12.8451Z" fill="white"/>
<path opacity="0.4" d="M47.3605 19.8171C48.4916 19.8171 49.4085 18.909 49.4085 17.7889C49.4085 16.6688 48.4916 15.7607 47.3605 15.7607C46.2294 15.7607 45.3125 16.6688 45.3125 17.7889C45.3125 18.909 46.2294 19.8171 47.3605 19.8171Z" fill="white"/>
<path d="M12.544 19.5635C11.52 20.5776 9.984 21.2114 8.32 21.2114C5.12 21.2114 2.816 18.6762 2.816 15.2537C2.816 11.8311 5.12 9.29591 8.448 9.29591C9.984 9.29591 11.52 9.92971 12.672 11.0706L13.056 11.4508L14.976 9.54943L14.592 9.16915C12.928 7.52126 10.752 6.63394 8.448 6.63394C3.584 6.50718 0 10.31 0 15.2537C0 20.1973 3.584 24.0001 8.32 24.0001C10.624 24.0001 12.928 23.1128 14.464 21.4649L14.848 21.0846L12.928 19.1832L12.544 19.5635Z" fill="white"/>
</g>
</svg>
