<svg width="122" height="30" viewBox="0 0 122 30" fill="none" xmlns="http://www.w3.org/2000/svg">
<g opacity="0.6" clip-path="url(#clip0_11_17930)">
<path d="M21.4087 9.78394H25.5104C28.8117 9.78394 31.1127 12.1028 31.1127 15.0915V15.143C31.1127 18.1318 28.8617 20.4506 25.5104 20.4506H21.4087V9.78394ZM25.5104 18.2864C27.4112 18.2864 28.6617 16.9981 28.6617 15.143V15.0915C28.6617 13.2364 27.4112 11.8967 25.5104 11.8967H23.7597V18.2864H25.5104Z" fill="white"/>
<path d="M33.1133 9.78394H41.0665V11.8451H35.4642V14.0094H40.4163V16.0706H35.4642V18.2864H41.1666V20.3475H33.1633L33.1133 9.78394Z" fill="white"/>
<path d="M42.4673 18.8532L43.8679 17.2043C44.8182 17.9772 45.8187 18.4925 47.0191 18.4925C47.9695 18.4925 48.5198 18.0803 48.5198 17.5135V17.4619C48.5198 16.8436 48.1196 16.5344 46.4189 16.1221C44.318 15.5553 42.9175 14.9885 42.9175 12.8758V12.8242C42.9175 10.9176 44.4181 9.62939 46.619 9.62939C48.1196 9.62939 49.4702 10.0932 50.5206 10.9692L49.3201 12.7727C48.4197 12.1028 47.4693 11.7421 46.569 11.7421C45.6686 11.7421 45.2184 12.1544 45.2184 12.6697V12.6181C45.2184 13.288 45.6686 13.5457 47.4693 14.0094C49.6202 14.5763 50.7707 15.3492 50.7707 17.1527V17.2043C50.7707 19.317 49.17 20.5022 46.9191 20.5022C45.3185 20.5022 43.7178 19.9354 42.4673 18.8532Z" fill="white"/>
<path d="M52.8716 9.78394H55.1725V20.3991H52.8716V9.78394Z" fill="white"/>
<path d="M57.3735 15.0913C57.3735 12.0511 59.6745 9.57764 62.8758 9.57764C64.7766 9.57764 65.877 10.0929 66.9775 11.072L65.5269 12.8755C64.7266 12.2057 64.0263 11.7934 62.7758 11.7934C61.0751 11.7934 59.7745 13.2878 59.7745 15.0913V15.1429C59.7745 17.101 61.0751 18.5438 62.9758 18.5438C63.8262 18.5438 64.5765 18.3377 65.1767 17.8739V16.3796H62.8258V14.3699H67.3776V18.9561C66.2772 19.8836 64.8266 20.6565 62.8758 20.6565C59.5744 20.502 57.3735 18.2346 57.3735 15.0913Z" fill="white"/>
<path d="M69.5786 9.78394H71.7295L76.6315 16.2767V9.78394H78.8824V20.3991H76.9316L71.8295 13.6487V20.3991H69.5786V9.78394Z" fill="white"/>
<path d="M81.433 9.78369H86.235C87.5856 9.78369 88.586 10.1959 89.2863 10.8658C89.8865 11.4842 90.1866 12.3087 90.1866 13.2877V13.3392C90.1866 15.0397 89.2863 16.1219 87.9357 16.6372L90.4868 20.3988H87.7856L85.5347 16.9979H85.4847H83.684V20.3988H81.333V9.78369H81.433ZM86.085 14.8851C87.2354 14.8851 87.8357 14.2668 87.8357 13.3908V13.3392C87.8357 12.3602 87.1854 11.8449 86.0349 11.8449H83.734V14.8851H86.085Z" fill="white"/>
<path d="M92.1372 15.8125V9.73195H94.4382V15.7094C94.4382 17.4614 95.2885 18.2859 96.6891 18.2859C98.0897 18.2859 98.94 17.4099 98.94 15.7094V9.68042H101.241V15.6579C101.241 18.8527 99.4402 20.4501 96.6391 20.4501C93.8379 20.4501 92.1372 18.9043 92.1372 15.8125Z" fill="white"/>
<path d="M102.892 18.853L104.292 17.204C105.243 17.977 106.243 18.4923 107.443 18.4923C108.394 18.4923 108.944 18.08 108.944 17.5132V17.4617C108.944 16.8433 108.544 16.5341 106.843 16.1219C104.742 15.5551 103.342 14.9882 103.342 12.8755V12.824C103.342 10.9174 104.842 9.62915 107.043 9.62915C108.544 9.62915 109.894 10.0929 110.945 10.9689L109.744 12.7725C108.844 12.1026 107.894 11.7419 106.993 11.7419C106.093 11.7419 105.643 12.1541 105.643 12.6694V12.6179C105.643 13.2878 106.093 13.5454 107.894 14.0092C110.045 14.576 111.195 15.349 111.195 17.1525V17.204C111.195 19.3168 109.594 20.5019 107.343 20.5019C105.793 20.5019 104.142 19.9351 102.892 18.853Z" fill="white"/>
<path d="M113.196 9.78369H115.497V14.0091H119.749V9.78369H122.05V20.3988H119.749V16.1734H115.497V20.3988H113.196V9.78369Z" fill="white"/>
<path d="M8.20356 18.7164L7.95346 18.3041L7.90344 18.2526L5.95264 15.47L7.90344 15.8822H7.95346L8.20356 15.9338L8.45366 15.8822L10.3544 15.4185L8.45366 18.3041V18.3557L8.20356 18.7164Z" fill="#747474"/>
<path d="M16.507 14.6455L14.006 15.0062L13.0556 15.1608C12.3053 15.2639 11.605 15.6761 11.1548 16.346L8.50374 20.2623L8.45372 20.3138L8.20361 20.6745L8.50374 20.3653L8.55376 20.3138L8.20361 20.6745L14.9564 15.7276L16.507 14.6455Z" fill="#747474"/>
<path d="M8.20336 20.6232C8.15334 20.5717 8.15334 20.6232 8.20336 20.6232L7.95326 20.4686L7.90324 20.4171L2.00082 16.0886C2.00082 16.0886 1.9508 16.0886 1.9508 16.0371L1.85076 15.934L1.80074 15.8825H1.7007L0 14.6458L3.35137 15.161C3.50144 15.161 3.55146 15.2126 3.70152 15.2641C3.75154 15.2641 3.85158 15.3156 3.85158 15.3156C4.00164 15.3672 4.05166 15.4187 4.1517 15.4702C4.25174 15.5218 4.30176 15.5733 4.4018 15.6248C4.45183 15.6763 4.55187 15.7279 4.55187 15.7794C4.60189 15.8309 4.65191 15.8309 4.70193 15.8825C4.80197 15.934 4.85199 15.9855 4.85199 16.0371C5.00205 16.1916 5.10209 16.3462 5.25215 16.4493L7.90324 20.314L7.95326 20.3656L8.20336 20.6232Z" fill="#747474"/>
<path d="M8.20315 26.6007L7.95304 26.1884L7.90302 26.1369L0.0498047 14.6458L1.7505 15.8825L2.05062 16.0886L7.95304 20.4171H8.00306L8.20315 20.5717C8.20315 20.5717 8.25317 20.5717 8.25317 20.6232L8.50327 20.4171L16.4565 14.6458L8.45325 26.1884L8.40323 26.24L8.20315 26.6007Z" fill="white"/>
<path d="M9.45377 6.4525C9.45377 8.71981 5.65221 9.90499 5.65221 12.3269C5.60219 12.8937 5.75225 13.4605 6.00235 13.9758C6.00235 13.9758 4.55176 12.533 4.55176 10.9871C4.55176 9.44122 5.95233 7.12238 5.95233 7.12238C5.95233 8.15298 6.3525 8.46216 6.75266 8.51369H6.80268C7.25287 8.51369 7.50297 8.15298 7.50297 7.63768C7.50297 7.12238 6.95274 6.60709 6.95274 5.57649C6.95274 4.59742 8.15323 3 8.15323 3C9.00358 4.0306 9.45377 5.21578 9.45377 6.4525Z" fill="white"/>
<path d="M8.40359 14.6973C7.2031 14.6973 6.30273 13.7182 6.30273 12.533V12.4815C6.30273 9.85349 9.85419 9.59584 9.85419 6.04028C9.95423 6.19487 10.9046 7.53465 10.9046 8.97748C10.9046 10.781 9.25394 11.2448 9.25394 12.1208C9.25394 12.4815 9.40401 12.7392 9.90421 12.7392C9.95423 12.7392 10.0043 12.7392 10.0543 12.6876C11.0047 12.2754 11.6549 11.3479 11.7049 10.2657C11.7049 10.3173 12.2052 14.6973 8.40359 14.6973Z" fill="white"/>
<path d="M9.95432 12.7907C10.0043 12.7907 10.0544 12.7907 10.1044 12.7391C9.60418 12.8937 7.75342 13.3575 7.75342 12.0177C7.75342 10.3688 10.5045 10.0081 10.5045 8.61676C10.5045 7.74075 10.3045 6.86474 9.85428 6.0918C9.95432 6.24639 10.9047 7.58616 10.9047 9.029C10.9047 10.8325 9.25403 11.2963 9.25403 12.1723C9.30405 12.533 9.50414 12.7907 9.95432 12.7907Z" fill="#747474"/>
<path d="M8.45363 7.43155C8.45363 8.71979 6.85297 8.61673 6.75293 8.5652H6.90299C7.35318 8.5652 7.60328 8.20449 7.60328 7.68919C7.60328 7.1739 7.05305 6.6586 7.05305 5.628C7.05305 4.64894 8.25354 3.05151 8.25354 3.05151C7.85338 3.7214 7.6533 4.44282 7.60328 5.16423C7.60328 6.34942 8.45363 6.45248 8.45363 7.43155Z" fill="#747474"/>
</g>
<defs>
<clipPath id="clip0_11_17930">
<rect width="122" height="30" fill="white"/>
</clipPath>
</defs>
</svg>
