<svg width="122" height="30" viewBox="0 0 122 30" fill="none" xmlns="http://www.w3.org/2000/svg">
<g opacity="0.6">
<path d="M8.74078 12.6153C8.74078 12.6153 7.73529 12.5147 7.73529 13.3996V17.3612H14.3313V18.5477C14.3313 18.5477 14.3515 19.1309 13.728 19.1309H7.73529V24.2791H14.9346C14.9346 24.2791 19.2985 23.6154 19.3387 19.1309V12.6153H8.74078ZM19.1376 6.30078H6.1466C1.44088 7.40683 1.34033 11.2679 1.34033 11.2679V24.2992H6.32759V12.4343C6.32759 11.4288 7.33309 11.2478 7.33309 11.2478H19.1175L19.1376 6.30078ZM36.2914 20.5587C35.9495 20.7799 35.6881 20.9609 35.5071 21.0615C34.8636 21.4637 34.2603 21.7653 33.6972 22.0066C32.8727 22.3485 32.1487 22.5094 31.4851 22.5094C29.2328 22.5094 27.3626 21.8256 25.8744 20.4381C24.3662 19.0505 23.6221 17.3009 23.6221 15.2095C23.6221 13.1784 24.2858 11.4288 25.6532 9.92057C27.0006 8.43243 28.6496 7.68836 30.5802 7.68836C31.3846 7.68836 32.2493 7.82914 33.1341 8.11067C34.3005 8.47265 35.2256 9.03573 35.9897 9.73958L34.7027 11.1674C34.1597 10.6244 33.4358 10.2423 32.6113 10.001C31.9879 9.82002 31.3041 9.71947 30.5399 9.71947C29.1926 9.71947 28.0463 10.2624 27.1213 11.3484C26.2163 12.4544 25.7538 13.7415 25.7538 15.2698C25.7538 16.778 26.2766 18.0249 27.3224 19.0103C28.3681 19.9956 29.6953 20.4984 31.3041 20.4984C31.9677 20.4984 32.6515 20.2772 33.3553 19.875C33.9385 19.4326 34.2402 19.2114 34.2402 19.2114V16.0742H29.8763L30.4997 14.1235H36.2914V20.5587ZM49.4232 16.7378C49.4232 18.2461 48.8802 19.5532 47.8144 20.6593C46.7485 21.7653 45.4213 22.3284 43.8326 22.3284C42.3646 22.3284 41.0977 21.7854 39.9916 20.6995C38.8856 19.6135 38.3426 18.3064 38.3426 16.7579C38.3426 15.2296 38.8654 13.9224 39.9112 12.7963C40.9569 11.6701 42.2439 11.1272 43.7321 11.1272C45.4012 11.1272 46.7485 11.6701 47.8144 12.736C48.8802 13.7817 49.4232 15.129 49.4232 16.7378ZM47.3921 16.778C47.3921 15.7524 47.0502 14.8877 46.3665 14.1839C45.6827 13.4599 44.8381 13.118 43.8125 13.118C42.8673 13.118 42.0629 13.48 41.3792 14.2241C40.7156 14.9481 40.3737 15.7927 40.3737 16.7378C40.3737 17.7232 40.7156 18.5678 41.3792 19.2717C42.0428 19.9755 42.8874 20.3375 43.8929 20.3375C44.8381 20.3375 45.6425 19.9956 46.3262 19.2918C47.0502 18.5678 47.3921 17.7232 47.3921 16.778ZM62.3941 16.7378C62.3941 18.2461 61.8511 19.5532 60.7853 20.6593C59.7194 21.7653 58.3922 22.3284 56.8035 22.3284C55.3355 22.3284 54.0686 21.7854 52.9625 20.6995C51.8565 19.6135 51.3135 18.3064 51.3135 16.7579C51.3135 15.2296 51.8363 13.9224 52.8821 12.7963C53.9278 11.6701 55.2148 11.1272 56.703 11.1272C58.3721 11.1272 59.7194 11.6701 60.7853 12.736C61.8511 13.7817 62.3941 15.129 62.3941 16.7378ZM60.3428 16.778C60.3428 15.7524 60.001 14.8877 59.3172 14.1839C58.6335 13.4599 57.7889 13.118 56.7633 13.118C55.8181 13.118 55.0137 13.48 54.33 14.2241C53.6664 14.9481 53.3245 15.7927 53.3245 16.7378C53.3245 17.7232 53.6664 18.5678 54.33 19.2717C54.9936 19.9755 55.8382 20.3375 56.8437 20.3375C57.7889 20.3375 58.5933 19.9956 59.277 19.2918C60.001 18.5678 60.3428 17.7232 60.3428 16.778ZM74.3796 22.0267L72.5094 22.3083V20.4984L72.1072 20.9609C71.7452 21.3028 71.343 21.5642 70.9207 21.7854C70.2772 22.0871 69.5934 22.2278 68.8896 22.2278C67.4215 22.2278 66.1747 21.6849 65.1692 20.619C64.1637 19.5532 63.6409 18.2461 63.6409 16.7579C63.6409 15.2095 64.1436 13.8822 65.1491 12.7963C66.1546 11.6902 67.3612 11.1473 68.8292 11.1473C69.6739 11.1473 70.3978 11.288 71.0011 11.5495C71.4435 11.7506 71.8055 12.012 72.1273 12.3338C72.2278 12.4745 72.3284 12.6153 72.449 12.7561V7.99001L74.4399 7.70848L74.3796 22.0267ZM72.63 16.8786C72.63 15.8128 72.268 14.9078 71.5441 14.1839C70.8201 13.4398 69.9956 13.0778 69.0505 13.0778C68.0047 13.0778 67.1802 13.4197 66.5367 14.1235C65.9334 14.7872 65.6318 15.6117 65.6318 16.577C65.6318 17.6629 65.9535 18.5678 66.5769 19.2717C67.2003 19.9755 67.9846 20.3174 68.97 20.3174C69.9152 20.3174 70.7598 19.9956 71.5039 19.332C72.2479 18.6684 72.63 17.8439 72.63 16.8786ZM84.9172 9.96079H79.3266V13.7616H83.6704V15.7122H79.3266V22.0066L77.1547 22.3284V7.99001H84.4949L84.9172 9.96079ZM89.4017 8.85474L88.0543 10.544L86.7673 8.85474L88.1147 7.18562L89.4017 8.85474ZM88.9995 22.0267L87.0086 22.3083V11.6902L88.9995 11.3886V22.0267ZM98.0087 11.2679L97.0636 13.4398C96.9429 13.4197 96.8223 13.4197 96.6815 13.4197C96.4804 13.4197 96.2994 13.4398 96.0983 13.4599C95.8972 13.48 95.6961 13.5605 95.4749 13.6811C95.0526 13.8621 94.6906 14.2643 94.389 14.8475C94.0471 15.5312 93.8661 16.2753 93.8661 17.0395V22.0066L91.8752 22.3284V11.6902L93.7253 11.3484V13.5605C93.9666 13.1784 94.208 12.7963 94.4493 12.3941C94.7912 11.9919 95.1934 11.7103 95.6358 11.5294C95.8771 11.4288 96.2994 11.3685 96.963 11.3082C97.6065 11.2679 97.9685 11.2478 98.0087 11.2679ZM112.89 22.0267L110.899 22.3083V15.0285C110.899 14.3649 110.758 13.8621 110.457 13.5605C110.155 13.2588 109.713 13.0979 109.13 13.0979C108.426 13.0979 107.903 13.3795 107.541 13.9627C107.3 14.3649 107.159 14.7872 107.159 15.2095V21.9865L105.168 22.3485V15.0486C105.168 14.4051 105.027 13.9224 104.725 13.5806C104.424 13.2387 104.042 13.0778 103.539 13.0778H103.338C102.634 13.0778 102.131 13.3594 101.81 13.9627C101.568 14.4051 101.448 14.9682 101.448 15.6519V21.9664L99.3762 22.3284V11.65L101.246 11.3283V12.6957C101.448 12.374 101.669 12.1125 101.85 11.9316C102.393 11.4288 103.016 11.1875 103.72 11.1875C104.504 11.1875 105.087 11.3082 105.49 11.5696C105.831 11.7908 106.153 12.2131 106.495 12.8164C107.179 11.7305 108.144 11.1875 109.431 11.1875C110.658 11.1875 111.563 11.5696 112.166 12.3539C112.649 12.9974 112.89 13.9426 112.89 15.1693V22.0267ZM122 18.8092C122 19.7945 121.658 20.5989 120.974 21.2223C120.291 21.8659 119.426 22.1675 118.38 22.1675C117.596 22.1675 116.892 21.9865 116.248 21.6245C115.605 21.2626 115.122 20.8403 114.821 20.3576L116.228 19.1108C116.329 19.2717 116.429 19.3923 116.51 19.4728C117.033 20.0157 117.656 20.2772 118.38 20.2772C118.883 20.2772 119.285 20.1364 119.567 19.875C119.868 19.6135 120.009 19.2516 120.009 18.7689C120.009 18.226 119.667 17.864 118.983 17.6629C117.636 17.2607 116.892 17.0194 116.791 16.9791C116.168 16.6574 115.726 16.3155 115.444 15.9334C115.122 15.491 114.961 14.9078 114.961 14.1638C114.961 13.2387 115.303 12.4946 115.967 11.8712C116.631 11.2679 117.435 10.9663 118.36 10.9663C119.064 10.9663 119.707 11.1272 120.311 11.4489C120.914 11.7707 121.336 12.1125 121.598 12.4946L120.411 13.7817C120.23 13.6007 120.029 13.4398 119.828 13.299C119.345 12.9572 118.883 12.7963 118.461 12.7963C118.038 12.7963 117.696 12.8968 117.435 13.0778C117.113 13.299 116.952 13.6409 116.952 14.0833C116.952 14.5056 117.093 14.8274 117.415 15.0285C117.676 15.1894 118.239 15.3704 119.144 15.5715C120.029 15.7927 120.733 16.1546 121.216 16.6775C121.779 17.2406 122 17.9243 122 18.8092Z" fill="white"/>
</g>
</svg>
