<svg width="92" height="30" viewBox="0 0 92 30" fill="none" xmlns="http://www.w3.org/2000/svg">
<g opacity="0.6">
<path d="M59.769 7.34651C55.7501 7.36561 52.4762 10.6354 52.4947 14.7067C52.5131 18.7779 55.8197 22.017 59.8386 21.9987C63.8575 21.9804 67.1322 18.7098 67.1129 14.6402C67.0936 10.5706 63.7879 7.32907 59.7673 7.34817L59.769 7.34651ZM59.8244 19.013C58.685 19.0196 57.59 18.5769 56.7804 17.7838C55.9707 16.9906 55.5219 15.9101 55.5093 14.7822C55.4967 13.6544 55.9498 12.5705 56.751 11.7691C57.5523 10.9676 58.6439 10.5233 59.7832 10.5108C60.9226 10.4984 62.0176 10.9469 62.8272 11.74C63.6369 12.5332 64.0857 13.6137 64.0983 14.7415C64.1101 17.0047 62.1099 19.0013 59.8244 19.013ZM76.051 10.7974C73.9493 10.8073 72.3124 12.5332 72.3224 14.6136L72.356 21.5776L69.1576 21.5926L69.093 7.75347L72.2914 7.73852L72.3023 9.90869C72.3023 9.90869 73.6615 7.73271 76.4034 7.72025L77.318 7.71527L77.3331 10.7899L76.051 10.7974ZM44.1464 7.87141L46.5678 17.3577L49.0815 7.84815L52.2799 7.83403L48.3231 21.6997L45.217 21.7138L42.705 12.0481L40.2835 21.7363L37.1766 21.7504L33 7.93037L36.1061 7.91625L38.8916 17.4009L41.1318 7.893L44.1464 7.87141ZM86.6638 14.0057C88.8495 12.73 90.3933 10.3705 90.3807 7.65713L87.1823 7.67208C87.1941 10.0241 85.2828 11.9327 82.999 11.941L82.5417 11.9427L82.4914 0.998779L79.293 1.01373L79.3912 21.5444L82.5878 21.5303L82.5576 15.0189L82.9226 15.0173C83.2884 15.0156 83.6551 15.195 83.7482 15.4658L88.2538 21.5037L92 21.4871L86.6638 14.0057Z" fill="white"/>
<path d="M25.7435 6.94836C22.3142 6.96505 19.7064 9.25028 18.7308 12.8914C17.0936 10.3532 15.8162 7.45015 15.0835 4.99878L11.4735 5.01548L11.5183 14.6532C11.5222 15.5695 11.1648 16.4499 10.5246 17.1009C9.88431 17.7519 9.01363 18.1202 8.10391 18.1248C7.19417 18.1288 6.32009 17.7688 5.67378 17.1239C5.02747 16.479 4.66183 15.602 4.65723 14.6857L4.61164 5.04804L1 5.06474L1.04476 14.7024C1.06383 18.7018 4.23613 21.8712 8.11883 21.852C12.0015 21.8328 15.1465 18.6358 15.1282 14.6356L15.1199 12.9991C15.8477 14.4494 16.7579 15.9907 17.7584 17.3508L15.551 27.9988L19.2513 27.9821L20.8429 20.2456C22.291 21.149 23.9099 21.6858 25.8131 21.6766C29.7853 21.6574 33.0206 18.3703 32.9999 14.1873C32.9848 12.26 32.2134 10.417 30.854 9.06063C29.4946 7.70424 27.6577 6.94459 25.7443 6.94752L25.7435 6.94836ZM25.7949 17.9503C24.3509 17.957 22.9044 17.3275 21.7265 16.3322L22.0804 14.8769V14.7934C22.3457 13.2454 23.1431 10.6054 25.8521 10.5937C26.8072 10.5921 27.7243 10.9705 28.4039 11.6467C29.0834 12.3228 29.4702 13.2419 29.4803 14.204C29.399 16.2955 27.6923 17.9403 25.7957 17.9495L25.7949 17.9503Z" fill="white"/>
</g>
</svg>
