<svg width="320" height="302" viewBox="0 0 320 302" fill="none" xmlns="http://www.w3.org/2000/svg">
<g clip-path="url(#clip0_11_56547)">
<path d="M27.2993 183.768L28.5317 183.804L28.6832 182.295L30.5632 182.086L30.9862 180.545L34.0935 178.671L38.7726 181.475L39.1173 178.362L40.2819 178.394L39.9372 176.785L40.8146 175.328L43.5928 176.169L43.7652 175.469L47.0918 178.404L47.3111 179.59L50.8832 175.95L51.0189 174.122L54.3664 173.093L55.4474 168.748L54.2829 168.169L55.8287 167.056L55.8966 165.495L59.4007 164.288L59.0038 163.082L60.299 162.701L58.9777 162.074L59.6148 161.265L61.0092 161.306L61.1972 162.419L64.2627 163.578L65.6675 163.296L65.1661 166.033L66.8999 165.923L68.7225 168.539L71.7776 165.704L72.1014 163.646L73.4383 162.273L77.4751 162.314L80.0131 164.048L81.162 166.252L80.3839 168.691L84.473 169.344L85.4652 171.725L90.7397 174.535L93.8313 174.508L93.9723 173.448L95.351 172.994L98.4374 173.406L98.7925 170.231L101.414 169.375L106.851 170.404L109.644 172.566V172.983L110.396 174.9L108.24 176.582L109.378 181.757L115.614 181.214L114.679 184.734L115.838 185.36L115.734 189.768L117.431 192.52L113.253 194.092L111.289 192.645L110.976 193.737L109.31 194.458L110.433 198.082L108.475 199.226L108.328 201.612L109.169 202.698L107.556 202.845L108.255 203.701L105.634 203.905L105.519 206.793L103.644 206.02L103.137 207.284L104.568 207.853L104.151 209.231L102.375 209.827L102.981 213.08L100.986 212.569L100.009 213.738L101.221 215.054L98.9962 216.642L100.15 217.827L99.4192 218.271L99.7273 221.373L95.7479 221.974L93.9253 225.222L93.518 228.998L90.3533 228.215L90.2071 228.314L89.0686 229.985L87.4288 231.98L89.0425 232.894L90.2488 236.575L92.0296 237.228L92.8182 240.852L91.8939 241.495L91.1784 240.08L90.4943 241.192L88.7135 241.155L88.1913 242.315L86.9954 241.965L85.037 245.02L82.0551 247.318L78.5927 245.124L77.8354 241.255L73.9239 236.299L72.2424 235.907L71.5373 233.395L69.7409 233.223L68.9366 234.011L66.2733 230.763L69.9863 227.04L71.5112 227.295L72.7855 225.958L72.9056 223.932L74.1746 223.426L70.9263 219.248L67.4744 218.788L66.9678 220.642L65.9652 220.982L63.2757 219.206L60.7899 222.433L59.5835 221.697L60.7063 220.862L59.6984 218.146L55.5884 218.637L54.1262 214.584L50.6325 215.498L47.4051 213.524L44.8462 213.462L42.1201 211.937L40.0573 213.477L39.838 210.537L36.9762 207.816L36.8874 203.315L35.7437 202.322L33.6026 202.959L33.5295 201.257L32.2657 202.766L30.0932 201.111L27.67 201.711L27.1321 202.745L28.8398 203.92L27.8058 206.15L28.1975 208.976L22.5156 208.767L26.9859 199.654L29.3882 189.836L29.2315 187.381L27.2993 183.768Z" fill="white" fill-opacity="0.1"/>
<path d="M104.38 72.8562L105.336 67.8585L108.187 65.7435L108.631 67.6444L110.213 67.9995L111.284 67.0229L113.321 68.4016L112.84 66.8663L114.887 66.767L114.36 65.2108L115.577 62.0931L117.911 62.3229L120.261 60.986L119.243 58.2965L122.011 58.568L123.88 60.3436L126.095 57.1685L127.322 58.4688L128.591 58.0249L129.155 59.2887L130.163 58.6255V59.1947L132.34 59.2678L132.21 61.55L138.461 62.349L138.837 61.4821L140.268 61.3829L140.137 62.6675L141.391 64.0306L142.388 63.8008L142.127 62.8294L143.788 63.0331L144.597 61.8737L147.062 62.4743L148.279 61.6283L147.328 64.6729L148.289 66.6783L152.655 67.2475L152.566 68.198L155.428 67.1953L160.243 67.822L162.029 68.621L162.175 71.6499L164.364 77.3318L165.356 78.0472L165.789 76.9505L168.035 76.7469L170.04 78.4493L169.957 79.3998L172.009 78.9977L172.756 80.9351L177.524 80.533L178.934 84.5333L177.487 85.254L177.639 86.5126L179.289 86.899L179.336 88.1524H179.169L179.942 90.8732L177.738 92.5025L177.503 92.4242L176.923 93.3068L175.936 93.0248L176.495 96.9206L177.68 97.8084L176.84 99.5944L177.367 101.26L173.372 99.443L174.077 101.031L172.526 102.3L169.852 101.783L172.009 106.242L170.709 106.133L169.189 108.666L171.743 111.099L171.502 112.154L172.343 112.117L171.57 113.037L172.411 114.431L169.722 113.496L170.024 116.154L168.891 116.243L167.398 118.645L169.074 119.972L167.257 121.627L166.834 121.633L166.813 123.81L165.925 123.685L168.228 124.599L165.774 127.915L164.129 127.925L164.917 128.824L165.1 129.121L164.912 130.526L162.363 132.213L162.692 133.383L162.05 132.495L157.146 133.889L154.687 132.667L154.885 131.67L153.177 130.385L152.874 132.14L147.84 133.874L146.602 130.521L145.459 130.406L145.574 128.923L144.733 129.252L144.472 127.774L142.681 126.86L141.641 127.147L140.456 125.272L139.401 124.985L138.56 126.447L136.147 126.771L135.5 122.98L132.095 126.171L130.293 126.071L130.037 124.933L126.732 124.165L126.831 122.411L123.4 122.902L123.65 121.089L122.961 121.659L121.932 120.118L121.311 120.646L119.823 117.711L118.621 117.998L117.17 116.87L116.449 118.081L116.235 116.88L113.54 119.815L113.629 117.329L111.989 117.105L112.036 114.165L110.349 114.389L108.574 116.086L106.913 115.637L107.414 113.172L104.777 111.71L104.949 110.185L107.968 110.018L108.438 102.676L104.532 99.7668L102.02 100.242L101.55 99.1035L102.323 97.9755L102.479 97.9442L102.249 94.8526L103.477 94.1006L103.137 92.0325L104.385 91.4058L102.704 90.7217L103.038 88.2725L102.182 87.4996L105.059 86.8416L105.832 84.7056L102.678 80.4912L100.855 79.8802L100.385 80.6323L99.7637 78.8253L104.38 72.8562Z" fill="white" fill-opacity="0.1"/>
<path d="M164.913 130.526L166.971 132.991L170.444 132.563L171.943 133.356L171.823 134.302L175.64 135.827L176.972 137.639L178.303 136.599L179.797 137.289L181.724 136.218L183.171 136.464L184.507 134.808L186.664 136.171L186.962 137.487L188.623 136.85L190.325 138.579L190.069 141.096L191.249 143.101L193.129 143.18L193.981 144.647L196.388 145.352L195.991 147.812L194.2 149.237L195.944 150.136L196.602 151.619L196.759 152.501L195.234 153.995L197.464 153.953L197.709 155.217L201.266 153.713L203.104 154.93L203.673 156.455L205.606 156.554L207.287 160.371L205.297 160.544L206.055 160.909L206.117 164.121L208.52 165.286L208.525 166.758L207.318 168.784L204.091 168.095L202.404 166.602L199.992 168.576L201.355 173.014L202.472 173.834L201.913 176.56L204.525 176.096L204.801 177.234L203.517 180.394L201.422 182.571L201.203 184.42L200.754 185.992L199.386 186.498L200.059 188.582L199.344 190.248L198.101 189.198L197.203 190.05L195.803 189.136L195.234 189.313L195.95 191.402L195.198 191.919L193.265 191.736L192.435 192.635L189.239 191.36L187.74 192.008L188.424 193.606L187.108 194.818L187.16 197.998L189.599 198.76L188.664 203.581L186.471 202.447L183.729 199.241L182.215 202.933L182.674 205.2V205.706L182.231 206.437L182.184 206.432L181.646 206.996L181.4 207.179L180.857 207.241L180.899 207.367L179.625 209.121L177.238 209.691L177.045 208.124L174.507 206.813L171.593 207.847L171.018 205.121L168.898 202.03L168.224 201.591L166.971 202.588L165.702 201.037L165.974 199.878L163.942 200.546L164.156 201.972L162.751 202.829L160.856 201.293L159.952 201.695L158.876 200.003L157.822 200.306L154.077 197.084L153.043 197.256L151.905 199.199L151.09 198.379L145.001 199.465L142.39 197.977L141.267 195.126L140.358 195.246L139.397 197.612L138.619 196.16L133.533 195.413L128.89 193.361L129.658 188.436L127.423 188.734L126.451 184.164L127.893 183.898L128.457 182.446L130.248 182.248L130.65 180.723L129.898 179.694L131.36 179.281L134.185 180.932L135.935 178.054L135.172 175.088L135.825 171.944L134.906 171.589L135.966 169.004L135.073 168.617L136.917 166.267L136.692 164.178L137.543 163.306L136.938 161.98L137.925 161.306L137.773 160.183L138.771 160.424L138.87 158.826L139.831 158.507L140.228 159.672L142.75 159.061L145.727 160.178L146.019 158.1L148.985 154.595L146.865 152.637L146.437 147.639L147.44 147.023L150.15 147.947L150.604 146.537L153.356 146.47L153.884 144.438L152.751 143.394L153.383 140.406L155.451 139.581L158.5 140.433L157.947 139.325L159.007 138.61L158.856 137.336L156.631 137.049L157.148 133.889L162.052 132.495L162.694 133.382L162.365 132.213L164.913 130.526Z" fill="white" fill-opacity="0.1"/>
<path d="M287.416 136.354L288.91 136.443L289.672 136.855L289.725 139.414L295.746 140.746L296.702 142.198L299.14 141.848L298.707 143.232L300.65 145.425L302.242 145.065L303.95 146.976L303.637 148.136L305.104 151.577L303.13 153.776L303.731 154.596L302.676 155.436L303.506 156.684L303.256 157.734L302.493 157.515L302.347 159.353L303.569 161.426L300.002 165.082L300.989 166.643L300.315 169.443L301.198 175.046L302.603 175.344L302.963 176.963L304.331 177.37L303.914 179.563L305.6 180.921L305.036 183.511L303.527 185.324L303.814 187.418H305.444L306.802 191.376L310.974 194.572L310.572 197.162L312.228 198.468L313.037 201.46L312.348 201.675L313.732 202.703L314.175 204.667L316.818 207.659L319.779 208.829L318.505 210.291L315.236 210.208L313.914 211.576L314.108 213.534L315.867 214.015L315.685 216.125L317.413 216.302L317.147 218.375L318.202 220.522L318.014 224.24L316.181 230.079L315.016 231.776L306.405 232.951L305.042 235.781L300.488 239.886L299.37 239.265L299.699 237.557L296.112 237.134L296.999 234.904H296.77L295.224 233.854L295.511 232.021L294.602 231.739L291.171 234.377L288.983 232.491L283.771 237.912L270.7 236.873L270.715 235.896L273.17 234.538L267.425 235.123L265.258 232.345L264.094 232.544L264.428 231.186L265.937 230.606L265.504 229.253L268.679 229.687L270.037 228.402L268.026 228.162L269.614 227.624L269.415 226.898L267.942 226.961L268.219 223.504L266.459 222.741L264.924 223.253L262.71 221.31L259.837 221.06L258.292 218.877L256.067 218.778L258.229 214.297L257.038 212.119L253.691 211.132L251.962 212.902L248.463 213.477L247.105 211.806L246.275 210.276L245.147 198.823L244.708 195.94L245.554 194.322L244.573 192.285L246.218 187.501L244.75 187.324L245.69 186.895L246.583 184.237L245.951 182.879L245.126 183.177L243.643 181.892L245.001 180.529L246.171 181.057L247.231 178.117L245.518 173.532L242.113 173.594L239.068 170.8L240.055 168.664L243.314 171.119L243.674 169.636L246.369 169.349L246.359 167.98L248.286 166.837L248.442 165.75L246.51 163.849L250.087 161.447L249.064 159.343L246.996 159.948L246.568 158.951L248.463 156.831L247.445 154.094L247.873 152.031L252.657 149.248L255.435 150.35L256.234 149.055L259.832 149.927L261.31 148.465L262.375 150.235L264.773 149.869L267.19 147.336L271.165 150.355L272.648 147.921L271.979 146.506L273.781 144.783L276.878 147.096L278.121 146.412L280.241 147.269L280.471 145.127L282.246 145.112L281.426 143.582L283.009 141.801L285.829 141.999L284.45 139.775L287.416 136.354Z" fill="white" fill-opacity="0.1"/>
<path d="M15.4074 119.606L15.3708 117.731L16.4623 116.807L18.922 118.144L20.1074 117.397L21.8047 111.376L23.8832 109.705L23.4706 108.133L25.5021 107.501L24.4315 106.503L25.4916 105.067L28.249 107.349L29.5859 106.409L30.74 107.731L38.5474 104.399L37.4194 101.015L39.7955 101.542L41.5345 99.5629L45.8064 98.0902L48.7831 99.7509L50.1565 98.5915L51.4151 99.2286L52.611 98.5602L52.0992 97.4739L53.7965 96.7898L52.9191 95.667L54.2299 95.4007L53.9532 94.3771L55.5668 93.6617L55.3475 92.4292L59.588 93.4423L58.8047 96.7533L58.4913 98.9257V99.1033L58.7368 100.712L58.8256 100.774L59.2381 106.383L57.0082 107.459L56.58 108.749L57.9378 109.339L58.272 113.094L53.7443 114.149L54.35 115.924L53.175 119.449L55.4049 122.656L54.6582 123.951L56.3345 125.622L56.8724 127.894L55.2535 128.933L54.5276 127.518L54.1203 128.432L57.0186 130.928L55.4728 137.633L56.2719 143.66L55.3057 145.441L57.5356 147.78L58.2041 146.887L59.3791 147.43L59.6559 148.616L58.7002 149.953L60.6064 152.48L63.9539 151.514L64.4134 155.003L63.2593 156.632L65.1811 156.737L66.4292 157.865L67.8654 156.032L69.432 156.449L72.2834 158.852L73.4375 162.272L72.1006 163.646L71.7769 165.703L68.7218 168.539L66.8992 165.923L65.1654 166.032L65.6668 163.296L64.262 163.578L61.1965 162.418L61.0085 161.306L59.6141 161.264L58.977 162.074L60.2982 162.7L59.0031 163.082L59.4 164.288L55.8958 165.494L55.828 167.056L54.2822 168.168L55.4467 168.748L54.3657 173.093L51.0182 174.122L50.8824 175.949L47.3104 179.589L47.091 178.404L43.7644 175.469L43.5921 176.169L40.8138 175.328L39.9365 176.785L40.2812 178.393L39.1166 178.362L38.7719 181.475L34.0927 178.67L30.9855 180.545L30.5625 182.086L28.6824 182.295L28.531 183.804L27.2985 183.767L26.5883 178.373L19.5278 175.255L18.9429 173.652L20.6453 171.354L20.4051 168.649L17.5903 165.28L16.8592 161.698L15.1097 160.382L15.7155 158.611L18.4102 156.235L19.0264 151.008L20.4521 147.822L17.9872 145.133L19.0107 138.897L15.141 136.949L13.2871 130.651L13.7623 128.651L16.5093 125.445L15.5118 123.418L16.598 121.408L15.4074 119.606Z" fill="white" fill-opacity="0.1"/>
<path d="M185.948 227.123L187.16 226.397L196.236 228.898L196.252 230.669L198.383 234.053L196.983 234.674L197.077 236.006L199.286 237.609L198.466 238.664L200.268 240.372L199.552 241.709L200.701 241.845L200.847 242.711L209.151 241.73L212.718 237.87L214.19 238.675L216.034 237.024L221.282 236.492L223.711 234.591L225.053 235.818L226.087 234.58L226.4 236.596L224.076 239.317L225.058 241.604L224.285 245.014L225.309 245.302L224.384 245.516L225.716 245.866L226.024 247.297L224.98 247.542L225.622 248.341L224.416 249.239L225.726 250.618L224.374 252.801L225.392 255.616L228.4 255.84L228.917 256.895L228.5 257.71L226.902 257.621L226.813 259.261L223.878 259.877L224.849 261.099L224.452 262.984L227.298 263.058L227.878 264.076L229.45 264.295L230.75 267.058L231.132 269.648L229.774 272.385L231.309 273.361L230.865 274.599L232.803 277.058L231.847 277.513L232.082 280.072L228.218 278.745L226.118 281.597L223.444 279.993L221.136 280.693L222.781 282.913L220.802 283.435L219.167 286.171L217.225 286.699L216.399 285.268L215.444 285.602L215.136 284.276L214.264 284.928L213.01 284.459L213.402 283.764L211.799 283.137L211.182 280.913L208.242 281.649L207.24 280.813L205.913 282.85L202.586 280.939L201.302 280.86L201.349 281.863L200.879 281.351L200.064 282.14L199.474 281.309L198.268 281.513L197.631 284.417L194.654 284.035L192.716 286.359L192.299 285.811L190.262 292.438L185.828 289.738L184.486 289.958L183.536 291.582L180.856 291.472L180.172 289.717L181.964 287.644L181.086 286.553L180.94 281.236L178.616 282.364L175.822 281.299L176.167 278.897L174.329 279.017L172.584 273.293L170.924 272.447L170.652 271.319L171.086 268.557L167.973 267.288L170.381 265.021L170.031 263.34L166.234 262.729L165.2 258.697L161.341 259.015L162.495 254.947L161.905 254.441L160.74 255.182H160.401L159.837 255.203H159.445L158.322 254.639L159.309 254.012L159.189 252.284L161.001 249.234L163.028 248.905L162.406 248.451L163.623 245.693H163.795L163.941 246.68L164.495 245.218L166.641 244.915L167.44 243.782L166.751 242.941L169.065 242.053L169.42 240.941L166.182 239.322L165.623 237.735L167.404 236.335L171.373 236.131L171.603 234.565L170.313 233.588L170.48 233.536L171.791 233.839L171.529 232.471L172.616 231.436L174.631 232.006L176.71 231.624L178.35 230.115L182.82 230.392L184.303 229.666L184.345 228.679L186.638 228.606L185.948 227.123Z" fill="white" fill-opacity="0.1"/>
<path d="M179.942 90.8729L182.642 91.2803L182.297 89.1966L184.966 87.6194L185.112 87.9067L184.825 89.7084L187.003 91.1549L190.784 90.1314L192.047 91.2959L193.191 90.7372L197.64 91.6667L199.907 90.3246L199.562 87.8753L202.09 85.917L205.192 87.0241L208.492 85.6245L210.456 82.3763L214.67 83.4312L215.36 81.8384L217.02 81.9585L216.503 80.5014L217.349 79.8225L219.339 79.6398L221.13 81.1647L228.17 76.005L230.959 76.5482L233.638 75.441L233.794 74.1981L238.489 73.3887L238.667 74.172H238.427L239.784 76.2557L239.356 77.2218L241.194 79.4257L240.207 81.3266L241.45 81.1281L242.866 82.3815L240.693 82.3449L240.714 82.1308L239.894 83.7967L240.395 85.0292L239.32 84.836L241.341 87.5411L240.75 87.9067L241.905 90.2201L241.596 91.6772L242.803 93.129L245.158 92.8417L247.054 95.6983L249.372 95.1396L248.803 95.9699L249.367 96.8629L248.025 96.4921L247.461 98.3826L251.242 100.853H250.971L252.166 102.043L251.059 103.161L252.506 106.488L258.099 106.075L258.235 104.581L259.817 104.649L260.078 106.535L261.07 106.32L260.621 107.281L259.133 107.313L260.292 110.394L261.446 110.284L261.875 111.423L263.588 110.295L263.52 109.449L265.765 109.872L266.058 116.927L263.817 119.272L265.87 120.703L268.074 124.035L267.583 126.108L268.909 127.058L268.554 129.184L269.745 130.756L273.776 130.797L274.502 132.207L275.233 131.226L278.341 132.552L281.578 131.936L283.03 133.91L284.633 134.26L284.905 136.343L286.754 135.492L287.417 136.354L284.451 139.775L285.829 141.999L283.009 141.801L281.427 143.582L282.247 145.112L280.471 145.127L280.242 147.269L278.121 146.412L276.878 147.096L273.782 144.783L271.98 146.506L272.648 147.921L271.165 150.355L267.191 147.336L264.773 149.869L262.376 150.235L261.311 148.464L259.833 149.927L256.235 149.055L255.436 150.35L252.657 149.248L247.874 152.031L247.445 154.094L248.464 156.831L246.568 158.951L246.996 159.948L249.064 159.342L250.088 161.447L246.511 163.849L248.443 165.75L248.286 166.837L246.359 167.98L246.37 169.348L243.675 169.636L243.315 171.119L240.056 168.664L239.069 170.8L242.113 173.594L245.518 173.531L247.231 178.117L246.171 181.057L245.001 180.529L243.644 181.892L245.127 183.177L245.952 182.879L246.584 184.237L245.691 186.895L244.751 187.324L246.218 187.501L244.573 192.285L245.555 194.321L244.709 195.94L245.148 198.823L243.482 200.306L242.009 200.181L240.965 198.343L238.938 198.426L239.528 198.99L236.776 199.81L235.685 199.319L235.842 200.338L234.202 201.586L231.627 200.165L230.635 197.909L224.285 198.139L224.634 195.69L222.311 194.415L223.224 192.765L222.06 191.371L221.287 194.254L219.365 194.891L218.942 193.81L217.751 194.922L216.101 193.611L215.981 195.423L214.931 195.016L214.895 195.841L210.456 193.512L209.443 194.65L209.814 192.337L206.863 189.783L205.197 190.295L204.722 187.344L203.354 186.373L204.038 184.859L201.202 184.42L201.421 182.571L203.515 180.394L204.8 177.234L204.523 176.096L201.912 176.56L202.471 173.834L201.353 173.014L199.99 168.576L202.403 166.601L204.09 168.095L207.317 168.784L208.524 166.758L208.518 165.285L206.116 164.121L206.054 160.909L205.296 160.544L207.286 160.371L205.604 156.554L203.672 156.455L203.103 154.93L201.265 153.713L197.708 155.217L197.463 153.953L195.233 153.995L196.758 152.501L196.601 151.619L195.943 150.136L194.199 149.237L195.99 147.812L196.387 145.352L193.98 144.647L193.128 143.179L191.248 143.101L190.068 141.096L190.324 138.579L188.621 136.85L186.961 137.487L186.663 136.171L184.506 134.808L183.169 136.464L181.723 136.218L179.796 137.289L178.302 136.599L176.971 137.639L175.639 135.826L171.821 134.302L171.941 133.356L170.443 132.563L166.97 132.991L164.912 130.526L165.1 129.121L164.917 128.823L164.129 127.925L165.774 127.915L168.228 124.599L165.925 123.685L166.813 123.81L166.834 121.632L167.257 121.627L169.074 119.972L167.398 118.645L168.892 116.243L170.025 116.154L169.722 113.496L172.411 114.431L171.571 113.036L172.344 112.117L171.503 112.154L171.743 111.099L169.189 108.665L170.709 106.132L172.009 106.242L169.853 101.782L172.526 102.299L174.077 101.03L173.372 99.4427L177.367 101.26L176.84 99.5942L177.681 97.8081L176.495 96.9204L175.937 93.0245L176.924 93.3065L177.503 92.424L177.738 92.5023L179.942 90.8729Z" fill="#FED500"/>
<path d="M117.433 192.52L119.052 193.335L118.085 196.144L120.159 196.933L128.89 193.361L133.533 195.413L138.619 196.16L139.398 197.612L140.359 195.246L141.267 195.126L142.39 197.977L145.001 199.466L145.957 201.189L144.688 201.837L144.724 203.362L143.508 204.228L144.427 206.182L143.732 209.043L142.024 210.396L141.638 211.999L140.082 212.386L142.333 215.096L139.387 217.289L140.808 221.201L142.954 222.13L143.111 224.888L137.659 225.133L139.147 229.389L135.893 228.157L136.165 230.366L135.403 231.426L136.353 232.925L135.199 234.533L136.729 236.168L136.343 238.581L137.246 238.722L137.397 239.938L135.037 239.427L131.319 241.578L131.538 242.508L131.736 242.492L127.653 243.197L127.308 243.928L127.016 243.213L125.762 243.521L126.107 246.774L124.864 248.989L123.913 250.331L125.188 250.441L125.214 251.986L123.919 251.323L119.61 253.584L118.289 251.694L116.639 251.224L114.79 246.978L112.612 246.717L110.79 244.336L116.064 241.986L116.268 240.513L115.004 239.468L115.876 237.364L114.78 236.299L113.803 235.954L113.834 237.296L111.464 239.019L107.688 238.575L105.923 239.73L104.205 238.179L103.129 239.098L103.061 235.928L100.946 236.361L98.3033 234.121L98.3869 233.05L96.4651 233.291L95.3997 232.095L91.0809 231.431L89.0703 229.985L90.2088 228.314L90.355 228.214L93.5197 228.998L93.927 225.222L95.7496 221.974L99.729 221.373L99.4209 218.271L100.152 217.827L98.9979 216.642L101.223 215.054L100.011 213.738L100.988 212.568L102.983 213.08L102.377 209.827L104.152 209.231L104.57 207.853L103.139 207.283L103.646 206.02L105.521 206.793L105.635 203.905L108.257 203.701L107.557 202.844L109.171 202.698L108.33 201.612L108.476 199.225L110.435 198.082L109.312 194.457L110.978 193.737L111.291 192.645L113.255 194.092L117.433 192.52Z" fill="white" fill-opacity="0.1"/>
<path d="M247.106 211.806L248.464 213.477L251.962 212.902L253.691 211.132L257.039 212.119L258.229 214.297L256.067 218.777L258.292 218.877L259.838 221.059L262.71 221.31L264.924 223.253L266.46 222.741L268.219 223.503L267.943 226.961L269.415 226.898L269.614 227.624L268.026 228.162L270.037 228.402L268.679 229.687L265.504 229.253L265.937 230.606L264.428 231.185L264.094 232.543L265.258 232.345L267.426 235.123L273.17 234.538L270.716 235.896L270.7 236.873L283.771 237.912L288.983 232.491L291.172 234.376L294.603 231.739L295.511 232.021L295.224 233.854L296.77 234.904H297L296.112 237.134L299.7 237.557L299.37 239.264L300.488 239.886L292.122 247.103L271.786 275.314L273.609 277.1L275.165 283.539L274.956 289.096L274.168 289.926L275.186 290.667L273.933 292.626L274.298 293.138L275.463 292.265L274.941 293.425L276.533 293.467L277.818 295.697L279.729 296.443L278.951 297.89L279.724 300.757L278.366 301.008L275.912 298.543L273.097 299.216L270.094 296.443L267.264 296.971L264.815 296.318L263.07 294.125L261.509 294.553L258.558 293.707L258.49 292.229L257.394 292.652L252.902 290.589L252.375 287.555L250.129 284.254L248.244 284.145L246.255 282.15L244.85 282.761L244.615 283.936L242.458 281.1L240.458 280.87L239.612 279.361L234.546 281.038L232.081 280.071L231.846 277.512L232.802 277.058L230.864 274.598L231.308 273.361L229.773 272.384L231.131 269.648L230.75 267.057L229.449 264.295L227.877 264.076L227.298 263.057L224.451 262.984L224.848 261.099L223.877 259.877L226.812 259.261L226.901 257.621L228.499 257.71L228.916 256.895L228.399 255.84L225.391 255.615L224.373 252.801L225.726 250.618L224.415 249.239L225.621 248.341L224.979 247.542L226.023 247.296L225.715 245.865L224.384 245.515L225.308 245.301L224.284 245.014L225.057 241.604L224.075 239.317L226.399 236.596L226.086 234.58L226.217 234.564L226.478 234.376L229.423 231.206L233.669 229.483L233.752 227.749L238.536 226.459L240.891 221.937L243.549 219.749L244.547 220.292L247.106 211.806Z" fill="white" fill-opacity="0.1"/>
<path d="M278.901 23.2705L283.496 24.6805L282.969 25.8033L285.089 26.7903L284.504 28.2996L286.06 29.2448L287.768 28.3675L290.64 31.3598L293.925 31.8769L298.683 37.2663L300.009 41.982L299.905 43.8464L298.536 45.5697L299.617 47.7788L299.879 52.9593L300.772 53.539L300.667 57.9518L301.727 59.3723L304.208 71.2896L308.668 84.5385L312.412 90.6434L310.96 94.6854L313.321 101.125L312.37 102.232L313.07 114.065L306.584 119.601L303.513 119.617L298.233 122.4L294.588 126.719L288.912 136.443L287.418 136.354L286.755 135.492L284.906 136.344L284.635 134.26L283.031 133.91L281.58 131.936L278.342 132.552L275.235 131.226L274.503 132.208L273.777 130.798L269.746 130.756L268.555 129.184L268.91 127.058L267.584 126.108L268.075 124.035L265.871 120.703L263.819 119.272L266.059 116.927L265.766 109.872L263.521 109.449L263.589 110.295L261.876 111.423L261.448 110.284L260.293 110.394L259.134 107.313L260.623 107.282L261.072 106.321L260.079 106.535L259.818 104.65L258.236 104.582L258.1 106.075L252.507 106.488L251.06 103.161L252.168 102.044L250.972 100.853H251.243L247.462 98.3828L248.026 96.4924L249.368 96.8632L248.804 95.9701L249.374 95.1398L247.055 95.6986L245.159 92.842L242.804 93.1292L241.598 91.6774L241.906 90.2204L240.752 87.9069L241.342 87.5413L239.321 84.8362L240.397 85.0294L239.895 83.797L240.715 82.131L240.694 82.3452L242.867 82.3817L241.451 81.1284L240.209 81.3268L241.196 79.4259L239.357 77.2221L239.786 76.256L238.428 74.1723H238.668L238.49 73.3889L238.866 73.4098L241.357 72.7361L246.904 74.5953L248.909 71.8849L251.013 71.1903L252.225 72.4489L262.722 63.9783L264.769 62.6049L266.304 63.5501L266.012 61.8267L267.704 61.738L269.95 59.7796L270.66 60.6831L271.339 58.6516L271.892 59.0171L272.294 58.8083L274.221 57.3042L274.697 54.4267L276.718 52.0663L276.336 49.4133L272.712 43.3659L270.937 42.2483L271.704 39.9505L270.346 37.3498L268.91 37.6057L266.477 34.5141L267.855 32.232L271.239 31.1771L271.741 30.1431L273.652 30.5556L276.06 29.6365L277.047 26.9L276.451 25.7145L277.945 23.4063L278.901 23.2705Z" fill="white" fill-opacity="0.1"/>
<path d="M133.224 -0.16748L145.152 6.94007L149.993 11.3634L149.606 13.2329L146.238 8.06809L137.245 2.46456L136.352 5.68672L138.812 7.62419L138.76 11.05L140.269 10.5905L140.17 12.3034L141.867 15.5516L141.24 16.2723L139.903 15.8232L141.616 16.6118L141.783 20.8157L143.773 22.9882L146.901 23.4373L145.815 23.7715L147.188 25.1241L152.395 26.6595L153.842 25.5732L155.737 26.7535L162.354 26.2887L169.185 24.6593L176.334 21.0403L168.772 25.5889L162.829 27.2339L163.936 28.4925L164.041 30.6075L165.978 34.049L163.68 35.9395L164.365 37.0936L162.767 41.6788L165.09 42.7337L164.495 43.6424L165.096 44.6085L166.109 44.1176L168.877 45.5537L168.031 47.1622L168.804 48.8229L174.585 47.5643L173.023 51.4967V51.6691L170.913 55.3769L171.571 55.9357L171.013 57.4763L169.895 55.7999L166.939 55.0374L165.785 55.6693L165.273 59.1265L162.814 61.7533L162.73 64.4533L161.534 64.5316L160.009 66.3019L160.244 67.8269L155.429 67.2002L152.567 68.2081L152.656 67.2524L148.29 66.6832L147.329 64.6778L148.28 61.6332L147.063 62.4792L144.598 61.8839L143.789 63.038L142.123 62.8396L142.384 63.8057L141.386 64.0355L140.138 62.6724L140.269 61.3878L138.833 61.4922L138.462 62.3591L132.206 61.5601L132.336 59.2832L130.164 59.2101V58.6408L129.156 59.3093L128.587 58.0455L127.318 58.4842L126.096 57.189L123.876 60.3642L122.006 58.5886L119.239 58.3118L120.257 61.0013L117.907 62.3382L115.573 62.1084L114.356 65.2262L114.883 66.7876L112.836 66.8816L113.317 68.417L111.285 67.0331L110.215 68.0149L108.632 67.6545L108.188 65.7588L105.337 67.8686L104.381 72.8664L102.653 72.2501L102.527 72.2031L101.598 70.8088L99.5872 70.5163L98.8978 70.5477L97.0752 70.9132L94.955 70.062L93.5815 71.3937L91.9104 71.4041L91.9208 69.6808L90.2967 69.9837L88.5002 63.9206L87.367 59.1265L90.1191 56.3274L87.8004 54.604L87.8161 52.6404L88.5159 51.9667L90.9443 52.348L91.3673 50.5619L87.9937 48.6558L87.9258 46.7549L86.8604 45.5329L86.0562 45.1099L85.6593 46.452L85.2885 46.4833L85.1057 43.9139L85.3251 43.6476L85.9674 41.5065L84.9804 40.0599L85.6697 39.1251L82.8184 33.8506L83.3197 32.7487L87.2521 31.2603L87.602 30.0383L85.9987 28.153L85.7481 25.5628L87.1581 25.2024L86.9388 21.1865L86.1867 19.4475L84.6566 18.8156L83.1891 14.5385L88.6778 13.1233L93.3726 9.02377L100.198 5.4726L122.283 0.140635L133.224 -0.16748Z" fill="white" fill-opacity="0.1"/>
<path d="M145 199.465L151.09 198.379L151.904 199.199L153.043 197.256L154.077 197.084L157.821 200.306L158.876 200.003L159.952 201.695L160.855 201.293L162.751 202.829L164.156 201.972L163.942 200.546L165.973 199.878L165.702 201.037L166.971 202.588L168.224 201.591L168.898 202.03L171.018 205.121L171.592 207.847L174.506 206.813L177.045 208.124L177.238 209.691L179.624 209.121L182.382 211.247L182.267 211.999L181.102 211.508L179.703 214.631L178.193 214.224L178.94 216.302L182.669 216.725L183.755 217.629L182.852 218.208L182.935 219.378L185.092 219.707L184.758 221.258L183.05 221.347L180.778 224.637L184.382 225.384L184.747 226.736L185.949 227.123L186.638 228.606L184.345 228.679L184.303 229.666L182.82 230.392L178.35 230.115L176.71 231.624L174.632 232.005L172.616 231.436L171.53 232.47L171.791 233.839L170.48 233.536L170.313 233.588L171.603 234.564L171.373 236.131L167.404 236.335L165.623 237.734L166.182 239.322L169.42 240.941L169.065 242.053L166.751 242.941L167.441 243.782L166.642 244.915L164.495 245.218L163.942 246.68L163.796 245.693H163.623L162.406 248.451L163.028 248.905L161.002 249.234L159.189 252.284L159.31 254.012L158.323 254.639L159.445 255.203H159.837L160.401 255.182H160.74L161.905 254.441L162.495 254.947L161.341 259.015L165.2 258.697L166.234 262.728L170.031 263.339L170.381 265.021L167.973 267.287L171.086 268.556L170.652 271.319L167.55 273.491L167.206 275.042L164.057 275.257L162.882 279.032L161.675 279.946L161.868 281.116L159.565 281.555L158.051 280.86L156.808 281.915L155.038 281.936L154.787 276.64L150.458 275.674L151.158 274.374L149.513 268.159L147.424 268.196L146.374 266.791L143.711 265.909L141.961 260.728L143.063 259.073L141.81 258.148L142.029 256.117L139.366 256.973L137.48 255.292L134.41 254.769L135.005 255.469L133.945 256.43L132.613 253.986L130.618 253.615L130.362 252.325L128.681 253.104L127.469 252.503L126.618 250.069L124.863 248.988L126.106 246.774L125.762 243.521L127.015 243.213L127.307 243.928L127.652 243.197L131.736 242.492L131.537 242.508L131.318 241.578L135.036 239.426L137.397 239.938L137.245 238.721L136.342 238.58L136.728 236.168L135.198 234.533L136.352 232.925L135.402 231.426L136.164 230.366L135.893 228.157L139.146 229.389L137.658 225.133L143.11 224.887L142.953 222.13L140.807 221.201L139.386 217.289L142.332 215.096L140.081 212.385L141.637 211.999L142.024 210.396L143.731 209.043L144.426 206.181L143.507 204.228L144.724 203.361L144.687 201.836L145.956 201.189L145 199.465Z" fill="white" fill-opacity="0.1"/>
<path d="M201.203 184.42L204.039 184.859L203.354 186.373L204.723 187.344L205.198 190.295L206.864 189.783L209.814 192.337L209.444 194.65L210.457 193.512L214.896 195.841L214.932 195.016L215.982 195.423L216.102 193.611L217.752 194.922L218.943 193.81L219.366 194.891L221.288 194.254L222.061 191.371L223.225 192.765L222.311 194.415L224.635 195.69L224.285 198.139L230.636 197.909L231.628 200.165L234.203 201.586L235.842 200.337L235.686 199.319L236.777 199.81L239.529 198.99L238.939 198.426L240.965 198.343L242.01 200.181L243.483 200.306L245.148 198.823L246.276 210.276L247.107 211.806L244.548 220.292L243.55 219.749L240.892 221.937L238.537 226.459L233.753 227.749L233.67 229.483L229.424 231.206L226.479 234.376L226.218 234.564L226.087 234.58L225.053 235.818L223.711 234.591L221.283 236.491L216.034 237.024L214.191 238.674L212.718 237.87L209.151 241.729L200.848 242.711L200.701 241.844L199.553 241.709L200.268 240.372L198.466 238.664L199.286 237.609L197.077 236.006L196.983 234.674L198.383 234.053L196.252 230.669L196.236 228.898L187.16 226.397L185.948 227.123L184.747 226.736L184.382 225.384L180.778 224.637L183.05 221.347L184.758 221.258L185.092 219.707L182.935 219.378L182.852 218.208L183.755 217.629L182.669 216.725L178.94 216.302L178.193 214.224L179.703 214.631L181.102 211.508L182.267 211.999L182.382 211.247L179.624 209.121L180.899 207.367L180.857 207.241L181.4 207.179L181.645 206.996L182.183 206.432L182.23 206.437L182.674 205.706V205.199L182.215 202.933L183.729 199.241L186.471 202.447L188.664 203.581L189.599 198.76L187.16 197.998L187.108 194.818L188.424 193.606L187.74 192.008L189.239 191.36L192.435 192.635L193.265 191.736L195.197 191.919L195.949 191.402L195.234 189.313L195.803 189.136L197.203 190.05L198.101 189.198L199.344 190.248L200.059 188.582L199.385 186.498L200.754 185.992L201.203 184.42Z" fill="white" fill-opacity="0.1"/>
<path d="M182.72 21.8135L207.667 25.7093L233.7 28.4197L276.45 25.7145L277.045 26.9L276.058 29.6365L273.651 30.5556L271.74 30.143L271.238 31.1771L267.854 32.232L266.475 34.5141L268.909 37.6057L270.345 37.3498L271.703 39.9505L270.935 42.2483L272.711 43.3659L276.335 49.4133L276.716 52.0663L274.695 54.4267L274.22 57.3042L272.293 58.8083L271.891 59.0171L271.337 58.6516L270.659 60.6831L269.948 59.7796L267.703 61.738L266.011 61.8267L266.303 63.5501L264.768 62.6049L262.721 63.9783L252.224 72.4489L251.012 71.1903L248.908 71.8849L246.902 74.5953L241.356 72.7361L238.865 73.4098L238.489 73.3889L233.794 74.1984L233.638 75.4413L230.959 76.5484L228.17 76.0053L221.13 81.1649L219.339 79.64L217.349 79.8228L216.503 80.5017L217.02 81.9587L215.36 81.8386L214.67 83.4314L210.456 82.3765L208.492 85.6248L205.192 87.0243L202.09 85.9172L199.562 87.8756L199.907 90.3248L197.64 91.6669L193.191 90.7374L192.047 91.2962L190.783 90.1316L187.003 91.1552L184.825 89.7086L185.112 87.9069L184.966 87.6197L182.297 89.1968L182.642 91.2805L179.942 90.8732L179.169 88.1523H179.336L179.289 86.899L177.639 86.5125L177.487 85.254L178.934 84.5333L177.524 80.533L172.756 80.9351L172.009 78.9977L169.957 79.3998L170.04 78.4493L168.035 76.7468L165.79 76.9505L165.356 78.0472L164.364 77.3317L162.176 71.6499L162.029 68.6209L160.243 67.8219L160.014 66.2918L161.539 64.5214L162.734 64.4431L162.818 61.7432L165.278 59.1111L165.795 55.6592L166.944 55.0273L169.899 55.795L171.017 57.4661L171.576 55.9255L170.918 55.3667L173.028 51.6589V51.4866L174.584 47.5542L168.803 48.8128L168.03 47.1521L168.876 45.5488L166.103 44.1127L165.09 44.6036L164.489 43.6427L165.085 42.734L162.761 41.6739L164.359 37.0887L163.675 35.9398L165.972 34.0441L164.04 30.6078L167.664 31.1457L168.563 30.1222L167.158 33.3025L167.706 33.6002L168.354 31.2241L171.498 28.1063L177.08 26.1637L179.529 21.991L182.72 21.8135Z" fill="white" fill-opacity="0.1"/>
<path d="M88.5046 63.9102L90.2959 69.9732L91.9252 69.6651L91.9148 71.3885L93.5859 71.378L94.9594 70.0464L97.0797 70.8976L98.9022 70.532L99.5916 70.5007L101.597 70.7984L102.527 72.1927L102.652 72.2397L104.38 72.856L99.7639 78.825L100.385 80.632L100.855 79.8799L102.678 80.491L105.832 84.7054L105.059 86.8413L102.182 87.4993L103.038 88.2722L102.704 90.7214L104.386 91.4056L103.138 92.0322L103.477 94.1003L102.25 94.8523L102.48 97.9439L102.323 97.9752L101.55 99.1032L102.02 100.242L104.532 99.7665L108.438 102.675L107.968 110.018L104.95 110.185L104.777 111.71L107.415 113.172L106.913 115.637L108.574 116.086L110.35 114.389L112.036 114.164L111.989 117.104L113.629 117.329L113.54 119.815L116.235 116.88L116.449 118.081L117.17 116.869L118.622 117.998L119.823 117.71L121.311 120.645L121.933 120.118L122.961 121.658L123.651 121.089L123.4 122.901L126.831 122.41L126.732 124.165L130.038 124.933L130.293 126.071L132.095 126.17L135.5 122.98L136.148 126.771L138.56 126.447L139.401 124.985L140.456 125.272L141.642 127.147L142.681 126.86L144.472 127.774L144.733 129.252L145.574 128.923L145.459 130.406L146.603 130.521L147.84 133.873L152.875 132.139L153.178 130.385L154.885 131.669L154.687 132.667L157.147 133.889L156.63 137.048L158.854 137.336L159.006 138.61L157.946 139.325L158.499 140.433L155.449 139.581L153.381 140.406L152.749 143.394L153.883 144.438L153.355 146.469L150.603 146.537L150.149 147.947L147.438 147.023L146.436 147.639L146.864 152.637L148.984 154.595L146.018 158.1L145.725 160.178L142.749 159.06L140.226 159.671L139.829 158.507L138.868 158.825L138.769 160.423L137.772 160.183L137.923 161.306L136.936 161.98L137.542 163.306L136.691 164.178L136.915 166.267L135.072 168.617L135.965 169.004L134.905 171.589L135.824 171.944L135.171 175.088L135.934 178.054L134.184 180.931L131.359 179.281L129.897 179.694L130.649 180.723L130.246 182.247L128.455 182.446L127.891 183.898L126.45 184.164L127.421 188.734L129.656 188.436L128.889 193.36L120.157 196.933L118.084 196.144L119.05 193.334L117.431 192.52L115.734 189.768L115.838 185.36L114.679 184.733L115.614 181.213L109.378 181.757L108.24 176.581L110.397 174.9L109.645 172.983V172.565L106.851 170.403L101.414 169.374L98.7926 170.231L98.4375 173.406L95.3511 172.994L93.9724 173.448L93.8314 174.508L90.7398 174.534L85.4653 171.725L84.473 169.343L80.384 168.69L81.1621 166.252L80.0132 164.048L77.4751 162.314L73.4383 162.272L72.2842 158.852L69.4328 156.449L67.8661 156.032L66.43 157.865L65.1818 156.737L63.26 156.632L64.4142 155.003L63.9546 151.514L60.6071 152.48L58.701 149.953L59.6567 148.616L59.3799 147.43L58.2049 146.887L57.5364 147.78L55.3065 145.441L56.2726 143.66L55.4736 137.633L57.0194 130.928L54.121 128.432L54.5284 127.518L55.2543 128.933L56.8732 127.894L56.3353 125.622L54.6589 123.951L55.4057 122.656L53.1758 119.449L54.3508 115.924L53.745 114.149L58.2727 113.094L57.9385 109.339L56.5807 108.749L57.0089 107.459L59.2389 106.383L58.8263 100.774L58.7375 100.712L58.4921 99.1032V98.9257L58.8054 96.7532L63.7405 98.5236L68.4562 96.2623L70.049 96.6749L69.6678 96.137L71.5322 94.3196L70.9577 92.2672L72.3886 91.7293L73.0048 89.442L73.6785 90.2201L74.9841 88.7631L76.321 89.1704L76.9007 86.7107L77.7885 86.9614L77.8511 86.0997L80.3422 87.1859L80.0393 84.3398L82.6034 82.23L80.2377 80.0001L77.8146 79.3368L76.1487 77.7597L75.1878 78.0678L74.3156 73.6341L74.5454 73.0387L75.71 73.9161L80.7391 73.0753L83.0473 71.19L84.0343 65.8006L86.2852 64.6517L86.8962 65.6178L88.5046 63.9102Z" fill="white" fill-opacity="0.1"/>
<path d="M6.154 53.0894L8.65548 53.3819L7.09923 54.5047L7.10968 55.7633L5.25576 53.0999L6.154 53.0894ZM9.23515 52.9954L9.53282 53.6952L8.46225 54.2018L9.23515 52.9954ZM6.81723 52.468L7.71547 53.2252L6.25322 53.2148L6.81723 52.468ZM7.95569 51.81L7.90869 53.0947L7.27157 52.2016L7.95569 51.81ZM4.20608 49.5957L5.15132 49.5069L4.10686 50.8491L7.03134 55.805L3.05195 52.6194L3.09895 50.8125L2.16938 50.1336L4.20608 49.5957ZM20.3795 47.2561L20.3587 48.0238L18.6771 48.1909L18.9016 46.5877L20.3795 47.2561ZM20.7033 44.3734L18.4055 45.7625L18.4368 48.828L16.4837 51.152L15.0319 56.1602L14.3635 53.4446L9.86705 52.7395L10.1595 50.6506L9.80438 51.6272L8.48837 51.1937L5.49077 53.0059L5.91899 52.3688L4.43064 51.0162L5.3341 49.6584L8.92704 49.8829L12.1231 47.4337L20.7033 44.3734ZM83.1881 14.5332L84.6556 18.8103L86.1857 19.4422L86.9377 21.1812L87.1571 25.1971L85.7471 25.5575L85.9977 28.1477L87.601 30.033L87.2511 31.255L83.3187 32.7434L82.8174 33.8453L85.6687 39.1198L84.9794 40.0546L85.9664 41.5012L85.3241 43.6423L85.1047 43.9086L85.2875 46.478L85.6583 46.4467L86.0552 45.1045L86.8594 45.5275L87.9248 46.7496L87.9927 48.6505L91.3662 50.5566L90.9432 52.3426L88.5149 51.9614L87.8151 52.6351L87.7994 54.5987L90.1181 56.322L87.366 59.1212L88.4992 63.9153L86.8907 65.623L86.2797 64.6568L84.0341 65.8057L83.0419 71.2004L80.7389 73.0804L75.7098 73.9264L74.5452 73.0438L74.3102 73.6444L75.1876 78.0729L76.1485 77.77L77.8144 79.3419L80.2375 80.0104L82.598 82.2351L80.0339 84.3449L80.342 87.1911L77.8509 86.0996L77.7883 86.9613L76.9005 86.7106L76.3156 89.1703L74.9839 88.7682L73.6783 90.22L73.0046 89.4419L72.3884 91.7345L70.9627 92.2723L71.5372 94.3299L69.6676 96.1473L70.0541 96.6852L68.456 96.2726L63.7403 98.5287L58.8052 96.7635L59.5886 93.4526L55.3481 92.4395L55.5726 93.6667L53.9589 94.3822L54.2409 95.411L52.9249 95.6773L53.8023 96.8001L52.105 97.4894L52.622 98.5757L51.4261 99.2493L50.1675 98.6122L48.7888 99.7768L45.8121 98.1109L41.5403 99.5836L39.8013 101.563L37.4251 101.035L38.5479 104.419L30.7458 107.751L29.5917 106.43L28.2548 107.37L25.4974 105.083L24.432 106.519L25.5026 107.516L23.4764 108.148L23.8837 109.72L21.8104 111.391L20.1132 117.412L18.933 118.165L16.4733 116.828L15.3818 117.752L15.4184 119.627L11.0682 116.749L7.48046 112.075L3.23473 108.618L0.179688 107.454L1.38604 105.015L0.863809 100.973L7.23501 96.163L8.59281 91.4629L8.26381 88.3608L10.5146 84.9925L9.26649 82.5745L7.53791 72.7671L6.06 69.9784L6.36289 66.0355L5.31843 65.1164L4.74398 61.7167L6.09655 61.3877L5.37065 59.2779L6.85379 59.7479L9.27693 62.6985L12.332 63.3356L15.3296 67.2001L16.0241 63.9727L14.4783 63.8996L13.46 61.3981L14.3321 58.1603L15.904 57.9044L15.6116 54.9904L17.0425 51.0527L19.3455 48.6609L20.4683 49.486L20.6093 47.0055L21.3509 46.7966L20.6511 45.7364L21.9253 43.8094L19.4395 44.2167L37.5348 37.4748L44.0992 36.399L55.2227 32.43L63.1345 30.6649L68.4508 26.4192L76.7543 16.1835L83.1881 14.5332Z" fill="white" fill-opacity="0.1"/>
</g>
<defs>
<clipPath id="clip0_11_56547">
<rect width="320" height="302" fill="white"/>
</clipPath>
</defs>
</svg>
