<svg width="320" height="302" viewBox="0 0 320 302" fill="none" xmlns="http://www.w3.org/2000/svg">
<path d="M199.284 143.239L199.562 143.659L199.468 145.485L199.295 146.178L198.729 146.891L199.855 147.091L200.138 148.975L199.609 149.893L198.761 149.909L198.389 150.607L197.792 150.712L198.195 151.457L200.63 151.992L201.83 152.05L203.678 151.399L204.537 151.478L206.653 152.701L208.046 152.974L207.999 153.383L208.465 154.149L208.161 154.312L208.261 154.522L207.983 154.921L208.591 155.256L208.58 156.217L209.088 156.101L210.026 156.999L211.214 156.122L211.445 159.428L214.173 161.78L214.765 161.302L217.441 164.178L217.515 164.382L217.729 164.356L217.661 164.613L217.839 164.577L217.944 165.107L218.169 165.243L218.065 165.542L218.431 166.198L218.222 166.713L218.871 167.568L219.191 169.079L219.636 169.772L219.573 170.313L218.719 170.171L218.279 170.701L218.023 170.722L218.044 171.032L217.515 171.441L217.347 172.412L216.907 172.449L212.587 177.497L213.76 197.072L212.466 197.245L211.503 197.103L211.136 197.318L211.11 197.885L209.182 198.373L209.151 198.935L208.397 199.407L207.92 199.549L206.47 199.323L206.25 197.554L205.721 196.904L205.338 195.886L204.663 195.198L203.783 194.862L202.668 194.867L202.919 195.597L203.249 195.707L203.416 196.584L202.725 196.704L202.804 197.177L201.777 197.386L201.835 198.289L201.94 198.709L202.118 198.672L202.49 197.554L202.709 197.523L202.851 198.656L203.071 198.982L202.982 199.323L202.165 199.302L202.291 199.895L201.94 199.942L201.73 200.367L201.248 200.294L201.295 200.902L201.06 200.656L200.52 200.761L200.279 201.59L199.897 201.338L199.583 201.842L199.065 202.172L198.881 201.984L197.415 202.057L197.939 202.718L197.63 203.196L197.237 203.275L197.116 203.873L196.509 204.523L196.362 205.022L195.912 205.111L195.446 205.93L194.901 206.381L194.634 205.694L194.173 205.563L192.063 205.647L191.916 205.82L191.172 205.563L190.764 206.093L191.905 208.858L191.544 209.142L191.434 209.834L190.083 212.6L189.889 211.944L189.324 211.194L188.308 212.233L187.967 211.22L186.773 211.456L186.417 211.792L185.993 211.514L186.433 211.026L186.365 210.443L184.605 210.858L183.84 209.955L182.563 209.094L182.824 208.491L183.647 208.223L182.976 207.31L180.876 205.883L178.64 205.772L177.195 203.101L174.969 200.845L174.691 200.96L174.309 202.015L173.811 202.209L173.602 202.661L174.052 203.584L175.131 204.371L175.655 205.563L175.545 206.89L175.257 207.3L175.472 209.073L174.66 209.462L174.094 209.094L173.366 209.142L173.115 208.228L172.685 208.249L171.868 206.974L172.685 206.749L172.13 206.26L171.884 206.271L171.758 206.701L171.638 206.533L171.313 204.844L171.79 203.763L171.654 203.668L171.292 204.014L171.046 202.765L170.711 202.519L171.114 201.747L171.062 201.175L170.46 200.619L169.978 201.007L169.716 200.892L169.894 201.553L168.134 201.506L167.082 201.139L165.773 201.401L165.589 202.456L164.463 202.482L162.704 204.886L162.452 204.66L162.389 204.098L162.154 204.214L161.897 202.241L161.148 201.831L161.164 201.27L161.656 200.094L163.667 198.966L163.18 198.258L163.311 197.376L165.354 197.402L165.862 198.053L166.102 197.434L166.642 197.439L166.595 197.995L166.851 198.063L167.171 196.473L166.788 196.085L166.375 196.216L165.683 195.35L165.71 194.521L166.38 194.637L166.668 194.096L166.249 193.398L166.291 192.695L166.684 192.317L167.071 192.973L167.37 194.038L167.087 194.815L167.401 194.862L167.684 194.747L167.642 194.379L168.045 194.238L167.998 193.597L167.731 193.681L167.59 193.445L167.642 192.606L167.878 192.296L168.517 192.285L168.695 191.325H167.983L168.014 190.795L168.946 190.202L170.35 190.475L170.884 190.223L170.931 189.751L171.465 189.373L171.764 189.41L172.067 189.777L171.931 189.835L172.099 190.449L172.397 190.617L172.408 189.908L172.932 189.919L173.136 189.494L172.869 188.024L173.157 187.657L173.052 186.938L172.769 186.229L172.455 186.056L172.445 185.673L172.544 185.379L173.256 184.933L173.942 184.823L173.707 184.566L173.513 182.551L169.213 181.842L167.983 179.087L167.15 178.578L166.239 178.777L165.5 179.365L165.207 178.142L165.149 178.457L164.846 178.552L162.431 177.696L159.493 178.352L159.059 176.39L159.834 171.241L159.687 168.623L160.342 168.964L161.253 167.741L160.975 163.065L161.944 162.509L162.154 161.139L163.452 160.74L164.018 160.877L164.479 159.854L165.296 159.99L166.527 159.502L167.789 158.017L168.213 158.001L168.187 158.636L168.402 158.62L168.805 158.064H169.129L169.245 157.618L168.93 157.55L169.135 157.23L169.109 156.474L169.323 156.044L169.627 156.122L169.946 155.923L169.622 155.361L169.758 155.157L170.47 154.837L172.015 154.795L172.675 154.548L172.664 154.322L171.957 153.997L172.083 153.414L171.738 152.785L171.659 151.105L171.46 150.922L171.214 151.42L170.962 151.278L171.261 150.245L171.125 150.056L172.738 149.216L173.188 149.961L175.341 150.245L175.891 150.874L177.697 150.339L178.158 151.294L179.043 151.373L180.274 150.696L182.154 150.895L183.196 151.326L183.751 151.084L183.867 150.801L183.62 150.224L184.888 150.218L185.181 149.452L186.16 148.796L186.438 148.833L186.496 149.232L186.747 149.242L186.637 149.641L186.888 149.893L187.527 149.416L187.344 149.195L186.977 149.216L187.024 148.928L187.904 148.24L189.643 148.602L190.554 147.972L190.727 147.39L191.696 147.101L191.989 147.274L192.471 147.148L192.927 146.739L193.225 145.354L193.759 145.123L194.404 145.469L196.022 145.133L197.074 144.367L197.431 144.53L198.001 144.073L198.614 144.031L198.761 143.491L199.284 143.239Z" fill="white" fill-opacity="0.1"/>
<path d="M241.203 197.318L242.879 196.762L242.774 195.875L243.633 194.973L242.978 194.862L242.847 194.532L242.952 194.049L243.696 194.18L243.026 193.713L242.738 192.837L242.633 192.07L242.968 191.525L243.397 191.929L244.827 191.976L245.518 191.693L245.943 190.984L246.739 190.769L247.048 190.968L247.309 191.929L246.927 193.11L247.545 192.485L247.838 192.511L248.095 192.879L248.257 192.322L248.598 192.296L249.719 191.467L250.708 191.409L251.29 192.154L251.227 191.477L251.656 191.304L252.196 190.333L252.955 190.144L252.997 189.777L253.212 189.882L253.196 188.806L253.536 187.447L253.803 186.739L254.191 186.681L254.311 186.009L254.851 185.39L255.27 185.248L255.794 186.056L255.579 186.523L255.883 187.389L256.411 187.106L256.61 186.293L257.527 186.539L257.904 185.962L258.904 186.172L258.711 186.964L259.014 187.484L260.339 187.08L260.8 186.408L261.177 187.164L262.02 186.34L261.811 185.579L262.198 184.792L262.005 184.214L262.251 183.931L262.811 183.878L263.094 184.34L263.618 184.424L264.246 185.642L265.796 185.159L266.121 185.122L266.163 185.369L266.524 185.075L266.498 183.857L266.797 183.506L267.378 183.564L267.975 184.734L268.352 184.839L270.599 184.697L271.117 184.907L271.897 184.87L272.065 185.437L273.846 185.642L273.437 187.657L277.339 188.476L277.627 188.024L279.371 189.205L279.758 188.843L280.622 188.922L281.219 190.365L286.231 190.984L289.761 197.365L291.505 199.391L291.154 199.963L290.18 203.715L290.808 207.987L291.044 208.297L292.615 209.11L292.385 208.654L292.558 208.155L292.175 207.253L292.186 206.953L292.364 206.917L292.741 207.037L293.129 207.751L294.349 208.213L294.155 208.785L294.443 208.99L294.621 209.635L293.705 211.215L294.024 211.577L294.035 212.411L293.406 212.731L292.877 212.721L292.699 212.957L293.359 213.77L293.307 214.153L293.521 214.5L294.003 214.904L293.972 215.738L295.632 216.106L295.512 217.055L294.616 217.449L295.113 217.963L296.36 217.46L296.983 217.927L297.475 217.879L297.68 218.425L298.078 218.63L299.183 218.126L300.335 218.31L300.502 218.357L300.623 219.071L300.199 219.501L300.44 219.779L300.282 220.577L300.513 221.201L300.413 221.658L299.329 222.77L299.471 223.594L299.13 223.379L298.491 224.303L297.727 224.135L296.758 224.707L295.684 224.051L295.134 223.164L294.715 223.825L293.972 224.208L292.83 223.741L290.976 223.657L289.086 224.277L288.07 224.387L287.289 224.219L287.19 224.413H285.289L284.975 224.581L284.231 224.277L283.854 224.35L283.681 224.124L283.005 224.208L282.005 223.773L281.68 223.93L281.35 223.904L280.994 223.715L279.638 223.909L278.999 224.408L278.664 224.182L278.371 224.912L277.91 224.922L277.417 225.846L277.171 225.641L277.239 225.132L276.695 225.331L276.312 225.132L276.182 224.602L275.37 224.528L275.166 223.379L273.553 223.311L273.851 221.726L274.459 221.023L274.422 220.398L275.008 220.603L275.401 220.115L275.338 219.921L275.925 219.9L276.03 219.333L276.328 219.359L276.522 219.002L276.637 218.268L276.077 217.9L275.595 218.053L275.176 217.591L275.48 217.449L275.344 216.588L274.778 216.562L274.862 217.879L274.568 218.331L272.971 217.349L271.856 217.617L270.431 216.73L270.51 216.326L269.316 216.41L269.096 216.62L268.75 215.597L267.807 215.906L267.671 215.103L266.797 213.613L265.859 213.718L265.498 213.387L265.681 213.041L265.529 212.768L264.513 213.718L264.304 213.639L264.126 214.195L263.398 213.671L263.215 213.77L263.288 214.106L262.769 214.148L262.623 214.641L263.141 215.597L263.304 216.394L264.278 217.234L264.183 217.533L262.502 217.197L262.487 216.804L260.879 216.945L259.936 216.777V216.41L259.742 216.326L259.653 216.73H259.47L259.056 216.195L258.606 216.216L258.412 214.285L256.893 215.119V215.381L255.998 215.738L255.506 215.681L254.804 216.452V215.607L254.296 215.596L252.908 216.022L252.122 215.717L250.462 216.609L249.902 215.906L249.74 215.355L249.666 215.539L248.881 215.596L248.676 215.355L247.797 216.095L247.514 215.297L246.995 215.366L246.765 215.103L246.472 215.234L245.786 214.841L245.592 214.316L245.34 214.258L244.796 214.82L244.429 214.673L244.068 215.15L242.832 215.203L242.581 214.757L241.088 215.261L240.538 214.5L239.936 214.306L240.082 213.807L239.297 214.148L238.925 213.886L238.867 212.931L238.401 212.815L238.344 212.542L238.941 211.97L238.867 211.062L239.14 210.8L239.145 210.396L238.956 210.123L239.391 209.808L238.799 209.393L238.448 208.381L238.71 207.845L239.119 207.819L239.176 206.775L239.548 206.738L239.622 205.19L239.103 204.975L239.009 204.182L239.323 203.479L238.878 203.411L238.7 203.762L238.789 202.718L238.553 202.435L238.904 201.474L239.742 200.545L239.627 199.69L240.355 198.599L240.433 197.57L241.203 197.318Z" fill="white" fill-opacity="0.1"/>
<path d="M248.202 64.8823L248.589 64.982L248.809 65.3861L249.108 65.3074L249.495 66.1418L250.501 66.5039L253.198 68.4509L254.738 70.0253L257.335 71.0906L262.389 71.4422L266.851 71.1011L270.92 70.4346L278.676 70.1197L281.169 70.6393L284.934 71.9302L286.479 72.0667L286.877 72.5862L289.454 73.3314L292.67 73.3682L294.026 73.195L295.477 73.4416L296.65 73.216L296.901 73.5571L297.215 73.5256L296.98 73.9192L297.64 74.5647L298.551 74.9845L299.755 74.9478L300.001 75.1944L301.672 74.89L302.709 74.423L303.133 74.7064L305.401 74.5384L306.412 74.0189L308.224 72.6597L309.302 71.5576L310.465 70.0043L311.748 67.648L312.083 68.3617L313.565 68.8812L314.351 69.4952L315.718 70.9226L316.503 72.7699L317.734 73.5046L319.462 75.0685L319.997 76.3385L319.965 78.2592L319.703 79.0306L319.221 79.3927L319.054 80.1169L318.054 81.1035L317.441 82.8668L316.079 85.3596L312.534 85.3386L310.559 86.0418L309.025 86.9759L307.642 87.1491L305.689 89.0541L305.134 89.8727L304.621 90.9538L304.406 94.1603L304.076 95.6927L303.254 96.9364L302.866 98.0437L301.122 99.6443L300.881 100.321L299.965 101.486L299.86 102.641L300.185 103.097L299.143 104.609L299.279 106.718L298.451 107.684L298.263 108.45L298.43 109.232L298.106 110.381L297.268 110.486L297.058 110.854L296.734 112.738L296.906 114.05L296.498 114.753L296.796 115.225L296.671 115.593L295.435 117.067L282.4 129.667L276.424 127.448L269.564 126.524L257.388 126.466L257.173 126.083L256.586 126.141L256 124.787L254.759 123.911L252.894 123.832L251.951 123.475L251.669 124.372L249.302 124.535L247.83 125.055L247.233 124.236L246.882 122.63L246.872 121.675L247.285 121.502L247.165 120.673L246.432 120.122L246.903 118.983L245.992 118.07L245.557 118.033L245.41 117.193L246.358 116.663L246.678 116.065L249.082 115.64L250.035 114.328L250.155 113.672L249.878 112.801L249.935 111.478L250.956 110.765L250.983 110.523L250.998 110.177L250.307 109.741L250.81 101.749L250.967 101.67L251.396 102.027L252.072 101.554L252.816 100.321L254.654 100.106L254.868 99.3976L255.366 99.7755L255.544 100.384L256.581 100.337L256.932 99.8018L256.701 99.3872L256.932 97.6344L257.508 97.6029L257.272 96.0128L256.649 96.0916L256.319 95.7137L256.853 94.6274L256.283 93.3259L255.853 92.8484L254.057 92.2763L252.219 91.19L252.575 90.7125L252.234 87.9888L248.003 90.3346L247.563 87.7264L247.034 87.7579L247.437 85.5276L247.097 85.0815L247.62 84.7824L248.223 83.8745L248.804 81.6336L249.281 81.7491L249.521 80.8307L250.464 81.0773L250.899 80.1904L250.166 80.1327L250.071 79.7024L248.83 79.0307L247.023 79.2931L246.447 78.5111H246.128L245.772 79.1146L245.264 78.9467L245.133 78.6528L245.772 77.7344L247.149 77.1572L247.18 76.7373L247.547 76.7478L247.28 76.433L247.767 76.1916L246.793 74.423L247.044 74.2971L246.374 73.7618L246.515 73.6044L247.898 72.9589L248.558 73.83L249.689 74.0242L249.652 72.7909L249.27 71.4422L249.322 68.6084L248.951 67.6585L248.411 67.0497L248.479 66.2836L247.982 65.9005L248.092 65.6486L247.793 65.3232L247.987 64.9296L248.202 64.8823Z" fill="white" fill-opacity="0.1"/>
<path d="M280.008 143.391L284.302 161.853L287.497 174.128L284.234 180.073L284.36 187.4L286.229 190.984L281.218 190.365L280.621 188.921L279.756 188.843L279.369 189.205L277.625 188.024L277.337 188.475L273.435 187.657L273.844 185.641L272.063 185.437L271.896 184.87L271.115 184.907L270.597 184.697L268.35 184.839L267.973 184.734L267.376 183.563L266.795 183.506L266.496 183.857L266.522 185.075L266.161 185.369L266.119 185.122L265.794 185.159L264.244 185.642L263.616 184.424L263.092 184.34L262.809 183.878L262.249 183.931L262.003 184.214L262.197 184.791L261.809 185.579L262.019 186.34L261.175 187.163L260.798 186.408L260.337 187.079L259.012 187.484L258.709 186.964L258.902 186.172L257.902 185.962L257.525 186.539L256.609 186.292L256.41 187.106L255.881 187.389L255.577 186.523L255.792 186.056L255.268 185.248L254.849 185.39L254.31 186.009L254.189 186.681L253.802 186.738L253.535 187.447L253.194 188.806L253.21 189.882L252.995 189.777L252.953 190.144L252.194 190.333L251.654 191.304L251.225 191.477L251.288 192.154L250.706 191.409L249.717 191.467L248.596 192.296L248.256 192.322L248.093 192.878L247.837 192.511L247.543 192.485L246.925 193.109L247.308 191.929L247.046 190.968L246.737 190.769L245.941 190.984L245.517 191.692L244.825 191.976L243.396 191.929L242.966 191.524L242.631 192.07L242.736 192.836L243.024 193.713L243.694 194.18L242.95 194.049L242.846 194.532L242.977 194.862L243.631 194.972L242.772 195.875L242.877 196.762L241.201 197.318L241.081 196.793L240.143 196.925L240.133 195.649L238.509 195.067L238.488 193.965L237.933 193.477L236.032 193.172L234.702 193.419L234.205 194.306L233.272 194.416L231.968 195.424L231.439 195.03L230.842 195.313L230.916 194.547L230.612 193.561L230.387 193.398L230.507 193.109L230.361 192.878L229.805 193.193L228.575 192.579L226.637 196.368L225.741 195.917L225.008 196.059L224.443 195.917L223.772 198.111L220.688 198.027L217.713 197.665L217.477 197.035L216.592 197.497L216.388 197.329L216.079 197.995L215.781 197.187L214.733 197.554L213.759 197.072L212.586 177.497L216.907 172.448L217.346 172.412L217.514 171.441L218.043 171.031L218.022 170.722L218.279 170.701L218.719 170.171L219.572 170.312L219.635 169.772L219.19 169.079L218.87 167.568L218.221 166.712L218.43 166.198L218.064 165.542L218.169 165.243L217.943 165.107L217.839 164.577L217.661 164.613L217.729 164.356L217.514 164.382L217.441 164.178L217.655 163.863L217.394 163.349L217.645 163.37L217.64 162.965L217.891 163.175L217.771 162.661L218.205 162.351L217.912 162.168L218.399 161.606L219.446 162.703L220.284 162.084L221.175 162.624L225.485 159.392L226.778 158.998L227.208 158.132L228.046 158.19L229.036 158.82L229.25 160.226L230.109 160.725L229.826 160.132L230.397 158.562L230.654 158.61L231.183 157.943L231.853 157.697L232.183 158.143L233.016 157.864L234.115 158.694L234.503 158.673L234.88 158.179L234.304 157.817L234.917 157.277L237.163 157.02L236.834 157.791L236.09 157.864L236.079 158.153L236.682 158.531L236.991 158.447L237.41 158.809L238.216 158.017L239.483 159.334L240.499 159.979L240.95 159.497L242.06 159.323L242.552 158.835L242.086 158.305L242.149 157.277L242.359 156.6L243.327 155.587L242.987 154.91L244.218 155.681L244.673 156.684H245.045L245.538 157.371L245.894 157.334L246.873 156.657L246.967 155.797L247.774 156.322L248.633 155.666L249.753 155.996L249.842 155.692L250.34 155.482L250.345 155.246L251.44 155.094L251.22 154.291L252.487 154.207L252.325 152.9L253.037 148.786L253.566 148.717L256.436 149.846L257.97 151.278L258.206 151.231L258.326 150.817L258.793 151.352L258.992 151.284L258.834 150.685L259.206 150.486L259.363 150.78L259.861 150.964L260.186 151.504L260.238 152.281L260.557 152.564L261.395 152.543L261.474 151.362L261.023 151.016L260.715 149.825L261.076 149.111L260.762 148.518L260.018 148.696L259.955 148.067L260.955 147.61L261.327 147.878L262.034 147.552L262.165 146.928L262.893 146.519L263.721 146.97L264.218 145.842L263.762 145.333L263.904 145.107L266.198 144.063L266.549 144.251L266.627 144.561L279.269 140.195L280.008 143.391Z" fill="white" fill-opacity="0.1"/>
<path d="M177.038 114.071L177.687 112.371L178.232 112.176L179.075 112.853L180.389 111.368L180.866 107.752L179.792 106.052L181.254 104.745L182.023 105.045L182.369 105.506L182.573 106.367L183.249 106.95L184.668 103.911L184.307 103.486L182.51 102.625L182.605 101.943L183.291 100.783L182.793 99.7442L183.217 99.5238L183.416 98.8416L183.678 98.8048L184.448 97.0783L185.014 96.8159L185.558 96.1336L185.417 95.971L186.81 92.8642L185.962 91.3161L185.611 89.6735L184.087 88.0886L183.872 87.5533L185.553 87.5166L187.03 88.1464L188.434 87.144L189.429 87.0023L189.806 87.1178L190.712 88.0152L191.895 88.6344L191.953 88.5085L192.293 88.8496L192.775 88.351L193.016 88.393L193.105 87.6321L192.717 87.2122L193.006 86.9446L194.006 86.6979L194.399 86.9236L195.43 85.9685L196.106 86.2414L197.64 86.1154L198.887 84.8612L199.227 84.751L200.154 84.8192L200.814 85.239L204.391 85.5696L204.7 85.7533L205.03 86.7084L205.554 86.8134L205.831 87.2542L206.02 88.0886L205.313 88.3248L205.328 89.007L205.873 89.2274L206.763 89.1592L206.397 91.2584L206.512 91.9301L207.481 91.484L208.486 92.1557L207.973 93.3208L207.187 93.6881L207.617 94.3599L207.072 94.68L207.093 95.1051L208.099 95.1156L208.979 95.992L209.848 95.2992L210.246 95.6613L210.518 95.4882L210.99 97.7762L210.56 98.4637L209.738 98.6212L209.602 98.8835L209.246 99.6182L209.052 101.633L208.214 101.576L207.491 102.352L207.449 103.155L207.025 103.496L207.266 104.782L207.004 104.829L206.962 105.732L205.857 107.039L206.318 107.983L206.795 107.112L207.538 108.088L208.183 107.537L208.224 107.028L208.926 107.537L209.79 108.613L211.503 108.214L212.011 108.524L212.65 109.222L213.21 111.736L214.535 112.15L214.807 113.462L216.358 114.407L216.808 114.417L217.117 114.827L216.871 116.107L217.374 116.627L217.253 117.209L217.567 118.007L218.232 118.269L217.976 119.975L218.526 121.177L218.154 122.488L217.829 122.903L217.897 123.192L217.709 123.286L217.698 123.863L218.007 124.136L218.201 124.614L217.981 124.981L217.499 124.96L217.29 124.645L216.845 125.317L216.515 125.338L216.452 126.125L215.991 126.692L216.489 127.075L216.777 129.017L216.489 129.248L214.577 129.3L214.362 129.521L213.456 129.421L212.734 129.683L212.645 129.536L212.1 130.019L211.608 130.103L211.005 129.778L210.791 130.334L210.942 130.938L210.513 131.399L209.659 131.536L209.172 131.085L208.874 131.153L208.848 131.399L208.67 131.331L207.994 132.008L208.434 133.178L208.361 133.745L208.706 134.328L208.638 136.033L206.664 137.455L206.213 136.191L205.019 135.372L204.218 135.482L204.134 136.332L204.349 136.668L203.532 137.256L203.453 137.665L202.568 137.366L201.814 137.55L201.867 138.143L202.28 138.626L202.081 139.035L202.259 139.124L202.191 139.45L201.139 140.384L200.709 140.441L200.61 141.045L200.049 140.914L199.683 142.52L199.285 143.239L198.761 143.491L198.614 144.031L198.002 144.073L197.431 144.53L197.075 144.367L196.022 145.133L194.404 145.469L193.76 145.123L193.225 145.353L192.927 146.739L192.471 147.148L191.99 147.274L191.696 147.101L190.727 147.39L190.555 147.972L189.643 148.602L187.905 148.24L187.025 148.927L186.978 149.216L187.344 149.195L187.528 149.415L186.889 149.893L186.637 149.641L186.747 149.242L186.496 149.232L186.438 148.833L186.161 148.796L185.181 149.452L184.888 150.218L183.621 150.223L183.867 150.801L183.752 151.084L183.197 151.325L182.154 150.895L180.274 150.696L179.044 151.373L178.158 151.294L177.698 150.339L175.891 150.874L175.341 150.244L173.188 149.961L172.738 149.216L173.325 148.738L175.708 141.764L173.309 140.436L170.738 140.184L170.497 139.995L170.402 139.103L171.177 137.35L171.141 136.379L171.963 135.912L171.078 134.28L170.654 134.081L170.156 132.659L170.476 131.977L171.314 132.402L171.518 132.312L172.267 131.221V130.728L173.382 129.904L173.01 129.347L173.587 128.182L174.131 127.595L173.801 127.117L174.294 126.818L173.613 125.92L173.477 126.094L172.963 125.952L172.555 124.902L172.209 124.729L172.366 124.278L172.775 124.189L173.272 122.441L175.524 121.092L175.98 117.603L174.744 115.703L176.739 114.59L177.038 114.071Z" fill="white" fill-opacity="0.1"/>
<path d="M238.4 212.815L238.866 212.931L238.924 213.886L239.295 214.148L240.081 213.807L239.934 214.306L240.537 214.5L241.087 215.261L242.579 214.757L242.83 215.203L244.066 215.151L244.428 214.673L244.794 214.82L245.339 214.259L245.59 214.316L245.784 214.841L246.47 215.235L246.764 215.104L246.994 215.366L247.512 215.298L247.795 216.095L248.675 215.355L248.879 215.597L249.665 215.539L249.738 215.355L249.901 215.906L250.461 216.61L252.121 215.718L252.907 216.022L254.294 215.597L254.802 215.607V216.452L255.504 215.681L255.996 215.739L256.892 215.382V215.119L258.411 214.285L258.605 216.216L259.055 216.195L259.469 216.73H259.652L259.741 216.326L259.935 216.41V216.778L260.877 216.946L262.485 216.804L262.501 217.197L264.182 217.533L264.276 217.234L263.302 216.395L263.14 215.597L262.621 214.642L262.768 214.148L263.286 214.106L263.213 213.771L263.396 213.671L264.124 214.196L264.302 213.639L264.512 213.718L265.528 212.768L265.68 213.041L265.496 213.387L265.858 213.718L266.795 213.613L267.67 215.104L267.806 215.906L268.749 215.597L269.094 216.62L269.314 216.41L270.508 216.326L270.43 216.73L271.854 217.617L272.97 217.35L274.567 218.331L274.86 217.88L274.777 216.562L275.342 216.589L275.478 217.449L275.175 217.591L275.594 218.053L276.075 217.901L276.636 218.268L276.52 219.003L276.327 219.36L276.028 219.333L275.923 219.9L275.337 219.921L275.4 220.115L275.007 220.603L274.42 220.399L274.457 221.023L273.85 221.726L273.551 223.311L275.164 223.379L275.368 224.529L276.18 224.602L276.311 225.132L276.693 225.332L277.238 225.132L277.17 225.641L277.416 225.846L277.908 224.922L278.369 224.912L278.662 224.182L278.998 224.408L279.637 223.909L280.993 223.715L281.349 223.904L281.679 223.93L282.004 223.773L283.004 224.209L283.68 224.125L283.852 224.35L284.229 224.277L284.973 224.581L285.287 224.413H287.188L287.707 224.623L287.476 225.384L287.084 225.358L287.131 225.893L287.487 225.872L287.518 226.051L287 226.198L286.927 226.628L286.57 226.785L286.733 227.121L286.623 228.113L286.371 228.381L286.214 228.249L285.937 228.438L285.664 228.166L285.214 228.501L284.874 228.297L284.622 228.533L285.12 228.895L285.492 229.735L285.261 230.669L286.251 231.487L285.513 232.054L286.34 232.112L286.298 232.941L286.759 233.529L287.078 233.592L286.199 234.075L286.01 235.864L285.308 235.612L285.141 236.079L284.753 236.116L284.502 234.458L284.188 234.893L283.549 235.13L283.198 235.911L282.281 235.219L281.422 235.927L281.354 236.814L280.569 236.825L280.668 237.155L278.998 238.913L278.568 239.937L278.94 240.293L278.841 240.698L279.118 240.939L278.872 241.427L278.95 241.842L279.359 242.445L279.909 242.77L279.898 243.542L279.364 244.025L279.406 244.277L279.5 244.508L280.124 244.387L280.186 244.759L279.212 245.463L278.919 246.087L278.149 245.893L277.563 246.297L276.091 248.045L276.128 248.564L276.505 249.194L276.431 249.776L276.782 250.333L276.725 250.905L277.311 252.017L277.437 253.518L277.175 253.14L276.122 253.093L274.672 251.75L273.933 251.692L273.761 251.157L273.232 251.141L273.069 250.684L271.949 250.831L271.331 250.275L269.754 250.49L268.105 249.798L266.114 249.609L265.214 249.121L264.203 248.144L263.543 248.134L263.025 247.683L262.25 247.709L261.757 247.357L262.045 246.985L262.119 246.26L261.485 245.568L259.715 245.531L259.584 245.122L258.882 244.833L258.406 245.61L258.049 245.547L257.332 245.835L256.986 245.195L257.447 244.691L257.458 244.203L256.866 244.035L256.232 242.986L255.363 242.959L254.761 243.757L253.237 244.571L252.896 245.027L253.095 245.436L252.959 246.691L252.472 246.838L251.765 247.609L250.838 247.877L250.147 247.688L249.759 248.48L248.932 247.803L248.979 248.171L249.34 248.449L248.853 249.666L247.905 249.519L248.654 248.648L248.607 248.323L247.56 247.887L246.837 247.263L246.565 247.756L246.952 248.339L246.58 248.905L246.193 248.685L245.549 249.073L244.951 248.648L244.899 249.099L243.773 249.194L243.553 249.619L244.019 249.692L243.983 249.96L243.689 250.154H242.621L240.783 252.558L240.767 254.326L239.568 253.649L239.704 252.962L239.515 252.899L239.563 251.844L239.379 251.618L239.002 252.232L238.295 252.558L238.211 253.13L238.416 253.555L238.044 254.085L236.357 253.749L235.101 252.951L234.53 251.167L234.498 250.38L233.592 248.239L234.032 247.803L234.462 246.754L232.597 246.586L232.812 246.171L232.974 246.334L233.168 246.14L233.467 246.439L234.98 243.636L232.194 241.296L233.556 239.092L234.823 238.005L235.315 237.271L235.085 236.079L234.786 235.854L234.53 236.022L234.54 235.093L234.242 235.056L233.88 235.686L233.629 235.66L233.613 234.71L233.058 233.665L232.571 233.256L232.749 232.632L233.058 232.7L233.289 232.353L233.896 232.521L234.242 231.96L234.792 231.776L234.477 231.152L234.519 230.338L234.21 230.097L234.87 229.876L234.896 228.785L234.289 228.271L233.88 228.297L233.236 228.921L232.911 228.774L232.377 228.916L232.178 229.289L232.032 229.173L231.916 228.129L231.644 227.793L231.168 227.804L231.089 227.121L230.859 227.048L231.545 226.234L231.555 225.899L230.99 224.723L231.094 224.156L230.749 223.574L230.796 223.238L231.885 222.503L231.031 221.212L229.89 221.154L229.544 220.798L229.293 220.913L228.633 220.294L229.691 219.9L229.989 218.656L230.885 217.843L230.927 217.208L230.633 216.814L230.717 216.132L229.9 215.455L230.455 214.316L230.843 214.248L231.12 214.736L231.628 214.841L232.775 214.196L233.728 214.175L233.959 214.484L234.289 214.453L234.346 213.519L234.97 212.994L235.42 213.099L235.687 213.409L236.75 213.209L236.881 212.957L237.672 213.267L238.054 212.758L238.4 212.815Z" fill="white" fill-opacity="0.1"/>
<path d="M110.831 194.164L111.831 194.458L111.255 196.048L111.423 196.804L111.02 197.512L111.14 197.822L110.606 198.341L110.302 199.265L109.663 199.255L109.291 199.611L108.998 199.433L108.406 197.628L108.925 195.518L108.736 195.34L108.993 194.899L108.878 194.6L110.831 194.164ZM117.686 187.599L117.445 187.704L116.958 189.184L115.838 189.504L116.058 188.591L116.199 188.864L116.602 188.722L116.859 187.903L117.304 187.846L117.44 187.3L118.011 186.66L117.686 187.599ZM100.027 176.521L100.079 176.862L100.498 177.177L100.472 177.728L99.4247 176.495L99.6028 175.812L100.027 176.521ZM117.299 142.415L120.038 144.776L122.394 143.952L124.824 145.091L128.276 145.857L129.852 146.634L130.046 146.02L131.376 145.044L132.083 144.614L133.534 144.194L134.22 143.333L134.696 140.951L136.644 139.828L137.058 139.035L137.556 138.689L137.912 138.652L138.357 138.93L139.609 140.279L138.776 141.113L138.703 141.407L138.933 141.475L139.006 141.953L140.426 141.743L140.876 141.313L143.495 140.058L144.762 137.566L146.024 138.159L146.825 137.844L147.449 138.537L148.014 138.605L149.009 139.292L150.287 138.872L150.638 139.313L151.465 139.103L152.235 137.923L153.665 137.015L154.016 137.434L154.686 137.644L154.775 138.038L155.634 138.316L156.409 139.245L155.812 142.168L155.906 143.438L156.132 144.472L156.346 144.556V145.228L156.687 145.737L156.603 145.968L157.038 146.12L157.378 145.805L157.75 145.784L158.132 144.005L158.64 143.816L158.892 142.677L159.022 142.457L159.625 142.378L160.012 141.423L160.714 141.575L161.054 141.029L161.568 140.951L161.552 141.428L162.039 141.601L162.94 141.36L163.181 140.51L163.903 139.974L163.631 139.618L164.207 139.702L164.343 140.027L166.768 140.221L168.098 140.583L168.716 140.163L170.518 139.99L170.759 140.184L173.33 140.436L175.734 141.769L173.346 148.738L172.759 149.216L171.151 150.056L171.288 150.245L170.989 151.278L171.241 151.42L171.487 150.922L171.686 151.105L171.764 152.785L172.115 153.414L171.984 153.997L172.696 154.322L172.707 154.553L172.047 154.8L170.502 154.837L169.79 155.162L169.654 155.361L169.978 155.923L169.659 156.122L169.35 156.044L169.135 156.474L169.167 157.23L168.957 157.555L169.277 157.623L169.161 158.069H168.831L168.428 158.62L168.213 158.641L168.24 158.001L167.815 158.022L166.553 159.507L165.323 159.995L164.506 159.864L164.045 160.882L163.484 160.751L162.18 161.15L161.971 162.519L161.002 163.07L161.28 167.746L160.368 168.969L159.714 168.628L159.86 171.247L159.085 176.395L159.52 178.358L162.458 177.702L164.872 178.552L165.176 178.457L165.234 178.142L165.527 179.365L166.26 178.777L167.171 178.578L168.009 179.087L169.24 181.842L173.534 182.551L173.728 184.566L173.969 184.823L173.283 184.938L172.565 185.384L172.466 185.678L172.482 186.067L172.796 186.235L173.079 186.943L173.183 187.662L172.895 188.029L173.162 189.504L172.953 189.929L172.429 189.919L172.419 190.627L172.12 190.459L171.953 189.845L172.094 189.787L171.79 189.42L171.492 189.383L170.958 189.761L170.911 190.233L170.376 190.491L168.973 190.218L168.041 190.811L168.009 191.341H168.721L168.543 192.301L167.904 192.312L167.664 192.621L167.616 193.461L167.758 193.697L168.025 193.613L168.072 194.253L167.669 194.395L167.716 194.762L167.433 194.878L167.119 194.831L167.402 194.059L167.103 192.994L166.716 192.333L166.323 192.711L166.281 193.419L166.705 194.117L166.417 194.652L165.747 194.537L165.715 195.366L166.407 196.232L166.826 196.101L167.208 196.489L166.883 198.079L166.632 198.016L166.679 197.46L166.145 197.449L165.899 198.069L165.391 197.418L163.348 197.392L163.217 198.279L163.704 198.987L161.693 200.115L161.201 201.291L161.185 201.858L161.934 202.262L162.186 204.235L162.427 204.125L162.484 204.686L162.736 204.912L161.526 206.791L160.934 207.326L160.185 207.672L158.137 207.52L152.989 210.936L152.12 211.173L151.01 209.541L147.731 210.27L147.684 211.928L146.281 212.248L145.197 213.581L144.296 212.469L143.065 212.579L142.803 212.695L142.866 213.246L142.033 214.258L141.761 214.222L141.033 213.287L139.881 212.39L139.132 213.214L138.069 213.476L137.765 213.928L136.791 213.844L136.477 214.825L136.116 214.872L136.178 215.292L133.785 215.864L132.989 217.223L133.041 217.412L133.696 217.638L133.345 218.451L133.686 220.099L131.355 221.39L131.187 221.401L130.994 220.823L129.213 220.498L128.511 220.582L128.354 220.225L128.731 219.653L128.716 218.708L129.375 217.407L129.622 216.368L130.046 216.043L130.135 213.476L130.805 212.154L130.936 210.868L131.758 208.879L132.046 208.916L132.921 207.966L133.125 206.418L133.748 205.048L134.702 202.02L134.722 200.855L134.434 200.519L134.702 200.246L134.544 199.926L134.01 199.606L133.984 199.202L134.45 198.546L134.586 197.727L134.377 197.192V196.762L134.424 196.499L134.843 196.395L134.293 195.366L134.633 194.762L134.513 194.169L134.073 193.634L134 192.427L133.759 192.165L133.324 192.553L134.052 189.819L134.304 189.347L133.837 188.827L134.633 187.998L134.429 187.599L134.827 186.618L134.67 186.098L134.057 185.699L134.22 185.369L134.801 185.484L135.168 184.561L136.241 184.183L136.885 183.485L138.257 182.766L139.514 181.312L139.871 180.677L139.965 178.735L139.651 177.544L138.923 176.521L137.294 174.201L136.969 174.222L135.12 173.54L134.785 172.811L134.508 172.679L134.194 172.763L133.492 172.658L132.999 172.527L132.518 172.27L131.46 172.202L130.261 172.438L127.317 172.522L126.286 172.942L125.793 173.425L125.369 174.469L125.343 176.153L125.097 177.093L125.264 178.069L124.767 179.339L124.641 180.835L123.966 182.026L124.311 182.661L123.997 182.839L122.337 183.039L121.771 183.427L121.483 183.275L121.075 183.369L120.666 183.312L119.907 183.842L119.352 183.254L119.106 183.679L119.237 183.868L118.666 184.114L118.791 184.445L118.44 184.891L118.006 184.923L117.765 185.112L117.524 185.715L116.827 186.067L116.911 186.943L116.597 187.216L116.429 186.187L115.209 185.6L114.45 185.127L113.921 184.031L113.738 182.97L113.397 182.803L113.025 182.105L112.879 181.076L112.376 180.31L112.182 180.425L111.988 180.247L111.365 178.552L110.821 178.526L110.7 178.678L111.014 180.116L110.857 180.919L110.229 179.596L109.841 179.339L109.894 179.596L109.883 180.058L109.506 179.654L109.475 179.182L109.202 179.098L108.862 178.358L108.432 177.99L107.898 178.085L107.725 178.541L106.49 177.649L106.259 179.098L106.029 179.218L105.149 178.452L104.735 178.426L103.541 175.923L102.771 174.889L102.237 175.146L102.295 175.807L101.97 176.033L102.258 176.857L101.734 176.977L100.854 176.211L100.509 176.505L100.263 176.337L100.247 175.986L99.8803 175.938L99.3776 175.277L99.2467 175.419L99.0634 176.127L99.0529 176.442L99.1524 177.313L98.5082 177.046L97.8117 175.928L98.105 175.613L98.0893 174.742L97.6546 174.201L97.6703 173.719L97.2513 173.204L97.267 172.931L96.7276 172.412L96.6386 171.263L96.2406 170.591L96.2563 170.134L95.4393 168.869L95.2979 167.951L95.0727 167.573L94.8213 166.66L94.8737 166.235L95.1094 166.13L95.2298 165.275L95.0937 165.007L95.1722 163.8L95.5283 163.275L95.4393 162.525L94.9994 162.394L95.2194 161.633L95.5179 161.554L95.4812 161.003L94.9208 160.604L95.1356 160.3L94.9366 160.053L95.3869 159.796L95.3817 159.617L94.9575 159.544L95.2089 159.098L94.6957 159.345L94.7794 158.757H94.5385L94.3238 158.993L93.9782 159.565L94.1772 159.906L93.7373 160.2L93.5016 160.153L93.5697 159.707L92.9831 159.833L92.7789 159.397L92.3547 159.245L92.0824 158.662L91.6425 158.022L91.4277 158.253L92.3285 157.041L92.7265 157.576L93.5749 157.881L94.3134 157.109L95.6017 156.878L96.4501 156.962L97.3404 157.943L98.016 158.279L98.5973 157.545L99.6709 157.964L100.106 157.251L100.886 156.831L101.63 156.747L101.939 155.897L102.761 156.385L102.975 156.243L103.761 156.569L104.222 156.018L104.861 156.322L105.845 156.196L106.668 156.768L106.647 155.482L106.165 155.11L105.468 154.034L104.421 151.688L104.321 151.231L105.096 150.754L104.625 149.19L103.923 148.319L104.264 148.119L105.421 149.111L105.311 149.589L107.228 150.985L108.071 151.205L108.6 150.308L108.726 149.652L110.213 148.907L110.187 147.416L109.857 146.125L109.537 145.894L109.485 144.687L109.674 144.43L110.643 143.874L111.14 144.372L111.245 144.939L113.004 145.296L112.832 144.866L115.183 144.189L115.403 144.446L116.728 143.365L117.299 142.415Z" fill="white" fill-opacity="0.1"/>
<path d="M208.603 51.894L209.185 51.6684L209.059 52.1197L209.431 52.1302L209.347 52.3453L209.583 52.4923L209.844 52.3453L209.771 52.6812L209.452 52.6235L209.263 52.9698L209.766 53.227L209.829 53.0328L210.033 52.9856L209.792 53.5261L210.127 53.8515L210.489 53.7833L211.347 53.0643L211.51 52.3453L211.73 52.3558L211.882 52.8072L212.301 52.8386L213.107 52.2666L212.573 53.0643L212.578 53.4212L212.793 53.311L213.238 53.7938L213.421 54.1454L213.453 54.5075L214.317 54.8906L214.752 54.7909L215.317 55.1425L215.354 55.3891L215.092 55.1215L214.553 55.4468L214.605 55.9087L215.129 56.6276L216.05 56.4912L217.501 56.7588L221.293 56.3547L223.649 56.5804L224.047 57.1996L224.294 57.1629L224.634 57.8714L225.247 58.0708L226.472 59.4825L227.048 59.5822L228.305 59.3565L228.834 59.9653L231.254 60.2487L231.358 60.5216L231.929 60.5425L231.835 61.0516L232.846 61.7076L233.422 61.6603L233.568 62.0644L233.83 62.2114L233.951 62.7099L234.668 63.198L234.804 63.5338L235.412 63.77L235.653 63.4551L235.024 62.9933L235.768 63.114L237.234 62.6522L237.245 62.9671L237.528 63.114L238.748 62.6837L239.612 61.0673L239.507 60.5478L238.596 59.9495L239.512 60.1857L239.617 59.5087L239.931 60.0807L240.329 59.9548L240.392 59.7396L241.136 59.9758L241.345 60.3956L242.555 60.3851L242.995 60.9519L243.063 61.1093L243.435 61.3455L244.55 61.3927L245.205 62.0907L245.776 62.1379L245.75 62.6679L246.064 63.0983L246.326 62.8149L246.703 63.0983L247.216 62.7572L247.441 62.9618L247.289 63.3712L247.525 63.5286L247.179 63.9904L247.405 64.1269L247.358 64.342L248.049 64.5677L248.023 64.9403L247.829 65.3339L248.127 65.6592L248.017 65.9164L248.515 66.2995L248.447 67.0657L248.986 67.6744L249.358 68.6243L249.306 71.4634L249.688 72.8121L249.725 74.0454L248.593 73.8512L247.934 72.98L246.551 73.6255L246.41 73.783L247.08 74.3183L246.829 74.4442L247.803 76.2127L247.316 76.4594L247.583 76.7743L247.216 76.7638L247.185 77.1836L245.807 77.7609L245.168 78.6792L245.299 78.9731L245.807 79.1411L246.163 78.5376H246.483L247.059 79.3195L248.871 79.0571L250.112 79.7288L250.206 80.1591L250.94 80.2169L250.505 81.1038L249.562 80.8624L249.327 81.7807L248.85 81.6653L248.269 83.9061L247.667 84.814L247.143 85.1132L247.483 85.5592L247.08 87.7896L247.609 87.7581L248.054 90.3663L252.286 88.0205L252.626 90.7441L252.27 91.2217L254.108 92.308L255.904 92.88L256.339 93.3576L256.91 94.6591L256.376 95.7454L256.706 96.1232L257.329 96.0445L257.57 97.6346L256.994 97.6661L256.763 99.4241L256.994 99.844L256.648 100.379L255.611 100.426L255.433 99.8177L254.936 99.4399L254.721 100.148L252.883 100.364L252.139 101.597L251.463 102.069L251.034 101.712L250.877 101.791L250.374 109.783L251.065 110.219L251.05 110.565L251.023 110.807L250.007 111.521L249.95 112.843L250.227 113.714L250.107 114.37L249.154 115.682L246.75 116.107L246.431 116.705L245.483 117.235L245.09 117.214L244.917 116.695L244.446 116.784L241.235 118.18L239.947 119.219L238.219 120.059L237.093 120.001L237.334 119.655L237.182 119.041L236.559 118.647L234.569 119.004L234.668 119.524L233.762 119.949L233.914 121.009L232.982 121.171L233.422 122.819L233.317 123.166L232.573 123.428L232.657 124.294L231.332 124.562L230.992 124.813L231.044 125.275L230.725 125.48L230.101 125.259L228.949 125.443L228.803 125.029L228.441 125.097L228.295 124.257L227.881 124.005L227.535 123.108L227.158 123.04L226.97 122.693L227.399 122.426L227.08 121.203L225.744 121.261L224.932 121.56L224.571 122.242L224.184 121.848L223.712 121.974L223.55 123.391L222.455 123.774L218.109 124.199L217.8 123.932L217.81 123.354L217.999 123.26L217.93 122.971L218.255 122.557L218.627 121.245L218.082 120.043L218.334 118.338L217.674 118.075L217.354 117.277L217.48 116.7L216.972 116.181L217.223 114.9L216.914 114.496L216.464 114.486L214.914 113.541L214.647 112.229L213.322 111.814L212.762 109.301L212.123 108.603L211.615 108.293L209.902 108.692L209.038 107.616L208.336 107.102L208.294 107.616L207.65 108.167L206.906 107.191L206.435 108.062L205.974 107.112L207.079 105.806L207.126 104.908L207.383 104.861L207.147 103.575L207.572 103.234L207.619 102.431L208.341 101.654L209.179 101.712L209.378 99.697L209.734 98.9623L209.876 98.6999L210.698 98.5477L211.128 97.8602L210.656 95.5721L210.389 95.7453L209.991 95.3885L209.122 96.0759L208.242 95.2048L207.236 95.1943L207.21 94.7692L207.755 94.4491L207.325 93.7774L208.116 93.41L208.629 92.245L207.619 91.5733L206.655 92.0193L206.535 91.3476L206.901 89.2484L206.011 89.3167L205.472 89.091L205.451 88.4088L206.158 88.1779L205.974 87.3435L207.598 87.0811L208.069 86.6822L207.655 85.9423L207.844 85.407L207.231 83.5177L207.472 82.993L206.938 80.4897L207.085 79.5818L206.723 78.0704L206.22 77.0838L205.231 76.0028L205.147 74.8692L204.571 74.3025L204.854 73.9404L204.592 73.4628L205.21 72.3397L205.178 71.9514L204.738 71.3846H204.424L204.298 70.5922L203.303 70.6919L202.644 70.524L201.868 64.5047L201.172 63.1927L201.219 62.8673L200.381 62.6312L200.47 61.9752L200.219 61.104L201.994 60.3693L202.465 59.5454L201.937 58.7425L202.884 58.0445L203.214 58.3594L203.9 57.8293L204.026 56.5016L203.665 55.9611L203.942 55.3104L203.602 53.9826L203.759 52.7127L204.293 53.5576L205.828 53.715L206.069 53.4683L206.597 55.0532L205.943 56.0083L205.922 56.6748L206.231 57.0369L206.917 57.3833L207.844 57.4148L208.802 56.9739L209.169 56.4019L209.221 55.578L208.959 55.2841L209.106 54.392L208.467 51.6001L208.603 51.894Z" fill="white" fill-opacity="0.1"/>
<path d="M65.2633 136.217L65.3052 136.637L64.6192 136.311L65.0172 135.986L65.2633 136.217ZM63.7812 134.989L63.4461 136.044L63.4094 135.64L62.8333 135.131L63.2313 134.994L63.1214 134.496L63.3256 134.359L63.8546 134.695L63.7812 134.989ZM54.8154 134.013L55.4386 134.359L55.3129 134.454L55.5329 134.879L55.271 135.204L55.2344 134.847L55.381 134.868L55.2029 134.59L55.0458 134.569L54.9097 134.616L54.6583 134.705L54.6845 134.506L54.7211 134.333L54.4593 134.301L54.8154 134.013ZM60.5447 131.258L60.7961 132.134L61.5974 132.459L61.7178 133.373L61.4979 133.582L61.5345 133.882L61.2308 133.21L61.2832 132.827L60.5186 132.318L60.1677 131.819L60.2672 131.289L60.5447 131.258ZM54.5954 130.255L55.0615 130.292L54.9777 130.675L55.5067 130.896L54.585 131.578L54.7159 131.73L54.5431 132.449L54.7578 133.052L55.1139 133.084L55.1663 133.362L54.9463 133.399L55.2291 133.792L55.0825 133.945L54.763 133.792L54.3702 134.118L54.4383 133.703L53.8884 133.876L53.7366 133.703L53.3438 134.144L53.5952 134.69L53.1395 134.632L52.9824 134.286L52.663 134.38L52.6368 134.858L52.4587 134.695L52.024 135.566L52.2859 135.776L52.3121 136.201L52.0712 135.923L51.6365 136.06L51.3589 135.697L51.6156 135.718L51.8303 135.057L51.4584 134.979L51.4637 135.524L51.317 135.388L51.0133 135.572L50.7933 135.351L50.4948 135.524L50.5577 134.958L50.2853 134.706L50.2906 134.506L49.8035 134.202L49.0808 132.444L49.5574 132.617L50.3325 133.798L50.6834 133.541L50.343 133.158L50.0916 133.194L50.0811 132.906L50.5524 132.963L50.4843 133.152L50.6676 133.299L51.5318 132.885L51.7151 132.444L51.7203 131.079L52.0188 131.205L52.4011 130.744L52.6525 130.733L52.9981 131.205L53.5742 131.321L54.5954 130.255ZM64.4359 130.066L64.8967 130.901L64.3311 132.313L63.8703 131.793L64.2735 131.504L64.2316 131.132L64.5563 131.21L64.0064 130.087L64.4359 130.066ZM67.3005 129.2L67.4891 129.458L68.0599 129.573L68.0966 130.061L67.84 129.977L67.1539 130.476L66.7611 130.093L66.5988 129.279L67.0335 128.917L67.3005 129.2ZM61.0527 119.964L61.4665 120.09L61.744 120.678L61.9535 120.515L62.0006 120.72L62.98 121.239L63.2313 122.394L62.6919 123.029L62.6553 123.349L61.6288 122.163L61.6131 120.804L61.0004 120.321L61.0527 119.964ZM40.8272 105.128L41.2985 105.102L42.1365 105.742L43.9537 105.134L45.9595 106.614L46.1166 106.96L45.6191 107.28L45.3992 109.243L45.75 110.151L45.6191 110.759L45.8914 111.08L45.7605 111.62L46.5566 112.801L47.8134 113.131L48.7456 112.68L48.908 112.943L49.8192 113.163L50.3325 113.557L50.8248 113.536L51.3799 113.845L51.9821 113.64L52.6892 114.092L52.8986 113.919L52.6734 113.667L53.1029 113.221L53.7575 113.819L54.255 113.808L54.1817 114.155L54.7892 114.743L54.7578 115.362L55.2553 115.524L55.4334 115.892L55.9047 115.362L56.1142 115.603L56.1456 115.189L56.3184 115.178L56.2085 115.614L56.4336 115.545L56.2922 115.881L56.7531 115.787L56.9626 115.96L57.9314 115.215L58.1619 115.294L57.5649 116.285L57.8634 117.067L58.8584 117.755L58.7746 118.064L57.9419 117.996L57.8477 118.458L58.0414 118.526L58.1619 119.24L59.2721 120.531L59.6911 121.617L60.2881 121.995L61.0266 121.785L61.2517 122.467L62.1578 123.401L62.3515 123.874L62.1578 124.084L62.5139 124.65L62.2154 125.123L63.4356 126.403L63.5822 126.865L63.378 127.164L64.504 129.232L63.975 129.856L62.362 130.502L62.0949 128.361L61.6602 128.618L61.6183 128.975L61.0161 129.321L60.9009 128.948L60.2357 128.429L59.4659 128.025L58.9579 127.993L58.8741 128.308L58.3504 128.397L58.2247 128.744L58.9108 129.867L58.7222 130.318L57.7272 129.893L57.3868 129.316L57.5072 128.969L57.413 128.786L57.2244 128.912L57.0778 128.471L56.7583 128.901L56.7636 129.153L57.1878 129.248L56.994 130.035L56.6798 130.276L56.9731 130.297L57.0464 130.654L56.8526 130.853L56.3918 130.644L56.1875 130.019L55.3862 129.961L54.1817 129.347L54.1398 130.156L52.8306 130.365L52.6158 130.675L52.3173 130.271L51.7046 130.528L51.4323 130.874L50.9819 131.027L50.94 131.504L50.6258 131.305L50.4896 130.874L50.1439 131.153L50.0811 130.953L49.725 130.964L49.5312 131.205L49.8297 132.003L49.3636 131.688L49.2013 131.604L49.3322 131.231L49.0756 131.347L48.8713 131.656L48.9761 132.082L48.5519 132.507L49.0127 132.69L49.2222 133.719L48.8085 133.43L48.3738 132.549L47.7663 132.234L47.8501 132.827L47.3735 133.079L47.1326 133.75L47.2478 134.228L46.7765 135.052L46.8603 135.204L47.2636 135.298L47.5359 135.577L47.0907 136.007L47.1431 136.248L46.9074 136.28L46.8655 136.799L45.284 139.922L44.5246 142.63L44.357 142.546L43.1682 143.092L41.7489 143.008L40.6125 143.496L39.5284 143.669L37.6902 142.95L37.3027 143.228L37.2241 142.971L35.0979 141.858L35.4226 141.732L35.3283 141.166L34.6946 141.108L34.5166 140.877L34.9408 140.751L34.4694 140.541L34.4851 140.247L35.0245 140.399L35.2602 140.027L36.1715 140.121L36.5066 139.959L36.5747 139.45L35.962 138.615L35.4959 138.463L35.6949 138.164L35.3545 137.597L34.5951 137.356L34.2861 137.492L34.3385 137.177L34.6213 137.214L34.7679 136.889L35.1712 136.763L35.3335 135.96L35.2078 135.309L34.857 134.81L34.2338 134.648L33.7205 134.092L33.4377 134.071L33.5791 133.514L34.3333 133.016L34.4013 132.711L33.9876 132.396L34.1081 132.223L32.9245 132.197L34.1081 131.872L34.1604 131.583L33.6577 131.615L33.9929 131.315L34.1395 130.213L33.951 128.828L33.7258 128.308L33.2754 128.051L33.3068 127.726L32.9821 127.631L33.113 127.191L32.626 126.115L31.0234 124.163L29.4785 123.48L27.6351 123.884L27.2947 124.278L27.3313 124.703L27.0537 124.509L26.7186 124.866L26.5143 124.782L26.5876 124.483L25.5088 123.942L24.6028 124.367L24.5504 124.745L24.2781 124.95L23.0474 124.871L22.7122 125.139L22.2357 125.044L21.8167 125.275L20.9997 125.123L20.9212 124.892L19.9523 124.997L19.7114 124.498L19.4548 124.267L19.1353 124.304L18.8368 123.806H18.334L18.135 122.583L15.726 121.675L14.6995 121.581L14.4586 121.166L14.0554 121.428L13.3379 120.62L13.7411 120.342L13.9192 119.639L13.5317 119.324L14.0554 119.062L14.6681 119.209L14.9352 118.999L14.9928 118.951L15.6631 118.747L15.7784 119.035L16.5849 119.382L17.9517 119.245L18.4388 119.639L21.5234 120.043L22.2304 119.765L23.215 119.87L23.9167 119.214H24.2991L25.0165 118.721L26.0639 119.088L26.8652 118.579L28.8762 119.597L29.1852 119.838L29.9498 120.127L31.0287 119.954L31.9399 118.941L32.3432 118.044L32.4165 117.319L31.9137 117.031L31.9085 116.711L32.4427 116.7L32.7883 117.388L33.2754 117.723L33.8567 117.54L33.7362 116.8L34.0766 117.351L34.6999 117.167L34.5637 116.716H34.2076L33.1968 115.126L33.1444 114.171L34.3699 114.575L34.6265 114.517L34.7313 114.297L35.0088 114.538L34.9827 114.722L34.8622 115.031L35.5797 115.546L36.3181 114.995L35.7996 115.042L35.7368 114.711L35.344 114.433L35.3859 114.076L36.0615 113.509L35.3859 113.189L35.763 112.948L35.3911 112.523L35.8415 112.58L35.1293 112.04L35.3911 111.972L35.1921 111.269L34.9827 111.211L35.1921 111.038L35.6687 111.311L35.7263 110.99L36.2291 111.279L37.1456 111.405L38.0044 111.909L37.8997 111.457L38.2611 111.4L38.2506 111.069L37.9364 111.011L37.9154 110.801L37.7635 110.471L38.8476 110.439L39.0519 110.66L39.5127 110.523L39.6751 110.66L40.1831 110.13L40.1254 107.71L40.492 105.244L40.3925 104.777L40.8272 105.128Z" fill="white" fill-opacity="0.1"/>
<path d="M83.132 129.662L84.2579 130.539L84.7921 130.56L84.745 130.812L84.6821 131.436L84.4412 131.515L83.9699 131.389L83.7866 131.861L82.9853 131.111L82.8544 130.476L82.6187 130.323L82.6502 129.898L82.933 129.757L82.8858 129.547L83.132 129.662ZM80.8434 129.059L81.0948 129.253L81.0686 128.975L81.3252 128.964L81.1838 130.129L80.9638 129.599L80.4244 129.08L80.702 128.618L80.8434 129.059ZM80.3144 128.172L80.3825 128.739L80.2097 128.922L79.665 128.203L79.9897 128.02L80.3144 128.172ZM74.9046 118.768L75.1297 118.747L75.5278 119.497L75.0512 119.529L74.9831 119.193L74.6794 118.988L74.7631 118.526L74.9046 118.768ZM73.9933 118.516L74.6008 118.873L74.1557 118.768L74.0352 119.009L73.8362 118.615L73.8833 118.421L73.9933 118.516ZM80.2516 117.938L80.4035 118.143L80.1783 119.948L79.9164 119.592L80.084 118.899L79.8955 118.427L80.0212 118.001L80.2516 117.938ZM70.7935 109.657L72.0242 110.119L72.2022 110.098L72.2755 109.699L73.5743 110.124L73.4067 110.78L73.9357 110.791L74.3808 111.305L74.3651 111.767L74.7893 111.688L74.9779 110.828L75.1664 111.321L75.4283 111.41L75.7006 110.523L76.1824 110.119L76.6171 110.99L76.8632 110.843L76.9156 110.507L77.1617 110.298L77.3555 110.481L77.4602 110.103L78.1306 110.749L78.3715 111.484L78.9266 111.578L78.8638 112.003L79.2251 112.218L79.1623 112.838L80.3301 114.265L79.7122 116.034L79.3561 115.997L78.7433 115.503L78.4239 115.183L78.0782 115.54L77.5283 115.393L77.5702 114.69L77.366 114.874L77.2874 115.587L77.4864 115.908L77.1931 116.438L76.8842 116.117L76.5909 116.417L76.4285 116.033L76.1248 116.401L76.1091 115.929L75.753 116.322L75.3549 116.207L75.3706 117.057L75.5016 117.503L76.5752 117.849L76.5176 117.896L75.334 117.791L73.8048 115.981L72.8516 115.372L72.5898 115.341L71.9456 115.146L71.799 115.435L71.7361 116.458L72.0608 117.193L71.7361 117.172L71.4795 117.02L71.2438 117.009L70.8354 116.401L70.4688 116.238L70.5683 117.55L70.275 117.644L70.1126 116.805L69.9189 116.883L69.8298 117.529L69.5156 117.608L69.2904 117.492L68.5572 115.976L68.84 115.655L69.4999 115.829L69.5104 115.194L69.3009 115.167L68.861 115.02L68.1697 114.102L68.0492 113.425L67.3894 113.215L67.3475 112.858L66.9442 112.454L66.7871 111.169L66.9756 110.649L67.2637 110.67L67.4732 110.324L67.4365 109.725L68.0231 110.045L68.2744 109.977L68.8557 109.521L69.2119 108.796L70.1493 109.069L70.5421 109.494L70.7935 109.657ZM93.9255 89.5474L94.0984 89.5841L93.9989 89.836L94.2921 89.8833L94.2503 90.4081L94.5331 90.7387L95.6171 91.3894L96.3713 91.2845L97.3611 90.576L97.4396 93.5778H99.9115L99.9482 96.695L102.42 96.6163L103.049 97.5557L102.965 98.1697L104.08 98.0227L106.316 101.067L106.547 100.473L107.27 100.253L107.636 100.536L108.27 99.9959L112.564 100.395L114.025 100.83L116.759 102.42L116.874 103.187L116.387 103.921L115.974 103.979L116.387 104.882L115.953 105.039L116.712 105.942L116.722 106.288L118.163 107.159L118.283 107.952L118.775 108.067L118.974 108.356L115.073 112.224L115.005 113.305L115.377 114.59L114.91 116.007L114.24 116.569L114.984 118.033L114.806 118.285L114.952 118.789L115.314 119.607L116.22 120.772L117.429 121.35L117.141 122.226L117.45 123.15L117.079 123.874L117.927 124.241L118.246 124.089L118.351 124.572L117.969 124.839L117.854 125.244L118.65 125.795L118.55 126.524L118.377 126.618L119.42 127.311L119.158 128.083L119.797 127.794L120.069 127.967L120.31 128.67L120.017 129.893L117.833 129.547L117.482 129.862L117.759 130.161L117.733 130.591L117.608 131.216L117.011 132.223H117.283L117.843 133.32L118.922 133.352L118.99 133.897L117.539 134.196L117.529 134.406L116.152 135.54L115.748 136.259L114.989 136.175L114.664 136.453L114.518 137.371L114.638 137.592L114.889 137.335L115.204 138.017L115.523 138.096L116.372 137.655L117.016 138.557L117.676 137.65L118.257 137.266L118.723 137.928L119.111 138.867L118.676 139.177L118.624 139.722L117.314 142.451L116.675 143.302L115.35 144.383L115.13 144.125L112.779 144.802L112.952 145.233L111.192 144.881L111.087 144.32L110.59 143.821L109.621 144.377L109.432 144.634L109.485 145.841L109.804 146.072L110.134 147.363L110.16 148.854L108.673 149.599L108.547 150.255L108.018 151.152L107.175 150.932L105.259 149.536L105.369 149.058L104.211 148.067L103.871 148.266L104.572 149.137L105.044 150.701L104.269 151.179L104.368 151.635L105.416 153.981L106.112 155.057L106.594 155.429L106.615 156.715L105.793 156.143L104.808 156.269L104.169 155.965L103.708 156.516L102.923 156.19L102.708 156.332L101.886 155.844L101.577 156.694L100.833 156.778L100.053 157.198L99.6182 157.912L98.5446 157.492L97.9633 158.227L97.2877 157.896L96.3974 156.915L95.549 156.831L94.2607 157.061L93.5223 157.833L92.6739 157.529L92.2759 156.993L91.3751 158.206L90.6629 157.948L91.0452 157.282L90.4167 156.899L90.202 157.04L90.0554 156.841L89.694 157.334L90.0344 156.028L89.8354 155.629H89.5788L89.6573 155.896L89.3169 155.802L89.2646 155.44L89.6416 155.041L89.5526 154.553L89.8302 154.516L90.1653 153.771L89.1703 153.782L89.0708 152.763L88.8299 152.533L88.2486 152.742L88.2905 153.047L88.9661 153.745L88.7775 154.758L88.3324 154.999L88.4476 155.324L88.9399 155.356L88.6675 155.603L88.8927 155.928L88.6152 156.489L88.17 156.747L88.3638 155.776L88.1805 155.545L88.0129 155.765L87.5468 155.477L87.3059 155.335L86.7822 155.45L86.4418 155.87L85.9286 154.868L86.4104 154.48L86.9707 154.422L86.8817 153.955L87.3269 152.601L87.4787 152.753L87.6777 152.889L87.9291 152.622L87.7825 152.181L87.5416 152.113L87.2326 152.428L87.1383 152.275L87.3635 150.691L87.1121 150.67L86.578 149.316L86.1904 148.093L86.4732 147.741L85.9757 146.797L86.3161 145.06L85.8081 144.802L86.0752 144.162L85.5986 143.952L85.7034 143.543L85.2634 143.464L86.6827 143.113L86.6984 142.625L86.3894 142.252L86.5937 141.68L87.4997 142.399L89.4007 141.979L89.8145 141.454L89.6678 141.37L89.3693 141.218L88.7094 140.924L88.3167 140.368L87.8715 140.494L87.8506 140.142L87.3845 140.2L87.7196 139.308L87.154 139.051L87.1436 138.809L88.081 138.668L90.0763 139.896L90.8619 139.827L91.9878 139.177L92.6477 139.397L92.9619 139.051L93.4699 139.502L93.8679 139.455L94.1874 139.151L93.559 139.046L93.7737 138.08L94.3079 138.369L94.6168 137.849L95.2872 138.174L95.659 138.048L95.6433 137.791L96.3189 138.337L96.7117 138.164L96.9526 138.279L97.5077 138.883L97.7748 138.804L97.8952 138.5L98.2461 139.171L98.5813 139.056L98.3875 139.602L98.8274 139.565L98.8641 139.98L99.2097 139.896L99.2569 139.696L99.5868 139.754L99.6916 140.111L99.0212 140.132L99.9325 140.478L100.037 140.153L100.812 139.549L101.504 139.864L101.765 137.891L101.582 137.776L101.236 137.996L100.996 137.812L101.216 137.277L99.6863 137.587L99.1888 137.282L99.2412 137.062L99.5606 137.235L99.812 137.109L99.3669 136.574L99.3302 136.007L99.5083 135.797L99.1678 135.288L99.2464 135.01L99.6863 134.858L99.7596 134.385L99.4349 134.27L98.9584 134.942L98.5184 135.047L98.2723 134.858L98.2828 134.553L97.9162 134.417L97.5234 134.217L97.2458 133.813L96.8321 133.824L96.5127 134.023L95.9575 134.779L95.2924 135.199L94.4126 134.837L93.8627 135.068L93.6532 134.648L93.3023 134.59L93.0091 134.186L92.5325 134.322L91.9774 134.134L90.1025 134.653L89.5945 135.393L88.6937 135.787L88.3062 135.808L86.7194 135.089L85.3525 135.403L84.8288 135.797H84.6717L84.5146 135.608L84.1061 135.745L83.5824 136.395L83.3415 136.464L83.132 136.254L83.7604 135.629L84.0118 134.942L83.8652 134.511L83.708 134.742L83.5981 134.569L83.6085 133.756L84.1689 134.055L84.6455 133.929L84.3365 133.698L84.6821 133.504L84.6664 132.958L85.054 133.189L85.4939 132.727L84.9545 132.15L85.0278 130.764L85.5777 131.352L85.2477 131.373L85.4625 132.066L86.0071 132.097L86.5308 132.675L87.3897 132.234L87.463 131.919L87.5154 131.709L87.683 131.567L87.1383 131.163L87.3059 130.119L87.0493 129.416L86.07 128.303L85.9181 128.707L85.3473 127.862L85.1482 127.7L85.1849 127.007L84.6088 125.837L82.9958 124.441L83.0744 124.073L83.5195 124.477L83.6976 123.381L83.5614 123.055L83.1006 122.908L82.8492 123.349L82.4459 122.966L82.1369 123.013L82.1265 122.725L82.3359 122.562L82.116 122.179L82.5559 121.045L82.2993 120.032L82.3674 119.723L82.2836 119.502L82.226 119.251L82.9749 119.618L83.3153 119.193L83.6295 119.056L83.9542 119.733L84.6298 120.158L85.5567 119.733L85.6143 119.502L86.1014 119.445L86.4156 119.062L86.756 119.051L87.1069 119.429L87.374 119.35L87.2169 118.327L87.0074 117.949L86.7089 117.209L87.1593 117.356L87.6673 118.274L88.1386 118.39L88.5576 118.92L89.097 118.715L89.2593 118.39L89.7045 118.18L90.4115 118.385L90.422 117.891L90.5948 117.681L90.998 117.671L91.2285 117.393L91.129 117.046L90.1968 116.044L90.9142 116.527L91.1499 116.432L91.1028 115.992L91.6265 116.485L91.7836 116.128L92.0612 116.264L92.2183 116.102L93.1295 117.288L93.7004 117.377L93.8575 116.868L93.6008 116.396L94.0565 116.406L94.0722 115.855L93.8418 115.566L94.0931 115.278L93.8522 115L93.4542 115.068L93.4071 114.748L93.0824 114.538L93.4333 114.144L92.8781 114.123L91.9983 113.352L92.1135 113.142L92.6006 113.336L92.6477 112.99L91.8255 112.355L91.7207 112.035L91.9512 111.909L91.2599 111.263L91.0556 111.426L91.4118 112.124L92.234 112.906L91.2913 113.389L91.7417 114.643L92.1711 115.194L92.1607 115.755L91.1447 114.59L90.8462 113.473L90.4324 113.682L90.1287 113.557L90.092 113.006L89.5002 113.179L89.3588 115.593L89.7411 115.923L89.3955 116.684L89.0708 116.647L88.8456 116.59L88.5209 116.327L88.5314 116.836L88.1543 116.422L87.3321 116.191L86.269 115.372L85.1325 115.902L84.5355 115.834L83.1791 114.8L82.9801 114.538L82.9539 114.26L82.1212 113.441L82.2679 113.121L81.718 112.512L81.2047 111.142L81.2676 110.891H81.5556L82.2364 111.557L82.6083 111.52L83.0639 111.793L83.0429 111.127L83.2367 111.158L83.441 110.938L83.0691 110.261L83.2786 109.788L83.6033 110.004L83.6085 109.809L83.2943 109.626L82.8911 110.004L82.4093 109.647L82.7025 108.623L82.4616 107.49L82.7444 106.251L83.3572 106.582L83.8652 106.446L84.9335 106.661L85.0121 106.362L85.3577 106.393L85.342 105.763L85.8762 105.559L86.3842 104.478L86.5937 104.42L87.6987 105.107L88.0129 104.887L87.2064 102.127L87.1907 101.623L87.5416 100.967L86.9393 100.463L86.5256 97.6134L86.2428 97.2146L85.5515 96.8472L85.2268 95.3149L85.4887 93.4309L86.2271 93.3521L86.4942 92.9166L86.5308 91.6361L87.2954 91.909L87.8925 92.7959L89.8459 92.7591L91.1656 92.1189L92.0297 91.148L92.8153 90.9644L93.3495 90.1299L93.9255 89.5474ZM79.0733 84.1001L80.7125 84.6249L81.7389 85.5905L82.315 86.5246L81.5137 86.5351L81.4299 86.7608L81.7389 87.1701L81.2309 86.8395L80.8957 85.9421L80.2987 85.622L79.9897 85.643L79.775 85.7899L78.869 84.3992L78.8638 84.1264L79.0733 84.1001Z" fill="white" fill-opacity="0.1"/>
<path d="M213.76 197.071L214.734 197.554L215.782 197.187L216.08 197.995L216.389 197.328L216.593 197.496L217.479 197.035L217.714 197.664L220.689 198.026L223.773 198.11L224.444 195.917L224.81 196.058L225.743 195.917L226.638 196.368L228.576 192.579L229.807 193.193L230.362 192.878L230.508 193.109L230.388 193.398L230.613 193.56L230.917 194.547L230.843 195.313L231.44 195.03L231.969 195.423L233.273 194.416L234.206 194.306L234.703 193.419L236.033 193.172L237.934 193.476L238.49 193.965L238.511 195.067L240.134 195.649L240.144 196.924L241.082 196.793L241.202 197.318L240.433 197.57L240.354 198.598L239.626 199.69L239.741 200.545L238.903 201.474L238.552 202.435L238.788 202.718L238.699 203.762L238.877 203.411L239.322 203.479L239.008 204.182L239.102 204.975L239.621 205.19L239.547 206.738L239.176 206.775L239.118 207.819L238.71 207.845L238.448 208.381L238.799 209.393L239.39 209.808L238.956 210.123L239.144 210.396L239.139 210.8L238.867 211.062L238.94 211.97L238.343 212.542L238.401 212.815L238.055 212.757L237.673 213.266L236.882 212.957L236.751 213.209L235.688 213.408L235.421 213.098L234.97 212.993L234.347 213.518L234.289 214.452L233.96 214.484L233.729 214.174L232.776 214.195L231.629 214.841L231.121 214.736L230.843 214.248L230.456 214.316L229.901 215.455L230.718 216.132L230.634 216.814L230.927 217.208L230.885 217.843L229.99 218.656L229.691 219.9L228.633 220.293L229.293 220.913L229.545 220.797L229.89 221.154L231.032 221.212L231.886 222.503L230.796 223.237L230.749 223.573L231.095 224.156L230.99 224.723L231.556 225.898L231.545 226.234L230.859 227.047L231.09 227.121L231.168 227.803L231.645 227.792L231.917 228.128L232.032 229.173L232.179 229.288L232.378 228.916L232.912 228.774L233.237 228.921L233.881 228.296L234.289 228.27L234.897 228.784L234.871 229.876L234.211 230.096L234.52 230.338L234.478 231.151L234.792 231.776L234.242 231.959L233.897 232.521L233.289 232.353L233.059 232.699L232.75 232.631L232.572 233.256L233.059 233.665L233.614 234.709L233.63 235.659L233.881 235.685L234.242 235.056L234.541 235.092L234.53 236.021L234.787 235.853L235.086 236.079L235.316 237.27L234.824 238.005L233.556 239.091L232.195 241.295L234.981 243.636L233.467 246.438L233.169 246.139L232.975 246.333L232.813 246.171L232.598 246.585L234.462 246.753L234.033 247.803L233.593 248.238L231.132 248.6L230.252 248.543L227.439 247.504L226.921 247.965L226.497 247.929L226.219 247.409L225.968 247.33L225.994 247.058L225.743 247.047L225.716 246.632L224.58 246.732L224.386 246.365L223.936 246.139L223.423 244.979L222.517 244.229L222.365 242.948L222.637 242.529L222.244 241.731L221.92 241.547L222.339 241.311L222.239 240.576L221.631 240.456L220.998 239.926L220.846 238.619L220.034 238.052L219.301 237.9L219.699 237.26L220.259 235.465L219.914 234.888L218.819 234.085L217.447 233.78L216.965 233.061L217.227 232.531L216.991 232.111L214.169 230.637L213.09 231.009L212.126 230.18L211.267 230.527L211.184 230.07L211.55 229.734L211.377 228.606L211.786 228.081L212.001 226.46L212.865 224.649L213.09 223.752L213.032 222.912L212.032 222.723L211.393 223.006L210.765 221.92L210.299 221.778L208.377 223.143L206.879 222.461L205.182 222.587L204.658 222.891L204.669 222.146L204.271 221.91L204.093 221.212L203.297 222.015L201.233 221.464L199.662 218.142L199.767 217.47L199.227 216.966L197.84 216.572L197.185 215.932L196.719 216.095L196.357 216.982L195.619 217.696L194.472 217.659L194.32 216.929L193.388 216.971L192.733 216.572L192.592 215.943L191.927 215.045L189.586 213.948L190.083 212.6L191.435 209.834L191.545 209.141L191.906 208.858L190.764 206.092L191.173 205.562L191.916 205.819L192.063 205.646L194.174 205.562L194.634 205.694L194.902 206.381L195.446 205.93L195.912 205.111L196.363 205.022L196.509 204.523L197.117 203.872L197.237 203.274L197.63 203.196L197.939 202.718L197.415 202.057L198.882 201.983L199.065 202.172L199.583 201.842L199.898 201.338L200.28 201.59L200.521 200.76L201.06 200.656L201.296 200.902L201.249 200.293L201.731 200.367L201.94 199.942L202.291 199.895L202.165 199.302L202.982 199.323L203.071 198.981L202.851 198.656L202.71 197.523L202.49 197.554L202.118 198.672L201.94 198.709L201.835 198.289L201.778 197.386L202.804 197.176L202.726 196.704L203.417 196.583L203.249 195.707L202.919 195.597L202.668 194.867L203.784 194.862L204.663 195.198L205.339 195.885L205.721 196.903L206.25 197.554L206.47 199.323L207.921 199.548L208.397 199.407L209.152 198.934L209.183 198.373L211.11 197.885L211.136 197.318L211.503 197.103L212.467 197.245L213.76 197.071Z" fill="white" fill-opacity="0.1"/>
<path d="M218.008 124.136L222.355 123.711L223.444 123.323L223.612 121.911L224.083 121.785L224.471 122.179L224.832 121.497L225.644 121.198L226.979 121.14L227.299 122.363L226.869 122.63L227.063 122.977L227.44 123.045L227.786 123.942L228.199 124.189L228.346 125.029L228.713 124.96L228.854 125.375L230.006 125.191L230.635 125.412L230.954 125.212L230.902 124.75L231.242 124.499L232.567 124.231L232.483 123.365L233.227 123.103L233.332 122.756L232.897 121.108L233.829 120.946L233.677 119.886L234.583 119.461L234.484 118.941L236.469 118.584L237.092 118.983L237.244 119.597L237.008 119.943L238.134 120.001L239.868 119.167L241.156 118.122L244.366 116.726L244.837 116.637L245.01 117.157L245.403 117.178L245.555 118.017L245.99 118.054L246.901 118.973L246.43 120.111L247.157 120.657L247.278 121.486L246.864 121.659L246.875 122.615L247.226 124.22L247.823 125.039L249.294 124.52L251.661 124.357L251.944 123.459L252.892 123.816L254.751 123.895L255.998 124.771L256.584 126.125L257.171 126.068L257.385 126.451L269.556 126.509L276.417 127.432L282.392 129.652L277.946 133.966L279.271 140.195L266.629 144.561L266.55 144.252L266.199 144.063L263.906 145.107L263.764 145.333L264.22 145.842L263.722 146.97L262.895 146.519L262.167 146.928L262.036 147.553L261.329 147.878L260.957 147.61L259.957 148.067L260.02 148.697L260.763 148.518L261.078 149.111L260.716 149.825L261.025 151.016L261.476 151.363L261.397 152.543L260.559 152.564L260.24 152.281L260.187 151.504L259.863 150.964L259.365 150.78L259.208 150.486L258.836 150.686L258.993 151.284L258.794 151.352L258.328 150.817L258.208 151.231L257.972 151.278L256.438 149.846L253.568 148.717L253.039 148.786L252.326 152.9L252.489 154.207L251.221 154.291L251.441 155.094L250.347 155.246L250.342 155.482L249.844 155.692L249.755 155.996L248.634 155.666L247.775 156.322L246.969 155.797L246.875 156.658L245.895 157.335L245.539 157.371L245.047 156.684H244.675L244.219 155.681L242.989 154.91L243.329 155.587L242.36 156.6L242.151 157.277L242.088 158.305L242.554 158.835L242.062 159.324L240.952 159.497L240.501 159.979L239.485 159.334L238.218 158.017L237.411 158.809L236.992 158.447L236.683 158.531L236.081 158.153L236.092 157.865L236.835 157.791L237.165 157.02L234.918 157.277L234.306 157.817L234.882 158.179L234.505 158.673L234.117 158.694L233.017 157.865L232.185 158.143L231.855 157.697L231.184 157.943L230.656 158.61L230.399 158.563L229.828 160.132L230.111 160.725L229.252 160.226L229.037 158.82L228.047 158.19L227.21 158.132L226.78 158.998L225.487 159.392L221.176 162.625L220.286 162.084L219.448 162.703L218.401 161.606L217.914 162.168L218.207 162.352L217.772 162.661L217.893 163.176L217.641 162.966L217.647 163.37L217.395 163.349L217.657 163.863L217.442 164.178L214.766 161.302L214.174 161.78L211.446 159.429L211.216 156.122L210.027 156.999L209.089 156.101L208.581 156.217L208.592 155.256L207.984 154.921L208.262 154.522L208.162 154.312L208.466 154.149L208 153.383L208.047 152.974L206.654 152.701L204.538 151.478L203.679 151.399L201.831 152.05L200.631 151.992L198.196 151.457L197.793 150.712L198.39 150.607L198.762 149.909L199.61 149.893L200.139 148.975L199.856 147.091L198.73 146.891L199.296 146.178L199.469 145.485L199.563 143.659L199.286 143.239L199.684 142.52L200.05 140.914L200.611 141.045L200.71 140.442L201.139 140.384L202.192 139.45L202.26 139.124L202.082 139.035L202.281 138.626L201.867 138.143L201.815 137.55L202.569 137.366L203.454 137.666L203.533 137.256L204.35 136.668L204.135 136.333L204.219 135.482L205.02 135.372L206.214 136.191L206.665 137.456L208.639 136.033L208.707 134.328L208.361 133.745L208.435 133.179L207.995 132.008L208.67 131.331L208.848 131.4L208.875 131.153L209.173 131.085L209.66 131.536L210.514 131.4L210.943 130.938L210.791 130.334L211.006 129.778L211.608 130.103L212.101 130.019L212.645 129.537L212.734 129.684L213.457 129.421L214.363 129.521L214.578 129.3L216.489 129.248L216.777 129.017L216.489 127.075L215.992 126.692L216.453 126.125L216.515 125.338L216.845 125.317L217.291 124.646L217.5 124.96L217.982 124.981L218.202 124.614L218.008 124.136Z" fill="white" fill-opacity="0.1"/>
<path d="M115.372 114.585L116.032 114.417L115.906 113.725L116.975 113.184L118.383 110.886L119.227 111.521L119.635 110.896L120.693 110.245L121.934 111.888L122.531 111.998L123.573 111.206L124.207 111.185L124.616 111.447L124.731 112.371L125.543 112.728L125.684 112.297L125.338 111.3L125.616 110.964L125.872 111.174L126.349 110.896L126.38 110.287L126.15 110.298L125.956 109.81L126.302 109.29L126.784 109.075L126.946 108.314L127.323 108.603L127.475 108.267L128.072 108.073L128.234 108.466L129.146 107.968L128.622 107.191L128.816 106.881L128.721 106.435L128.041 106.766L127.878 106.535L128.501 106.01L128.135 105.276L128.36 104.62L129.146 105.207L129.502 105.228L129.685 104.793L132.911 104.704L133.953 104.126L135.294 103.822L137.855 104.184L138.389 104.567L138.976 104.326L139.127 104.462L139.133 101.597L138.415 101.655L138.237 100.936L137.583 100.421L139.405 99.8125L138.441 98.532L138.504 97.7186L139.007 96.4066L138.986 95.0107L140.416 95.2941L141.746 93.9506L142.196 92.7384L142.741 92.8643L142.888 92.3028L144.15 92.3185L144.37 92.5127L145.035 92.1453L145.391 92.6596L145.684 92.7856L146.014 92.6124L146.26 93.0585L146.459 92.9798L146.271 92.434L146.789 91.9879L147.748 93.2527L148.156 93.0795L148.261 93.2999L148.675 93.3209L149.115 93.7775L149.366 94.4754L149.921 94.5332L150.188 92.0404L152.152 92.0771L152.492 91.7675L153.828 91.4946L155.237 91.841L156.038 91.5156L155.661 93.662L155.666 95.1944L155.75 95.8924L156.651 95.6982L156.687 97.7868L156.933 97.9023L156.698 98.4848L158.552 99.5134L159.416 99.6184L159.725 99.2877L160.385 100.038L160.987 99.6656L161.296 100.647L162.055 101.413L162.176 102.022L163.391 103.476L165.585 104.278L166.952 104.247L167.308 103.958L167.696 104.704L168.256 104.473L169.303 105.218L169.733 105.129L170.471 105.402L169.769 106.126L169.55 106.787L170.602 108.477L170.005 108.797L170.571 109.762L170.419 110.051L172.053 110.345L172.121 110.539L171.718 110.476L171.634 110.922L172.933 110.943L173.399 111.326L173.514 111.185L173.886 111.311L174.08 111.647L173.598 112.024L174.2 112.344L174.383 112.749L175.048 112.854L174.918 113.279L175.075 113.793L175.336 113.677L176.656 114.323L177.039 114.071L176.74 114.591L174.745 115.703L175.981 117.603L175.525 121.093L173.273 122.441L172.776 124.189L172.367 124.278L172.21 124.729L172.556 124.903L172.964 125.952L173.477 126.094L173.613 125.921L174.294 126.818L173.802 127.117L174.132 127.595L173.587 128.183L173.011 129.348L173.383 129.904L172.268 130.728V131.221L171.519 132.313L171.314 132.402L170.476 131.977L170.157 132.659L170.655 134.081L171.079 134.281L171.964 135.913L171.142 136.38L171.178 137.351L170.403 139.103L170.497 139.996L168.701 140.164L168.083 140.589L166.753 140.221L164.323 140.032L164.192 139.707L163.616 139.623L163.888 139.975L163.166 140.51L162.93 141.365L162.029 141.601L161.542 141.428L161.558 140.951L161.045 141.029L160.704 141.575L160.008 141.423L159.62 142.378L159.018 142.452L158.887 142.677L158.635 143.816L158.128 144.005L157.745 145.784L157.373 145.8L157.033 146.12L156.598 145.962L156.687 145.737L156.347 145.228V144.561L156.132 144.472L155.912 143.438L155.813 142.168L156.41 139.245L155.635 138.316L154.776 138.038L154.687 137.645L154.016 137.435L153.66 137.015L152.231 137.923L151.461 139.103L150.633 139.313L150.288 138.873L149.01 139.292L148.015 138.605L147.449 138.537L146.826 137.849L146.025 138.164L144.763 137.571L143.495 140.059L140.877 141.318L140.426 141.748L139.007 141.958L138.934 141.475L138.703 141.413L138.782 141.113L139.615 140.279L138.363 138.93L137.912 138.652L137.556 138.689L137.059 139.035L136.645 139.833L134.697 140.951L134.22 143.333L133.534 144.194L132.084 144.619L131.377 145.049L130.046 146.02L129.853 146.634L128.276 145.858L124.825 145.097L122.395 143.958L120.038 144.782L117.299 142.415L118.609 139.686L118.661 139.14L119.096 138.836L118.708 137.896L118.237 137.235L117.656 137.618L116.996 138.526L116.351 137.629L115.498 138.07L115.184 137.991L114.869 137.309L114.618 137.571L114.503 137.351L114.649 136.427L114.974 136.149L115.734 136.238L116.137 135.519L117.514 134.386L117.525 134.176L118.975 133.877L118.907 133.331L117.828 133.299L117.263 132.208H116.99L117.587 131.2L117.713 130.576L117.739 130.145L117.456 129.846L117.813 129.526L119.996 129.872L120.29 128.655L120.049 127.952L119.777 127.779L119.138 128.067L119.405 127.301L118.357 126.608L118.53 126.509L118.63 125.779L117.839 125.233L117.949 124.829L118.331 124.556L118.232 124.074L117.912 124.231L117.058 123.864L117.436 123.145L117.127 122.216L117.415 121.339L116.205 120.762L115.299 119.597L114.937 118.778L114.796 118.28L114.974 118.028L114.23 116.559L114.901 116.002L115.372 114.585Z" fill="white" fill-opacity="0.1"/>
<path d="M72.6694 225.394L73.7692 226.019L74.4919 226.932L74.7276 228.47L74.581 229.43L74.3243 229.105L73.8635 229.335L73.6959 229.047L73.4026 229.215L73.1512 228.674L72.947 228.842L72.8946 228.506L72.4338 228.275L71.7425 228.716L71.931 227.924L71.6692 227.73L71.6063 226.701L72.1719 226.26L71.842 226.045L72.1143 225.358L72.2819 225.442L72.5699 225.032L72.6694 225.394ZM34.9417 195.508L34.4651 196.358L34.5698 195.329L35.0726 194.248L35.2873 194.201L35.0464 194.437L35.1983 194.862L34.9417 195.508ZM36.3871 192.002L36.4237 192.296L36.7484 192.191L36.8846 192.626L37.0679 192.364L36.9998 193.167L37.445 192.978L37.1465 193.639L37.6021 193.471L37.3612 194.264L37.5811 194.558L37.8744 194.474L38.0315 194.888L37.8168 195.397L36.4395 196.924L36.3871 197.35L36.2666 197.05L36.4342 196.694L36.209 196.788L36.2614 196.337L35.9472 196.221L35.8267 195.744L35.612 195.717L35.7796 195.371L35.4025 195.392L35.0464 195.712L35.8058 194.348L36.319 192.616L35.9419 192.627L36.3871 192.002ZM39.875 188.827L40.0373 188.958L40.3934 188.769L41.1842 189.535L40.7705 190.449L40.5296 190.365L40.6972 189.987L39.9849 190.165L39.9221 189.871L40.1892 189.383L39.8697 189.646L39.8331 189.42L39.5188 189.394L39.765 188.638L39.875 188.827ZM1.23595 177.308L1.51875 177.675L2.05293 177.712L1.41401 178.032L1.37211 177.702L0.759374 177.948L0.707003 177.392L0 177.334L0.0785559 176.935L0.387542 176.678L1.23595 177.308ZM6.90768 171.85L6.981 172.616L7.3057 172.637L7.2638 172.779L6.61964 172.79L6.03833 173.162L5.6665 172.69L5.75553 173.015L5.36799 172.884L5.4413 173.341L4.66098 173.739L4.21583 173.608L4.03777 173.598L3.75497 173.713L3.45646 173.514L2.85943 173.876L2.96941 173.545L1.71776 172.653L2.25194 172.113L2.71803 172.286L2.9118 171.924L3.35696 171.981L3.4198 171.829L3.6607 172.008L3.77592 171.714L4.17394 172.034L4.84428 171.997L5.06424 172.207L4.98044 172.427L5.51462 172.496L5.63508 172.317L5.17421 171.882L5.18469 171.504L5.93359 172.07L6.3735 171.929L6.72962 171.462L6.90768 171.85ZM64.95 169.961L65.2695 169.998L65.0862 170.113L65.1857 170.255L64.662 170.066L64.751 169.798L64.95 169.961ZM65.1071 168.801L65.3585 169.226L65.7775 169.121L65.4056 169.52L64.9762 169.342L65.1019 169.541L64.8819 169.635L64.7877 169.363L65.0495 169.095L64.8086 168.801H65.1071ZM74.6543 167.872L74.7276 168.649L74.9685 168.57V168.219L75.157 168.313L75.6231 167.951L75.5027 168.444L74.9318 169.032L74.5443 168.974L74.4657 168.68L74.3872 167.872H74.6543ZM79.6871 159.009L79.928 159.428L79.7133 159.486L79.7656 159.822L79.8861 159.649L80.436 160.441L80.2213 160.735L80.0537 160.452L79.5038 160.567L79.2838 160.788L78.9591 160.761L78.7706 160.488L78.5873 160.583L78.5349 160.048L79.1581 159.019H79.6871V159.009ZM73.7116 157.896L74.4029 157.933L74.3977 158.274L74.6386 158.473L74.6019 158.767L74.2615 158.757L74.3139 159.308L74.052 159.329L73.9368 159.67L73.4236 158.982L73.4079 158.316L73.7169 158.279L73.7116 157.896ZM82.7403 156.904L82.7717 157.14L83.0807 157.13L83.1488 157.366L82.5832 157.66L82.4994 157.927L82.2899 157.718L81.9757 157.849L82.1695 157.009L82.7403 156.904ZM82.5099 148.345L82.8398 148.229L83.0859 148.975L82.5308 149.604L81.6091 148.975L81.6877 148.565L82.138 148.229L82.5099 148.345ZM38.1101 149.09L39.1313 148.298L39.8645 148.66L40.98 150.486L42.2212 153.199L42.7239 153.745L43.7504 154.049H45.0282L45.4734 153.162L45.3267 152.916L45.7824 152.706L45.4001 152.26L45.8714 151.908L45.9866 152.223L46.3637 152.197L46.8298 152.769L47.144 152.732L46.9031 153.073L47.1807 153.367L47.1021 153.929L47.4897 153.892L47.6782 154.054L48.139 154.196L48.7151 154.569L49.3017 153.608L49.8254 151.745L49.862 150.717L50.9671 149.599L52.2763 149.961L53.3813 150.554L53.5385 150.276L53.8841 150.265L54.9734 149.599L56.1465 150.533L58.1471 150.36L58.9798 150.533L59.0478 151.242L59.6501 151.278L59.9224 151.709L60.0481 151.766L61.1269 152.113L62.0277 152.8L62.719 154.469L63.1956 154.086L64.2325 154.689L64.1173 155.204H64.5049L64.6777 155.345L64.5886 155.592L64.8557 155.687L65.4685 155.487L65.7199 155.571L65.3585 155.639L65.5051 155.975L66.0498 156.159L66.4949 155.938L67.8094 156.453L67.8723 157.046L67.5581 156.962L67.4376 157.198L67.8985 158.027L67.4638 157.807L67.4586 158.415L67.668 158.804L67.8828 158.709L67.6785 159.045L68.0032 159.701L68.4379 159.922L68.5112 160.284L68.7783 160.095L68.9354 160.257L68.6107 160.698H68.904L69.2077 160.31L70.3285 160.242L70.6113 160.557L70.805 160.425L71.313 160.903H71.5644L72.3395 161.816L73.8163 162.047L73.9787 162.294L74.4448 162.367L74.6962 162.556L74.7066 162.992L75.1518 163.38L75.4189 163.007L75.5184 163.191L75.2775 163.611L75.5289 163.941L75.775 163.732L75.9583 163.637L76.084 164.246L75.864 164.492L76.283 164.587L75.9374 165.479L76.9586 165.411L77.4037 165.925L77.1262 165.983L77.1785 166.602L76.571 166.649L76.4768 168.57L76.304 168.145L76.0316 168.25L75.7855 167.473L75.8169 167.053L76.0211 166.959L75.9007 166.55L75.6284 166.256L75.2042 166.55L74.5914 166.009L74.7381 165.752L74.9004 166.009L75.2984 165.789L75.4241 165.285L75.089 165.437L75.1675 164.461L74.9161 164.188L75.068 164.094L74.45 163.779L74.2248 164.54L74.7328 165.227L74.4867 166.014L73.9316 166.329L74.2196 165.825L74.0939 165.705L73.0936 165.736L72.8527 165.479L72.4128 166.009L72.2924 165.532L72.0619 165.72L72.02 166.109L72.4652 166.471L72.6956 166.833L73.0832 166.796L73.0308 167.216L73.3136 166.875L73.5335 166.99L73.6383 166.822L73.8268 167.022L73.6069 167.295L73.5912 167.478L73.3084 167.736L74.052 167.804L73.4079 168.706L72.5437 167.825L72.1195 167.625L72.1091 168.098L71.6744 167.935L71.6535 167.158L71.4544 166.99L71.5749 166.781L71.2868 166.896L71.0093 167.4L70.9412 166.964L71.2188 166.355L70.7317 165.731L70.4384 165.705L69.8781 166.429L70.5956 165.106L71.0355 164.813L71.7739 164.87L71.8891 164.445L71.5278 164.513L71.3811 164.503L71.2292 164.303L70.496 164.293L70.1714 164.797L69.8257 164.246L69.7524 164.503L70.0457 164.786L69.6895 165.169L69.9933 165.243L69.8571 166.109L69.6477 166.25L69.5167 165.091L69.2339 165.311L68.9668 165.075L69.2758 164.875L69.3387 164.513L68.9354 163.789L68.7469 164.319L68.7416 164.461L68.6997 164.624L68.7312 164.755L68.3698 165.143L68.2336 165.227L68.1708 165.484L68.3908 165.51L68.3489 165.946L68.286 166.061L68.7521 166.481L68.595 166.702L68.8202 166.738L69.103 167.982L68.8621 168.04L68.6055 167.478L68.7521 167.059L68.2336 167.032L68.3227 167.373L67.7675 167.211L67.7204 167.636L68.1917 168.082L67.4638 167.998L67.6733 168.381L67.092 168.979L67.401 169.226L67.0344 169.299L66.6049 169.793L66.1336 169.368L66.3692 168.901L66.5578 168.969L66.3483 168.617L66.0027 168.428L65.5366 168.769L65.369 168.486L64.9081 168.533L64.2954 170.008L64.3844 170.275L64.6305 169.877L64.552 170.428L64.8505 170.496L64.5887 170.8L64.9081 170.963L64.9605 171.535L65.3533 171.619L65.568 171.288L65.3794 171.136L65.6204 170.947L65.7722 171.477L65.4161 171.991L65.7984 172.364L65.547 173.083L64.8296 172.999L64.4891 172.826L64.6201 172.721L64.4734 172.6L64.0597 172.684L64.2221 172.873L63.7507 172.91L63.955 173.136L63.7717 173.172L63.4732 172.81L63.8083 172.726L63.4156 172.375L63.756 172.233L63.8031 172.406L63.9602 172.254L64.2378 172.369L64.6672 172.102L64.2744 171.608L64.1226 171.913L63.7612 171.771L63.3894 171.902L63.2008 172.511L62.9023 172.569L63.028 172.816L62.8395 173.004L63.2899 173.309L63.1851 173.97L62.6824 174.301L63.227 174.736L63.117 175.041L62.6771 174.899L62.6405 174.673L62.1168 174.873L62.1063 174.532L62.3053 174.448L62.0801 174.374L61.8497 174.794L61.4307 174.946L60.3885 174.395L60.0586 173.771L60.0429 173.393L59.8648 173.477L59.8229 173.146L59.493 172.978L59.4616 172.884L59.4511 172.469L58.8174 172.621L59.0583 172.894L58.765 173.377L58.5189 173.461L58.388 174.364L59.3987 174.762L59.6134 175.854L59.3045 176.064L58.5399 175.969L58.3984 176.484L58.5922 177.14L58.1994 177.056L58.0633 177.245L58.2675 177.491L58.477 177.208L58.5817 177.444L58.2099 177.691L58.2623 177.869L58.1837 178.048L58.0423 177.565L57.88 177.859L57.9009 178.021L58.0528 178.819L57.7543 179.066L57.2096 179.045L57.1677 179.895L57.4034 179.989L57.1206 180.189L57.4348 180.367L56.9583 180.341L56.8587 180.598L56.3822 180.514L56.1517 180.724L55.9161 180.477L55.6856 180.677L55.2038 180.441L55.2719 180.273L55.2091 180.105L55.1777 179.706L54.8477 179.879L55.1305 179.076L54.8372 179.029L54.7901 179.428L54.1093 179.118L54.1931 179.554L53.9417 180.105L54.2402 180.341L54.4288 180.53L53.1719 180.945L53.0566 181.259L52.8053 181.27L52.5329 181.8L52.491 182.388L52.7215 182.718L52.5434 183.269L52.6324 183.553L52.4858 183.92L52.1402 184.319L52.1873 184.036L51.5693 183.632L51.5117 183.374L50.7104 183.222L49.6526 183.374L49.4012 183.128L49.1341 183.327L47.9296 182.43L46.8455 182.619L46.4422 182.949L46.1437 183.479L46.2537 184.093L47.872 186.229L48.1495 186.124L48.2962 186.974L48.5528 187.305L48.4218 187.615L48.6313 188.003L47.7934 188.701L46.7617 189.079L45.7981 188.643L45.6357 188.57L45.2011 188.381L45.2063 187.882L44.2898 187.268L44.2008 186.712L43.8604 186.796L43.8499 187.667L43.4676 188.449L43.5619 187.751L43.0905 187.137L43.012 186.56L43.2948 186.077L43.5304 186.576L43.8132 186.397L43.7661 186.182L43.6718 186.051L43.4833 185.851L43.9546 185.909L44.0227 185.626L43.5828 185.059L43.2057 185.085L42.9282 185.369L42.3573 184.886L41.9227 185.143L42.3626 185.19L41.8912 185.652L42.0484 186.974L41.1685 187.94L41.0481 187.62L40.9014 188.024L40.7548 187.919L40.9538 187.615L40.9067 187.079L40.5663 186.675L39.0685 188.244L38.9218 187.867L39.0999 187.641L38.7647 187.772L38.66 188.113L38.5081 187.84L38.6862 187.672L38.6443 187.127L38.3667 186.429L38.5709 185.804L38.5395 185.615L38.4505 184.907L37.7068 185.164L37.8011 185.505L37.2564 186.534L37.1308 187.667L36.5442 188.538L36.6856 188.785L36.3714 188.522L36.4709 188.181L36.1462 188.37L35.8634 188.171L36.2457 187.31L36.1095 187.074L35.8686 187.252L35.8634 186.717L35.4654 186.67L35.5387 186.245L35.0045 186.513L35.0883 185.815L34.9259 185.977L34.706 185.809L34.5175 186.161L34.3132 185.904L33.999 186.266L33.6429 187.825L33.3339 188.118L33.0511 188.034L32.6426 188.507L32.3022 188.439L32.1974 188.601L32.0351 188.292L31.6266 188.208L31.5271 188.407L31.8727 188.575L31.3909 188.444L31.4066 188.16L30.972 187.961L31.1081 188.858L30.862 188.349L30.3749 188.323L30.3802 188.134H30.0502L29.8722 188.381L29.7255 188.166L29.5318 188.376L29.3694 188.255L29.2437 188.465L29.0343 188.286L26.6304 189.514L24.8656 191.12L24.19 192.469L24.2162 194.279L23.9962 194.846L24.6404 196.625L24.0538 197.218L24.1952 197.192L24.0486 198.399L23.5772 199.989L23.792 200.556L22.8545 201.375L22.4879 202.025L22.3884 202.786L22.7707 203.941L21.561 205.667L20.5921 207.882L20.723 208.617L21.0006 208.758L21.4458 209.892L21.5505 210.669L20.7283 211.23L20.2936 211.933L19.8956 212.159L18.9424 211.97L18.3978 212.721L17.827 213.056L17.5389 213.497L17.3137 213.676L16.7534 214.258L16.1092 215.365L15.2451 215.686L14.3024 216.95L13.7944 218.073L14.1348 216.761L13.5273 216.656L13.6006 216.882L13.166 217.123L12.9303 217.281L12.946 217.029L12.3647 216.656L12.3961 216.3L12.1709 215.859L12.0243 215.953L11.8619 215.869L11.6525 215.15L11.4639 215.129L11.7205 214.851L11.7101 214.421L11.4692 214.3L11.6106 214.111L10.9874 213.791L11.0083 213.518L10.846 213.434L10.5317 213.198L10.6417 212.017L10.338 211.907L10.537 211.036L10.2437 210.889L10.7779 210.758L11.1235 210.422L11.4377 211.052L11.752 210.695L12.2914 210.527L12.1552 209.288L12.2443 209.036L12.5375 208.974L12.3647 208.569L13.1188 208.475L13.475 208.155L13.4592 207.787L13.2183 207.856L13.4488 207.305L13.2183 206.57L13.8992 206.344L14.0406 206.224L14.1924 206.092L14.0406 205.746L14.2972 205.499L13.9411 205.442L14.271 204.765L14.6376 204.775L14.7633 202.776L15.0356 202.571L14.9256 202.288L15.2137 202.088L15.2294 201.768L15.6693 201.731L15.7478 201.495L15.8159 201.249L16.5962 201.07L16.4234 200.892L16.4915 200.509L16.8005 200.446L16.7481 200.803L17.1566 200.991L17.3137 200.834L17.4394 201.044L17.8741 201.081L17.7065 201.259L18.0783 202.445L18.2773 202.471L18.4187 202.529L19.1415 202.828L19.5866 202.613L19.8066 202.067L19.6913 201.558L19.9323 201.133L19.728 199.732L20.0475 199.527L20.3983 198.777L20.3931 198.205L21.1315 196.709L21.4196 196.589L21.5976 196.741L22.4303 196.032L22.5246 195.712L22.048 195.014L22.0847 194.169L21.8176 193.896L21.4458 193.839L21.1315 194.085L19.8642 193.98L19.0629 194.243L19.0053 193.944L18.5392 193.644L18.5706 192.674H18.1359H17.9788L17.3504 192.306L17.3242 192.742L16.9838 192.8L16.8162 192.311L16.303 192.395L16.3553 191.792L15.4755 191.677L15.5645 191.477L15.2241 191.325L15.0199 191.729L15.4127 192.249L14.9675 192.081L14.9413 192.327L14.5747 192.222L14.3234 190.979L14.0039 190.8L14.1086 190.443L13.6792 190.191L13.4173 189.693L13.9725 189.609L14.0196 189.346L13.5116 189.063L13.8101 188.811L13.5116 188.528L13.5169 188.181L13.1293 187.992L13.2183 187.693L12.6842 187.373L12.8832 187.205L12.26 186.439L12.4537 186.192L11.6734 185.872L11.5634 185.468L11.1392 185.374L11.1078 185.195L10.8774 185.264L10.7307 185.426L10.427 185.038L10.4322 184.434L10.1913 184.576L9.70427 183.915L9.77759 184.602L10.3013 184.707L10.2856 185.18L10.3589 185.39L10.3851 185.552L11.1968 186.051L11.0973 186.476L10.8564 186.313L10.008 186.623L9.15962 186.423L8.97108 185.962L8.84539 186.129L8.45785 185.668L8.31121 185.951L8.02318 185.505L7.47328 185.72L7.11716 185.248L6.39969 184.917L6.45206 185.316L6.22686 185.08L5.9493 185.138L5.93359 184.713L6.10118 184.644L5.9493 184.434L5.44131 184.508L5.18993 184.329L5.15851 184.225L4.93855 183.542L4.69241 184.13L4.29439 183.432L3.87543 183.091L3.94875 182.477L3.02179 182.372L3.01131 182.115L3.62929 181.385L3.42504 181.312L3.2784 180.782L3.0375 180.934L2.8123 180.719L3.01655 180.493L2.83849 179.905L3.14748 179.601L3.74974 179.391L4.19489 179.921L4.51435 179.848L4.5929 180.215L4.95426 180.168L5.61413 180.792L6.15878 180.908L6.00167 180.32L6.79771 179.858L6.72962 179.291L5.5251 178.326L5.28943 177.822L5.40465 177.302L4.89142 176.972L4.89665 176.463L5.53557 176.877L5.58271 176.51L4.46198 175.513L5.10614 175.739L5.76601 176.536L6.10641 176.594L6.49396 177.145L6.83436 177.108L7.4052 177.754L7.33189 178.021L7.76656 178.446L7.36855 178.247L7.7299 179.244L7.29523 179.396L7.86607 179.711L8.44738 179.617L8.62544 179.816L8.65686 179.496L8.38977 179.144L8.83492 179.438L8.71447 178.851L9.14391 179.108L9.28531 178.567L9.0444 177.376L8.77731 176.967L8.68305 177.287L8.53117 177.145L8.60973 176.757L8.35835 176.72L7.98128 175.733L8.06507 175.518L8.40025 175.613L8.21695 175.214L9.40576 176.263L9.60477 175.838L10.4427 176.662L10.2751 176.977L10.6993 177.15L10.8617 176.62L11.3487 176.41L11.1497 175.754L11.5163 175.67L11.7624 175.917L11.6263 175.424L11.2492 175.497L10.6836 174.841L10.3641 174.82L10.537 174.652L10.3694 173.944L10.6365 174.154L10.8617 173.776L10.8407 174.07L11.0397 174.091L10.9507 173.645L11.7153 174.29L11.8934 174.033L12.3333 174.547L12.6213 174.558L11.8672 173.451L11.6315 173.629L11.1183 173.204L11.2178 172.522L10.7255 172.049L11.2021 172.191L10.3956 171.603L10.9455 171.745L10.825 171.299L10.3641 171.042L9.9347 171.467L9.6938 170.842L9.28007 170.606L9.00251 170.68L9.07582 170.102L8.65686 169.656L8.96061 169.494L8.34264 169.163L8.79826 168.586L8.22742 167.998L8.20647 167.625L7.56755 167.19L6.8815 166.287L6.95481 165.479L6.56727 164.519L5.87598 164.025L5.28419 164.094L4.65575 164.807L3.96446 163.815L3.43551 163.616L3.59786 162.608L3.3203 161.659L3.96446 162.021L5.18993 163.495L6.02786 163.579L7.23762 163.049L7.56755 162.509L7.47328 161.727L7.1643 161.805L7.19572 161.491L6.8396 161.113L7.23238 159.858L9.21199 160.551L9.58906 160.94L11.0031 160.614L11.8096 160.94L12.3804 161.538L13.4488 164.251L13.7892 164.613L14.1139 166.534L14.6271 167.211L15.2032 169.147L15.9154 169.467L16.6434 169.383L17.2142 168.691L16.8843 167.751L17.209 166.707L16.9314 165.605L17.1776 164.786L17.01 164.151L17.2195 163.322L18.1726 161.727L18.602 161.47L19.3247 162.099L19.4766 161.816L19.1938 161.244L19.4609 160.871L20.2569 160.31L21.1106 160.383L21.362 160.163L21.4353 159.087L21.1211 158.279L21.4353 157.109L22.2261 157.13L23.1111 158.179L23.174 159.465L23.0169 159.874L23.3102 160.598L23.2211 161.695L23.6244 162.629L24.4571 162.761L25.7035 162.892L26.0177 162.703L25.9601 162.446L26.222 162.409L26.6147 160.782L26.3319 160.451L26.6776 160.383L26.4838 160.152L26.9918 159.58L26.3895 158.63L26.5728 157.953L26.3738 157.917L26.4105 157.728L26.0701 157.576L25.6668 157.702L25.5935 158.389L25.8135 158.562L25.4312 158.688L25.6564 156.935L25.4312 155.545L25.6092 154.821L26.0177 154.689L26.9604 155.34L27.8664 154.595L28.7043 154.689L29.1233 154.527L29.359 154.154L30.7258 154.563L31.2967 154.275L31.4433 154.437L32.2498 154.102L33.2658 154.243L34.9574 153.787L36.1828 152.816L36.3976 152.055L36.9998 151.598L37.1726 150.948L37.8692 150.412L37.8744 149.211L38.1572 148.534L38.0106 148.182L38.2305 147.983L38.4714 148.182L38.2672 148.297L38.4871 148.591L38.1101 149.09ZM62.0801 147.552L62.4624 147.831L62.7138 147.621L62.7243 148.67L63.2008 149.379L63.3579 149.352L63.2899 149.526L62.2163 149.489L61.4988 149.043L61.7816 147.799L62.0801 147.552ZM70.7631 143.958L71.9467 144.677L72.7323 144.876L73.0884 145.238L74.581 145.794L75.7331 146.629L76.084 146.608L77.0267 147.227L78.2574 147.369L78.6135 147.647L79.0377 148.544L79.0796 149.232L78.1579 150.208L78.2259 151.152L78.6397 151.294L78.8387 152.066L80.4936 154.469L80.525 154.574L80.5512 155.498L81.2425 156.668L80.8969 157.78L79.7813 158.295L79.2158 158.877L79.1424 158.337L78.4407 158.384L78.3935 158.185L77.8175 158.127L77.5085 156.757L77.2519 157.014L77.1314 156.253L76.8277 157.586L76.1992 158.442L75.8902 157.891L76.1678 157.749L76.2044 157.082H75.9269L75.7279 157.387L75.6336 158.101L75.1308 157.586L74.8323 156.836L73.9996 156.825L73.6854 157.208L73.5702 157.828L73.2979 157.912L73.1041 159.092L72.6799 159.454L72.5647 158.872L72.3866 159.224L71.9101 159.024L71.9048 157.597L71.5696 157.959L71.6849 157.319L71.2659 157.518L70.9674 156.794L70.6794 157.261L70.0666 156.584L69.7524 155.833L70.3547 156.033L70.208 155.33L69.8676 155.529L68.6369 153.928L68.1289 153.871L67.9037 154.301L67.4009 154.485L66.2645 153.619L65.3009 153.33L64.8243 152.758L64.662 152.186L64.4787 152.197L64.8872 150.67L64.3896 150.124L65.0443 150.182L65.1333 149.924L65.945 149.41L67.16 150.077L67.8566 149.982L68.3384 149.268L68.3122 148.801L67.8775 148.161L68.0608 147.206L67.7937 146.87L68.0818 146.581L67.7833 146.398L68.0713 145.023L68.6945 144.314L69.2496 144.676L70.7631 143.958Z" fill="white" fill-opacity="0.1"/>
<path d="M106.463 79.8809L106.892 80.0593L106.955 80.6156L107.421 80.8518L106.929 80.941L106.494 80.4949L106.405 80.7206L107.222 81.5392L107.411 81.3661L108.029 82.3789L108.322 83.5964L107.625 84.3941L106.787 84.053L106.746 83.5964L104.761 81.3346L103.907 79.9019L103.97 79.7077L104.588 79.9544L105.918 79.5345L106.463 79.8809ZM110.679 79.8022L111.359 82.106L111.098 82.3002L111.234 83.0139L110.092 83.0611L109.951 82.9824L109.401 82.9509L108.929 82.3002L109.118 81.5392L108.945 81.1509L108.364 80.7626L108.07 80.0436L107.322 79.9386L107.866 79.587L108.175 78.7474L108.605 78.4167L109.972 79.0045L110.679 79.8022ZM179.357 63.0982L179.525 63.8801L179.164 64.3786L179.106 63.8486L178.478 63.2399L179.111 62.778L179.357 63.0982ZM173.371 60.2538L174.11 60.2958L174.33 60.5529L174.036 60.8101L174.199 61.3716L173.796 60.5792L173.371 60.2538ZM170.769 57.3622L171.135 57.5669L171.256 57.5564L171.832 57.1051L172.617 58.7949L171.868 58.0182L171.465 57.9395L171.14 58.1442L170.302 56.8164L170.769 57.3622ZM149.737 56.3494L149.883 56.6223L149.501 56.8164L148.652 57.866L147.898 57.7768L147.49 57.0893L147.579 56.5383L148.584 56.2654L148.705 56.0712L149.218 56.722L149.674 56.4753L149.501 55.9558L149.737 56.3494ZM136.214 54.5126L136.419 54.5336L136.838 55.9978L137.45 56.8427L138.262 60.1331L138.733 60.8416L138.618 61.1669L137.838 61.1879L137.744 61.3821L136.681 61.0463L135.748 60.3378L135.565 59.9652L135.35 60.0072L134.512 58.1704L135.047 57.4567L134.999 57.0736L135.382 56.5226L135.539 55.6409L135.832 55.368L136.084 54.4759L136.214 54.5126ZM165.558 55.8088L164.605 55.1424L164.437 54.14L165.558 55.8088ZM159.153 50.4298L159.572 50.9126L159.928 50.7761L160.08 51.1015L160.986 51.3009L161.096 51.7312L161.468 51.7522L161.515 52.1248L162.326 53.0222L162.567 53.631L162.515 54.0141L162.086 54.3867L161.824 53.8566L160.588 53.3843L160.273 53.7097L159.792 53.7989L159.718 54.3184L159.378 53.4053L160.315 52.8858L159.839 52.256L160.462 52.6706L160.504 52.2193L160.054 52.0041L159.834 51.5423L159.776 51.9569L159.535 51.2274L159.022 51.049L158.922 50.6554L159.153 50.4298ZM195.252 48.3988L195.838 48.3096L195.577 49.0601L195.728 49.4642L196.079 49.4064L196.132 49.9994L196.613 49.8053L196.619 49.6163L196.744 49.2647L198.064 50.456L198.645 51.1645L198.206 51.6053L198.394 52.424L198.714 52.7703L199.431 52.849L199.567 53.1219L199.221 53.8881L198.823 54.1558L199.352 55.473V57.3675L199.127 57.7926L199.792 58.2176L200.316 57.9815L200.897 58.1966L201.065 58.7372L201.788 58.648L202.317 59.4509L201.845 60.2748L200.07 61.0095L200.321 61.8807L200.232 62.5366L201.07 62.7728L201.028 63.0982L201.725 64.4101L202.5 70.4295L203.16 70.5974L204.155 70.4977L204.28 71.2901H204.595L205.04 71.8569L205.071 72.2505L204.453 73.3735L204.715 73.8511L204.432 74.2132L205.008 74.78L205.092 75.9135L206.082 76.9998L206.585 77.9864L206.946 79.4978L206.8 80.4057L207.334 82.9089L207.093 83.4337L207.706 85.323L207.517 85.8582L207.931 86.5982L207.459 86.997L205.841 87.2594L205.564 86.8239L205.035 86.7189L204.705 85.7638L204.396 85.5801L200.819 85.2495L200.164 84.8297L199.237 84.7614L198.897 84.8664L197.65 86.1206L196.116 86.2466L195.44 85.9737L194.414 86.9288L194.021 86.7032L193.021 86.9446L192.733 87.2174L193.12 87.6373L193.031 88.3982L192.79 88.3615L192.309 88.86L191.952 88.5084L191.895 88.6344L190.711 88.0099L189.805 87.1125L189.428 86.997L188.433 87.144L187.024 88.1463L185.548 87.5166L183.866 87.5533L184.081 88.0886L185.605 89.6735L185.956 91.3161L186.799 92.8589L185.406 95.9657L185.553 96.1284L185.008 96.8106L184.443 97.073L183.673 98.7995L183.416 98.8363L183.217 99.5133L182.788 99.7389L183.285 100.778L182.599 101.943L182.505 102.62L184.306 103.481L184.662 103.906L183.248 106.944L182.573 106.362L182.369 105.501L182.023 105.034L181.253 104.735L179.792 106.042L180.866 107.742L180.394 111.358L179.075 112.848L178.237 112.171L177.692 112.365L177.043 114.066L176.665 114.318L175.346 113.672L175.084 113.788L174.932 113.278L175.063 112.853L174.398 112.748L174.215 112.344L173.612 112.024L174.094 111.646L173.9 111.311L173.528 111.185L173.413 111.332L172.947 110.943L171.648 110.922L171.732 110.476L172.135 110.534L172.073 110.34L170.439 110.051L170.585 109.762L170.025 108.797L170.622 108.477L169.569 106.782L169.789 106.126L170.491 105.401L169.758 105.128L169.328 105.218L168.286 104.472L167.726 104.703L167.338 103.958L166.982 104.247L165.615 104.278L163.421 103.475L162.206 102.022L162.08 101.413L161.326 100.647L161.012 99.6707L160.41 100.038L159.755 99.2929L159.441 99.6235L158.577 99.5185L156.728 98.4899L156.964 97.9074L156.718 97.792L156.681 95.7033L155.78 95.8975L155.696 95.1995L155.691 93.6671L156.068 91.5207L155.267 91.8513L153.853 91.4997L152.523 91.7726L152.182 92.0823L150.218 92.0455L149.951 94.5435L149.401 94.4858L149.15 93.7878L148.715 93.3312L148.296 93.3102L148.192 93.0846L147.783 93.2578L146.825 91.993L146.306 92.4391L146.495 92.9849L146.296 93.0636L146.05 92.6175L145.72 92.7907L145.426 92.6648L145.076 92.1505L144.41 92.5178L144.185 92.3237L142.923 92.3026L142.776 92.8642L142.232 92.7382L141.787 93.9505L140.456 95.2887L139.032 95.0053L139.053 96.4012L138.55 97.7132L138.487 98.5266L139.451 99.8071L137.628 100.416L138.283 100.93L138.461 101.649L139.179 101.591L139.173 104.457L139.022 104.32L138.44 104.562L137.906 104.173L135.345 103.817L134.004 104.116L132.962 104.698L129.741 104.787L129.558 105.223L129.202 105.202L128.416 104.614L128.191 105.27L128.553 106.005L127.929 106.53L128.092 106.761L128.773 106.43L128.867 106.876L128.673 107.186L129.197 107.962L128.286 108.466L128.123 108.067L127.526 108.261L127.374 108.603L127.002 108.314L126.84 109.08L126.358 109.295L126.013 109.82L126.206 110.303L126.442 110.292L126.405 110.901L125.934 111.179L125.677 110.969L125.4 111.31L125.751 112.308L125.604 112.743L124.73 112.371L124.614 111.442L124.206 111.179L123.567 111.2L122.525 111.993L121.928 111.888L120.692 110.245L119.634 110.891L119.225 111.52L118.382 110.88L116.973 113.179L115.905 113.719L116.031 114.417L115.371 114.58L114.999 113.294L115.067 112.213L118.969 108.345L118.77 108.057L118.278 107.941L118.157 107.149L116.717 106.278L116.706 105.931L115.947 105.029L116.382 104.877L115.968 103.974L116.382 103.916L116.869 103.181L116.754 102.415L114.02 100.825L112.559 100.39L108.264 99.9908L107.631 100.531L107.264 100.253L106.541 100.479L106.311 101.072L104.075 98.0281L102.959 98.175L103.043 97.5662L102.414 96.6269L99.9426 96.7056L99.9059 93.5883H97.434L97.3555 90.5866L97.7325 90.1405L98.0468 89.0909L97.9682 88.7708L97.4969 88.6133L97.3869 88.351L97.4078 86.9813L97.7587 87.3434L98.3767 87.0495L99.1256 87.4378L99.6441 87.0285L100.089 85.9579L101.372 85.853L101.922 85.5223L103.017 85.9894L104.059 86.8448H104.625L104.865 87.5848L106.175 86.467L106.641 86.913L108.327 87.4116L108.992 87.1597L109.38 86.5877L109.788 86.5194L110.071 86.3725L111.087 85.9632L111.417 86.0891L111.7 85.7008L112.255 85.8267L112.606 85.4646L113.072 86.0314L113.418 85.7585L113.59 86.1573L113.931 86.3305L114.842 86.2728L114.868 86.8553L114.554 86.9025L114.402 87.3224L114.633 87.7317L114.758 87.4483L115.303 87.4955L115.434 87.1964L116.256 85.9212L116.685 84.1894L116.937 83.9847L116.57 83.6856L116.717 83.376L116.376 83.2395L115.868 81.8278L114.067 80.6366L113.082 79.524L112.653 78.4902L112.548 75.8243L112.805 75.6563L113.884 76.2126L114.612 76.1549L115.79 76.9945L116.209 77.026L117.571 77.9024L118.162 78.0389L118.414 78.1858L118.712 79.0727L120.802 80.4791L122.739 80.1852L123.101 78.9257L122.289 76.9525L121.65 76.2598L120.404 75.7245L119.697 75.0003L120.069 75.0685L120.451 74.0819L121.001 74.1712L120.849 74.7852L121.294 75.1368L122.347 75.3152L123.729 74.3601L124.824 74.2236L126.62 72.7857L127.683 72.3659L128.207 71.0959L128.149 70.5501L127.919 70.3559L128.087 68.5874L128.778 68.0469L128.636 67.5116L129.05 67.669L129.375 67.3384L129.6 67.5851L131.978 67.5063L132.664 67.8317L133.795 67.9577L134.994 69.2801L135.34 70.0043L136.963 70.5029L137.759 71.1221L138.927 70.5659L139.393 69.9676L138.917 69.0492L139.168 68.6661L139.43 68.96L139.933 68.981L140.299 69.5478L142.986 71.3373L143.311 71.8096L143.808 71.8988L143.766 71.7152L144.657 71.0487L144.798 70.0096L144.615 69.7839L144.107 69.6265L143.866 69.2434L143.656 68.9285L143.237 68.6766L143.195 68.3932L142.991 68.2568L142.923 67.8055L144.049 68.5402L144.955 68.346L145.196 68.5034L145.453 67.7425L145.364 67.3909L145.023 67.223L144.877 66.5565L145.044 66.3098L145.259 66.7716L145.578 66.7506L145.762 66.9868L145.955 66.7611L145.961 66.5827L145.95 66.0842L146.296 67.1442L147.034 67.5746L146.751 67.5956L146.353 68.5244L145.955 68.9653L145.772 68.918L145.636 69.3221L146.385 68.9495L146.861 69.637L147.113 69.3326L147.301 69.4113L147.563 69.6475L148.103 70.0778L148.459 69.8522L148.574 70.1828L148.673 70.272L148.925 70.3035L149.344 70.2038L150.129 70.4557L150.81 69.7997L151.674 68.304L151.632 67.9314L151.852 67.9629L151.873 67.9314L152.051 67.7268L152.444 66.4253L152.35 66.0159L151.905 65.8585L151.884 65.5174L151.549 65.0661L151.313 64.9611L151.156 64.9926L150.925 64.4836L151.25 64.1582L151.245 63.6596L150.747 63.0719L150.407 63.287L150.072 60.894L150.297 57.9027L150.522 58.6899L151.711 58.9733L151.795 59.4928L152.125 59.7185L152.659 59.8287L153.057 59.5925L153.382 60.2485L153.607 60.1803L153.858 60.1908L154.157 59.9336L154.675 60.0596L154.885 60.873L155.099 60.7943L155.314 61.0305L155.34 61.2771L155.036 61.4818L155.057 61.9226L156.199 62.9512L156.152 64.746L156.361 64.9926L156.377 65.0136L156.555 65.1973L157.178 65.4702L157.184 65.1186L157.278 65.0189L157.655 65.4597L157.943 65.2917L158.425 65.3915L159.017 65.9215L160.541 65.3232L160.776 64.6882L160.651 64.2369L162.473 64.4416L163.039 64.9296L164.353 64.7145L164.777 64.2841L164.955 64.3629L164.851 64.8929L165.228 65.5384L165.872 66.0474L166.406 65.8428L166.568 66.5985H166.883L167.836 67.2072L167.867 66.6404L168.951 65.8008L169.255 64.8194L169.03 63.9693L168.375 64.0375L168.166 63.4287L167.354 62.4894L167.71 62.2322L167.653 60.81L167.747 61.1249L168.197 61.3138L168.344 61.7232L168.831 62.1168L169.831 62.5209L170.36 63.6701L170.224 64.2002L170.491 64.4941L171.659 64.5256L172.497 64.027L173.728 62.8882L173.911 62.122L174.256 62.82L174.042 63.8696L174.728 64.3314L175.801 64.6567L176.466 65.2655L177.64 65.5699L178.745 65.2288L179.321 65.6381L180.588 65.9635L180.923 65.7588L181.672 65.9372L182.489 65.6171L183.196 65.1081L183.159 64.7827L183.437 64.5675L183.254 63.3133L184.338 62.9197L185.579 63.1663L186.056 62.9722L186.81 63.0404L187.543 62.2742L188.124 60.7733L187.978 60.322L187.375 59.8497L186.804 58.9785L186.548 58.3593L186.59 57.3884L185.506 56.1132L185.406 55.326L185.008 54.7277L185.003 52.2822L185.16 51.3953L185.485 51.2851L185.113 50.4665L185.464 50.5924L185.705 50.3772L186.448 50.9493L186.108 51.1854L186.548 52.1983L186.15 52.9854L186.684 53.7726L187.82 54.3132L188.648 53.9983L188.747 53.7149L189.229 55.0531L189.968 55.4257L190.554 55.1896L190.538 55.5936L191.01 56.2811L190.942 56.7429L191.251 57.2257L191.664 57.168L192.188 58.0707L192.874 58.1914L193.272 58.6899L193.911 58.7371L194.691 58.375L195.676 57.168L195.362 56.5698L195.917 54.9219L195.377 54.1347L194.498 53.6414L194.424 53.2583L194.561 52.5604L194.346 51.6053L194.812 51.2694L194.864 50.5714L193.943 50.0099L193.791 49.6058L194.147 49.1912L194.403 49.2699L194.938 48.8291L195.173 48.74L195.027 48L195.252 48.3988Z" fill="#FED500"/>
</svg>
