<svg width="26" height="26" viewBox="0 0 26 26" fill="none" xmlns="http://www.w3.org/2000/svg">
<rect x="1" y="1" width="24" height="24" rx="12" stroke="white" stroke-width="2"/>
<path d="M11.7971 15.4309V15.2822C11.8008 14.592 11.8623 14.0429 11.9818 13.6349C12.1049 13.2269 12.2786 12.899 12.5031 12.6511C12.7276 12.3994 13.0009 12.1687 13.3231 11.959C13.544 11.8141 13.7413 11.6559 13.9151 11.4843C14.0924 11.3089 14.2318 11.1144 14.3332 10.9009C14.4346 10.6835 14.4853 10.4414 14.4853 10.1745C14.4853 9.87321 14.4183 9.61201 14.2843 9.39085C14.1504 9.16969 13.9694 8.99809 13.7413 8.87607C13.5168 8.75405 13.2652 8.69304 12.9864 8.69304C12.7294 8.69304 12.485 8.75214 12.2533 8.87035C12.0252 8.98475 11.8351 9.16015 11.6831 9.39657C11.5347 9.62917 11.4514 9.92469 11.4333 10.2831H9.5C9.5181 9.55863 9.68464 8.95234 9.99961 8.46425C10.3182 7.97617 10.7382 7.6101 11.2595 7.36606C11.7845 7.12202 12.3637 7 12.9973 7C13.6888 7 14.297 7.12774 14.822 7.38322C15.3505 7.6387 15.7614 8.00286 16.0547 8.47569C16.3516 8.94471 16.5 9.50143 16.5 10.1459C16.5 10.5806 16.433 10.9695 16.2991 11.3127C16.1687 11.6559 15.9823 11.9609 15.7397 12.2278C15.4972 12.4948 15.2093 12.7331 14.8763 12.9428C14.583 13.1335 14.3423 13.3317 14.154 13.5377C13.9694 13.7436 13.8318 13.9857 13.7413 14.2641C13.6544 14.5386 13.6091 14.878 13.6055 15.2822V15.4309H11.7971ZM12.742 19C12.4162 19 12.1356 18.878 11.9003 18.6339C11.665 18.3899 11.5473 18.0925 11.5473 17.7417C11.5473 17.3985 11.665 17.1049 11.9003 16.8608C12.1356 16.6168 12.4162 16.4948 12.742 16.4948C13.0643 16.4948 13.343 16.6168 13.5784 16.8608C13.8173 17.1049 13.9368 17.3985 13.9368 17.7417C13.9368 17.9743 13.8807 18.1859 13.7684 18.3765C13.6598 18.5672 13.515 18.7197 13.334 18.8341C13.1566 18.9447 12.9593 19 12.742 19Z" fill="white"/>
</svg>
