<svg xmlns="http://www.w3.org/2000/svg" version="1.1" xmlns:xlink="http://www.w3.org/1999/xlink" width="1000" height="1000"><g clip-path="url(#SvgjsClipPath1159)"><rect width="1000" height="1000" fill="#000000"></rect><g transform="matrix(21.875,0,0,21.875,204.6875,150)"><svg xmlns="http://www.w3.org/2000/svg" version="1.1" xmlns:xlink="http://www.w3.org/1999/xlink" width="27" height="32"><svg width="27" height="32" viewBox="0 0 27 32" fill="none" xmlns="http://www.w3.org/2000/svg">
<path d="M19.98 7.8411V6.34984C19.98 6.22155 20.0242 6.09686 20.1056 5.99524L24.1571 0.941027C24.5755 0.419026 23.9097 -0.263467 23.3408 0.104357L16.9964 4.20674C16.8967 4.27123 16.7792 4.30559 16.659 4.30593C14.9762 4.31071 13.1613 4.37969 12.5418 4.4619C11.9145 4.54711 10.854 4.77435 10.1968 4.97318C9.53961 5.17201 8.59863 5.52707 8.10574 5.76851C7.61285 5.99575 6.80629 6.45022 6.3134 6.76267C5.8205 7.08933 5.02889 7.70003 4.53599 8.1261C4.05804 8.56637 3.37097 9.27649 3.02744 9.70256C2.66897 10.1286 2.11633 10.9666 1.7728 11.5489C1.4442 12.1312 0.996118 13.0827 0.787013 13.6508C0.577905 14.2047 0.309055 15.2983 0.174631 16.051C0.0103322 17.031 -0.0344772 17.8689 0.0252649 18.8631C0.0700738 19.6442 0.219439 20.6952 0.338929 21.2064C0.473356 21.7177 0.712329 22.4846 0.876628 22.9107C1.04092 23.3368 1.45914 24.1747 1.78774 24.757C2.11633 25.3393 2.66897 26.1773 3.02744 26.6033C3.37097 27.0294 4.05804 27.7395 4.53599 28.1798C5.02889 28.6059 5.8205 29.2166 6.3134 29.5432C6.80629 29.8557 7.61285 30.3101 8.10574 30.5374C8.59863 30.7788 9.53961 31.1339 10.1968 31.3327C10.854 31.5315 11.9145 31.7588 12.5418 31.844C13.164 31.9265 15.4688 31.9958 21.6159 32C21.9497 32.0002 22.2204 31.7401 22.2204 31.4192V28.3152C22.2204 27.9964 21.9532 27.7371 21.6215 27.7342L17.3694 27.6967C12.6461 27.6543 12.5694 27.6536 11.3917 27.285C10.7345 27.072 9.68898 26.5891 9.07659 26.2057C8.46421 25.8364 7.5531 25.0979 7.06021 24.5866C6.56731 24.0753 5.91012 23.1948 5.6114 22.6125C5.29774 22.0302 4.9094 21.0218 4.73017 20.3543C4.46131 19.3459 4.4165 18.8915 4.49118 17.6559C4.55093 16.5481 4.68536 15.8664 4.98408 15.0284C5.20812 14.4035 5.71595 13.4378 6.10429 12.8981C6.4777 12.3584 7.16476 11.5915 7.5979 11.1938C8.04599 10.8103 8.80774 10.2422 9.30063 9.9582C9.79353 9.67415 10.7345 9.26228 11.3917 9.06345C12.2555 8.78067 12.8374 8.67663 14.8941 8.64239C15.1106 8.63879 15.3131 8.74789 15.4233 8.9271L18.1429 13.3526C19.7261 15.9516 20.9957 18.1245 20.9658 18.1813C20.9381 18.2471 20.4361 18.5567 18.8185 19.4602C18.5798 19.5935 18.2766 19.5542 18.0834 19.3647L15.1257 16.4629C13.3185 14.7018 11.78 13.2531 11.6904 13.2531C11.6068 13.2531 10.9777 13.7966 9.06386 15.6094C8.82426 15.8363 8.82374 16.2082 9.06289 16.4356L13.184 20.3543C15.6933 22.7403 17.7844 24.7002 17.8441 24.7144C17.9188 24.7286 18.7104 24.3452 19.6215 23.8623C20.5326 23.3794 22.564 22.2858 24.1323 21.4195C25.7155 20.5531 27 19.8004 27 19.7152C27 19.6304 25.4478 17.0015 20.064 8.13656C20.01 8.04766 19.98 7.94403 19.98 7.8411Z" fill="white"></path>
<path d="M23.3408 0.104357L17.1104 4.13298C16.9435 4.24093 16.8434 4.42165 16.8434 4.61505V6.15197H19.6826C19.8701 6.15197 20.047 6.06834 20.1615 5.92557L24.1571 0.941027C24.5755 0.419026 23.9097 -0.263467 23.3408 0.104357Z" fill="#FED500"></path>
</svg></svg></g></g><defs><clipPath id="SvgjsClipPath1159"><rect width="1000" height="1000" x="0" y="0" rx="250" ry="250"></rect></clipPath></defs></svg>