<svg width="116" height="32" viewBox="0 0 116 32" fill="none" xmlns="http://www.w3.org/2000/svg">
<g clip-path="url(#clip0_11_59122)">
<path fill-rule="evenodd" clip-rule="evenodd" d="M112.996 12.1837C111.479 10.7141 109.701 9.90815 107.248 9.90815C105.506 9.90815 103.526 10.4415 102.211 11.603V0.082963H96.9486V32H102.211V20.0415C102.211 15.1585 105.79 14.7674 107.046 14.7674C110.187 14.7674 110.104 17.6237 110.104 19.3422V31.9881H115.366V19.3659C115.366 16.3437 114.715 13.843 112.996 12.1719V12.1837ZM89.8968 25.517C88.7471 26.5126 87.2301 27.0696 85.5708 27.0696C81.9086 27.0696 79.2182 24.4622 79.2182 20.883C79.2182 17.3037 81.8256 14.8148 85.5708 14.8148C87.2064 14.8148 88.7471 15.3363 89.9205 16.3437L90.7264 17.0074L94.282 13.5704L93.3931 12.7881C91.3071 10.963 88.5338 9.93185 85.5827 9.93185C78.9931 9.93185 74.2168 14.5304 74.2168 20.8593C74.2168 27.1881 79.1116 31.917 85.5827 31.917C88.5931 31.917 91.3901 30.8859 93.4523 29.037L94.3175 28.2667L90.7145 24.8296L89.9086 25.517H89.8968ZM69.3931 2.69037H64.1427V10.3348H60.2079V15.4311H64.1427V32H69.3931V15.4311H73.3279V10.3348H69.3931V2.69037ZM53.6657 21.843C53.6657 26.7141 49.4464 27.1052 48.1901 27.1052C45.0494 27.1052 44.4805 24.2489 44.4805 22.5304V10.3348H39.2301V22.4948C39.2301 25.517 40.2019 28.0059 41.9205 29.6652C43.4375 31.1348 45.7012 31.9407 48.1545 31.9407C49.8968 31.9407 52.3619 31.4193 53.6775 30.2459V31.9881H58.9279V10.3467H53.6775V21.843H53.6657ZM30.1871 31.917H35.556V0H30.1871V31.917Z" fill="white"/>
<path fill-rule="evenodd" clip-rule="evenodd" d="M85.3811 17.2676C87.4789 17.2676 89.1855 18.9268 89.1855 20.9772C89.1855 23.0276 87.4789 24.6868 85.3811 24.6868C83.2833 24.6868 81.5767 23.0276 81.5767 20.9772C81.5767 18.9268 83.2833 17.2676 85.3811 17.2676Z" fill="#E62415"/>
<path fill-rule="evenodd" clip-rule="evenodd" d="M22.6726 24.0244C20.6696 26.0274 17.9674 27.1059 15.1111 27.1059C9.2563 27.1059 5.00148 22.6259 5.00148 16.4866C5.00148 10.3474 9.24444 5.84365 15.0993 5.84365C16.5096 5.84365 17.8607 6.10439 19.1644 6.63772C20.4681 7.17106 21.6296 7.91772 22.637 8.90143L23.4311 9.68365L26.9393 6.27032L26.1689 5.48809C23.2533 2.57254 19.3185 0.984391 15.0874 0.984391C6.48296 0.972539 0 7.64513 0 16.5103C0 25.3755 6.50667 32.0007 15.0993 32.0007C19.3541 32.0007 23.2889 30.3888 26.2044 27.4733L26.9748 26.6911L23.4904 23.2185L22.6607 24.0244H22.6726Z" fill="white"/>
</g>
<defs>
<clipPath id="clip0_11_59122">
<rect width="116" height="32" fill="white"/>
</clipPath>
</defs>
</svg>
