<svg width="111" height="23" viewBox="0 0 111 23" fill="none" xmlns="http://www.w3.org/2000/svg">
<path fill-rule="evenodd" clip-rule="evenodd" d="M14.0016 0.717015C14.7751 0.707286 15.294 0.755932 15.8619 0.901869C16.2928 1.00889 17.0565 1.29104 17.5558 1.53427C18.2804 1.88452 18.6133 2.12775 19.2791 2.7796C19.7295 3.21742 20.2387 3.79144 20.4051 4.06385C20.5716 4.33627 20.6793 4.5795 20.6597 4.62815C20.6303 4.66706 20.3366 4.69625 19.9939 4.69625C19.661 4.69625 19.1127 4.7449 18.1629 4.89084L17.595 4.39465C17.2915 4.12223 16.753 3.75252 16.4005 3.58712C16.048 3.412 15.4997 3.20769 15.1765 3.13958C14.8339 3.07148 14.2268 3.04229 13.7078 3.06175C13.1497 3.09094 12.6112 3.18823 12.2392 3.32444C11.916 3.44119 11.4265 3.67469 11.1621 3.85954C10.8879 4.03467 10.4669 4.39465 10.2026 4.65734C9.94798 4.92002 9.5857 5.41621 9.39967 5.76646C9.22342 6.11671 8.99822 6.66155 8.91989 6.98261C8.82198 7.32313 8.76323 7.96526 8.76323 9.46355L7.24595 9.49311C6.60065 9.50569 5.96578 9.65826 5.38523 9.94028C4.74879 10.2419 4.32776 10.524 3.88715 10.9618C3.52488 11.3121 3.13322 11.818 2.9374 12.1877C2.75136 12.538 2.53595 13.1315 2.44783 13.5012C2.33033 13.9682 2.29117 14.4254 2.33033 14.9605C2.35971 15.447 2.46741 16.0113 2.63387 16.4686C2.78074 16.8675 3.07448 17.4415 3.29968 17.7334C3.52488 18.0252 3.84799 18.3949 4.01444 18.5409C4.1711 18.6966 4.59213 18.9884 4.94462 19.1927C5.29711 19.3971 5.82584 19.6403 6.11958 19.7376C6.59935 19.8932 7.20641 19.9127 17.2327 19.9711L17.9671 20.6813C18.3685 21.0705 18.956 21.5375 19.2693 21.7223C19.5729 21.9072 19.8274 22.1212 19.8274 22.1893C19.8274 22.2769 18.4371 22.2964 13.14 22.2769C6.69726 22.2477 6.4329 22.2477 5.72792 22.0434C5.32648 21.9364 4.70963 21.7126 4.35714 21.5569C4.00465 21.4013 3.45634 21.0802 3.13322 20.8467C2.81011 20.6035 2.29117 20.1462 1.98764 19.8251C1.67432 19.5041 1.25329 18.9495 1.02809 18.5895C0.81268 18.2198 0.499357 17.5193 0.323114 17.0231C0.029374 16.1864 0.00979132 16.0405 0 14.766C0 13.7736 0.0489566 13.2287 0.166452 12.7715C0.264366 12.4212 0.538523 11.7499 0.783306 11.2635C1.02809 10.777 1.45891 10.1154 1.74286 9.79435C2.01701 9.46355 2.49679 8.99655 2.79053 8.75332C3.08427 8.51982 3.63258 8.16957 4.01444 7.97499C4.38651 7.7804 4.98378 7.53717 5.33627 7.43015C5.68876 7.32313 6.08041 7.21611 6.21749 7.18692C6.4329 7.13828 6.48185 7.04099 6.62872 6.42805C6.72664 6.03888 7.01059 5.29946 7.25537 4.79354C7.64702 4.00548 7.86243 3.73306 8.65553 2.93527C9.28217 2.31909 9.80764 1.89749 10.2319 1.67048C10.5844 1.49535 11.0642 1.26185 11.309 1.16456C11.5538 1.05754 12.014 0.921328 12.3371 0.853223C12.6602 0.785119 13.4043 0.717015 14.0016 0.717015ZM23.744 6.94369C24.4391 6.93396 25.0266 6.99234 25.5553 7.11882C25.9862 7.22584 26.5834 7.42042 26.8772 7.5469C27.1709 7.67338 27.6801 7.9458 28.0032 8.15011C28.3263 8.35443 28.8942 8.8117 29.2565 9.16195C29.6285 9.5122 30.0985 10.0668 30.3041 10.3878C30.5196 10.7089 30.7937 11.2537 30.9308 11.604C31.0679 11.9542 31.1462 12.2656 31.1168 12.3045C31.0874 12.3531 30.5196 12.3823 28.6886 12.3726L28.5025 11.964C28.3948 11.7402 27.9836 11.2245 27.5724 10.8256C27.1318 10.3976 26.603 9.98893 26.2897 9.83326C25.996 9.68732 25.4672 9.50247 25.1147 9.40518C24.6448 9.28843 24.2433 9.25924 23.5971 9.29816C23.0194 9.32734 22.5102 9.42464 22.1284 9.56085C21.8053 9.68732 21.3157 9.92083 21.0513 10.096C20.7772 10.2613 20.3268 10.6408 20.0526 10.9327C19.7687 11.2245 19.4064 11.7013 19.2497 11.9931C19.0931 12.285 18.8875 12.7909 18.7895 13.112C18.7014 13.4428 18.6231 14.0363 18.6231 14.4741C18.6231 14.9022 18.6721 15.4956 18.7504 15.7875C18.8189 16.0794 18.9952 16.5659 19.142 16.8577C19.2889 17.1496 19.5826 17.6069 19.7981 17.8793C20.0037 18.1517 20.5226 18.5993 20.9534 18.8814C21.3842 19.1636 22.0207 19.4846 22.3732 19.6014C22.804 19.7278 23.3033 19.7959 23.8908 19.8057C24.3706 19.8057 24.9679 19.757 25.2127 19.6889C25.4574 19.6208 25.898 19.4457 26.1918 19.3095C26.4855 19.1636 26.9261 18.9009 27.1709 18.716C27.4157 18.5312 27.7584 18.2198 27.9346 18.035C28.1109 17.8404 28.3948 17.4512 28.8354 16.6632H31.2833L31.2245 16.9258C31.1952 17.0815 31.0777 17.4123 30.9504 17.6847C30.8329 17.9474 30.5783 18.4144 30.3825 18.7063C30.1866 18.9982 29.7656 19.4943 29.4523 19.8154C29.139 20.1267 28.62 20.5646 28.2969 20.7981C27.9738 21.0218 27.4059 21.3429 27.024 21.5083C26.6422 21.6737 26.0351 21.878 25.6533 21.9656C25.1245 22.092 24.6643 22.1212 23.646 22.0823C22.4809 22.0434 22.2263 22.0045 21.443 21.7321C20.9632 21.5667 20.3659 21.304 20.1212 21.1678C19.8764 21.0316 19.4162 20.7105 19.0931 20.4673C18.7798 20.224 18.2804 19.7376 17.9867 19.3873C17.7027 19.0371 17.2915 18.4047 17.0859 17.9766C16.8704 17.5485 16.6061 16.848 16.4886 16.4199C16.3123 15.807 16.2634 15.3886 16.2634 14.4741C16.2634 13.5693 16.3123 13.1412 16.4788 12.5477C16.5963 12.1391 16.8411 11.5067 17.0271 11.137C17.2131 10.777 17.5754 10.2224 17.83 9.89164C18.0944 9.57057 18.5937 9.05493 18.9462 8.75332C19.2987 8.44199 19.9547 8.00417 20.4149 7.76094C20.8751 7.52744 21.5801 7.2453 21.9815 7.13828C22.4809 7.00207 23.039 6.94369 23.744 6.94369ZM9.81245 7.32222C9.84183 7.32222 10.2613 7.46907 10.6432 7.6442C11.0348 7.81932 11.6419 8.16957 11.9944 8.4128C12.3469 8.65603 12.8364 9.07439 13.0812 9.32734C13.326 9.59003 13.7274 10.1154 13.982 10.4851C14.2268 10.8548 14.5499 11.458 14.9318 12.4796H12.435L12.1902 12.0223C12.0531 11.7694 11.681 11.3024 11.3579 10.9716C11.0348 10.6408 10.5159 10.2322 9.64445 9.75543L9.63466 8.72413C9.63466 8.13065 9.7153 7.51653 9.7153 7.51653C9.7153 7.51653 9.7153 7.32222 9.81245 7.32222Z" fill="white"/>
<path d="M107.104 16.2922C106.503 16.2922 105.916 16.2205 105.342 16.077C104.768 15.9246 104.311 15.7363 103.97 15.5121L104.669 14.0057C104.992 14.2119 105.382 14.3823 105.84 14.5168C106.297 14.6423 106.745 14.7051 107.185 14.7051C108.072 14.7051 108.516 14.4854 108.516 14.046C108.516 13.8398 108.395 13.6919 108.153 13.6022C107.911 13.5125 107.539 13.4363 107.037 13.3735C106.445 13.2839 105.956 13.1807 105.571 13.0642C105.185 12.9476 104.849 12.7414 104.562 12.4455C104.284 12.1496 104.145 11.7281 104.145 11.1812C104.145 10.7238 104.275 10.3203 104.535 9.97064C104.804 9.61196 105.189 9.33399 105.692 9.13672C106.203 8.93945 106.803 8.84082 107.494 8.84082C108.005 8.84082 108.512 8.8991 109.014 9.01567C109.525 9.12327 109.946 9.27571 110.278 9.47298L109.579 10.966C108.942 10.6073 108.247 10.4279 107.494 10.4279C107.046 10.4279 106.709 10.4907 106.485 10.6162C106.261 10.7418 106.149 10.9032 106.149 11.1005C106.149 11.3246 106.27 11.4815 106.512 11.5712C106.754 11.6609 107.14 11.7461 107.669 11.8268C108.261 11.9254 108.745 12.033 109.121 12.1496C109.498 12.2572 109.825 12.4589 110.103 12.7548C110.381 13.0507 110.52 13.4632 110.52 13.9922C110.52 14.4406 110.386 14.8396 110.117 15.1893C109.848 15.539 109.453 15.8125 108.933 16.0098C108.422 16.1981 107.812 16.2922 107.104 16.2922Z" fill="white"/>
<path d="M99.6601 8.84082C100.333 8.84082 100.942 8.99774 101.489 9.31158C102.045 9.61645 102.48 10.0513 102.794 10.6162C103.108 11.1722 103.265 11.8223 103.265 12.5665C103.265 13.3108 103.108 13.9653 102.794 14.5303C102.48 15.0862 102.045 15.5211 101.489 15.8349C100.942 16.1398 100.333 16.2922 99.6601 16.2922C98.7365 16.2922 98.0102 16.0008 97.4812 15.418V18.794H95.3829V8.94842H97.387V9.78233C97.9071 9.15466 98.6648 8.84082 99.6601 8.84082ZM99.2969 14.5706C99.8349 14.5706 100.274 14.3913 100.615 14.0326C100.965 13.665 101.14 13.1763 101.14 12.5665C101.14 11.9568 100.965 11.4726 100.615 11.1139C100.274 10.7463 99.8349 10.5624 99.2969 10.5624C98.7589 10.5624 98.3151 10.7463 97.9654 11.1139C97.6246 11.4726 97.4543 11.9568 97.4543 12.5665C97.4543 13.1763 97.6246 13.665 97.9654 14.0326C98.3151 14.3913 98.7589 14.5706 99.2969 14.5706Z" fill="white"/>
<path d="M90.0126 16.2922C89.2505 16.2922 88.5645 16.1353 87.9548 15.8215C87.354 15.4987 86.8832 15.0548 86.5425 14.4899C86.2017 13.925 86.0314 13.2839 86.0314 12.5665C86.0314 11.8492 86.2017 11.2081 86.5425 10.6431C86.8832 10.0782 87.354 9.63886 87.9548 9.32503C88.5645 9.00222 89.2505 8.84082 90.0126 8.84082C90.7748 8.84082 91.4563 9.00222 92.0571 9.32503C92.6578 9.63886 93.1286 10.0782 93.4693 10.6431C93.8101 11.2081 93.9804 11.8492 93.9804 12.5665C93.9804 13.2839 93.8101 13.925 93.4693 14.4899C93.1286 15.0548 92.6578 15.4987 92.0571 15.8215C91.4563 16.1353 90.7748 16.2922 90.0126 16.2922ZM90.0126 14.5706C90.5506 14.5706 90.99 14.3913 91.3307 14.0326C91.6805 13.665 91.8553 13.1763 91.8553 12.5665C91.8553 11.9568 91.6805 11.4726 91.3307 11.1139C90.99 10.7463 90.5506 10.5624 90.0126 10.5624C89.4746 10.5624 89.0308 10.7463 88.6811 11.1139C88.3314 11.4726 88.1565 11.9568 88.1565 12.5665C88.1565 13.1763 88.3314 13.665 88.6811 14.0326C89.0308 14.3913 89.4746 14.5706 90.0126 14.5706Z" fill="white"/>
<path d="M81.6084 16.3463C80.6489 16.3463 79.7791 16.1401 78.999 15.7276C78.2279 15.3062 77.6181 14.7278 77.1698 13.9926C76.7304 13.2483 76.5107 12.4099 76.5107 11.4774C76.5107 10.5448 76.7304 9.71091 77.1698 8.97563C77.6181 8.23139 78.2279 7.65303 78.999 7.24056C79.7791 6.81912 80.6534 6.6084 81.6218 6.6084C82.4378 6.6084 83.1731 6.75187 83.8276 7.0388C84.4912 7.32574 85.0471 7.73821 85.4955 8.27622L84.0967 9.56744C83.46 8.83216 82.6709 8.46453 81.7294 8.46453C81.1466 8.46453 80.6265 8.59454 80.1692 8.85458C79.7119 9.10565 79.3532 9.45984 79.0932 9.91715C78.8421 10.3745 78.7166 10.8945 78.7166 11.4774C78.7166 12.0602 78.8421 12.5803 79.0932 13.0376C79.3532 13.4949 79.7119 13.8536 80.1692 14.1136C80.6265 14.3647 81.1466 14.4902 81.7294 14.4902C82.6709 14.4902 83.46 14.1181 84.0967 13.3738L85.4955 14.6651C85.0471 15.212 84.4912 15.629 83.8276 15.9159C83.1641 16.2029 82.4243 16.3463 81.6084 16.3463Z" fill="white"/>
<path d="M75.0126 6.20508V16.1851H73.0085V15.3512C72.4884 15.9789 71.7352 16.2927 70.7488 16.2927C70.0674 16.2927 69.4487 16.1403 68.8927 15.8354C68.3457 15.5305 67.9153 15.0957 67.6015 14.5307C67.2877 13.9658 67.1307 13.3113 67.1307 12.567C67.1307 11.8228 67.2877 11.1682 67.6015 10.6033C67.9153 10.0384 68.3457 9.60349 68.8927 9.29862C69.4487 8.99375 70.0674 8.84132 70.7488 8.84132C71.6724 8.84132 72.3942 9.13274 72.9143 9.71558V6.20508H75.0126ZM71.112 14.5711C71.641 14.5711 72.0804 14.3918 72.4301 14.0331C72.7798 13.6655 72.9547 13.1768 72.9547 12.567C72.9547 11.9573 72.7798 11.4731 72.4301 11.1144C72.0804 10.7468 71.641 10.5629 71.112 10.5629C70.574 10.5629 70.1301 10.7468 69.7804 11.1144C69.4307 11.4731 69.2559 11.9573 69.2559 12.567C69.2559 13.1768 69.4307 13.6655 69.7804 14.0331C70.1301 14.3918 70.574 14.5711 71.112 14.5711Z" fill="white"/>
<path d="M65.698 8.94824V16.1844H63.7074V15.3236C63.4294 15.6375 63.0977 15.8796 62.7121 16.0499C62.3265 16.2113 61.9096 16.292 61.4612 16.292C60.5107 16.292 59.7575 16.0186 59.2016 15.4716C58.6456 14.9246 58.3677 14.1131 58.3677 13.0371V8.94824H60.4659V12.7277C60.4659 13.8934 60.9546 14.4763 61.932 14.4763C62.4341 14.4763 62.8376 14.3149 63.1425 13.9921C63.4474 13.6603 63.5998 13.1716 63.5998 12.526V8.94824H65.698Z" fill="white"/>
<path d="M53.0377 16.2922C52.2755 16.2922 51.5895 16.1353 50.9798 15.8215C50.379 15.4987 49.9082 15.0548 49.5675 14.4899C49.2268 13.925 49.0564 13.2839 49.0564 12.5665C49.0564 11.8492 49.2268 11.2081 49.5675 10.6431C49.9082 10.0782 50.379 9.63886 50.9798 9.32503C51.5895 9.00222 52.2755 8.84082 53.0377 8.84082C53.7998 8.84082 54.4813 9.00222 55.0821 9.32503C55.6829 9.63886 56.1536 10.0782 56.4944 10.6431C56.8351 11.2081 57.0055 11.8492 57.0055 12.5665C57.0055 13.2839 56.8351 13.925 56.4944 14.4899C56.1536 15.0548 55.6829 15.4987 55.0821 15.8215C54.4813 16.1353 53.7998 16.2922 53.0377 16.2922ZM53.0377 14.5706C53.5757 14.5706 54.015 14.3913 54.3558 14.0326C54.7055 13.665 54.8803 13.1763 54.8803 12.5665C54.8803 11.9568 54.7055 11.4726 54.3558 11.1139C54.015 10.7463 53.5757 10.5624 53.0377 10.5624C52.4996 10.5624 52.0558 10.7463 51.7061 11.1139C51.3564 11.4726 51.1815 11.9568 51.1815 12.5665C51.1815 13.1763 51.3564 13.665 51.7061 14.0326C52.0558 14.3913 52.4996 14.5706 53.0377 14.5706Z" fill="white"/>
<path d="M45.5488 6.20508H47.6471V16.1851H45.5488V6.20508Z" fill="white"/>
<path d="M40.3383 16.3463C39.3789 16.3463 38.5091 16.1401 37.729 15.7276C36.9579 15.3062 36.3481 14.7278 35.8998 13.9926C35.4604 13.2483 35.2407 12.4099 35.2407 11.4774C35.2407 10.5448 35.4604 9.71091 35.8998 8.97563C36.3481 8.23139 36.9579 7.65303 37.729 7.24056C38.5091 6.81912 39.3834 6.6084 40.3518 6.6084C41.1678 6.6084 41.9031 6.75187 42.5576 7.0388C43.2212 7.32574 43.7771 7.73821 44.2255 8.27622L42.8266 9.56744C42.19 8.83216 41.4009 8.46453 40.4594 8.46453C39.8766 8.46453 39.3565 8.59454 38.8992 8.85458C38.4419 9.10565 38.0832 9.45984 37.8232 9.91715C37.5721 10.3745 37.4466 10.8945 37.4466 11.4774C37.4466 12.0602 37.5721 12.5803 37.8232 13.0376C38.0832 13.4949 38.4419 13.8536 38.8992 14.1136C39.3565 14.3647 39.8766 14.4902 40.4594 14.4902C41.4009 14.4902 42.19 14.1181 42.8266 13.3738L44.2255 14.6651C43.7771 15.212 43.2212 15.629 42.5576 15.9159C41.8941 16.2029 41.1543 16.3463 40.3383 16.3463Z" fill="white"/>
</svg>
