<svg width="121" height="19" viewBox="0 0 121 19" fill="none" xmlns="http://www.w3.org/2000/svg">
<path d="M7.74091 6.6153C7.74091 6.6153 6.73541 6.51475 6.73541 7.39958V11.3612H13.3315V12.5477C13.3315 12.5477 13.3516 13.1309 12.7282 13.1309H6.73541V18.2791H13.9348C13.9348 18.2791 18.2986 17.6154 18.3388 13.1309V6.6153H7.74091ZM18.1377 0.300781H5.14673C0.441004 1.40683 0.340454 5.26793 0.340454 5.26793V18.2992H5.32771V6.4343C5.32771 5.42881 6.33321 5.24782 6.33321 5.24782H18.1176L18.1377 0.300781ZM35.2915 14.5587C34.9496 14.7799 34.6882 14.9609 34.5072 15.0615C33.8637 15.4637 33.2604 15.7653 32.6973 16.0066C31.8728 16.3485 31.1489 16.5094 30.4852 16.5094C28.2329 16.5094 26.3627 15.8256 24.8746 14.4381C23.3663 13.0505 22.6222 11.3009 22.6222 9.20948C22.6222 7.17838 23.2859 5.42881 24.6534 3.92057C26.0007 2.43243 27.6497 1.68836 29.5803 1.68836C30.3847 1.68836 31.2494 1.82914 32.1342 2.11067C33.3006 2.47265 34.2257 3.03573 34.9899 3.73958L33.7028 5.16738C33.1599 4.62441 32.4359 4.24233 31.6114 4.00101C30.988 3.82002 30.3042 3.71947 29.5401 3.71947C28.1927 3.71947 27.0464 4.26243 26.1214 5.34837C25.2164 6.45442 24.7539 7.74145 24.7539 9.2698C24.7539 10.778 25.2768 12.0249 26.3225 13.0103C27.3682 13.9956 28.6954 14.4984 30.3042 14.4984C30.9679 14.4984 31.6516 14.2772 32.3555 13.875C32.9386 13.4326 33.2403 13.2114 33.2403 13.2114V10.0742H28.8764L29.4998 8.12354H35.2915V14.5587ZM48.4233 10.7378C48.4233 12.2461 47.8803 13.5532 46.8145 14.6593C45.7487 15.7653 44.4214 16.3284 42.8327 16.3284C41.3647 16.3284 40.0978 15.7854 38.9917 14.6995C37.8857 13.6135 37.3427 12.3064 37.3427 10.7579C37.3427 9.22958 37.8656 7.92244 38.9113 6.79629C39.957 5.67013 41.244 5.12716 42.7322 5.12716C44.4013 5.12716 45.7487 5.67013 46.8145 6.73595C47.8803 7.78167 48.4233 9.12904 48.4233 10.7378ZM46.3922 10.778C46.3922 9.75244 46.0503 8.88772 45.3666 8.18387C44.6828 7.45991 43.8382 7.11805 42.8126 7.11805C41.8674 7.11805 41.0631 7.48003 40.3793 8.22409C39.7157 8.94805 39.3738 9.79267 39.3738 10.7378C39.3738 11.7232 39.7157 12.5678 40.3793 13.2717C41.0429 13.9755 41.8876 14.3375 42.8931 14.3375C43.8382 14.3375 44.6426 13.9956 45.3264 13.2918C46.0503 12.5678 46.3922 11.7232 46.3922 10.778ZM61.3942 10.7378C61.3942 12.2461 60.8512 13.5532 59.7854 14.6593C58.7196 15.7653 57.3923 16.3284 55.8036 16.3284C54.3356 16.3284 53.0687 15.7854 51.9626 14.6995C50.8566 13.6135 50.3136 12.3064 50.3136 10.7579C50.3136 9.22958 50.8365 7.92244 51.8822 6.79629C52.9279 5.67013 54.2149 5.12716 55.7031 5.12716C57.3722 5.12716 58.7196 5.67013 59.7854 6.73595C60.8512 7.78167 61.3942 9.12904 61.3942 10.7378ZM59.343 10.778C59.343 9.75244 59.0011 8.88772 58.3174 8.18387C57.6336 7.45991 56.789 7.11805 55.7634 7.11805C54.8182 7.11805 54.0138 7.48003 53.3301 8.22409C52.6665 8.94805 52.3246 9.79267 52.3246 10.7378C52.3246 11.7232 52.6665 12.5678 53.3301 13.2717C53.9937 13.9755 54.8383 14.3375 55.8438 14.3375C56.789 14.3375 57.5934 13.9956 58.2771 13.2918C59.0011 12.5678 59.343 11.7232 59.343 10.778ZM73.3797 16.0267L71.5095 16.3083V14.4984L71.1073 14.9609C70.7453 15.3028 70.3431 15.5642 69.9208 15.7854C69.2773 16.0871 68.5935 16.2278 67.8897 16.2278C66.4217 16.2278 65.1749 15.6849 64.1694 14.619C63.1639 13.5532 62.641 12.2461 62.641 10.7579C62.641 9.20947 63.1437 7.88222 64.1492 6.79629C65.1547 5.69024 66.3613 5.14727 67.8294 5.14727C68.674 5.14727 69.3979 5.28804 70.0012 5.54947C70.4436 5.75057 70.8056 6.012 71.1274 6.33376C71.2279 6.47452 71.3285 6.6153 71.4492 6.75606V1.99001L73.44 1.70848L73.3797 16.0267ZM71.6301 10.8786C71.6301 9.81277 71.2682 8.90783 70.5442 8.18387C69.8202 7.4398 68.9957 7.07782 68.0506 7.07782C67.0049 7.07782 66.1804 7.4197 65.5368 8.12354C64.9335 8.78717 64.6319 9.61167 64.6319 10.577C64.6319 11.6629 64.9536 12.5678 65.577 13.2717C66.2005 13.9755 66.9847 14.3174 67.9701 14.3174C68.9153 14.3174 69.7599 13.9956 70.504 13.332C71.248 12.6684 71.6301 11.8439 71.6301 10.8786ZM83.9173 3.96079H78.3267V7.76156H82.6705V9.71223H78.3267V16.0066L76.1549 16.3284V1.99001H83.495L83.9173 3.96079ZM88.4018 2.85474L87.0545 4.54397L85.7674 2.85474L87.1148 1.18562L88.4018 2.85474ZM87.9996 16.0267L86.0087 16.3083V5.69024L87.9996 5.38859V16.0267ZM97.0089 5.26793L96.0637 7.4398C95.943 7.41969 95.8224 7.4197 95.6816 7.4197C95.4805 7.4197 95.2995 7.4398 95.0984 7.45991C94.8973 7.48002 94.6962 7.56046 94.475 7.68112C94.0527 7.86211 93.6907 8.26431 93.3891 8.8475C93.0472 9.53123 92.8662 10.2753 92.8662 11.0395V16.0066L90.8753 16.3284V5.69024L92.7254 5.34837V7.56046C92.9668 7.17837 93.2081 6.79629 93.4494 6.39409C93.7913 5.99189 94.1935 5.71035 94.6359 5.52936C94.8772 5.42881 95.2995 5.36848 95.9631 5.30815C96.6067 5.26793 96.9686 5.24782 97.0089 5.26793ZM111.89 16.0267L109.899 16.3083V9.02849C109.899 8.36486 109.759 7.86211 109.457 7.56046C109.155 7.25881 108.713 7.09794 108.13 7.09794C107.426 7.09794 106.903 7.37947 106.541 7.96266C106.3 8.36486 106.159 8.78717 106.159 9.20948V15.9865L104.168 16.3485V9.04859C104.168 8.40508 104.027 7.92244 103.726 7.58057C103.424 7.2387 103.042 7.07782 102.539 7.07782H102.338C101.634 7.07782 101.131 7.35936 100.81 7.96266C100.568 8.40508 100.448 8.96815 100.448 9.65189V15.9664L98.3763 16.3284V5.65002L100.247 5.32826V6.69574C100.448 6.37398 100.669 6.11255 100.85 5.93156C101.393 5.42881 102.016 5.18749 102.72 5.18749C103.504 5.18749 104.088 5.30815 104.49 5.56958C104.832 5.79079 105.153 6.2131 105.495 6.8164C106.179 5.73046 107.144 5.18749 108.431 5.18749C109.658 5.18749 110.563 5.56958 111.166 6.35387C111.649 6.99738 111.89 7.94255 111.89 9.16926V16.0267ZM121 12.8092C121 13.7945 120.658 14.5989 119.974 15.2223C119.291 15.8659 118.426 16.1675 117.38 16.1675C116.596 16.1675 115.892 15.9865 115.249 15.6245C114.605 15.2626 114.122 14.8403 113.821 14.3576L115.228 13.1108C115.329 13.2717 115.43 13.3923 115.51 13.4728C116.033 14.0157 116.656 14.2772 117.38 14.2772C117.883 14.2772 118.285 14.1364 118.567 13.875C118.868 13.6135 119.009 13.2516 119.009 12.7689C119.009 12.226 118.667 11.864 117.984 11.6629C116.636 11.2607 115.892 11.0194 115.792 10.9791C115.168 10.6574 114.726 10.3155 114.444 9.93344C114.122 9.49102 113.962 8.90783 113.962 8.16376C113.962 7.2387 114.303 6.49464 114.967 5.87123C115.631 5.26793 116.435 4.96628 117.36 4.96628C118.064 4.96628 118.707 5.12716 119.311 5.44892C119.914 5.77068 120.336 6.11255 120.598 6.49464L119.411 7.78167C119.23 7.60068 119.029 7.4398 118.828 7.29904C118.345 6.95717 117.883 6.79629 117.461 6.79629C117.038 6.79629 116.696 6.89684 116.435 7.07782C116.113 7.29903 115.952 7.6409 115.952 8.08332C115.952 8.50563 116.093 8.82739 116.415 9.02849C116.676 9.18937 117.239 9.37035 118.144 9.57145C119.029 9.79266 119.733 10.1546 120.216 10.6775C120.779 11.2406 121 11.9243 121 12.8092Z" fill="white"/>
</svg>
