<svg width="96" height="15" viewBox="0 0 96 15" fill="none" xmlns="http://www.w3.org/2000/svg">
<path d="M12.384 0L8.75824 6.26522H5.23687L4.33044 7.83268H0L3.0276 2.61475H3.58397C5.45014 2.61475 7.17954 1.6137 8.11378 0H12.384Z" fill="white"/>
<path d="M8.75816 6.26562L7.85174 7.83309H4.33035L5.23678 6.26562H8.75816Z" fill="#807C75"/>
<path d="M13.0841 6.26562L10.0635 11.4836H9.5071C7.63398 11.4836 5.9069 12.4777 4.97034 14.0983H0.700165L4.3305 7.83309H7.85189L8.75831 6.26562H13.0841Z" fill="white"/>
<path d="M19.9576 7.0494C19.9576 3.55151 22.6537 0.897461 26.247 0.897461C29.8402 0.897461 32.5363 3.55151 32.5363 7.0494C32.5363 10.5473 29.824 13.2013 26.247 13.2013C22.6699 13.2013 19.9576 10.5473 19.9576 7.0494ZM30.0836 7.0494C30.0836 4.84385 28.4261 3.19085 26.247 3.19085C24.0678 3.19085 22.3941 4.84385 22.3941 7.0494C22.3941 9.25494 24.0516 10.9079 26.247 10.9079C28.4423 10.9079 30.0836 9.25494 30.0836 7.0494Z" fill="white"/>
<path d="M33.9529 9.84013V4.20605H36.1993V9.18586C36.1993 10.3048 36.9249 11.0308 38.0144 11.0308C39.1712 11.0308 39.9502 10.2886 39.9502 9.1535V4.20836H42.1965V12.9959H39.9502V12.0318C39.2756 12.8063 38.3599 13.2039 37.2726 13.2039C35.2859 13.2039 33.9552 11.8769 33.9552 9.84475L33.9529 9.84013Z" fill="white"/>
<path d="M44.9947 10.2188V6.25623H43.5945V4.20559H44.3896C44.8556 4.20559 45.1152 3.96515 45.1152 3.49815V1.86133H47.241V4.20559H49.2787V6.25623H47.241V9.83966C47.241 10.5286 47.6722 10.9424 48.3978 10.9424H49.2787V12.9931H48.0686C46.0471 12.9931 44.9923 12.029 44.9923 10.2188H44.9947Z" fill="white"/>
<path d="M50.1942 8.60066C50.1942 5.98129 52.2319 4 54.928 4C57.2787 4 59.11 5.4981 59.4555 7.58343H57.07C56.7756 6.73959 55.948 6.17087 54.928 6.17087C53.5463 6.17087 52.5101 7.22277 52.5101 8.60066C52.5101 9.97855 53.5463 11.0305 54.928 11.0305C55.948 11.0305 56.7756 10.4617 57.07 9.61789H59.4555C59.11 11.7032 57.2787 13.2013 54.928 13.2013C52.2319 13.2013 50.1942 11.22 50.1942 8.60066Z" fill="white"/>
<path d="M60.3388 8.60066C60.3388 5.98129 62.3765 4 65.0726 4C67.7687 4 69.8064 5.98129 69.8064 8.60066C69.8064 11.22 67.7687 13.2013 65.0726 13.2013C62.3765 13.2013 60.3388 11.22 60.3388 8.60066ZM67.4905 8.60066C67.4905 7.22277 66.4705 6.17087 65.0726 6.17087C63.6747 6.17087 62.6547 7.22277 62.6547 8.60066C62.6547 9.97855 63.691 11.0305 65.0726 11.0305C66.4543 11.0305 67.4905 9.97855 67.4905 8.60066Z" fill="white"/>
<path d="M71.2391 4.20576H73.4855V5.11895C74.1415 4.37915 75.0224 4 76.0935 4C77.3546 4 78.3561 4.56872 78.8916 5.5166C79.5824 4.53405 80.6186 4 81.9145 4C83.8502 4 85.1461 5.29235 85.1461 7.27364V12.9933H82.8998V7.94408C82.8998 6.87599 82.2252 6.16855 81.1727 6.16855C80.0669 6.16855 79.3228 6.89217 79.3228 7.97876V12.9933H77.0764V7.94408C77.0764 6.87599 76.3856 6.16855 75.3493 6.16855C74.2435 6.16855 73.4831 6.89217 73.4831 7.97876V12.9933H71.2368V4.20576H71.2391Z" fill="white"/>
<path d="M86.5325 8.60066C86.5325 5.98129 88.5702 4 91.2663 4C93.9624 4 96.0001 5.98129 96.0001 8.63534C96.0001 8.87577 95.9839 9.1532 95.9305 9.37746H88.9341C89.2286 10.5149 90.1443 11.2547 91.3521 11.2547C92.2678 11.2547 93.0281 10.8409 93.4245 10.2722H95.861C95.1864 12.013 93.4431 13.2013 91.2987 13.2013C88.5679 13.2013 86.5302 11.22 86.5302 8.60066H86.5325ZM88.9504 7.73833H93.5984C93.3225 6.67024 92.4231 5.94661 91.2663 5.94661C90.1095 5.94661 89.2633 6.65405 88.9504 7.73833Z" fill="white"/>
</svg>
