<svg width="111" height="18" viewBox="0 0 111 18" fill="none" xmlns="http://www.w3.org/2000/svg">
<path d="M8.85059 0.400553C9.11623 -0.133517 9.88377 -0.133518 10.1494 0.400553L12.524 5.17466C12.6295 5.38674 12.8334 5.53374 13.0693 5.56775L18.3791 6.33331C18.9732 6.41895 19.2103 7.14325 18.7805 7.55896L14.9383 11.2751C14.7676 11.4402 14.6897 11.678 14.73 11.9111L15.637 17.1584C15.7385 17.7454 15.1175 18.193 14.5863 17.9159L9.837 15.4384C9.62602 15.3284 9.37398 15.3284 9.163 15.4384L4.41374 17.9159C3.88245 18.193 3.2615 17.7454 3.36297 17.1584L4.27 11.9111C4.31029 11.678 4.2324 11.4402 4.06172 11.2751L0.219491 7.55896C-0.210333 7.14325 0.0268486 6.41895 0.62085 6.33331L5.93068 5.56775C6.16656 5.53374 6.37047 5.38674 6.47596 5.17466L8.85059 0.400553Z" fill="#FED500"/>
<path d="M31.8506 0.400553C32.1162 -0.133517 32.8838 -0.133518 33.1494 0.400553L35.524 5.17466C35.6295 5.38674 35.8334 5.53374 36.0693 5.56775L41.3791 6.33331C41.9732 6.41895 42.2103 7.14325 41.7805 7.55896L37.9383 11.2751C37.7676 11.4402 37.6897 11.678 37.73 11.9111L38.637 17.1584C38.7385 17.7454 38.1175 18.193 37.5863 17.9159L32.837 15.4384C32.626 15.3284 32.374 15.3284 32.163 15.4384L27.4137 17.9159C26.8825 18.193 26.2615 17.7454 26.363 17.1584L27.27 11.9111C27.3103 11.678 27.2324 11.4402 27.0617 11.2751L23.2195 7.55896C22.7897 7.14325 23.0268 6.41895 23.6208 6.33331L28.9307 5.56775C29.1666 5.53374 29.3705 5.38674 29.476 5.17466L31.8506 0.400553Z" fill="#FED500"/>
<path d="M54.8506 0.400553C55.1162 -0.133517 55.8838 -0.133518 56.1494 0.400553L58.524 5.17466C58.6295 5.38674 58.8334 5.53374 59.0693 5.56775L64.3791 6.33331C64.9732 6.41895 65.2103 7.14325 64.7805 7.55896L60.9383 11.2751C60.7676 11.4402 60.6897 11.678 60.73 11.9111L61.637 17.1584C61.7385 17.7454 61.1175 18.193 60.5863 17.9159L55.837 15.4384C55.626 15.3284 55.374 15.3284 55.163 15.4384L50.4137 17.9159C49.8825 18.193 49.2615 17.7454 49.363 17.1584L50.27 11.9111C50.3103 11.678 50.2324 11.4402 50.0617 11.2751L46.2195 7.55896C45.7897 7.14325 46.0268 6.41895 46.6208 6.33331L51.9307 5.56775C52.1666 5.53374 52.3705 5.38674 52.476 5.17466L54.8506 0.400553Z" fill="#FED500"/>
<path d="M77.8506 0.400553C78.1162 -0.133517 78.8838 -0.133518 79.1494 0.400553L81.524 5.17466C81.6295 5.38674 81.8334 5.53374 82.0693 5.56775L87.3791 6.33331C87.9732 6.41895 88.2103 7.14325 87.7805 7.55896L83.9383 11.2751C83.7676 11.4402 83.6897 11.678 83.73 11.9111L84.637 17.1584C84.7385 17.7454 84.1175 18.193 83.5863 17.9159L78.837 15.4384C78.626 15.3284 78.374 15.3284 78.163 15.4384L73.4137 17.9159C72.8825 18.193 72.2615 17.7454 72.363 17.1584L73.27 11.9111C73.3103 11.678 73.2324 11.4402 73.0617 11.2751L69.2195 7.55896C68.7897 7.14325 69.0268 6.41895 69.6208 6.33331L74.9307 5.56775C75.1666 5.53374 75.3705 5.38674 75.476 5.17466L77.8506 0.400553Z" fill="#FED500"/>
<path d="M100.851 0.400553C101.116 -0.133517 101.884 -0.133518 102.149 0.400553L104.524 5.17466C104.63 5.38674 104.833 5.53374 105.069 5.56775L110.379 6.33331C110.973 6.41895 111.21 7.14325 110.781 7.55896L106.938 11.2751C106.768 11.4402 106.69 11.678 106.73 11.9111L107.637 17.1584C107.738 17.7454 107.118 18.193 106.586 17.9159L101.837 15.4384C101.626 15.3284 101.374 15.3284 101.163 15.4384L96.4137 17.9159C95.8825 18.193 95.2615 17.7454 95.363 17.1584L96.27 11.9111C96.3103 11.678 96.2324 11.4402 96.0617 11.2751L92.2195 7.55896C91.7897 7.14325 92.0268 6.41895 92.6208 6.33331L97.9307 5.56775C98.1666 5.53374 98.3705 5.38674 98.476 5.17466L100.851 0.400553Z" fill="#FED500"/>
</svg>
