<svg width="96" height="22" viewBox="0 0 96 22" fill="none" xmlns="http://www.w3.org/2000/svg">
<g clip-path="url(#clip0_11_58912)">
<path d="M10.7501 0.177246C4.92576 0.177246 0.203918 4.89909 0.203918 10.7234C0.203918 16.5477 4.92576 21.2696 10.7501 21.2696C16.5744 21.2696 21.2962 16.5477 21.2962 10.7234C21.2962 4.89909 16.5744 0.177246 10.7501 0.177246ZM16.7073 8.19233C16.7073 8.54593 16.4158 8.83219 16.0568 8.83219H15.0837C14.7239 8.83219 14.4333 8.54593 14.4333 8.19233V7.64463C14.4368 7.44789 14.3358 7.26799 14.1895 7.13948C14.0672 7.01807 13.9006 6.94894 13.726 6.94894H7.7617C7.41253 6.94628 7.09171 7.24849 7.07044 7.5888H7.06778C7.06778 7.5888 7.06778 8.7542 7.06867 8.77015C7.08196 9.10071 7.28934 9.40824 7.5818 9.55624C7.68726 9.62536 7.81222 9.66347 7.94249 9.66347H13.7828C14.1426 9.66347 14.4333 9.94972 14.4333 10.3033C14.4474 10.4699 14.4005 11.2888 14.4625 11.4315C14.5609 11.8073 14.9092 12.1254 15.3071 12.1423H16.0577C16.4175 12.1423 16.7082 12.4285 16.7082 12.7821V13.8571C16.7082 14.2107 16.4166 14.497 16.0577 14.497H15.1263C14.9322 14.4952 14.7514 14.5847 14.6238 14.7256C14.5015 14.8453 14.4333 15.0083 14.4333 15.1785V16.0355C14.4333 16.3891 14.1417 16.6753 13.7828 16.6753H7.72005C7.36024 16.6753 7.06956 16.3891 7.06956 16.0355V15.1785C7.07221 14.8213 6.73988 14.4952 6.37652 14.497H5.44509C5.08528 14.497 4.7946 14.2107 4.7946 13.8571V13.0179C4.7946 12.6643 5.08617 12.378 5.44509 12.378H6.41817C6.77799 12.378 7.06867 12.6643 7.06867 13.0179V13.8155C7.0669 14.006 7.15818 14.1833 7.30175 14.3091C7.42405 14.4287 7.58977 14.4961 7.7617 14.4961H13.7402C14.0894 14.4988 14.4111 14.1965 14.4315 13.8553H14.4333C14.4333 13.8553 14.4333 12.6226 14.4333 12.6217C14.4226 12.2911 14.2144 11.9801 13.9219 11.8303C13.8156 11.7603 13.6897 11.7222 13.5594 11.7222H7.71916C7.35935 11.7222 7.06867 11.4359 7.06867 11.0823C7.05715 10.9255 7.09969 10.0171 7.03588 9.88237C6.93396 9.51192 6.58922 9.20086 6.19573 9.18402C6.15231 9.18047 5.46902 9.18579 5.40698 9.18313C5.0649 9.16364 4.7946 8.88536 4.7946 8.54416V7.58703C4.7946 7.23342 5.08617 6.94717 5.44509 6.94717H6.37652C6.73988 6.94983 7.07133 6.62281 7.06956 6.26566V5.40867C7.06956 5.05507 7.36113 4.76881 7.72005 4.76881H13.7828C14.1426 4.76881 14.4333 5.05507 14.4333 5.40867V6.10259C14.4333 6.28427 14.513 6.39771 14.6486 6.52089C14.7709 6.64231 14.9375 6.71143 15.1121 6.71143H16.0577C16.4175 6.71143 16.7082 6.99769 16.7082 7.35129V8.19055L16.7073 8.19233Z" fill="white"/>
<path d="M50.0927 6.02767C50.0927 5.33464 49.5281 4.771 48.8351 4.771H46.3049V6.20049H48.2183C48.407 6.20049 48.5613 6.35381 48.5613 6.54346V15.5582C48.3335 15.3588 48.0375 15.2463 47.7317 15.2463H46.304V16.6757H52.1053V15.2463H50.0918V6.02767H50.0927Z" fill="white"/>
<path d="M57.4126 6.02767C57.4126 5.33464 56.8481 4.771 56.155 4.771H53.6248V6.20049H55.5382C55.727 6.20049 55.8812 6.35381 55.8812 6.54346V15.5582C55.6534 15.3588 55.3574 15.2463 55.0517 15.2463H53.624V16.6757H59.4252V15.2463H57.4117V6.02767H57.4126Z" fill="white"/>
<path d="M70.8792 8.85032V6.58688C70.8792 6.24657 71.0493 6.20049 71.216 6.20049H74.1352V4.771H70.7489C70.3404 4.771 70.0009 4.9057 69.7404 5.17246C69.4807 5.43833 69.3487 5.77953 69.3487 6.18631V8.51621H66.8034V9.9457H69.3487V16.6757H70.8792V9.9457H74.3346V8.51621H71.7335C71.4109 8.51621 71.1087 8.63762 70.8792 8.85032Z" fill="white"/>
<path d="M64.7842 9.77377C64.7842 9.08073 64.2197 8.51709 63.5266 8.51709H61.1063V9.94658H62.9107C63.0995 9.94658 63.2537 10.1008 63.2537 10.2896V15.591L63.0481 15.4146L63.0286 15.4013C62.8442 15.3003 62.6351 15.2471 62.425 15.2471H60.9973V16.6766H66.8039V15.2471H64.7851V9.77377H64.7842Z" fill="white"/>
<path d="M64.5471 4.771H62.6798V6.80933H64.5471V4.771Z" fill="white"/>
<path d="M34.3247 12.2639C33.7859 11.8607 32.9953 11.6152 31.9762 11.5337C31.0678 11.4672 30.4386 11.3299 30.1062 11.1251C29.7898 10.931 29.6356 10.6572 29.6356 10.2876C29.6356 10.1051 29.68 9.95088 29.7712 9.81617C29.8643 9.67792 29.991 9.56093 30.1479 9.46876C30.3092 9.37305 30.4979 9.30038 30.7089 9.25252C30.9233 9.20378 31.1493 9.17897 31.3806 9.17897C31.9709 9.17897 32.4539 9.3252 32.8163 9.61322C33.1159 9.85162 33.3046 10.1609 33.3933 10.5517L34.8928 10.1946C34.8352 9.95885 34.7501 9.72223 34.6366 9.48826C34.4754 9.1577 34.2414 8.8617 33.9427 8.60735C33.6458 8.35566 33.2736 8.14739 32.8367 7.99053C32.3998 7.83367 31.8876 7.75391 31.3124 7.75391C30.9012 7.75391 30.5015 7.80708 30.1248 7.91166C29.7455 8.01712 29.3999 8.17753 29.0968 8.38845C28.7911 8.60203 28.5438 8.86967 28.3639 9.18428C28.1822 9.50156 28.0901 9.87289 28.0901 10.2894V10.3913C28.0901 11.165 28.3736 11.7641 28.932 12.1709C29.477 12.5688 30.264 12.8054 31.2716 12.8746C32.102 12.9304 32.7064 13.0571 33.0689 13.2521C33.411 13.4364 33.5767 13.7369 33.5767 14.1711C33.5767 14.5752 33.4057 14.8801 33.053 15.1034C32.6887 15.3338 32.1969 15.4508 31.5898 15.4508C30.8755 15.4508 30.2985 15.2629 29.874 14.8925C29.508 14.5726 29.2776 14.156 29.1872 13.6527L27.6718 14.0134C27.7161 14.3076 27.8011 14.6009 27.927 14.889C28.0936 15.2709 28.3444 15.6166 28.6714 15.9161C28.9976 16.2148 29.4114 16.4576 29.9006 16.6384C30.3889 16.8183 30.9801 16.9096 31.6589 16.9096C32.1623 16.9096 32.6347 16.8475 33.0627 16.7261C33.4961 16.6029 33.8692 16.4213 34.1723 16.1864C34.4771 15.9507 34.7208 15.6591 34.8945 15.3214C35.0691 14.9829 35.1578 14.5956 35.1578 14.1702V14.0683C35.1578 13.284 34.8777 12.6769 34.3265 12.2639H34.3247Z" fill="white"/>
<path d="M81.5955 8.51709V12.592C81.5955 13.4614 81.3766 14.1633 80.9459 14.6791C80.5205 15.1886 79.9232 15.4474 79.1725 15.4474C78.4751 15.4474 77.9539 15.2587 77.6216 14.8856C77.2866 14.5089 77.1165 13.8947 77.1165 13.0599V8.51798H75.5859V13.2265C75.5859 13.8256 75.6639 14.36 75.8172 14.8147C75.9723 15.2728 76.193 15.6628 76.4757 15.9721C76.7584 16.284 77.1049 16.5215 77.5037 16.6775C77.899 16.8317 78.3377 16.9106 78.8056 16.9106C79.4942 16.9106 80.0729 16.7466 80.5249 16.4223C80.9547 16.1139 81.3092 15.6947 81.5795 15.1762H81.5955V19.7173C81.3659 19.5046 81.0637 19.3832 80.7411 19.3832H77.1165V20.8127H81.7266C82.1352 20.8127 82.4737 20.678 82.7352 20.4112C82.9948 20.1453 83.1269 19.8041 83.1269 19.3974V8.51709H81.5964H81.5955Z" fill="white"/>
<path d="M44.9364 11.7575C44.9231 11.4429 44.8584 10.9626 44.7051 10.5195C44.5509 10.0737 44.308 9.65715 43.9828 9.28139C43.6575 8.90474 43.2357 8.58392 42.7288 8.32869C42.2201 8.07168 41.6095 7.94141 40.9155 7.94141C40.3244 7.94141 39.7679 8.04775 39.2609 8.25868C38.7549 8.46871 38.3074 8.76383 37.9307 9.13339C37.5541 9.50472 37.2563 9.95227 37.0454 10.4645C36.8344 10.9759 36.7281 11.5351 36.7281 12.1262V12.5268C36.7281 13.1719 36.8318 13.7693 37.0365 14.3028C37.2412 14.8372 37.5301 15.3042 37.8944 15.6915C38.2595 16.0797 38.7026 16.3836 39.2113 16.5946C39.7182 16.8055 40.281 16.9118 40.8827 16.9118C41.9719 16.9118 42.8519 16.6602 43.4989 16.1621C44.0147 15.7651 44.4029 15.2688 44.6607 14.6839L43.2251 14.1955C43.1816 14.2859 43.1347 14.3754 43.0824 14.4596C42.9627 14.6528 42.8032 14.8248 42.61 14.971C42.4159 15.1181 42.1775 15.2351 41.9028 15.3202C41.6263 15.4052 41.2948 15.4487 40.9182 15.4487C40.0975 15.4487 39.4515 15.2076 38.9977 14.7335C38.5644 14.2806 38.3189 13.678 38.2684 12.9415H44.6581C44.8061 12.9415 44.9275 12.8237 44.931 12.6765C44.9381 12.3912 44.9479 11.9516 44.9399 11.7602L44.9364 11.7575ZM38.3446 11.5103C38.3933 11.2408 38.4926 10.9856 38.6158 10.7525C38.7593 10.4822 38.9472 10.2429 39.175 10.0427C39.4027 9.84149 39.6713 9.68374 39.9735 9.57207C40.2766 9.46041 40.6089 9.40369 40.9607 9.40369C41.2683 9.40369 41.5722 9.45775 41.8647 9.56321C42.1571 9.66956 42.4204 9.82022 42.6481 10.0108C42.875 10.2004 43.062 10.4353 43.2047 10.71C43.3296 10.9502 43.3633 11.2196 43.3943 11.5103H38.3437H38.3446Z" fill="white"/>
<path d="M88.1861 4.771L86.3109 10.1885H87.2689L87.7031 8.88932H90.1686L90.6135 10.1885H91.5715L89.6688 4.771H88.1861ZM87.9601 8.11741L88.9279 5.17335L89.9116 8.11741H87.9601Z" fill="white"/>
<path d="M94.769 5.47289C94.8736 5.52518 94.9029 5.55354 95.0234 5.55354H95.7926V4.771H92.7546L92.7564 5.55354H93.8598L93.8695 9.48752C93.7649 9.43523 93.6471 9.40687 93.5265 9.40687H92.7662L92.7679 10.1894H95.7918V9.40687H94.7779L94.7673 5.47289H94.769Z" fill="white"/>
</g>
<defs>
<clipPath id="clip0_11_58912">
<rect width="96" height="21.4468" fill="white"/>
</clipPath>
</defs>
</svg>
