<svg width="32" height="30" viewBox="0 0 32 30" fill="none" xmlns="http://www.w3.org/2000/svg">
<path d="M11.971 18.6522H6.397C3.73453 18.6522 1.57617 16.5189 1.57617 13.8873C1.57617 11.2557 3.73453 9.12234 6.397 9.12234H7.62034C7.62034 6.39885 9.85407 4.19102 12.6095 4.19102H13.7813L14.2416 3.67179C15.4226 2.33973 17.0961 1.53336 18.8852 1.43435C22.7095 1.22271 25.928 4.2308 25.928 8.01665V8.85006C28.4114 8.85006 30.4247 10.8399 30.4247 13.2945V14.5252C30.4247 16.8045 28.5552 18.6522 26.2492 18.6522H21.446M11.971 18.6522V25.1041C11.971 25.4339 11.7005 25.7013 11.3669 25.7013H7.62034M11.971 18.6522H16.6428M16.6428 18.6522V28.5753M16.6428 18.6522H21.446M21.446 18.6522V25.1041C21.446 25.4339 21.7165 25.7013 22.0501 25.7013H25.928" stroke="#FED500" stroke-width="1.7" stroke-linecap="round" stroke-linejoin="round"/>
</svg>
