<svg width="32" height="32" viewBox="0 0 32 32" fill="none" xmlns="http://www.w3.org/2000/svg">
<path d="M13.2815 7.44244V10.06M13.2815 10.06H10.9325M13.2815 10.06V16.0333M13.2815 10.06H17.7112M13.2815 16.0333H18.3488C19.9983 16.0333 21.3355 14.6961 21.3355 13.0466C21.3355 11.3971 19.9983 10.06 18.3488 10.06H17.7112M13.2815 16.0333V21.906M13.2815 16.0333H18.4327C20.0359 16.0333 21.3355 17.4 21.3355 19.0032C21.3355 20.6063 20.0359 21.906 18.4327 21.906H17.7112M13.2815 21.906V24.255M13.2815 21.906H17.7112M13.2815 21.906H10.9325M17.7112 21.906V24.255M17.7112 10.06V7.44244M30.9331 15.9997C30.9331 24.2472 24.2472 30.9331 15.9997 30.9331C7.75229 30.9331 1.06641 24.2472 1.06641 15.9997C1.06641 7.75229 7.75229 1.06641 15.9997 1.06641C24.2472 1.06641 30.9331 7.75229 30.9331 15.9997Z" stroke="#FED500" stroke-width="1.7" stroke-linecap="round" stroke-linejoin="round"/>
</svg>
