<svg width="30" height="34" viewBox="0 0 30 34" fill="none" xmlns="http://www.w3.org/2000/svg">
<path d="M11.6115 6.78571L12.6437 9.47633C13.7849 12.4511 16.2166 14.7965 19.3007 15.8972L22.0902 16.8929L19.3007 17.8885C16.2166 18.9892 13.7849 21.3346 12.6437 24.3094L11.6115 27L10.5793 24.3094C9.43806 21.3346 7.00643 18.9892 3.92233 17.8885L1.13281 16.8929L3.92233 15.8972C7.00644 14.7965 9.43806 12.4511 10.5793 9.47632L11.6115 6.78571Z" stroke="#FED500" stroke-width="1.7" stroke-linecap="round" stroke-linejoin="round"/>
<path d="M23.6453 1L24.1596 2.34055C24.7282 3.82267 25.9397 4.99123 27.4763 5.53967L28.8661 6.03571L27.4763 6.53176C25.9397 7.0802 24.7282 8.24876 24.1596 9.73088L23.6453 11.0714L23.131 9.73088C22.5624 8.24876 21.3509 7.0802 19.8143 6.53176L18.4245 6.03571L19.8143 5.53967C21.3509 4.99123 22.5624 3.82267 23.131 2.34055L23.6453 1Z" stroke="#FED500" stroke-width="1.7" stroke-linecap="round" stroke-linejoin="round"/>
<path d="M23.6453 22.9286L24.1596 24.2691C24.7282 25.7512 25.9397 26.9198 27.4763 27.4682L28.8661 27.9643L27.4763 28.4603C25.9397 29.0088 24.7282 30.1773 24.1596 31.6594L23.6453 33L23.131 31.6594C22.5624 30.1773 21.3509 29.0088 19.8143 28.4603L18.4245 27.9643L19.8143 27.4682C21.3509 26.9198 22.5624 25.7512 23.131 24.2691L23.6453 22.9286Z" stroke="#FED500" stroke-width="1.7" stroke-linecap="round" stroke-linejoin="round"/>
</svg>
