<svg width="32" height="26" viewBox="0 0 32 26" fill="none" xmlns="http://www.w3.org/2000/svg">
<path d="M30.9331 9.48103V14.0383C30.9331 17.5951 30.9331 19.3736 30.2468 20.7321C29.6431 21.9271 28.6798 22.8987 27.495 23.5076C26.1481 24.1998 24.3849 24.1998 20.8584 24.1998H11.1411C7.61462 24.1998 5.85138 24.1998 4.50445 23.5076C3.31966 22.8987 2.35639 21.9271 1.7527 20.7321C1.06641 19.3736 1.06641 17.5951 1.06641 14.0383V9.48103M30.9331 9.48103H1.06641M30.9331 9.48103C30.9331 8.24513 30.9331 7.62719 30.8481 7.11068C30.407 4.43069 28.3247 2.33045 25.6676 1.88555C25.1555 1.7998 24.5428 1.7998 23.3175 1.7998H8.68198C7.45665 1.7998 6.84398 1.7998 6.33189 1.88555C3.67481 2.33045 1.59252 4.43069 1.15142 7.11068C1.06641 7.62719 1.06641 8.24513 1.06641 9.48103M24.7215 16.776H18.6801" stroke="#FED500" stroke-width="1.7" stroke-linecap="round" stroke-linejoin="round"/>
</svg>
