<svg width="20" height="32" viewBox="0 0 20 32" fill="none" xmlns="http://www.w3.org/2000/svg">
<path d="M4.92077 1.06641H6.95251M15.0795 1.06641H12.8446M6.95251 1.06641V8.53307M6.95251 1.06641H12.8446M6.95251 8.53307H12.8446M6.95251 8.53307H4.71759C3.5797 8.53307 3.01076 8.53307 2.57615 8.75452C2.19385 8.94931 1.88303 9.26013 1.68824 9.64243C1.4668 10.077 1.4668 10.646 1.4668 11.7839V25.3279C1.4668 26.4658 1.4668 27.0348 1.68824 27.4694C1.88303 27.8517 2.19385 28.1625 2.57615 28.3573C3.01076 28.5787 3.5797 28.5787 4.71759 28.5787H4.92077M12.8446 1.06641V8.53307M12.8446 8.53307H15.2827C16.4206 8.53307 16.9895 8.53307 17.4241 8.75452C17.8064 8.94931 18.1172 9.26013 18.312 9.64243C18.5335 10.077 18.5335 10.646 18.5335 11.7839V25.3279C18.5335 26.4658 18.5335 27.0348 18.312 27.4694C18.1172 27.8517 17.8064 28.1625 17.4241 28.3573C16.9895 28.5787 16.4206 28.5787 15.2827 28.5787H15.0795M4.92077 28.5787V30.9331M4.92077 28.5787H15.0795M15.0795 28.5787V30.9331M5.59801 24.0814V12.8286M9.93241 12.8286V24.0814M14.3345 12.8286V24.0814" stroke="#FED500" stroke-width="1.7" stroke-linecap="round"/>
</svg>
