<svg width="32" height="32" viewBox="0 0 32 32" fill="none" xmlns="http://www.w3.org/2000/svg">
<path d="M10.6673 23.9997C10.6673 23.2924 10.3864 22.6142 9.88627 22.1141C9.38617 21.614 8.7079 21.333 8.00065 21.333C7.29341 21.333 6.61513 21.614 6.11503 22.1141C5.61494 22.6142 5.33398 23.2924 5.33398 23.9997C5.33398 24.7069 5.61494 25.3852 6.11503 25.8853C6.61513 26.3854 7.29341 26.6663 8.00065 26.6663C8.7079 26.6663 9.38617 26.3854 9.88627 25.8853C10.3864 25.3852 10.6673 24.7069 10.6673 23.9997Z" stroke="#FED500" stroke-width="1.7" stroke-linecap="round" stroke-linejoin="round"/>
<path d="M26.6673 23.9997C26.6673 23.2924 26.3864 22.6142 25.8863 22.1141C25.3862 21.614 24.7079 21.333 24.0007 21.333C23.2934 21.333 22.6151 21.614 22.115 22.1141C21.6149 22.6142 21.334 23.2924 21.334 23.9997C21.334 24.7069 21.6149 25.3852 22.115 25.8853C22.6151 26.3854 23.2934 26.6663 24.0007 26.6663C24.7079 26.6663 25.3862 26.3854 25.8863 25.8853C26.3864 25.3852 26.6673 24.7069 26.6673 23.9997Z" stroke="#FED500" stroke-width="1.7" stroke-linecap="round" stroke-linejoin="round"/>
<path d="M26.6673 7.99967C26.6673 7.29243 26.3864 6.61415 25.8863 6.11406C25.3862 5.61396 24.7079 5.33301 24.0007 5.33301C23.2934 5.33301 22.6151 5.61396 22.115 6.11406C21.6149 6.61415 21.334 7.29243 21.334 7.99967C21.334 8.70692 21.6149 9.3852 22.115 9.88529C22.6151 10.3854 23.2934 10.6663 24.0007 10.6663C24.7079 10.6663 25.3862 10.3854 25.8863 9.88529C26.3864 9.3852 26.6673 8.70692 26.6673 7.99967Z" stroke="#FED500" stroke-width="1.7" stroke-linecap="round" stroke-linejoin="round"/>
<path d="M10.6673 7.99967C10.6673 7.29243 10.3864 6.61415 9.88627 6.11406C9.38617 5.61396 8.7079 5.33301 8.00065 5.33301C7.29341 5.33301 6.61513 5.61396 6.11503 6.11406C5.61494 6.61415 5.33398 7.29243 5.33398 7.99967C5.33398 8.70692 5.61494 9.3852 6.11503 9.88529C6.61513 10.3854 7.29341 10.6663 8.00065 10.6663C8.7079 10.6663 9.38617 10.3854 9.88627 9.88529C10.3864 9.3852 10.6673 8.70692 10.6673 7.99967Z" stroke="#FED500" stroke-width="1.7" stroke-linecap="round" stroke-linejoin="round"/>
<path d="M8 10.667V21.3337" stroke="#FED500" stroke-width="1.7" stroke-linecap="round" stroke-linejoin="round"/>
<path d="M24 21.3337V10.667" stroke="#FED500" stroke-width="1.7" stroke-linecap="round" stroke-linejoin="round"/>
<path d="M10.666 8H21.3327" stroke="#FED500" stroke-width="1.7" stroke-linecap="round" stroke-linejoin="round"/>
<path d="M21.3327 24H10.666" stroke="#FED500" stroke-width="1.7" stroke-linecap="round" stroke-linejoin="round"/>
</svg>
