<svg width="32" height="32" viewBox="0 0 32 32" fill="none" xmlns="http://www.w3.org/2000/svg">
<path d="M4 25.3337C4 26.0409 4.28095 26.7192 4.78105 27.2193C5.28115 27.7194 5.95942 28.0003 6.66667 28.0003C7.37391 28.0003 8.05219 27.7194 8.55229 27.2193C9.05238 26.7192 9.33333 26.0409 9.33333 25.3337C9.33333 24.6264 9.05238 23.9481 8.55229 23.448C8.05219 22.9479 7.37391 22.667 6.66667 22.667C5.95942 22.667 5.28115 22.9479 4.78105 23.448C4.28095 23.9481 4 24.6264 4 25.3337Z" stroke="#FED500" stroke-width="1.7" stroke-linecap="round" stroke-linejoin="round"/>
<path d="M9.33398 25.333H13.334C14.0412 25.333 14.7195 25.0521 15.2196 24.552C15.7197 24.0519 16.0007 23.3736 16.0007 22.6663V11.9997C16.0007 11.2924 16.2816 10.6142 16.7817 10.1141C17.2818 9.61396 17.9601 9.33301 18.6673 9.33301H28.0006" stroke="#FED500" stroke-width="1.7" stroke-linecap="round" stroke-linejoin="round"/>
<path d="M24 5.33301L28 9.33301L24 13.333" stroke="#FED500" stroke-width="1.7" stroke-linecap="round" stroke-linejoin="round"/>
</svg>
