<svg width="32" height="32" viewBox="0 0 32 32" fill="none" xmlns="http://www.w3.org/2000/svg">
<path d="M26.0002 9.33335C24.9017 7.68934 23.414 6.34222 21.6694 5.41176C19.9248 4.48131 17.9774 3.99636 16.0002 4.00002C14.0264 3.99881 12.0828 4.48499 10.342 5.41538C8.60126 6.34577 7.11716 7.69159 6.02148 9.33335" stroke="#FED500" stroke-width="1.7" stroke-linecap="round" stroke-linejoin="round"/>
<path d="M15.3331 4C14.2939 5.66481 13.4755 7.4576 12.8984 9.33333" stroke="#FED500" stroke-width="1.7" stroke-linecap="round" stroke-linejoin="round"/>
<path d="M16.666 4C17.7061 5.66467 18.5254 7.45746 19.1033 9.33333" stroke="#FED500" stroke-width="1.7" stroke-linecap="round" stroke-linejoin="round"/>
<path d="M26.0002 22.667C24.9017 24.311 23.414 25.6581 21.6694 26.5886C19.9248 27.519 17.9774 28.004 16.0002 28.0003C14.0264 28.0015 12.0828 27.5154 10.342 26.585C8.60126 25.6546 7.11716 24.3088 6.02148 22.667" stroke="#FED500" stroke-width="1.7" stroke-linecap="round" stroke-linejoin="round"/>
<path d="M15.3331 28.0003C14.2939 26.3355 13.4755 24.5427 12.8984 22.667" stroke="#FED500" stroke-width="1.7" stroke-linecap="round" stroke-linejoin="round"/>
<path d="M16.666 28.0003C17.7061 26.3357 18.5254 24.5429 19.1033 22.667" stroke="#FED500" stroke-width="1.7" stroke-linecap="round" stroke-linejoin="round"/>
<path d="M2.66602 13.333L3.99935 18.6663L5.99935 13.333L7.99935 18.6663L9.33268 13.333" stroke="#FED500" stroke-width="1.7" stroke-linecap="round" stroke-linejoin="round"/>
<path d="M22.666 13.333L23.9993 18.6663L25.9993 13.333L27.9993 18.6663L29.3327 13.333" stroke="#FED500" stroke-width="1.7" stroke-linecap="round" stroke-linejoin="round"/>
<path d="M12.666 13.333L13.9993 18.6663L15.9993 13.333L17.9993 18.6663L19.3327 13.333" stroke="#FED500" stroke-width="1.7" stroke-linecap="round" stroke-linejoin="round"/>
</svg>
