<svg width="32" height="32" viewBox="0 0 32 32" fill="none" xmlns="http://www.w3.org/2000/svg">
<path d="M22.6667 13.3333C22.6667 13.3333 20.832 18.1413 20.6667 18.6667C20.6053 18.1333 18.6667 8 18.6667 8C15.164 8 13.6453 10.0827 12.6667 12.6667C12.6667 12.6667 10.2093 18.7907 10 19.3333C9.98267 18.8427 9.33333 13.3333 9.33333 13.3333C9.13333 10.172 6.38533 8.02667 4 8.02667L6.66667 25.3333C10.3267 25.316 12.96 23.2507 14 20.6667C14 20.6667 15.92 14.9333 16 14.6667C16.0173 14.9067 17.3333 25.3333 17.3333 25.3333C21.0107 25.3333 23.592 23.1653 24.6667 20.6667L29.3333 8C25.6907 8 23.6627 10.74 22.6667 13.3333Z" stroke="#FED500" stroke-width="1.7" stroke-linecap="round" stroke-linejoin="round"/>
</svg>
