<svg width="32" height="32" viewBox="0 0 32 32" fill="none" xmlns="http://www.w3.org/2000/svg">
<path d="M5.33203 10.6673V8.00065C5.33203 7.29341 5.61298 6.61513 6.11308 6.11503C6.61318 5.61494 7.29145 5.33398 7.9987 5.33398H10.6654" stroke="#FED500" stroke-width="1.7" stroke-linecap="round" stroke-linejoin="round"/>
<path d="M5.33203 21.334V24.0007C5.33203 24.7079 5.61298 25.3862 6.11308 25.8863C6.61318 26.3864 7.29145 26.6673 7.9987 26.6673H10.6654" stroke="#FED500" stroke-width="1.7" stroke-linecap="round" stroke-linejoin="round"/>
<path d="M21.332 5.33398H23.9987C24.7059 5.33398 25.3842 5.61494 25.8843 6.11503C26.3844 6.61513 26.6654 7.29341 26.6654 8.00065V10.6673" stroke="#FED500" stroke-width="1.7" stroke-linecap="round" stroke-linejoin="round"/>
<path d="M21.332 26.6673H23.9987C24.7059 26.6673 25.3842 26.3864 25.8843 25.8863C26.3844 25.3862 26.6654 24.7079 26.6654 24.0007V21.334" stroke="#FED500" stroke-width="1.7" stroke-linecap="round" stroke-linejoin="round"/>
<path d="M10.668 14.667C10.668 15.1923 10.7714 15.7124 10.9725 16.1977C11.1735 16.683 11.4681 17.124 11.8395 17.4954C12.211 17.8669 12.6519 18.1615 13.1372 18.3625C13.6225 18.5635 14.1427 18.667 14.668 18.667C15.1933 18.667 15.7134 18.5635 16.1987 18.3625C16.684 18.1615 17.125 17.8669 17.4964 17.4954C17.8678 17.124 18.1625 16.683 18.3635 16.1977C18.5645 15.7124 18.668 15.1923 18.668 14.667C18.668 13.6061 18.2465 12.5887 17.4964 11.8386C16.7463 11.0884 15.7288 10.667 14.668 10.667C13.6071 10.667 12.5897 11.0884 11.8395 11.8386C11.0894 12.5887 10.668 13.6061 10.668 14.667Z" stroke="#FED500" stroke-width="1.7" stroke-linecap="round" stroke-linejoin="round"/>
<path d="M21.3333 21.3333L18 18" stroke="#FED500" stroke-width="1.7" stroke-linecap="round" stroke-linejoin="round"/>
</svg>
