<svg width="392" height="237" viewBox="0 0 392 237" fill="none" xmlns="http://www.w3.org/2000/svg">
<path d="M193.327 1.5C209.693 1.5 223.312 6.97023 234.068 17.9395H234.069C244.854 28.725 250.188 43.1074 250.188 60.9199V177.4C250.188 194.582 244.955 208.634 234.399 219.41C223.849 230.18 210.328 235.54 193.967 235.54C178.453 235.54 165.475 230.389 155.147 220.061L155.136 220.05C144.812 209.507 139.259 195.699 138.39 178.757L138.309 177.18H166.571L166.664 178.58C167.286 187.906 170.169 195.107 175.188 200.339C180.225 205.377 186.451 207.9 193.967 207.9C202.367 207.9 208.995 205.251 214.006 200.04L214.027 200.02C219.219 194.827 221.907 187.465 221.907 177.72V143.831C213.467 151.434 202.948 155.22 190.448 155.22C175.533 155.22 162.875 149.827 152.565 139.078C142.237 128.311 137.108 114.59 137.108 98.04V60.9199C137.108 43.1161 142.329 28.7374 152.896 17.9502L153.403 17.4395C164.072 6.80782 177.416 1.50002 193.327 1.5ZM333.64 1.5C350.006 1.5 363.625 6.97023 374.38 17.9395H374.381C385.167 28.725 390.5 43.1074 390.5 60.9199V177.4C390.5 194.582 385.268 208.634 374.711 219.41C364.161 230.18 350.641 235.54 334.28 235.54C318.765 235.54 305.788 230.389 295.459 220.061L295.448 220.05C285.125 209.507 279.571 195.699 278.702 178.757L278.621 177.18H306.883L306.977 178.58C307.599 187.906 310.481 195.107 315.5 200.339C320.538 205.377 326.764 207.9 334.28 207.9C342.679 207.9 349.308 205.251 354.319 200.04L354.339 200.02C359.532 194.827 362.22 187.465 362.22 177.72V143.831C353.78 151.434 343.261 155.22 330.76 155.22C315.845 155.22 303.187 149.827 292.877 139.078C282.55 128.311 277.42 114.59 277.42 98.04V60.9199C277.42 43.1161 282.641 28.7374 293.208 17.9502L293.715 17.4395C304.385 6.80783 317.729 1.50002 333.64 1.5ZM58.8928 1.5C76.0653 1.50007 89.8162 6.72813 99.9641 17.3105C110.066 27.6325 115.113 40.3896 115.113 55.4805C115.112 65.518 112.929 75.4311 108.583 85.209L108.582 85.208C104.477 94.7127 99.2863 103.258 93.0071 110.837L93.0002 110.846L92.9934 110.854C86.7978 118.117 79.9625 125.912 72.4895 134.239C65.243 142.338 58.5318 150.011 52.3538 157.254L52.3469 157.262L52.3391 157.271C46.2492 164.2 41.0975 172.083 36.887 180.925C33.1519 189.189 31.1916 197.325 30.9739 205.34H117.032V232.02H2.03247V211.64C2.03252 197.558 4.95908 184.119 10.8088 171.336L10.8127 171.326L10.8176 171.316C16.8417 158.623 23.9527 147.52 32.1575 138.02L32.1584 138.018H32.1594C40.4937 128.401 48.8287 119.21 57.1653 110.446C65.4197 101.769 72.3939 92.7841 78.094 83.4951L78.0989 83.4873L78.6399 82.6055C84.1357 73.5007 86.8323 64.6785 86.8323 56.1201C86.8323 47.9285 84.2855 41.2757 79.2512 36.04L79.2405 36.0283L79.2307 36.0176C74.4546 30.8435 67.7446 28.1798 58.8928 28.1797C50.3029 28.1797 43.705 31.0236 38.9114 36.6162L38.9026 36.626L38.8938 36.6367C34.1009 42.0287 31.4814 50.1566 31.2717 61.2686L31.2444 62.7402H3.54028L3.63501 61.1504C4.71622 42.9874 10.0267 28.4465 19.6965 17.6777L19.7024 17.6719L19.7073 17.665C29.6249 6.86581 42.7386 1.5 58.8928 1.5ZM193.327 29.1396C185.189 29.1397 178.555 31.9692 173.307 37.6211L173.297 37.6309L173.288 37.6406C168.086 43.0434 165.388 50.7313 165.388 60.9199V97.4004C165.388 107.127 168.172 114.603 173.588 120.02C179.037 125.469 186.002 128.22 194.608 128.22C202.538 128.22 208.956 125.494 213.987 120.061L213.989 120.06C219.216 114.43 221.907 106.722 221.907 96.7598V60.9199C221.907 50.7467 219.112 43.0661 213.707 37.6611L213.687 37.6406L213.668 37.6211C208.428 31.9775 201.691 29.1396 193.327 29.1396ZM333.64 29.1396C325.502 29.1397 318.868 31.9692 313.619 37.6211L313.61 37.6309L313.601 37.6406C308.398 43.0434 305.7 50.7313 305.7 60.9199V97.4004C305.701 107.127 308.484 114.603 313.901 120.02C319.35 125.469 326.314 128.22 334.92 128.22C342.85 128.22 349.268 125.494 354.299 120.061L354.301 120.06C359.529 114.43 362.22 106.722 362.22 96.7598V60.9199C362.22 50.7467 359.424 43.0661 354.02 37.6611L353.999 37.6406L353.981 37.6211C348.74 31.9775 342.004 29.1396 333.64 29.1396Z" stroke="url(#paint0_linear_11_58782)" stroke-width="3"/>
<defs>
<linearGradient id="paint0_linear_11_58782" x1="406.933" y1="6.52003" x2="391.971" y2="270.879" gradientUnits="userSpaceOnUse">
<stop stop-color="#FED500"/>
<stop offset="1" stop-color="#FED500" stop-opacity="0"/>
</linearGradient>
</defs>
</svg>
