<svg width="36" height="24" viewBox="0 0 36 24" fill="none" xmlns="http://www.w3.org/2000/svg">
<path opacity="0.5" d="M27.8336 2.15838C24.0746 2.17559 21.216 4.53042 20.1466 8.2825C18.352 5.66697 16.9518 2.67546 16.1486 0.149414L12.1915 0.166622L12.2406 10.0979C12.2449 11.0421 11.8531 11.9494 11.1513 12.6202C10.4495 13.291 9.49511 13.6705 8.49791 13.6753C7.5007 13.6794 6.54257 13.3084 5.83412 12.6439C5.12567 11.9794 4.72487 11.0757 4.71982 10.1314L4.66985 0.200176L0.710938 0.217384L0.760004 10.1486C0.780902 14.2698 4.25823 17.5358 8.51427 17.516C12.7703 17.4962 16.2176 14.2018 16.1977 10.0798L16.1886 8.39348C16.9863 9.88795 17.984 11.4762 19.0807 12.8777L16.6611 23.85L20.7172 23.8328L22.4618 15.8606C24.0491 16.7916 25.8237 17.3448 27.9099 17.3353C32.2641 17.3155 35.8105 13.9282 35.7878 9.61779C35.7712 7.63182 34.9256 5.73271 33.4355 4.335C31.9454 2.93729 29.9319 2.1545 27.8345 2.15752L27.8336 2.15838ZM27.8899 13.4955C26.3071 13.5024 24.7215 12.8536 23.4304 11.8281L23.8183 10.3285V10.2424C24.1091 8.64729 24.9832 5.9268 27.9526 5.91476C28.9996 5.91311 30.0049 6.3031 30.7498 6.99983C31.4946 7.69657 31.9187 8.64366 31.9297 9.635C31.8407 11.7902 29.9698 13.4852 27.8908 13.4946L27.8899 13.4955Z" fill="white"/>
</svg>
