<svg width="23" height="24" viewBox="0 0 23 24" fill="none" xmlns="http://www.w3.org/2000/svg">
<path d="M17.832 16.898C16.5906 17.8776 14.8527 18.6122 13.1147 18.6122C9.14233 18.6122 6.41129 15.6735 6.41129 11.7551C6.41129 7.83673 9.14233 5.14285 13.1147 5.14285C14.8527 5.14285 16.5906 5.63265 17.832 6.85714L18.5768 7.59183L22.5492 3.91836L21.5561 3.18367C19.3216 1.22448 16.3423 0 13.1147 0C6.16302 0 0.949219 5.14286 0.949219 12C0.949219 18.8571 6.16302 24 13.1147 24C16.3423 24 19.3216 22.7755 21.5561 20.8163L22.5492 20.0816L18.5768 16.1633L17.832 16.898Z" fill="white"/>
<path opacity="0.4" d="M12.8669 15.9178C15.0609 15.9178 16.8394 14.1635 16.8394 11.9994C16.8394 9.83537 15.0609 8.08105 12.8669 8.08105C10.673 8.08105 8.89453 9.83537 8.89453 11.9994C8.89453 14.1635 10.673 15.9178 12.8669 15.9178Z" fill="white"/>
</svg>
