<svg width="21" height="30" viewBox="0 0 21 30" fill="none" xmlns="http://www.w3.org/2000/svg">
<g opacity="0.5">
<path d="M10.2196 22.3075C10.1588 22.2429 10.1588 22.3075 10.2196 22.3075L9.91568 22.1135L9.85489 22.0489L2.68162 16.6172C2.68162 16.6172 2.62083 16.6172 2.62083 16.5525L2.49925 16.4232L2.43846 16.3585H2.31688L0.25 14.8066L4.32296 15.4533C4.50533 15.4533 4.56612 15.5179 4.74849 15.5826C4.80928 15.5826 4.93086 15.6473 4.93086 15.6473C5.11324 15.7119 5.17403 15.7766 5.29561 15.8412C5.41719 15.9059 5.47798 15.9706 5.59956 16.0352C5.66035 16.0999 5.78193 16.1646 5.78193 16.2292C5.84272 16.2939 5.90351 16.2939 5.9643 16.3585C6.08588 16.4232 6.14667 16.4879 6.14667 16.5525C6.32904 16.7465 6.45063 16.9405 6.633 17.0698L9.85489 21.9195L9.91568 21.9842L10.2196 22.3075Z" fill="#747474"/>
<path d="M10.2194 29.8084L9.91544 29.2911L9.85465 29.2264L0.310547 14.8066L2.37742 16.3585L2.74216 16.6172L9.91544 22.0489H9.97623L10.2194 22.2429C10.2194 22.2429 10.2802 22.2429 10.2802 22.3075L10.5841 22.0489L20.2498 14.8066L10.5233 29.2911L10.4626 29.3558L10.2194 29.8084Z" fill="white"/>
<path d="M11.7387 4.52479C11.7387 7.36995 7.11864 8.85719 7.11864 11.8963C7.05785 12.6076 7.24022 13.3189 7.54417 13.9655C7.54417 13.9655 5.78125 12.155 5.78125 10.2151C5.78125 8.27522 7.48338 5.3654 7.48338 5.3654C7.48338 6.65866 7.96971 7.04663 8.45603 7.1113H8.51682C9.06393 7.1113 9.36789 6.65866 9.36789 6.01203C9.36789 5.3654 8.69919 4.71877 8.69919 3.42552C8.69919 2.19693 10.1582 0.192383 10.1582 0.192383C11.1916 1.48564 11.7387 2.97288 11.7387 4.52479Z" fill="white"/>
<path d="M10.4614 14.8702C9.00243 14.8702 7.9082 13.6416 7.9082 12.1543V12.0897C7.9082 8.79188 12.2243 8.46856 12.2243 4.00684C12.3459 4.20082 13.5009 5.88206 13.5009 7.69261C13.5009 9.95581 11.4948 10.5378 11.4948 11.637C11.4948 12.0897 11.6772 12.413 12.2851 12.413C12.3459 12.413 12.4067 12.413 12.4675 12.3483C13.6225 11.831 14.4128 10.6671 14.4736 9.30918C14.4736 9.37384 15.0815 14.8702 10.4614 14.8702Z" fill="white"/>
</g>
</svg>
