<svg width="40" height="40" viewBox="0 0 40 40" fill="none" xmlns="http://www.w3.org/2000/svg">
<rect width="40" height="40" rx="20" fill="#0E0033"/>
<path d="M10.4215 24.2648C10.9094 23.2668 11.9852 20.3965 10.3112 17.0241C10.2575 16.9158 10.126 16.8723 10.0177 16.9269C9.45393 17.2073 7.82441 18.3226 6.63416 22.2031C6.63416 22.2031 8.28897 20.9815 10.0308 24.2719C10.1148 24.4298 10.3436 24.4267 10.4215 24.2658V24.2648Z" fill="url(#paint0_linear_11_59165)"/>
<path d="M5.12378 15.735C4.63593 16.7329 3.56005 19.6033 5.2341 22.9757C5.28774 23.084 5.41931 23.1275 5.52761 23.0728C6.09136 22.7925 7.72087 21.6771 8.91113 17.7966C8.91113 17.7966 7.25631 19.0183 5.51445 15.7279C5.43045 15.57 5.20171 15.573 5.12378 15.7339V15.735Z" fill="url(#paint1_linear_11_59165)"/>
<path d="M14.204 22.8478V17.0352H15.9307L17.5086 22.2496H17.6412V17.0352H18.5298V22.8478H16.8031L15.2252 17.6252H15.0926V22.8478H14.204Z" fill="#E8E0F1"/>
<path d="M21.2278 22.9635C20.8128 22.9635 20.4494 22.8764 20.1397 22.7023C19.83 22.5283 19.5871 22.2813 19.413 21.9635C19.239 21.6457 19.1519 21.2763 19.1519 20.8552V20.756C19.1519 20.3299 19.2379 19.9575 19.409 19.6386C19.58 19.3208 19.8199 19.0739 20.1276 18.8998C20.4353 18.7257 20.7905 18.6387 21.1944 18.6387C21.5982 18.6387 21.9322 18.7257 22.2277 18.8998C22.5233 19.0739 22.7551 19.3168 22.9211 19.6265C23.087 19.9362 23.17 20.2996 23.17 20.7145V21.0384H20.0234C20.0345 21.3987 20.1549 21.6852 20.3847 21.8977C20.6144 22.1113 20.9009 22.2175 21.244 22.2175C21.5648 22.2175 21.8067 22.1457 21.9707 22.0019C22.1336 21.8582 22.2601 21.6922 22.3482 21.504L23.0536 21.8694C22.9757 22.0242 22.8644 22.1872 22.7176 22.3592C22.5709 22.5313 22.3786 22.675 22.1407 22.7914C21.9029 22.9078 21.5982 22.9655 21.2278 22.9655V22.9635ZM20.0325 20.3805H22.2996C22.2773 20.0708 22.167 19.8289 21.9676 19.6538C21.7682 19.4797 21.5081 19.3917 21.1873 19.3917C20.8664 19.3917 20.6043 19.4787 20.4029 19.6538C20.2005 19.8279 20.078 20.0708 20.0335 20.3805H20.0325Z" fill="#E8E0F1"/>
<path d="M23.1708 22.8479L24.7315 20.7802L23.2032 18.7539H24.2083L25.2791 20.2235H25.4117L26.4825 18.7539H27.4956L25.9592 20.7802L27.5199 22.8479H26.4987L25.4107 21.3449H25.2781L24.19 22.8479H23.1688H23.1708Z" fill="#E8E0F1"/>
<path d="M29.6813 22.9645C29.2714 22.9645 28.908 22.8805 28.5892 22.7114C28.2704 22.5424 28.0204 22.3005 27.8372 21.9847C27.655 21.669 27.5629 21.2955 27.5629 20.8633V20.7388C27.5629 20.3066 27.654 19.9352 27.8372 19.6225C28.0204 19.3097 28.2704 19.0678 28.5892 18.8958C28.907 18.7247 29.2714 18.6387 29.6813 18.6387C30.0912 18.6387 30.4565 18.7247 30.7774 18.8958C31.0982 19.0678 31.3503 19.3097 31.5335 19.6225C31.7166 19.9352 31.8077 20.3077 31.8077 20.7388V20.8633C31.8077 21.2955 31.7166 21.669 31.5335 21.9847C31.3513 22.3005 31.0992 22.5424 30.7774 22.7114C30.4565 22.8805 30.0912 22.9645 29.6813 22.9645ZM29.6813 22.2003C30.0578 22.2003 30.3634 22.0799 30.5993 21.839C30.8341 21.5981 30.9525 21.2651 30.9525 20.838V20.7631C30.9525 20.337 30.8361 20.003 30.6033 19.7621C30.3705 19.5212 30.0639 19.4008 29.6813 19.4008C29.2987 19.4008 29.0072 19.5212 28.7724 19.7621C28.5376 20.003 28.4192 20.337 28.4192 20.7631V20.838C28.4192 21.2641 28.5366 21.5981 28.7724 21.839C29.0072 22.0799 29.3108 22.2003 29.6813 22.2003Z" fill="#E8E0F1"/>
<path d="M32.454 22.8473V18.7533H33.2931V19.3676H33.4257C33.5036 19.2017 33.6413 19.0468 33.8406 18.9031C34.04 18.7594 34.3356 18.6875 34.7293 18.6875C35.039 18.6875 35.3143 18.7573 35.5552 18.895C35.7961 19.0336 35.9853 19.229 36.124 19.48C36.2627 19.732 36.3315 20.0346 36.3315 20.3889V22.8463H35.4762V20.4547C35.4762 20.1004 35.3872 19.8393 35.21 19.6703C35.0329 19.5012 34.789 19.4172 34.4793 19.4172C34.1251 19.4172 33.8417 19.5336 33.6281 19.7664C33.4145 19.9992 33.3083 20.3362 33.3083 20.7796V22.8473H32.453H32.454Z" fill="#E8E0F1"/>
<defs>
<linearGradient id="paint0_linear_11_59165" x1="8.92357" y1="16.9026" x2="8.92357" y2="24.3873" gradientUnits="userSpaceOnUse">
<stop stop-color="#692AF9"/>
<stop offset="1" stop-color="#AAC5FC"/>
</linearGradient>
<linearGradient id="paint1_linear_11_59165" x1="6.62171" y1="23.0971" x2="6.62171" y2="15.6125" gradientUnits="userSpaceOnUse">
<stop stop-color="#6827F9"/>
<stop offset="1" stop-color="#A8C2FC"/>
</linearGradient>
</defs>
</svg>
