<svg width="24" height="24" viewBox="0 0 24 24" fill="none" xmlns="http://www.w3.org/2000/svg">
<path d="M11.6271 2.57227C11.6713 2.68431 11.6541 4.67971 11.6542 5.02198C11.2582 4.8789 10.8908 4.79706 10.4717 4.89006C10.4559 4.89363 10.4401 4.89738 10.4243 4.90133C10.4085 4.90527 10.3928 4.90941 10.3772 4.91374C10.3615 4.91808 10.3459 4.92261 10.3303 4.92733C10.3148 4.93203 10.2993 4.93694 10.2839 4.94204C10.2684 4.94714 10.253 4.95243 10.2377 4.9579C10.2224 4.96338 10.2072 4.96905 10.192 4.9749C10.1769 4.98075 10.1618 4.98678 10.1467 4.993C10.1317 4.99922 10.1168 5.00563 10.1019 5.01222C10.0871 5.01881 10.0723 5.02558 10.0576 5.03253C10.0429 5.03948 10.0283 5.04661 10.0138 5.05392C9.99927 5.06122 9.98485 5.06871 9.97053 5.07639C9.95619 5.08405 9.94195 5.09188 9.92781 5.0999C9.91366 5.10791 9.89962 5.1161 9.88569 5.12447C9.87174 5.13282 9.85791 5.14135 9.84418 5.15006C9.83045 5.15876 9.81683 5.16763 9.80332 5.17667C9.7898 5.18571 9.7764 5.19491 9.76312 5.20427C9.74983 5.21363 9.73665 5.22315 9.72361 5.23284C9.71056 5.24252 9.69763 5.25237 9.68481 5.26239C9.67199 5.27239 9.65931 5.28255 9.64675 5.29288C9.63419 5.30319 9.62176 5.31366 9.60946 5.32429C9.59715 5.33491 9.58497 5.34569 9.57293 5.35661C9.56091 5.36752 9.54901 5.37859 9.53724 5.38982C9.52547 5.40103 9.51384 5.41238 9.50236 5.42388C9.49087 5.43539 9.47952 5.44703 9.46832 5.45882C9.45712 5.47059 9.44607 5.4825 9.43516 5.49455C9.42425 5.50661 9.41348 5.51879 9.40287 5.5311C9.39226 5.54343 9.3818 5.55588 9.37151 5.56845C9.36121 5.58102 9.35106 5.59371 9.34106 5.60653C9.33107 5.61936 9.32124 5.63231 9.31157 5.64537C9.30189 5.65843 9.29238 5.67161 9.28304 5.68492C9.27367 5.69821 9.26448 5.71162 9.25546 5.72514C9.24644 5.73867 9.23759 5.7523 9.22891 5.76604C8.94955 6.2111 8.87938 6.75378 8.99738 7.26263C9.00115 7.27831 9.00512 7.29393 9.00928 7.30951C9.01343 7.32509 9.01778 7.34061 9.02232 7.35608C9.02685 7.37155 9.03157 7.38697 9.03648 7.40233C9.0414 7.41769 9.04649 7.43298 9.05177 7.4482C9.05705 7.46344 9.06252 7.47861 9.06818 7.49371C9.07382 7.5088 9.07965 7.52383 9.08567 7.5388C9.0917 7.55375 9.0979 7.56863 9.10428 7.58343C9.11066 7.59823 9.11722 7.61296 9.12395 7.62761C9.13069 7.64225 9.13761 7.65681 9.14471 7.67129C9.1518 7.68576 9.15906 7.70015 9.1665 7.71445C9.17396 7.72875 9.18158 7.74296 9.18936 7.75708C9.19716 7.77119 9.20512 7.7852 9.21326 7.79912C9.2214 7.81306 9.2297 7.82688 9.23816 7.84059C9.24663 7.85431 9.25527 7.86792 9.26408 7.88143C9.27287 7.89494 9.28182 7.90833 9.29095 7.92161C9.30008 7.93491 9.30938 7.94808 9.31883 7.96114C9.32827 7.9742 9.33788 7.98715 9.34765 7.99998C9.35742 8.01281 9.36733 8.02552 9.3774 8.0381C9.38747 8.05069 9.3977 8.06315 9.40808 8.07549C9.41846 8.08783 9.42899 8.10003 9.43967 8.1121C9.45034 8.12418 9.46115 8.13614 9.47212 8.14796C9.48308 8.15977 9.49419 8.17145 9.50544 8.183C9.5167 8.19455 9.52809 8.20596 9.53963 8.21723C9.55115 8.22849 9.56281 8.23961 9.57461 8.25059C9.58642 8.26159 9.59835 8.27242 9.6104 8.2831C9.62247 8.2938 9.63467 8.30434 9.647 8.31474C9.65931 8.32514 9.67175 8.33539 9.68432 8.34547C9.69689 8.35557 9.70959 8.3655 9.7224 8.37529C9.73522 8.38507 9.74815 8.39469 9.7612 8.40416C9.77425 8.41363 9.78741 8.42294 9.80069 8.43208C9.81395 8.44123 9.82733 8.45021 9.84083 8.45904C9.85433 8.46786 9.86793 8.47651 9.88163 8.485C10.235 8.70288 10.6677 8.82449 11.0835 8.78308C11.2658 8.76494 11.4434 8.71967 11.6213 8.67755C11.6482 9.49382 11.6339 10.3187 11.6226 11.1354C11.0003 11.1553 10.3702 11.1418 9.74714 11.1406C9.43263 11.14 9.11124 11.1244 8.79806 11.1573C8.69312 11.1683 8.57759 11.2013 8.51128 11.2903C8.45487 11.3662 8.42375 11.4602 8.4393 11.5543C8.46385 11.7027 8.56638 11.7557 8.67514 11.8402C8.87195 11.9933 8.96981 12.237 8.99704 12.4796C9.03483 12.8162 8.94973 13.1495 8.73455 13.4138C8.72274 13.4284 8.71058 13.4426 8.69808 13.4566C8.68556 13.4706 8.67271 13.4843 8.65952 13.4976C8.64634 13.511 8.63284 13.524 8.61902 13.5367C8.60519 13.5494 8.59106 13.5617 8.57663 13.5737C8.56219 13.5857 8.54748 13.5973 8.53248 13.6086C8.51748 13.6198 8.50221 13.6307 8.48667 13.6412C8.47113 13.6517 8.45534 13.6619 8.4393 13.6716C8.42326 13.6813 8.40699 13.6907 8.3905 13.6996C8.374 13.7085 8.35729 13.7171 8.34038 13.7252C8.32347 13.7333 8.30636 13.741 8.28906 13.7482C8.27176 13.7555 8.2543 13.7624 8.23667 13.7688C8.21905 13.7752 8.20127 13.7812 8.18334 13.7867C8.16542 13.7922 8.14738 13.7973 8.1292 13.802C8.11102 13.8066 8.09274 13.8108 8.07436 13.8146C8.05598 13.8183 8.03752 13.8216 8.01897 13.8244C8.00043 13.8273 7.98182 13.8297 7.96316 13.8316C7.62657 13.8649 7.34387 13.75 7.08681 13.5377C7.04375 13.5001 7.0004 13.4626 6.96271 13.4195C6.74942 13.1759 6.66883 12.8709 6.69412 12.5515C6.71016 12.3488 6.78801 12.0486 6.9462 11.9086C7.0191 11.8441 7.11597 11.8094 7.18846 11.7436C7.25506 11.6832 7.28767 11.5889 7.28948 11.5005C7.29134 11.4106 7.25775 11.3201 7.19342 11.2567C7.12832 11.1924 7.04232 11.1629 6.95336 11.1508C6.66328 11.1116 6.3445 11.1507 6.05146 11.1533C5.52714 11.158 5.00222 11.1514 4.47783 11.1497C4.36832 10.6684 4.24034 10.1947 4.14646 9.70923C4.08563 9.39018 4.0327 9.06982 3.98767 8.74816C3.94263 8.4265 3.90555 8.10393 3.87642 7.78043C3.84731 7.45693 3.82618 7.13292 3.81304 6.80839C3.79991 6.48386 3.79478 6.1592 3.79765 5.83441C4.06169 5.79178 4.32877 5.75388 4.59022 5.69745C6.53244 5.27818 8.62612 4.39718 10.3416 3.39406C10.7816 3.13676 11.2003 2.85018 11.6271 2.57227Z" fill="#EA84FA"/>
<path d="M12.3428 2.57422C12.5405 2.65895 12.7197 2.80634 12.8987 2.92563C13.1872 3.11781 13.4818 3.30726 13.7857 3.47424C15.4509 4.38932 17.2072 5.15277 19.0604 5.59289C19.435 5.68185 19.8182 5.78095 20.2031 5.80893C20.2062 6.04461 20.1948 6.27926 20.1869 6.51467C20.1783 6.79044 20.1636 7.06589 20.1428 7.34101C20.122 7.61613 20.0952 7.89066 20.0623 8.16461C20.0294 8.43854 19.9905 8.71161 19.9455 8.98383C19.9005 9.25605 19.8495 9.52714 19.7926 9.7971C19.6986 10.2459 19.5777 10.6862 19.4715 11.1318C18.9174 11.1503 18.3615 11.1151 17.8073 11.1437C17.9098 10.8922 17.9975 10.6454 18.0172 10.3719C18.0551 9.84661 17.8979 9.30248 17.5502 8.90169C17.1772 8.47155 16.6828 8.2754 16.1254 8.23387C16.0615 8.23389 15.9977 8.2368 15.9341 8.24263C15.8705 8.24845 15.8072 8.25716 15.7444 8.26875C15.6815 8.28035 15.6193 8.29479 15.5578 8.31206C15.4963 8.32932 15.4356 8.34935 15.3759 8.37214C14.883 8.5641 14.4803 8.97048 14.2711 9.45416C14.0085 10.0615 14.1098 10.5523 14.3419 11.1455C13.8885 11.1589 13.4313 11.1481 12.9778 11.1459C12.7802 11.145 12.5722 11.1295 12.3761 11.1479C12.3789 10.5917 12.3607 10.0357 12.3675 9.47916C12.3722 9.09618 12.3752 8.71471 12.3704 8.33163C12.3683 8.17199 12.3783 8.00508 12.3618 7.84657C12.3526 7.7574 12.3384 7.67471 12.2784 7.60397C12.2186 7.53344 12.1322 7.49324 12.0406 7.4864C11.7672 7.46606 11.724 7.68689 11.5581 7.83346C11.3712 7.9985 11.0692 8.04389 10.8282 8.02746C10.474 8.0033 10.1763 7.84085 9.94549 7.57446C9.73188 7.32795 9.63608 7.02238 9.65978 6.69816C9.68418 6.36403 9.84557 6.06038 10.0996 5.84381C10.3295 5.64779 10.6379 5.56075 10.937 5.58522C11.1689 5.60418 11.5118 5.70928 11.6197 5.93852C11.6654 6.03546 11.6875 6.15059 11.7605 6.23173C11.8231 6.30122 11.9126 6.33695 12.005 6.34014C12.098 6.34332 12.1922 6.32187 12.2613 6.25632C12.3293 6.19185 12.3582 6.10216 12.3686 6.01114C12.388 5.84197 12.3736 5.66603 12.3684 5.49599C12.3638 5.3233 12.3613 5.15057 12.3609 4.97781C12.3523 4.17622 12.34 3.37597 12.3428 2.57422Z" fill="#EA84FA"/>
<path d="M11.2125 11.9175C11.3517 11.9187 11.4895 11.9135 11.6289 11.9218L11.6257 14.4438L11.624 15.2188C11.6239 15.374 11.6157 15.5363 11.6332 15.6904C11.6427 15.7738 11.6591 15.8488 11.7209 15.9097C11.8125 15.9998 11.9383 16.003 12.0583 16.0023C12.2263 15.8998 12.2882 15.7108 12.4358 15.5853C12.6805 15.3769 13.0166 15.2736 13.3357 15.3013C13.6466 15.3283 13.9139 15.4767 14.1111 15.717C14.3244 15.9768 14.4219 16.2896 14.3888 16.6244C14.3866 16.6451 14.3838 16.6658 14.3806 16.6863C14.3773 16.7069 14.3736 16.7274 14.3694 16.7478C14.3651 16.7681 14.3604 16.7884 14.3552 16.8086C14.3499 16.8287 14.3442 16.8488 14.338 16.8686C14.3318 16.8885 14.3251 16.9082 14.318 16.9278C14.3108 16.9473 14.3032 16.9667 14.2951 16.9859C14.2869 17.005 14.2784 17.024 14.2693 17.0428C14.2603 17.0615 14.2508 17.0801 14.2409 17.0984C14.2309 17.1167 14.2206 17.1347 14.2097 17.1525C14.1989 17.1703 14.1877 17.1878 14.176 17.205C14.1643 17.2223 14.1523 17.2393 14.1397 17.2559C14.1272 17.2726 14.1143 17.2889 14.1011 17.3049C14.0878 17.3209 14.0741 17.3366 14.06 17.352C14.046 17.3673 14.0315 17.3824 14.0167 17.397C14.0019 17.4117 13.9868 17.4259 13.9713 17.4398C13.9558 17.4538 13.94 17.4673 13.9239 17.4804C13.6814 17.6765 13.3701 17.7422 13.0637 17.7076C12.6193 17.6573 12.4645 17.4299 12.2079 17.1096C12.1452 17.0313 12.0655 16.9728 11.9627 16.9643C11.8828 16.9576 11.8 16.9834 11.7414 17.0389C11.6854 17.0919 11.6405 17.1822 11.6315 17.2589C11.6109 17.435 11.623 17.6165 11.6245 17.7934L11.6282 18.5915L11.6287 21.3873C11.4147 21.2585 11.2101 21.1047 11.0092 20.9563C10.2213 20.3744 9.51599 19.7083 8.83259 19.0093C8.77287 18.9472 8.71361 18.8847 8.65481 18.8217C8.59602 18.7588 8.5377 18.6954 8.47985 18.6316C8.422 18.5677 8.36462 18.5035 8.30771 18.4388C8.25081 18.3741 8.1944 18.309 8.13846 18.2435C8.08252 18.178 8.02707 18.1121 7.97212 18.0458C7.91715 17.9794 7.86269 17.9127 7.80873 17.8456C7.75476 17.7784 7.70128 17.7109 7.6483 17.6429C7.59533 17.575 7.54287 17.5067 7.49091 17.438C7.43897 17.3692 7.38752 17.3002 7.33659 17.2307C7.28566 17.1612 7.23525 17.0914 7.18534 17.0211C7.13545 16.9509 7.08608 16.8803 7.03722 16.8094C6.98838 16.7384 6.94006 16.6671 6.89226 16.5954C6.84446 16.5238 6.79721 16.4517 6.75048 16.3794C6.70375 16.307 6.65756 16.2343 6.61191 16.1612C6.56627 16.0882 6.52116 16.0148 6.47661 15.9411C6.43203 15.8673 6.38802 15.7933 6.34457 15.7189C6.3011 15.6445 6.25818 15.5698 6.21583 15.4948C6.17348 15.4198 6.13168 15.3445 6.09044 15.2688C6.04921 15.1932 6.00853 15.1173 5.9684 15.041C5.92829 14.9648 5.88875 14.8882 5.84977 14.8114C5.81079 14.7346 5.77238 14.6575 5.73455 14.5801C5.69671 14.5027 5.65945 14.425 5.62277 14.3471C5.58608 14.2691 5.54997 14.1909 5.51444 14.1124C5.47892 14.034 5.44398 13.9552 5.40963 13.8762C5.37526 13.7972 5.34148 13.718 5.3083 13.6385C5.27512 13.559 5.24252 13.4792 5.21052 13.3993C5.17852 13.3193 5.14712 13.239 5.1163 13.1586C5.08548 13.0782 5.05527 12.9975 5.02565 12.9166C4.99603 12.8357 4.96701 12.7546 4.93861 12.6733C4.91018 12.5919 4.88237 12.5104 4.85516 12.4286C4.82796 12.3469 4.80136 12.265 4.77536 12.1828C4.74938 12.1007 4.72399 12.0184 4.69922 11.9359C5.15489 11.9195 5.61887 11.9266 6.07477 11.9369C5.96503 12.3396 5.88726 12.7043 5.99228 13.1196C6.1202 13.6254 6.47553 14.0836 6.9243 14.3474C6.93732 14.3551 6.95044 14.3626 6.96365 14.3699C6.97684 14.3773 6.99014 14.3845 7.00352 14.3915C7.01691 14.3985 7.03038 14.4053 7.04393 14.412C7.0575 14.4187 7.07114 14.4252 7.08485 14.4316C7.09857 14.4379 7.11236 14.4441 7.12624 14.4501C7.1401 14.4561 7.15405 14.4619 7.16808 14.4675C7.18209 14.4732 7.19617 14.4787 7.21032 14.484C7.22447 14.4893 7.23869 14.4944 7.25297 14.4994C7.26725 14.5043 7.28159 14.5091 7.29599 14.5137C7.31039 14.5182 7.32484 14.5227 7.33934 14.5269C7.35386 14.5311 7.36842 14.5352 7.38304 14.539C7.39763 14.5429 7.41229 14.5466 7.42699 14.5501C7.44169 14.5536 7.45643 14.5569 7.47122 14.5601C7.48599 14.5632 7.50081 14.5662 7.51567 14.5689C7.53052 14.5717 7.54542 14.5743 7.56034 14.5767C7.57527 14.5791 7.59021 14.5813 7.60518 14.5833C7.62016 14.5853 7.63516 14.5872 7.65018 14.5888C7.6652 14.5905 7.68024 14.592 7.6953 14.5932C7.71036 14.5945 7.72544 14.5956 7.74052 14.5965C7.75561 14.5974 7.77071 14.5981 7.78581 14.5987C7.80091 14.5992 7.81601 14.5995 7.83112 14.5997C7.84623 14.5999 7.86135 14.5998 7.87646 14.5996C7.89158 14.5994 7.90668 14.599 7.92177 14.5984C7.93687 14.5978 7.95197 14.597 7.96706 14.596C7.98213 14.595 7.9972 14.5939 8.01226 14.5925C8.02731 14.5912 8.04233 14.5896 8.05734 14.5879C8.07236 14.5862 8.08735 14.5843 8.10232 14.5822C8.11729 14.5801 8.13223 14.5778 8.14714 14.5753C8.16205 14.5729 8.17693 14.5702 8.19177 14.5674C8.20661 14.5645 8.22142 14.5615 8.23618 14.5583C8.25095 14.5551 8.26568 14.5517 8.28036 14.5482C8.29506 14.5446 8.3097 14.5408 8.32428 14.5369C8.33918 14.5329 8.35402 14.5288 8.36881 14.5244C8.38361 14.5201 8.39835 14.5156 8.41304 14.5109C8.42772 14.5062 8.44233 14.5013 8.45689 14.4962C8.47145 14.4912 8.48594 14.4859 8.50036 14.4805C8.5148 14.4751 8.52916 14.4695 8.54344 14.4637C8.55773 14.4579 8.57194 14.4519 8.58608 14.4458C8.60021 14.4396 8.61427 14.4333 8.62826 14.4268C8.64225 14.4203 8.65614 14.4137 8.66995 14.4068C8.68378 14.4 8.6975 14.393 8.71114 14.3858C8.72478 14.3786 8.73833 14.3713 8.75179 14.3638C8.76525 14.3562 8.77861 14.3486 8.79187 14.3407C8.80514 14.3329 8.8183 14.3248 8.83136 14.3166C8.84444 14.3085 8.8574 14.3001 8.87026 14.2916C8.88312 14.2831 8.89587 14.2745 8.9085 14.2656C8.92114 14.2568 8.93367 14.2478 8.9461 14.2387C8.9585 14.2296 8.9708 14.2203 8.98299 14.2108C8.99517 14.2014 9.00724 14.1918 9.0192 14.182C9.03114 14.1723 9.04297 14.1624 9.05467 14.1524C9.06635 14.1423 9.07793 14.1321 9.08938 14.1218C9.10082 14.1115 9.11214 14.101 9.12332 14.0904C9.1345 14.0798 9.14555 14.0691 9.15646 14.0582C9.16739 14.0473 9.17817 14.0363 9.18881 14.0251C9.19945 14.014 9.20995 14.0027 9.2203 13.9913C9.23067 13.9798 9.24089 13.9683 9.25095 13.9566C9.26102 13.9449 9.27095 13.9332 9.28073 13.9212C9.2905 13.9093 9.30012 13.8973 9.30961 13.8851C9.31909 13.8729 9.32842 13.8607 9.33759 13.8483C9.34676 13.8359 9.35577 13.8234 9.36463 13.8108C9.37348 13.7982 9.38218 13.7854 9.39073 13.7726C9.39926 13.7598 9.40764 13.7468 9.41587 13.7338C9.42409 13.7207 9.43214 13.7076 9.44003 13.6943C9.44791 13.6811 9.45563 13.6678 9.4632 13.6543C9.79822 13.0706 9.79134 12.5576 9.61877 11.9262L11.2125 11.9175Z" fill="#EA84FA"/>
<path d="M16.0191 8.97422C16.0684 8.96742 16.1185 8.97191 16.1679 8.97571C16.49 9.00038 16.7813 9.13997 16.9918 9.38626C17.351 9.80653 17.408 10.4105 17.0956 10.8718C16.9609 11.0706 16.6773 11.2188 16.6644 11.4776C16.6588 11.5888 16.7051 11.7009 16.7814 11.781C16.8558 11.8593 16.9516 11.8982 17.0565 11.9155C17.3141 11.9578 17.6049 11.9195 17.8665 11.9174C18.3319 11.9136 18.7978 11.9201 19.2632 11.9233C19.2137 12.1331 19.1394 12.3362 19.0687 12.5396C18.9329 12.9379 18.7821 13.3303 18.6162 13.7171C18.5756 13.8136 18.5342 13.9098 18.4919 14.0056C18.4496 14.1014 18.4064 14.1968 18.3624 14.2919C18.3184 14.3869 18.2735 14.4815 18.2278 14.5758C18.1822 14.67 18.1356 14.7639 18.0883 14.8573C18.0409 14.9507 17.9928 15.0437 17.9437 15.1362C17.8947 15.2288 17.8449 15.3209 17.7943 15.4126C17.7436 15.5043 17.6922 15.5955 17.6399 15.6862C17.5876 15.777 17.5345 15.8673 17.4807 15.9571C17.4268 16.0469 17.3721 16.1362 17.3167 16.2251C17.2612 16.3139 17.205 16.4023 17.1479 16.4901C17.0909 16.578 17.0331 16.6653 16.9745 16.7521C16.9159 16.8389 16.8566 16.9252 16.7964 17.0109C16.7363 17.0967 16.6754 17.1819 16.6138 17.2666C16.5522 17.3513 16.4898 17.4354 16.4266 17.519C16.3635 17.6025 16.2996 17.6855 16.2351 17.7679C16.1704 17.8504 16.1051 17.9322 16.039 18.0135C15.973 18.0947 15.9062 18.1754 15.8387 18.2555C15.7712 18.3356 15.703 18.415 15.6341 18.4939C15.5652 18.5728 15.4956 18.651 15.4253 18.7286C15.355 18.8063 15.284 18.8833 15.2123 18.9596C15.1406 19.036 15.0683 19.1117 14.9953 19.1868C14.9223 19.2619 14.8486 19.3363 14.7743 19.4101C14.6999 19.4838 14.6249 19.5569 14.5493 19.6294C14.4736 19.7018 14.3974 19.7736 14.3204 19.8446C14.2435 19.9157 14.166 19.9861 14.0878 20.0558C14.0096 20.1255 13.9309 20.1945 13.8515 20.2628C13.7721 20.3311 13.6921 20.3987 13.6115 20.4655C13.5309 20.5324 13.4497 20.5986 13.3679 20.664C13.2862 20.7294 13.2038 20.7941 13.1209 20.8581C13.038 20.922 12.9545 20.9852 12.8704 21.0476C12.7864 21.1102 12.7018 21.172 12.6167 21.233C12.5315 21.2939 12.4458 21.3541 12.3596 21.4136C12.3374 21.3834 12.3405 21.3389 12.3394 21.3028C12.3215 20.7527 12.3419 20.1964 12.3416 19.6454L12.3411 18.8222C12.341 18.6424 12.3356 18.4607 12.3503 18.2815L12.3738 18.2915C12.8991 18.5134 13.4167 18.5548 13.9523 18.3345C14.4148 18.1443 14.8109 17.7312 14.9986 17.269C15.0048 17.2535 15.0107 17.2379 15.0165 17.2223C15.0223 17.2066 15.028 17.1909 15.0334 17.1751C15.0388 17.1594 15.044 17.1435 15.0491 17.1276C15.0541 17.1117 15.0589 17.0958 15.0636 17.0798C15.0682 17.0637 15.0727 17.0476 15.0769 17.0315C15.0812 17.0154 15.0852 16.9992 15.0891 16.983C15.093 16.9668 15.0966 16.9505 15.1001 16.9342C15.1035 16.9179 15.1068 16.9015 15.1099 16.8851C15.1129 16.8687 15.1158 16.8523 15.1184 16.8358C15.1211 16.8193 15.1236 16.8028 15.1258 16.7863C15.1281 16.7698 15.1301 16.7532 15.132 16.7367C15.1338 16.7201 15.1355 16.7035 15.1369 16.6869C15.1384 16.6702 15.1396 16.6536 15.1407 16.637C15.1417 16.6203 15.1426 16.6037 15.1432 16.587C15.1439 16.5703 15.1443 16.5537 15.1445 16.537C15.1448 16.5203 15.1448 16.5036 15.1446 16.4869C15.1444 16.4703 15.144 16.4536 15.1435 16.4369C15.1429 16.4202 15.1421 16.4036 15.1411 16.3869C15.1401 16.3703 15.1389 16.3536 15.1375 16.337C15.1361 16.3204 15.1345 16.3038 15.1327 16.2872C15.1309 16.2706 15.1289 16.2541 15.1267 16.2375C15.1245 16.221 15.1221 16.2045 15.1195 16.188C15.1169 16.1716 15.1141 16.1551 15.1111 16.1387C15.1081 16.1223 15.1049 16.1059 15.1015 16.0896C15.098 16.0733 15.0944 16.057 15.0906 16.0407C15.0868 16.0245 15.0828 16.0083 15.0786 15.9922C15.0744 15.976 15.07 15.9599 15.0654 15.9439C15.0608 15.9279 15.0561 15.9119 15.0511 15.896C15.0461 15.8801 15.0409 15.8642 15.0355 15.8484C15.0302 15.8326 15.0246 15.8169 15.0189 15.8012C15.0131 15.7856 15.0072 15.77 15.001 15.7545C14.9949 15.739 14.9886 15.7235 14.9821 15.7082C14.9757 15.6934 14.9691 15.6786 14.9624 15.664C14.9556 15.6493 14.9487 15.6347 14.9416 15.6202C14.9345 15.6058 14.9272 15.5914 14.9198 15.5771C14.9123 15.5627 14.9047 15.5485 14.8969 15.5344C14.8891 15.5203 14.8811 15.5063 14.873 15.4923C14.8648 15.4784 14.8565 15.4646 14.8481 15.4509C14.8396 15.4372 14.8309 15.4235 14.8221 15.41C14.8133 15.3965 14.8043 15.3831 14.7951 15.3699C14.786 15.3566 14.7767 15.3434 14.7672 15.3303C14.7577 15.3173 14.7481 15.3043 14.7383 15.2915C14.7285 15.2787 14.7186 15.266 14.7085 15.2534C14.6983 15.2408 14.6881 15.2284 14.6777 15.2161C14.6673 15.2037 14.6567 15.1915 14.646 15.1795C14.6353 15.1674 14.6244 15.1555 14.6134 15.1437C14.6024 15.1319 14.5913 15.1202 14.58 15.1087C14.5687 15.0972 14.5573 15.0858 14.5457 15.0745C14.5341 15.0633 14.5224 15.0522 14.5106 15.0412C14.4988 15.0303 14.4868 15.0195 14.4747 15.0088C14.4626 14.9982 14.4503 14.9876 14.438 14.9773C14.4256 14.9669 14.4131 14.9567 14.4005 14.9467C14.3879 14.9366 14.3752 14.9267 14.3623 14.917C14.3494 14.9072 14.3364 14.8976 14.3234 14.8882C14.3103 14.8788 14.2971 14.8695 14.2837 14.8604C14.2704 14.8514 14.257 14.8424 14.2434 14.8336C14.2299 14.8249 14.2163 14.8163 14.2025 14.8079C14.1887 14.7994 14.1749 14.7912 14.1609 14.7831C14.147 14.775 14.1329 14.7671 14.1188 14.7593C14.1046 14.7516 14.0904 14.744 14.0761 14.7366C14.0617 14.7292 14.0473 14.722 14.0328 14.7149C14.0183 14.7079 14.0037 14.701 13.989 14.6944C13.9743 14.6877 13.9595 14.6812 13.9447 14.6749C13.9299 14.6685 13.9149 14.6624 13.8999 14.6564C13.3776 14.4472 12.8684 14.5092 12.3623 14.7254L12.3624 13.0381C12.3628 12.664 12.3555 12.2896 12.3646 11.9156C13.0119 11.8935 13.6657 11.9093 14.3134 11.9128C14.613 11.9145 14.9245 11.9415 15.2222 11.9052C15.337 11.8912 15.4292 11.8464 15.4992 11.7517C15.5033 11.7462 15.5072 11.7407 15.511 11.735C15.5148 11.7293 15.5185 11.7235 15.522 11.7176C15.5255 11.7117 15.5289 11.7058 15.5321 11.6998C15.5353 11.6937 15.5384 11.6876 15.5413 11.6814C15.5442 11.6752 15.5469 11.6689 15.5495 11.6626C15.5521 11.6563 15.5545 11.6499 15.5568 11.6434C15.559 11.6369 15.5611 11.6304 15.5631 11.6239C15.565 11.6173 15.5668 11.6107 15.5684 11.6041C15.57 11.5974 15.5714 11.5907 15.5727 11.584C15.574 11.5773 15.5751 11.5705 15.576 11.5637C15.5769 11.5569 15.5777 11.5501 15.5783 11.5433C15.5788 11.5365 15.5793 11.5297 15.5795 11.5229C15.5797 11.516 15.5798 11.5092 15.5797 11.5023C15.5796 11.4955 15.5793 11.4886 15.5789 11.4818C15.5784 11.475 15.5778 11.4682 15.577 11.4614C15.5762 11.4546 15.5753 11.4478 15.5741 11.4411C15.5469 11.2831 15.4214 11.2103 15.3031 11.1231C15.0647 10.9475 14.928 10.6513 14.886 10.362C14.883 10.342 14.8806 10.322 14.8786 10.3019C14.8766 10.2818 14.8751 10.2616 14.8742 10.2414C14.8732 10.2212 14.8727 10.2011 14.8727 10.1809C14.8728 10.1606 14.8733 10.1404 14.8743 10.1203C14.8753 10.1001 14.8769 10.0799 14.8789 10.0598C14.8809 10.0397 14.8834 10.0197 14.8864 9.99971C14.8894 9.97972 14.8929 9.95982 14.8969 9.94002C14.9009 9.92021 14.9054 9.90051 14.9103 9.88093C14.9153 9.86134 14.9207 9.84189 14.9267 9.82257C14.9326 9.80325 14.939 9.78409 14.9458 9.7651C14.9527 9.74609 14.9601 9.72727 14.9678 9.70863C14.9757 9.68999 14.9839 9.67155 14.9926 9.65332C15.0013 9.63509 15.0105 9.61708 15.0201 9.5993C15.0297 9.58152 15.0397 9.56399 15.0502 9.54671C15.0607 9.52943 15.0715 9.51242 15.0828 9.49567C15.0942 9.47892 15.1059 9.46246 15.118 9.4463C15.3461 9.14548 15.6559 9.02526 16.0191 8.97422Z" fill="#EA84FA"/>
</svg>
