<svg width="40" height="40" viewBox="0 0 40 40" fill="none" xmlns="http://www.w3.org/2000/svg">
<rect width="40" height="40" rx="20" fill="#090909"/>
<path d="M36.2326 19.9839C36.2326 18.0254 34.5989 16.4378 32.5836 16.4378C30.5682 16.4378 28.9345 18.0254 28.9345 19.9839V24.6608H28.1676V19.9839C28.1676 17.6139 30.1447 15.6925 32.5836 15.6925C35.0224 15.6925 36.9995 17.6139 36.9995 19.9839V24.6608H36.2326V19.9839Z" fill="white"/>
<path d="M13.5581 20.1767C13.5581 20.7727 13.0609 21.256 12.4475 21.256C11.8341 21.256 11.3369 20.7727 11.3369 20.1767C11.3369 19.5806 11.8341 19.0974 12.4475 19.0974C13.0609 19.0974 13.5581 19.5806 13.5581 20.1767Z" fill="white"/>
<path d="M6.20703 16.078C6.20703 15.858 6.39053 15.6797 6.61689 15.6797C6.84325 15.6797 7.02675 15.858 7.02675 16.078V24.2625C7.02675 24.4825 6.84325 24.6608 6.61689 24.6608C6.39053 24.6608 6.20703 24.4825 6.20703 24.2625V16.078Z" fill="white"/>
<path d="M12.591 20.6739C12.431 20.5183 12.431 20.2661 12.591 20.1106C12.7511 19.955 13.0106 19.955 13.1707 20.1106L16.6349 23.4772C16.795 23.6327 16.795 23.8849 16.6349 24.0405C16.4749 24.196 16.2154 24.196 16.0553 24.0405L12.591 20.6739Z" fill="white"/>
<path d="M16.2949 20.1767C16.2949 18.1117 14.5724 16.4378 12.4475 16.4378C10.3226 16.4378 8.60009 18.1117 8.60009 20.1767C8.60009 22.2416 10.3226 23.9156 12.4475 23.9156C13.1688 23.9156 13.8427 23.723 14.419 23.3881C14.6007 23.2825 14.8362 23.3401 14.9449 23.5167C15.0535 23.6933 14.9943 23.9221 14.8126 24.0277C14.1207 24.4298 13.3112 24.6608 12.4475 24.6608C9.89912 24.6608 7.83325 22.6532 7.83325 20.1767C7.83325 17.7002 9.89912 15.6925 12.4475 15.6925C14.9959 15.6925 17.0617 17.7002 17.0617 20.1767C17.0617 20.913 16.8788 21.6089 16.5544 22.2228C16.4576 22.4059 16.2265 22.478 16.0381 22.384C15.8498 22.29 15.7755 22.0654 15.8722 21.8823C16.1423 21.3713 16.2949 20.7919 16.2949 20.1767Z" fill="white"/>
<path d="M26.4489 20.1767C26.4489 18.1117 24.7263 16.4378 22.6015 16.4378C20.4766 16.4378 18.7541 18.1117 18.7541 20.1767C18.7541 22.2416 20.4766 23.9156 22.6015 23.9156C23.3993 23.9156 24.1393 23.68 24.7533 23.2766C25.2327 22.9617 25.6351 22.5445 25.9274 22.0576C26.2589 21.5054 26.4489 20.8631 26.4489 20.1767ZM27.2157 20.1767C27.2157 20.9986 26.9878 21.7699 26.5898 22.433C26.2393 23.0169 25.7572 23.5166 25.1828 23.894C24.4459 24.3781 23.5571 24.6608 22.6015 24.6608C20.0531 24.6608 17.9872 22.6532 17.9872 20.1767C17.9872 17.7002 20.0531 15.6925 22.6015 15.6925C25.1498 15.6925 27.2157 17.7002 27.2157 20.1767Z" fill="white"/>
</svg>
