<svg width="48" height="48" viewBox="0 0 48 48" fill="none" xmlns="http://www.w3.org/2000/svg">
<rect x="0.666687" y="0.666992" width="46.6667" height="46.6667" rx="23.3333" fill="#DFFFA9"/>
<path d="M23.9999 10.001C16.2682 10.001 9.99994 16.2692 9.99994 24.001C9.99994 31.7327 16.2682 38.001 23.9999 38.001C31.7317 38.001 37.9999 31.7327 37.9999 24.001C37.9999 16.2692 31.7317 10.001 23.9999 10.001ZM31.9082 20.641C31.9082 21.1104 31.5211 21.4904 31.0446 21.4904H29.7529C29.2752 21.4904 28.8894 21.1104 28.8894 20.641V19.9139C28.8941 19.6527 28.7599 19.4139 28.5658 19.2433C28.4035 19.0822 28.1823 18.9904 27.9505 18.9904H20.0329C19.5694 18.9869 19.1435 19.388 19.1152 19.8398H19.1117C19.1117 19.8398 19.1117 21.3869 19.1129 21.408C19.1305 21.8469 19.4058 22.2551 19.7941 22.4516C19.9341 22.5433 20.0999 22.5939 20.2729 22.5939H28.0258C28.5035 22.5939 28.8894 22.9739 28.8894 23.4433C28.9082 23.6645 28.8458 24.7516 28.9282 24.941C29.0588 25.4398 29.5211 25.8622 30.0494 25.8845H31.0458C31.5235 25.8845 31.9093 26.2645 31.9093 26.7339V28.161C31.9093 28.6304 31.5223 29.0104 31.0458 29.0104H29.8093C29.5517 29.008 29.3117 29.1269 29.1423 29.3139C28.9799 29.4727 28.8894 29.6892 28.8894 29.9151V31.0527C28.8894 31.5222 28.5023 31.9022 28.0258 31.9022H19.9776C19.4999 31.9022 19.1141 31.5222 19.1141 31.0527V29.9151C19.1176 29.441 18.6764 29.008 18.1941 29.0104H16.9576C16.4799 29.0104 16.0941 28.6304 16.0941 28.161V27.0469C16.0941 26.5774 16.4811 26.1974 16.9576 26.1974H18.2494C18.727 26.1974 19.1129 26.5774 19.1129 27.0469V28.1057C19.1105 28.3586 19.2317 28.5939 19.4223 28.761C19.5846 28.9198 19.8046 29.0092 20.0329 29.0092H27.9693C28.4329 29.0127 28.8599 28.6116 28.887 28.1586H28.8894C28.8894 28.1586 28.8894 26.5222 28.8894 26.521C28.8752 26.0822 28.5988 25.6692 28.2105 25.4704C28.0693 25.3774 27.9023 25.3269 27.7294 25.3269H19.9764C19.4988 25.3269 19.1129 24.9469 19.1129 24.4774C19.0976 24.2692 19.1541 23.0633 19.0694 22.8845C18.9341 22.3927 18.4764 21.9798 17.9541 21.9574C17.8964 21.9527 16.9894 21.9598 16.907 21.9563C16.4529 21.9304 16.0941 21.561 16.0941 21.108V19.8374C16.0941 19.368 16.4811 18.988 16.9576 18.988H18.1941C18.6764 18.9916 19.1164 18.5574 19.1141 18.0833V16.9457C19.1141 16.4763 19.5011 16.0963 19.9776 16.0963H28.0258C28.5035 16.0963 28.8894 16.4763 28.8894 16.9457V17.8669C28.8894 18.108 28.9952 18.2586 29.1752 18.4222C29.3376 18.5833 29.5588 18.6751 29.7905 18.6751H31.0458C31.5235 18.6751 31.9093 19.0551 31.9093 19.5245V20.6386L31.9082 20.641Z" fill="#090909"/>
</svg>
