<svg width="40" height="40" viewBox="0 0 40 40" fill="none" xmlns="http://www.w3.org/2000/svg">
<rect width="40" height="40" rx="20" fill="white"/>
<g clip-path="url(#clip0_11_59199)">
<path d="M11.4606 23.3998V18.9562H12.3764V19.6266L12.3566 20.6005L12.416 21.5646V23.4047H11.4606V23.3998ZM13.411 22.2742C13.1387 22.2742 12.8961 22.2155 12.6882 22.0932C12.4803 21.9708 12.317 21.7848 12.1982 21.5353C12.0793 21.2857 12.0249 20.9725 12.0249 20.5907C12.0249 20.2041 12.0793 19.8909 12.1932 19.6413C12.3021 19.3966 12.4655 19.2106 12.6734 19.0883C12.8862 18.966 13.1288 18.9072 13.4159 18.9072C13.7327 18.9072 14.0149 18.9757 14.2624 19.1177C14.5099 19.2596 14.7079 19.4505 14.8515 19.7049C14.995 19.9545 15.0693 20.2531 15.0693 20.5907C15.0693 20.9333 14.995 21.2318 14.8515 21.4814C14.7079 21.731 14.5099 21.9268 14.2624 22.0638C14.005 22.2008 13.7278 22.2742 13.411 22.2742ZM13.2525 21.4961C13.411 21.4961 13.5545 21.4618 13.6783 21.3884C13.802 21.315 13.901 21.2123 13.9802 21.0752C14.0545 20.9382 14.0941 20.7767 14.0941 20.5907C14.0941 20.3999 14.0545 20.2384 13.9802 20.1062C13.906 19.9741 13.802 19.8713 13.6783 19.7979C13.5545 19.7294 13.411 19.6903 13.2525 19.6903C13.0941 19.6903 12.9506 19.7245 12.8219 19.7979C12.6932 19.8664 12.5942 19.9692 12.5199 20.1062C12.4457 20.2384 12.4061 20.3999 12.4061 20.5907C12.4061 20.7767 12.4457 20.9382 12.5199 21.0752C12.5942 21.2123 12.6981 21.315 12.8219 21.3884C12.9456 21.457 13.0892 21.4961 13.2525 21.4961Z" fill="#262626"/>
<path d="M17.1386 22.2742C16.7624 22.2742 16.4307 22.2008 16.1485 22.054C15.8664 21.9072 15.6486 21.7065 15.4902 21.4569C15.3367 21.2025 15.2575 20.9137 15.2575 20.5907C15.2575 20.2677 15.3318 19.979 15.4803 19.7245C15.6288 19.47 15.8367 19.2694 16.1089 19.1274C16.3763 18.9855 16.6782 18.9121 17.0148 18.9121C17.3366 18.9121 17.6287 18.9806 17.891 19.1177C18.1534 19.2547 18.3563 19.4504 18.5098 19.7C18.6632 19.9496 18.7375 20.253 18.7375 20.6054C18.7375 20.6397 18.7375 20.6837 18.7326 20.7277C18.7276 20.7767 18.7226 20.8158 18.7226 20.8599H17V20.3069H18.2177L17.8415 20.4733C17.8465 20.302 17.8118 20.1552 17.7425 20.0279C17.6732 19.9007 17.5742 19.8028 17.4554 19.7343C17.3316 19.6658 17.1881 19.6266 17.0247 19.6266C16.8614 19.6266 16.7178 19.6609 16.5941 19.7343C16.4703 19.8028 16.3713 19.9056 16.302 20.0328C16.2327 20.1601 16.198 20.3118 16.198 20.4831V20.6299C16.198 20.8109 16.2376 20.9724 16.3218 21.1046C16.406 21.2367 16.5149 21.3395 16.6584 21.4129C16.802 21.4814 16.9752 21.5206 17.1732 21.5206C17.3465 21.5206 17.4999 21.4961 17.6287 21.4423C17.7623 21.3884 17.8861 21.3101 17.995 21.2074L18.5048 21.7555C18.3514 21.9268 18.1633 22.054 17.9356 22.147C17.7029 22.2253 17.4356 22.2742 17.1386 22.2742Z" fill="#262626"/>
<path d="M6.40146 22.2742C6.02525 22.2742 5.69358 22.2008 5.41142 22.054C5.12926 21.9072 4.91145 21.7065 4.75305 21.4569C4.59959 21.2025 4.52039 20.9137 4.52039 20.5907C4.52039 20.2677 4.59464 19.979 4.74314 19.7245C4.89165 19.47 5.09956 19.2694 5.37182 19.1274C5.63913 18.9855 5.94109 18.9121 6.27771 18.9121C6.59947 18.9121 6.89153 18.9806 7.15389 19.1177C7.41625 19.2547 7.61921 19.4504 7.77267 19.7C7.92613 19.9496 8.00038 20.253 8.00038 20.6054C8.00038 20.6397 8.00038 20.6837 7.99543 20.7277C7.99048 20.7767 7.98553 20.8158 7.98553 20.8599H6.26286V20.3069H7.48061L7.10439 20.4733C7.10934 20.302 7.07469 20.1552 7.00539 20.0279C6.93608 19.9007 6.83708 19.8028 6.71828 19.7343C6.59452 19.6658 6.45096 19.6266 6.28761 19.6266C6.12425 19.6266 5.9807 19.6609 5.85694 19.7343C5.73319 19.8028 5.63418 19.9056 5.56488 20.0328C5.49558 20.1601 5.46092 20.3118 5.46092 20.4831V20.6299C5.46092 20.8109 5.50053 20.9724 5.58468 21.1046C5.66883 21.2367 5.77774 21.3395 5.92129 21.4129C6.06485 21.4814 6.23811 21.5206 6.43611 21.5206C6.60937 21.5206 6.76283 21.4961 6.89153 21.4423C7.02519 21.3884 7.14894 21.3101 7.25785 21.2074L7.76772 21.7555C7.61426 21.9268 7.42616 22.054 7.19845 22.147C6.96579 22.2253 6.70343 22.2742 6.40146 22.2742Z" fill="#262626"/>
<path d="M24.5689 22.2742C24.1927 22.2742 23.861 22.2008 23.5788 22.054C23.2967 21.9072 23.0789 21.7065 22.9205 21.4569C22.767 21.2025 22.6878 20.9137 22.6878 20.5907C22.6878 20.2677 22.7621 19.979 22.9106 19.7245C23.0591 19.47 23.267 19.2694 23.5392 19.1274C23.8066 18.9855 24.1085 18.9121 24.4451 18.9121C24.7669 18.9121 25.059 18.9806 25.3213 19.1177C25.5837 19.2547 25.7866 19.4504 25.9401 19.7C26.0935 19.9496 26.1678 20.253 26.1678 20.6054C26.1678 20.6397 26.1678 20.6837 26.1628 20.7277C26.1579 20.7767 26.1529 20.8158 26.1529 20.8599H24.4303V20.3069H25.648L25.2718 20.4733C25.2768 20.302 25.2421 20.1552 25.1728 20.0279C25.1035 19.9007 25.0045 19.8028 24.8857 19.7343C24.7619 19.6658 24.6184 19.6266 24.455 19.6266C24.2917 19.6266 24.1481 19.6609 24.0244 19.7343C23.9006 19.8028 23.8016 19.9056 23.7323 20.0328C23.663 20.1601 23.6283 20.3118 23.6283 20.4831V20.6299C23.6283 20.8109 23.6679 20.9724 23.7521 21.1046C23.8363 21.2367 23.9452 21.3395 24.0887 21.4129C24.2323 21.4814 24.4055 21.5206 24.6035 21.5206C24.7768 21.5206 24.9302 21.4961 25.059 21.4423C25.1926 21.3884 25.3164 21.3101 25.4253 21.2074L25.9351 21.7555C25.7817 21.9268 25.5936 22.054 25.3659 22.147C25.1332 22.2253 24.8708 22.2742 24.5689 22.2742Z" fill="#262626"/>
<path d="M20.579 22.275C20.2672 22.275 19.985 22.2065 19.7375 22.0645C19.49 21.9226 19.292 21.7318 19.1484 21.4773C19.0048 21.2277 18.9355 20.9292 18.9355 20.5915C18.9355 20.2489 19.0048 19.9553 19.1484 19.7057C19.292 19.4561 19.49 19.2603 19.7375 19.1184C19.985 18.9765 20.2672 18.908 20.579 18.908C20.8562 18.908 21.0988 18.9667 21.3116 19.089C21.5196 19.2114 21.6829 19.3925 21.7968 19.6421C21.9106 19.8867 21.97 20.2049 21.97 20.5915C21.97 20.9732 21.9156 21.2864 21.8017 21.5409C21.6928 21.7905 21.5344 21.9764 21.3265 22.0988C21.1186 22.2162 20.8711 22.275 20.579 22.275ZM20.7374 21.4968C20.8958 21.4968 21.0394 21.4626 21.1681 21.3892C21.2968 21.3207 21.3958 21.213 21.4701 21.076C21.5443 20.9389 21.5839 20.7774 21.5839 20.5915C21.5839 20.4006 21.5443 20.2391 21.4701 20.107C21.3958 19.9748 21.2918 19.8721 21.1681 19.7987C21.0394 19.7301 20.8958 19.691 20.7374 19.691C20.584 19.691 20.4404 19.7253 20.3117 19.7987C20.183 19.8672 20.084 19.9699 20.0097 20.107C19.9355 20.2391 19.8959 20.4006 19.8959 20.5915C19.8959 20.7774 19.9355 20.9389 20.0097 21.076C20.084 21.213 20.1879 21.3158 20.3117 21.3892C20.4404 21.4626 20.584 21.4968 20.7374 21.4968ZM21.6087 22.226V21.5556L21.6285 20.5817L21.5691 19.6176V17.7188H22.5294V22.226H21.6087Z" fill="#262626"/>
<path d="M32.9099 23.4056C32.7614 23.4056 32.608 23.3812 32.4595 23.3371C32.311 23.2882 32.1823 23.2246 32.0833 23.1414L32.3951 22.5296C32.4595 22.5932 32.5387 22.6373 32.6228 22.6715C32.707 22.7058 32.7961 22.7205 32.8852 22.7205C33.004 22.7205 33.098 22.6911 33.1673 22.6373C33.2367 22.5786 33.306 22.4856 33.3604 22.3583L33.5139 22.0011L33.5782 21.9081L34.6475 19.3828H35.4692L34.1326 22.4905C34.0386 22.7303 33.9297 22.9162 33.8059 23.0484C33.6822 23.1805 33.5485 23.2735 33.4 23.3273C33.2515 23.3763 33.0881 23.4056 32.9099 23.4056ZM33.4149 22.4171L32.0981 19.373H32.9792L34.0089 21.8298L33.4149 22.4171Z" fill="#262626"/>
<path d="M26.3455 20.3393V22.2185H27.3059V20.5791C27.3059 20.3784 27.3356 20.2218 27.3999 20.0946C27.4197 20.0554 27.4445 20.0163 27.4692 19.9869L26.3455 20.3393ZM28.8998 19.5024L28.1919 19.7422C28.3207 19.7667 28.4197 19.8254 28.4989 19.9135C28.6078 20.0408 28.6622 20.2316 28.6622 20.4959V22.2185H29.6226V20.5791C29.6226 20.5644 29.6226 20.5546 29.6226 20.5399L28.8998 19.5024ZM31.7511 19.5367C31.7016 19.4437 31.6422 19.3605 31.5729 19.292L30.7512 19.8695C30.771 19.8842 30.7859 19.9037 30.8007 19.9184C30.9096 20.0457 30.9641 20.2365 30.9641 20.5008V22.2234H31.9244V20.354C31.9244 20.0212 31.865 19.7471 31.7511 19.5367Z" fill="#262626"/>
<path d="M26.3454 20.1328L29.2314 17.8718L30.0581 18.8555L31.261 18.048L30.9738 17.6564L32.8698 17.5684L32.1272 19.247L31.8451 18.8506L29.7214 20.3383L28.9344 19.198L26.3454 20.1328Z" fill="#A6CBD6"/>
<path d="M11.2526 22.2252L9.97052 20.5515L11.2031 18.9561H10.1784L9.4656 19.9104L8.76762 18.9561H7.69838L8.92108 20.5808L8.91118 20.5906L9.4656 19.9104L9.97052 20.5515L9.44085 21.2219L8.91118 20.5906L7.63898 22.2252H8.69832L9.44085 21.2219L10.1685 22.2252H11.2526Z" fill="#262626"/>
</g>
<defs>
<clipPath id="clip0_11_59199">
<rect width="32" height="6.98182" fill="white" transform="translate(4 16.999)"/>
</clipPath>
</defs>
</svg>
