<svg width="40" height="40" viewBox="0 0 40 40" fill="none" xmlns="http://www.w3.org/2000/svg">
<rect width="40" height="40" rx="20" fill="#2D0074"/>
<path fill-rule="evenodd" clip-rule="evenodd" d="M7.62035 16.0005C7.92524 15.995 8.2135 16.0338 8.50176 16.1115C8.74013 16.1781 9.09491 16.3112 9.29447 16.4167C9.49404 16.5165 9.79893 16.7107 9.97077 16.8494C10.1482 16.9881 10.4087 17.26 10.5473 17.4542C10.6914 17.6428 10.8744 17.948 10.9575 18.1311C11.0462 18.3142 11.1571 18.6249 11.207 18.8247C11.279 19.0965 11.2957 19.3462 11.279 19.8234C11.2624 20.3394 11.2291 20.5391 11.1072 20.8776C11.024 21.1051 10.8744 21.4324 10.7746 21.5989C10.6803 21.7653 10.4198 22.076 10.2091 22.2924C9.94306 22.5587 9.68251 22.7529 9.37762 22.9083C9.13371 23.0359 8.74013 23.1913 8.50176 23.2578C8.23013 23.33 7.90861 23.3743 7.61481 23.3743C7.26557 23.3743 7.03829 23.3355 6.63362 23.2079C6.34536 23.1191 5.94624 22.9527 5.75222 22.8362C5.55819 22.7196 5.22559 22.4367 5.00385 22.2092C4.78766 21.9817 4.53266 21.6432 4.43288 21.4602C4.33864 21.2771 4.20005 20.9497 4.13353 20.7389C4.02821 20.4171 4.00049 20.234 4.00049 19.6847C4.00049 19.1354 4.02821 18.9523 4.13353 18.6305C4.20005 18.4196 4.33864 18.0923 4.43288 17.9092C4.5382 17.7039 4.78211 17.3987 5.08146 17.0991C5.43624 16.7385 5.65243 16.5776 5.96841 16.4222C6.19569 16.3112 6.55601 16.1725 6.77221 16.1115C6.99395 16.0505 7.35981 16.0061 7.61481 16.0005H7.62035ZM13.1305 17.1047C13.2857 17.1047 13.3855 17.1435 13.4853 17.2434C13.5629 17.321 13.6239 17.4431 13.6239 17.5208C13.6239 17.604 13.5518 17.7316 13.441 17.837C13.2857 17.9868 13.2359 18.009 13.0696 17.9758C12.9642 17.9536 12.8312 17.8814 12.7758 17.8148C12.7203 17.7427 12.676 17.6207 12.676 17.543C12.6704 17.4598 12.7259 17.3321 12.7924 17.2489C12.8811 17.1379 12.9587 17.1047 13.1305 17.1047ZM18.4301 17.1047C18.5298 17.1047 18.7294 17.1268 18.8735 17.1601C19.0232 17.1879 19.1895 17.2489 19.2505 17.2933C19.3614 17.3654 19.3614 17.3765 19.2616 17.6262C19.1895 17.8259 19.1452 17.8759 19.0676 17.8481C19.0177 17.8259 18.8624 17.7982 18.7239 17.7871C18.5409 17.7649 18.4467 17.7816 18.3746 17.8481C18.3136 17.9036 18.2804 18.0201 18.2804 18.3808H19.1119V19.0466H18.2804V22.6531H17.4489V20.2395C17.4489 18.3253 17.4655 17.7871 17.5265 17.6484C17.5653 17.5485 17.6484 17.4209 17.7039 17.371C17.7648 17.3155 17.909 17.2378 18.0309 17.1934C18.1529 17.1435 18.3358 17.1102 18.4301 17.1047ZM15.9521 18.3031C16.0907 18.3198 16.2792 18.3808 16.3679 18.4363C16.4566 18.4918 16.5841 18.6305 16.6451 18.747C16.7449 18.9467 16.7559 19.0743 16.7559 21.4047L15.9521 21.4324L15.9466 20.3949C15.9411 19.8178 15.9244 19.2907 15.9023 19.213C15.8801 19.1354 15.8025 19.041 15.7304 18.9967C15.6085 18.9245 15.5641 18.9245 15.4033 18.9967C15.3036 19.041 15.1871 19.1243 15.1539 19.1853C15.1206 19.2519 15.0818 19.729 15.0375 21.4047L14.2337 21.4324V20.1729C14.2337 19.4738 14.217 18.7914 14.1505 18.3808H14.4942C14.8157 18.3808 14.849 18.3919 14.9543 18.6582L15.1317 18.525C15.2315 18.4529 15.4033 18.3641 15.5087 18.3309C15.614 18.3031 15.8136 18.2865 15.9521 18.3031ZM20.8027 18.3031C20.9523 18.3198 21.1796 18.3752 21.3016 18.4307C21.4235 18.4862 21.5898 18.6083 21.673 18.7026C21.7617 18.8025 21.867 19.0244 21.9169 19.202C21.9834 19.4239 22 19.6514 21.9834 19.9621C21.9668 20.2672 21.9169 20.5003 21.8226 20.7056C21.7506 20.872 21.612 21.0718 21.5233 21.1494C21.4346 21.2327 21.2461 21.3436 21.1075 21.3991C20.9246 21.4712 20.7472 21.4934 20.459 21.4768C20.1264 21.4657 20.0266 21.4324 19.8215 21.2937C19.6552 21.1772 19.5332 21.0274 19.4168 20.7943C19.2727 20.4947 19.256 20.406 19.256 19.9343C19.256 19.5071 19.2782 19.3573 19.378 19.1298C19.4501 18.98 19.572 18.7803 19.6552 18.697C19.7383 18.6083 19.8714 18.5029 19.9545 18.4585C20.0432 18.4141 20.204 18.3586 20.3148 18.3309C20.4312 18.2976 20.6474 18.2865 20.8027 18.3031ZM20.204 19.2852C20.1264 19.4627 20.1042 19.6236 20.1208 19.9621C20.1319 20.2062 20.1762 20.4781 20.2206 20.5724C20.2649 20.6612 20.3703 20.7721 20.4534 20.8221C20.5643 20.8831 20.6419 20.8942 20.7583 20.8498C20.847 20.8165 20.9523 20.7111 21.0078 20.6001C21.0798 20.4559 21.1075 20.2672 21.1075 19.8789C21.1131 19.4183 21.0965 19.324 20.98 19.1576C20.8803 19.0078 20.8137 18.9578 20.6641 18.9523C20.5587 18.9412 20.4312 18.9634 20.3869 18.9911C20.3425 19.0244 20.2594 19.152 20.204 19.2852ZM12.7369 18.3808H13.5685V21.4324H12.7369V18.3808Z" fill="white"/>
<path fill-rule="evenodd" clip-rule="evenodd" d="M34.6723 17.2214C34.8608 17.2159 34.9883 17.2436 35.0437 17.2991C35.1047 17.3601 35.1268 17.5099 35.1268 18.381L35.8752 18.4088V19.0191L35.1268 19.0468V19.8513C35.1268 20.5449 35.1379 20.667 35.2266 20.7446C35.2987 20.8168 35.3818 20.8279 35.8752 20.7668L35.9528 21.0054C35.9916 21.133 36.0138 21.2717 35.9916 21.305C35.975 21.3439 35.8142 21.416 35.6424 21.4659C35.4317 21.5214 35.2322 21.5436 35.0714 21.5214C34.9328 21.4992 34.7388 21.4382 34.6335 21.3883C34.5281 21.3383 34.4007 21.2052 34.3452 21.0997C34.2621 20.9277 34.2454 20.7002 34.2288 19.0912C34.2177 17.5321 34.2288 17.2769 34.2953 17.2547C34.3397 17.238 34.5115 17.2214 34.6723 17.2214ZM24.0677 18.3033C24.2839 18.32 24.5888 18.3699 25.0378 18.492V22.6533H24.1508V21.3217L23.8903 21.4382C23.7184 21.5159 23.5577 21.5492 23.4302 21.5325C23.3249 21.5159 23.1364 21.4604 23.02 21.3993C22.898 21.3439 22.7317 21.2052 22.643 21.0997C22.5599 20.9943 22.4767 20.8556 22.4656 20.7946C22.4545 20.7335 22.4213 20.5837 22.388 20.4617C22.3548 20.3396 22.3326 20.1121 22.3326 19.9623C22.3326 19.807 22.3825 19.5295 22.4379 19.3353C22.5044 19.1134 22.6153 18.9137 22.7539 18.7639C22.8647 18.6362 23.0366 18.4975 23.1253 18.4476C23.2195 18.3977 23.3803 18.3422 23.4856 18.32C23.5909 18.2978 23.857 18.2922 24.0677 18.3033ZM23.4025 19.1855C23.3359 19.2799 23.2694 19.4907 23.2472 19.6738C23.2251 19.8458 23.2251 20.0955 23.2417 20.2231C23.2583 20.3562 23.2971 20.5227 23.3249 20.6004C23.3526 20.6781 23.4302 20.7668 23.4967 20.7946C23.5688 20.8279 23.6741 20.8501 23.7351 20.8501C23.796 20.8445 23.9125 20.8001 24.0012 20.7502L24.1508 20.6559C24.1508 19.008 24.1508 18.9913 24.0289 18.9636C23.9568 18.947 23.8792 18.9414 23.8459 18.9414C23.8182 18.947 23.7295 18.9636 23.6575 18.9858C23.5799 19.008 23.469 19.0968 23.4025 19.1855ZM30.3872 18.3033C30.5978 18.32 30.7808 18.3699 30.8861 18.442C30.9803 18.5031 31.0968 18.6307 31.1522 18.7195C31.2076 18.8193 31.2464 18.9913 31.2464 19.1744C31.2464 19.3668 31.2095 19.524 31.1356 19.6461C31.0746 19.7404 30.9415 19.8791 30.8473 19.9512C30.7475 20.0233 30.5757 20.1066 30.4704 20.1399C30.365 20.1732 30.1377 20.2175 29.9714 20.2397C29.6776 20.273 29.6666 20.2786 29.6943 20.4173C29.7109 20.495 29.7885 20.6226 29.8772 20.6947C29.9604 20.7613 30.0823 20.8223 30.1544 20.8279C30.2209 20.8334 30.3373 20.8279 30.4149 20.8223C30.4925 20.8168 30.6533 20.7668 30.7752 20.7058C30.8972 20.6503 31.0136 20.617 31.0413 20.6281C31.0635 20.6448 31.1189 20.7502 31.1633 20.8667C31.2132 20.9777 31.2464 21.1053 31.2464 21.1441C31.2464 21.1774 31.1522 21.2606 31.0413 21.3161C30.9249 21.3716 30.681 21.4548 30.4981 21.4937C30.2209 21.5492 30.1045 21.5492 29.8107 21.4826C29.5557 21.4271 29.3949 21.3494 29.2342 21.2107C29.1122 21.1053 28.9514 20.8944 28.8849 20.7391C28.7741 20.5005 28.7574 20.384 28.7741 19.9346C28.7851 19.5073 28.8129 19.352 28.9237 19.1301C28.9958 18.9802 29.1399 18.775 29.2397 18.6751C29.3339 18.5752 29.4836 18.4642 29.5723 18.431C29.6555 18.3977 29.7996 18.3477 29.8883 18.32C29.9825 18.2978 30.2043 18.2867 30.3872 18.3033ZM29.7663 19.1522C29.7331 19.2022 29.6776 19.3353 29.6444 19.4463C29.5889 19.6461 29.5889 19.6571 29.7109 19.6571C29.7774 19.6571 29.9215 19.6294 30.0269 19.5961C30.1322 19.5573 30.2763 19.4796 30.3484 19.413C30.4149 19.352 30.4704 19.2466 30.4704 19.1855C30.4704 19.1245 30.4426 19.0413 30.4038 19.0024C30.365 18.9636 30.2708 18.9359 30.1932 18.9359C30.1156 18.9359 30.0047 18.9691 29.9437 19.0024C29.8827 19.0357 29.8051 19.1079 29.7663 19.1522ZM32.8817 18.3089C33.0647 18.32 33.3141 18.381 33.4361 18.4365C33.558 18.4975 33.6966 18.5808 33.741 18.6307C33.813 18.7028 33.813 18.7361 33.7521 18.8415C33.7133 18.9081 33.6301 19.0191 33.4638 19.2133L33.1755 19.0746C33.0148 18.9969 32.8263 18.9359 32.7598 18.9359C32.6877 18.9359 32.5824 18.9636 32.5214 18.9913C32.4549 19.0246 32.4106 19.1023 32.4106 19.1855C32.4106 19.2743 32.466 19.3686 32.5658 19.4352C32.6489 19.5018 32.7487 19.5517 32.7875 19.5462C32.8208 19.5462 32.9871 19.6072 33.1478 19.6793C33.303 19.7515 33.5137 19.8902 33.6024 19.9845C33.7521 20.1454 33.7687 20.2009 33.7687 20.5061C33.7687 20.7557 33.7354 20.9 33.6523 21.0442C33.5858 21.1552 33.4305 21.2939 33.292 21.3605C33.1589 21.4271 32.9372 21.4992 32.7986 21.5214C32.6545 21.5436 32.405 21.527 32.2165 21.4881C32.0336 21.4493 31.7897 21.3716 31.6788 21.3106C31.507 21.2273 31.4737 21.1885 31.5014 21.0831C31.5181 21.0165 31.5624 20.8778 31.5957 20.7779C31.6345 20.6781 31.6899 20.6004 31.7176 20.6004C31.7509 20.6004 31.9227 20.6614 32.1057 20.7335C32.2941 20.8112 32.5103 20.8556 32.6046 20.8445C32.6988 20.8334 32.8041 20.789 32.8429 20.7557C32.8873 20.7169 32.9095 20.6226 32.8984 20.5449C32.8873 20.4506 32.8208 20.3784 32.6877 20.3119C32.5824 20.2619 32.3551 20.1676 32.1888 20.1066C32.0225 20.0455 31.8285 19.9346 31.7675 19.868C31.701 19.7959 31.6123 19.6461 31.5735 19.5295C31.507 19.3575 31.507 19.2799 31.5679 19.0579C31.6068 18.9137 31.7065 18.725 31.7897 18.6418C31.8728 18.553 31.9893 18.4531 32.0502 18.4199C32.1112 18.3866 32.2498 18.3422 32.3551 18.32C32.4604 18.2978 32.6988 18.2922 32.8817 18.3089ZM26.5345 18.381L26.5511 19.524C26.5622 20.5948 26.5678 20.6725 26.6731 20.7446C26.7341 20.789 26.8394 20.8223 26.9115 20.8223C26.9835 20.8223 27.1166 20.7502 27.366 20.4894V18.381L28.2253 18.4088L28.253 21.4326H27.8927C27.5878 21.4326 27.5323 21.416 27.5323 21.3328C27.5323 21.2828 27.5157 21.2218 27.4935 21.1941C27.4658 21.1719 27.3882 21.2162 27.3106 21.2884C27.233 21.3605 27.05 21.4437 26.8948 21.477C26.6953 21.5159 26.5456 21.5159 26.3627 21.4715C26.2241 21.4326 26.0522 21.355 25.9802 21.2939C25.9081 21.2329 25.8083 21.0831 25.7584 20.961C25.6753 20.7779 25.6586 20.556 25.6476 19.6571C25.642 19.0635 25.6586 18.5308 25.6753 18.4753C25.7085 18.3977 25.7806 18.381 26.5345 18.381Z" fill="white"/>
<path fill-rule="evenodd" clip-rule="evenodd" d="M6.20673 17.271C6.3176 17.2654 6.42293 17.3098 6.49499 17.3875C6.56706 17.4596 6.60032 17.5706 6.59477 17.676C6.58923 17.787 6.5338 17.8924 6.45619 17.9534C6.38412 18.0089 6.28434 18.0533 6.23445 18.0477C6.17902 18.0477 6.07924 18.02 6.01271 17.9867C5.94065 17.9479 5.86858 17.8924 5.84641 17.8591C5.82424 17.8258 5.80206 17.7315 5.80206 17.6483C5.80206 17.5595 5.85195 17.443 5.91293 17.3819C5.97945 17.3154 6.10141 17.271 6.20673 17.271ZM8.40748 18.3363C8.54607 18.3363 8.81769 18.3751 9.37758 18.5194L9.4053 22.2091L8.65693 22.1813L8.62922 20.9884L8.45183 21.0772C8.32433 21.1382 8.17466 21.1604 7.964 21.1438C7.77553 21.1327 7.59259 21.0772 7.49281 21.0106C7.40412 20.944 7.26553 20.772 7.18792 20.6222C7.07705 20.4003 7.05488 20.2671 7.04934 19.8787C7.04934 19.568 7.0826 19.3239 7.14358 19.1574C7.19901 18.9965 7.33205 18.819 7.5039 18.6692C7.64803 18.5416 7.85868 18.4139 7.964 18.3862C8.06933 18.3585 8.26889 18.3363 8.40748 18.3363ZM5.80206 18.4361H6.57814V21.0994L5.82978 21.0716L5.80206 18.4361Z" fill="#6D41B1"/>
<path d="M7.79775 19.4912C7.83655 19.2637 7.89753 19.1472 8.01949 19.0362C8.13035 18.9363 8.25231 18.8809 8.36872 18.8809C8.46296 18.8809 8.57937 18.9086 8.61818 18.9474C8.66252 18.9974 8.6847 19.2082 8.6847 19.6299C8.6847 20.0072 8.65698 20.2902 8.61263 20.3789C8.57383 20.4566 8.47959 20.5509 8.40753 20.5842C8.30774 20.6342 8.21905 20.6397 8.10264 20.6009C8.00286 20.5676 7.90862 20.4899 7.86981 20.3956C7.83655 20.3123 7.7922 20.1403 7.77003 20.0183C7.7534 19.8962 7.76449 19.6576 7.79775 19.4912Z" fill="white"/>
</svg>
