<svg width="40" height="40" viewBox="0 0 40 40" fill="none" xmlns="http://www.w3.org/2000/svg">
<rect width="40" height="40" rx="20" fill="#12332A"/>
<path d="M16.5658 23.3567V24.927H18.716V29.0547H11.052C10.4846 29.0547 10.0206 28.5907 10.0206 28.0233V11.2579C10.0206 10.6905 10.4846 10.2266 11.052 10.2266H18.7274V14.3463H16.5658V15.9166H14.8306V23.3544H16.5658V23.3567Z" fill="#C3F53C"/>
<path d="M22.348 15.918H16.5658V23.3557H22.348V15.918Z" fill="#C3F53C"/>
<path d="M29.0206 11.2576V28.023C29.0206 28.5904 28.5567 29.0543 27.9893 29.0543H20.1854V24.9267H22.347V23.3563H24.0106V15.9186H22.347V14.3482H20.1967V10.2285H27.9881C28.5556 10.2285 29.0195 10.6925 29.0195 11.2599L29.0206 11.2576Z" fill="#C3F53C"/>
</svg>
