<svg width="40" height="40" viewBox="0 0 40 40" fill="none" xmlns="http://www.w3.org/2000/svg">
<rect width="40" height="40" rx="20" fill="#090909"/>
<path d="M36.2331 19.9839C36.2331 18.0254 34.5994 16.4378 32.5841 16.4378C30.5687 16.4378 28.935 18.0254 28.935 19.9839V24.6608H28.1681V19.9839C28.1681 17.6139 30.1452 15.6925 32.5841 15.6925C35.0229 15.6925 37 17.6139 37 19.9839V24.6608H36.2331V19.9839Z" fill="white"/>
<path d="M13.5586 20.1767C13.5586 20.7727 13.0613 21.256 12.448 21.256C11.8346 21.256 11.3374 20.7727 11.3374 20.1767C11.3374 19.5806 11.8346 19.0974 12.448 19.0974C13.0613 19.0974 13.5586 19.5806 13.5586 20.1767Z" fill="white"/>
<path d="M6.20752 16.078C6.20752 15.858 6.39102 15.6797 6.61738 15.6797C6.84374 15.6797 7.02724 15.858 7.02724 16.078V24.2625C7.02724 24.4825 6.84374 24.6608 6.61738 24.6608C6.39102 24.6608 6.20752 24.4825 6.20752 24.2625V16.078Z" fill="white"/>
<path d="M12.5915 20.6739C12.4315 20.5183 12.4315 20.2661 12.5915 20.1106C12.7516 19.955 13.0111 19.955 13.1711 20.1106L16.6354 23.4772C16.7955 23.6327 16.7955 23.8849 16.6354 24.0405C16.4754 24.196 16.2159 24.196 16.0558 24.0405L12.5915 20.6739Z" fill="white"/>
<path d="M16.2954 20.1767C16.2954 18.1117 14.5728 16.4378 12.448 16.4378C10.3231 16.4378 8.60058 18.1117 8.60058 20.1767C8.60058 22.2416 10.3231 23.9156 12.448 23.9156C13.1693 23.9156 13.8432 23.723 14.4195 23.3881C14.6012 23.2825 14.8367 23.3401 14.9453 23.5167C15.054 23.6933 14.9948 23.9221 14.8131 24.0277C14.1212 24.4298 13.3117 24.6608 12.448 24.6608C9.89961 24.6608 7.83374 22.6532 7.83374 20.1767C7.83374 17.7002 9.89961 15.6925 12.448 15.6925C14.9964 15.6925 17.0622 17.7002 17.0622 20.1767C17.0622 20.913 16.8793 21.6089 16.5549 22.2228C16.4581 22.4059 16.227 22.478 16.0386 22.384C15.8502 22.29 15.776 22.0654 15.8727 21.8823C16.1428 21.3713 16.2954 20.7919 16.2954 20.1767Z" fill="white"/>
<path d="M26.4494 20.1767C26.4494 18.1117 24.7268 16.4378 22.602 16.4378C20.4771 16.4378 18.7546 18.1117 18.7546 20.1767C18.7546 22.2416 20.4771 23.9156 22.602 23.9156C23.3998 23.9156 24.1398 23.68 24.7538 23.2766C25.2332 22.9617 25.6356 22.5445 25.9279 22.0576C26.2593 21.5054 26.4494 20.8631 26.4494 20.1767ZM27.2162 20.1767C27.2162 20.9986 26.9883 21.7699 26.5903 22.433C26.2398 23.0169 25.7577 23.5166 25.1833 23.894C24.4464 24.3781 23.5576 24.6608 22.602 24.6608C20.0536 24.6608 17.9877 22.6532 17.9877 20.1767C17.9877 17.7002 20.0536 15.6925 22.602 15.6925C25.1503 15.6925 27.2162 17.7002 27.2162 20.1767Z" fill="white"/>
</svg>
