<svg width="40" height="40" viewBox="0 0 40 40" fill="none" xmlns="http://www.w3.org/2000/svg">
<rect width="40" height="40" rx="20" fill="#090909"/>
<g clip-path="url(#clip0_11_59231)">
<path d="M4.50763 22.6575V17.4297H10.1961V18.3802H5.66854V19.5355H9.77525V20.486H5.66854V21.707H10.1961V22.6575H4.50763Z" fill="white"/>
<path d="M10.8242 22.6935V21.743L14.9962 21.7503C15.209 21.7503 15.371 21.7016 15.4823 21.6041C15.5984 21.5017 15.6564 21.3384 15.6564 21.1142C15.6564 20.89 15.5984 20.7291 15.4823 20.6317C15.371 20.5293 15.209 20.4781 14.9962 20.4781H12.3986C11.8617 20.4781 11.4433 20.3489 11.1434 20.0906C10.8483 19.8274 10.7008 19.4423 10.7008 18.9353C10.7008 18.4284 10.8483 18.0457 11.1434 17.7874C11.4433 17.5242 11.8617 17.3926 12.3986 17.3926H16.4763V18.3431L12.522 18.3358C12.314 18.3358 12.1519 18.3845 12.0358 18.482C11.9198 18.5746 11.8617 18.7257 11.8617 18.9353C11.8617 19.1449 11.9198 19.2985 12.0358 19.396C12.1519 19.4886 12.314 19.5349 12.522 19.5349H15.1195C15.6564 19.5349 16.0724 19.6689 16.3675 19.937C16.6674 20.2003 16.8173 20.5927 16.8173 21.1142C16.8173 21.6309 16.6674 22.0233 16.3675 22.2914C16.0724 22.5595 15.6564 22.6935 15.1195 22.6935H10.8242Z" fill="white"/>
<path d="M26.8691 22.6936C25.9115 22.6936 25.1786 22.4718 24.6707 22.0283C24.1628 21.5798 23.9089 20.9169 23.9089 20.0395C23.9089 19.167 24.1628 18.5065 24.6707 18.058C25.1786 17.6096 25.9115 17.3878 26.8691 17.3927L29.4812 17.4073V18.3432H26.949C26.3201 18.3432 25.8533 18.4772 25.5487 18.7453C25.2439 19.0134 25.0916 19.4448 25.0916 20.0395C25.0916 20.6342 25.2439 21.068 25.5487 21.341C25.8533 21.6091 26.3201 21.7431 26.949 21.7431H29.5537V22.6936H26.8691Z" fill="white"/>
<path d="M29.8431 22.6575L31.7877 20.0473L29.8431 17.4297H31.2581L32.818 19.572H33.4855L35.0454 17.4297H36.4604L34.5158 20.0473L36.4604 22.6575H35.0382L33.4855 20.5225H32.818L31.2653 22.6575H29.8431Z" fill="white"/>
<path d="M20.1405 22.6935C19.2552 22.6935 18.5636 22.4718 18.0653 22.0282C17.572 21.5797 17.3253 20.9168 17.3253 20.0394C17.3253 19.1669 17.5768 18.5088 18.0799 18.0653C18.5878 17.6168 19.323 17.3926 20.2856 17.3926H23.0427V18.3431H20.3654C19.7317 18.3431 19.2626 18.4771 18.9578 18.7452C18.6579 19.0133 18.5079 19.4447 18.5079 20.0394C18.5079 20.6048 18.6409 21.024 18.907 21.297C19.173 21.5651 19.5625 21.7113 20.0751 21.7357L21.1635 21.743H22.1649V20.6536H19.7563V19.7031H23.3258V22.6935H20.1405Z" fill="white"/>
</g>
<defs>
<clipPath id="clip0_11_59231">
<rect width="32" height="5.19481" fill="white" transform="translate(4.5 17.4043)"/>
</clipPath>
</defs>
</svg>
