<svg width="40" height="40" viewBox="0 0 40 40" fill="none" xmlns="http://www.w3.org/2000/svg">
<rect width="40" height="40" rx="20" fill="#0B0517"/>
<path d="M19.6271 10.5723C19.6713 10.6843 19.6541 12.6797 19.6542 13.022C19.2582 12.8789 18.8908 12.7971 18.4717 12.8901C18.4559 12.8936 18.4401 12.8974 18.4243 12.9013C18.4085 12.9053 18.3928 12.9094 18.3772 12.9137C18.3615 12.9181 18.3459 12.9226 18.3303 12.9273C18.3148 12.932 18.2993 12.9369 18.2839 12.942C18.2684 12.9471 18.253 12.9524 18.2377 12.9579C18.2224 12.9634 18.2072 12.969 18.192 12.9749C18.1769 12.9807 18.1618 12.9868 18.1467 12.993C18.1317 12.9992 18.1168 13.0056 18.1019 13.0122C18.0871 13.0188 18.0723 13.0256 18.0576 13.0325C18.0429 13.0395 18.0283 13.0466 18.0138 13.0539C17.9993 13.0612 17.9849 13.0687 17.9705 13.0764C17.9562 13.084 17.9419 13.0919 17.9278 13.0999C17.9137 13.1079 17.8996 13.1161 17.8857 13.1245C17.8717 13.1328 17.8579 13.1414 17.8442 13.1501C17.8305 13.1588 17.8168 13.1676 17.8033 13.1767C17.7898 13.1857 17.7764 13.1949 17.7631 13.2043C17.7498 13.2136 17.7367 13.2232 17.7236 13.2328C17.7106 13.2425 17.6976 13.2524 17.6848 13.2624C17.672 13.2724 17.6593 13.2826 17.6467 13.2929C17.6342 13.3032 17.6218 13.3137 17.6095 13.3243C17.5972 13.3349 17.585 13.3457 17.5729 13.3566C17.5609 13.3675 17.549 13.3786 17.5372 13.3898C17.5255 13.401 17.5138 13.4124 17.5024 13.4239C17.4909 13.4354 17.4795 13.447 17.4683 13.4588C17.4571 13.4706 17.4461 13.4825 17.4352 13.4946C17.4242 13.5066 17.4135 13.5188 17.4029 13.5311C17.3923 13.5434 17.3818 13.5559 17.3715 13.5684C17.3612 13.581 17.3511 13.5937 17.3411 13.6065C17.3311 13.6194 17.3212 13.6323 17.3116 13.6454C17.3019 13.6584 17.2924 13.6716 17.283 13.6849C17.2737 13.6982 17.2645 13.7116 17.2555 13.7251C17.2464 13.7387 17.2376 13.7523 17.2289 13.766C16.9495 14.2111 16.8794 14.7538 16.9974 15.2626C17.0012 15.2783 17.0051 15.2939 17.0093 15.3095C17.0134 15.3251 17.0178 15.3406 17.0223 15.3561C17.0269 15.3716 17.0316 15.387 17.0365 15.4023C17.0414 15.4177 17.0465 15.433 17.0518 15.4482C17.057 15.4634 17.0625 15.4786 17.0682 15.4937C17.0738 15.5088 17.0797 15.5238 17.0857 15.5388C17.0917 15.5537 17.0979 15.5686 17.1043 15.5834C17.1107 15.5982 17.1172 15.613 17.124 15.6276C17.1307 15.6423 17.1376 15.6568 17.1447 15.6713C17.1518 15.6858 17.1591 15.7002 17.1665 15.7144C17.174 15.7287 17.1816 15.743 17.1894 15.7571C17.1972 15.7712 17.2051 15.7852 17.2133 15.7991C17.2214 15.8131 17.2297 15.8269 17.2382 15.8406C17.2466 15.8543 17.2553 15.8679 17.2641 15.8814C17.2729 15.8949 17.2818 15.9083 17.291 15.9216C17.3001 15.9349 17.3094 15.9481 17.3188 15.9611C17.3283 15.9742 17.3379 15.9872 17.3476 16C17.3574 16.0128 17.3673 16.0255 17.3774 16.0381C17.3875 16.0507 17.3977 16.0632 17.4081 16.0755C17.4185 16.0878 17.429 16.1 17.4397 16.1121C17.4503 16.1242 17.4612 16.1361 17.4721 16.148C17.4831 16.1598 17.4942 16.1714 17.5054 16.183C17.5167 16.1946 17.5281 16.206 17.5396 16.2172C17.5512 16.2285 17.5628 16.2396 17.5746 16.2506C17.5864 16.2616 17.5983 16.2724 17.6104 16.2831C17.6225 16.2938 17.6347 16.3043 17.647 16.3147C17.6593 16.3251 17.6717 16.3354 17.6843 16.3455C17.6969 16.3556 17.7096 16.3655 17.7224 16.3753C17.7352 16.3851 17.7482 16.3947 17.7612 16.4042C17.7742 16.4136 17.7874 16.4229 17.8007 16.4321C17.814 16.4412 17.8273 16.4502 17.8408 16.459C17.8543 16.4679 17.8679 16.4765 17.8816 16.485C18.235 16.7029 18.6677 16.8245 19.0835 16.7831C19.2658 16.7649 19.4434 16.7197 19.6213 16.6776C19.6482 17.4938 19.6339 18.3187 19.6226 19.1354C19.0003 19.1553 18.3702 19.1418 17.7471 19.1406C17.4326 19.14 17.1112 19.1244 16.7981 19.1573C16.6931 19.1683 16.5776 19.2013 16.5113 19.2903C16.4549 19.3662 16.4237 19.4602 16.4393 19.5543C16.4639 19.7027 16.5664 19.7557 16.6751 19.8402C16.872 19.9933 16.9698 20.237 16.997 20.4796C17.0348 20.8162 16.9497 21.1495 16.7345 21.4138C16.7227 21.4284 16.7106 21.4426 16.6981 21.4566C16.6856 21.4706 16.6727 21.4843 16.6595 21.4976C16.6463 21.511 16.6328 21.524 16.619 21.5367C16.6052 21.5494 16.5911 21.5617 16.5766 21.5737C16.5622 21.5857 16.5475 21.5973 16.5325 21.6086C16.5175 21.6198 16.5022 21.6307 16.4867 21.6412C16.4711 21.6517 16.4553 21.6619 16.4393 21.6716C16.4233 21.6813 16.407 21.6907 16.3905 21.6996C16.374 21.7085 16.3573 21.7171 16.3404 21.7252C16.3235 21.7333 16.3064 21.741 16.2891 21.7482C16.2718 21.7555 16.2543 21.7624 16.2367 21.7688C16.219 21.7752 16.2013 21.7812 16.1833 21.7867C16.1654 21.7922 16.1474 21.7973 16.1292 21.802C16.111 21.8066 16.0927 21.8108 16.0744 21.8146C16.056 21.8183 16.0375 21.8216 16.019 21.8244C16.0004 21.8273 15.9818 21.8297 15.9632 21.8316C15.6266 21.8649 15.3439 21.75 15.0868 21.5377C15.0437 21.5001 15.0004 21.4626 14.9627 21.4195C14.7494 21.1759 14.6688 20.8709 14.6941 20.5515C14.7102 20.3488 14.788 20.0486 14.9462 19.9086C15.0191 19.8441 15.116 19.8094 15.1885 19.7436C15.2551 19.6832 15.2877 19.5889 15.2895 19.5005C15.2913 19.4106 15.2577 19.3201 15.1934 19.2567C15.1283 19.1924 15.0423 19.1629 14.9534 19.1508C14.6633 19.1116 14.3445 19.1507 14.0515 19.1533C13.5271 19.158 13.0022 19.1514 12.4778 19.1497C12.3683 18.6684 12.2403 18.1947 12.1465 17.7092C12.0856 17.3902 12.0327 17.0698 11.9877 16.7482C11.9426 16.4265 11.9056 16.1039 11.8764 15.7804C11.8473 15.4569 11.8262 15.1329 11.813 14.8084C11.7999 14.4839 11.7948 14.1592 11.7976 13.8344C12.0617 13.7918 12.3288 13.7539 12.5902 13.6974C14.5324 13.2782 16.6261 12.3972 18.3416 11.3941C18.7816 11.1368 19.2003 10.8502 19.6271 10.5723Z" fill="#EA84FA"/>
<path d="M20.3428 10.5742C20.5405 10.659 20.7197 10.8063 20.8987 10.9256C21.1872 11.1178 21.4818 11.3073 21.7857 11.4742C23.4509 12.3893 25.2072 13.1528 27.0604 13.5929C27.435 13.6819 27.8182 13.781 28.2031 13.8089C28.2062 14.0446 28.1948 14.2793 28.1869 14.5147C28.1783 14.7904 28.1636 15.0659 28.1428 15.341C28.122 15.6161 28.0952 15.8907 28.0623 16.1646C28.0294 16.4385 27.9905 16.7116 27.9455 16.9838C27.9005 17.256 27.8495 17.5271 27.7926 17.7971C27.6986 18.2459 27.5777 18.6862 27.4715 19.1318C26.9174 19.1503 26.3615 19.1151 25.8073 19.1437C25.9098 18.8922 25.9975 18.6454 26.0172 18.3719C26.0551 17.8466 25.8979 17.3025 25.5502 16.9017C25.1772 16.4715 24.6828 16.2754 24.1254 16.2339C24.0615 16.2339 23.9977 16.2368 23.9341 16.2426C23.8705 16.2485 23.8072 16.2572 23.7444 16.2687C23.6815 16.2804 23.6193 16.2948 23.5578 16.3121C23.4963 16.3293 23.4356 16.3493 23.3759 16.3721C22.883 16.5641 22.4803 16.9705 22.2711 17.4542C22.0085 18.0615 22.1098 18.5523 22.3419 19.1455C21.8885 19.1589 21.4313 19.1481 20.9778 19.1459C20.7802 19.145 20.5722 19.1295 20.3761 19.1479C20.3789 18.5917 20.3607 18.0357 20.3675 17.4792C20.3722 17.0962 20.3752 16.7147 20.3704 16.3316C20.3683 16.172 20.3783 16.0051 20.3618 15.8466C20.3526 15.7574 20.3384 15.6747 20.2784 15.604C20.2186 15.5334 20.1322 15.4932 20.0406 15.4864C19.7672 15.4661 19.724 15.6869 19.5581 15.8335C19.3712 15.9985 19.0692 16.0439 18.8282 16.0275C18.474 16.0033 18.1763 15.8409 17.9455 15.5745C17.7319 15.328 17.6361 15.0224 17.6598 14.6982C17.6842 14.364 17.8456 14.0604 18.0996 13.8438C18.3295 13.6478 18.6379 13.5607 18.937 13.5852C19.1689 13.6042 19.5118 13.7093 19.6197 13.9385C19.6654 14.0355 19.6875 14.1506 19.7605 14.2317C19.8231 14.3012 19.9126 14.337 20.005 14.3401C20.098 14.3433 20.1922 14.3219 20.2613 14.2563C20.3293 14.1919 20.3582 14.1022 20.3686 14.0111C20.388 13.842 20.3736 13.666 20.3684 13.496C20.3638 13.3233 20.3613 13.1506 20.3609 12.9778C20.3523 12.1762 20.34 11.376 20.3428 10.5742Z" fill="#EA84FA"/>
<path d="M19.2125 19.9175C19.3517 19.9187 19.4895 19.9135 19.6289 19.9218L19.6257 22.4438L19.624 23.2188C19.6239 23.374 19.6157 23.5363 19.6332 23.6904C19.6427 23.7738 19.6591 23.8488 19.7209 23.9097C19.8125 23.9998 19.9383 24.003 20.0583 24.0023C20.2263 23.8998 20.2882 23.7108 20.4358 23.5853C20.6805 23.3769 21.0166 23.2736 21.3357 23.3013C21.6466 23.3283 21.9139 23.4767 22.1111 23.717C22.3244 23.9768 22.4219 24.2896 22.3888 24.6244C22.3866 24.6451 22.3838 24.6658 22.3806 24.6863C22.3773 24.7069 22.3736 24.7274 22.3694 24.7478C22.3651 24.7681 22.3604 24.7884 22.3552 24.8086C22.3499 24.8287 22.3442 24.8488 22.338 24.8686C22.3318 24.8885 22.3251 24.9082 22.318 24.9278C22.3108 24.9473 22.3032 24.9667 22.2951 24.9859C22.2869 25.005 22.2784 25.024 22.2693 25.0428C22.2603 25.0615 22.2508 25.0801 22.2409 25.0984C22.2309 25.1167 22.2206 25.1347 22.2097 25.1525C22.1989 25.1703 22.1877 25.1878 22.176 25.205C22.1643 25.2223 22.1523 25.2393 22.1397 25.2559C22.1272 25.2726 22.1143 25.2889 22.1011 25.3049C22.0878 25.3209 22.0741 25.3366 22.06 25.352C22.046 25.3673 22.0315 25.3824 22.0167 25.397C22.0019 25.4117 21.9868 25.4259 21.9713 25.4398C21.9558 25.4538 21.94 25.4673 21.9239 25.4804C21.6814 25.6765 21.3701 25.7422 21.0637 25.7076C20.6193 25.6573 20.4645 25.4299 20.2079 25.1096C20.1452 25.0313 20.0655 24.9728 19.9627 24.9643C19.8828 24.9576 19.8 24.9834 19.7414 25.0389C19.6854 25.0919 19.6405 25.1822 19.6315 25.2589C19.6109 25.435 19.623 25.6165 19.6245 25.7934L19.6282 26.5915L19.6287 29.3873C19.4147 29.2585 19.2101 29.1047 19.0092 28.9563C18.2213 28.3744 17.516 27.7083 16.8326 27.0093C16.7729 26.9472 16.7136 26.8847 16.6548 26.8217C16.596 26.7588 16.5377 26.6954 16.4799 26.6316C16.422 26.5677 16.3646 26.5035 16.3077 26.4388C16.2508 26.3741 16.1944 26.309 16.1385 26.2435C16.0825 26.178 16.0271 26.1121 15.9721 26.0458C15.9172 25.9794 15.8627 25.9127 15.8087 25.8456C15.7548 25.7784 15.7013 25.7109 15.6483 25.6429C15.5953 25.575 15.5429 25.5067 15.4909 25.438C15.439 25.3692 15.3875 25.3002 15.3366 25.2307C15.2857 25.1612 15.2352 25.0914 15.1853 25.0211C15.1354 24.9509 15.0861 24.8803 15.0372 24.8094C14.9884 24.7384 14.9401 24.6671 14.8923 24.5954C14.8445 24.5238 14.7972 24.4517 14.7505 24.3794C14.7037 24.307 14.6576 24.2343 14.6119 24.1612C14.5663 24.0882 14.5212 24.0148 14.4766 23.9411C14.432 23.8673 14.388 23.7933 14.3446 23.7189C14.3011 23.6445 14.2582 23.5698 14.2158 23.4948C14.1735 23.4198 14.1317 23.3445 14.0904 23.2688C14.0492 23.1932 14.0085 23.1173 13.9684 23.041C13.9283 22.9648 13.8887 22.8882 13.8498 22.8114C13.8108 22.7346 13.7724 22.6575 13.7345 22.5801C13.6967 22.5027 13.6595 22.425 13.6228 22.3471C13.5861 22.2691 13.55 22.1909 13.5144 22.1124C13.4789 22.034 13.444 21.9552 13.4096 21.8762C13.3753 21.7972 13.3415 21.718 13.3083 21.6385C13.2751 21.559 13.2425 21.4792 13.2105 21.3993C13.1785 21.3193 13.1471 21.239 13.1163 21.1586C13.0855 21.0782 13.0553 20.9975 13.0256 20.9166C12.996 20.8357 12.967 20.7546 12.9386 20.6733C12.9102 20.5919 12.8824 20.5104 12.8552 20.4286C12.828 20.3469 12.8014 20.265 12.7754 20.1828C12.7494 20.1007 12.724 20.0184 12.6992 19.9359C13.1549 19.9195 13.6189 19.9266 14.0748 19.9369C13.965 20.3396 13.8873 20.7043 13.9923 21.1196C14.1202 21.6254 14.4755 22.0836 14.9243 22.3474C14.9373 22.3551 14.9504 22.3626 14.9636 22.3699C14.9768 22.3773 14.9901 22.3845 15.0035 22.3915C15.0169 22.3985 15.0304 22.4053 15.0439 22.412C15.0575 22.4187 15.0711 22.4252 15.0849 22.4316C15.0986 22.4379 15.1124 22.4441 15.1262 22.4501C15.1401 22.4561 15.154 22.4619 15.1681 22.4675C15.1821 22.4732 15.1962 22.4787 15.2103 22.484C15.2245 22.4893 15.2387 22.4944 15.253 22.4994C15.2672 22.5043 15.2816 22.5091 15.296 22.5137C15.3104 22.5182 15.3248 22.5227 15.3393 22.5269C15.3539 22.5311 15.3684 22.5352 15.383 22.539C15.3976 22.5429 15.4123 22.5466 15.427 22.5501C15.4417 22.5536 15.4564 22.5569 15.4712 22.5601C15.486 22.5632 15.5008 22.5662 15.5157 22.5689C15.5305 22.5717 15.5454 22.5743 15.5603 22.5767C15.5753 22.5791 15.5902 22.5813 15.6052 22.5833C15.6202 22.5853 15.6352 22.5872 15.6502 22.5888C15.6652 22.5905 15.6802 22.592 15.6953 22.5932C15.7104 22.5945 15.7254 22.5956 15.7405 22.5965C15.7556 22.5974 15.7707 22.5981 15.7858 22.5987C15.8009 22.5992 15.816 22.5995 15.8311 22.5997C15.8462 22.5999 15.8613 22.5998 15.8765 22.5996C15.8916 22.5994 15.9067 22.599 15.9218 22.5984C15.9369 22.5978 15.952 22.597 15.9671 22.596C15.9821 22.595 15.9972 22.5939 16.0123 22.5925C16.0273 22.5912 16.0423 22.5896 16.0573 22.5879C16.0724 22.5862 16.0874 22.5843 16.1023 22.5822C16.1173 22.5801 16.1322 22.5778 16.1471 22.5753C16.162 22.5729 16.1769 22.5702 16.1918 22.5674C16.2066 22.5645 16.2214 22.5615 16.2362 22.5583C16.251 22.5551 16.2657 22.5517 16.2804 22.5482C16.2951 22.5446 16.3097 22.5408 16.3243 22.5369C16.3392 22.5329 16.354 22.5288 16.3688 22.5244C16.3836 22.5201 16.3984 22.5156 16.413 22.5109C16.4277 22.5062 16.4423 22.5013 16.4569 22.4962C16.4714 22.4912 16.4859 22.4859 16.5004 22.4805C16.5148 22.4751 16.5292 22.4695 16.5434 22.4637C16.5577 22.4579 16.5719 22.4519 16.5861 22.4458C16.6002 22.4396 16.6143 22.4333 16.6283 22.4268C16.6422 22.4203 16.6561 22.4137 16.67 22.4068C16.6838 22.4 16.6975 22.393 16.7111 22.3858C16.7248 22.3786 16.7383 22.3713 16.7518 22.3638C16.7652 22.3562 16.7786 22.3486 16.7919 22.3407C16.8051 22.3329 16.8183 22.3248 16.8314 22.3166C16.8444 22.3085 16.8574 22.3001 16.8703 22.2916C16.8831 22.2831 16.8959 22.2745 16.9085 22.2656C16.9211 22.2568 16.9337 22.2478 16.9461 22.2387C16.9585 22.2296 16.9708 22.2203 16.983 22.2108C16.9952 22.2014 17.0072 22.1918 17.0192 22.182C17.0311 22.1723 17.043 22.1624 17.0547 22.1524C17.0664 22.1423 17.0779 22.1321 17.0894 22.1218C17.1008 22.1115 17.1121 22.101 17.1233 22.0904C17.1345 22.0798 17.1456 22.0691 17.1565 22.0582C17.1674 22.0473 17.1782 22.0363 17.1888 22.0251C17.1995 22.014 17.2099 22.0027 17.2203 21.9913C17.2307 21.9798 17.2409 21.9683 17.251 21.9566C17.261 21.9449 17.2709 21.9332 17.2807 21.9212C17.2905 21.9093 17.3001 21.8973 17.3096 21.8851C17.3191 21.8729 17.3284 21.8607 17.3376 21.8483C17.3468 21.8359 17.3558 21.8234 17.3646 21.8108C17.3735 21.7982 17.3822 21.7854 17.3907 21.7726C17.3993 21.7598 17.4076 21.7468 17.4159 21.7338C17.4241 21.7207 17.4321 21.7076 17.44 21.6943C17.4479 21.6811 17.4556 21.6678 17.4632 21.6543C17.7982 21.0706 17.7913 20.5576 17.6188 19.9262L19.2125 19.9175Z" fill="#EA84FA"/>
<path d="M24.0199 16.9742C24.0691 16.9674 24.1193 16.9719 24.1687 16.9757C24.4908 17.0004 24.782 17.14 24.9925 17.3863C25.3517 17.8065 25.4088 18.4105 25.0963 18.8718C24.9616 19.0706 24.678 19.2188 24.6651 19.4776C24.6596 19.5888 24.7059 19.7009 24.7821 19.781C24.8565 19.8593 24.9523 19.8982 25.0572 19.9155C25.3149 19.9578 25.6056 19.9195 25.8672 19.9174C26.3326 19.9136 26.7985 19.9201 27.264 19.9233C27.2145 20.1331 27.1401 20.3362 27.0695 20.5396C26.9337 20.9379 26.7828 21.3303 26.6169 21.7171C26.5763 21.8136 26.5349 21.9098 26.4926 22.0056C26.4503 22.1014 26.4071 22.1968 26.3631 22.2919C26.3191 22.3869 26.2743 22.4815 26.2286 22.5758C26.1829 22.67 26.1364 22.7639 26.089 22.8573C26.0417 22.9507 25.9935 23.0437 25.9445 23.1362C25.8955 23.2288 25.8456 23.3209 25.795 23.4126C25.7443 23.5043 25.6929 23.5955 25.6406 23.6862C25.5883 23.777 25.5353 23.8673 25.4814 23.9571C25.4275 24.0469 25.3729 24.1362 25.3174 24.2251C25.2619 24.3139 25.2057 24.4023 25.1487 24.4901C25.0916 24.578 25.0338 24.6653 24.9752 24.7521C24.9166 24.8389 24.8573 24.9252 24.7972 25.0109C24.737 25.0967 24.6762 25.1819 24.6145 25.2666C24.5529 25.3513 24.4905 25.4354 24.4274 25.519C24.3642 25.6025 24.3004 25.6855 24.2358 25.7679C24.1712 25.8504 24.1058 25.9322 24.0398 26.0135C23.9737 26.0947 23.9069 26.1754 23.8394 26.2555C23.7719 26.3356 23.7037 26.415 23.6348 26.4939C23.5659 26.5728 23.4963 26.651 23.426 26.7286C23.3557 26.8063 23.2847 26.8833 23.213 26.9596C23.1414 27.036 23.069 27.1117 22.996 27.1868C22.923 27.2619 22.8493 27.3363 22.775 27.4101C22.7006 27.4838 22.6257 27.5569 22.55 27.6294C22.4744 27.7018 22.3981 27.7736 22.3212 27.8446C22.2443 27.9157 22.1667 27.9861 22.0886 28.0558C22.0104 28.1255 21.9316 28.1945 21.8522 28.2628C21.7728 28.3311 21.6928 28.3987 21.6122 28.4655C21.5316 28.5324 21.4504 28.5986 21.3687 28.664C21.2869 28.7294 21.2046 28.7941 21.1216 28.8581C21.0387 28.922 20.9552 28.9852 20.8712 29.0476C20.7871 29.1102 20.7025 29.172 20.6174 29.233C20.5323 29.2939 20.4466 29.3541 20.3604 29.4136C20.3381 29.3834 20.3413 29.3389 20.3401 29.3028C20.3223 28.7527 20.3426 28.1964 20.3423 27.6454L20.3418 26.8222C20.3418 26.6424 20.3363 26.4607 20.3511 26.2815L20.3745 26.2915C20.8998 26.5134 21.4174 26.5548 21.953 26.3345C22.4155 26.1443 22.8117 25.7312 22.9993 25.269C23.0055 25.2535 23.0115 25.2379 23.0173 25.2223C23.0231 25.2066 23.0287 25.1909 23.0341 25.1751C23.0395 25.1594 23.0448 25.1435 23.0498 25.1276C23.0548 25.1117 23.0597 25.0958 23.0643 25.0798C23.069 25.0637 23.0734 25.0476 23.0777 25.0315C23.0819 25.0154 23.086 24.9992 23.0898 24.983C23.0937 24.9668 23.0973 24.9505 23.1008 24.9342C23.1043 24.9179 23.1075 24.9015 23.1106 24.8851C23.1137 24.8687 23.1165 24.8523 23.1192 24.8358C23.1218 24.8193 23.1243 24.8028 23.1266 24.7863C23.1288 24.7698 23.1309 24.7532 23.1327 24.7367C23.1346 24.7201 23.1362 24.7035 23.1377 24.6869C23.1391 24.6702 23.1404 24.6536 23.1414 24.637C23.1425 24.6203 23.1433 24.6037 23.1439 24.587C23.1446 24.5703 23.145 24.5537 23.1453 24.537C23.1455 24.5203 23.1455 24.5036 23.1453 24.4869C23.1452 24.4703 23.1448 24.4536 23.1442 24.4369C23.1436 24.4202 23.1428 24.4036 23.1418 24.3869C23.1408 24.3703 23.1397 24.3536 23.1383 24.337C23.1369 24.3204 23.1353 24.3038 23.1335 24.2872C23.1317 24.2706 23.1297 24.2541 23.1275 24.2375C23.1253 24.221 23.1228 24.2045 23.1202 24.188C23.1176 24.1716 23.1148 24.1551 23.1118 24.1387C23.1088 24.1223 23.1056 24.1059 23.1022 24.0896C23.0988 24.0733 23.0952 24.057 23.0914 24.0407C23.0876 24.0245 23.0836 24.0083 23.0794 23.9922C23.0752 23.976 23.0708 23.9599 23.0662 23.9439C23.0616 23.9279 23.0568 23.9119 23.0518 23.896C23.0468 23.8801 23.0416 23.8642 23.0363 23.8484C23.0309 23.8326 23.0254 23.8169 23.0196 23.8012C23.0138 23.7856 23.0079 23.77 23.0018 23.7545C22.9956 23.739 22.9893 23.7235 22.9828 23.7082C22.9764 23.6934 22.9699 23.6786 22.9631 23.664C22.9564 23.6493 22.9495 23.6347 22.9424 23.6202C22.9353 23.6058 22.928 23.5914 22.9205 23.5771C22.9131 23.5627 22.9054 23.5485 22.8976 23.5344C22.8898 23.5203 22.8819 23.5063 22.8737 23.4923C22.8656 23.4784 22.8573 23.4646 22.8488 23.4509C22.8403 23.4372 22.8316 23.4235 22.8228 23.41C22.814 23.3965 22.805 23.3831 22.7959 23.3699C22.7867 23.3566 22.7774 23.3434 22.7679 23.3303C22.7585 23.3173 22.7488 23.3043 22.739 23.2915C22.7292 23.2787 22.7193 23.266 22.7092 23.2534C22.6991 23.2408 22.6888 23.2284 22.6784 23.2161C22.668 23.2037 22.6574 23.1915 22.6467 23.1795C22.636 23.1674 22.6252 23.1555 22.6142 23.1437C22.6032 23.1319 22.592 23.1202 22.5807 23.1087C22.5694 23.0972 22.558 23.0858 22.5465 23.0745C22.5349 23.0633 22.5232 23.0522 22.5113 23.0412C22.4995 23.0303 22.4875 23.0195 22.4754 23.0088C22.4633 22.9982 22.4511 22.9876 22.4387 22.9773C22.4263 22.9669 22.4138 22.9567 22.4012 22.9467C22.3886 22.9366 22.3759 22.9267 22.363 22.917C22.3502 22.9072 22.3372 22.8976 22.3241 22.8882C22.311 22.8788 22.2978 22.8695 22.2845 22.8604C22.2711 22.8514 22.2577 22.8424 22.2442 22.8336C22.2306 22.8249 22.217 22.8163 22.2032 22.8079C22.1895 22.7994 22.1756 22.7912 22.1617 22.7831C22.1477 22.775 22.1337 22.7671 22.1195 22.7593C22.1054 22.7516 22.0911 22.744 22.0768 22.7366C22.0624 22.7292 22.048 22.722 22.0335 22.7149C22.019 22.7079 22.0044 22.701 21.9897 22.6944C21.975 22.6877 21.9603 22.6812 21.9454 22.6749C21.9306 22.6685 21.9157 22.6624 21.9007 22.6564C21.3784 22.4472 20.8692 22.5092 20.363 22.7254L20.3632 21.0381C20.3635 20.664 20.3563 20.2896 20.3653 19.9156C21.0126 19.8935 21.6664 19.9093 22.3141 19.9128C22.6137 19.9145 22.9253 19.9415 23.2229 19.9052C23.3377 19.8912 23.4299 19.8464 23.4999 19.7517C23.504 19.7462 23.508 19.7407 23.5118 19.735C23.5156 19.7293 23.5192 19.7235 23.5227 19.7176C23.5262 19.7117 23.5296 19.7058 23.5328 19.6998C23.536 19.6937 23.5391 19.6876 23.542 19.6814C23.5449 19.6752 23.5476 19.6689 23.5502 19.6626C23.5528 19.6563 23.5552 19.6499 23.5575 19.6434C23.5598 19.6369 23.5619 19.6304 23.5638 19.6239C23.5657 19.6173 23.5675 19.6107 23.5691 19.6041C23.5707 19.5974 23.5722 19.5907 23.5734 19.584C23.5747 19.5773 23.5758 19.5705 23.5767 19.5637C23.5776 19.5569 23.5784 19.5501 23.579 19.5433C23.5796 19.5365 23.58 19.5297 23.5802 19.5229C23.5805 19.516 23.5805 19.5092 23.5804 19.5023C23.5803 19.4955 23.58 19.4886 23.5796 19.4818C23.5792 19.475 23.5785 19.4682 23.5777 19.4614C23.577 19.4546 23.576 19.4478 23.5749 19.4411C23.5477 19.2831 23.4221 19.2103 23.3038 19.1231C23.0654 18.9475 22.9287 18.6513 22.8867 18.362C22.8837 18.342 22.8813 18.322 22.8793 18.3019C22.8773 18.2818 22.8759 18.2616 22.8749 18.2414C22.8739 18.2212 22.8734 18.2011 22.8735 18.1809C22.8735 18.1606 22.874 18.1404 22.875 18.1203C22.8761 18.1001 22.8776 18.0799 22.8796 18.0598C22.8816 18.0397 22.8841 18.0197 22.8871 17.9997C22.8901 17.9797 22.8936 17.9598 22.8976 17.94C22.9016 17.9202 22.9061 17.9005 22.9111 17.8809C22.916 17.8613 22.9215 17.8419 22.9274 17.8226C22.9333 17.8032 22.9397 17.7841 22.9466 17.7651C22.9534 17.7461 22.9608 17.7273 22.9686 17.7086C22.9764 17.69 22.9846 17.6716 22.9934 17.6533C23.0021 17.6351 23.0112 17.6171 23.0208 17.5993C23.0304 17.5815 23.0404 17.564 23.0509 17.5467C23.0614 17.5294 23.0723 17.5124 23.0836 17.4957C23.0949 17.4789 23.1066 17.4625 23.1187 17.4463C23.3469 17.1455 23.6567 17.0253 24.0199 16.9742Z" fill="#EA84FA"/>
</svg>
