<svg width="40" height="40" viewBox="0 0 40 40" fill="none" xmlns="http://www.w3.org/2000/svg">
<rect width="40" height="40" rx="20" fill="#252A84"/>
<path fill-rule="evenodd" clip-rule="evenodd" d="M17.3129 12.2092C17.2969 12.1969 17.2242 12.1409 16.9604 12.2497C16.0342 12.6317 15.1083 13.7641 14.3146 15.4159C14.0674 15.9303 13.8391 16.4823 13.6321 17.0571C14.3537 17.6446 14.9528 18.6151 15.392 19.8853L15.3975 19.9012L15.4021 19.9174C15.9287 21.7752 16.1151 23.5695 15.9315 25.0029C15.7534 26.3946 15.1882 27.6602 13.9993 28.0643C13.3142 28.2971 12.6729 28.1906 12.1785 27.7347C11.7316 27.3225 11.4757 26.6878 11.3295 26.0075C11.0336 24.6304 11.1122 22.7018 11.4529 20.7263C11.6293 19.7032 11.8791 18.65 12.1938 17.6319C12.068 17.6039 11.9463 17.595 11.8305 17.6021C11.0179 17.6515 9.97128 18.4716 9.12936 20.3244C8.99411 20.622 8.64358 20.7535 8.34642 20.6181C8.04926 20.4826 7.91801 20.1315 8.05325 19.8339C8.94254 17.8768 10.2611 16.5111 11.7589 16.42C12.0411 16.4029 12.3139 16.4309 12.576 16.5014C12.7812 15.9453 13.0061 15.4084 13.2492 14.9023C14.0678 13.1988 15.1566 11.713 16.5102 11.1547C17.0293 10.9406 17.5654 10.9261 18.0137 11.2555C18.4111 11.5474 18.6146 12.0263 18.734 12.4789C18.9762 13.3966 18.9938 14.7122 18.9967 15.9722C18.9971 16.1028 18.9972 16.2332 18.9973 16.3631C18.9986 17.5323 18.9998 18.6598 19.1243 19.5472C19.1936 20.0411 19.2945 20.403 19.4204 20.6365C19.5345 20.8482 19.6329 20.8954 19.7113 20.9081C19.8441 20.9211 19.9596 20.8839 20.0994 20.7447C20.2623 20.5824 20.4316 20.3016 20.5996 19.8819C20.9064 19.1156 21.1359 18.0844 21.3849 16.966C21.4093 16.8562 21.4339 16.7457 21.4588 16.6345C21.7284 15.4295 22.0315 14.1429 22.4962 13.1826C22.7301 12.6993 23.027 12.2498 23.424 11.9339C23.839 11.6036 24.3438 11.4366 24.9241 11.505L24.8551 12.0919M24.8551 12.0919L24.9241 11.505C25.4642 11.5686 25.9043 11.7866 26.2246 12.1544C26.5329 12.5085 26.6867 12.9515 26.7633 13.3938C26.9081 14.2299 26.8064 15.2748 26.7139 16.2254C26.711 16.2552 26.7081 16.2848 26.7052 16.3144C26.6053 17.3428 26.5221 18.2727 26.6447 18.9928C26.7043 19.3429 26.8062 19.5965 26.9426 19.7729C27.07 19.9377 27.2524 20.0685 27.5488 20.1373C28.1117 20.2681 28.6306 20.0557 29.1546 19.4973C29.6887 18.9282 30.151 18.0702 30.5312 17.1332C30.9073 16.206 31.1845 15.2485 31.3681 14.5181C31.4596 14.1541 31.5272 13.8492 31.5718 13.6363C31.594 13.5298 31.6105 13.4465 31.6213 13.3903C31.6267 13.3623 31.6307 13.341 31.6332 13.3271L31.6361 13.3118L31.6367 13.3084C31.694 12.9866 32.0011 12.7715 32.3225 12.8289C32.6439 12.8863 32.858 13.1938 32.8007 13.5157L32.2187 13.4118C32.8007 13.5157 32.8008 13.5155 32.8007 13.5157L32.8003 13.5182L32.7993 13.5235L32.7958 13.5428C32.7927 13.5595 32.7882 13.5835 32.7822 13.6145C32.7703 13.6764 32.7526 13.766 32.729 13.879C32.6817 14.1051 32.6106 14.4256 32.5147 14.8073C32.3234 15.5682 32.0306 16.5829 31.6265 17.579C31.2264 18.5652 30.6981 19.5816 30.0161 20.3084C29.324 21.0459 28.4012 21.551 27.2817 21.2909C26.7368 21.1644 26.312 20.8915 26.0077 20.4978C25.7124 20.1157 25.5583 19.6561 25.4792 19.1919C25.3255 18.2893 25.4318 17.1945 25.5266 16.219L25.5284 16.1997C25.6289 15.165 25.7142 14.265 25.5984 13.5962C25.5424 13.273 25.4478 13.0639 25.3336 12.9328C25.2313 12.8154 25.0748 12.7151 24.7859 12.6811C24.5371 12.6517 24.3432 12.7149 24.1594 12.8611C23.9575 13.0218 23.7556 13.2951 23.5601 13.6991C23.166 14.5136 22.8885 15.6602 22.6125 16.8934C22.5868 17.0083 22.5611 17.124 22.5353 17.2402C22.2931 18.3305 22.042 19.4608 21.697 20.3226C21.5058 20.8003 21.2638 21.255 20.9331 21.5844C20.5821 21.9339 20.1234 22.1462 19.571 22.0841L19.5632 22.0832L19.5554 22.0821C18.9888 22.0031 18.6135 21.6321 18.38 21.1991C18.1548 20.7814 18.0298 20.2553 17.9535 19.712C17.8167 18.737 17.8158 17.521 17.8149 16.3722C17.8148 16.2387 17.8147 16.1062 17.8144 15.975C17.8113 14.6682 17.7862 13.5213 17.591 12.7816C17.4917 12.4055 17.3779 12.257 17.3144 12.2103C17.314 12.21 17.3135 12.2096 17.3129 12.2092M13.226 18.3053C12.9731 19.1688 12.768 20.0578 12.618 20.9278C12.2881 22.8405 12.2357 24.5962 12.4854 25.7583C12.612 26.3476 12.798 26.6963 12.9794 26.8635C13.1133 26.987 13.2865 27.056 13.6194 26.9429C14.1373 26.7669 14.5958 26.1253 14.7588 24.8523C14.916 23.6249 14.7624 22.0033 14.2694 20.2571C13.9533 19.348 13.5928 18.7209 13.226 18.3053Z" fill="white"/>
</svg>
