<svg width="40" height="40" viewBox="0 0 40 40" fill="none" xmlns="http://www.w3.org/2000/svg">
<rect width="40" height="40" rx="20" fill="#0E0033"/>
<path d="M10.4221 24.2648C10.91 23.2668 11.9858 20.3965 10.3118 17.0241C10.2582 16.9158 10.1266 16.8723 10.0183 16.9269C9.45454 17.2073 7.82502 18.3226 6.63477 22.2031C6.63477 22.2031 8.28958 20.9815 10.0314 24.2719C10.1154 24.4298 10.3442 24.4267 10.4221 24.2658V24.2648Z" fill="url(#paint0_linear_210_12095)"/>
<path d="M5.12426 15.735C4.63642 16.7329 3.56054 19.6033 5.23459 22.9757C5.28823 23.084 5.4198 23.1275 5.5281 23.0728C6.09185 22.7925 7.72136 21.6771 8.91161 17.7966C8.91161 17.7966 7.2568 19.0183 5.51494 15.7279C5.43093 15.57 5.2022 15.573 5.12426 15.7339V15.735Z" fill="url(#paint1_linear_210_12095)"/>
<path d="M14.2051 22.8478V17.0352H15.9318L17.5096 22.2496H17.6422V17.0352H18.5309V22.8478H16.8042L15.2263 17.6252H15.0937V22.8478H14.2051Z" fill="#E8E0F1"/>
<path d="M21.2282 22.9635C20.8132 22.9635 20.4499 22.8764 20.1402 22.7023C19.8305 22.5283 19.5876 22.2813 19.4135 21.9635C19.2394 21.6457 19.1523 21.2763 19.1523 20.8552V20.756C19.1523 20.3299 19.2384 19.9575 19.4094 19.6386C19.5805 19.3208 19.8203 19.0739 20.128 18.8998C20.4357 18.7257 20.791 18.6387 21.1948 18.6387C21.5986 18.6387 21.9326 18.7257 22.2282 18.8998C22.5237 19.0739 22.7555 19.3168 22.9215 19.6265C23.0875 19.9362 23.1705 20.2996 23.1705 20.7145V21.0384H20.0238C20.0349 21.3987 20.1554 21.6852 20.3851 21.8977C20.6149 22.1113 20.9013 22.2175 21.2444 22.2175C21.5652 22.2175 21.8071 22.1457 21.9711 22.0019C22.134 21.8582 22.2606 21.6922 22.3486 21.504L23.0541 21.8694C22.9761 22.0242 22.8648 22.1872 22.718 22.3592C22.5713 22.5313 22.379 22.675 22.1411 22.7914C21.9033 22.9078 21.5986 22.9655 21.2282 22.9655V22.9635ZM20.0329 20.3805H22.3C22.2778 20.0708 22.1674 19.8289 21.9681 19.6538C21.7687 19.4797 21.5086 19.3917 21.1877 19.3917C20.8669 19.3917 20.6047 19.4787 20.4033 19.6538C20.2009 19.8279 20.0784 20.0708 20.0339 20.3805H20.0329Z" fill="#E8E0F1"/>
<path d="M23.1719 22.8479L24.7326 20.7802L23.2043 18.7539H24.2094L25.2802 20.2235H25.4128L26.4836 18.7539H27.4967L25.9603 20.7802L27.521 22.8479H26.4998L25.4118 21.3449H25.2792L24.1911 22.8479H23.1699H23.1719Z" fill="#E8E0F1"/>
<path d="M29.6828 22.9645C29.2729 22.9645 28.9096 22.8805 28.5907 22.7114C28.2719 22.5424 28.0219 22.3005 27.8387 21.9847C27.6566 21.669 27.5645 21.2955 27.5645 20.8633V20.7388C27.5645 20.3066 27.6556 19.9352 27.8387 19.6225C28.0219 19.3097 28.2719 19.0678 28.5907 18.8958C28.9086 18.7247 29.2729 18.6387 29.6828 18.6387C30.0927 18.6387 30.4581 18.7247 30.7789 18.8958C31.0998 19.0678 31.3518 19.3097 31.535 19.6225C31.7182 19.9352 31.8093 20.3077 31.8093 20.7388V20.8633C31.8093 21.2955 31.7182 21.669 31.535 21.9847C31.3528 22.3005 31.1008 22.5424 30.7789 22.7114C30.4581 22.8805 30.0927 22.9645 29.6828 22.9645ZM29.6828 22.2003C30.0593 22.2003 30.365 22.0799 30.6008 21.839C30.8356 21.5981 30.9541 21.2651 30.9541 20.838V20.7631C30.9541 20.337 30.8377 20.003 30.6049 19.7621C30.3721 19.5212 30.0654 19.4008 29.6828 19.4008C29.3002 19.4008 29.0088 19.5212 28.7739 19.7621C28.5391 20.003 28.4207 20.337 28.4207 20.7631V20.838C28.4207 21.2641 28.5381 21.5981 28.7739 21.839C29.0088 22.0799 29.3124 22.2003 29.6828 22.2003Z" fill="#E8E0F1"/>
<path d="M32.4541 22.8473V18.7533H33.2932V19.3676H33.4258C33.5037 19.2017 33.6414 19.0468 33.8407 18.9031C34.0401 18.7594 34.3357 18.6875 34.7294 18.6875C35.0391 18.6875 35.3144 18.7573 35.5553 18.895C35.7962 19.0336 35.9854 19.229 36.1241 19.48C36.2627 19.732 36.3316 20.0346 36.3316 20.3889V22.8463H35.4763V20.4547C35.4763 20.1004 35.3873 19.8393 35.2101 19.6703C35.033 19.5012 34.7891 19.4172 34.4794 19.4172C34.1251 19.4172 33.8418 19.5336 33.6282 19.7664C33.4146 19.9992 33.3084 20.3362 33.3084 20.7796V22.8473H32.4531H32.4541Z" fill="#E8E0F1"/>
<defs>
<linearGradient id="paint0_linear_210_12095" x1="8.92418" y1="16.9026" x2="8.92418" y2="24.3873" gradientUnits="userSpaceOnUse">
<stop stop-color="#692AF9"/>
<stop offset="1" stop-color="#AAC5FC"/>
</linearGradient>
<linearGradient id="paint1_linear_210_12095" x1="6.6222" y1="23.0971" x2="6.6222" y2="15.6125" gradientUnits="userSpaceOnUse">
<stop stop-color="#6827F9"/>
<stop offset="1" stop-color="#A8C2FC"/>
</linearGradient>
</defs>
</svg>
