<svg width="40" height="40" viewBox="0 0 40 40" fill="none" xmlns="http://www.w3.org/2000/svg">
<rect width="40" height="40" rx="20" fill="white"/>
<g clip-path="url(#clip0_210_12069)">
<path d="M11.459 23.3998V18.9562H12.3748V19.6266L12.355 20.6005L12.4144 21.5646V23.4047H11.459V23.3998ZM13.4094 22.2742C13.1371 22.2742 12.8945 22.2155 12.6866 22.0932C12.4787 21.9708 12.3154 21.7848 12.1966 21.5353C12.0778 21.2857 12.0233 20.9725 12.0233 20.5907C12.0233 20.2041 12.0778 19.8909 12.1916 19.6413C12.3005 19.3966 12.4639 19.2106 12.6718 19.0883C12.8846 18.966 13.1272 18.9072 13.4143 18.9072C13.7311 18.9072 14.0133 18.9757 14.2608 19.1177C14.5083 19.2596 14.7063 19.4505 14.8499 19.7049C14.9934 19.9545 15.0677 20.2531 15.0677 20.5907C15.0677 20.9333 14.9934 21.2318 14.8499 21.4814C14.7063 21.731 14.5083 21.9268 14.2608 22.0638C14.0034 22.2008 13.7262 22.2742 13.4094 22.2742ZM13.251 21.4961C13.4094 21.4961 13.5529 21.4618 13.6767 21.3884C13.8004 21.315 13.8994 21.2123 13.9786 21.0752C14.0529 20.9382 14.0925 20.7767 14.0925 20.5907C14.0925 20.3999 14.0529 20.2384 13.9786 20.1062C13.9044 19.9741 13.8004 19.8713 13.6767 19.7979C13.5529 19.7294 13.4094 19.6903 13.251 19.6903C13.0926 19.6903 12.949 19.7245 12.8203 19.7979C12.6916 19.8664 12.5926 19.9692 12.5183 20.1062C12.4441 20.2384 12.4045 20.3999 12.4045 20.5907C12.4045 20.7767 12.4441 20.9382 12.5183 21.0752C12.5926 21.2123 12.6965 21.315 12.8203 21.3884C12.944 21.457 13.0876 21.4961 13.251 21.4961Z" fill="#262626"/>
<path d="M17.1369 22.2742C16.7607 22.2742 16.4291 22.2008 16.1469 22.054C15.8647 21.9072 15.6469 21.7065 15.4885 21.4569C15.3351 21.2025 15.2559 20.9137 15.2559 20.5907C15.2559 20.2677 15.3301 19.979 15.4786 19.7245C15.6271 19.47 15.835 19.2694 16.1073 19.1274C16.3746 18.9855 16.6766 18.9121 17.0132 18.9121C17.3349 18.9121 17.627 18.9806 17.8894 19.1177C18.1517 19.2547 18.3547 19.4504 18.5081 19.7C18.6616 19.9496 18.7359 20.253 18.7359 20.6054C18.7359 20.6397 18.7359 20.6837 18.7309 20.7277C18.726 20.7767 18.721 20.8158 18.721 20.8599H16.9983V20.3069H18.2161L17.8399 20.4733C17.8448 20.302 17.8102 20.1552 17.7409 20.0279C17.6716 19.9007 17.5726 19.8028 17.4537 19.7343C17.33 19.6658 17.1864 19.6266 17.0231 19.6266C16.8597 19.6266 16.7162 19.6609 16.5924 19.7343C16.4687 19.8028 16.3697 19.9056 16.3004 20.0328C16.231 20.1601 16.1964 20.3118 16.1964 20.4831V20.6299C16.1964 20.8109 16.236 20.9724 16.3202 21.1046C16.4043 21.2367 16.5132 21.3395 16.6568 21.4129C16.8003 21.4814 16.9736 21.5206 17.1716 21.5206C17.3448 21.5206 17.4983 21.4961 17.627 21.4423C17.7607 21.3884 17.8844 21.3101 17.9933 21.2074L18.5032 21.7555C18.3497 21.9268 18.1616 22.054 17.9339 22.147C17.7013 22.2253 17.4339 22.2742 17.1369 22.2742Z" fill="#262626"/>
<path d="M6.40061 22.2742C6.02439 22.2742 5.69273 22.2008 5.41057 22.054C5.12841 21.9072 4.9106 21.7065 4.75219 21.4569C4.59873 21.2025 4.51953 20.9137 4.51953 20.5907C4.51953 20.2677 4.59378 19.979 4.74229 19.7245C4.8908 19.47 5.0987 19.2694 5.37097 19.1274C5.63828 18.9855 5.94024 18.9121 6.27685 18.9121C6.59862 18.9121 6.89068 18.9806 7.15304 19.1177C7.4154 19.2547 7.61836 19.4504 7.77181 19.7C7.92527 19.9496 7.99952 20.253 7.99952 20.6054C7.99952 20.6397 7.99952 20.6837 7.99457 20.7277C7.98962 20.7767 7.98467 20.8158 7.98467 20.8599H6.262V20.3069H7.47975L7.10354 20.4733C7.10849 20.302 7.07384 20.1552 7.00453 20.0279C6.93523 19.9007 6.83623 19.8028 6.71742 19.7343C6.59367 19.6658 6.45011 19.6266 6.28675 19.6266C6.1234 19.6266 5.97984 19.6609 5.85609 19.7343C5.73233 19.8028 5.63333 19.9056 5.56402 20.0328C5.49472 20.1601 5.46007 20.3118 5.46007 20.4831V20.6299C5.46007 20.8109 5.49967 20.9724 5.58382 21.1046C5.66798 21.2367 5.77688 21.3395 5.92044 21.4129C6.06399 21.4814 6.23725 21.5206 6.43526 21.5206C6.60852 21.5206 6.76197 21.4961 6.89068 21.4423C7.02433 21.3884 7.14809 21.3101 7.25699 21.2074L7.76686 21.7555C7.61341 21.9268 7.4253 22.054 7.19759 22.147C6.96493 22.2253 6.70257 22.2742 6.40061 22.2742Z" fill="#262626"/>
<path d="M24.5686 22.2742C24.1924 22.2742 23.8607 22.2008 23.5785 22.054C23.2964 21.9072 23.0786 21.7065 22.9202 21.4569C22.7667 21.2025 22.6875 20.9137 22.6875 20.5907C22.6875 20.2677 22.7618 19.979 22.9103 19.7245C23.0588 19.47 23.2667 19.2694 23.5389 19.1274C23.8062 18.9855 24.1082 18.9121 24.4448 18.9121C24.7666 18.9121 25.0586 18.9806 25.321 19.1177C25.5834 19.2547 25.7863 19.4504 25.9398 19.7C26.0932 19.9496 26.1675 20.253 26.1675 20.6054C26.1675 20.6397 26.1675 20.6837 26.1625 20.7277C26.1576 20.7767 26.1526 20.8158 26.1526 20.8599H24.43V20.3069H25.6477L25.2715 20.4733C25.2765 20.302 25.2418 20.1552 25.1725 20.0279C25.1032 19.9007 25.0042 19.8028 24.8854 19.7343C24.7616 19.6658 24.6181 19.6266 24.4547 19.6266C24.2914 19.6266 24.1478 19.6609 24.0241 19.7343C23.9003 19.8028 23.8013 19.9056 23.732 20.0328C23.6627 20.1601 23.628 20.3118 23.628 20.4831V20.6299C23.628 20.8109 23.6676 20.9724 23.7518 21.1046C23.8359 21.2367 23.9449 21.3395 24.0884 21.4129C24.232 21.4814 24.4052 21.5206 24.6032 21.5206C24.7765 21.5206 24.9299 21.4961 25.0586 21.4423C25.1923 21.3884 25.3161 21.3101 25.425 21.2074L25.9348 21.7555C25.7814 21.9268 25.5933 22.054 25.3656 22.147C25.1329 22.2253 24.8705 22.2742 24.5686 22.2742Z" fill="#262626"/>
<path d="M20.579 22.275C20.2672 22.275 19.985 22.2065 19.7375 22.0645C19.49 21.9226 19.292 21.7318 19.1484 21.4773C19.0048 21.2277 18.9355 20.9292 18.9355 20.5915C18.9355 20.2489 19.0048 19.9553 19.1484 19.7057C19.292 19.4561 19.49 19.2603 19.7375 19.1184C19.985 18.9765 20.2672 18.908 20.579 18.908C20.8562 18.908 21.0988 18.9667 21.3116 19.089C21.5196 19.2114 21.6829 19.3925 21.7968 19.6421C21.9106 19.8867 21.97 20.2049 21.97 20.5915C21.97 20.9732 21.9156 21.2864 21.8017 21.5409C21.6928 21.7905 21.5344 21.9764 21.3265 22.0988C21.1186 22.2162 20.8711 22.275 20.579 22.275ZM20.7374 21.4968C20.8958 21.4968 21.0394 21.4626 21.1681 21.3892C21.2968 21.3207 21.3958 21.213 21.4701 21.076C21.5443 20.9389 21.5839 20.7774 21.5839 20.5915C21.5839 20.4006 21.5443 20.2391 21.4701 20.107C21.3958 19.9748 21.2918 19.8721 21.1681 19.7987C21.0394 19.7301 20.8958 19.691 20.7374 19.691C20.584 19.691 20.4404 19.7253 20.3117 19.7987C20.183 19.8672 20.084 19.9699 20.0097 20.107C19.9355 20.2391 19.8959 20.4006 19.8959 20.5915C19.8959 20.7774 19.9355 20.9389 20.0097 21.076C20.084 21.213 20.1879 21.3158 20.3117 21.3892C20.4404 21.4626 20.584 21.4968 20.7374 21.4968ZM21.6087 22.226V21.5556L21.6285 20.5817L21.5691 19.6176V17.7188H22.5294V22.226H21.6087Z" fill="#262626"/>
<path d="M32.9087 23.4056C32.7602 23.4056 32.6068 23.3812 32.4582 23.3371C32.3097 23.2882 32.181 23.2246 32.082 23.1414L32.3939 22.5296C32.4582 22.5932 32.5375 22.6373 32.6216 22.6715C32.7058 22.7058 32.7949 22.7205 32.884 22.7205C33.0028 22.7205 33.0968 22.6911 33.1661 22.6373C33.2354 22.5786 33.3047 22.4856 33.3592 22.3583L33.5126 22.0011L33.577 21.9081L34.6462 19.3828H35.468L34.1314 22.4905C34.0374 22.7303 33.9285 22.9162 33.8047 23.0484C33.6809 23.1805 33.5473 23.2735 33.3988 23.3273C33.2503 23.3763 33.0869 23.4056 32.9087 23.4056ZM33.4136 22.4171L32.0969 19.373H32.978L34.0077 21.8298L33.4136 22.4171Z" fill="#262626"/>
<path d="M26.3457 20.3393V22.2185H27.306V20.5791C27.306 20.3784 27.3357 20.2218 27.4001 20.0946C27.4199 20.0554 27.4446 20.0163 27.4694 19.9869L26.3457 20.3393ZM28.9 19.5024L28.1921 19.7422C28.3208 19.7667 28.4198 19.8254 28.499 19.9135C28.6079 20.0408 28.6624 20.2316 28.6624 20.4959V22.2185H29.6227V20.5791C29.6227 20.5644 29.6227 20.5546 29.6227 20.5399L28.9 19.5024ZM31.7513 19.5367C31.7018 19.4437 31.6424 19.3605 31.5731 19.292L30.7514 19.8695C30.7712 19.8842 30.786 19.9037 30.8009 19.9184C30.9098 20.0457 30.9642 20.2365 30.9642 20.5008V22.2234H31.9246V20.354C31.9246 20.0212 31.8652 19.7471 31.7513 19.5367Z" fill="#262626"/>
<path d="M26.3457 20.1328L29.2317 17.8718L30.0584 18.8555L31.2613 18.048L30.9741 17.6564L32.8701 17.5684L32.1275 19.247L31.8454 18.8506L29.7217 20.3383L28.9347 19.198L26.3457 20.1328Z" fill="#A6CBD6"/>
<path d="M11.2523 22.2252L9.97022 20.5515L11.2028 18.9561H10.1781L9.4653 19.9104L8.76732 18.9561H7.69807L8.92077 20.5808L8.91087 20.5906L9.4653 19.9104L9.97022 20.5515L9.44055 21.2219L8.91087 20.5906L7.63867 22.2252H8.69801L9.44055 21.2219L10.1682 22.2252H11.2523Z" fill="#262626"/>
</g>
<defs>
<clipPath id="clip0_210_12069">
<rect width="32" height="6.98182" fill="white" transform="translate(4 16.999)"/>
</clipPath>
</defs>
</svg>
