<svg width="40" height="40" viewBox="0 0 40 40" fill="none" xmlns="http://www.w3.org/2000/svg">
<rect width="40" height="40" rx="20" fill="#12332A"/>
<path d="M16.5666 23.3567V24.927H18.7169V29.0547H11.0528C10.4854 29.0547 10.0215 28.5907 10.0215 28.0233V11.2579C10.0215 10.6905 10.4854 10.2266 11.0528 10.2266H18.7283V14.3463H16.5666V15.9166H14.8314V23.3544H16.5666V23.3567Z" fill="#C3F53C"/>
<path d="M22.3486 15.918H16.5664V23.3557H22.3486V15.918Z" fill="#C3F53C"/>
<path d="M29.0208 11.2576V28.023C29.0208 28.5904 28.5569 29.0543 27.9895 29.0543H20.1855V24.9267H22.3472V23.3563H24.0108V15.9186H22.3472V14.3482H20.1969V10.2285H27.9883C28.5557 10.2285 29.0197 10.6925 29.0197 11.2599L29.0208 11.2576Z" fill="#C3F53C"/>
</svg>
