<svg width="40" height="40" viewBox="0 0 40 40" fill="none" xmlns="http://www.w3.org/2000/svg">
<rect width="40" height="40" rx="20" fill="#090909"/>
<g clip-path="url(#clip0_210_12055)">
<path d="M4.50781 22.6575V17.4297H10.1963V18.3802H5.66872V19.5355H9.77543V20.486H5.66872V21.707H10.1963V22.6575H4.50781Z" fill="white"/>
<path d="M10.8245 22.694V21.7435L14.9965 21.7508C15.2094 21.7508 15.3714 21.7021 15.4827 21.6046C15.5987 21.5022 15.6568 21.3389 15.6568 21.1147C15.6568 20.8905 15.5987 20.7296 15.4827 20.6321C15.3714 20.5298 15.2094 20.4786 14.9965 20.4786H12.399C11.8621 20.4786 11.4437 20.3494 11.1438 20.0911C10.8487 19.8279 10.7012 19.4428 10.7012 18.9358C10.7012 18.4289 10.8487 18.0462 11.1438 17.7879C11.4437 17.5247 11.8621 17.3931 12.399 17.3931H16.4767V18.3436L12.5223 18.3363C12.3144 18.3363 12.1523 18.385 12.0362 18.4825C11.9201 18.5751 11.8621 18.7262 11.8621 18.9358C11.8621 19.1454 11.9201 19.299 12.0362 19.3965C12.1523 19.4891 12.3144 19.5354 12.5223 19.5354H15.1199C15.6568 19.5354 16.0728 19.6694 16.3679 19.9375C16.6678 20.2008 16.8177 20.5931 16.8177 21.1147C16.8177 21.6314 16.6678 22.0238 16.3679 22.2919C16.0728 22.56 15.6568 22.694 15.1199 22.694H10.8245Z" fill="white"/>
<path d="M26.8685 22.6941C25.9108 22.6941 25.1779 22.4723 24.67 22.0288C24.1621 21.5803 23.9082 20.9174 23.9082 20.04C23.9082 19.1674 24.1621 18.507 24.67 18.0585C25.1779 17.6101 25.9108 17.3883 26.8685 17.3931L29.4805 17.4078V18.3437H26.9484C26.3195 18.3437 25.8527 18.4777 25.548 18.7458C25.2432 19.0139 25.0909 19.4453 25.0909 20.04C25.0909 20.6347 25.2432 21.0685 25.548 21.3415C25.8527 21.6095 26.3195 21.7436 26.9484 21.7436H29.5531V22.6941H26.8685Z" fill="white"/>
<path d="M29.8438 22.6575L31.7883 20.0473L29.8438 17.4297H31.2587L32.8186 19.572H33.4862L35.0461 17.4297H36.461L34.5164 20.0473L36.461 22.6575H35.0388L33.4862 20.5225H32.8186L31.2659 22.6575H29.8438Z" fill="white"/>
<path d="M20.1414 22.694C19.2562 22.694 18.5645 22.4722 18.0662 22.0287C17.5729 21.5802 17.3262 20.9173 17.3262 20.0399C17.3262 19.1674 17.5777 18.5093 18.0808 18.0657C18.5887 17.6173 19.3239 17.3931 20.2865 17.3931H23.0437V18.3436H20.3663C19.7326 18.3436 19.2635 18.4776 18.9587 18.7457C18.6588 19.0138 18.5088 19.4452 18.5088 20.0399C18.5088 20.6053 18.6418 21.0245 18.9079 21.2975C19.1739 21.5656 19.5634 21.7118 20.0761 21.7362L21.1644 21.7435H22.1658V20.6541H19.7572V19.7036H23.3267V22.694H20.1414Z" fill="white"/>
</g>
<defs>
<clipPath id="clip0_210_12055">
<rect width="32" height="5.19481" fill="white" transform="translate(4.5 17.4043)"/>
</clipPath>
</defs>
</svg>
