<svg width="320" height="320" viewBox="0 0 320 320" fill="none" xmlns="http://www.w3.org/2000/svg">
<rect width="320" height="320" fill="#090909"/>
<rect width="320" height="320" fill="white" fill-opacity="0.05"/>
<rect x="60.8008" y="19.8401" width="185.6" height="129.92" rx="7.68" fill="white" fill-opacity="0.1"/>
<rect x="67.1992" y="26.24" width="38.4" height="117.12" rx="5.12" fill="white" fill-opacity="0.05"/>
<rect x="69.7598" y="44.1599" width="33.28" height="5.12" rx="2.56" fill="#FED500"/>
<rect x="69.7598" y="51.8401" width="33.28" height="5.12" rx="2.56" fill="white" fill-opacity="0.2"/>
<rect x="69.7598" y="59.52" width="33.28" height="5.12" rx="2.56" fill="white" fill-opacity="0.2"/>
<rect x="69.7598" y="67.2" width="33.28" height="5.12" rx="2.56" fill="white" fill-opacity="0.2"/>
<rect x="69.7598" y="74.8799" width="33.28" height="5.12" rx="2.56" fill="white" fill-opacity="0.2"/>
<rect x="69.7598" y="133.12" width="33.28" height="7.68" rx="3.84" fill="white" fill-opacity="0.1"/>
<circle cx="73.5998" cy="32.64" r="3.84" fill="white" fill-opacity="0.6"/>
<rect x="79.6797" y="31.3601" width="18.56" height="2.56" rx="1.28" fill="white" fill-opacity="0.2"/>
<rect x="110.721" y="26.24" width="129.28" height="15.36" rx="7.68" fill="white" fill-opacity="0.05"/>
<circle cx="232.32" cy="33.9201" r="3.84" fill="white" fill-opacity="0.2"/>
<circle cx="222.08" cy="33.9201" r="3.84" fill="white" fill-opacity="0.2"/>
<circle cx="211.84" cy="33.9201" r="3.84" fill="white" fill-opacity="0.2"/>
<rect x="110.721" y="46.72" width="62.08" height="37.76" rx="5.12" fill="white" fill-opacity="0.05"/>
<rect x="116.48" y="52.48" width="34.56" height="2.56" rx="1.28" fill="white" fill-opacity="0.2"/>
<rect x="116.48" y="56.96" width="20.48" height="2.56" rx="1.28" fill="white" fill-opacity="0.2"/>
<rect x="110.721" y="89.6001" width="62.08" height="37.76" rx="5.12" fill="white" fill-opacity="0.05"/>
<rect x="110.721" y="131.2" width="129.28" height="12.16" rx="5.12" fill="white" fill-opacity="0.05"/>
<rect x="177.92" y="46.72" width="62.08" height="37.76" rx="5.12" fill="white" fill-opacity="0.05"/>
<rect x="183.68" y="52.48" width="24.32" height="2.56" rx="1.28" fill="white" fill-opacity="0.2"/>
<rect x="183.68" y="56.96" width="14.72" height="2.56" rx="1.28" fill="white" fill-opacity="0.2"/>
<rect x="177.92" y="89.6001" width="62.08" height="37.76" rx="5.12" fill="white" fill-opacity="0.05"/>
<rect x="108.801" y="170.24" width="185.6" height="129.92" rx="7.68" fill="white" fill-opacity="0.1"/>
<rect x="225.92" y="197.12" width="62.08" height="79.36" rx="5.12" fill="white" fill-opacity="0.05"/>
<rect x="115.199" y="176.64" width="38.4" height="117.12" rx="5.12" fill="white" fill-opacity="0.05"/>
<rect x="117.76" y="202.24" width="33.28" height="5.12" rx="2.56" fill="#FED500"/>
<rect x="117.76" y="194.56" width="33.28" height="5.12" rx="2.56" fill="white" fill-opacity="0.2"/>
<rect x="117.76" y="209.92" width="33.28" height="5.12" rx="2.56" fill="white" fill-opacity="0.2"/>
<rect x="117.76" y="217.6" width="33.28" height="5.12" rx="2.56" fill="white" fill-opacity="0.2"/>
<rect x="117.76" y="225.28" width="33.28" height="5.12" rx="2.56" fill="white" fill-opacity="0.2"/>
<rect x="117.76" y="283.52" width="33.28" height="7.68" rx="3.84" fill="white" fill-opacity="0.1"/>
<circle cx="121.6" cy="183.04" r="3.84" fill="white" fill-opacity="0.6"/>
<rect x="127.68" y="181.76" width="18.56" height="2.56" rx="1.28" fill="white" fill-opacity="0.2"/>
<rect x="158.721" y="176.64" width="129.28" height="15.36" rx="7.68" fill="white" fill-opacity="0.05"/>
<circle cx="280.32" cy="184.32" r="3.84" fill="white" fill-opacity="0.2"/>
<circle cx="270.08" cy="184.32" r="3.84" fill="white" fill-opacity="0.2"/>
<circle cx="259.84" cy="184.32" r="3.84" fill="white" fill-opacity="0.2"/>
<rect x="158.721" y="281.6" width="129.28" height="12.16" rx="5.12" fill="white" fill-opacity="0.05"/>
<rect x="158.721" y="197.12" width="62.08" height="79.36" rx="5.12" fill="white" fill-opacity="0.05"/>
<rect x="163.84" y="215.04" width="51.84" height="17.92" rx="5.12" fill="white" fill-opacity="0.05"/>
<rect x="231.039" y="215.04" width="51.84" height="17.92" rx="5.12" fill="white" fill-opacity="0.05"/>
<rect x="163.84" y="235.52" width="51.84" height="17.92" rx="5.12" fill="white" fill-opacity="0.05"/>
<rect x="231.039" y="235.52" width="51.84" height="17.92" rx="5.12" fill="white" fill-opacity="0.05"/>
<rect x="163.84" y="256" width="51.84" height="17.92" rx="5.12" fill="white" fill-opacity="0.05"/>
<rect x="231.68" y="202.88" width="24.32" height="2.56" rx="1.28" fill="white" fill-opacity="0.2"/>
<rect x="231.68" y="207.36" width="14.72" height="2.56" rx="1.28" fill="white" fill-opacity="0.2"/>
<rect x="164.48" y="202.88" width="34.56" height="2.56" rx="1.28" fill="white" fill-opacity="0.2"/>
<rect x="164.48" y="207.36" width="20.48" height="2.56" rx="1.28" fill="white" fill-opacity="0.2"/>
<path d="M60.8009 83.3601C60.0009 83.3601 59.3609 84.0001 59.3609 84.8001C59.3609 85.6001 60.0009 86.2401 60.8009 86.2401C61.6009 86.2401 62.2409 85.6001 62.2409 84.8001C62.2409 84.0001 61.6009 83.3601 60.8009 83.3601Z" fill="white"/>
<path d="M59.3609 84.8001C59.3609 84.0001 60.0009 83.3601 60.8009 83.3601C61.6009 83.3601 62.2409 84.0001 62.2409 84.8001C62.2409 85.6001 61.6009 86.2401 60.8009 86.2401C60.0009 86.2401 59.3609 85.6001 59.3609 84.8001ZM59.3609 84.8001H47.3609C43.8263 84.8001 40.9609 87.6655 40.9609 91.2001V228.8C40.9609 232.335 43.8263 235.2 47.3609 235.2H108.801" stroke="#FED500" stroke-width="0.96"/>
</svg>
