<svg width="320" height="320" viewBox="0 0 320 320" fill="none" xmlns="http://www.w3.org/2000/svg">
<rect width="320" height="320" fill="#090909"/>
<rect width="320" height="320" fill="white" fill-opacity="0.05"/>
<g clip-path="url(#clip0_11_54365)">
<rect x="179.199" y="12.8" width="79.36" height="140.8" rx="7.68" fill="white" fill-opacity="0.1"/>
<rect x="185.6" y="19.2" width="66.56" height="37.76" rx="5.12" fill="white" fill-opacity="0.05"/>
<rect x="185.6" y="62.0801" width="34.56" height="2.56" rx="1.28" fill="white" fill-opacity="0.2"/>
<rect x="185.6" y="66.5601" width="20.48" height="2.56" rx="1.28" fill="white" fill-opacity="0.2"/>
<rect x="185.6" y="76.8" width="66.56" height="23.04" rx="5.12" fill="white" fill-opacity="0.05"/>
<rect x="185.6" y="104.96" width="30.72" height="23.04" rx="5.12" fill="white" fill-opacity="0.05"/>
<rect x="185.6" y="133.12" width="30.72" height="23.04" rx="5.12" fill="white" fill-opacity="0.05"/>
<rect x="221.439" y="104.96" width="30.72" height="23.04" rx="5.12" fill="white" fill-opacity="0.05"/>
<rect x="221.439" y="133.12" width="30.72" height="23.04" rx="5.12" fill="white" fill-opacity="0.05"/>
</g>
<g clip-path="url(#clip1_11_54365)">
<rect x="179.199" y="166.4" width="79.36" height="140.8" rx="7.68" fill="white" fill-opacity="0.1"/>
<circle cx="192" cy="225.92" r="6.4" fill="white" fill-opacity="0.6"/>
<circle cx="208.64" cy="225.92" r="6.4" fill="white" fill-opacity="0.2"/>
<circle cx="225.279" cy="225.92" r="6.4" fill="white" fill-opacity="0.2"/>
<circle cx="241.92" cy="225.92" r="6.4" fill="white" fill-opacity="0.2"/>
<circle cx="258.56" cy="225.92" r="6.4" fill="white" fill-opacity="0.2"/>
<rect x="185.6" y="174.08" width="66.56" height="37.76" rx="5.12" fill="white" fill-opacity="0.05"/>
<rect x="185.6" y="242.56" width="66.56" height="23.04" rx="5.12" fill="white" fill-opacity="0.05"/>
<rect x="185.6" y="270.72" width="66.56" height="23.04" rx="5.12" fill="white" fill-opacity="0.05"/>
<rect x="185.6" y="298.88" width="66.56" height="23.04" rx="5.12" fill="white" fill-opacity="0.05"/>
</g>
<g clip-path="url(#clip2_11_54365)">
<rect x="61.4395" y="89.6001" width="79.36" height="140.8" rx="7.68" fill="white" fill-opacity="0.1"/>
<circle cx="74.2398" cy="103.68" r="6.4" fill="white" fill-opacity="0.6"/>
<rect x="84.4805" y="100.16" width="34.56" height="2.56" rx="1.28" fill="white" fill-opacity="0.2"/>
<rect x="84.4805" y="104.64" width="20.48" height="2.56" rx="1.28" fill="white" fill-opacity="0.2"/>
<rect x="67.8398" y="117.76" width="53.76" height="37.76" rx="5.12" fill="white" fill-opacity="0.05"/>
<rect x="126.721" y="117.76" width="40.96" height="37.76" rx="5.12" fill="white" fill-opacity="0.05"/>
<rect x="67.8398" y="163.2" width="66.56" height="23.04" rx="5.12" fill="white" fill-opacity="0.05"/>
<rect x="67.8398" y="191.36" width="66.56" height="23.04" rx="5.12" fill="white" fill-opacity="0.05"/>
<rect x="67.8398" y="219.52" width="66.56" height="23.04" rx="5.12" fill="white" fill-opacity="0.05"/>
</g>
<path d="M179.199 83.2L174.399 80.4287V85.9712L179.199 83.2ZM139.359 160H139.839C139.839 159.465 140.264 159.04 140.799 159.04V158.56V158.08C139.734 158.08 138.879 158.935 138.879 160H139.359ZM140.799 158.56V159.04C141.334 159.04 141.759 159.465 141.759 160H142.239H142.719C142.719 158.935 141.864 158.08 140.799 158.08V158.56ZM142.239 160H141.759C141.759 160.535 141.334 160.96 140.799 160.96V161.44V161.92C141.864 161.92 142.719 161.065 142.719 160H142.239ZM140.799 161.44V160.96C140.264 160.96 139.839 160.535 139.839 160H139.359H138.879C138.879 161.065 139.734 161.92 140.799 161.92V161.44ZM142.239 160V160.48H153.599V160V159.52H142.239V160ZM159.999 153.6H160.479V89.5999H159.999H159.519V153.6H159.999ZM166.399 83.2V83.68H174.879V83.2V82.72H166.399V83.2ZM159.999 89.5999H160.479C160.479 86.3304 163.13 83.68 166.399 83.68V83.2V82.72C162.6 82.72 159.519 85.8002 159.519 89.5999H159.999ZM153.599 160V160.48C157.399 160.48 160.479 157.4 160.479 153.6H159.999H159.519C159.519 156.869 156.869 159.52 153.599 159.52V160Z" fill="#FED500"/>
<path d="M179.199 236.8L174.399 234.029V239.571L179.199 236.8ZM139.359 160H139.839C139.839 159.465 140.264 159.04 140.799 159.04V158.56V158.08C139.734 158.08 138.879 158.935 138.879 160H139.359ZM140.799 158.56V159.04C141.334 159.04 141.759 159.465 141.759 160H142.239H142.719C142.719 158.935 141.864 158.08 140.799 158.08V158.56ZM142.239 160H141.759C141.759 160.535 141.334 160.96 140.799 160.96V161.44V161.92C141.864 161.92 142.719 161.065 142.719 160H142.239ZM140.799 161.44V160.96C140.264 160.96 139.839 160.535 139.839 160H139.359H138.879C138.879 161.065 139.734 161.92 140.799 161.92V161.44ZM142.239 160V160.48H153.599V160V159.52H142.239V160ZM159.999 166.4H159.519V230.4H159.999H160.479V166.4H159.999ZM166.399 236.8V237.28H174.879V236.8V236.32H166.399V236.8ZM159.999 230.4H159.519C159.519 234.2 162.6 237.28 166.399 237.28V236.8V236.32C163.13 236.32 160.479 233.67 160.479 230.4H159.999ZM153.599 160V160.48C156.869 160.48 159.519 163.131 159.519 166.4H159.999H160.479C160.479 162.6 157.399 159.52 153.599 159.52V160Z" fill="#FED500"/>
<defs>
<clipPath id="clip0_11_54365">
<rect x="179.199" y="12.8" width="79.36" height="140.8" rx="7.68" fill="white"/>
</clipPath>
<clipPath id="clip1_11_54365">
<rect x="179.199" y="166.4" width="79.36" height="140.8" rx="7.68" fill="white"/>
</clipPath>
<clipPath id="clip2_11_54365">
<rect x="61.4395" y="89.6001" width="79.36" height="140.8" rx="7.68" fill="white"/>
</clipPath>
</defs>
</svg>
