<svg width="144" height="36" viewBox="0 0 144 36" fill="none" xmlns="http://www.w3.org/2000/svg">
<g clip-path="url(#clip0_11_58658)">
<path d="M59.679 5.56311C57.0135 5.56311 55.103 6.16978 53.49 7.62924L50.6242 10.096C50.3726 10.2963 49.9207 10.4509 49.566 10.1475C49.2114 9.84419 49.1656 9.49506 49.4631 9.0887L51.0246 6.77074C51.2763 6.41589 51.0761 6.01525 50.6242 6.01525H46.952C46.5001 6.01525 46.197 6.3701 46.197 6.77074V29.172C46.197 29.6242 46.5516 29.9275 46.952 29.9275H50.7787C51.2306 29.9275 51.5337 29.5726 51.5337 29.172V16.5405C51.5337 10.7485 56.3614 9.84419 58.2261 9.84419C62.0986 9.84419 63.5114 12.6143 63.5114 14.7262V29.1777C63.5114 29.6299 63.866 29.9332 64.2664 29.9332H68.0931C68.545 29.9332 68.8482 29.5784 68.8482 29.1777V14.2226C68.8482 8.88838 65.3246 5.5116 59.6904 5.5116V5.56311H59.679Z" fill="white" fill-opacity="0.5"/>
<path d="M84.4867 5.46581C77.0392 5.46581 72.3088 9.99872 72.3088 16.1914V19.5625C72.3088 26.0585 77.0392 30.5399 84.4867 30.5399C91.0761 30.5399 95.6578 27.1688 96.1612 22.5329C96.2127 22.0292 95.858 21.7259 95.4061 21.7259H91.6824C91.3278 21.7259 91.0761 21.9262 90.9789 22.2296C90.4755 23.7405 88.2619 26.0585 84.5381 26.0585C80.8144 26.0585 77.3939 23.3914 77.4453 19.5625L77.4968 15.2814C77.5483 12.0591 80.9174 9.89569 84.5439 9.89569C87.8672 9.89569 91.0875 11.7558 91.385 14.8292C91.385 15.1841 91.1848 15.4817 90.8301 15.5847L80.0651 17.6509C79.6132 17.7539 79.3101 18.103 79.3101 18.6067V18.6582C79.3101 19.1103 79.7619 19.4652 80.3683 19.4652H95.818C96.2184 19.4652 96.573 19.1103 96.573 18.7097V15.682C96.573 9.99299 91.6424 5.46008 84.5496 5.46008H84.4867V5.46581Z" fill="white" fill-opacity="0.5"/>
<path d="M111.256 5.46582C105.267 5.46582 100.085 8.93991 100.085 13.5701C100.085 13.9707 100.44 14.2226 100.84 14.2226H104.713C105.113 14.2226 105.365 13.9192 105.416 13.5701C105.817 11.4582 108.333 9.94722 111.102 9.94722C114.374 9.94722 116.587 11.9618 116.587 15.3844V19.5625C116.587 23.8436 113.418 25.9555 109.495 25.9555C106.423 25.9555 104.667 24.7994 104.667 22.9335C104.667 21.3253 105.525 19.9116 109.094 19.1046L114.225 17.6967C114.728 17.5479 114.929 17.1415 114.831 16.6378C114.78 16.2372 114.379 16.0827 113.973 16.0827H108.642C104.112 16.0827 99.5875 18.9501 99.5875 23.1797V23.8321C99.5875 28.1132 103.666 30.3797 108.345 30.3797C111.313 30.3797 113.882 29.2235 115.438 27.9129L117.8 25.8983C118.2 25.5434 118.555 25.5434 118.91 25.8983C119.213 26.2016 119.11 26.6022 118.858 26.9571L117.4 29.2235C117.148 29.5784 117.348 29.979 117.8 29.979H121.272C121.724 29.979 122.027 29.6242 122.027 29.2235V14.7262C122.027 9.18601 118.052 5.51161 111.308 5.51161L111.256 5.46582Z" fill="white" fill-opacity="0.5"/>
<path d="M142.705 6.01526H137.322C135.463 6.01526 133.65 7.17138 132.34 8.28171L130.229 10.096C129.978 10.2963 129.577 10.4509 129.274 10.199C128.92 9.94722 128.771 9.49507 129.074 9.08871L130.636 6.77074C130.887 6.4159 130.687 6.01526 130.235 6.01526H126.614C126.163 6.01526 125.859 6.37011 125.859 6.77074V29.172C125.859 29.6242 126.214 29.9275 126.614 29.9275H130.538C130.99 29.9275 131.293 29.5727 131.293 29.172V17.6967C131.293 12.7631 133.307 10.5482 137.683 10.5482H142.665C143.117 10.5482 143.42 10.1933 143.42 9.79268V6.77074C143.42 6.3186 143.065 6.01526 142.665 6.01526H142.705Z" fill="white" fill-opacity="0.5"/>
<path d="M32.6635 -0.0229525C31.3021 -0.0229525 30.0952 0.681022 29.3916 1.79136L21.8412 12.9634C21.5895 13.3182 21.6925 13.8219 22.0929 14.0737C22.3961 14.274 22.7965 14.274 23.0481 14.0222L30.4956 7.57768C30.5985 7.47466 30.7987 7.47466 30.9475 7.57768C30.9989 7.62919 31.0504 7.72649 31.0504 7.778V27.9185C31.0504 28.0674 30.9017 28.2219 30.7473 28.2219C30.6443 28.2219 30.5985 28.1704 30.4956 28.1189L8.00454 1.2877C7.2495 0.429194 6.1913 -0.0744629 5.08735 -0.0744629H4.28083C2.17015 -0.0744629 0.408386 1.63683 0.408386 3.75447V32.0966C0.408386 34.2085 2.11867 35.9255 4.28083 35.9255C5.64218 35.9255 6.8491 35.2216 7.55266 34.1112L15.0973 22.9335C15.349 22.5786 15.2461 22.075 14.8971 21.8232C14.594 21.6228 14.1936 21.6228 13.9419 21.8747L6.49446 28.3192C6.3915 28.4222 6.1913 28.4222 6.04258 28.3192C5.9911 28.2677 5.93962 28.1704 5.93962 28.1189V7.97832C5.93962 7.82951 6.08834 7.67498 6.24278 7.67498C6.34574 7.67498 6.3915 7.72649 6.49446 7.778L28.9855 34.6149C29.7405 35.4734 30.7987 35.9771 31.9027 35.9771H32.7092C34.8199 35.9771 36.5817 34.2658 36.5817 32.1481V3.80026C36.5817 1.68834 34.8714 -0.0286759 32.7092 -0.0286759H32.6635V-0.0229525Z" fill="white" fill-opacity="0.5"/>
</g>
<defs>
<clipPath id="clip0_11_58658">
<rect width="143" height="36" fill="white" transform="translate(0.408386)"/>
</clipPath>
</defs>
</svg>
