<svg width="30" height="34" viewBox="0 0 30 34" fill="none" xmlns="http://www.w3.org/2000/svg">
<path fill-rule="evenodd" clip-rule="evenodd" d="M15.1021 0.00651599C15.0343 -0.002172 14.9656 -0.002172 14.8978 0.00651599C14.8214 0.0163114 14.7467 0.041034 14.5975 0.0903414L1.13513 4.53905L0.863031 4.63008C0.624717 4.71234 0.48068 4.774 0.367138 4.86765C0.233477 4.9779 0.130471 5.11922 0.0675114 5.27845C-0.0037774 5.45878 -0.00211085 5.67024 0.00123934 6.09311L0.0664918 14.3404L0.0692956 14.5492C0.229076 23.38 6.07264 31.1444 14.6265 33.9204L14.7143 33.9486C14.792 33.9731 14.8432 33.987 14.8996 33.9941C14.9624 34.002 15.0376 34.002 15.1004 33.9941C15.1567 33.987 15.2079 33.9731 15.2856 33.9486L15.3736 33.9204C23.9274 31.1444 29.7709 23.38 29.9307 14.5492L29.9334 14.3404L29.9988 6.09311C30.0021 5.67023 30.0037 5.45879 29.9324 5.27845C29.8694 5.11921 29.7664 4.9779 29.6327 4.86765C29.4814 4.74278 29.2758 4.67488 28.8648 4.53905L15.4024 0.0903414C15.2531 0.0410273 15.1785 0.0163087 15.1021 0.00651599ZM25.3658 14.306C25.3159 20.607 21.5902 26.2277 15.94 28.9002C15.641 29.0416 15.4916 29.1123 15.2814 29.1497C15.2033 29.1636 15.1059 29.1707 15.008 29.1711V4.74241C15.0735 4.74274 15.139 4.74708 15.2041 4.75542C15.3569 4.775 15.5061 4.82432 15.8046 4.92295L23.7002 7.53203C24.3167 7.73577 24.625 7.83764 24.8521 8.02493C25.0526 8.19032 25.2072 8.4022 25.3016 8.64108C25.4086 8.91159 25.4061 9.22877 25.4011 9.86313L25.3658 14.306Z" fill="white"/>
</svg>
