<svg width="40" height="38" viewBox="0 0 40 38" fill="none" xmlns="http://www.w3.org/2000/svg">
<path d="M17.9759 4.56945C18.6112 3.09901 18.9288 2.3638 19.3787 2.14342C19.7691 1.95219 20.2309 1.95219 20.6213 2.14342C21.0712 2.3638 21.3888 3.09901 22.0241 4.56945L25.1935 11.9059C25.3803 12.3383 25.4737 12.5544 25.6242 12.7186C25.7573 12.8638 25.922 12.979 26.1065 13.056C26.3152 13.1431 26.5576 13.1618 27.0424 13.1992L35.2692 13.8342C36.9181 13.9614 37.7425 14.0251 38.0993 14.3689C38.4088 14.6673 38.5515 15.0901 38.4832 15.5067C38.4046 15.9867 37.7764 16.5047 36.5202 17.5408L30.2522 22.7099C29.8828 23.0146 29.6982 23.1669 29.5825 23.3554C29.4802 23.5221 29.4173 23.7085 29.3983 23.9013C29.3767 24.1193 29.4332 24.347 29.546 24.8025L31.461 32.5314C31.8448 34.0805 32.0367 34.855 31.8073 35.2879C31.6082 35.6635 31.2346 35.9249 30.802 35.9911C30.3035 36.0674 29.5976 35.6523 28.186 34.8222L21.1427 30.6804C20.7276 30.4364 20.5201 30.3143 20.2981 30.2667C20.1018 30.2245 19.8982 30.2245 19.7019 30.2667C19.4799 30.3143 19.2724 30.4364 18.8573 30.6804L11.814 34.8222C10.4024 35.6523 9.69655 36.0674 9.19803 35.9911C8.76545 35.9249 8.39183 35.6635 8.19274 35.2879C7.96332 34.855 8.15522 34.0805 8.53903 32.5314L10.454 24.8025C10.5668 24.347 10.6233 24.1193 10.6017 23.9013C10.5827 23.7085 10.5198 23.5221 10.4175 23.3554C10.3018 23.1669 10.1172 23.0146 9.74778 22.7099L3.47984 17.5408C2.22357 16.5047 1.59543 15.9867 1.51676 15.5067C1.44849 15.0901 1.5912 14.6673 1.90074 14.3689C2.25747 14.0251 3.08191 13.9614 4.73078 13.8342L12.9576 13.1992C13.4424 13.1618 13.6848 13.1431 13.8935 13.056C14.078 12.979 14.2427 12.8638 14.3758 12.7186C14.5263 12.5544 14.6197 12.3383 14.8065 11.9059L17.9759 4.56945Z" stroke="white" stroke-width="2.4" stroke-linecap="round" stroke-linejoin="round"/>
</svg>
