<svg width="46" height="38" viewBox="0 0 46 38" fill="none" xmlns="http://www.w3.org/2000/svg">
<path d="M19.0234 29.962C17.5428 29.962 16.3611 28.7891 16.2404 27.3515C15.8985 23.2789 14.7399 23.1758 13.3936 21.5485C11.6887 19.4878 10.6681 16.8672 10.6681 14.0143C10.6681 7.379 16.1893 2 23 2C29.8107 2 35.3319 7.379 35.3319 14.0143C35.3319 16.8672 34.3113 19.4878 32.6064 21.5485C31.2601 23.1758 30.1015 23.2789 29.7596 27.3515C29.639 28.7891 28.4572 29.962 26.9766 29.962M19.0234 29.962V33.2982C19.0234 34.4743 19.0234 33.89 19.2143 34.356C19.4867 35.0214 20.0278 35.5486 20.7108 35.8141C21.1892 36 21.7928 36 23 36C24.2072 36 24.8108 36 25.2892 35.8141C25.9722 35.5486 26.5133 35.0214 26.7857 34.356C26.9766 33.89 26.9766 34.4743 26.9766 33.2982V29.962M19.0234 29.962H26.9766M16 13.1379C16.8986 10.3013 18.682 8.00582 21.7254 7.44978M7.10811 21.1084L4.16057 22.8074M7.10811 8.40032L4.16057 6.70126M5.40541 14.8678H2M38.8919 21.1084L41.8394 22.8074M38.8919 8.40032L41.8394 6.70126M40.5946 14.8678H44" stroke="white" stroke-width="2.4" stroke-linecap="round" stroke-linejoin="round"/>
</svg>
