<svg width="38" height="38" viewBox="0 0 38 38" fill="none" xmlns="http://www.w3.org/2000/svg">
<path d="M32.3765 19C32.3765 26.4735 26.3421 32.532 18.8984 32.532M32.3765 19C32.3765 11.5265 26.3421 5.468 18.8984 5.468M32.3765 19H29.3964M32.3765 19H36M18.8984 32.532C11.4547 32.532 5.42032 26.4735 5.42032 19M18.8984 32.532V29.574M18.8984 32.532V36M5.42032 19C5.42032 11.5265 11.4547 5.468 18.8984 5.468M5.42032 19H8.50199M5.42032 19H2M18.8984 5.468V2M18.8984 5.468V8.528M25.0618 19C25.0618 22.4175 22.3023 25.188 18.8984 25.188C15.4945 25.188 12.7351 22.4175 12.7351 19C12.7351 15.5825 15.4945 12.812 18.8984 12.812C22.3023 12.812 25.0618 15.5825 25.0618 19Z" stroke="white" stroke-width="2.4" stroke-linecap="round" stroke-linejoin="round"/>
</svg>
