<svg width="38" height="38" viewBox="0 0 38 38" fill="none" xmlns="http://www.w3.org/2000/svg">
<path d="M27.4817 29.4645L27.8228 28.314L27.3654 28.1784L26.9397 28.3939L27.4817 29.4645ZM33.84 31.3496L34.1811 30.1991L33.84 31.3496ZM33.6505 23.3941L32.5912 22.8303L32.3506 23.2823L32.5105 23.7687L33.6505 23.3941ZM35.6352 29.4328L36.7752 29.0581H36.7752L35.6352 29.4328ZM35.4342 31.6215L34.9902 30.5067H34.9902L35.4342 31.6215ZM35.9684 31.0512L37.1068 31.4306L35.9684 31.0512ZM8.32117 34.3711L8.86229 33.3L8.43728 33.0853L7.98068 33.2204L8.32117 34.3711ZM3.60285 35.7672L3.26236 34.6166H3.26235L3.60285 35.7672ZM2.47082 24.7533H3.67082H2.47082ZM3.74347 29.875L4.88327 30.2504L5.04372 29.7631L4.80233 29.3104L3.74347 29.875ZM2.2707 34.3476L1.1309 33.9723L1.1309 33.9723L2.2707 34.3476ZM2.41987 35.9687L2.86317 34.8535H2.86317L2.41987 35.9687ZM2.02347 35.5462L3.16168 35.1661L3.16168 35.1661L2.02347 35.5462ZM21.5373 30.954L21.51 29.7543H21.51L21.5373 30.954ZM14.1777 17.6008C13.515 17.6008 12.9777 18.1381 12.9777 18.8008C12.9777 19.4636 13.515 20.0008 14.1777 20.0008V18.8008V17.6008ZM23.4342 20.0008C24.0969 20.0008 24.6342 19.4636 24.6342 18.8008C24.6342 18.1381 24.0969 17.6008 23.4342 17.6008V18.8008V20.0008ZM14.1777 13.0627C13.515 13.0627 12.9777 13.6 12.9777 14.2627C12.9777 14.9255 13.515 15.4627 14.1777 15.4627V14.2627V13.0627ZM28.3968 15.4627C29.0595 15.4627 29.5968 14.9255 29.5968 14.2627C29.5968 13.6 29.0595 13.0627 28.3968 13.0627V14.2627V15.4627ZM21.2169 30.9576V29.7576C14.0914 29.7576 8.26818 23.8387 8.26818 16.4788H7.06818H5.86818C5.86818 25.1117 12.7141 32.1576 21.2169 32.1576V30.9576ZM21.2169 2V3.2C28.3423 3.2 34.1655 9.11888 34.1655 16.4788H35.3655H36.5655C36.5655 7.84589 29.7196 0.8 21.2169 0.8V2ZM27.4817 29.4645L27.1406 30.615L33.4989 32.5001L33.84 31.3496L34.1811 30.1991L27.8228 28.314L27.4817 29.4645ZM35.3655 16.4788H34.1655C34.1655 18.7829 33.5943 20.9457 32.5912 22.8303L33.6505 23.3941L34.7098 23.9579C35.894 21.7329 36.5655 19.1837 36.5655 16.4788H35.3655ZM35.6352 29.4328L36.7752 29.0581L34.7905 23.0194L33.6505 23.3941L32.5105 23.7687L34.4952 29.8075L35.6352 29.4328ZM33.84 31.3496L33.4989 32.5001C33.9106 32.6221 34.3007 32.7391 34.6225 32.8027C34.9305 32.8635 35.3994 32.9271 35.8782 32.7363L35.4342 31.6215L34.9902 30.5067C35.1801 30.431 35.2871 30.4876 35.0877 30.4482C34.9022 30.4115 34.6396 30.335 34.1811 30.1991L33.84 31.3496ZM35.6352 29.4328L34.4952 29.8075C34.6469 30.2691 34.7341 30.538 34.7787 30.7302C34.8264 30.936 34.7711 30.8483 34.8299 30.6717L35.9684 31.0512L37.1068 31.4306C37.2657 30.9538 37.1882 30.4964 37.1166 30.1877C37.0418 29.8655 36.9123 29.4753 36.7752 29.0581L35.6352 29.4328ZM35.4342 31.6215L35.8782 32.7363C36.465 32.5027 36.9101 32.0206 37.1068 31.4306L35.9684 31.0512L34.8299 30.6717C34.8523 30.6046 34.9065 30.54 34.9902 30.5067L35.4342 31.6215ZM8.32117 34.3711L7.78005 35.4421C9.3447 36.2326 11.1079 36.6769 12.9701 36.6769V35.4769V34.2769C11.4938 34.2769 10.1003 33.9255 8.86229 33.3L8.32117 34.3711ZM8.32117 34.3711L7.98068 33.2204L3.26236 34.6166L3.60285 35.7672L3.94334 36.9179L8.66166 35.5218L8.32117 34.3711ZM2.47082 24.7533H1.27082C1.27083 26.8091 1.78226 28.7475 2.68461 30.4397L3.74347 29.875L4.80233 29.3104C4.08161 27.9588 3.67083 26.4074 3.67082 24.7533H2.47082ZM2.2707 34.3476L3.41049 34.7229L4.88327 30.2504L3.74347 29.875L2.60368 29.4997L1.1309 33.9723L2.2707 34.3476ZM3.60285 35.7672L3.26235 34.6166C3.09797 34.6652 2.96752 34.7038 2.85513 34.7349C2.74194 34.7663 2.66788 34.7843 2.61742 34.7942C2.56497 34.8046 2.56831 34.8 2.60502 34.8C2.64793 34.8 2.74433 34.8063 2.86317 34.8535L2.41987 35.9687L1.97656 37.0838C2.4176 37.2591 2.83933 37.1967 3.08174 37.1489C3.33799 37.0984 3.64382 37.0066 3.94334 36.9179L3.60285 35.7672ZM2.2707 34.3476L1.1309 33.9723C1.03107 34.2755 0.929483 34.5803 0.870055 34.8358C0.813766 35.0779 0.738854 35.4879 0.885272 35.9263L2.02347 35.5462L3.16168 35.1661C3.19981 35.2803 3.20112 35.3696 3.19963 35.4059C3.19837 35.4366 3.19481 35.4348 3.20769 35.3794C3.22013 35.3259 3.24143 35.2492 3.2771 35.1345C3.31254 35.0205 3.35599 34.8885 3.41049 34.7229L2.2707 34.3476ZM2.41987 35.9687L2.86317 34.8535C3.01124 34.9124 3.11643 35.0306 3.16168 35.1661L2.02347 35.5462L0.885271 35.9263C1.05986 36.4491 1.45517 36.8765 1.97656 37.0838L2.41987 35.9687ZM12.9701 35.4769V36.6769C16.9228 36.6769 20.4095 34.6791 22.5226 31.6389L21.5373 30.954L20.5519 30.2691C18.8602 32.7029 16.0905 34.2769 12.9701 34.2769V35.4769ZM27.4817 29.4645L26.9397 28.3939C25.2967 29.2255 23.4573 29.71 21.51 29.7543L21.5373 30.954L21.5645 32.1537C23.8793 32.101 26.0696 31.5243 28.0236 30.5352L27.4817 29.4645ZM21.5373 30.954L21.51 29.7543C21.4126 29.7565 21.3149 29.7576 21.2169 29.7576V30.9576V32.1576C21.333 32.1576 21.4489 32.1563 21.5645 32.1537L21.5373 30.954ZM7.08027 15.8746L6.39651 14.8885C3.29944 17.0359 1.27082 20.6572 1.27082 24.7533H2.47082H3.67082C3.67082 21.4636 5.29746 18.571 7.76403 16.8608L7.08027 15.8746ZM7.06818 16.4788H8.26818C8.26818 16.2925 8.27191 16.1071 8.27931 15.9227L7.08027 15.8746L5.88124 15.8265C5.87256 16.0429 5.86818 16.2604 5.86818 16.4788H7.06818ZM7.08027 15.8746L8.27931 15.9227C8.5641 8.82265 14.2716 3.2 21.2169 3.2V2V0.8C12.9295 0.8 6.21546 7.49415 5.88124 15.8265L7.08027 15.8746ZM14.1777 18.8008V20.0008H23.4342V18.8008V17.6008H14.1777V18.8008ZM14.1777 14.2627V15.4627H28.3968V14.2627V13.0627H14.1777V14.2627Z" fill="white"/>
</svg>
