<svg width="136" height="107" viewBox="0 0 136 107" fill="none" xmlns="http://www.w3.org/2000/svg">
<g clip-path="url(#clip0_11_56605)">
<path d="M45.7199 45.3601C42.4096 47.9723 37.7751 49.9315 33.1406 49.9315C22.5475 49.9315 15.2647 42.0947 15.2647 31.6458C15.2647 21.1968 22.5475 14.0131 33.1406 14.0131C37.7751 14.0131 42.4096 15.3192 45.7199 18.5845L47.7061 20.5437L58.2992 10.7478L55.6509 8.78861C49.6923 3.56412 41.7475 0.298828 33.1406 0.298828C14.6027 0.298828 0.699219 14.0131 0.699219 32.2988C0.699219 50.5845 14.6027 64.2988 33.1406 64.2988C41.7475 64.2988 49.6923 61.0335 55.6509 55.809L58.2992 53.8499L47.7061 43.4009L45.7199 45.3601Z" fill="white"/>
<path d="M32.4798 42.7447C38.3302 42.7447 43.0729 38.0665 43.0729 32.2957C43.0729 26.5249 38.3302 21.8467 32.4798 21.8467C26.6294 21.8467 21.8867 26.5249 21.8867 32.2957C21.8867 38.0665 26.6294 42.7447 32.4798 42.7447Z" fill="#FF3E2E"/>
</g>
<path d="M86.0954 49.7818C85.1714 49.7818 84.2544 49.7188 83.3444 49.5928C82.4484 49.4808 81.5804 49.3268 80.7404 49.1308C79.9004 48.9208 79.1094 48.6758 78.3674 48.3958C77.6254 48.1158 76.9464 47.8148 76.3304 47.4928L76.7294 43.2088C77.4854 43.6148 78.2484 43.9788 79.0184 44.3008C79.8024 44.6228 80.5724 44.8958 81.3284 45.1198C82.0984 45.3438 82.8474 45.5118 83.5754 45.6238C84.3034 45.7358 85.0104 45.7918 85.6964 45.7918C87.8804 45.7918 89.4904 45.2808 90.5264 44.2588C91.5764 43.2368 92.1014 41.8088 92.1014 39.9748C92.1014 38.6308 91.8284 37.5458 91.2824 36.7198C90.7504 35.8938 90.0154 35.2988 89.0774 34.9348C88.1394 34.5568 87.0824 34.3678 85.9064 34.3678C84.9124 34.3678 83.9464 34.4938 83.0084 34.7458C82.0704 34.9838 81.0904 35.4318 80.0684 36.0898L78.0524 35.9428V31.3228C78.0524 29.3768 78.0524 27.4938 78.0524 25.6738C78.0524 23.8538 78.0524 22.1178 78.0524 20.4658H95.2304V24.4768C93.5644 24.4768 91.8844 24.4768 90.1904 24.4768C88.4964 24.4768 86.8164 24.4768 85.1504 24.4768H80.9294L82.5464 22.9648C82.5464 24.1548 82.5394 25.3378 82.5254 26.5138C82.5114 27.6898 82.4904 28.8658 82.4624 30.0418V31.7848H82.8614C83.6314 31.3788 84.4434 31.0778 85.2974 30.8818C86.1654 30.6718 87.0544 30.5668 87.9644 30.5668C89.6024 30.5668 91.0934 30.9028 92.4374 31.5748C93.7814 32.2468 94.8524 33.2688 95.6504 34.6408C96.4484 36.0128 96.8474 37.7278 96.8474 39.7858C96.8474 41.7738 96.4484 43.5168 95.6504 45.0148C94.8524 46.5128 93.6554 47.6818 92.0594 48.5218C90.4634 49.3618 88.4754 49.7818 86.0954 49.7818ZM103.316 49.8028C102.658 49.8028 102.091 49.6628 101.615 49.3828C101.139 49.1168 100.768 48.7528 100.502 48.2908C100.25 47.8148 100.124 47.2688 100.124 46.6528C100.124 45.7288 100.411 44.9868 100.985 44.4268C101.573 43.8668 102.357 43.5868 103.337 43.5868C103.995 43.5868 104.562 43.7198 105.038 43.9858C105.514 44.2378 105.878 44.5948 106.13 45.0568C106.382 45.5188 106.508 46.0508 106.508 46.6528C106.508 47.5628 106.228 48.3188 105.668 48.9208C105.108 49.5088 104.324 49.8028 103.316 49.8028ZM121.732 49.7818C119.674 49.7818 117.903 49.4108 116.419 48.6688C114.935 47.9128 113.717 46.8628 112.765 45.5188C111.813 44.1608 111.106 42.5788 110.644 40.7728C110.196 38.9528 109.972 36.9788 109.972 34.8508C109.972 31.8828 110.399 29.2788 111.253 27.0388C112.107 24.7988 113.395 23.0488 115.117 21.7888C116.839 20.5288 119.002 19.8988 121.606 19.8988C123.594 19.8988 125.316 20.2628 126.772 20.9908C128.228 21.7048 129.439 22.7268 130.405 24.0568C131.371 25.3728 132.092 26.9478 132.568 28.7818C133.044 30.6018 133.282 32.6178 133.282 34.8298C133.282 37.8678 132.848 40.5068 131.98 42.7468C131.112 44.9728 129.817 46.7018 128.095 47.9338C126.387 49.1658 124.266 49.7818 121.732 49.7818ZM121.648 45.8338C123.3 45.8338 124.623 45.3578 125.617 44.4058C126.625 43.4398 127.36 42.1308 127.822 40.4788C128.284 38.8268 128.515 36.9438 128.515 34.8298C128.515 32.6038 128.27 30.6718 127.78 29.0338C127.304 27.3958 126.555 26.1288 125.533 25.2328C124.525 24.3228 123.23 23.8678 121.648 23.8678C120.038 23.8678 118.722 24.3368 117.7 25.2748C116.692 26.2128 115.95 27.5078 115.474 29.1598C114.998 30.7978 114.76 32.6878 114.76 34.8298C114.76 36.9718 114.991 38.8688 115.453 40.5208C115.915 42.1728 116.65 43.4748 117.658 44.4268C118.666 45.3648 119.996 45.8338 121.648 45.8338Z" fill="white"/>
<path d="M21.3506 88.6994C21.6162 88.1653 22.3838 88.1653 22.6494 88.6994L25.024 93.4735C25.1295 93.6856 25.3334 93.8326 25.5693 93.8666L30.8791 94.6321C31.4732 94.7178 31.7103 95.4421 31.2805 95.8578L27.4383 99.5739C27.2676 99.739 27.1897 99.9768 27.23 100.21L28.137 105.457C28.2385 106.044 27.6175 106.492 27.0863 106.215L22.337 103.737C22.126 103.627 21.874 103.627 21.663 103.737L16.9137 106.215C16.3825 106.492 15.7615 106.044 15.863 105.457L16.77 100.21C16.8103 99.9768 16.7324 99.739 16.5617 99.5739L12.7195 95.8578C12.2897 95.4421 12.5268 94.7178 13.1208 94.6321L18.4307 93.8666C18.6666 93.8326 18.8705 93.6856 18.976 93.4735L21.3506 88.6994Z" fill="#FED500"/>
<path d="M44.3506 88.6994C44.6162 88.1653 45.3838 88.1653 45.6494 88.6994L48.024 93.4735C48.1295 93.6856 48.3334 93.8326 48.5693 93.8666L53.8791 94.6321C54.4732 94.7178 54.7103 95.4421 54.2805 95.8578L50.4383 99.5739C50.2676 99.739 50.1897 99.9768 50.23 100.21L51.137 105.457C51.2385 106.044 50.6175 106.492 50.0863 106.215L45.337 103.737C45.126 103.627 44.874 103.627 44.663 103.737L39.9137 106.215C39.3825 106.492 38.7615 106.044 38.863 105.457L39.77 100.21C39.8103 99.9768 39.7324 99.739 39.5617 99.5739L35.7195 95.8578C35.2897 95.4421 35.5268 94.7178 36.1208 94.6321L41.4307 93.8666C41.6666 93.8326 41.8705 93.6856 41.976 93.4735L44.3506 88.6994Z" fill="#FED500"/>
<path d="M67.3506 88.6994C67.6162 88.1653 68.3838 88.1653 68.6494 88.6994L71.024 93.4735C71.1295 93.6856 71.3334 93.8326 71.5693 93.8666L76.8791 94.6321C77.4732 94.7178 77.7103 95.4421 77.2805 95.8578L73.4383 99.5739C73.2676 99.739 73.1897 99.9768 73.23 100.21L74.137 105.457C74.2385 106.044 73.6175 106.492 73.0863 106.215L68.337 103.737C68.126 103.627 67.874 103.627 67.663 103.737L62.9137 106.215C62.3825 106.492 61.7615 106.044 61.863 105.457L62.77 100.21C62.8103 99.9768 62.7324 99.739 62.5617 99.5739L58.7195 95.8578C58.2897 95.4421 58.5268 94.7178 59.1208 94.6321L64.4307 93.8666C64.6666 93.8326 64.8705 93.6856 64.976 93.4735L67.3506 88.6994Z" fill="#FED500"/>
<path d="M90.3506 88.6994C90.6162 88.1653 91.3838 88.1653 91.6494 88.6994L94.024 93.4735C94.1295 93.6856 94.3334 93.8326 94.5693 93.8666L99.8791 94.6321C100.473 94.7178 100.71 95.4421 100.281 95.8578L96.4383 99.5739C96.2676 99.739 96.1897 99.9768 96.23 100.21L97.137 105.457C97.2385 106.044 96.6175 106.492 96.0863 106.215L91.337 103.737C91.126 103.627 90.874 103.627 90.663 103.737L85.9137 106.215C85.3825 106.492 84.7615 106.044 84.863 105.457L85.77 100.21C85.8103 99.9768 85.7324 99.739 85.5617 99.5739L81.7195 95.8578C81.2897 95.4421 81.5268 94.7178 82.1208 94.6321L87.4307 93.8666C87.6666 93.8326 87.8705 93.6856 87.976 93.4735L90.3506 88.6994Z" fill="#FED500"/>
<path d="M113.351 88.6994C113.616 88.1653 114.384 88.1653 114.649 88.6994L117.024 93.4735C117.13 93.6856 117.333 93.8326 117.569 93.8666L122.879 94.6321C123.473 94.7178 123.71 95.4421 123.281 95.8578L119.438 99.5739C119.268 99.739 119.19 99.9768 119.23 100.21L120.137 105.457C120.238 106.044 119.618 106.492 119.086 106.215L114.337 103.737C114.126 103.627 113.874 103.627 113.663 103.737L108.914 106.215C108.382 106.492 107.762 106.044 107.863 105.457L108.77 100.21C108.81 99.9768 108.732 99.739 108.562 99.5739L104.719 95.8578C104.29 95.4421 104.527 94.7178 105.121 94.6321L110.431 93.8666C110.667 93.8326 110.87 93.6856 110.976 93.4735L113.351 88.6994Z" fill="#FED500"/>
<defs>
<clipPath id="clip0_11_56605">
<rect width="58" height="64" fill="white" transform="translate(0.5 0.298828)"/>
</clipPath>
</defs>
</svg>
