<svg width="142" height="107" viewBox="0 0 142 107" fill="none" xmlns="http://www.w3.org/2000/svg">
<path d="M27.8469 24.4867C27.8469 24.4867 24.9219 24.1942 24.9219 26.7683V38.2931H44.1104V41.7447C44.1104 41.7447 44.1689 43.4412 42.3553 43.4412H24.9219V58.4176H45.8654C45.8654 58.4176 58.5603 56.4871 58.6773 43.4412V24.4867H27.8469ZM58.0923 6.11719H20.3002C6.61087 9.33478 6.31836 20.5671 6.31836 20.5671V58.4761H20.8268V23.9602C20.8268 21.0351 23.7518 20.5086 23.7518 20.5086H58.0338L58.0923 6.11719Z" fill="#3A7AF3"/>
<path d="M92.0954 49.7818C91.1714 49.7818 90.2544 49.7188 89.3444 49.5928C88.4484 49.4808 87.5804 49.3268 86.7404 49.1308C85.9004 48.9208 85.1094 48.6758 84.3674 48.3958C83.6254 48.1158 82.9464 47.8148 82.3304 47.4928L82.7294 43.2088C83.4854 43.6148 84.2484 43.9788 85.0184 44.3008C85.8024 44.6228 86.5724 44.8958 87.3284 45.1198C88.0984 45.3438 88.8474 45.5118 89.5754 45.6238C90.3034 45.7358 91.0104 45.7918 91.6964 45.7918C93.8804 45.7918 95.4904 45.2808 96.5264 44.2588C97.5764 43.2368 98.1014 41.8088 98.1014 39.9748C98.1014 38.6308 97.8284 37.5458 97.2824 36.7198C96.7504 35.8938 96.0154 35.2988 95.0774 34.9348C94.1394 34.5568 93.0824 34.3678 91.9064 34.3678C90.9124 34.3678 89.9464 34.4938 89.0084 34.7458C88.0704 34.9838 87.0904 35.4318 86.0684 36.0898L84.0524 35.9428V31.3228C84.0524 29.3768 84.0524 27.4938 84.0524 25.6738C84.0524 23.8538 84.0524 22.1178 84.0524 20.4658H101.23V24.4768C99.5644 24.4768 97.8844 24.4768 96.1904 24.4768C94.4964 24.4768 92.8164 24.4768 91.1504 24.4768H86.9294L88.5464 22.9648C88.5464 24.1548 88.5394 25.3378 88.5254 26.5138C88.5114 27.6898 88.4904 28.8658 88.4624 30.0418V31.7848H88.8614C89.6314 31.3788 90.4434 31.0778 91.2974 30.8818C92.1654 30.6718 93.0544 30.5668 93.9644 30.5668C95.6024 30.5668 97.0934 30.9028 98.4374 31.5748C99.7814 32.2468 100.852 33.2688 101.65 34.6408C102.448 36.0128 102.847 37.7278 102.847 39.7858C102.847 41.7738 102.448 43.5168 101.65 45.0148C100.852 46.5128 99.6554 47.6818 98.0594 48.5218C96.4634 49.3618 94.4754 49.7818 92.0954 49.7818ZM109.316 49.8028C108.658 49.8028 108.091 49.6628 107.615 49.3828C107.139 49.1168 106.768 48.7528 106.502 48.2908C106.25 47.8148 106.124 47.2688 106.124 46.6528C106.124 45.7288 106.411 44.9868 106.985 44.4268C107.573 43.8668 108.357 43.5868 109.337 43.5868C109.995 43.5868 110.562 43.7198 111.038 43.9858C111.514 44.2378 111.878 44.5948 112.13 45.0568C112.382 45.5188 112.508 46.0508 112.508 46.6528C112.508 47.5628 112.228 48.3188 111.668 48.9208C111.108 49.5088 110.324 49.8028 109.316 49.8028ZM127.732 49.7818C125.674 49.7818 123.903 49.4108 122.419 48.6688C120.935 47.9128 119.717 46.8628 118.765 45.5188C117.813 44.1608 117.106 42.5788 116.644 40.7728C116.196 38.9528 115.972 36.9788 115.972 34.8508C115.972 31.8828 116.399 29.2788 117.253 27.0388C118.107 24.7988 119.395 23.0488 121.117 21.7888C122.839 20.5288 125.002 19.8988 127.606 19.8988C129.594 19.8988 131.316 20.2628 132.772 20.9908C134.228 21.7048 135.439 22.7268 136.405 24.0568C137.371 25.3728 138.092 26.9478 138.568 28.7818C139.044 30.6018 139.282 32.6178 139.282 34.8298C139.282 37.8678 138.848 40.5068 137.98 42.7468C137.112 44.9728 135.817 46.7018 134.095 47.9338C132.387 49.1658 130.266 49.7818 127.732 49.7818ZM127.648 45.8338C129.3 45.8338 130.623 45.3578 131.617 44.4058C132.625 43.4398 133.36 42.1308 133.822 40.4788C134.284 38.8268 134.515 36.9438 134.515 34.8298C134.515 32.6038 134.27 30.6718 133.78 29.0338C133.304 27.3958 132.555 26.1288 131.533 25.2328C130.525 24.3228 129.23 23.8678 127.648 23.8678C126.038 23.8678 124.722 24.3368 123.7 25.2748C122.692 26.2128 121.95 27.5078 121.474 29.1598C120.998 30.7978 120.76 32.6878 120.76 34.8298C120.76 36.9718 120.991 38.8688 121.453 40.5208C121.915 42.1728 122.65 43.4748 123.658 44.4268C124.666 45.3648 125.996 45.8338 127.648 45.8338Z" fill="white"/>
<path d="M24.3506 88.6994C24.6162 88.1653 25.3838 88.1653 25.6494 88.6994L28.024 93.4735C28.1295 93.6856 28.3334 93.8326 28.5693 93.8666L33.8791 94.6321C34.4732 94.7178 34.7103 95.4421 34.2805 95.8578L30.4383 99.5739C30.2676 99.739 30.1897 99.9768 30.23 100.21L31.137 105.457C31.2385 106.044 30.6175 106.492 30.0863 106.215L25.337 103.737C25.126 103.627 24.874 103.627 24.663 103.737L19.9137 106.215C19.3825 106.492 18.7615 106.044 18.863 105.457L19.77 100.21C19.8103 99.9768 19.7324 99.739 19.5617 99.5739L15.7195 95.8578C15.2897 95.4421 15.5268 94.7178 16.1208 94.6321L21.4307 93.8666C21.6666 93.8326 21.8705 93.6856 21.976 93.4735L24.3506 88.6994Z" fill="#FED500"/>
<path d="M47.3506 88.6994C47.6162 88.1653 48.3838 88.1653 48.6494 88.6994L51.024 93.4735C51.1295 93.6856 51.3334 93.8326 51.5693 93.8666L56.8791 94.6321C57.4732 94.7178 57.7103 95.4421 57.2805 95.8578L53.4383 99.5739C53.2676 99.739 53.1897 99.9768 53.23 100.21L54.137 105.457C54.2385 106.044 53.6175 106.492 53.0863 106.215L48.337 103.737C48.126 103.627 47.874 103.627 47.663 103.737L42.9137 106.215C42.3825 106.492 41.7615 106.044 41.863 105.457L42.77 100.21C42.8103 99.9768 42.7324 99.739 42.5617 99.5739L38.7195 95.8578C38.2897 95.4421 38.5268 94.7178 39.1208 94.6321L44.4307 93.8666C44.6666 93.8326 44.8705 93.6856 44.976 93.4735L47.3506 88.6994Z" fill="#FED500"/>
<path d="M70.3506 88.6994C70.6162 88.1653 71.3838 88.1653 71.6494 88.6994L74.024 93.4735C74.1295 93.6856 74.3334 93.8326 74.5693 93.8666L79.8791 94.6321C80.4732 94.7178 80.7103 95.4421 80.2805 95.8578L76.4383 99.5739C76.2676 99.739 76.1897 99.9768 76.23 100.21L77.137 105.457C77.2385 106.044 76.6175 106.492 76.0863 106.215L71.337 103.737C71.126 103.627 70.874 103.627 70.663 103.737L65.9137 106.215C65.3825 106.492 64.7615 106.044 64.863 105.457L65.77 100.21C65.8103 99.9768 65.7324 99.739 65.5617 99.5739L61.7195 95.8578C61.2897 95.4421 61.5268 94.7178 62.1208 94.6321L67.4307 93.8666C67.6666 93.8326 67.8705 93.6856 67.976 93.4735L70.3506 88.6994Z" fill="#FED500"/>
<path d="M93.3506 88.6994C93.6162 88.1653 94.3838 88.1653 94.6494 88.6994L97.024 93.4735C97.1295 93.6856 97.3334 93.8326 97.5693 93.8666L102.879 94.6321C103.473 94.7178 103.71 95.4421 103.281 95.8578L99.4383 99.5739C99.2676 99.739 99.1897 99.9768 99.23 100.21L100.137 105.457C100.238 106.044 99.6175 106.492 99.0863 106.215L94.337 103.737C94.126 103.627 93.874 103.627 93.663 103.737L88.9137 106.215C88.3825 106.492 87.7615 106.044 87.863 105.457L88.77 100.21C88.8103 99.9768 88.7324 99.739 88.5617 99.5739L84.7195 95.8578C84.2897 95.4421 84.5268 94.7178 85.1208 94.6321L90.4307 93.8666C90.6666 93.8326 90.8705 93.6856 90.976 93.4735L93.3506 88.6994Z" fill="#FED500"/>
<path d="M116.351 88.6994C116.616 88.1653 117.384 88.1653 117.649 88.6994L120.024 93.4735C120.13 93.6856 120.333 93.8326 120.569 93.8666L125.879 94.6321C126.473 94.7178 126.71 95.4421 126.281 95.8578L122.438 99.5739C122.268 99.739 122.19 99.9768 122.23 100.21L123.137 105.457C123.238 106.044 122.618 106.492 122.086 106.215L117.337 103.737C117.126 103.627 116.874 103.627 116.663 103.737L111.914 106.215C111.382 106.492 110.762 106.044 110.863 105.457L111.77 100.21C111.81 99.9768 111.732 99.739 111.562 99.5739L107.719 95.8578C107.29 95.4421 107.527 94.7178 108.121 94.6321L113.431 93.8666C113.667 93.8326 113.87 93.6856 113.976 93.4735L116.351 88.6994Z" fill="#FED500"/>
</svg>
