<svg width="116" height="107" viewBox="0 0 116 107" fill="none" xmlns="http://www.w3.org/2000/svg">
<g clip-path="url(#clip0_11_56634)">
<path d="M19.3844 40.2116C19.2681 40.0952 19.2681 40.2116 19.3844 40.2116L18.8026 39.8625L18.6862 39.7461L4.95533 29.9716C4.95533 29.9716 4.83896 29.9716 4.83896 29.8552L4.60624 29.6225L4.48987 29.5061H4.25714L0.300781 26.7134L8.09714 27.877C8.44624 27.877 8.5626 27.9934 8.91169 28.1097C9.02805 28.1097 9.26078 28.2261 9.26078 28.2261C9.60987 28.3425 9.72624 28.4588 9.95896 28.5752C10.1917 28.6916 10.3081 28.8079 10.5408 28.9243C10.6571 29.0407 10.8899 29.157 10.8899 29.2734C11.0062 29.3897 11.1226 29.3897 11.239 29.5061C11.4717 29.6225 11.5881 29.7388 11.5881 29.8552C11.9371 30.2043 12.1699 30.5534 12.519 30.7861L18.6862 39.5134L18.8026 39.6297L19.3844 40.2116Z" fill="#2AD2FF"/>
<path d="M19.3833 53.7097L18.8015 52.7788L18.6851 52.6625L0.416016 26.7134L4.37238 29.5061L5.07056 29.9716L18.8015 39.7461H18.9178L19.3833 40.0952C19.3833 40.0952 19.4997 40.0952 19.4997 40.2116L20.0815 39.7461L38.5833 26.7134L19.9651 52.7788L19.8487 52.8952L19.3833 53.7097Z" fill="url(#paint0_linear_11_56634)"/>
<path d="M19.3848 35.79L18.803 34.8591L18.6866 34.7428L14.1484 28.4591L18.6866 29.39H18.803L19.3848 29.5064L19.9666 29.39L24.3884 28.3428L19.9666 34.8591V34.9755L19.3848 35.79Z" fill="#2AD2FF"/>
<path d="M38.7011 26.5972L32.8829 27.4117L30.672 27.7608C28.9266 27.9935 27.2975 28.9244 26.2502 30.4372L20.0829 39.2808L19.9666 39.3972L19.3848 40.2117L20.0829 39.5135L20.1993 39.3972L19.3848 40.2117L35.0939 29.0408L38.7011 26.5972Z" fill="#2AD2FF"/>
<path d="M22.2923 8.21189C22.2923 13.3319 13.4487 16.0083 13.4487 21.4773C13.3323 22.7573 13.6814 24.0373 14.2632 25.201C14.2632 25.201 10.8887 21.9428 10.8887 18.4519C10.8887 14.961 14.1469 9.72462 14.1469 9.72462C14.1469 12.0519 15.0778 12.7501 16.0087 12.8664H16.125C17.1723 12.8664 17.7541 12.0519 17.7541 10.8883C17.7541 9.72462 16.4741 8.56098 16.4741 6.23371C16.4741 4.0228 19.2669 0.415527 19.2669 0.415527C21.245 2.7428 22.2923 5.41916 22.2923 8.21189Z" fill="#2AF4FF"/>
<path d="M19.8482 26.8299C17.0555 26.8299 14.9609 24.6189 14.9609 21.9426V21.8262C14.9609 15.8917 23.2228 15.3099 23.2228 7.28076C23.4555 7.62985 25.6664 10.6553 25.6664 13.9135C25.6664 17.9862 21.8264 19.0335 21.8264 21.0117C21.8264 21.8262 22.1755 22.408 23.3391 22.408C23.4555 22.408 23.5718 22.408 23.6882 22.2917C25.8991 21.3608 27.4118 19.2662 27.5282 16.8226C27.5282 16.9389 28.6918 26.8299 19.8482 26.8299Z" fill="#2AF4FF"/>
<path d="M23.4559 22.408C23.5723 22.408 23.6887 22.408 23.805 22.2917C22.6414 22.6408 18.3359 23.688 18.3359 20.6626C18.3359 16.9389 24.7359 16.1244 24.7359 12.9826C24.7359 11.0044 24.2705 9.02622 23.2232 7.28076C23.4559 7.62985 25.6668 10.6553 25.6668 13.9135C25.6668 17.9862 21.8268 19.0335 21.8268 21.0117C21.9432 21.8262 22.4087 22.408 23.4559 22.408Z" fill="#2AD2FF"/>
<path d="M19.9661 10.3064C19.9661 13.2155 16.2425 12.9828 16.0098 12.8664H16.3589C17.4061 12.8664 17.9879 12.0519 17.9879 10.8883C17.9879 9.72462 16.7079 8.56098 16.7079 6.23371C16.7079 4.0228 19.5007 0.415527 19.5007 0.415527C18.5698 1.92825 18.1043 3.55735 17.9879 5.18644C17.9879 7.8628 19.9661 8.09553 19.9661 10.3064Z" fill="#2AD2FF"/>
<path d="M17.6401 61.1573L15.0801 59.4118H18.2219L19.2692 56.27L20.2001 59.4118H23.3419L20.7819 61.1573L21.7128 64.1828L19.1528 62.3209L16.4764 64.1828L17.6401 61.1573Z" fill="#2AD2FF"/>
<path d="M31.0209 61.1573L28.4609 59.4118H31.6028L32.65 56.27L33.5809 59.4118H36.7228L34.1628 61.1573L35.0937 64.1828L32.5337 62.3209L29.8573 64.1828L31.0209 61.1573Z" fill="#2AD2FF"/>
<path d="M4.37445 61.1573L1.81445 59.4118H4.95627L6.00354 56.27L6.93445 59.4118H10.0763L7.51627 61.1573L8.44718 64.1828L5.88718 62.3209L3.32718 64.1828L4.37445 61.1573Z" fill="#2AD2FF"/>
</g>
<path d="M66.2966 49.7818C65.3726 49.7818 64.4556 49.7188 63.5456 49.5928C62.6496 49.4808 61.7816 49.3268 60.9416 49.1308C60.1016 48.9208 59.3106 48.6758 58.5686 48.3958C57.8266 48.1158 57.1476 47.8148 56.5316 47.4928L56.9306 43.2088C57.6866 43.6148 58.4496 43.9788 59.2196 44.3008C60.0036 44.6228 60.7736 44.8958 61.5296 45.1198C62.2996 45.3438 63.0486 45.5118 63.7766 45.6238C64.5046 45.7358 65.2116 45.7918 65.8976 45.7918C68.0816 45.7918 69.6916 45.2808 70.7276 44.2588C71.7776 43.2368 72.3026 41.8088 72.3026 39.9748C72.3026 38.6308 72.0296 37.5458 71.4836 36.7198C70.9516 35.8938 70.2166 35.2988 69.2786 34.9348C68.3406 34.5568 67.2836 34.3678 66.1076 34.3678C65.1136 34.3678 64.1476 34.4938 63.2096 34.7458C62.2716 34.9838 61.2916 35.4318 60.2696 36.0898L58.2536 35.9428V31.3228C58.2536 29.3768 58.2536 27.4938 58.2536 25.6738C58.2536 23.8538 58.2536 22.1178 58.2536 20.4658H75.4316V24.4768C73.7656 24.4768 72.0856 24.4768 70.3916 24.4768C68.6976 24.4768 67.0176 24.4768 65.3516 24.4768H61.1306L62.7476 22.9648C62.7476 24.1548 62.7406 25.3378 62.7266 26.5138C62.7126 27.6898 62.6916 28.8658 62.6636 30.0418V31.7848H63.0626C63.8326 31.3788 64.6446 31.0778 65.4986 30.8818C66.3666 30.6718 67.2556 30.5668 68.1656 30.5668C69.8036 30.5668 71.2946 30.9028 72.6386 31.5748C73.9826 32.2468 75.0536 33.2688 75.8516 34.6408C76.6496 36.0128 77.0486 37.7278 77.0486 39.7858C77.0486 41.7738 76.6496 43.5168 75.8516 45.0148C75.0536 46.5128 73.8566 47.6818 72.2606 48.5218C70.6646 49.3618 68.6766 49.7818 66.2966 49.7818ZM83.5176 49.8028C82.8596 49.8028 82.2926 49.6628 81.8166 49.3828C81.3406 49.1168 80.9696 48.7528 80.7036 48.2908C80.4516 47.8148 80.3256 47.2688 80.3256 46.6528C80.3256 45.7288 80.6126 44.9868 81.1866 44.4268C81.7746 43.8668 82.5586 43.5868 83.5386 43.5868C84.1966 43.5868 84.7636 43.7198 85.2396 43.9858C85.7156 44.2378 86.0796 44.5948 86.3316 45.0568C86.5836 45.5188 86.7096 46.0508 86.7096 46.6528C86.7096 47.5628 86.4296 48.3188 85.8696 48.9208C85.3096 49.5088 84.5256 49.8028 83.5176 49.8028ZM101.933 49.7818C99.8753 49.7818 98.1043 49.4108 96.6203 48.6688C95.1363 47.9128 93.9183 46.8628 92.9663 45.5188C92.0143 44.1608 91.3073 42.5788 90.8453 40.7728C90.3973 38.9528 90.1733 36.9788 90.1733 34.8508C90.1733 31.8828 90.6003 29.2788 91.4543 27.0388C92.3083 24.7988 93.5963 23.0488 95.3183 21.7888C97.0403 20.5288 99.2033 19.8988 101.807 19.8988C103.795 19.8988 105.517 20.2628 106.973 20.9908C108.429 21.7048 109.64 22.7268 110.606 24.0568C111.572 25.3728 112.293 26.9478 112.769 28.7818C113.245 30.6018 113.483 32.6178 113.483 34.8298C113.483 37.8678 113.049 40.5068 112.181 42.7468C111.313 44.9728 110.018 46.7018 108.296 47.9338C106.588 49.1658 104.467 49.7818 101.933 49.7818ZM101.849 45.8338C103.501 45.8338 104.824 45.3578 105.818 44.4058C106.826 43.4398 107.561 42.1308 108.023 40.4788C108.485 38.8268 108.716 36.9438 108.716 34.8298C108.716 32.6038 108.471 30.6718 107.981 29.0338C107.505 27.3958 106.756 26.1288 105.734 25.2328C104.726 24.3228 103.431 23.8678 101.849 23.8678C100.239 23.8678 98.9233 24.3368 97.9013 25.2748C96.8933 26.2128 96.1513 27.5078 95.6753 29.1598C95.1993 30.7978 94.9613 32.6878 94.9613 34.8298C94.9613 36.9718 95.1923 38.8688 95.6543 40.5208C96.1163 42.1728 96.8513 43.4748 97.8593 44.4268C98.8673 45.3648 100.197 45.8338 101.849 45.8338Z" fill="white"/>
<path d="M11.3506 88.6994C11.6162 88.1653 12.3838 88.1653 12.6494 88.6994L15.024 93.4735C15.1295 93.6856 15.3334 93.8326 15.5693 93.8666L20.8791 94.6321C21.4732 94.7178 21.7103 95.4421 21.2805 95.8578L17.4383 99.5739C17.2676 99.739 17.1897 99.9768 17.23 100.21L18.137 105.457C18.2385 106.044 17.6175 106.492 17.0863 106.215L12.337 103.737C12.126 103.627 11.874 103.627 11.663 103.737L6.91374 106.215C6.38245 106.492 5.7615 106.044 5.86297 105.457L6.77 100.21C6.81029 99.9768 6.7324 99.739 6.56172 99.5739L2.71949 95.8578C2.28967 95.4421 2.52685 94.7178 3.12085 94.6321L8.43068 93.8666C8.66656 93.8326 8.87047 93.6856 8.97596 93.4735L11.3506 88.6994Z" fill="#FED500"/>
<path d="M34.3506 88.6994C34.6162 88.1653 35.3838 88.1653 35.6494 88.6994L38.024 93.4735C38.1295 93.6856 38.3334 93.8326 38.5693 93.8666L43.8791 94.6321C44.4732 94.7178 44.7103 95.4421 44.2805 95.8578L40.4383 99.5739C40.2676 99.739 40.1897 99.9768 40.23 100.21L41.137 105.457C41.2385 106.044 40.6175 106.492 40.0863 106.215L35.337 103.737C35.126 103.627 34.874 103.627 34.663 103.737L29.9137 106.215C29.3825 106.492 28.7615 106.044 28.863 105.457L29.77 100.21C29.8103 99.9768 29.7324 99.739 29.5617 99.5739L25.7195 95.8578C25.2897 95.4421 25.5268 94.7178 26.1208 94.6321L31.4307 93.8666C31.6666 93.8326 31.8705 93.6856 31.976 93.4735L34.3506 88.6994Z" fill="#FED500"/>
<path d="M57.3506 88.6994C57.6162 88.1653 58.3838 88.1653 58.6494 88.6994L61.024 93.4735C61.1295 93.6856 61.3334 93.8326 61.5693 93.8666L66.8791 94.6321C67.4732 94.7178 67.7103 95.4421 67.2805 95.8578L63.4383 99.5739C63.2676 99.739 63.1897 99.9768 63.23 100.21L64.137 105.457C64.2385 106.044 63.6175 106.492 63.0863 106.215L58.337 103.737C58.126 103.627 57.874 103.627 57.663 103.737L52.9137 106.215C52.3825 106.492 51.7615 106.044 51.863 105.457L52.77 100.21C52.8103 99.9768 52.7324 99.739 52.5617 99.5739L48.7195 95.8578C48.2897 95.4421 48.5268 94.7178 49.1208 94.6321L54.4307 93.8666C54.6666 93.8326 54.8705 93.6856 54.976 93.4735L57.3506 88.6994Z" fill="#FED500"/>
<path d="M80.3506 88.6994C80.6162 88.1653 81.3838 88.1653 81.6494 88.6994L84.024 93.4735C84.1295 93.6856 84.3334 93.8326 84.5693 93.8666L89.8791 94.6321C90.4732 94.7178 90.7103 95.4421 90.2805 95.8578L86.4383 99.5739C86.2676 99.739 86.1897 99.9768 86.23 100.21L87.137 105.457C87.2385 106.044 86.6175 106.492 86.0863 106.215L81.337 103.737C81.126 103.627 80.874 103.627 80.663 103.737L75.9137 106.215C75.3825 106.492 74.7615 106.044 74.863 105.457L75.77 100.21C75.8103 99.9768 75.7324 99.739 75.5617 99.5739L71.7195 95.8578C71.2897 95.4421 71.5268 94.7178 72.1208 94.6321L77.4307 93.8666C77.6666 93.8326 77.8705 93.6856 77.976 93.4735L80.3506 88.6994Z" fill="#FED500"/>
<path d="M103.351 88.6994C103.616 88.1653 104.384 88.1653 104.649 88.6994L107.024 93.4735C107.13 93.6856 107.333 93.8326 107.569 93.8666L112.879 94.6321C113.473 94.7178 113.71 95.4421 113.281 95.8578L109.438 99.5739C109.268 99.739 109.19 99.9768 109.23 100.21L110.137 105.457C110.238 106.044 109.618 106.492 109.086 106.215L104.337 103.737C104.126 103.627 103.874 103.627 103.663 103.737L98.9137 106.215C98.3825 106.492 97.7615 106.044 97.863 105.457L98.77 100.21C98.8103 99.9768 98.7324 99.739 98.5617 99.5739L94.7195 95.8578C94.2897 95.4421 94.5268 94.7178 95.1208 94.6321L100.431 93.8666C100.667 93.8326 100.87 93.6856 100.976 93.4735L103.351 88.6994Z" fill="#FED500"/>
<defs>
<linearGradient id="paint0_linear_11_56634" x1="0.299652" y1="53.7586" x2="0.299652" y2="39.4761" gradientUnits="userSpaceOnUse">
<stop offset="0.73" stop-color="#2AF4FF"/>
<stop offset="0.884" stop-color="#2AF4FF"/>
</linearGradient>
<clipPath id="clip0_11_56634">
<rect width="38.4" height="64" fill="white" transform="translate(0.300781 0.298828)"/>
</clipPath>
</defs>
</svg>
