<svg width="190" height="107" viewBox="0 0 190 107" fill="none" xmlns="http://www.w3.org/2000/svg">
<g clip-path="url(#clip0_11_56661)">
<path d="M69.4939 13.0608C60.5836 13.1016 53.8078 18.6834 51.2728 27.5772C47.019 21.3775 43.7 14.2865 41.7961 8.29883L32.4163 8.33962L32.5326 31.8804C32.5429 34.1186 31.6142 36.2691 29.9507 37.8592C28.2871 39.4493 26.0249 40.3488 23.6611 40.3602C21.2974 40.3699 19.0263 39.4906 17.347 37.9154C15.6677 36.3402 14.7176 34.1981 14.7057 31.9599L14.5872 8.41915L5.20312 8.45994L5.31943 32.0007C5.36897 41.7694 13.6115 49.511 23.6999 49.464C33.7883 49.4171 41.9598 41.6083 41.9124 31.8375L41.8908 27.8403C43.7819 31.3828 46.1467 35.1475 48.7464 38.4697L43.0108 64.4781L52.6254 64.4373L56.7606 45.5402C60.5233 47.7469 64.7297 49.0582 69.6748 49.0358C79.9958 48.9889 88.402 40.9598 88.3482 30.7424C88.3089 26.0349 86.3045 21.5333 82.7725 18.2202C79.2405 14.9071 74.4677 13.0516 69.496 13.0588L69.4939 13.0608ZM69.6274 39.9339C65.8755 39.9503 62.1171 38.4126 59.0566 35.9816L59.9762 32.4269V32.223C60.6655 28.4419 62.7374 21.9934 69.776 21.9648C72.2578 21.9609 74.6408 22.8853 76.4063 24.5369C78.1718 26.1884 79.177 28.4333 79.2032 30.7832C78.9921 35.8919 74.5574 39.9095 69.6296 39.9319L69.6274 39.9339Z" fill="#6FDA44"/>
</g>
<path d="M112.522 49.7818C111.766 49.7818 111.024 49.7328 110.296 49.6348C109.568 49.5508 108.868 49.4178 108.196 49.2358C107.524 49.0538 106.873 48.8508 106.243 48.6268C105.613 48.3888 105.011 48.1298 104.437 47.8498L104.92 43.5868C105.494 43.9508 106.082 44.2728 106.684 44.5528C107.3 44.8188 107.916 45.0428 108.532 45.2248C109.162 45.4068 109.785 45.5468 110.401 45.6448C111.031 45.7288 111.64 45.7708 112.228 45.7708C114.02 45.7708 115.462 45.3368 116.554 44.4688C117.646 43.6008 118.444 42.3128 118.948 40.6048C119.466 38.8968 119.725 36.7618 119.725 34.1998C119.725 31.8618 119.466 29.9298 118.948 28.4038C118.43 26.8778 117.681 25.7438 116.701 25.0018C115.735 24.2598 114.552 23.8888 113.152 23.8888C111.808 23.8888 110.702 24.1758 109.834 24.7498C108.98 25.3098 108.35 26.0448 107.944 26.9548C107.538 27.8648 107.335 28.8448 107.335 29.8948C107.335 30.9308 107.531 31.8688 107.923 32.7088C108.329 33.5348 108.945 34.1998 109.771 34.7038C110.611 35.1938 111.689 35.4388 113.005 35.4388C113.537 35.4388 114.083 35.3898 114.643 35.2918C115.203 35.1938 115.77 35.0258 116.344 34.7878C116.918 34.5498 117.499 34.2278 118.087 33.8218C118.675 33.4018 119.263 32.8698 119.851 32.2258C120.187 32.7438 120.404 33.1918 120.502 33.5698C120.614 33.9338 120.614 34.3118 120.502 34.7038C120.404 35.0958 120.201 35.5718 119.893 36.1318L119.242 36.0898C118.738 36.5938 118.199 37.0418 117.625 37.4338C117.065 37.8118 116.47 38.1338 115.84 38.3998C115.224 38.6658 114.566 38.8688 113.866 39.0088C113.166 39.1488 112.438 39.2188 111.682 39.2188C109.876 39.2188 108.301 38.8408 106.957 38.0848C105.613 37.3148 104.57 36.2508 103.828 34.8928C103.1 33.5348 102.736 31.9528 102.736 30.1468C102.736 28.3828 103.107 26.7238 103.849 25.1698C104.591 23.6018 105.718 22.3348 107.23 21.3688C108.742 20.3888 110.653 19.8988 112.963 19.8988C115.413 19.8988 117.478 20.4518 119.158 21.5578C120.838 22.6498 122.105 24.2668 122.959 26.4088C123.827 28.5368 124.261 31.1758 124.261 34.3258C124.261 36.9018 123.988 39.1628 123.442 41.1088C122.91 43.0408 122.133 44.6508 121.111 45.9388C120.089 47.2268 118.857 48.1928 117.415 48.8368C115.973 49.4668 114.342 49.7818 112.522 49.7818ZM141.159 49.2988C141.159 47.9408 141.159 46.6528 141.159 45.4348C141.159 44.2028 141.159 42.7748 141.159 41.1508L141.306 40.3948V31.4278C141.306 29.9438 141.306 28.4738 141.306 27.0178C141.306 25.5478 141.306 24.0708 141.306 22.5868L144.708 21.6208C143.938 22.7268 143.182 23.8048 142.44 24.8548C141.698 25.9048 140.956 26.9618 140.214 28.0258L135.321 34.9348C134.677 35.8588 134.033 36.7828 133.389 37.7068C132.759 38.6168 132.108 39.5338 131.436 40.4578L131.289 38.8408H142.335H142.965C143.735 38.8408 144.582 38.8408 145.506 38.8408C146.444 38.8408 147.368 38.8408 148.278 38.8408C149.188 38.8408 149.993 38.8408 150.693 38.8408V42.8518C149.993 42.8518 149.188 42.8518 148.278 42.8518C147.368 42.8518 146.444 42.8518 145.506 42.8518C144.582 42.8518 143.735 42.8518 142.965 42.8518H127.572V39.7228C128.146 38.8968 128.783 37.9868 129.483 36.9928C130.197 35.9988 130.911 34.9978 131.625 33.9898C132.339 32.9678 133.004 32.0298 133.62 31.1758L137.253 26.0308C137.911 25.1068 138.569 24.1828 139.227 23.2588C139.885 22.3208 140.536 21.3898 141.18 20.4658H145.758C145.758 22.2018 145.758 23.9098 145.758 25.5898C145.758 27.2558 145.758 28.9218 145.758 30.5878V41.1508C145.758 42.7748 145.758 44.2028 145.758 45.4348C145.758 46.6528 145.758 47.9408 145.758 49.2988H141.159ZM159.912 49.2988C160.808 47.7588 161.683 46.2468 162.537 44.7628C163.405 43.2648 164.392 41.5638 165.498 39.6598L171.525 29.2438C172.295 27.9278 172.995 26.7238 173.625 25.6318C174.255 24.5398 174.864 23.4898 175.452 22.4818C176.04 21.4598 176.642 20.4168 177.258 19.3528H181.353C180.737 20.4168 180.135 21.4598 179.547 22.4818C178.959 23.4898 178.343 24.5398 177.699 25.6318C177.069 26.7238 176.376 27.9278 175.62 29.2438L169.572 39.6598C168.466 41.5638 167.486 43.2648 166.632 44.7628C165.778 46.2468 164.903 47.7588 164.007 49.2988H159.912ZM161.151 33.8218C159.569 33.8218 158.176 33.5208 156.972 32.9188C155.782 32.3028 154.844 31.4348 154.158 30.3148C153.472 29.1808 153.129 27.8508 153.129 26.3248C153.129 24.8828 153.472 23.5948 154.158 22.4608C154.844 21.3268 155.789 20.4308 156.993 19.7728C158.197 19.1148 159.59 18.7858 161.172 18.7858C162.74 18.7858 164.126 19.1148 165.33 19.7728C166.534 20.4308 167.472 21.3268 168.144 22.4608C168.816 23.5948 169.152 24.8828 169.152 26.3248C169.152 27.8508 168.816 29.1808 168.144 30.3148C167.472 31.4348 166.527 32.3028 165.309 32.9188C164.105 33.5208 162.719 33.8218 161.151 33.8218ZM161.151 30.8398C162.579 30.8398 163.692 30.4408 164.49 29.6428C165.302 28.8448 165.708 27.7458 165.708 26.3458C165.708 25.4638 165.526 24.6798 165.162 23.9938C164.798 23.3078 164.273 22.7688 163.587 22.3768C162.915 21.9848 162.11 21.7888 161.172 21.7888C159.744 21.7888 158.617 22.2158 157.791 23.0698C156.979 23.9098 156.573 25.0018 156.573 26.3458C156.573 27.7458 156.979 28.8448 157.791 29.6428C158.617 30.4408 159.737 30.8398 161.151 30.8398ZM180.135 49.8028C178.567 49.8028 177.181 49.4948 175.977 48.8788C174.773 48.2628 173.828 47.3948 173.142 46.2748C172.47 45.1548 172.134 43.8248 172.134 42.2848C172.134 40.8568 172.47 39.5758 173.142 38.4418C173.828 37.3078 174.773 36.4118 175.977 35.7538C177.195 35.0818 178.595 34.7458 180.177 34.7458C181.745 34.7458 183.124 35.0818 184.314 35.7538C185.518 36.4118 186.456 37.3078 187.128 38.4418C187.814 39.5758 188.157 40.8568 188.157 42.2848C188.157 43.8248 187.814 45.1548 187.128 46.2748C186.456 47.3948 185.518 48.2628 184.314 48.8788C183.11 49.4948 181.717 49.8028 180.135 49.8028ZM180.135 46.8208C181.577 46.8208 182.697 46.4218 183.495 45.6238C184.307 44.8258 184.713 43.7268 184.713 42.3268C184.713 41.4308 184.531 40.6398 184.167 39.9538C183.803 39.2678 183.278 38.7288 182.592 38.3368C181.92 37.9448 181.115 37.7488 180.177 37.7488C178.749 37.7488 177.622 38.1758 176.796 39.0298C175.984 39.8698 175.578 40.9688 175.578 42.3268C175.578 43.7268 175.984 44.8258 176.796 45.6238C177.622 46.4218 178.735 46.8208 180.135 46.8208Z" fill="white"/>
<path d="M48.3506 88.6994C48.6162 88.1653 49.3838 88.1653 49.6494 88.6994L52.024 93.4735C52.1295 93.6856 52.3334 93.8326 52.5693 93.8666L57.8791 94.6321C58.4732 94.7178 58.7103 95.4421 58.2805 95.8578L54.4383 99.5739C54.2676 99.739 54.1897 99.9768 54.23 100.21L55.137 105.457C55.2385 106.044 54.6175 106.492 54.0863 106.215L49.337 103.737C49.126 103.627 48.874 103.627 48.663 103.737L43.9137 106.215C43.3825 106.492 42.7615 106.044 42.863 105.457L43.77 100.21C43.8103 99.9768 43.7324 99.739 43.5617 99.5739L39.7195 95.8578C39.2897 95.4421 39.5268 94.7178 40.1208 94.6321L45.4307 93.8666C45.6666 93.8326 45.8705 93.6856 45.976 93.4735L48.3506 88.6994Z" fill="#FED500"/>
<path d="M71.3506 88.6994C71.6162 88.1653 72.3838 88.1653 72.6494 88.6994L75.024 93.4735C75.1295 93.6856 75.3334 93.8326 75.5693 93.8666L80.8791 94.6321C81.4732 94.7178 81.7103 95.4421 81.2805 95.8578L77.4383 99.5739C77.2676 99.739 77.1897 99.9768 77.23 100.21L78.137 105.457C78.2385 106.044 77.6175 106.492 77.0863 106.215L72.337 103.737C72.126 103.627 71.874 103.627 71.663 103.737L66.9137 106.215C66.3825 106.492 65.7615 106.044 65.863 105.457L66.77 100.21C66.8103 99.9768 66.7324 99.739 66.5617 99.5739L62.7195 95.8578C62.2897 95.4421 62.5268 94.7178 63.1208 94.6321L68.4307 93.8666C68.6666 93.8326 68.8705 93.6856 68.976 93.4735L71.3506 88.6994Z" fill="#FED500"/>
<path d="M94.3506 88.6994C94.6162 88.1653 95.3838 88.1653 95.6494 88.6994L98.024 93.4735C98.1295 93.6856 98.3334 93.8326 98.5693 93.8666L103.879 94.6321C104.473 94.7178 104.71 95.4421 104.281 95.8578L100.438 99.5739C100.268 99.739 100.19 99.9768 100.23 100.21L101.137 105.457C101.238 106.044 100.618 106.492 100.086 106.215L95.337 103.737C95.126 103.627 94.874 103.627 94.663 103.737L89.9137 106.215C89.3825 106.492 88.7615 106.044 88.863 105.457L89.77 100.21C89.8103 99.9768 89.7324 99.739 89.5617 99.5739L85.7195 95.8578C85.2897 95.4421 85.5268 94.7178 86.1208 94.6321L91.4307 93.8666C91.6666 93.8326 91.8705 93.6856 91.976 93.4735L94.3506 88.6994Z" fill="#FED500"/>
<path d="M117.351 88.6994C117.616 88.1653 118.384 88.1653 118.649 88.6994L121.024 93.4735C121.13 93.6856 121.333 93.8326 121.569 93.8666L126.879 94.6321C127.473 94.7178 127.71 95.4421 127.281 95.8578L123.438 99.5739C123.268 99.739 123.19 99.9768 123.23 100.21L124.137 105.457C124.238 106.044 123.618 106.492 123.086 106.215L118.337 103.737C118.126 103.627 117.874 103.627 117.663 103.737L112.914 106.215C112.382 106.492 111.762 106.044 111.863 105.457L112.77 100.21C112.81 99.9768 112.732 99.739 112.562 99.5739L108.719 95.8578C108.29 95.4421 108.527 94.7178 109.121 94.6321L114.431 93.8666C114.667 93.8326 114.87 93.6856 114.976 93.4735L117.351 88.6994Z" fill="#FED500"/>
<path fill-rule="evenodd" clip-rule="evenodd" d="M141 88.2988C140.742 88.2988 140.483 88.4323 140.351 88.6994L137.976 93.4735C137.87 93.6856 137.667 93.8326 137.431 93.8666L132.121 94.6321C131.527 94.7178 131.29 95.4421 131.719 95.8578L135.562 99.5739C135.732 99.739 135.81 99.9768 135.77 100.21L134.863 105.457C134.762 106.044 135.382 106.492 135.914 106.215L140.663 103.737C140.768 103.682 140.884 103.655 141 103.655V88.2988Z" fill="#FED500"/>
<path d="M144.024 93.4735L141.649 88.6994C141.517 88.4323 141.258 88.2988 141 88.2988V103.655C141.116 103.655 141.232 103.682 141.337 103.737L146.086 106.215C146.618 106.492 147.238 106.044 147.137 105.457L146.23 100.21C146.19 99.9768 146.268 99.739 146.438 99.5739L150.281 95.8578C150.71 95.4421 150.473 94.7178 149.879 94.6321L144.569 93.8666C144.333 93.8326 144.13 93.6856 144.024 93.4735Z" fill="#FED500"/>
<defs>
<clipPath id="clip0_11_56661">
<rect width="92.4444" height="64" fill="white" transform="translate(0.277344 0.298828)"/>
</clipPath>
</defs>
</svg>
