<svg width="400" height="400" viewBox="0 0 400 400" fill="none" xmlns="http://www.w3.org/2000/svg">
<g opacity="0.4">
<g filter="url(#filter0_n_11_58591)">
<circle cx="200" cy="200" r="200" fill="url(#paint0_radial_11_58591)"/>
</g>
<circle cx="200" cy="200" r="200" fill="url(#paint1_radial_11_58591)"/>
<mask id="mask0_11_58591" style="mask-type:alpha" maskUnits="userSpaceOnUse" x="0" y="0" width="400" height="400">
<circle cx="200" cy="200" r="200" fill="#D9D9D9"/>
</mask>
<g mask="url(#mask0_11_58591)">
<g filter="url(#filter1_f_11_58591)">
<path d="M421.805 200C421.805 322.499 322.499 421.805 200 421.805C77.5008 421.805 -21.8045 322.499 -21.8045 200C-21.8045 77.5008 77.5008 -21.8045 200 -21.8045C322.499 -21.8045 421.805 77.5008 421.805 200ZM0.375946 200C0.375946 310.249 89.7507 399.624 200 399.624C310.249 399.624 399.624 310.249 399.624 200C399.624 89.7507 310.249 0.375946 200 0.375946C89.7507 0.375946 0.375946 89.7507 0.375946 200Z" fill="url(#paint2_radial_11_58591)"/>
</g>
<g filter="url(#filter2_f_11_58591)">
<path d="M421.805 200C421.805 322.499 322.499 421.805 200 421.805C77.5008 421.805 -21.8045 322.499 -21.8045 200C-21.8045 77.5008 77.5008 -21.8045 200 -21.8045C322.499 -21.8045 421.805 77.5008 421.805 200ZM0.375946 200C0.375946 310.249 89.7507 399.624 200 399.624C310.249 399.624 399.624 310.249 399.624 200C399.624 89.7507 310.249 0.375946 200 0.375946C89.7507 0.375946 0.375946 89.7507 0.375946 200Z" fill="url(#paint3_radial_11_58591)"/>
</g>
<g filter="url(#filter3_f_11_58591)">
<path d="M0.960544 193.984C0.960544 169.042 7.19655 143.322 15.7893 121.428L0.960544 118.459C-9.35196 143.605 -15.0377 171.138 -15.0377 199.999C-15.0377 271.226 19.5915 334.364 72.9322 373.497C25.7368 338.204 0.960544 257.45 0.960544 193.984Z" fill="#FFBD23"/>
</g>
<g filter="url(#filter4_f_11_58591)">
<path d="M-3.97101 196.64C-3.97101 228.031 7.0874 271.428 -0.270351 271.428C-7.6281 271.428 -17.2934 228.031 -17.2934 196.64C-17.2934 165.248 -10.2186 130.826 -2.86081 130.826C4.49693 130.826 -5.45128 164.73 -3.97101 196.64Z" fill="#FEF5D2"/>
</g>
</g>
<circle cx="200" cy="200" r="199.633" stroke="url(#paint4_linear_11_58591)" stroke-width="0.733945"/>
<circle cx="200" cy="200" r="199.633" stroke="url(#paint5_linear_11_58591)" stroke-width="0.733945"/>
<circle cx="200" cy="200" r="199.633" transform="matrix(-1 0 0 1 400 0)" stroke="url(#paint6_linear_11_58591)" stroke-width="0.733945"/>
</g>
<g filter="url(#filter5_n_11_58591)">
<circle cx="200" cy="200" r="155.963" fill="url(#paint7_radial_11_58591)"/>
</g>
<circle cx="200" cy="200" r="155.963" fill="url(#paint8_radial_11_58591)"/>
<mask id="mask1_11_58591" style="mask-type:alpha" maskUnits="userSpaceOnUse" x="44" y="44" width="312" height="312">
<circle cx="200" cy="200.001" r="155.963" fill="#D9D9D9"/>
</mask>
<g mask="url(#mask1_11_58591)">
<g filter="url(#filter6_f_11_58591)">
<path d="M372.966 200C372.966 295.527 295.526 372.967 200 372.967C104.473 372.967 27.033 295.527 27.033 200C27.033 104.473 104.473 27.0334 200 27.0334C295.526 27.0334 372.966 104.473 372.966 200ZM44.3296 200C44.3296 285.974 114.025 355.67 200 355.67C285.974 355.67 355.67 285.974 355.67 200C355.67 114.026 285.974 44.3301 200 44.3301C114.025 44.3301 44.3296 114.026 44.3296 200Z" fill="url(#paint9_radial_11_58591)"/>
</g>
<g filter="url(#filter7_f_11_58591)">
<path d="M372.966 200C372.966 295.527 295.526 372.967 200 372.967C104.473 372.967 27.033 295.527 27.033 200C27.033 104.473 104.473 27.0334 200 27.0334C295.526 27.0334 372.966 104.473 372.966 200ZM44.3296 200C44.3296 285.974 114.025 355.67 200 355.67C285.974 355.67 355.67 285.974 355.67 200C355.67 114.026 285.974 44.3301 200 44.3301C114.025 44.3301 44.3296 114.026 44.3296 200Z" fill="url(#paint10_radial_11_58591)"/>
</g>
<g filter="url(#filter8_f_11_58591)">
<path d="M44.7857 195.31C44.7857 175.86 49.6486 155.803 56.3494 138.73L44.7857 136.414C36.7438 156.024 32.31 177.494 32.31 200.001C32.31 255.544 59.3144 304.781 100.91 335.297C64.1066 307.775 44.7857 244.802 44.7857 195.31Z" fill="#FFBD23"/>
</g>
<g filter="url(#filter9_f_11_58591)">
<path d="M40.9401 197.381C40.9401 221.861 49.5636 255.702 43.8259 255.702C38.0882 255.702 30.5511 221.861 30.5511 197.381C30.5511 172.902 36.0682 146.059 41.8058 146.059C47.5435 146.059 39.7858 172.498 40.9401 197.381Z" fill="#FEF5D2"/>
</g>
</g>
<circle cx="200" cy="200" r="155.596" stroke="url(#paint11_linear_11_58591)" stroke-width="0.733945"/>
<circle cx="200" cy="200" r="155.596" stroke="url(#paint12_linear_11_58591)" stroke-width="0.733945"/>
<circle cx="155.963" cy="155.963" r="155.596" transform="matrix(-1 0 0 1 355.963 44.0373)" stroke="url(#paint13_linear_11_58591)" stroke-width="0.733945"/>
<g filter="url(#filter10_n_11_58591)">
<circle cx="200" cy="200.001" r="111.927" fill="url(#paint14_radial_11_58591)"/>
</g>
<circle cx="200" cy="200.001" r="111.927" fill="url(#paint15_radial_11_58591)"/>
<mask id="mask2_11_58591" style="mask-type:alpha" maskUnits="userSpaceOnUse" x="88" y="88" width="224" height="224">
<path d="M311.926 200.001C311.926 261.816 261.815 311.927 200 311.927C138.184 311.927 88.0732 261.816 88.0732 200.001C88.0732 138.185 138.184 88.0742 200 88.0742C261.815 88.0742 311.926 138.185 311.926 200.001ZM90.5305 200.001C90.5305 260.459 139.542 309.47 200 309.47C260.458 309.47 309.469 260.459 309.469 200.001C309.469 139.543 260.458 90.5315 200 90.5315C139.542 90.5315 90.5305 139.543 90.5305 200.001Z" fill="url(#paint16_linear_11_58591)"/>
</mask>
<g mask="url(#mask2_11_58591)">
<g filter="url(#filter11_f_11_58591)">
<ellipse cx="135.382" cy="165.672" rx="158.659" ry="158.947" fill="#FFFCF2"/>
</g>
<g filter="url(#filter12_f_11_58591)">
<circle cx="289.426" cy="209.232" r="115.388" fill="#FFFCF2"/>
</g>
<g filter="url(#filter13_f_11_58591)">
<circle cx="292.311" cy="124.422" r="69.233" fill="#F6C854"/>
</g>
</g>
<g opacity="0.2" filter="url(#filter14_f_11_58591)">
<path d="M219.351 167.386V162.654C219.351 162.247 219.487 161.852 219.738 161.529L232.22 145.493C233.509 143.837 231.458 141.672 229.705 142.839L210.16 155.855C209.852 156.059 209.491 156.169 209.12 156.17C203.936 156.185 198.345 156.404 196.436 156.664C194.503 156.935 191.236 157.656 189.212 158.287C187.187 158.917 184.288 160.044 182.77 160.81C181.251 161.531 178.766 162.973 177.248 163.964C175.729 165.001 173.291 166.938 171.772 168.29C170.3 169.687 168.183 171.94 167.125 173.292C166.02 174.644 164.318 177.302 163.259 179.15C162.247 180.997 160.867 184.016 160.222 185.819C159.578 187.576 158.75 191.046 158.336 193.434C157.83 196.543 157.692 199.202 157.876 202.356C158.014 204.835 158.474 208.169 158.842 209.791C159.256 211.413 159.992 213.847 160.499 215.199C161.005 216.55 162.293 219.209 163.305 221.056C164.318 222.904 166.02 225.563 167.125 226.914C168.183 228.266 170.3 230.519 171.772 231.916C173.291 233.268 175.729 235.206 177.248 236.242C178.766 237.233 181.251 238.675 182.77 239.396C184.288 240.162 187.187 241.289 189.212 241.92C191.236 242.551 194.503 243.271 196.436 243.542C198.353 243.804 205.453 244.023 224.391 244.037C225.42 244.038 226.254 243.212 226.254 242.194V232.346C226.254 231.334 225.43 230.512 224.408 230.502L211.309 230.383C196.757 230.249 196.521 230.247 192.893 229.077C190.868 228.401 187.647 226.869 185.761 225.653C183.874 224.481 181.067 222.138 179.549 220.516C178.03 218.894 176.005 216.1 175.085 214.252C174.119 212.405 172.923 209.205 172.37 207.088C171.542 203.888 171.404 202.446 171.634 198.526C171.818 195.011 172.232 192.848 173.153 190.19C173.843 188.207 175.407 185.143 176.604 183.431C177.754 181.718 179.871 179.285 181.205 178.023C182.586 176.807 184.932 175.004 186.451 174.103C187.969 173.202 190.868 171.895 192.893 171.264C195.554 170.367 197.347 170.037 203.683 169.928C204.35 169.917 204.974 170.263 205.313 170.832L213.692 184.873C218.569 193.119 222.48 200.013 222.388 200.193C222.303 200.402 220.757 201.384 215.773 204.251C215.038 204.674 214.104 204.549 213.508 203.948L204.397 194.741C198.829 189.153 194.089 184.557 193.813 184.557C193.556 184.557 191.617 186.282 185.721 192.033C184.983 192.753 184.982 193.933 185.718 194.654L198.415 207.088C206.145 214.658 212.587 220.876 212.771 220.921C213.001 220.966 215.44 219.75 218.247 218.218C221.054 216.686 227.312 213.216 232.143 210.467C237.021 207.718 240.978 205.33 240.978 205.06C240.978 204.791 236.196 196.45 219.61 168.323C219.444 168.041 219.351 167.713 219.351 167.386Z" fill="white"/>
<path d="M229.705 142.839L210.511 155.621C209.997 155.963 209.688 156.537 209.688 157.15V162.027H218.435C219.013 162.027 219.558 161.761 219.91 161.308L232.22 145.493C233.509 143.837 231.458 141.672 229.705 142.839Z" fill="#FED500"/>
</g>
<g opacity="0.15" filter="url(#filter15_f_11_58591)">
<path d="M219.351 167.386V162.654C219.351 162.247 219.487 161.852 219.738 161.529L232.22 145.493C233.509 143.837 231.458 141.672 229.705 142.839L210.16 155.855C209.852 156.059 209.491 156.169 209.12 156.17C203.936 156.185 198.345 156.404 196.436 156.664C194.503 156.935 191.236 157.656 189.212 158.287C187.187 158.917 184.288 160.044 182.77 160.81C181.251 161.531 178.766 162.973 177.248 163.964C175.729 165.001 173.291 166.938 171.772 168.29C170.3 169.687 168.183 171.94 167.125 173.292C166.02 174.644 164.318 177.302 163.259 179.15C162.247 180.997 160.867 184.016 160.222 185.819C159.578 187.576 158.75 191.046 158.336 193.434C157.83 196.543 157.692 199.202 157.876 202.356C158.014 204.835 158.474 208.169 158.842 209.791C159.256 211.413 159.992 213.847 160.499 215.199C161.005 216.55 162.293 219.209 163.305 221.056C164.318 222.904 166.02 225.563 167.125 226.914C168.183 228.266 170.3 230.519 171.772 231.916C173.291 233.268 175.729 235.206 177.248 236.242C178.766 237.233 181.251 238.675 182.77 239.396C184.288 240.162 187.187 241.289 189.212 241.92C191.236 242.551 194.503 243.271 196.436 243.542C198.353 243.804 205.453 244.023 224.391 244.037C225.42 244.038 226.254 243.212 226.254 242.194V232.346C226.254 231.334 225.43 230.512 224.408 230.502L211.309 230.383C196.757 230.249 196.521 230.247 192.893 229.077C190.868 228.401 187.647 226.869 185.761 225.653C183.874 224.481 181.067 222.138 179.549 220.516C178.03 218.894 176.005 216.1 175.085 214.252C174.119 212.405 172.923 209.205 172.37 207.088C171.542 203.888 171.404 202.446 171.634 198.526C171.818 195.011 172.232 192.848 173.153 190.19C173.843 188.207 175.407 185.143 176.604 183.431C177.754 181.718 179.871 179.285 181.205 178.023C182.586 176.807 184.932 175.004 186.451 174.103C187.969 173.202 190.868 171.895 192.893 171.264C195.554 170.367 197.347 170.037 203.683 169.928C204.35 169.917 204.974 170.263 205.313 170.832L213.692 184.873C218.569 193.119 222.48 200.013 222.388 200.193C222.303 200.402 220.757 201.384 215.773 204.251C215.038 204.674 214.104 204.549 213.508 203.948L204.397 194.741C198.829 189.153 194.089 184.557 193.813 184.557C193.556 184.557 191.617 186.282 185.721 192.033C184.983 192.753 184.982 193.933 185.718 194.654L198.415 207.088C206.145 214.658 212.587 220.876 212.771 220.921C213.001 220.966 215.44 219.75 218.247 218.218C221.054 216.686 227.312 213.216 232.143 210.467C237.021 207.718 240.978 205.33 240.978 205.06C240.978 204.791 236.196 196.45 219.61 168.323C219.444 168.041 219.351 167.713 219.351 167.386Z" fill="white"/>
<path d="M229.705 142.839L210.511 155.621C209.997 155.963 209.688 156.537 209.688 157.15V162.027H218.435C219.013 162.027 219.558 161.761 219.91 161.308L232.22 145.493C233.509 143.837 231.458 141.672 229.705 142.839Z" fill="#FED500"/>
</g>
<path d="M219.351 167.386V162.654C219.351 162.247 219.487 161.852 219.738 161.529L232.22 145.493C233.509 143.837 231.458 141.672 229.705 142.839L210.16 155.855C209.852 156.059 209.491 156.169 209.12 156.17C203.936 156.185 198.345 156.404 196.436 156.664C194.503 156.935 191.236 157.656 189.212 158.287C187.187 158.917 184.288 160.044 182.77 160.81C181.251 161.531 178.766 162.973 177.248 163.964C175.729 165.001 173.291 166.938 171.772 168.29C170.3 169.687 168.183 171.94 167.125 173.292C166.02 174.644 164.318 177.302 163.259 179.15C162.247 180.997 160.867 184.016 160.222 185.819C159.578 187.576 158.75 191.046 158.336 193.434C157.83 196.543 157.692 199.202 157.876 202.356C158.014 204.835 158.474 208.169 158.842 209.791C159.256 211.413 159.992 213.847 160.499 215.199C161.005 216.55 162.293 219.209 163.305 221.056C164.318 222.904 166.02 225.563 167.125 226.914C168.183 228.266 170.3 230.519 171.772 231.916C173.291 233.268 175.729 235.206 177.248 236.242C178.766 237.233 181.251 238.675 182.77 239.396C184.288 240.162 187.187 241.289 189.212 241.92C191.236 242.551 194.503 243.271 196.436 243.542C198.353 243.804 205.453 244.023 224.391 244.037C225.42 244.038 226.254 243.212 226.254 242.194V232.346C226.254 231.334 225.43 230.512 224.408 230.502L211.309 230.383C196.757 230.249 196.521 230.247 192.893 229.077C190.868 228.401 187.647 226.869 185.761 225.653C183.874 224.481 181.067 222.138 179.549 220.516C178.03 218.894 176.005 216.1 175.085 214.252C174.119 212.405 172.923 209.205 172.37 207.088C171.542 203.888 171.404 202.446 171.634 198.526C171.818 195.011 172.232 192.848 173.153 190.19C173.843 188.207 175.407 185.143 176.604 183.431C177.754 181.718 179.871 179.285 181.205 178.023C182.586 176.807 184.932 175.004 186.451 174.103C187.969 173.202 190.868 171.895 192.893 171.264C195.554 170.367 197.347 170.037 203.683 169.928C204.35 169.917 204.974 170.263 205.313 170.832L213.692 184.873C218.569 193.119 222.48 200.013 222.388 200.193C222.303 200.402 220.757 201.384 215.773 204.251C215.038 204.674 214.104 204.549 213.508 203.948L204.397 194.741C198.829 189.153 194.089 184.557 193.813 184.557C193.556 184.557 191.617 186.282 185.721 192.033C184.983 192.753 184.982 193.933 185.718 194.654L198.415 207.088C206.145 214.658 212.587 220.876 212.771 220.921C213.001 220.966 215.44 219.75 218.247 218.218C221.054 216.686 227.312 213.216 232.143 210.467C237.021 207.718 240.978 205.33 240.978 205.06C240.978 204.791 236.196 196.45 219.61 168.323C219.444 168.041 219.351 167.713 219.351 167.386Z" fill="white"/>
<path d="M229.705 142.839L210.511 155.621C209.997 155.963 209.688 156.537 209.688 157.15V162.027H218.435C219.013 162.027 219.558 161.761 219.91 161.308L232.22 145.493C233.509 143.837 231.458 141.672 229.705 142.839Z" fill="#FED500"/>
<defs>
<filter id="filter0_n_11_58591" x="0" y="0" width="400" height="400" filterUnits="userSpaceOnUse" color-interpolation-filters="sRGB">
<feFlood flood-opacity="0" result="BackgroundImageFix"/>
<feBlend mode="normal" in="SourceGraphic" in2="BackgroundImageFix" result="shape"/>
<feTurbulence type="fractalNoise" baseFrequency="1.8488422632217407 1.8488422632217407" stitchTiles="stitch" numOctaves="3" result="noise" seed="8358" />
<feColorMatrix in="noise" type="luminanceToAlpha" result="alphaNoise" />
<feComponentTransfer in="alphaNoise" result="coloredNoise1">
<feFuncA type="discrete" tableValues="1 1 1 1 1 1 1 1 1 1 1 1 1 1 1 1 1 1 1 1 1 1 1 1 1 1 1 1 1 1 1 1 1 1 1 1 1 1 1 1 1 1 1 1 1 1 1 1 1 1 1 0 0 0 0 0 0 0 0 0 0 0 0 0 0 0 0 0 0 0 0 0 0 0 0 0 0 0 0 0 0 0 0 0 0 0 0 0 0 0 0 0 0 0 0 0 0 0 0 0 "/>
</feComponentTransfer>
<feComposite operator="in" in2="shape" in="coloredNoise1" result="noise1Clipped" />
<feFlood flood-color="rgba(255, 255, 255, 0.05)" result="color1Flood" />
<feComposite operator="in" in2="noise1Clipped" in="color1Flood" result="color1" />
<feMerge result="effect1_noise_11_58591">
<feMergeNode in="shape" />
<feMergeNode in="color1" />
</feMerge>
</filter>
<filter id="filter1_f_11_58591" x="-27.3091" y="-27.3091" width="454.618" height="454.618" filterUnits="userSpaceOnUse" color-interpolation-filters="sRGB">
<feFlood flood-opacity="0" result="BackgroundImageFix"/>
<feBlend mode="normal" in="SourceGraphic" in2="BackgroundImageFix" result="shape"/>
<feGaussianBlur stdDeviation="2.75229" result="effect1_foregroundBlur_11_58591"/>
</filter>
<filter id="filter2_f_11_58591" x="-48.7158" y="-48.7158" width="497.432" height="497.432" filterUnits="userSpaceOnUse" color-interpolation-filters="sRGB">
<feFlood flood-opacity="0" result="BackgroundImageFix"/>
<feBlend mode="normal" in="SourceGraphic" in2="BackgroundImageFix" result="shape"/>
<feGaussianBlur stdDeviation="13.4557" result="effect1_foregroundBlur_11_58591"/>
</filter>
<filter id="filter3_f_11_58591" x="-24.8237" y="108.673" width="107.542" height="274.609" filterUnits="userSpaceOnUse" color-interpolation-filters="sRGB">
<feFlood flood-opacity="0" result="BackgroundImageFix"/>
<feBlend mode="normal" in="SourceGraphic" in2="BackgroundImageFix" result="shape"/>
<feGaussianBlur stdDeviation="4.89297" result="effect1_foregroundBlur_11_58591"/>
</filter>
<filter id="filter4_f_11_58591" x="-33.1955" y="114.924" width="51.3532" height="172.406" filterUnits="userSpaceOnUse" color-interpolation-filters="sRGB">
<feFlood flood-opacity="0" result="BackgroundImageFix"/>
<feBlend mode="normal" in="SourceGraphic" in2="BackgroundImageFix" result="shape"/>
<feGaussianBlur stdDeviation="7.95107" result="effect1_foregroundBlur_11_58591"/>
</filter>
<filter id="filter5_n_11_58591" x="44.0371" y="44.0371" width="311.926" height="311.926" filterUnits="userSpaceOnUse" color-interpolation-filters="sRGB">
<feFlood flood-opacity="0" result="BackgroundImageFix"/>
<feBlend mode="normal" in="SourceGraphic" in2="BackgroundImageFix" result="shape"/>
<feTurbulence type="fractalNoise" baseFrequency="1.8488422632217407 1.8488422632217407" stitchTiles="stitch" numOctaves="3" result="noise" seed="8358" />
<feColorMatrix in="noise" type="luminanceToAlpha" result="alphaNoise" />
<feComponentTransfer in="alphaNoise" result="coloredNoise1">
<feFuncA type="discrete" tableValues="1 1 1 1 1 1 1 1 1 1 1 1 1 1 1 1 1 1 1 1 1 1 1 1 1 1 1 1 1 1 1 1 1 1 1 1 1 1 1 1 1 1 1 1 1 1 1 1 1 1 1 0 0 0 0 0 0 0 0 0 0 0 0 0 0 0 0 0 0 0 0 0 0 0 0 0 0 0 0 0 0 0 0 0 0 0 0 0 0 0 0 0 0 0 0 0 0 0 0 0 "/>
</feComponentTransfer>
<feComposite operator="in" in2="shape" in="coloredNoise1" result="noise1Clipped" />
<feFlood flood-color="rgba(255, 255, 255, 0.05)" result="color1Flood" />
<feComposite operator="in" in2="noise1Clipped" in="color1Flood" result="color1" />
<feMerge result="effect1_noise_11_58591">
<feMergeNode in="shape" />
<feMergeNode in="color1" />
</feMerge>
</filter>
<filter id="filter6_f_11_58591" x="21.5284" y="21.5289" width="356.943" height="356.943" filterUnits="userSpaceOnUse" color-interpolation-filters="sRGB">
<feFlood flood-opacity="0" result="BackgroundImageFix"/>
<feBlend mode="normal" in="SourceGraphic" in2="BackgroundImageFix" result="shape"/>
<feGaussianBlur stdDeviation="2.75229" result="effect1_foregroundBlur_11_58591"/>
</filter>
<filter id="filter7_f_11_58591" x="0.121645" y="0.122133" width="399.756" height="399.756" filterUnits="userSpaceOnUse" color-interpolation-filters="sRGB">
<feFlood flood-opacity="0" result="BackgroundImageFix"/>
<feBlend mode="normal" in="SourceGraphic" in2="BackgroundImageFix" result="shape"/>
<feGaussianBlur stdDeviation="13.4557" result="effect1_foregroundBlur_11_58591"/>
</filter>
<filter id="filter8_f_11_58591" x="22.5241" y="126.628" width="88.1722" height="218.454" filterUnits="userSpaceOnUse" color-interpolation-filters="sRGB">
<feFlood flood-opacity="0" result="BackgroundImageFix"/>
<feBlend mode="normal" in="SourceGraphic" in2="BackgroundImageFix" result="shape"/>
<feGaussianBlur stdDeviation="4.89297" result="effect1_foregroundBlur_11_58591"/>
</filter>
<filter id="filter9_f_11_58591" x="14.6489" y="130.157" width="47.0488" height="141.448" filterUnits="userSpaceOnUse" color-interpolation-filters="sRGB">
<feFlood flood-opacity="0" result="BackgroundImageFix"/>
<feBlend mode="normal" in="SourceGraphic" in2="BackgroundImageFix" result="shape"/>
<feGaussianBlur stdDeviation="7.95107" result="effect1_foregroundBlur_11_58591"/>
</filter>
<filter id="filter10_n_11_58591" x="88.0732" y="88.0742" width="223.853" height="223.853" filterUnits="userSpaceOnUse" color-interpolation-filters="sRGB">
<feFlood flood-opacity="0" result="BackgroundImageFix"/>
<feBlend mode="normal" in="SourceGraphic" in2="BackgroundImageFix" result="shape"/>
<feTurbulence type="fractalNoise" baseFrequency="1.6349999904632568 1.6349999904632568" stitchTiles="stitch" numOctaves="3" result="noise" seed="8358" />
<feColorMatrix in="noise" type="luminanceToAlpha" result="alphaNoise" />
<feComponentTransfer in="alphaNoise" result="coloredNoise1">
<feFuncA type="discrete" tableValues="1 1 1 1 1 1 1 1 1 1 1 1 1 1 1 1 1 1 1 1 1 1 1 1 1 1 1 1 1 1 1 1 1 1 1 1 1 1 1 1 1 1 1 1 1 1 1 1 1 1 1 0 0 0 0 0 0 0 0 0 0 0 0 0 0 0 0 0 0 0 0 0 0 0 0 0 0 0 0 0 0 0 0 0 0 0 0 0 0 0 0 0 0 0 0 0 0 0 0 0 "/>
</feComponentTransfer>
<feComposite operator="in" in2="shape" in="coloredNoise1" result="noise1Clipped" />
<feFlood flood-color="rgba(255, 255, 255, 0.03)" result="color1Flood" />
<feComposite operator="in" in2="noise1Clipped" in="color1Flood" result="color1" />
<feMerge result="effect1_noise_11_58591">
<feMergeNode in="shape" />
<feMergeNode in="color1" />
</feMerge>
</filter>
<filter id="filter11_f_11_58591" x="-115.019" y="-85.0185" width="500.804" height="501.381" filterUnits="userSpaceOnUse" color-interpolation-filters="sRGB">
<feFlood flood-opacity="0" result="BackgroundImageFix"/>
<feBlend mode="normal" in="SourceGraphic" in2="BackgroundImageFix" result="shape"/>
<feGaussianBlur stdDeviation="45.8716" result="effect1_foregroundBlur_11_58591"/>
</filter>
<filter id="filter12_f_11_58591" x="82.2944" y="2.10051" width="414.263" height="414.263" filterUnits="userSpaceOnUse" color-interpolation-filters="sRGB">
<feFlood flood-opacity="0" result="BackgroundImageFix"/>
<feBlend mode="normal" in="SourceGraphic" in2="BackgroundImageFix" result="shape"/>
<feGaussianBlur stdDeviation="45.8716" result="effect1_foregroundBlur_11_58591"/>
</filter>
<filter id="filter13_f_11_58591" x="161.916" y="-5.97263" width="260.79" height="260.79" filterUnits="userSpaceOnUse" color-interpolation-filters="sRGB">
<feFlood flood-opacity="0" result="BackgroundImageFix"/>
<feBlend mode="normal" in="SourceGraphic" in2="BackgroundImageFix" result="shape"/>
<feGaussianBlur stdDeviation="30.581" result="effect1_foregroundBlur_11_58591"/>
</filter>
<filter id="filter14_f_11_58591" x="127.217" y="111.927" width="144.342" height="162.691" filterUnits="userSpaceOnUse" color-interpolation-filters="sRGB">
<feFlood flood-opacity="0" result="BackgroundImageFix"/>
<feBlend mode="normal" in="SourceGraphic" in2="BackgroundImageFix" result="shape"/>
<feGaussianBlur stdDeviation="15.2905" result="effect1_foregroundBlur_11_58591"/>
</filter>
<filter id="filter15_f_11_58591" x="151.682" y="136.392" width="95.4128" height="113.761" filterUnits="userSpaceOnUse" color-interpolation-filters="sRGB">
<feFlood flood-opacity="0" result="BackgroundImageFix"/>
<feBlend mode="normal" in="SourceGraphic" in2="BackgroundImageFix" result="shape"/>
<feGaussianBlur stdDeviation="3.0581" result="effect1_foregroundBlur_11_58591"/>
</filter>
<radialGradient id="paint0_radial_11_58591" cx="0" cy="0" r="1" gradientUnits="userSpaceOnUse" gradientTransform="translate(200 200) rotate(90) scale(200)">
<stop stop-color="#0B0B0B"/>
<stop offset="1" stop-color="#100C05"/>
</radialGradient>
<radialGradient id="paint1_radial_11_58591" cx="0" cy="0" r="1" gradientUnits="userSpaceOnUse" gradientTransform="translate(200 200) rotate(90) scale(200)">
<stop offset="0.9" stop-color="#0B0B0B"/>
<stop offset="1" stop-color="#0B0B0B" stop-opacity="0"/>
</radialGradient>
<radialGradient id="paint2_radial_11_58591" cx="0" cy="0" r="1" gradientUnits="userSpaceOnUse" gradientTransform="translate(200 200) rotate(90) scale(221.805)">
<stop stop-color="#FFAB00" stop-opacity="0"/>
<stop offset="1" stop-color="white"/>
</radialGradient>
<radialGradient id="paint3_radial_11_58591" cx="0" cy="0" r="1" gradientUnits="userSpaceOnUse" gradientTransform="translate(200 200) rotate(90) scale(221.805)">
<stop stop-color="#FFAB00" stop-opacity="0"/>
<stop offset="1" stop-color="#FFB500"/>
</radialGradient>
<linearGradient id="paint4_linear_11_58591" x1="219.925" y1="-45.8646" x2="219.925" y2="192.105" gradientUnits="userSpaceOnUse">
<stop stop-color="#FFF6D4"/>
<stop offset="1" stop-color="#FFF6D4" stop-opacity="0"/>
</linearGradient>
<linearGradient id="paint5_linear_11_58591" x1="408.271" y1="200" x2="353.383" y2="160.15" gradientUnits="userSpaceOnUse">
<stop stop-color="#FFF6D4"/>
<stop offset="1" stop-color="#FFF6D4" stop-opacity="0"/>
</linearGradient>
<linearGradient id="paint6_linear_11_58591" x1="408.271" y1="200" x2="353.383" y2="160.15" gradientUnits="userSpaceOnUse">
<stop stop-color="#FFF6D4"/>
<stop offset="1" stop-color="#FFF6D4" stop-opacity="0"/>
</linearGradient>
<radialGradient id="paint7_radial_11_58591" cx="0" cy="0" r="1" gradientUnits="userSpaceOnUse" gradientTransform="translate(200 200) rotate(90) scale(155.963)">
<stop stop-color="#0B0B0B"/>
<stop offset="1" stop-color="#100C05"/>
</radialGradient>
<radialGradient id="paint8_radial_11_58591" cx="0" cy="0" r="1" gradientUnits="userSpaceOnUse" gradientTransform="translate(200 200) rotate(90) scale(155.963)">
<stop offset="0.9" stop-color="#0B0B0B"/>
<stop offset="1" stop-color="#0B0B0B" stop-opacity="0"/>
</radialGradient>
<radialGradient id="paint9_radial_11_58591" cx="0" cy="0" r="1" gradientUnits="userSpaceOnUse" gradientTransform="translate(200 200) rotate(90) scale(172.967)">
<stop stop-color="#FFAB00" stop-opacity="0"/>
<stop offset="1" stop-color="white"/>
</radialGradient>
<radialGradient id="paint10_radial_11_58591" cx="0" cy="0" r="1" gradientUnits="userSpaceOnUse" gradientTransform="translate(200 200) rotate(90) scale(172.967)">
<stop stop-color="#FFAB00" stop-opacity="0"/>
<stop offset="1" stop-color="#FFB500"/>
</radialGradient>
<linearGradient id="paint11_linear_11_58591" x1="215.537" y1="8.27115" x2="215.537" y2="193.844" gradientUnits="userSpaceOnUse">
<stop stop-color="#FFF6D4"/>
<stop offset="1" stop-color="#FFF6D4" stop-opacity="0"/>
</linearGradient>
<linearGradient id="paint12_linear_11_58591" x1="362.413" y1="200" x2="319.611" y2="168.925" gradientUnits="userSpaceOnUse">
<stop stop-color="#FFF6D4"/>
<stop offset="1" stop-color="#FFF6D4" stop-opacity="0"/>
</linearGradient>
<linearGradient id="paint13_linear_11_58591" x1="318.376" y1="155.963" x2="275.574" y2="124.888" gradientUnits="userSpaceOnUse">
<stop stop-color="#FFF6D4"/>
<stop offset="1" stop-color="#FFF6D4" stop-opacity="0"/>
</linearGradient>
<radialGradient id="paint14_radial_11_58591" cx="0" cy="0" r="1" gradientUnits="userSpaceOnUse" gradientTransform="translate(200 200.001) rotate(90) scale(111.927)">
<stop stop-color="#0B0B0B"/>
<stop offset="1" stop-color="#100C05"/>
</radialGradient>
<radialGradient id="paint15_radial_11_58591" cx="0" cy="0" r="1" gradientUnits="userSpaceOnUse" gradientTransform="translate(200 200.001) rotate(90) scale(111.927)">
<stop offset="0.5" stop-color="#0B0B0B"/>
<stop offset="1" stop-color="#0B0B0B" stop-opacity="0"/>
</radialGradient>
<linearGradient id="paint16_linear_11_58591" x1="200" y1="152.98" x2="200" y2="260.58" gradientUnits="userSpaceOnUse">
<stop stop-color="#0B0B0B"/>
<stop offset="1" stop-color="#0B0B0B" stop-opacity="0"/>
</linearGradient>
</defs>
</svg>
