<svg width="29" height="28" viewBox="0 0 29 28" fill="none" xmlns="http://www.w3.org/2000/svg">
<path d="M10.645 17.0515H5.41943C2.92336 17.0515 0.899902 15.0515 0.899902 12.5844C0.899902 10.1173 2.92336 8.11726 5.41943 8.11726H6.56631C6.56631 5.56398 8.66043 3.49414 11.2437 3.49414H12.3422L12.7738 3.00737C13.8809 1.75856 15.4499 1.00259 17.1271 0.909767C20.7124 0.711353 23.7298 3.53144 23.7298 7.08067V7.86199C26.058 7.86199 27.9454 9.72749 27.9454 12.0287V13.1824C27.9454 15.3193 26.1928 17.0515 24.0309 17.0515H19.5279M10.645 17.0515V23.1002C10.645 23.4094 10.3915 23.66 10.0787 23.66H6.56631M10.645 17.0515H15.0249M15.0249 17.0515V26.3544M15.0249 17.0515H19.5279M19.5279 17.0515V23.1002C19.5279 23.4094 19.7814 23.66 20.0942 23.66H23.7298" stroke="white" stroke-width="1.8" stroke-linecap="round" stroke-linejoin="round"/>
</svg>
