<svg width="30" height="30" viewBox="0 0 30 30" fill="none" xmlns="http://www.w3.org/2000/svg">
<path d="M12.3516 6.87743V9.33136M12.3516 9.33136H10.1493M12.3516 9.33136V14.9314M12.3516 9.33136H16.5044M12.3516 14.9314H17.1021C18.6485 14.9314 19.9021 13.6778 19.9021 12.1314C19.9021 10.585 18.6485 9.33136 17.1021 9.33136H16.5044M12.3516 14.9314V20.437M12.3516 14.9314H17.1808C18.6838 14.9314 19.9021 16.2127 19.9021 17.7156C19.9021 19.2186 18.6838 20.437 17.1808 20.437H16.5044M12.3516 20.437V22.6392M12.3516 20.437H16.5044M12.3516 20.437H10.1493M16.5044 20.437V22.6392M16.5044 9.33136V6.87743M28.8999 14.8999C28.8999 22.6319 22.6319 28.8999 14.8999 28.8999C7.16792 28.8999 0.899902 22.6319 0.899902 14.8999C0.899902 7.16792 7.16792 0.899902 14.8999 0.899902C22.6319 0.899902 28.8999 7.16792 28.8999 14.8999Z" stroke="white" stroke-width="1.8" stroke-linecap="round" stroke-linejoin="round"/>
</svg>
