<svg width="28" height="32" viewBox="0 0 28 32" fill="none" xmlns="http://www.w3.org/2000/svg">
<path d="M10.7242 6.32401L11.6919 8.84646C12.7618 11.6353 15.0414 13.8341 17.9327 14.8661L20.5479 15.7995L17.9327 16.7328C15.0414 17.7648 12.7618 19.9636 11.6919 22.7525L10.7242 25.2749L9.75646 22.7525C8.68656 19.9636 6.40691 17.7648 3.51556 16.7328L0.900391 15.7995L3.51556 14.8661C6.40691 13.8341 8.68656 11.6353 9.75646 8.84646L10.7242 6.32401Z" stroke="white" stroke-width="1.8" stroke-linecap="round" stroke-linejoin="round"/>
<path d="M22.0059 0.899902L22.488 2.15667C23.0211 3.54616 24.1569 4.64168 25.5974 5.15584L26.9004 5.62088L25.5974 6.08593C24.1569 6.60009 23.0211 7.69561 22.488 9.0851L22.0059 10.3419L21.5237 9.0851C20.9907 7.69561 19.8549 6.60009 18.4143 6.08593L17.1113 5.62088L18.4143 5.15584C19.8549 4.64168 20.9907 3.54616 21.5237 2.15667L22.0059 0.899902Z" stroke="white" stroke-width="1.8" stroke-linecap="round" stroke-linejoin="round"/>
<path d="M22.0059 21.4579L22.488 22.7147C23.0211 24.1042 24.1569 25.1997 25.5974 25.7139L26.9004 26.1789L25.5974 26.644C24.1569 27.1581 23.0211 28.2536 22.488 29.6431L22.0059 30.8999L21.5237 29.6431C20.9907 28.2536 19.8549 27.1581 18.4143 26.644L17.1113 26.1789L18.4143 25.7139C19.8549 25.1997 20.9907 24.1042 21.5237 22.7147L22.0059 21.4579Z" stroke="white" stroke-width="1.8" stroke-linecap="round" stroke-linejoin="round"/>
</svg>
