<svg width="30" height="23" viewBox="0 0 30 23" fill="none" xmlns="http://www.w3.org/2000/svg">
<path d="M28.9004 8.10105V12.3735C28.9004 15.708 28.9004 17.3753 28.257 18.6489C27.691 19.7693 26.788 20.6801 25.6772 21.251C24.4145 21.8999 22.7614 21.8999 19.4554 21.8999H10.3454C7.03934 21.8999 5.38631 21.8999 4.12356 21.251C3.01281 20.6801 2.10975 19.7693 1.54379 18.6489C0.900391 17.3753 0.900391 15.708 0.900391 12.3735V8.10105M28.9004 8.10105H0.900391M28.9004 8.10105C28.9004 6.9424 28.9004 6.36307 28.8207 5.87885C28.4072 3.36636 26.455 1.39738 23.964 0.980288C23.4839 0.899902 22.9095 0.899902 21.7608 0.899902H8.03999C6.89124 0.899902 6.31687 0.899902 5.83678 0.980288C3.34577 1.39738 1.39362 3.36636 0.98009 5.87885C0.900391 6.36307 0.900391 6.9424 0.900391 8.10105M23.077 14.9401H17.4132" stroke="white" stroke-width="1.8" stroke-linecap="round" stroke-linejoin="round"/>
</svg>
