<svg width="18" height="30" viewBox="0 0 18 30" fill="none" xmlns="http://www.w3.org/2000/svg">
<path d="M4.13849 0.899902H6.04325M13.6623 0.899902H11.5671M6.04325 0.899902V7.8999M6.04325 0.899902H11.5671M6.04325 7.8999H11.5671M6.04325 7.8999H3.94801C2.88124 7.8999 2.34786 7.8999 1.94041 8.10751C1.582 8.29012 1.29061 8.58152 1.108 8.93992C0.900391 9.34737 0.900391 9.88075 0.900391 10.9475V23.6451C0.900391 24.7118 0.900391 25.2452 1.108 25.6527C1.29061 26.0111 1.582 26.3025 1.94041 26.4851C2.34786 26.6927 2.88124 26.6927 3.94801 26.6927H4.13849M11.5671 0.899902V7.8999M11.5671 7.8999H13.8528C14.9195 7.8999 15.4529 7.8999 15.8604 8.10751C16.2188 8.29012 16.5102 8.58152 16.6928 8.93992C16.9004 9.34737 16.9004 9.88075 16.9004 10.9475V23.6451C16.9004 24.7118 16.9004 25.2452 16.6928 25.6527C16.5102 26.0111 16.2188 26.3025 15.8604 26.4851C15.4529 26.6927 14.9195 26.6927 13.8528 26.6927H13.6623M4.13849 26.6927V28.8999M4.13849 26.6927H13.6623M13.6623 26.6927V28.8999M4.77341 22.4765V11.9269M8.8369 11.9269V22.4765M12.9639 11.9269V22.4765" stroke="white" stroke-width="1.8" stroke-linecap="round"/>
</svg>
