<svg width="30" height="28" viewBox="0 0 30 28" fill="none" xmlns="http://www.w3.org/2000/svg">
<path d="M19.2081 16.325H23.2081M19.2081 16.325V24.3556M19.2081 16.325L14.4389 21.1359M0.900391 18.3127V18.2332V16.643V15.3709C0.900391 7.37877 7.1684 0.899902 14.9004 0.899902C21.4333 0.899902 26.9211 5.52511 28.4661 11.7803M0.900391 18.3127V22.7653H12.8235L14.4389 21.1359M0.900391 18.3127H10.3364L16.6696 11.7803H28.4661M28.4661 11.7803C28.7496 12.9284 28.9004 14.1314 28.9004 15.3709V16.325H23.2081M23.2081 16.325V26.8999H19.2081V24.3556M19.2081 24.3556L14.4389 21.1359" stroke="white" stroke-width="1.8" stroke-linecap="round" stroke-linejoin="round"/>
</svg>
