<svg width="26" height="24" viewBox="0 0 26 24" fill="none" xmlns="http://www.w3.org/2000/svg">
<path opacity="0.6" d="M13.0824 6.99563H13.9958L18.2118 15.8529L16.2209 20.2419M13.0824 6.99563V13.6944M13.0824 6.99563H12.1689L7.95294 15.8529L9.94381 20.2419M16.2209 20.2419L17.2515 23H8.91324L9.94381 20.2419M16.2209 20.2419H9.94381M13.0824 13.6944C14.1172 13.6944 14.9561 14.5534 14.9561 15.6131C14.9561 16.6727 14.1172 17.5317 13.0824 17.5317C12.0475 17.5317 11.2086 16.6727 11.2086 15.6131C11.2086 14.5534 12.0475 13.6944 13.0824 13.6944ZM2.37178 12.5764C2.90283 7.67324 6.58426 3.74454 11.2941 2.96584H3.09412M23.6491 12.5524C23.1141 7.70949 19.505 3.82197 14.8706 2.99018H22.0471M1.08235 12.5764H3.52941V15.0742H1.08235V12.5764ZM22.6353 12.5764H25.0824V15.0742H22.6353V12.5764ZM14.8706 2.82533C14.8706 3.83343 14.07 4.65066 13.0824 4.65066C12.0947 4.65066 11.2941 3.83343 11.2941 2.82533C11.2941 1.81723 12.0947 1 13.0824 1C14.07 1 14.8706 1.81723 14.8706 2.82533ZM3.11765 2.94541C3.11765 3.54232 2.6436 4.0262 2.05882 4.0262C1.47405 4.0262 1 3.54232 1 2.94541C1 2.34851 1.47405 1.86463 2.05882 1.86463C2.6436 1.86463 3.11765 2.34851 3.11765 2.94541ZM24.1647 2.94541C24.1647 3.54232 23.6907 4.0262 23.1059 4.0262C22.5211 4.0262 22.0471 3.54232 22.0471 2.94541C22.0471 2.34851 22.5211 1.86463 23.1059 1.86463C23.6907 1.86463 24.1647 2.34851 24.1647 2.94541Z" stroke="white"/>
</svg>
