<svg width="24" height="20" viewBox="0 0 24 20" fill="none" xmlns="http://www.w3.org/2000/svg">
<path opacity="0.6" d="M9.91702 15.8034C9.14147 15.8034 8.52246 15.1825 8.45924 14.4214C8.28014 12.2653 7.6733 12.2107 6.96809 11.3492C6.07504 10.2582 5.54043 8.87086 5.54043 7.36053C5.54043 3.84771 8.43248 1 12 1C15.5675 1 18.4596 3.84771 18.4596 7.36053C18.4596 8.87086 17.925 10.2582 17.0319 11.3492C16.3267 12.2107 15.7199 12.2653 15.5408 14.4214C15.4775 15.1825 14.8585 15.8034 14.083 15.8034M9.91702 15.8034V17.5696C9.91702 18.1923 9.91702 17.8829 10.017 18.1297C10.1597 18.4819 10.4432 18.761 10.8009 18.9016C11.0515 19 11.3677 19 12 19C12.6323 19 12.9485 19 13.1991 18.9016C13.5568 18.761 13.8403 18.4819 13.983 18.1297C14.083 17.8829 14.083 18.1923 14.083 17.5696V15.8034M9.91702 15.8034H14.083M8.33333 6.89655C8.80401 5.39483 9.73819 4.17955 11.3324 3.88518M3.67568 11.1162L2.13173 12.0157M3.67568 4.38841L2.13173 3.4889M2.78378 7.81235H1M20.3243 11.1162L21.8683 12.0157M20.3243 4.38841L21.8683 3.4889M21.2162 7.81235H23" stroke="white" stroke-linecap="round" stroke-linejoin="round"/>
</svg>
