<svg width="32" height="32" viewBox="0 0 32 32" fill="none" xmlns="http://www.w3.org/2000/svg">
<path d="M4 28V22.6667C4 21.6119 4.31279 20.5807 4.89883 19.7037C5.48486 18.8266 6.31782 18.143 7.29236 17.7394C8.26689 17.3357 9.33925 17.2301 10.3738 17.4359C11.4084 17.6416 12.3587 18.1496 13.1046 18.8955C13.8504 19.6414 14.3584 20.5917 14.5642 21.6262C14.77 22.6608 14.6644 23.7331 14.2607 24.7077C13.857 25.6822 13.1734 26.5152 12.2964 27.1012C11.4193 27.6872 10.3882 28 9.33333 28H4Z" stroke="#FED500" stroke-width="1.7" stroke-linecap="round" stroke-linejoin="round"/>
<path d="M28.0003 4C24.1947 4.52053 20.6002 6.05886 17.5963 8.45259C14.5924 10.8463 12.2905 14.0067 10.9336 17.6" stroke="#FED500" stroke-width="1.7" stroke-linecap="round" stroke-linejoin="round"/>
<path d="M28.0023 4C27.4818 7.80558 25.9435 11.4 23.5498 14.4039C21.156 17.4078 17.9957 19.7097 14.4023 21.0667" stroke="#FED500" stroke-width="1.7" stroke-linecap="round" stroke-linejoin="round"/>
<path d="M14.1367 12C16.7276 13.1958 18.8076 15.2758 20.0034 17.8667" stroke="#FED500" stroke-width="1.7" stroke-linecap="round" stroke-linejoin="round"/>
</svg>
