<svg width="32" height="32" viewBox="0 0 32 32" fill="none" xmlns="http://www.w3.org/2000/svg">
<path d="M13.332 17.3334C13.332 18.0407 13.613 18.7189 14.1131 19.219C14.6132 19.7191 15.2915 20.0001 15.9987 20.0001C16.7059 20.0001 17.3842 19.7191 17.8843 19.219C18.3844 18.7189 18.6654 18.0407 18.6654 17.3334C18.6654 16.6262 18.3844 15.9479 17.8843 15.4478C17.3842 14.9477 16.7059 14.6667 15.9987 14.6667C15.2915 14.6667 14.6132 14.9477 14.1131 15.4478C13.613 15.9479 13.332 16.6262 13.332 17.3334Z" stroke="#FED500" stroke-width="1.7" stroke-linecap="round" stroke-linejoin="round"/>
<path d="M10.668 28V26.6667C10.668 25.9594 10.9489 25.2811 11.449 24.781C11.9491 24.281 12.6274 24 13.3346 24H18.668C19.3752 24 20.0535 24.281 20.5536 24.781C21.0537 25.2811 21.3346 25.9594 21.3346 26.6667V28" stroke="#FED500" stroke-width="1.7" stroke-linecap="round" stroke-linejoin="round"/>
<path d="M20 6.66667C20 7.37391 20.281 8.05219 20.781 8.55229C21.2811 9.05238 21.9594 9.33333 22.6667 9.33333C23.3739 9.33333 24.0522 9.05238 24.5523 8.55229C25.0524 8.05219 25.3333 7.37391 25.3333 6.66667C25.3333 5.95942 25.0524 5.28115 24.5523 4.78105C24.0522 4.28095 23.3739 4 22.6667 4C21.9594 4 21.2811 4.28095 20.781 4.78105C20.281 5.28115 20 5.95942 20 6.66667Z" stroke="#FED500" stroke-width="1.7" stroke-linecap="round" stroke-linejoin="round"/>
<path d="M22.668 13.3333H25.3346C26.0419 13.3333 26.7202 13.6142 27.2203 14.1143C27.7204 14.6144 28.0013 15.2927 28.0013 15.9999V17.3333" stroke="#FED500" stroke-width="1.7" stroke-linecap="round" stroke-linejoin="round"/>
<path d="M6.66797 6.66667C6.66797 7.37391 6.94892 8.05219 7.44902 8.55229C7.94911 9.05238 8.62739 9.33333 9.33464 9.33333C10.0419 9.33333 10.7202 9.05238 11.2203 8.55229C11.7204 8.05219 12.0013 7.37391 12.0013 6.66667C12.0013 5.95942 11.7204 5.28115 11.2203 4.78105C10.7202 4.28095 10.0419 4 9.33464 4C8.62739 4 7.94911 4.28095 7.44902 4.78105C6.94892 5.28115 6.66797 5.95942 6.66797 6.66667Z" stroke="#FED500" stroke-width="1.7" stroke-linecap="round" stroke-linejoin="round"/>
<path d="M4 17.3334V16C4 15.2928 4.28095 14.6145 4.78105 14.1144C5.28115 13.6143 5.95942 13.3334 6.66667 13.3334H9.33333" stroke="#FED500" stroke-width="1.7" stroke-linecap="round" stroke-linejoin="round"/>
</svg>
