<svg width="32" height="32" viewBox="0 0 32 32" fill="none" xmlns="http://www.w3.org/2000/svg">
<path d="M26.6654 14.6667C26.3393 12.3203 25.2508 10.1462 23.5675 8.47934C21.8843 6.81246 19.6997 5.74524 17.3503 5.44209C15.0008 5.13893 12.6169 5.61666 10.5656 6.80168C8.51441 7.98669 6.9097 9.81326 5.9987 12M5.33203 6.66668V12H10.6654" stroke="#FED500" stroke-width="1.7" stroke-linecap="round" stroke-linejoin="round"/>
<path d="M5.33203 17.3333C5.65811 19.6796 6.74661 21.8537 8.42985 23.5206C10.1131 25.1875 12.2977 26.2547 14.6471 26.5578C16.9966 26.861 19.3805 26.3833 21.4318 25.1983C23.483 24.0132 25.0877 22.1867 25.9987 19.9999M26.6654 25.3333V19.9999H21.332" stroke="#FED500" stroke-width="1.7" stroke-linecap="round" stroke-linejoin="round"/>
<path d="M16 12V16" stroke="#FED500" stroke-width="1.7" stroke-linecap="round" stroke-linejoin="round"/>
<path d="M16 20H16.0133" stroke="#FED500" stroke-width="1.7" stroke-linecap="round" stroke-linejoin="round"/>
</svg>
