<svg width="58" height="22" viewBox="0 0 58 22" fill="none" xmlns="http://www.w3.org/2000/svg">
<g clip-path="url(#clip0_11_56494)">
<path d="M0 1.27515H0.4C1.46 1.27515 5.01 1.18915 6.33 1.18915C14.347 1.18915 17.583 5.79915 17.583 11.1262C17.583 16.7402 13.746 21.3782 6.1 21.3782C5.04 21.3782 2.406 21.3212 0.488 21.3212H0V1.27515ZM4.582 5.57115V17.0262C5.184 17.0842 5.584 17.0842 6.242 17.0842C10.195 17.0842 12.715 14.9362 12.715 11.1262C12.715 7.43115 9.995 5.48415 6.272 5.48415C5.785 5.48415 5.155 5.48515 4.582 5.57115ZM29.277 0.931152C35.377 0.931152 39.929 4.91115 39.929 11.2982C39.929 17.3702 35.375 21.6662 29.276 21.6662C23.177 21.6662 18.623 17.6862 18.623 11.2982C18.624 5.48415 22.89 0.931152 29.277 0.931152ZM29.277 17.3692C33.087 17.3692 35.061 14.6772 35.061 11.2972C35.061 7.63115 32.513 5.22515 29.278 5.22515C25.956 5.22515 23.493 7.63115 23.493 11.2972C23.493 14.7352 26.07 17.3692 29.277 17.3692ZM58 13.0452C58 19.1732 54.105 21.6652 49.81 21.6652C44.656 21.6652 41.077 18.7152 41.077 12.8452V1.27515H45.659V11.8712C45.659 14.9932 46.602 17.3712 49.809 17.3712C52.587 17.3712 53.417 15.3372 53.417 12.1292V1.27515H58V13.0452Z" fill="white"/>
</g>
<defs>
<clipPath id="clip0_11_56494">
<rect width="58" height="20.735" fill="white" transform="translate(0 0.931152)"/>
</clipPath>
</defs>
</svg>
