<svg width="85" height="13" viewBox="0 0 85 13" fill="none" xmlns="http://www.w3.org/2000/svg">
<path d="M6.80566 0.517036C6.98742 0.160988 7.51258 0.160988 7.69434 0.517035L9.31908 3.69977C9.39126 3.84116 9.53077 3.93916 9.69216 3.96183L13.3252 4.47221C13.7316 4.5293 13.8939 5.01217 13.5998 5.28931L10.9709 7.76673C10.8541 7.87678 10.8009 8.03534 10.8284 8.19074L11.449 11.6889C11.5184 12.0802 11.0936 12.3787 10.7301 12.1939L7.48058 10.5423C7.33623 10.4689 7.16377 10.4689 7.01942 10.5423L3.76993 12.1939C3.40642 12.3787 2.98155 12.0802 3.05098 11.6889L3.67158 8.19074C3.69915 8.03534 3.64586 7.87678 3.52907 7.76673L0.900178 5.28931C0.606088 5.01217 0.76837 4.5293 1.17479 4.47221L4.80783 3.96183C4.96922 3.93916 5.10874 3.84116 5.18092 3.69977L6.80566 0.517036Z" fill="white" fill-opacity="0.4"/>
<path d="M23.8057 0.517036C23.9874 0.160988 24.5126 0.160988 24.6943 0.517035L26.3191 3.69977C26.3913 3.84116 26.5308 3.93916 26.6922 3.96183L30.3252 4.47221C30.7316 4.5293 30.8939 5.01217 30.5998 5.28931L27.9709 7.76673C27.8541 7.87678 27.8009 8.03534 27.8284 8.19074L28.449 11.6889C28.5184 12.0802 28.0936 12.3787 27.7301 12.1939L24.4806 10.5423C24.3362 10.4689 24.1638 10.4689 24.0194 10.5423L20.7699 12.1939C20.4064 12.3787 19.9816 12.0802 20.051 11.6889L20.6716 8.19074C20.6991 8.03534 20.6459 7.87678 20.5291 7.76673L17.9002 5.28931C17.6061 5.01217 17.7684 4.5293 18.1748 4.47221L21.8078 3.96183C21.9692 3.93916 22.1087 3.84116 22.1809 3.69977L23.8057 0.517036Z" fill="white" fill-opacity="0.4"/>
<path d="M40.8057 0.517036C40.9874 0.160988 41.5126 0.160988 41.6943 0.517035L43.3191 3.69977C43.3913 3.84116 43.5308 3.93916 43.6922 3.96183L47.3252 4.47221C47.7316 4.5293 47.8939 5.01217 47.5998 5.28931L44.9709 7.76673C44.8541 7.87678 44.8009 8.03534 44.8284 8.19074L45.449 11.6889C45.5184 12.0802 45.0936 12.3787 44.7301 12.1939L41.4806 10.5423C41.3362 10.4689 41.1638 10.4689 41.0194 10.5423L37.7699 12.1939C37.4064 12.3787 36.9816 12.0802 37.051 11.6889L37.6716 8.19074C37.6991 8.03534 37.6459 7.87678 37.5291 7.76673L34.9002 5.28931C34.6061 5.01217 34.7684 4.5293 35.1748 4.47221L38.8078 3.96183C38.9692 3.93916 39.1087 3.84116 39.1809 3.69977L40.8057 0.517036Z" fill="white" fill-opacity="0.4"/>
<path d="M57.8057 0.517036C57.9874 0.160988 58.5126 0.160988 58.6943 0.517035L60.3191 3.69977C60.3913 3.84116 60.5308 3.93916 60.6922 3.96183L64.3252 4.47221C64.7316 4.5293 64.8939 5.01217 64.5998 5.28931L61.9709 7.76673C61.8541 7.87678 61.8009 8.03534 61.8284 8.19074L62.449 11.6889C62.5184 12.0802 62.0936 12.3787 61.7301 12.1939L58.4806 10.5423C58.3362 10.4689 58.1638 10.4689 58.0194 10.5423L54.7699 12.1939C54.4064 12.3787 53.9816 12.0802 54.051 11.6889L54.6716 8.19074C54.6991 8.03534 54.6459 7.87678 54.5291 7.76673L51.9002 5.28931C51.6061 5.01217 51.7684 4.5293 52.1748 4.47221L55.8078 3.96183C55.9692 3.93916 56.1087 3.84116 56.1809 3.69977L57.8057 0.517036Z" fill="white" fill-opacity="0.4"/>
<path d="M74.8057 0.517036C74.9874 0.160988 75.5126 0.160988 75.6943 0.517035L77.3191 3.69977C77.3913 3.84116 77.5308 3.93916 77.6922 3.96183L81.3252 4.47221C81.7316 4.5293 81.8939 5.01217 81.5998 5.28931L78.9709 7.76673C78.8541 7.87678 78.8009 8.03534 78.8284 8.19074L79.449 11.6889C79.5184 12.0802 79.0936 12.3787 78.7301 12.1939L75.4806 10.5423C75.3362 10.4689 75.1638 10.4689 75.0194 10.5423L71.7699 12.1939C71.4064 12.3787 70.9816 12.0802 71.051 11.6889L71.6716 8.19074C71.6991 8.03534 71.6459 7.87678 71.5291 7.76673L68.9002 5.28931C68.6061 5.01217 68.7684 4.5293 69.1748 4.47221L72.8078 3.96183C72.9692 3.93916 73.1087 3.84116 73.1809 3.69977L74.8057 0.517036Z" fill="white" fill-opacity="0.4"/>
</svg>
