<svg width="27" height="39" viewBox="0 0 27 39" fill="none" xmlns="http://www.w3.org/2000/svg">
<g opacity="0.5">
<path d="M13.7105 28.9992C13.6315 28.9151 13.6315 28.9992 13.7105 28.9992L13.3154 28.747L13.2363 28.6629L3.9111 21.6018C3.9111 21.6018 3.83207 21.6018 3.83207 21.5177L3.67402 21.3496L3.59499 21.2655H3.43693L0.75 19.248L6.04484 20.0887C6.28192 20.0887 6.36095 20.1727 6.59803 20.2568C6.67706 20.2568 6.83511 20.3408 6.83511 20.3408C7.0722 20.4249 7.15122 20.509 7.30928 20.593C7.46733 20.6771 7.54636 20.7612 7.70442 20.8452C7.78344 20.9293 7.9415 21.0133 7.9415 21.0974C8.02052 21.1815 8.09955 21.1815 8.17858 21.2655C8.33663 21.3496 8.41566 21.4336 8.41566 21.5177C8.65274 21.7699 8.8108 22.0221 9.04788 22.1902L13.2363 28.4948L13.3154 28.5789L13.7105 28.9992Z" fill="#747474"/>
<path d="M13.7105 38.7503L13.3153 38.0778L13.2363 37.9937L0.828979 19.248L3.51591 21.2655L3.99008 21.6018L13.3153 28.6629H13.3943L13.7105 28.9151C13.7105 28.9151 13.7895 28.9151 13.7895 28.9992L14.1846 28.6629L26.75 19.248L14.1056 38.0778L14.0266 38.1619L13.7105 38.7503Z" fill="white"/>
<path d="M15.6861 5.88211C15.6861 9.58082 9.68001 11.5142 9.68001 15.4651C9.60098 16.3898 9.83806 17.3145 10.2332 18.1551C10.2332 18.1551 7.94141 15.8014 7.94141 13.2795C7.94141 10.7577 10.1542 6.97491 10.1542 6.97491C10.1542 8.65614 10.7864 9.16051 11.4186 9.24457H11.4976C12.2089 9.24457 12.604 8.65614 12.604 7.81553C12.604 6.97491 11.7347 6.1343 11.7347 4.45307C11.7347 2.8559 13.6314 0.25 13.6314 0.25C14.9748 1.93123 15.6861 3.86464 15.6861 5.88211Z" fill="white"/>
<path d="M14.0267 19.3313C12.13 19.3313 10.7075 17.7341 10.7075 15.8007V15.7167C10.7075 11.4295 16.3185 11.0092 16.3185 5.20898C16.4765 5.46117 17.978 7.64676 17.978 10.0005C17.978 12.9426 15.3701 13.6992 15.3701 15.1282C15.3701 15.7167 15.6072 16.137 16.3975 16.137C16.4765 16.137 16.5556 16.137 16.6346 16.0529C18.1361 15.3804 19.1635 13.8673 19.2425 12.102C19.2425 12.1861 20.0328 19.3313 14.0267 19.3313Z" fill="white"/>
</g>
</svg>
