<svg width="39" height="27" viewBox="0 0 39 27" fill="none" xmlns="http://www.w3.org/2000/svg">
<path opacity="0.5" d="M30.1329 2.45387C26.0606 2.47275 22.9638 5.05604 21.8053 9.17213C19.8612 6.30285 18.3443 3.02112 17.4741 0.25L13.1873 0.268877L13.2404 11.1636C13.2451 12.1995 12.8207 13.1947 12.0604 13.9307C11.3001 14.6666 10.2662 15.0829 9.18589 15.0881C8.10558 15.0926 7.06761 14.6857 6.30012 13.9567C5.53263 13.2277 5.09843 12.2363 5.09296 11.2004L5.03882 0.305687L0.75 0.324564L0.803155 11.2193C0.825795 15.7403 4.59291 19.3231 9.2036 19.3014C13.8143 19.2797 17.5489 15.6658 17.5273 11.1438L17.5174 9.29389C18.3817 10.9333 19.4625 12.6757 20.6506 14.2132L18.0293 26.25L22.4234 26.2311L24.3134 17.4855C26.0331 18.5067 27.9555 19.1136 30.2156 19.1032C34.9326 19.0815 38.7745 15.3656 38.7499 10.637C38.7319 8.45834 37.8159 6.37497 36.2016 4.84166C34.5874 3.30835 32.4061 2.44962 30.1339 2.45293L30.1329 2.45387ZM30.1939 14.8909C28.4792 14.8984 26.7615 14.1868 25.3627 13.0617L25.783 11.4166V11.3222C26.098 9.57232 27.045 6.5879 30.2618 6.57468C31.3961 6.57288 32.4852 7.0007 33.2921 7.76503C34.099 8.52936 34.5584 9.56834 34.5703 10.6559C34.4739 13.0202 32.4471 14.8795 30.1949 14.8899L30.1939 14.8909Z" fill="white"/>
</svg>
