<svg width="32" height="36" viewBox="0 0 32 36" fill="none" xmlns="http://www.w3.org/2000/svg">
<path d="M24.8707 25.3929C23.0603 26.8214 20.5259 27.8929 17.9914 27.8929C12.1983 27.8929 8.21552 23.6071 8.21552 17.8929C8.21552 12.1786 12.1983 8.25 17.9914 8.25C20.5259 8.25 23.0603 8.96428 24.8707 10.75L25.9569 11.8214L31.75 6.46428L30.3017 5.39285C27.0431 2.53571 22.6983 0.75 17.9914 0.75C7.85346 0.75 0.25 8.25 0.25 18.25C0.25 28.25 7.85346 35.75 17.9914 35.75C22.6983 35.75 27.0431 33.9643 30.3017 31.1071L31.75 30.0357L25.9569 24.3214L24.8707 25.3929Z" fill="white"/>
<path opacity="0.4" d="M17.6292 23.9628C20.8286 23.9628 23.4223 21.4044 23.4223 18.2485C23.4223 15.0926 20.8286 12.5342 17.6292 12.5342C14.4297 12.5342 11.8361 15.0926 11.8361 18.2485C11.8361 21.4044 14.4297 23.9628 17.6292 23.9628Z" fill="white"/>
</svg>
