<svg width="166" height="34" viewBox="0 0 166 34" fill="none" xmlns="http://www.w3.org/2000/svg">
<g clip-path="url(#clip0_209_11720)">
<path d="M16.9203 0.279541C7.75265 0.279541 0.320312 7.71188 0.320312 16.8795C0.320312 26.0472 7.75265 33.4795 16.9203 33.4795C26.088 33.4795 33.5203 26.0472 33.5203 16.8795C33.5203 7.71188 26.088 0.279541 16.9203 0.279541ZM26.2972 12.8955C26.2972 13.4521 25.8383 13.9027 25.2733 13.9027H23.7417C23.1753 13.9027 22.7178 13.4521 22.7178 12.8955V12.0335C22.7233 11.7238 22.5643 11.4406 22.3341 11.2383C22.1416 11.0472 21.8794 10.9384 21.6046 10.9384H12.2165C11.6669 10.9342 11.1619 11.4099 11.1284 11.9456H11.1243C11.1243 11.9456 11.1243 13.7799 11.1257 13.8051C11.1466 14.3254 11.473 14.8094 11.9333 15.0424C12.0993 15.1512 12.296 15.2112 12.5011 15.2112H21.6939C22.2602 15.2112 22.7178 15.6617 22.7178 16.2183C22.7401 16.4806 22.6661 17.7695 22.7638 17.9941C22.9186 18.5856 23.4669 19.0864 24.0932 19.1129H25.2747C25.8411 19.1129 26.2986 19.5634 26.2986 20.12V21.8121C26.2986 22.3687 25.8397 22.8193 25.2747 22.8193H23.8086C23.5031 22.8165 23.2185 22.9574 23.0177 23.1792C22.8252 23.3675 22.7178 23.6242 22.7178 23.892V25.2409C22.7178 25.7975 22.2588 26.2481 21.6939 26.2481H12.151C11.5846 26.2481 11.1271 25.7975 11.1271 25.2409V23.892C11.1312 23.3298 10.6081 22.8165 10.0362 22.8193H8.57009C8.00374 22.8193 7.5462 22.3687 7.5462 21.8121V20.4911C7.5462 19.9345 8.00514 19.4839 8.57009 19.4839H10.1018C10.6681 19.4839 11.1257 19.9345 11.1257 20.4911V21.7465C11.1229 22.0465 11.2665 22.3255 11.4925 22.5235C11.685 22.7119 11.9459 22.8179 12.2165 22.8179H21.6269C22.1765 22.8221 22.6829 22.3464 22.715 21.8093H22.7178C22.7178 21.8093 22.7178 19.8689 22.7178 19.8675C22.701 19.3472 22.3732 18.8576 21.9129 18.6218C21.7455 18.5116 21.5474 18.4517 21.3423 18.4517H12.1496C11.5832 18.4517 11.1257 18.0011 11.1257 17.4445C11.1075 17.1976 11.1745 15.7678 11.074 15.5557C10.9136 14.9726 10.371 14.483 9.75162 14.4565C9.68327 14.4509 8.60776 14.4593 8.51011 14.4551C7.97166 14.4244 7.5462 13.9864 7.5462 13.4493V11.9428C7.5462 11.3862 8.00514 10.9356 8.57009 10.9356H10.0362C10.6081 10.9398 11.1298 10.4251 11.1271 9.8629V8.51398C11.1271 7.95739 11.586 7.50682 12.151 7.50682H21.6939C22.2602 7.50682 22.7178 7.95739 22.7178 8.51398V9.60623C22.7178 9.8922 22.8433 10.0708 23.0567 10.2647C23.2492 10.4558 23.5115 10.5646 23.7863 10.5646H25.2747C25.8411 10.5646 26.2986 11.0151 26.2986 11.5717V12.8928L26.2972 12.8955Z" fill="white"/>
<path d="M78.8463 9.48782C78.8463 8.39696 77.9577 7.50977 76.8668 7.50977H72.8842V9.75983H75.8959C76.1931 9.75983 76.4358 10.0012 76.4358 10.2997V24.4892C76.0773 24.1753 75.6114 23.9982 75.1301 23.9982H72.8828V26.2482H82.0142V23.9982H78.8449V9.48782H78.8463Z" fill="white"/>
<path d="M90.3697 9.48782C90.3697 8.39696 89.4811 7.50977 88.3902 7.50977H84.4076V9.75983H87.4194C87.7165 9.75983 87.9592 10.0012 87.9592 10.2997V24.4892C87.6007 24.1753 87.1348 23.9982 86.6535 23.9982H84.4062V26.2482H93.5376V23.9982H90.3683V9.48782H90.3697Z" fill="white"/>
<path d="M111.566 13.9308V10.368C111.566 9.83237 111.834 9.75983 112.096 9.75983H116.691V7.50977H111.361C110.718 7.50977 110.183 7.7218 109.773 8.14168C109.365 8.56017 109.157 9.09723 109.157 9.73751V13.4049H105.15V15.6549H109.157V26.2482H111.566V15.6549H117.005V13.4049H112.911C112.403 13.4049 111.927 13.596 111.566 13.9308Z" fill="white"/>
<path d="M101.972 15.3838C101.972 14.293 101.084 13.4058 99.9929 13.4058H96.1833V15.6558H99.0234C99.3206 15.6558 99.5633 15.8986 99.5633 16.1957V24.5403L99.2396 24.2627L99.209 24.2418C98.9188 24.0828 98.5896 23.9991 98.259 23.9991H96.0117V26.2491H105.151V23.9991H101.974V15.3838H101.972Z" fill="white"/>
<path d="M101.599 7.50977H98.6602V10.7182H101.599V7.50977Z" fill="white"/>
<path d="M54.0286 19.3038C53.1805 18.6691 51.9362 18.2827 50.332 18.1543C48.9021 18.0497 47.9117 17.8335 47.3886 17.5113C46.8906 17.2058 46.6479 16.7747 46.6479 16.193C46.6479 15.9057 46.7176 15.6629 46.8613 15.4509C47.0078 15.2333 47.2072 15.0492 47.4542 14.9041C47.708 14.7534 48.0052 14.639 48.3372 14.5637C48.6747 14.487 49.0305 14.4479 49.3945 14.4479C50.3236 14.4479 51.0838 14.6781 51.6544 15.1315C52.1259 15.5067 52.423 15.9935 52.5625 16.6087L54.9228 16.0465C54.8321 15.6755 54.6982 15.303 54.5196 14.9348C54.2657 14.4144 53.8975 13.9485 53.4274 13.5482C52.9601 13.152 52.3742 12.8242 51.6865 12.5773C50.9987 12.3304 50.1925 12.2048 49.2871 12.2048C48.6399 12.2048 48.0107 12.2885 47.4179 12.4531C46.8208 12.6191 46.2768 12.8716 45.7997 13.2036C45.3185 13.5398 44.9293 13.9611 44.6461 14.4563C44.3601 14.9557 44.2151 15.5402 44.2151 16.1958V16.3562C44.2151 17.574 44.6614 18.517 45.5403 19.1573C46.3982 19.7836 47.6369 20.1561 49.223 20.2649C50.53 20.3528 51.4814 20.5523 52.0519 20.8592C52.5904 21.1493 52.8512 21.6222 52.8512 22.3057C52.8512 22.9418 52.582 23.4217 52.0268 23.7732C51.4535 24.1359 50.6793 24.32 49.7238 24.32C48.5994 24.32 47.6913 24.0243 47.0231 23.4412C46.447 22.9376 46.0843 22.282 45.942 21.4897L43.5566 22.0574C43.6264 22.5205 43.7603 22.9823 43.9584 23.4356C44.2206 24.0369 44.6154 24.5809 45.1302 25.0524C45.6435 25.5225 46.2949 25.9047 47.065 26.1893C47.8336 26.4725 48.764 26.6161 49.8326 26.6161C50.6249 26.6161 51.3684 26.5185 52.0422 26.3274C52.7243 26.1335 53.3116 25.8475 53.7887 25.4779C54.2685 25.1068 54.6521 24.6479 54.9255 24.1164C55.2004 23.5835 55.3399 22.9739 55.3399 22.3043V22.1439C55.3399 20.9094 54.899 19.9538 54.0314 19.3038H54.0286Z" fill="white"/>
<path d="M128.434 13.4058V19.8198C128.434 21.1882 128.089 22.293 127.411 23.1049C126.742 23.907 125.802 24.3143 124.62 24.3143C123.522 24.3143 122.702 24.0172 122.179 23.4299C121.652 22.8371 121.384 21.8704 121.384 20.5563V13.4072H118.975V20.8186C118.975 21.7616 119.097 22.6027 119.339 23.3183C119.583 24.0395 119.93 24.6533 120.375 25.1401C120.82 25.6312 121.366 26.005 121.993 26.2505C122.615 26.4933 123.306 26.6174 124.042 26.6174C125.126 26.6174 126.037 26.3593 126.749 25.8488C127.425 25.3633 127.983 24.7035 128.409 23.8875H128.434V31.0352C128.073 30.7004 127.597 30.5093 127.089 30.5093H121.384V32.7594H128.64C129.283 32.7594 129.816 32.5474 130.228 32.1275C130.636 31.709 130.844 31.1719 130.844 30.5317V13.4058H128.435H128.434Z" fill="white"/>
<path d="M70.7306 18.5069C70.7097 18.0117 70.6079 17.2557 70.3666 16.5582C70.1238 15.8565 69.7416 15.2009 69.2297 14.6094C68.7177 14.0166 68.0537 13.5116 67.2558 13.1098C66.4551 12.7053 65.494 12.5002 64.4017 12.5002C63.4713 12.5002 62.5953 12.6676 61.7973 12.9996C61.0008 13.3302 60.2964 13.7948 59.7035 14.3765C59.1106 14.9609 58.6419 15.6654 58.3099 16.4717C57.9779 17.2766 57.8105 18.1568 57.8105 19.0872V19.7178C57.8105 20.7333 57.9738 21.6735 58.296 22.5133C58.6182 23.3544 59.073 24.0896 59.6463 24.6992C60.221 25.3101 60.9185 25.7886 61.7192 26.1206C62.5171 26.4526 63.4029 26.62 64.3501 26.62C66.0645 26.62 67.4497 26.2238 68.468 25.4399C69.2799 24.8149 69.8909 24.0338 70.2968 23.1131L68.037 22.3445C67.9686 22.4867 67.8947 22.6276 67.8124 22.7602C67.6241 23.0643 67.373 23.3349 67.0689 23.565C66.7634 23.7966 66.3881 23.9807 65.9557 24.1147C65.5205 24.2486 64.9988 24.3169 64.4059 24.3169C63.1142 24.3169 62.0973 23.9375 61.383 23.1912C60.7009 22.4784 60.3145 21.5298 60.235 20.3706H70.2926C70.5256 20.3706 70.7167 20.1851 70.7223 19.9535C70.7334 19.5043 70.7488 18.8124 70.7362 18.5111L70.7306 18.5069ZM60.355 18.1177C60.4317 17.6937 60.5879 17.2919 60.7818 16.9251C61.0078 16.4996 61.3035 16.1229 61.662 15.8077C62.0205 15.491 62.4432 15.2427 62.9189 15.067C63.396 14.8912 63.9191 14.8019 64.4729 14.8019C64.9569 14.8019 65.4354 14.887 65.8957 15.053C66.3561 15.2204 66.7704 15.4576 67.1289 15.7575C67.486 16.056 67.7803 16.4257 68.0049 16.8581C68.2016 17.2361 68.2546 17.6602 68.3034 18.1177H60.3536H60.355Z" fill="white"/>
<path d="M138.807 7.50977L135.855 16.0371H137.363L138.047 13.9921H141.928L142.628 16.0371H144.136L141.141 7.50977H138.807ZM138.451 12.7771L139.975 8.14308L141.523 12.7771H138.451Z" fill="white"/>
<path d="M149.171 8.61457C149.335 8.69687 149.381 8.74151 149.571 8.74151H150.782V7.50977H146L146.003 8.74151H147.74L147.755 14.9337C147.59 14.8514 147.405 14.8068 147.215 14.8068H146.018L146.021 16.0385H150.781V14.8068H149.185L149.168 8.61457H149.171Z" fill="white"/>
</g>
<defs>
<clipPath id="clip0_209_11720">
<rect width="166" height="33.758" fill="white"/>
</clipPath>
</defs>
</svg>
