<svg width="149" height="30" viewBox="0 0 149 30" fill="none" xmlns="http://www.w3.org/2000/svg">
<g clip-path="url(#clip0_11_54980)">
<path d="M22.5965 9.08057C20.4962 8.12043 18.1292 7.57812 15.626 7.57812C7.0094 7.57812 0 13.9867 0 21.8647C0 22.0488 0.0041673 22.2355 0.0125019 22.4222H6.16761C6.74825 14.9684 13.5674 9.06406 21.8686 9.06406C22.1131 9.06406 22.3548 9.07041 22.5965 9.08057Z" fill="white"/>
<path d="M27.0358 12.1119C26.6872 11.7703 26.3204 11.4452 25.9357 11.1365C24.648 10.7809 23.2825 10.5879 21.8698 10.5879C14.4895 10.5879 8.41771 15.809 7.83984 22.4233H14.2117C15.473 16.8352 20.6765 12.5488 27.0344 12.1119H27.0358Z" fill="white" fill-opacity="0.5"/>
<path d="M29.804 15.859C29.3998 15.064 28.9191 14.3096 28.369 13.6021C28.2829 13.6009 28.1968 13.5996 28.1107 13.5996C22.1931 13.5996 17.2215 17.3716 15.9199 22.4238H22.5848C23.8781 19.4189 26.5104 17.0261 29.8054 15.8603L29.804 15.859Z" fill="white"/>
<path d="M31.2537 21.8653C31.2537 20.26 30.9619 18.7169 30.4257 17.2754C27.7615 18.2114 25.5958 20.0707 24.3984 22.4228H31.2411C31.2495 22.2349 31.2537 22.0482 31.2537 21.8653Z" fill="white" fill-opacity="0.5"/>
</g>
<path d="M39.3871 19.5V11.6101H36.293V9.85208H44.6048V11.6101H41.4967V19.5H39.3871ZM45.8513 19.5V9.33171H47.8062V12.918H47.9046C48.064 12.7211 48.2515 12.5524 48.4672 12.4117C48.6922 12.2617 48.9407 12.1445 49.2126 12.0601C49.4939 11.9757 49.7986 11.9336 50.1267 11.9336C50.6143 11.9336 51.0409 12.0226 51.4066 12.2008C51.7722 12.3789 52.0535 12.6602 52.2504 13.0446C52.4567 13.429 52.5598 13.9306 52.5598 14.5495V19.5H50.6049V14.8589C50.6049 14.6245 50.5768 14.4276 50.5205 14.2682C50.4643 14.0994 50.3799 13.9635 50.2674 13.8603C50.1642 13.7478 50.033 13.6681 49.8736 13.6212C49.7142 13.5744 49.536 13.5509 49.3391 13.5509C49.0485 13.5509 48.786 13.6212 48.5516 13.7619C48.3172 13.9025 48.1343 14.0947 48.0031 14.3385C47.8718 14.5823 47.8062 14.8636 47.8062 15.1823V19.5H45.8513ZM57.673 19.6688C56.8572 19.6688 56.1728 19.5328 55.6196 19.2609C55.0664 18.9796 54.6492 18.553 54.3679 17.9811C54.0866 17.4091 53.946 16.6825 53.946 15.8012C53.946 14.9104 54.0866 14.1838 54.3679 13.6212C54.6492 13.0493 55.0617 12.6274 55.6055 12.3555C56.1587 12.0742 56.8338 11.9336 57.6308 11.9336C58.3809 11.9336 59.0137 12.0695 59.5294 12.3414C60.0451 12.6039 60.4342 13.0165 60.6967 13.579C60.9593 14.1322 61.0905 14.8495 61.0905 15.7308V16.2371H55.929C55.9478 16.6684 56.0134 17.0341 56.1259 17.3341C56.2478 17.6342 56.4306 17.8592 56.6744 18.0092C56.9276 18.1499 57.2604 18.2202 57.673 18.2202C57.898 18.2202 58.0996 18.192 58.2777 18.1358C58.4652 18.0795 58.6246 17.9951 58.7559 17.8826C58.8872 17.7701 58.9903 17.6295 59.0653 17.4607C59.1403 17.2919 59.1778 17.0997 59.1778 16.8841H61.0905C61.0905 17.3529 61.0061 17.7607 60.8374 18.1077C60.6686 18.4546 60.4342 18.7452 60.1342 18.9796C59.8341 19.2047 59.4732 19.3781 59.0512 19.5C58.6387 19.6125 58.1793 19.6688 57.673 19.6688ZM55.9572 14.9995H59.0794C59.0794 14.7182 59.0419 14.4745 58.9669 14.2682C58.9012 14.0619 58.8075 13.8931 58.6856 13.7619C58.5637 13.6306 58.4137 13.5369 58.2355 13.4806C58.0668 13.415 57.8745 13.3821 57.6589 13.3821C57.3026 13.3821 57.0026 13.4431 56.7588 13.565C56.5244 13.6775 56.3416 13.8556 56.2103 14.0994C56.0884 14.3338 56.004 14.6338 55.9572 14.9995ZM62.6936 19.5V9.85208H66.6315C67.6348 9.85208 68.488 10.0255 69.1912 10.3724C69.8944 10.7194 70.4335 11.2491 70.8085 11.9617C71.193 12.6649 71.3852 13.5697 71.3852 14.676C71.3852 15.773 71.193 16.6778 70.8085 17.3904C70.4335 18.103 69.8944 18.6327 69.1912 18.9796C68.488 19.3265 67.6348 19.5 66.6315 19.5H62.6936ZM64.7891 17.7701H66.6175C67.0394 17.7701 67.4144 17.7092 67.7426 17.5873C68.0707 17.4654 68.3426 17.2873 68.5583 17.0529C68.7739 16.8091 68.938 16.5091 69.0505 16.1528C69.1631 15.7871 69.2193 15.3652 69.2193 14.887V14.4651C69.2193 13.9869 69.1631 13.5697 69.0505 13.2134C68.938 12.8477 68.7739 12.5477 68.5583 12.3133C68.3426 12.0695 68.0707 11.8867 67.7426 11.7648C67.4144 11.6335 67.0394 11.5679 66.6175 11.5679H64.7891V17.7701ZM76.3253 19.6688C75.5189 19.6688 74.8345 19.5328 74.2719 19.2609C73.7094 18.9796 73.2827 18.553 72.9921 17.9811C72.7014 17.3998 72.5561 16.6731 72.5561 15.8012C72.5561 14.9104 72.7014 14.1838 72.9921 13.6212C73.2827 13.0493 73.7094 12.6274 74.2719 12.3555C74.8345 12.0742 75.5189 11.9336 76.3253 11.9336C77.1504 11.9336 77.8395 12.0742 78.3927 12.3555C78.9552 12.6274 79.3818 13.0493 79.6725 13.6212C79.9632 14.1838 80.1085 14.9104 80.1085 15.8012C80.1085 16.6731 79.9632 17.3998 79.6725 17.9811C79.3818 18.553 78.9552 18.9796 78.3927 19.2609C77.8395 19.5328 77.1504 19.6688 76.3253 19.6688ZM76.3253 18.1499C76.7566 18.1499 77.0988 18.0702 77.3519 17.9108C77.6145 17.7514 77.8067 17.5076 77.9286 17.1794C78.0505 16.8513 78.1114 16.4481 78.1114 15.9699V15.6324C78.1114 15.1542 78.0505 14.751 77.9286 14.4229C77.8067 14.0947 77.6145 13.8509 77.3519 13.6916C77.0988 13.5228 76.7566 13.4384 76.3253 13.4384C75.9033 13.4384 75.5611 13.5228 75.2986 13.6916C75.0454 13.8509 74.8579 14.0947 74.736 14.4229C74.6141 14.751 74.5532 15.1542 74.5532 15.6324V15.9699C74.5532 16.4481 74.6141 16.8513 74.736 17.1794C74.8579 17.5076 75.0454 17.7514 75.2986 17.9108C75.5611 18.0702 75.9033 18.1499 76.3253 18.1499ZM81.547 19.5V12.1023H83.1643L83.319 13.1149H83.4175C83.5769 12.8712 83.7644 12.6602 83.9801 12.4821C84.2051 12.3039 84.4535 12.168 84.7254 12.0742C85.0067 11.9804 85.3068 11.9336 85.6255 11.9336C86.0943 11.9336 86.4975 12.0273 86.835 12.2148C87.182 12.4024 87.4492 12.7024 87.6367 13.1149H87.7351C87.8945 12.8712 88.0867 12.6602 88.3118 12.4821C88.5368 12.3039 88.7946 12.168 89.0853 12.0742C89.3759 11.9804 89.6854 11.9336 90.0135 11.9336C90.4823 11.9336 90.8855 12.0179 91.223 12.1867C91.5699 12.3555 91.8418 12.6321 92.0387 13.0165C92.2356 13.3915 92.3341 13.8791 92.3341 14.4791V19.5H90.3792V14.8307C90.3792 14.5963 90.3511 14.3994 90.2948 14.2401C90.2479 14.0713 90.1776 13.94 90.0838 13.8463C89.9901 13.7431 89.8729 13.6681 89.7322 13.6212C89.5916 13.5744 89.4416 13.5509 89.2822 13.5509C89.0197 13.5509 88.7853 13.6212 88.579 13.7619C88.3727 13.9025 88.2086 14.0947 88.0867 14.3385C87.9742 14.5823 87.918 14.8636 87.918 15.1823V19.5H85.9631V14.8307C85.9631 14.5963 85.935 14.3994 85.8787 14.2401C85.8318 14.0713 85.7615 13.94 85.6677 13.8463C85.574 13.7431 85.4568 13.6681 85.3161 13.6212C85.1849 13.5744 85.0349 13.5509 84.8661 13.5509C84.6129 13.5509 84.3785 13.6212 84.1629 13.7619C83.9566 13.9025 83.7925 14.0947 83.6706 14.3385C83.5581 14.5823 83.5019 14.8636 83.5019 15.1823V19.5H81.547ZM97.434 19.6688C96.6183 19.6688 95.9339 19.5328 95.3807 19.2609C94.8275 18.9796 94.4103 18.553 94.129 17.9811C93.8477 17.4091 93.7071 16.6825 93.7071 15.8012C93.7071 14.9104 93.8477 14.1838 94.129 13.6212C94.4103 13.0493 94.8228 12.6274 95.3666 12.3555C95.9198 12.0742 96.5949 11.9336 97.3919 11.9336C98.1419 11.9336 98.7748 12.0695 99.2905 12.3414C99.8062 12.6039 100.195 13.0165 100.458 13.579C100.72 14.1322 100.852 14.8495 100.852 15.7308V16.2371H95.6901C95.7089 16.6684 95.7745 17.0341 95.887 17.3341C96.0089 17.6342 96.1917 17.8592 96.4355 18.0092C96.6887 18.1499 97.0215 18.2202 97.434 18.2202C97.6591 18.2202 97.8607 18.192 98.0388 18.1358C98.2263 18.0795 98.3857 17.9951 98.517 17.8826C98.6482 17.7701 98.7514 17.6295 98.8264 17.4607C98.9014 17.2919 98.9389 17.0997 98.9389 16.8841H100.852C100.852 17.3529 100.767 17.7607 100.598 18.1077C100.43 18.4546 100.195 18.7452 99.8953 18.9796C99.5952 19.2047 99.2342 19.3781 98.8123 19.5C98.3998 19.6125 97.9404 19.6688 97.434 19.6688ZM95.7182 14.9995H98.8405C98.8405 14.7182 98.8029 14.4745 98.7279 14.2682C98.6623 14.0619 98.5685 13.8931 98.4467 13.7619C98.3248 13.6306 98.1748 13.5369 97.9966 13.4806C97.8278 13.415 97.6356 13.3821 97.42 13.3821C97.0637 13.3821 96.7637 13.4431 96.5199 13.565C96.2855 13.6775 96.1027 13.8556 95.9714 14.0994C95.8495 14.3338 95.7651 14.6338 95.7182 14.9995ZM102.455 19.5V9.85208H104.55V13.6775H108.826V9.85208H110.921V19.5H108.826V15.4496H104.55V19.5H102.455ZM116.292 19.6688C115.486 19.6688 114.802 19.5328 114.239 19.2609C113.676 18.9796 113.25 18.553 112.959 17.9811C112.669 17.3998 112.523 16.6731 112.523 15.8012C112.523 14.9104 112.669 14.1838 112.959 13.6212C113.25 13.0493 113.676 12.6274 114.239 12.3555C114.802 12.0742 115.486 11.9336 116.292 11.9336C117.117 11.9336 117.807 12.0742 118.36 12.3555C118.922 12.6274 119.349 13.0493 119.64 13.6212C119.93 14.1838 120.076 14.9104 120.076 15.8012C120.076 16.6731 119.93 17.3998 119.64 17.9811C119.349 18.553 118.922 18.9796 118.36 19.2609C117.807 19.5328 117.117 19.6688 116.292 19.6688ZM116.292 18.1499C116.724 18.1499 117.066 18.0702 117.319 17.9108C117.582 17.7514 117.774 17.5076 117.896 17.1794C118.018 16.8513 118.079 16.4481 118.079 15.9699V15.6324C118.079 15.1542 118.018 14.751 117.896 14.4229C117.774 14.0947 117.582 13.8509 117.319 13.6916C117.066 13.5228 116.724 13.4384 116.292 13.4384C115.87 13.4384 115.528 13.5228 115.266 13.6916C115.013 13.8509 114.825 14.0947 114.703 14.4229C114.581 14.751 114.52 15.1542 114.52 15.6324V15.9699C114.52 16.4481 114.581 16.8513 114.703 17.1794C114.825 17.5076 115.013 17.7514 115.266 17.9108C115.528 18.0702 115.87 18.1499 116.292 18.1499ZM123.905 19.6688C123.155 19.6688 122.559 19.4625 122.119 19.05C121.678 18.6374 121.458 17.9717 121.458 17.0529V12.1023H123.413V16.7294C123.413 16.9732 123.441 17.1794 123.497 17.3482C123.553 17.5076 123.633 17.6389 123.736 17.742C123.849 17.8451 123.985 17.9201 124.144 17.967C124.303 18.0139 124.482 18.0373 124.678 18.0373C124.969 18.0373 125.232 17.967 125.466 17.8264C125.7 17.6857 125.883 17.4935 126.015 17.2498C126.146 16.9966 126.211 16.7153 126.211 16.4059V12.1023H128.166V19.5H126.563L126.422 18.4874H126.324C126.146 18.7218 125.935 18.9281 125.691 19.1062C125.457 19.2844 125.189 19.4203 124.889 19.5141C124.589 19.6172 124.261 19.6688 123.905 19.6688ZM132.956 19.6688C132.441 19.6688 131.977 19.6125 131.564 19.5C131.151 19.3875 130.8 19.2328 130.509 19.0359C130.219 18.8296 129.994 18.5858 129.834 18.3046C129.684 18.0233 129.609 17.7045 129.609 17.3482C129.609 17.3107 129.609 17.2732 129.609 17.2357C129.609 17.1982 129.614 17.1701 129.623 17.1513H131.508C131.508 17.1701 131.508 17.1888 131.508 17.2076C131.508 17.2263 131.508 17.2451 131.508 17.2638C131.517 17.4982 131.592 17.6904 131.733 17.8404C131.873 17.9811 132.056 18.0842 132.281 18.1499C132.516 18.2155 132.759 18.2483 133.013 18.2483C133.238 18.2483 133.453 18.2295 133.66 18.192C133.875 18.1452 134.053 18.0655 134.194 17.953C134.344 17.8404 134.419 17.6951 134.419 17.517C134.419 17.2919 134.325 17.1185 134.138 16.9966C133.96 16.8747 133.721 16.7763 133.42 16.7013C133.13 16.6263 132.811 16.5419 132.464 16.4481C132.145 16.3731 131.827 16.2887 131.508 16.195C131.189 16.0918 130.898 15.9606 130.636 15.8012C130.383 15.6418 130.176 15.4355 130.017 15.1823C129.858 14.9198 129.778 14.5917 129.778 14.1979C129.778 13.8134 129.862 13.4806 130.031 13.1993C130.2 12.9087 130.43 12.6696 130.72 12.4821C131.02 12.2945 131.367 12.1586 131.761 12.0742C132.164 11.9804 132.595 11.9336 133.055 11.9336C133.486 11.9336 133.889 11.9804 134.264 12.0742C134.639 12.1586 134.968 12.2898 135.249 12.468C135.53 12.6368 135.75 12.8524 135.91 13.1149C136.069 13.3681 136.149 13.6541 136.149 13.9728C136.149 14.0385 136.149 14.0994 136.149 14.1557C136.149 14.2119 136.144 14.2494 136.135 14.2682H134.264V14.1557C134.264 13.9869 134.213 13.8463 134.11 13.7337C134.006 13.6119 133.856 13.5181 133.66 13.4525C133.472 13.3868 133.242 13.354 132.97 13.354C132.783 13.354 132.609 13.3681 132.45 13.3962C132.3 13.4243 132.169 13.4665 132.056 13.5228C131.944 13.579 131.855 13.6494 131.789 13.7337C131.733 13.8088 131.705 13.9025 131.705 14.015C131.705 14.1744 131.77 14.3057 131.902 14.4088C132.042 14.5026 132.225 14.5823 132.45 14.6479C132.675 14.7135 132.924 14.7839 133.195 14.8589C133.533 14.9526 133.885 15.0464 134.25 15.1402C134.625 15.2245 134.972 15.3417 135.291 15.4918C135.61 15.6418 135.868 15.8574 136.065 16.1387C136.261 16.4106 136.36 16.781 136.36 17.2498C136.36 17.6998 136.271 18.0795 136.093 18.3889C135.924 18.6984 135.685 18.9468 135.375 19.1343C135.066 19.3219 134.705 19.4578 134.292 19.5422C133.88 19.6266 133.435 19.6688 132.956 19.6688ZM141.137 19.6688C140.321 19.6688 139.637 19.5328 139.084 19.2609C138.53 18.9796 138.113 18.553 137.832 17.9811C137.551 17.4091 137.41 16.6825 137.41 15.8012C137.41 14.9104 137.551 14.1838 137.832 13.6212C138.113 13.0493 138.526 12.6274 139.069 12.3555C139.623 12.0742 140.298 11.9336 141.095 11.9336C141.845 11.9336 142.478 12.0695 142.993 12.3414C143.509 12.6039 143.898 13.0165 144.161 13.579C144.423 14.1322 144.554 14.8495 144.554 15.7308V16.2371H139.393C139.412 16.6684 139.477 17.0341 139.59 17.3341C139.712 17.6342 139.895 17.8592 140.138 18.0092C140.392 18.1499 140.724 18.2202 141.137 18.2202C141.362 18.2202 141.564 18.192 141.742 18.1358C141.929 18.0795 142.089 17.9951 142.22 17.8826C142.351 17.7701 142.454 17.6295 142.529 17.4607C142.604 17.2919 142.642 17.0997 142.642 16.8841H144.554C144.554 17.3529 144.47 17.7607 144.301 18.1077C144.133 18.4546 143.898 18.7452 143.598 18.9796C143.298 19.2047 142.937 19.3781 142.515 19.5C142.103 19.6125 141.643 19.6688 141.137 19.6688ZM139.421 14.9995H142.543C142.543 14.7182 142.506 14.4745 142.431 14.2682C142.365 14.0619 142.271 13.8931 142.15 13.7619C142.028 13.6306 141.878 13.5369 141.699 13.4806C141.531 13.415 141.338 13.3821 141.123 13.3821C140.767 13.3821 140.467 13.4431 140.223 13.565C139.988 13.6775 139.806 13.8556 139.674 14.0994C139.552 14.3338 139.468 14.6338 139.421 14.9995Z" fill="white"/>
<defs>
<clipPath id="clip0_11_54980">
<rect width="31.2534" height="14.8454" fill="white" transform="translate(0 7.57812)"/>
</clipPath>
</defs>
</svg>
