<svg width="125" height="21" viewBox="0 0 125 21" fill="none" xmlns="http://www.w3.org/2000/svg">
<path d="M27.2625 0H29.8276C30.7423 0 31.1997 0.216902 31.1997 0.650705C31.1997 0.867606 31.1102 1.05493 30.9313 1.21268C30.7523 1.37042 30.5435 1.50845 30.3049 1.62676C30.0663 1.74507 29.7978 1.98169 29.4995 2.33662C29.2013 2.67183 28.9626 3.10563 28.7837 3.63803L23.2059 19.9056C23.0667 20.3592 22.5895 20.6549 21.7742 20.793C20.7998 20.9507 20.243 20.8028 20.1038 20.3493L15.5104 7.15775L11.1555 19.9056C10.9965 20.3592 10.5192 20.6549 9.72381 20.793C8.76932 20.931 8.22248 20.7831 8.08329 20.3493L2.17742 3.66761C1.99845 3.13521 1.76977 2.70141 1.49138 2.3662C1.21299 2.01127 0.964427 1.78451 0.745691 1.68592C0.54684 1.56761 0.367874 1.42958 0.208793 1.27183C0.0695978 1.11409 0 0.926761 0 0.709859C0 0.433803 0.109368 0.246479 0.328104 0.147887C0.54684 0.0492957 0.904772 0 1.4019 0H5.51811C6.37317 0 6.8007 0.226761 6.8007 0.680282C6.8007 0.916902 6.6615 1.16338 6.38311 1.41972C6.12461 1.65634 5.92576 1.90282 5.78656 2.15916C5.66725 2.39578 5.70702 2.90845 5.90587 3.69718L10.4098 16.9775L14.6454 4.70282L14.3173 3.69718C14.1383 3.16479 13.9096 2.73099 13.6312 2.39578C13.3727 2.04085 13.1341 1.80423 12.9154 1.68592C12.7165 1.56761 12.5375 1.42958 12.3785 1.27183C12.2393 1.11409 12.1697 0.926761 12.1697 0.709859C12.1697 0.433803 12.279 0.246479 12.4978 0.147887C12.7165 0.0492957 13.0744 0 13.5716 0H17.6878C18.5627 0 19.0002 0.226761 19.0002 0.680282C19.0002 0.916902 18.861 1.16338 18.5826 1.41972C18.3042 1.65634 18.0954 1.90282 17.9562 2.15916C17.817 2.39578 17.8469 2.90845 18.0457 3.69718L22.4602 16.8887L26.8747 3.66761C27.0934 2.81972 27.1431 2.27747 27.0238 2.04085C26.9045 1.80423 26.7057 1.58732 26.4273 1.39014C26.1688 1.17324 26.0395 0.946479 26.0395 0.709859C26.0395 0.23662 26.4472 0 27.2625 0Z" fill="white"/>
<path d="M42.1231 16.5338C42.4015 16.2577 42.6501 16.1986 42.8688 16.3563C43.1075 16.5141 43.1572 16.7901 43.018 17.1845C42.66 18.1113 41.8646 18.9789 40.6318 19.7873C39.4188 20.5958 37.9373 21 36.1874 21C34.0995 21 32.3993 20.3493 31.0869 19.0479C29.7944 17.7465 29.1481 16.0901 29.1481 14.0789C29.1481 11.8507 29.8839 9.98732 31.3554 8.48873C32.8269 6.97042 34.6364 6.21127 36.784 6.21127C38.4345 6.21127 39.7866 6.63521 40.8406 7.4831C41.8945 8.33099 42.5507 9.41549 42.8092 10.7366C42.9086 11.3085 42.6799 11.7028 42.1231 11.9197C39.9358 12.8268 36.8635 13.9704 32.9064 15.3507C33.2444 16.238 33.8112 16.9972 34.6066 17.6282C35.4219 18.2592 36.4161 18.5746 37.5893 18.5746C39.2796 18.5746 40.7908 17.8944 42.1231 16.5338ZM35.6804 7.86761C34.6265 7.92676 33.8012 8.37042 33.2047 9.19859C32.628 10.007 32.3397 10.9535 32.3397 12.038C32.3397 12.8268 32.4093 13.438 32.5485 13.8718C35.1335 13.0239 37.132 12.3141 38.5438 11.7423C39.0807 11.5451 39.2895 11.1803 39.1702 10.6479C38.9912 9.78028 38.5637 9.08028 37.8876 8.54789C37.2115 8.01549 36.4758 7.78873 35.6804 7.86761Z" fill="white"/>
<path d="M57.9399 16.5338C58.2183 16.2577 58.4669 16.1986 58.6856 16.3563C58.9243 16.5141 58.974 16.7901 58.8348 17.1845C58.4768 18.1113 57.6814 18.9789 56.4486 19.7873C55.2356 20.5958 53.7541 21 52.0042 21C49.9163 21 48.2161 20.3493 46.9037 19.0479C45.6112 17.7465 44.9649 16.0901 44.9649 14.0789C44.9649 11.8507 45.7007 9.98732 47.1722 8.48873C48.6437 6.97042 50.4532 6.21127 52.6008 6.21127C54.2513 6.21127 55.6034 6.63521 56.6574 7.4831C57.7113 8.33099 58.3675 9.41549 58.626 10.7366C58.7254 11.3085 58.4967 11.7028 57.9399 11.9197C55.7526 12.8268 52.6803 13.9704 48.7232 15.3507C49.0612 16.238 49.628 16.9972 50.4234 17.6282C51.2387 18.2592 52.2329 18.5746 53.4061 18.5746C55.0964 18.5746 56.6076 17.8944 57.9399 16.5338ZM51.4972 7.86761C50.4433 7.92676 49.618 8.37042 49.0215 9.19859C48.4448 10.007 48.1565 10.9535 48.1565 12.038C48.1565 12.8268 48.2261 13.438 48.3653 13.8718C50.9503 13.0239 52.9488 12.3141 54.3606 11.7423C54.8975 11.5451 55.1063 11.1803 54.987 10.6479C54.808 9.78028 54.3805 9.08028 53.7044 8.54789C53.0283 8.01549 52.2926 7.78873 51.4972 7.86761Z" fill="white"/>
<path d="M87.209 0H89.7742C90.6889 0 91.1462 0.216902 91.1462 0.650705C91.1462 0.867606 91.0568 1.05493 90.8778 1.21268C90.6988 1.37042 90.49 1.50845 90.2514 1.62676C90.0128 1.74507 89.7444 1.98169 89.4461 2.33662C89.1478 2.67183 88.9092 3.10563 88.7302 3.63803L83.1525 19.9056C83.0133 20.3592 82.536 20.6549 81.7207 20.793C80.7463 20.9507 80.1896 20.8028 80.0504 20.3493L75.4569 7.15775L71.1021 19.9056C70.943 20.3592 70.4658 20.6549 69.6704 20.793C68.7159 20.931 68.169 20.7831 68.0298 20.3493L62.124 3.66761C61.945 3.13521 61.7163 2.70141 61.4379 2.3662C61.1595 2.01127 60.911 1.78451 60.6922 1.68592C60.4934 1.56761 60.3144 1.42958 60.1553 1.27183C60.0161 1.11409 59.9465 0.926761 59.9465 0.709859C59.9465 0.433803 60.0559 0.246479 60.2747 0.147887C60.4934 0.0492957 60.8513 0 61.3484 0H65.4647C66.3197 0 66.7472 0.226761 66.7472 0.680282C66.7472 0.916902 66.608 1.16338 66.3297 1.41972C66.0712 1.65634 65.8723 1.90282 65.7331 2.15916C65.6138 2.39578 65.6536 2.90845 65.8524 3.69718L70.3564 16.9775L74.5919 4.70282L74.2638 3.69718C74.0848 3.16479 73.8562 2.73099 73.5778 2.39578C73.3193 2.04085 73.0807 1.80423 72.8619 1.68592C72.6631 1.56761 72.4841 1.42958 72.325 1.27183C72.1858 1.11409 72.1162 0.926761 72.1162 0.709859C72.1162 0.433803 72.2256 0.246479 72.4443 0.147887C72.6631 0.0492957 73.021 0 73.5181 0H77.6343C78.5093 0 78.9468 0.226761 78.9468 0.680282C78.9468 0.916902 78.8075 1.16338 78.5292 1.41972C78.2508 1.65634 78.042 1.90282 77.9028 2.15916C77.7636 2.39578 77.7934 2.90845 77.9923 3.69718L82.4068 16.8887L86.8212 3.66761C87.04 2.81972 87.0897 2.27747 86.9704 2.04085C86.8511 1.80423 86.6522 1.58732 86.3738 1.39014C86.1153 1.17324 85.9861 0.946479 85.9861 0.709859C85.9861 0.23662 86.3937 0 87.209 0Z" fill="white"/>
<path d="M104.068 18.6634C104.446 18.6239 104.635 18.762 104.635 19.0775C104.635 19.5113 104.337 19.9254 103.74 20.3197C103.163 20.7141 102.537 20.9113 101.861 20.9113C101.185 20.9113 100.678 20.7338 100.34 20.3789C100.002 20.0042 99.7431 19.4324 99.5642 18.6634C98.9278 19.4127 98.1424 19.9845 97.2078 20.3789C96.2732 20.7732 95.3485 20.9704 94.4338 20.9704C92.7237 20.9704 91.3616 20.5563 90.3474 19.7282C89.3333 18.8803 88.8262 17.8155 88.8262 16.5338C88.8262 15.1141 89.4128 13.9606 90.5861 13.0732C91.7792 12.1662 93.3501 11.7127 95.2988 11.7127C96.1539 11.7127 97.0885 11.8113 98.1026 12.0085C97.9236 11.3577 97.7646 10.8648 97.6254 10.5296C97.5061 10.1746 97.3172 9.80986 97.0586 9.43521C96.82 9.04085 96.5019 8.76479 96.1042 8.60704C95.7065 8.42958 95.2193 8.34085 94.6426 8.34085C93.4893 8.34085 92.2067 8.73521 90.7948 9.52394C90.4966 9.70141 90.248 9.70141 90.0491 9.52394C89.8702 9.34648 89.8801 9.09014 90.079 8.75493C90.4966 8.12394 91.2323 7.55211 92.2862 7.03944C93.3401 6.50704 94.5134 6.24085 95.8059 6.24085C96.6609 6.24085 97.4066 6.36901 98.043 6.62535C98.6793 6.88169 99.1963 7.25634 99.594 7.7493C99.9917 8.22254 100.31 8.72535 100.548 9.25775C100.787 9.77042 100.996 10.3718 101.175 11.062L102.607 17.0662C102.746 17.6775 102.935 18.1014 103.173 18.338C103.412 18.5549 103.71 18.6634 104.068 18.6634ZM95.5673 19.2254C96.5019 19.2254 97.347 18.9394 98.1026 18.3676C98.8781 17.7958 99.2062 17.2042 99.0869 16.593C99.067 16.4549 98.8582 15.6169 98.4605 14.0789C98.4009 13.7634 98.0827 13.5268 97.5061 13.369C96.9493 13.1915 96.3826 13.1028 95.8059 13.1028C94.6327 13.1028 93.7179 13.369 93.0617 13.9014C92.4254 14.4338 92.1172 15.1535 92.1371 16.0606C92.1769 16.9873 92.505 17.7465 93.1214 18.338C93.7378 18.9296 94.5531 19.2254 95.5673 19.2254Z" fill="white"/>
<path d="M108.346 4.28873C107.849 4.26901 107.451 4.11127 107.153 3.81549C106.855 3.5 106.726 3.11549 106.765 2.66197C106.785 2.03099 107.094 1.4493 107.69 0.916902C108.307 0.364789 108.953 0.118311 109.629 0.177466C110.086 0.197184 110.474 0.374648 110.792 0.709859C111.11 1.02535 111.259 1.40986 111.24 1.86338C111.22 2.47465 110.902 3.04648 110.285 3.57887C109.669 4.09155 109.022 4.32817 108.346 4.28873ZM107.72 16.7113L107.69 11.062C107.69 10.5493 107.611 10.1254 107.451 9.79014C107.312 9.43521 107.153 9.20845 106.974 9.10986C106.795 8.99155 106.626 8.86338 106.467 8.72535C106.328 8.56761 106.258 8.39014 106.258 8.19296C106.258 8.03521 106.318 7.89718 106.437 7.77887C106.557 7.66056 106.795 7.52254 107.153 7.36479C107.75 7.06901 108.386 6.81268 109.062 6.59577C109.758 6.35916 110.225 6.23099 110.464 6.21127C110.902 6.21127 111.12 6.46761 111.12 6.98028L111.09 11.062V16.7113C111.09 17.3423 111.16 17.8549 111.299 18.2493C111.458 18.6239 111.617 18.8704 111.776 18.9887C111.955 19.107 112.115 19.2549 112.254 19.4324C112.413 19.6099 112.492 19.8169 112.492 20.0535C112.492 20.4873 112.085 20.7042 111.269 20.7042H107.541C106.686 20.7042 106.258 20.4775 106.258 20.0239C106.258 19.7873 106.328 19.5901 106.467 19.4324C106.626 19.2549 106.795 19.107 106.974 18.9887C107.173 18.8704 107.342 18.6239 107.481 18.2493C107.64 17.8549 107.72 17.3423 107.72 16.7113Z" fill="white"/>
<path d="M123.319 17.6873C123.577 17.4901 123.796 17.4704 123.975 17.6282C124.174 17.7662 124.224 17.9732 124.124 18.2493C123.846 18.9394 123.329 19.5704 122.573 20.1423C121.837 20.7141 120.933 21 119.859 21C118.586 21 117.612 20.6254 116.936 19.8761C116.28 19.107 115.951 18.0028 115.951 16.5634V15.3507C115.951 12.0183 115.991 9.60282 116.071 8.10423H115.086C114.47 8.10423 114.162 7.88732 114.162 7.45352C114.162 7.15775 114.281 6.88169 114.52 6.62535C115.554 5.52113 116.717 4.53521 118.01 3.66761C118.367 3.43099 118.686 3.31268 118.964 3.31268C119.362 3.31268 119.541 3.56902 119.501 4.08169C119.461 4.65352 119.421 5.46197 119.382 6.50704H122.364C122.563 6.50704 122.722 6.52676 122.842 6.5662C122.961 6.58592 123.05 6.66479 123.11 6.80282C123.19 6.94085 123.209 7.13803 123.17 7.39437C123.05 8.02535 122.643 8.32113 121.947 8.28169L119.352 8.19296C119.352 8.60704 119.342 9.59296 119.322 11.1507C119.302 12.7085 119.282 14.1085 119.262 15.3507C119.242 16.5338 119.362 17.3718 119.62 17.8648C119.879 18.3577 120.376 18.6042 121.112 18.6042C121.847 18.6042 122.583 18.2986 123.319 17.6873Z" fill="white"/>
</svg>
