<svg width="143" height="36" viewBox="0 0 143 36" fill="none" xmlns="http://www.w3.org/2000/svg">
<g clip-path="url(#clip0_209_11752)">
<path d="M59.2711 5.56298C56.6056 5.56298 54.6951 6.16966 53.0821 7.62912L50.2163 10.0959C49.9647 10.2962 49.5128 10.4507 49.1581 10.1474C48.8035 9.84406 48.7577 9.49494 49.0552 9.08858L50.6167 6.77062C50.8684 6.41577 50.6682 6.01513 50.2163 6.01513H46.5441C46.0922 6.01513 45.7891 6.36998 45.7891 6.77062V29.1719C45.7891 29.624 46.1437 29.9274 46.5441 29.9274H50.3708C50.8227 29.9274 51.1258 29.5725 51.1258 29.1719V16.5404C51.1258 10.7484 55.9535 9.84406 57.8182 9.84406C61.6907 9.84406 63.1035 12.6142 63.1035 14.7261V29.1776C63.1035 29.6298 63.4581 29.9331 63.8585 29.9331H67.6852C68.1371 29.9331 68.4403 29.5782 68.4403 29.1776V14.2224C68.4403 8.88826 64.9167 5.51147 59.2825 5.51147V5.56298H59.2711Z" fill="white" fill-opacity="0.5"/>
<path d="M84.0783 5.46568C76.6308 5.46568 71.9004 9.99859 71.9004 16.1913V19.5623C71.9004 26.0584 76.6308 30.5398 84.0783 30.5398C90.6677 30.5398 95.2494 27.1687 95.7528 22.5328C95.8043 22.0291 95.4496 21.7258 94.9977 21.7258H91.274C90.9194 21.7258 90.6677 21.9261 90.5705 22.2294C90.0671 23.7404 87.8535 26.0584 84.1298 26.0584C80.406 26.0584 76.9855 23.3913 77.037 19.5623L77.0884 15.2813C77.1399 12.059 80.509 9.89557 84.1355 9.89557C87.4588 9.89557 90.6791 11.7557 90.9766 14.8291C90.9766 15.184 90.7764 15.4816 90.4217 15.5846L79.6567 17.6507C79.2048 17.7538 78.9017 18.1029 78.9017 18.6065V18.6581C78.9017 19.1102 79.3536 19.465 79.9599 19.465H95.4096C95.81 19.465 96.1646 19.1102 96.1646 18.7096V15.6819C96.1646 9.99287 91.234 5.45996 84.1412 5.45996H84.0783V5.46568Z" fill="white" fill-opacity="0.5"/>
<path d="M110.848 5.46582C104.86 5.46582 99.6773 8.93991 99.6773 13.5701C99.6773 13.9707 100.032 14.2226 100.432 14.2226H104.305C104.705 14.2226 104.957 13.9192 105.008 13.5701C105.409 11.4582 107.926 9.94722 110.694 9.94722C113.966 9.94722 116.18 11.9618 116.18 15.3844V19.5625C116.18 23.8436 113.011 25.9555 109.087 25.9555C106.015 25.9555 104.259 24.7994 104.259 22.9335C104.259 21.3253 105.117 19.9116 108.686 19.1046L113.817 17.6967C114.321 17.5479 114.521 17.1415 114.423 16.6378C114.372 16.2372 113.972 16.0827 113.565 16.0827H108.234C103.704 16.0827 99.1797 18.9501 99.1797 23.1797V23.8321C99.1797 28.1132 103.258 30.3797 107.937 30.3797C110.906 30.3797 113.474 29.2235 115.03 27.9129L117.392 25.8983C117.793 25.5434 118.147 25.5434 118.502 25.8983C118.805 26.2016 118.702 26.6022 118.45 26.9571L116.992 29.2235C116.74 29.5784 116.94 29.979 117.392 29.979H120.864C121.316 29.979 121.619 29.6242 121.619 29.2235V14.7262C121.619 9.18601 117.644 5.51161 110.9 5.51161L110.848 5.46582Z" fill="white" fill-opacity="0.5"/>
<path d="M142.297 6.01514H136.914C135.055 6.01514 133.242 7.17126 131.932 8.28159L129.821 10.0959C129.57 10.2962 129.169 10.4507 128.866 10.1989C128.511 9.94709 128.363 9.49495 128.666 9.08859L130.227 6.77062C130.479 6.41577 130.279 6.01514 129.827 6.01514H126.206C125.754 6.01514 125.451 6.36999 125.451 6.77062V29.1719C125.451 29.624 125.806 29.9274 126.206 29.9274H130.13C130.582 29.9274 130.885 29.5725 130.885 29.1719V17.6965C130.885 12.763 132.899 10.548 137.274 10.548H142.257C142.708 10.548 143.012 10.1932 143.012 9.79256V6.77062C143.012 6.31848 142.657 6.01514 142.257 6.01514H142.297Z" fill="white" fill-opacity="0.5"/>
<path d="M32.2551 -0.0229525C30.8937 -0.0229525 29.6868 0.681022 28.9832 1.79136L21.4328 12.9634C21.1812 13.3182 21.2841 13.8219 21.6845 14.0737C21.9877 14.274 22.3881 14.274 22.6398 14.0222L30.0872 7.57768C30.1902 7.47466 30.3904 7.47466 30.5391 7.57768C30.5906 7.62919 30.642 7.72649 30.642 7.778V27.9185C30.642 28.0674 30.4933 28.2219 30.3389 28.2219C30.2359 28.2219 30.1902 28.1704 30.0872 28.1189L7.59616 1.2877C6.84112 0.429194 5.78292 -0.0744629 4.67896 -0.0744629H3.87244C1.76176 -0.0744629 0 1.63683 0 3.75447V32.0966C0 34.2085 1.71028 35.9255 3.87244 35.9255C5.2338 35.9255 6.44072 35.2216 7.14428 34.1112L14.689 22.9335C14.9406 22.5786 14.8377 22.075 14.4888 21.8232C14.1856 21.6228 13.7852 21.6228 13.5335 21.8747L6.08608 28.3192C5.98312 28.4222 5.78292 28.4222 5.6342 28.3192C5.58272 28.2677 5.53124 28.1704 5.53124 28.1189V7.97832C5.53124 7.82951 5.67996 7.67498 5.8344 7.67498C5.93736 7.67498 5.98312 7.72649 6.08608 7.778L28.5771 34.6149C29.3322 35.4734 30.3904 35.9771 31.4943 35.9771H32.3008C34.4115 35.9771 36.1733 34.2658 36.1733 32.1481V3.80026C36.1733 1.68834 34.463 -0.0286759 32.3008 -0.0286759H32.2551V-0.0229525Z" fill="white" fill-opacity="0.5"/>
</g>
<defs>
<clipPath id="clip0_209_11752">
<rect width="143" height="36" fill="white"/>
</clipPath>
</defs>
</svg>
