<svg width="128" height="38" viewBox="0 0 128 38" fill="none" xmlns="http://www.w3.org/2000/svg">
<path d="M124.812 18.1246C124.812 9.8776 118.021 3.19209 109.644 3.19209C101.266 3.19209 94.4749 9.8776 94.4749 18.1246V37.8182H91.2873V18.1246C91.2873 8.14454 99.5057 0.0541033 109.644 0.0541033C119.782 0.0541033 128 8.14454 128 18.1246V37.8182H124.812V18.1246Z" fill="white"/>
<path d="M30.5573 18.9361C30.5573 21.4461 28.4904 23.4808 25.9407 23.4808C23.3911 23.4808 21.3242 21.4461 21.3242 18.9361C21.3242 16.4262 23.3911 14.3915 25.9407 14.3915C28.4904 14.3915 30.5573 16.4262 30.5573 18.9361Z" fill="white"/>
<path d="M0 1.6772C0 0.750907 0.762788 0 1.70374 0C2.64468 0 3.40747 0.750909 3.40747 1.6772V36.141C3.40747 37.0673 2.64468 37.8182 1.70374 37.8182C0.762788 37.8182 0 37.0673 0 36.141V1.6772Z" fill="white"/>
<path d="M26.5374 21.0298C25.872 20.3748 25.872 19.3128 26.5374 18.6578C27.2027 18.0029 28.2815 18.0029 28.9468 18.6578L43.3474 32.8341C44.0127 33.4891 44.0127 34.551 43.3474 35.206C42.682 35.861 41.6033 35.861 40.9379 35.206L26.5374 21.0298Z" fill="white"/>
<path d="M41.9339 18.9361C41.9339 10.2409 34.7735 3.19209 25.9407 3.19209C17.108 3.19209 9.94762 10.2409 9.94762 18.9361C9.94762 27.6313 17.108 34.6802 25.9407 34.6802C28.9393 34.6802 31.7405 33.8693 34.136 32.4591C34.8915 32.0144 35.8701 32.2568 36.3219 33.0005C36.7737 33.7441 36.5276 34.7076 35.7721 35.1523C32.8959 36.8455 29.5312 37.8182 25.9407 37.8182C15.3475 37.8182 6.75998 29.3644 6.75998 18.9361C6.75998 8.50788 15.3475 0.0541033 25.9407 0.0541033C36.534 0.0541033 45.1215 8.50788 45.1215 18.9361C45.1215 22.0368 44.3611 24.9672 43.0125 27.5521C42.6103 28.3229 41.6495 28.6268 40.8665 28.2309C40.0835 27.835 39.7747 26.8892 40.1769 26.1184C41.2995 23.9667 41.9339 21.5266 41.9339 18.9361Z" fill="white"/>
<path d="M84.1426 18.9361C84.1426 10.2409 76.9822 3.19209 68.1494 3.19209C59.3167 3.19209 52.1563 10.2409 52.1563 18.9361C52.1563 27.6313 59.3167 34.6802 68.1494 34.6802C71.4658 34.6802 74.5419 33.6883 77.0945 31.9895C79.087 30.6634 80.7599 28.9068 81.9749 26.8562C83.3527 24.531 84.1426 21.8267 84.1426 18.9361ZM87.3302 18.9361C87.3302 22.3972 86.3828 25.6451 84.7283 28.4373C83.2716 30.8958 81.2673 33.0001 78.8798 34.5891C75.8167 36.6277 72.1219 37.8182 68.1494 37.8182C57.5562 37.8182 48.9687 29.3644 48.9687 18.9361C48.9687 8.50788 57.5562 0.0541033 68.1494 0.0541033C78.7427 0.0541033 87.3302 8.50788 87.3302 18.9361Z" fill="white"/>
</svg>
