<svg width="150" height="20" viewBox="0 0 150 20" fill="none" xmlns="http://www.w3.org/2000/svg">
<path d="M13.4402 15.8134C9.6419 11.9466 5.85676 8.09289 2.04708 4.21501C2.03569 4.29363 2.02692 4.32387 2.02692 4.35412C2.04358 6.13328 1.9612 7.91548 2.15575 9.68961C2.37573 11.6905 2.80516 13.6128 3.79023 15.3184C4.90675 17.2528 6.49828 18.3748 8.44387 18.8778C9.23701 19.0824 10.0415 19.1802 10.854 19.1852C10.9179 19.1852 10.9819 19.1953 11.0625 19.2014C11.0573 19.3092 11.0538 19.3989 11.0494 19.4957H0.0313778C0.0269959 19.403 0.0243667 19.3354 0.0208611 19.2518C0.153196 19.2447 0.26888 19.2407 0.384564 19.2326C0.964736 19.1923 1.37664 18.7014 1.37839 18.032C1.38102 16.5704 1.37664 15.1088 1.37576 13.6471C1.37226 9.79142 1.36963 5.93571 1.36437 2.08C1.36437 1.92074 1.35561 1.76046 1.33808 1.60321C1.27323 1.04375 0.921793 0.643565 0.433642 0.566955C0.303936 0.546794 0.172477 0.536714 0.0305014 0.519578C-0.0229585 0.381478 -0.019453 0.288739 0.150567 0.288739C1.51599 0.289747 2.88228 0.286723 4.2477 0.295796C4.32921 0.295796 4.42298 0.368374 4.48959 0.435911C6.5123 2.48322 8.53239 4.53455 10.5534 6.58589C12.0537 8.10902 13.5541 9.63114 15.0545 11.1543C15.0817 11.1815 15.1106 11.2067 15.1614 11.2551C15.2123 11.1684 15.2605 11.0908 15.3043 11.0101C17.2017 7.51428 19.0999 4.01945 20.9938 0.519578C21.085 0.351237 21.1796 0.283699 21.3558 0.284707C23.1524 0.292771 24.949 0.289747 26.7456 0.289747H26.9936V0.517562C26.8674 0.531674 26.7456 0.54377 26.6238 0.559899C26.041 0.641549 25.6913 1.06391 25.6501 1.73929C25.6431 1.84816 25.6448 1.95803 25.6448 2.0669C25.6536 7.28344 25.6624 12.5 25.672 17.7165C25.672 17.8425 25.6764 17.9685 25.6843 18.0935C25.722 18.6711 26.0585 19.0965 26.5563 19.1883C26.7062 19.2165 26.8595 19.2235 27.0182 19.2417C27.0734 19.4272 27.0094 19.4735 26.8551 19.4725C26.2636 19.4655 25.672 19.4695 25.0804 19.4695C22.2392 19.4695 19.3988 19.4695 16.5575 19.4695C16.4401 19.4695 16.2815 19.5169 16.3428 19.2528C16.7065 19.2155 17.0772 19.1973 17.4427 19.1348C19.667 18.7548 21.0674 16.8164 21.0937 14.3618C21.1376 10.2632 21.106 6.16353 21.1051 2.06388C21.1051 2.00037 21.0964 1.93787 21.0858 1.79574C18.5189 6.50323 15.9852 11.1482 13.4411 15.8134H13.4402Z" fill="white"/>
<path d="M39.7406 19.7802C37.5808 19.7661 35.3807 19.4432 33.2726 18.509C31.7034 17.8128 30.2975 16.8282 29.1926 15.341C28.2053 14.0123 27.619 12.4808 27.4953 10.7343C27.2487 7.26572 28.4949 4.62742 30.939 2.68224C32.4415 1.48669 34.1344 0.806682 35.916 0.427332C38.7893 -0.185075 41.6591 -0.154808 44.5096 0.619025C46.3289 1.11339 48.0209 1.93767 49.4716 3.32694C51.0004 4.79187 51.9649 6.63515 52.1764 8.92941C52.4362 11.7352 51.6613 14.1293 49.8753 16.0715C48.5107 17.5556 46.8572 18.4364 45.0695 19.0145C43.3547 19.5683 41.6012 19.7742 39.7406 19.7802ZM40.7227 19.0145C42.3305 18.9812 43.6759 18.7562 44.937 18.0782C46.7598 17.0996 47.7875 15.4712 47.9499 13.1497C48.049 11.7281 47.9025 10.3318 47.5883 8.95766C46.5299 4.33484 43.2643 1.09321 39.4616 0.791548C37.8116 0.66039 36.2065 0.908582 34.6961 1.72277C33.1998 2.52889 32.2081 3.83442 31.8447 5.71704C31.6411 6.77236 31.6771 7.83575 31.7824 8.90116C32.0185 11.2892 32.7469 13.4473 34.1081 15.2855C35.8984 17.7019 38.1794 18.962 40.7218 19.0135L40.7227 19.0145Z" fill="white"/>
<path d="M65.7373 19.7714C63.6653 19.8119 61.6275 19.5348 59.6599 18.7512C57.9072 18.0535 56.3291 17.0293 55.1062 15.3821C53.8194 13.6491 53.2509 11.6278 53.3825 9.35684C53.5509 6.44278 54.8194 4.27392 56.8712 2.6632C58.4502 1.42356 60.2222 0.741052 62.088 0.367947C64.5951 -0.133571 67.1057 -0.127504 69.6075 0.417492C71.5734 0.845198 73.4226 1.61871 75.0349 3.02619C76.7218 4.4994 77.8122 6.40739 78.0648 8.86038C78.3368 11.4954 77.685 13.8078 76.0928 15.7401C74.8393 17.2618 73.2778 18.2042 71.5673 18.8473C70.1146 19.3933 68.6198 19.6794 67.0969 19.7674C66.6452 19.7937 66.1917 19.7714 65.739 19.7714H65.7373ZM66.6311 19.0545C68.2347 19.0202 69.5707 18.7927 70.8269 18.1223C72.5497 17.2032 73.5936 15.6804 73.8217 13.4903C73.9954 11.822 73.8401 10.1647 73.3805 8.57828C72.0796 4.08686 69.4988 1.28403 65.3074 0.798686C63.5837 0.599495 61.895 0.940244 60.3362 1.87857C59.0423 2.65814 58.1712 3.85026 57.7993 5.49637C57.5484 6.60558 57.5747 7.72995 57.6826 8.85735C57.9133 11.278 58.6423 13.4671 60.0213 15.3275C61.8126 17.7461 64.0942 19.007 66.632 19.0535L66.6311 19.0545Z" fill="white"/>
<path d="M80.4417 4.15977C80.4347 4.26161 80.4285 4.31001 80.4294 4.3574C80.4408 5.79329 80.4146 7.2322 80.474 8.66607C80.558 10.6868 80.9139 12.642 81.7621 14.4439C82.7835 16.6118 84.3514 17.9862 86.389 18.6759C87.4016 19.0188 88.4388 19.17 89.4925 19.1861C89.5922 19.1871 89.6919 19.1861 89.8108 19.1861C89.7986 19.3142 89.7898 19.4029 89.7811 19.4957H78.4347C78.3928 19.3243 78.4041 19.2487 78.5677 19.2396C79.408 19.1892 79.7683 18.7435 79.7692 17.7694C79.7692 12.5351 79.7692 7.30177 79.7692 2.06745C79.7692 1.01373 79.4229 0.592242 78.5056 0.530733C78.4846 0.529724 78.4636 0.522666 78.4365 0.516616C78.37 0.339147 78.4277 0.284696 78.586 0.284696C79.9336 0.28873 81.282 0.283688 82.6296 0.292763C82.7337 0.292763 82.8517 0.36133 82.9383 0.436956C85.9168 3.03849 88.8917 5.64506 91.8676 8.25063C94.1124 10.2159 96.3572 12.1822 98.6028 14.1474C98.6579 14.1958 98.7174 14.2392 98.8048 14.3098V7.20195H99.4703V19.4856C98.9543 19.4856 98.4463 19.4907 97.9391 19.4796C97.87 19.4776 97.7974 19.4019 97.7353 19.3475C92.046 14.3491 86.3575 9.34973 80.669 4.35035C80.6061 4.29489 80.5414 4.24346 80.4425 4.15977H80.4417Z" fill="white"/>
<path d="M103.312 2.67388V3.00731C102.158 3.30358 101.171 3.97145 100.237 4.7528C99.9863 4.9627 99.7716 5.23085 99.5535 5.48795C99.3406 5.73903 99.0524 5.77217 98.8685 5.51105C98.2982 4.70258 97.5299 4.20344 96.7529 3.72338C96.2597 3.41807 95.749 3.15093 95.1857 3.04849C94.9719 3.00932 95.0981 2.81951 95.0762 2.7C96.3114 2.38163 97.3573 1.67058 98.3323 0.804869C98.5207 0.638154 98.6766 0.422228 98.8387 0.218354C99.0498 -0.0477871 99.3292 -0.0829378 99.5193 0.181195C100.112 1.00171 100.901 1.50688 101.698 1.99799C102.199 2.30731 102.717 2.57647 103.312 2.67589L103.312 2.67388Z" fill="white"/>
<path d="M110.115 19.5243V6.51593H105.445V4.59665H116.897V6.51593H112.226V19.5243H110.115Z" fill="white"/>
<path d="M121.93 19.7802C120.893 19.7802 119.976 19.5456 119.179 19.0765C118.383 18.5931 117.758 17.932 117.303 17.0932C116.848 16.2544 116.62 15.2877 116.62 14.193C116.62 13.0983 116.848 12.1316 117.303 11.2928C117.758 10.454 118.383 9.80001 119.179 9.33086C119.99 8.84748 120.914 8.6058 121.952 8.6058C122.933 8.6058 123.793 8.85459 124.532 9.35218C125.271 9.83555 125.847 10.5322 126.259 11.4421C126.686 12.3377 126.899 13.3969 126.899 14.6195H118.284L118.668 14.2996C118.668 15.0531 118.817 15.7071 119.115 16.2616C119.414 16.816 119.819 17.2425 120.331 17.5411C120.843 17.8254 121.426 17.9676 122.08 17.9676C122.791 17.9676 123.381 17.8041 123.85 17.4771C124.333 17.1359 124.71 16.7094 124.98 16.1976L126.729 17.0079C126.444 17.5624 126.075 18.0529 125.62 18.4794C125.165 18.8917 124.625 19.2115 123.999 19.439C123.388 19.6665 122.698 19.7802 121.93 19.7802ZM118.796 13.34L118.39 13.0201H125.129L124.745 13.34C124.745 12.7145 124.617 12.1813 124.361 11.7406C124.106 11.2857 123.764 10.9445 123.338 10.717C122.911 10.4753 122.435 10.3545 121.909 10.3545C121.397 10.3545 120.9 10.4753 120.416 10.717C119.947 10.9445 119.556 11.2786 119.243 11.7193C118.945 12.16 118.796 12.7002 118.796 13.34Z" fill="white"/>
<path d="M133.763 19.7802C132.697 19.7802 131.751 19.5456 130.926 19.0765C130.102 18.5931 129.455 17.932 128.986 17.0932C128.531 16.2544 128.304 15.2877 128.304 14.193C128.304 13.0983 128.531 12.1316 128.986 11.2928C129.455 10.454 130.095 9.80001 130.905 9.33086C131.73 8.84748 132.668 8.6058 133.72 8.6058C134.758 8.6058 135.689 8.84748 136.514 9.33086C137.353 9.81423 137.978 10.5037 138.39 11.3994L136.556 12.1671C136.286 11.6411 135.895 11.2288 135.383 10.9302C134.886 10.6317 134.31 10.4824 133.656 10.4824C133.016 10.4824 132.448 10.6388 131.95 10.9516C131.453 11.2643 131.062 11.7051 130.777 12.2737C130.493 12.8282 130.351 13.468 130.351 14.193C130.351 14.9181 130.493 15.5578 130.777 16.1123C131.062 16.6667 131.46 17.1075 131.971 17.4344C132.483 17.7472 133.059 17.9036 133.699 17.9036C134.353 17.9036 134.936 17.7401 135.447 17.4131C135.959 17.0719 136.343 16.617 136.599 16.0483L138.454 16.7947C138.042 17.733 137.416 18.4652 136.578 18.9912C135.753 19.5172 134.815 19.7802 133.763 19.7802Z" fill="white"/>
<path d="M140.48 19.5243V4.59665H142.485V19.5243H140.48ZM147.859 19.5243V14.0651H149.863V19.5243H147.859ZM147.859 14.0651C147.859 13.0983 147.745 12.3661 147.517 11.8686C147.29 11.3568 146.977 11.0013 146.579 10.8023C146.195 10.6033 145.754 10.4966 145.257 10.4824C144.375 10.4824 143.693 10.7881 143.21 11.3994C142.726 12.0107 142.485 12.8708 142.485 13.9798H141.632C141.632 12.8566 141.795 11.897 142.122 11.1009C142.463 10.2905 142.94 9.67206 143.551 9.24555C144.176 8.81905 144.916 8.6058 145.769 8.6058C146.607 8.6058 147.333 8.7764 147.944 9.1176C148.555 9.45881 149.031 9.99194 149.373 10.717C149.714 11.4278 149.877 12.3661 149.863 13.5319V14.0651H147.859Z" fill="white"/>
</svg>
