<svg width="150" height="35" viewBox="0 0 150 35" fill="none" xmlns="http://www.w3.org/2000/svg">
<path fill-rule="evenodd" clip-rule="evenodd" d="M16.9681 0.00268879C18.3973 -0.0233193 19.7485 0.158738 21.0997 0.522852C22.2171 0.834949 23.8801 1.45914 24.8156 1.9533C25.751 2.42145 27.1802 3.33173 27.9857 3.98193C28.8172 4.63214 30.0385 5.90654 30.6881 6.81682C31.3637 7.7011 32.2212 9.13155 32.611 9.98981C33.0268 10.8481 33.5465 12.3045 33.7803 13.2408C34.1181 14.5152 34.1961 15.6856 34.1181 17.9223C34.0402 20.3411 33.8843 21.2773 33.3126 22.8638C32.9228 23.9302 32.2212 25.4647 31.7535 26.2449C31.3118 27.0251 30.0905 28.4816 29.1031 29.4959C27.8558 30.7443 26.6345 31.6546 25.2053 32.3828C24.062 32.981 22.2171 33.7092 21.0997 34.0213C19.8265 34.3594 18.3193 34.5675 16.9421 34.5675C15.3051 34.5675 14.2397 34.3854 12.3428 33.7873C10.9916 33.3711 9.12069 32.5909 8.21122 32.0447C7.30175 31.4985 5.74266 30.1721 4.70326 29.1058C3.68985 28.0395 2.49455 26.453 2.02682 25.5947C1.58508 24.7364 0.935455 23.2019 0.623637 22.2136C0.129924 20.7052 0 19.8469 0 17.2721C0 14.6973 0.129924 13.839 0.623637 12.3305C0.935455 11.3422 1.58508 9.80776 2.02682 8.94949C2.52053 7.98719 3.66387 6.55674 5.06705 5.1523C6.73008 3.46177 7.74349 2.70754 9.22463 1.97931C10.29 1.45914 11.979 0.808941 12.9924 0.522852C14.0318 0.236762 15.7468 0.0286969 16.9421 0.00268879H16.9681ZM42.7971 5.17831C43.5247 5.17831 43.9924 5.36036 44.4601 5.82851C44.8239 6.19263 45.1097 6.7648 45.1097 7.12892C45.1097 7.51904 44.7719 8.11723 44.2522 8.61138C43.5247 9.3136 43.2908 9.41763 42.5112 9.26159C42.0175 9.15755 41.3939 8.81945 41.1341 8.50735C40.8742 8.16924 40.6663 7.59706 40.6663 7.23295C40.6403 6.84283 40.9002 6.24464 41.212 5.85452C41.6278 5.33436 41.9916 5.17831 42.7971 5.17831ZM67.6386 5.17831C68.1063 5.17831 69.0418 5.28234 69.7174 5.43839C70.419 5.56843 71.1985 5.85452 71.4844 6.06258C72.0041 6.40069 72.0041 6.45271 71.5363 7.62307C71.1985 8.55937 70.9907 8.79344 70.6269 8.6634C70.393 8.55937 69.6654 8.42933 69.0158 8.37731C68.1583 8.27328 67.7166 8.3513 67.3788 8.6634C67.0929 8.92348 66.937 9.46965 66.937 11.1602H70.8348V14.2812H66.937V31.1864H63.0393V19.8729C63.0393 10.9001 63.1173 8.37731 63.4031 7.72711C63.585 7.25896 63.9748 6.66077 64.2346 6.4267C64.5204 6.16662 65.196 5.8025 65.7677 5.59444C66.3394 5.36037 67.1969 5.20432 67.6386 5.17831ZM56.0234 10.7961C56.673 10.8741 57.5565 11.1602 57.9722 11.4203C58.388 11.6803 58.9857 12.3305 59.2715 12.8767C59.7392 13.813 59.7912 14.4112 59.7912 25.3346L56.0234 25.4647L55.9974 20.6011C55.9714 17.8963 55.8935 15.4255 55.7895 15.0614C55.6856 14.6973 55.3218 14.2551 54.984 14.0471C54.4123 13.709 54.2044 13.709 53.4509 14.0471C52.9832 14.2551 52.4375 14.6453 52.2816 14.9314C52.1257 15.2435 51.9438 17.4802 51.7359 25.3346L47.9681 25.4647V19.5608C47.9681 16.2838 47.8901 13.0848 47.5783 11.1602H49.1894C50.6965 11.1602 50.8524 11.2122 51.3461 12.4606L52.1776 11.8364C52.6454 11.4983 53.4509 11.0822 53.9446 10.9261C54.4383 10.7961 55.3738 10.718 56.0234 10.7961ZM78.7601 10.7961C79.4617 10.8741 80.5271 11.1342 81.0988 11.3943C81.6705 11.6543 82.45 12.2265 82.8398 12.6687C83.2555 13.1368 83.7492 14.1771 83.9831 15.0094C84.2949 16.0497 84.3729 17.116 84.2949 18.5725C84.217 20.0029 83.9831 21.0953 83.5414 22.0576C83.2036 22.8378 82.5539 23.7741 82.1382 24.1382C81.7224 24.5284 80.8389 25.0485 80.1893 25.3086C79.3318 25.6467 78.5003 25.7507 77.1491 25.6727C75.59 25.6207 75.1223 25.4647 74.1608 24.8145C73.3813 24.2683 72.8096 23.5661 72.2639 22.4737C71.5883 21.0693 71.5104 20.6532 71.5104 18.4425C71.5104 16.4398 71.6143 15.7376 72.082 14.6713C72.4198 13.9691 72.9915 13.0328 73.3813 12.6426C73.771 12.2265 74.3947 11.7324 74.7845 11.5243C75.2002 11.3162 75.9538 11.0561 76.4735 10.9261C77.0192 10.7701 78.0326 10.718 78.7601 10.7961ZM75.9538 15.3995C75.59 16.2318 75.486 16.986 75.564 18.5725C75.616 19.7169 75.8239 20.9913 76.0317 21.4334C76.2396 21.8495 76.7333 22.3697 77.1231 22.6038C77.6428 22.8899 78.0066 22.9419 78.5523 22.7338C78.968 22.5778 79.4617 22.0836 79.7216 21.5634C80.0594 20.8872 80.1893 20.0029 80.1893 18.1824C80.2153 16.0237 80.1373 15.5816 79.5917 14.8013C79.1239 14.0991 78.8121 13.865 78.1105 13.839C77.6168 13.787 77.0192 13.891 76.8113 14.0211C76.6034 14.1771 76.2136 14.7753 75.9538 15.3995ZM40.9522 11.1602H44.8499V25.4647H40.9522V11.1602Z" fill="white"/>
<path fill-rule="evenodd" clip-rule="evenodd" d="M143.774 5.72446C144.657 5.69845 145.255 5.82849 145.515 6.08857C145.801 6.37466 145.905 7.07688 145.905 11.1602L149.413 11.2902V14.1511L145.905 14.2811V18.0523C145.905 21.3033 145.957 21.8755 146.372 22.2396C146.71 22.5777 147.1 22.6297 149.413 22.3437L149.776 23.462C149.958 24.0602 150.062 24.7104 149.958 24.8664C149.88 25.0485 149.127 25.3866 148.321 25.6207C147.334 25.8808 146.398 25.9848 145.645 25.8808C144.995 25.7767 144.086 25.4906 143.592 25.2566C143.098 25.0225 142.501 24.3983 142.241 23.9041C141.851 23.0979 141.773 22.0316 141.695 14.4892C141.643 7.18091 141.695 5.98454 142.007 5.88051C142.215 5.80248 143.02 5.72446 143.774 5.72446ZM94.0649 10.796C95.0783 10.8741 96.5075 11.1081 98.6123 11.6803V31.1864H94.4547V24.9445L93.2334 25.4906C92.4279 25.8548 91.6743 26.0108 91.0766 25.9328C90.5829 25.8548 89.6994 25.5947 89.1538 25.3086C88.5821 25.0485 87.8025 24.3983 87.3868 23.9041C86.997 23.41 86.6072 22.7598 86.5553 22.4737C86.5033 22.1876 86.3474 21.4854 86.1915 20.9132C86.0356 20.341 85.9316 19.2747 85.9316 18.5725C85.9316 17.8442 86.1655 16.5438 86.4254 15.6336C86.7372 14.5932 87.2569 13.6569 87.9065 12.9547C88.4262 12.3565 89.2317 11.7063 89.6475 11.4723C90.0892 11.2382 90.8428 10.9781 91.3365 10.8741C91.8302 10.77 93.0775 10.744 94.0649 10.796ZM90.9467 14.9313C90.6349 15.3735 90.3231 16.3618 90.2191 17.2201C90.1152 18.0263 90.1152 19.1967 90.1932 19.7949C90.2711 20.4191 90.453 21.1993 90.5829 21.5634C90.7129 21.9275 91.0766 22.3437 91.3885 22.4737C91.7263 22.6297 92.22 22.7338 92.5058 22.7338C92.7916 22.7078 93.3373 22.4997 93.7531 22.2656L94.4547 21.8235C94.4547 14.0991 94.4547 14.0211 93.883 13.891C93.5452 13.813 93.1814 13.787 93.0255 13.787C92.8956 13.813 92.4798 13.891 92.142 13.995C91.7782 14.0991 91.2585 14.5152 90.9467 14.9313ZM123.688 10.796C124.675 10.8741 125.533 11.1081 126.026 11.4462C126.468 11.7323 127.014 12.3305 127.274 12.7467C127.533 13.2148 127.715 14.0211 127.715 14.8793C127.715 15.7809 127.542 16.5178 127.196 17.09C126.91 17.5322 126.286 18.1824 125.844 18.5205C125.377 18.8586 124.571 19.2487 124.077 19.4047C123.584 19.5608 122.518 19.7689 121.739 19.8729C120.362 20.0289 120.31 20.0549 120.44 20.7051C120.518 21.0693 120.881 21.6674 121.297 22.0056C121.687 22.3176 122.258 22.6037 122.596 22.6297C122.908 22.6558 123.454 22.6297 123.818 22.6037C124.181 22.5777 124.935 22.3437 125.507 22.0576C126.078 21.7975 126.624 21.6414 126.754 21.6935C126.858 21.7715 127.118 22.2656 127.326 22.8118C127.559 23.332 127.715 23.9302 127.715 24.1122C127.715 24.2683 127.274 24.6584 126.754 24.9185C126.208 25.1785 125.065 25.5687 124.207 25.7507C122.908 26.0108 122.362 26.0108 120.985 25.6987C119.79 25.4386 119.036 25.0745 118.283 24.4243C117.711 23.9302 116.958 22.9418 116.646 22.2136C116.126 21.0953 116.048 20.5491 116.126 18.4424C116.178 16.4398 116.308 15.7116 116.828 14.6713C117.165 13.969 117.841 13.0067 118.309 12.5386C118.751 12.0704 119.452 11.5503 119.868 11.3942C120.258 11.2382 120.933 11.0041 121.349 10.8741C121.791 10.77 122.83 10.718 123.688 10.796ZM120.777 14.7753C120.621 15.0094 120.362 15.6336 120.206 16.1537C119.946 17.09 119.946 17.142 120.518 17.142C120.829 17.142 121.505 17.012 121.999 16.8559C122.492 16.6739 123.168 16.3098 123.506 15.9977C123.818 15.7116 124.077 15.2174 124.077 14.9313C124.077 14.6452 123.948 14.2551 123.766 14.0731C123.584 13.891 123.142 13.761 122.778 13.761C122.414 13.761 121.895 13.917 121.609 14.0731C121.323 14.2291 120.959 14.5672 120.777 14.7753ZM135.381 10.8221C136.238 10.8741 137.408 11.1602 137.979 11.4202C138.551 11.7063 139.201 12.0965 139.409 12.3305C139.746 12.6686 139.746 12.8247 139.46 13.3188C139.279 13.6309 138.889 14.1511 138.109 15.0614L136.758 14.4112C136.004 14.0471 135.121 13.761 134.809 13.761C134.471 13.761 133.978 13.891 133.692 14.0211C133.38 14.1771 133.172 14.5412 133.172 14.9313C133.172 15.3475 133.432 15.7896 133.9 16.1017C134.289 16.4138 134.757 16.6479 134.939 16.6219C135.095 16.6219 135.875 16.908 136.628 17.2461C137.356 17.5842 138.343 18.2344 138.759 18.6765C139.46 19.4307 139.538 19.6908 139.538 21.1213C139.538 22.2916 139.383 22.9679 138.993 23.6441C138.681 24.1642 137.953 24.8144 137.304 25.1265C136.68 25.4386 135.641 25.7767 134.991 25.8808C134.315 25.9848 133.146 25.9068 132.263 25.7247C131.405 25.5427 130.262 25.1785 129.742 24.8925C128.937 24.5023 128.781 24.3203 128.911 23.8261C128.989 23.514 129.196 22.8638 129.352 22.3957C129.534 21.9275 129.794 21.5634 129.924 21.5634C130.08 21.5634 130.885 21.8495 131.743 22.1876C132.626 22.5517 133.64 22.7598 134.082 22.7078C134.523 22.6558 135.017 22.4477 135.199 22.2916C135.407 22.1096 135.511 21.6674 135.459 21.3033C135.407 20.8612 135.095 20.5231 134.471 20.211C133.978 19.9769 132.912 19.5348 132.133 19.2487C131.353 18.9626 130.444 18.4424 130.158 18.1303C129.846 17.7922 129.43 17.09 129.248 16.5438C128.937 15.7376 128.937 15.3735 129.222 14.3332C129.404 13.6569 129.872 12.7727 130.262 12.3825C130.652 11.9664 131.197 11.4983 131.483 11.3422C131.769 11.1862 132.419 10.9781 132.912 10.8741C133.406 10.77 134.523 10.744 135.381 10.8221ZM105.628 11.1602L105.706 16.5178C105.758 21.5374 105.784 21.9015 106.278 22.2396C106.564 22.4477 107.057 22.6037 107.395 22.6037C107.733 22.6037 108.357 22.2656 109.526 21.0433V11.1602L113.554 11.2902L113.683 25.4646H111.994C110.565 25.4646 110.305 25.3866 110.305 24.9965C110.305 24.7624 110.227 24.4763 110.124 24.3463C109.994 24.2423 109.63 24.4503 109.266 24.7884C108.902 25.1265 108.045 25.5166 107.317 25.6727C106.382 25.8548 105.68 25.8548 104.823 25.6467C104.173 25.4646 103.367 25.1005 103.03 24.8144C102.692 24.5283 102.224 23.8261 101.99 23.2539C101.601 22.3957 101.523 21.3553 101.471 17.142C101.445 14.3592 101.523 11.8624 101.601 11.6023C101.756 11.2382 102.094 11.1602 105.628 11.1602Z" fill="white"/>
<path fill-rule="evenodd" clip-rule="evenodd" d="M10.3422 5.95872C10.8619 5.93272 11.3556 6.14078 11.6934 6.50489C12.0312 6.843 12.1871 7.36316 12.1611 7.85732C12.1352 8.37748 11.8753 8.87164 11.5115 9.15773C11.1737 9.41781 10.706 9.62587 10.4721 9.59986C10.2123 9.59986 9.74456 9.46982 9.43274 9.31377C9.09493 9.13172 8.75713 8.87164 8.65319 8.71559C8.54925 8.55954 8.44531 8.1174 8.44531 7.72728C8.44531 7.31115 8.67918 6.76498 8.96501 6.47889C9.27683 6.16679 9.8485 5.95872 10.3422 5.95872ZM20.6582 10.9523C21.3078 10.9523 22.5811 11.1343 25.2056 11.8106L25.3355 29.106L21.8275 28.9759L21.6976 23.3842L20.8661 23.8003C20.2684 24.0864 19.5668 24.1904 18.5794 24.1124C17.6959 24.0604 16.8384 23.8003 16.3707 23.4882C15.9549 23.1761 15.3053 22.3699 14.9415 21.6676C14.4218 20.6273 14.3179 20.0031 14.2919 18.1825C14.2919 16.7261 14.4478 15.5817 14.7337 14.8015C14.9935 14.0473 15.6171 13.215 16.4227 12.5128C17.0983 11.9146 18.0857 11.3164 18.5794 11.1864C19.0731 11.0563 20.0086 10.9523 20.6582 10.9523ZM8.44531 11.4204H12.0832V23.9043L8.57524 23.7743L8.44531 11.4204Z" fill="#2D2D2D"/>
<path d="M17.8005 16.3614C17.9824 15.295 18.2682 14.7489 18.8399 14.2287C19.3596 13.7606 19.9313 13.5005 20.4769 13.5005C20.9187 13.5005 21.4644 13.6305 21.6463 13.8126C21.8541 14.0467 21.9581 15.035 21.9581 17.0116C21.9581 18.7801 21.8282 20.1066 21.6203 20.5227C21.4384 20.8868 20.9966 21.3289 20.6588 21.485C20.1911 21.7191 19.7754 21.7451 19.2297 21.563C18.7619 21.407 18.3202 21.0428 18.1383 20.6007C17.9824 20.2106 17.7745 19.4043 17.6706 18.8322C17.5926 18.26 17.6446 17.1416 17.8005 16.3614Z" fill="white"/>
</svg>
