<svg width="127" height="37" viewBox="0 0 127 37" fill="none" xmlns="http://www.w3.org/2000/svg">
<path d="M26.1168 35.8445H19.7755L13.058 26.2788L6.28675 35.8445H-0.000831356L9.51114 22.517L0.536568 9.88807H6.87789L13.058 18.7014L19.1843 9.88807H25.5257L16.5511 22.517L26.1168 35.8445ZM49.6062 35.8445H27.5191V-8.38594e-05H33.8067V30.3093H49.6062V35.8445ZM73.4042 35.8445H67.7615V33.05C65.7552 35.3429 62.9607 36.4894 59.3781 36.4894C57.0135 36.4894 54.9176 35.737 53.0905 34.2323C51.2633 32.6917 50.3497 30.578 50.3497 27.891C50.3497 25.1323 51.2454 23.0365 53.0367 21.6034C54.8639 20.1703 56.9777 19.4538 59.3781 19.4538C63.0682 19.4538 65.8627 20.5644 67.7615 22.7857V18.9164C67.7615 17.4117 67.2062 16.2294 66.0956 15.3696C64.9849 14.5097 63.516 14.0798 61.6889 14.0798C58.7869 14.0798 56.2253 15.1725 54.0041 17.3579L51.6932 13.4349C54.631 10.6404 58.2674 9.24319 62.6025 9.24319C65.791 9.24319 68.3885 9.99555 70.3948 11.5003C72.4011 13.005 73.4042 15.3875 73.4042 18.6477V35.8445ZM61.5814 32.6201C64.4117 32.6201 66.4717 31.7244 67.7615 29.9331V26.0101C66.4717 24.2187 64.4117 23.3231 61.5814 23.3231C59.9692 23.3231 58.6436 23.753 57.6046 24.6128C56.5657 25.4727 56.0462 26.6012 56.0462 27.9984C56.0462 29.3957 56.5657 30.5242 57.6046 31.3841C58.6436 32.2081 59.9692 32.6201 61.5814 32.6201ZM83.6757 28.0522C84.2847 29.0195 85.2162 29.8435 86.4701 30.5242C87.7599 31.1691 89.0497 31.4915 90.3394 31.4915C92.5607 31.4915 94.3341 30.7034 95.6597 29.127C97.0211 27.5148 97.7018 25.4368 97.7018 22.8931C97.7018 20.3495 97.0211 18.2715 95.6597 16.6593C94.3341 15.0471 92.5607 14.241 90.3394 14.241C89.0497 14.241 87.7778 14.5814 86.5239 15.2621C85.27 15.9428 84.3206 16.7847 83.6757 17.7878V28.0522ZM83.6757 35.8445H78.033V-8.38594e-05H83.6757V13.4887C85.7894 10.6583 88.566 9.24319 92.0054 9.24319C95.3731 9.24319 98.1317 10.4971 100.281 13.005C102.431 15.477 103.506 18.7731 103.506 22.8931C103.506 27.0849 102.431 30.3988 100.281 32.835C98.1317 35.2713 95.3731 36.4894 92.0054 36.4894C88.6018 36.4894 85.8253 35.0921 83.6757 32.2976V35.8445ZM115.439 36.4894C110.781 36.4894 107.073 35.1459 104.315 32.4589L106.894 28.3746C107.862 29.3778 109.169 30.2376 110.817 30.9541C112.465 31.6707 114.095 32.0289 115.708 32.0289C117.356 32.0289 118.61 31.7065 119.469 31.0616C120.365 30.4167 120.813 29.5748 120.813 28.5358C120.813 27.6044 120.276 26.8878 119.201 26.3862C118.126 25.8488 116.818 25.4368 115.278 25.1502C113.737 24.8278 112.197 24.4516 110.656 24.0217C109.116 23.5559 107.808 22.7498 106.733 21.6034C105.658 20.4569 105.121 18.9701 105.121 17.143C105.121 14.9217 106.034 13.0587 107.862 11.554C109.689 10.0135 112.179 9.24319 115.331 9.24319C119.308 9.24319 122.676 10.4613 125.435 12.8975L123.07 16.8743C122.246 15.9428 121.153 15.1904 119.792 14.6172C118.43 14.044 116.962 13.7574 115.385 13.7574C113.916 13.7574 112.734 14.0619 111.838 14.6709C110.979 15.2442 110.549 15.9965 110.549 16.928C110.549 17.6445 110.925 18.2357 111.677 18.7014C112.465 19.1313 113.433 19.4538 114.579 19.6687C115.761 19.8837 117.033 20.1882 118.395 20.5823C119.756 20.9406 121.01 21.3705 122.156 21.8721C123.339 22.3737 124.306 23.1977 125.058 24.3441C125.847 25.4548 126.241 26.8162 126.241 28.4284C126.241 30.7929 125.291 32.7276 123.392 34.2323C121.494 35.737 118.842 36.4894 115.439 36.4894Z" fill="#F2F2F2"/>
</svg>
