<svg width="143" height="58" viewBox="0 0 143 58" fill="none" xmlns="http://www.w3.org/2000/svg">
<g clip-path="url(#clip0_209_11785)">
<path d="M10.9532 37.1021V40.1593H15.1394V48.1952H0.218798C-0.885858 48.1952 -1.78906 47.2919 -1.78906 46.1873V13.5479C-1.78906 12.4432 -0.885858 11.54 0.218798 11.54H15.1616V19.5604H10.9532V22.6176H7.57506V37.0977H10.9532V37.1021Z" fill="#858585"/>
<path d="M22.21 22.6218H10.9531V37.1019H22.21V22.6218Z" fill="#858585"/>
<path d="M35.2008 13.5506V46.1899C35.2008 47.2946 34.2976 48.1978 33.1929 48.1978H18V40.1619H22.2083V37.1047H25.447V22.6247H22.2083V19.5675H18.0221V11.5471H33.1907C34.2953 11.5471 35.1985 12.4503 35.1985 13.555L35.2008 13.5506Z" fill="#858585"/>
<path d="M47.7465 46.3976C46.5001 46.3976 45.5283 46.0899 44.8354 45.4723C44.1403 44.8568 43.7949 43.9448 43.7949 42.7405V37.6821H42.0527V34.9194H43.7949V34.4943L45.1985 31.9441H46.7702V34.9194H49.4046V37.6821H46.7702V42.2734C46.7702 43.181 47.182 43.6326 48.0033 43.6326H49.2142V46.3954H47.7487L47.7465 46.3976Z" fill="#858585"/>
<path d="M51.8595 46.0897C51.1732 45.6581 50.7305 45.067 50.5312 44.3143V41.6578C50.8434 40.9074 51.357 40.3296 52.072 39.9267C52.787 39.5238 53.6703 39.3201 54.7174 39.3201C55.6671 39.3201 56.5659 39.568 57.416 40.0639V39.1917C57.416 38.1867 56.9201 37.6819 55.9283 37.6819H51.5296V34.9192H56.2272C57.7281 34.9192 58.7996 35.2667 59.4371 35.9597C60.0747 36.6548 60.3935 37.7306 60.3935 39.1895V46.393H58.0336L57.4603 44.9054C56.6943 46.1229 55.6406 46.7339 54.2946 46.7339C53.3604 46.7339 52.548 46.517 51.8617 46.0853L51.8595 46.0897ZM56.3844 43.9645C56.7319 43.845 57.0751 43.6059 57.416 43.2517V42.592C57.0751 42.2799 56.7297 42.0541 56.3755 41.9124C56.0213 41.7707 55.583 41.6999 55.0583 41.6999C54.6621 41.6999 54.3167 41.7597 54.0267 41.8814C53.7367 42.0009 53.5198 42.1758 53.3781 42.4016V43.4421C53.491 43.6679 53.6969 43.8428 53.9935 43.9623C54.2902 44.0819 54.6444 44.1438 55.0561 44.1438C55.5941 44.1438 56.0368 44.0841 56.3844 43.9623V43.9645Z" fill="#858585"/>
<path d="M67.2224 46.3028C66.607 46.0128 66.1 45.5834 65.7038 45.0166L65.0662 46.398H62.7285V29.8215H65.7038V36.0488C66.0868 35.5817 66.5716 35.2208 67.1604 34.964C67.7493 34.7095 68.4045 34.5811 69.1262 34.5811C70.501 34.5811 71.6167 34.9353 72.4734 35.6437C73.3301 36.3521 73.8946 37.3438 74.1625 38.6189V42.6989C73.8924 43.9873 73.3412 44.9834 72.5044 45.6852C71.6676 46.3869 70.6139 46.7367 69.3387 46.7367C68.5462 46.7367 67.84 46.5906 67.2246 46.3006L67.2224 46.3028ZM71.1872 41.851V39.4712C71.0168 38.7628 70.6958 38.2182 70.2198 37.8353C69.7461 37.4523 69.1528 37.2619 68.4444 37.2619C67.736 37.2619 67.1449 37.4523 66.669 37.8353C66.193 38.2182 65.872 38.7628 65.7016 39.4712V41.851C66.027 43.3253 66.9413 44.0603 68.4422 44.0603C69.9431 44.0603 70.8574 43.3231 71.1828 41.851H71.1872Z" fill="#858585"/>
<path d="M76.9572 46.0897C76.2709 45.6581 75.8281 45.067 75.6289 44.3143V41.6578C75.941 40.9074 76.4546 40.3296 77.1697 39.9267C77.8847 39.5238 78.7658 39.3201 79.8151 39.3201C80.7648 39.3201 81.6636 39.568 82.5136 40.0639V39.1917C82.5136 38.1867 82.0178 37.6819 81.026 37.6819H76.6273V34.9192H81.3249C82.8258 34.9192 83.8972 35.2667 84.5348 35.9597C85.1724 36.6548 85.4911 37.7306 85.4911 39.1895V46.393H83.1313L82.5579 44.9054C81.792 46.1229 80.7382 46.7339 79.3923 46.7339C78.4581 46.7339 77.6456 46.517 76.9594 46.0853L76.9572 46.0897ZM81.4843 43.9645C81.8318 43.845 82.1749 43.6059 82.5159 43.2517V42.592C82.1749 42.2799 81.8274 42.0541 81.4754 41.9124C81.1212 41.7707 80.6829 41.6999 80.1582 41.6999C79.762 41.6999 79.4188 41.7597 79.1266 41.8814C78.8366 42.0009 78.6197 42.1758 78.478 42.4016V43.4421C78.5909 43.6679 78.7968 43.8428 79.0934 43.9623C79.3901 44.0819 79.7443 44.1438 80.156 44.1438C80.6939 44.1438 81.1367 44.0841 81.4843 43.9623V43.9645Z" fill="#858585"/>
<path d="M89.1034 45.6867C88.2666 44.9849 87.7154 43.9909 87.4453 42.7003V38.6204C87.7132 37.3453 88.2777 36.3535 89.1344 35.6451C89.9911 34.9367 91.1068 34.5825 92.4816 34.5825C93.2033 34.5825 93.8585 34.7109 94.4474 34.9655C95.0362 35.2201 95.521 35.5809 95.904 36.0503V29.823H98.8793V46.3995H96.5416L95.904 45.0181C95.5078 45.5848 95.0008 46.0143 94.3854 46.3043C93.77 46.5943 93.0638 46.7404 92.2713 46.7404C90.9961 46.7404 89.9402 46.3906 89.1056 45.6889L89.1034 45.6867ZM95.904 41.8503V39.4705C95.7336 38.7621 95.4081 38.2175 94.9256 37.8345C94.443 37.4515 93.8497 37.2612 93.1413 37.2612C92.4329 37.2612 91.8374 37.4515 91.357 37.8345C90.8744 38.2175 90.549 38.7621 90.3785 39.4705V41.8503C90.7039 43.3246 91.6249 44.0596 93.1413 44.0596C94.6577 44.0596 95.5786 43.3224 95.904 41.8503Z" fill="#858585"/>
<path d="M102.322 45.5692C101.572 44.79 101.195 43.7141 101.195 42.3394V34.9233H104.171V41.8944C104.27 42.574 104.514 43.092 104.903 43.4462C105.293 43.8004 105.784 43.9775 106.38 43.9775C106.975 43.9775 107.527 43.796 107.952 43.4352C108.377 43.0743 108.647 42.5607 108.76 41.8944V34.9233H111.735V46.3994H109.397L108.782 44.9117C108.47 45.4917 108.025 45.9433 107.442 46.2621C106.862 46.5809 106.196 46.7403 105.446 46.7403C104.113 46.7403 103.073 46.3507 102.322 45.5714V45.5692Z" fill="#858585"/>
<path d="M118.239 46.3973C116.893 46.3973 115.861 46.0896 115.146 45.472C114.431 44.8565 114.072 43.9445 114.072 42.7402V29.8186H117.048V42.3351C117.048 42.7734 117.147 43.101 117.344 43.3136C117.543 43.5261 117.853 43.6323 118.278 43.6323H119.405V46.3951H118.236L118.239 46.3973Z" fill="#858585"/>
<path d="M121.692 46.0897C121.005 45.6581 120.563 45.067 120.363 44.3143V41.6578C120.675 40.9074 121.189 40.3296 121.904 39.9267C122.619 39.5238 123.5 39.3201 124.549 39.3201C125.499 39.3201 126.398 39.568 127.248 40.0639V39.1917C127.248 38.1867 126.752 37.6819 125.76 37.6819H121.362V34.9192H126.059C127.56 34.9192 128.632 35.2667 129.269 35.9597C129.907 36.6548 130.225 37.7306 130.225 39.1895V46.393H127.866L127.292 44.9054C126.526 46.1229 125.473 46.7339 124.127 46.7339C123.192 46.7339 122.38 46.517 121.694 46.0853L121.692 46.0897ZM126.219 43.9645C126.566 43.845 126.909 43.6059 127.25 43.2517V42.592C126.909 42.2799 126.562 42.0541 126.21 41.9124C125.856 41.7707 125.417 41.6999 124.893 41.6999C124.496 41.6999 124.153 41.7597 123.861 41.8814C123.571 42.0009 123.354 42.1758 123.212 42.4016V43.4421C123.325 43.6679 123.531 43.8428 123.828 43.9623C124.124 44.0819 124.479 44.1438 124.89 44.1438C125.428 44.1438 125.871 44.0841 126.219 43.9623V43.9645Z" fill="#858585"/>
<path d="M137.323 46.3976C136.076 46.3976 135.104 46.0899 134.412 45.4723C133.716 44.8568 133.371 43.9448 133.371 42.7405V37.6821H131.629V34.9194H133.371V34.4943L134.775 31.9441H136.346V34.9194H138.981V37.6821H136.346V42.2734C136.346 43.181 136.758 43.6326 137.579 43.6326H138.79V46.3954H137.325L137.323 46.3976Z" fill="#858585"/>
<path d="M43.1428 21.3953C43.1428 20.2331 43.4705 18.7432 44.0195 17.384L46.1225 17.9972C45.6399 18.9845 45.3344 19.9475 45.3344 20.6714C45.3344 22.3582 46.6273 22.9294 50.3973 22.9294H53.4655C57.3019 22.9294 58.6368 22.5796 58.6368 21.5923C58.6368 21.154 58.5704 20.4965 58.3734 19.4007L58.0015 17.3618L60.3901 16.9678L60.7177 19.0066C60.8483 19.7947 60.959 20.8684 60.959 21.5923C60.959 25.4929 59.1172 26.4802 51.71 26.4802C45.3544 26.4802 43.1406 25.1653 43.1406 21.3953H43.1428ZM48.6661 16.7929C48.6661 15.7635 49.2151 15.3252 49.9589 15.3252H50.3973C51.1433 15.3252 51.6901 15.7635 51.6901 16.7929C51.6901 17.8223 51.1411 18.2606 50.3973 18.2606H49.9589C49.2129 18.2606 48.6661 17.8223 48.6661 16.7929ZM52.1284 16.7929C52.1284 15.7635 52.6774 15.3252 53.4212 15.3252H53.8596C54.6056 15.3252 55.1524 15.7635 55.1524 16.7929C55.1524 17.8223 54.6034 18.2606 53.8596 18.2606H53.4212C52.6752 18.2606 52.1284 17.8223 52.1284 16.7929Z" fill="#858585"/>
<path d="M62.4947 22.9302L66.2646 19.5343L61.1797 14.7571L63.0857 12.6961L68.3456 17.6482C68.8503 17.1014 69.0473 16.5081 69.0473 15.4345V9.99976H71.6772V15.4345C71.6772 16.9686 71.1947 17.9338 69.8797 19.0938L70.6457 19.7956C71.8942 20.9799 72.3325 21.8344 72.3325 23.1494C72.3325 24.9027 71.0397 26.2176 69.3085 26.2176H62.4924V22.9302H62.4947ZM67.7324 20.8914L65.4101 22.8417L65.4323 22.9302H69.924L67.7324 20.8914Z" fill="#858585"/>
<path d="M73.7598 22.9942V21.5265H76.279V22.93H79.6328C80.6401 22.93 81.1005 22.5802 81.1005 21.7899C81.1005 21.0882 80.443 20.2779 78.7119 18.6553L76.5424 16.6385L78.7783 14.2278L80.5537 15.9811C82.7232 18.1284 83.5135 19.6182 83.5135 21.7877C83.5135 24.5704 82.0015 26.2152 79.4159 26.2152H76.9165C74.8777 26.2152 73.7598 25.2279 73.7598 22.9942Z" fill="#858585"/>
<path d="M85.5938 21.7459V9.99976H88.2237V21.3075C88.2237 22.6225 88.6841 22.9302 89.977 22.9302H90.6344V25.5601L89.977 26.2176H89.9548C87.0172 26.2176 85.5938 24.9027 85.5938 21.7459Z" fill="#858585"/>
<path d="M89.9766 23.5855L90.6341 22.928H92.9784V25.5579L92.3209 26.2154H89.9766V23.5855Z" fill="#858585"/>
<path d="M92.3242 23.5855L92.9817 22.928H95.3261V25.5579L94.6686 26.2154H92.3242V23.5855Z" fill="#858585"/>
<path d="M94.668 23.5855L95.3255 22.928H97.6698V25.5579L97.0123 26.2154H94.668V23.5855Z" fill="#858585"/>
<path d="M97.0117 23.5855L97.6692 22.928H100.014V25.5579L99.3561 26.2154H97.0117V23.5855Z" fill="#858585"/>
<path d="M99.3555 23.5855L100.013 22.928H102.357V25.5579L101.7 26.2154H99.3555V23.5855Z" fill="#858585"/>
<path d="M101.703 23.5855L102.361 22.928H104.705V25.5579L104.047 26.2154H101.703V23.5855Z" fill="#858585"/>
<path d="M104.047 23.5855L104.704 22.928H107.049V25.5579L106.391 26.2154H104.047V23.5855Z" fill="#858585"/>
<path d="M106.393 23.5855L107.05 22.928H109.394V25.5579L108.737 26.2154H106.393V23.5855Z" fill="#858585"/>
<path d="M108.738 23.5855L109.396 22.928H111.74V25.5579L111.083 26.2154H108.738V23.5855Z" fill="#858585"/>
<path d="M111.082 23.5855L111.74 22.928H114.084V25.5579L113.426 26.2154H111.082V23.5855Z" fill="#858585"/>
<path d="M113.428 23.5855L114.085 22.928H116.43V25.5579L115.772 26.2154H113.428V23.5855Z" fill="#858585"/>
<path d="M115.773 23.5855L116.431 22.928H118.775V25.5579L118.118 26.2154H115.773V23.5855Z" fill="#858585"/>
<path d="M118.117 23.5855L118.775 22.928H121.119V25.5579L120.462 26.2154H118.117V23.5855Z" fill="#858585"/>
<path d="M120.463 23.5855L121.12 22.9281H121.778C122.984 22.9281 123.531 22.4455 123.531 21.3939V18.2593H125.942V21.3939C125.942 22.4455 126.424 22.9281 127.476 22.9281H128.353V25.558L127.695 26.2155C125.373 26.2155 124.211 25.2945 123.817 23.2557H123.686C123.292 25.2945 122.349 26.2155 120.465 26.2155V23.5855H120.463ZM123.223 29.4829C123.223 28.4535 123.77 28.0152 124.516 28.0152H124.955C125.701 28.0152 126.247 28.4535 126.247 29.4829C126.247 30.5123 125.698 30.9506 124.955 30.9506H124.516C123.77 30.9506 123.223 30.5123 123.223 29.4829Z" fill="#858585"/>
<path d="M127.693 23.5855L128.351 22.928H130.695V25.5579L130.038 26.2154H127.693V23.5855Z" fill="#858585"/>
<path d="M130.039 23.5855L130.697 22.928H133.041V25.5579L132.383 26.2154H130.039V23.5855Z" fill="#858585"/>
<path d="M132.385 23.5859L133.042 22.9284H133.678C135.781 22.9284 136.374 22.5786 136.374 21.5913C136.374 21.153 136.308 20.4955 136.11 19.3997L135.739 17.3608L138.127 16.9668L138.457 19.0056C138.588 19.7937 138.698 20.8674 138.698 21.5913C138.698 24.768 137.253 26.2158 133.68 26.2158H132.387V23.5859H132.385ZM133.348 13.7458C133.348 12.7164 133.897 12.2781 134.641 12.2781H135.079C135.825 12.2781 136.372 12.7164 136.372 13.7458C136.372 14.7752 135.825 15.2135 135.079 15.2135H134.641C133.895 15.2135 133.348 14.7752 133.348 13.7458ZM136.81 13.7458C136.81 12.7164 137.359 12.2781 138.103 12.2781H138.541C139.287 12.2781 139.834 12.7164 139.834 13.7458C139.834 14.7752 139.287 15.2135 138.541 15.2135H138.103C137.357 15.2135 136.81 14.7752 136.81 13.7458Z" fill="#858585"/>
</g>
<defs>
<clipPath id="clip0_209_11785">
<rect width="142.364" height="58" fill="white"/>
</clipPath>
</defs>
</svg>
