<svg width="113" height="44" viewBox="0 0 113 44" fill="none" xmlns="http://www.w3.org/2000/svg">
<path d="M23.1069 33.9778H6.40748e-05V0.252873H23.1069V5.46077H5.91583V14.208H22.753V19.4159H5.91583V28.7699H23.1069V33.9778ZM37.2718 29.8823C38.4853 29.8823 39.6819 29.562 40.8617 28.9216C42.0415 28.2811 42.9348 27.5058 43.5415 26.5957V16.9384C42.9348 16.0282 42.0415 15.253 40.8617 14.6125C39.6819 13.9721 38.4853 13.6518 37.2718 13.6518C35.1819 13.6518 33.5134 14.4103 32.2662 15.9271C31.019 17.4103 30.3954 19.3485 30.3954 21.7418C30.3954 24.135 31.019 26.0901 32.2662 27.607C33.5134 29.1238 35.1819 29.8823 37.2718 29.8823ZM35.7044 34.5845C32.5021 34.5845 29.8898 33.4385 27.8673 31.1463C25.8785 28.8205 24.8841 25.6856 24.8841 21.7418C24.8841 17.7979 25.8785 14.6799 27.8673 12.3878C29.8898 10.0956 32.5021 8.94955 35.7044 8.94955C38.9404 8.94955 41.5527 10.2642 43.5415 12.8934V9.5563H48.8505V43.2812H43.5415V30.5901C41.5527 33.2531 38.9404 34.5845 35.7044 34.5845ZM74.9975 33.9778H69.6884V30.7418C67.3963 33.3036 64.5142 34.5845 61.0423 34.5845C55.8176 34.5845 53.2052 32.0059 53.2052 26.8485V9.5563H58.5142V24.9272C58.5142 26.7137 58.9356 27.9946 59.7783 28.7699C60.621 29.5115 61.8345 29.8823 63.4187 29.8823C64.6996 29.8823 65.8963 29.5789 67.0086 28.9721C68.121 28.3654 69.0143 27.607 69.6884 26.6968V9.5563H74.9975V33.9778ZM81.9944 6.57313C81.118 6.57313 80.3427 6.25291 79.6685 5.61245C79.0281 4.972 78.7078 4.19672 78.7078 3.2866C78.7078 2.37648 79.0281 1.6012 79.6685 0.960742C80.3427 0.320289 81.118 6.26299e-05 81.9944 6.26299e-05C82.9045 6.26299e-05 83.6798 0.320289 84.3202 0.960742C84.9607 1.6012 85.2809 2.37648 85.2809 3.2866C85.2809 4.19672 84.9607 4.972 84.3202 5.61245C83.6798 6.25291 82.9045 6.57313 81.9944 6.57313ZM84.6742 33.9778H79.3651V9.5563H84.6742V33.9778ZM102.179 34.5845C98.9433 34.5845 96.331 33.2531 94.3422 30.5901V43.2812H89.0332V9.5563H94.3422V12.8934C96.2973 10.2642 98.9096 8.94955 102.179 8.94955C105.382 8.94955 107.977 10.0956 109.966 12.3878C111.988 14.6799 113 17.7979 113 21.7418C113 25.6856 111.988 28.8205 109.966 31.1463C107.977 33.4385 105.382 34.5845 102.179 34.5845ZM100.612 29.8823C102.702 29.8823 104.37 29.1238 105.618 27.607C106.865 26.0901 107.488 24.135 107.488 21.7418C107.488 19.3485 106.865 17.4103 105.618 15.9271C104.37 14.4103 102.702 13.6518 100.612 13.6518C99.3984 13.6518 98.2018 13.9721 97.022 14.6125C95.8422 15.253 94.9489 16.0282 94.3422 16.9384V26.5957C94.9489 27.5058 95.8422 28.2811 97.022 28.9216C98.2018 29.562 99.3984 29.8823 100.612 29.8823Z" fill="#858585"/>
</svg>
