<svg width="149" height="36" viewBox="0 0 149 36" fill="none" xmlns="http://www.w3.org/2000/svg">
<path d="M62.8541 10.5745C61.0834 10.5745 59.6649 11.4848 58.8198 13.0499V11.3798C58.8198 11.0927 58.5951 10.8581 58.3201 10.8581H56.2946C56.0196 10.8581 55.7949 11.0927 55.7949 11.3798V24.2539C55.7949 24.541 56.0196 24.7756 56.2946 24.7756H58.3235C58.5985 24.7756 58.8232 24.541 58.8232 24.2539V17.2339C58.8232 15.0421 60.131 13.6206 62.1197 13.6206C64.0547 13.6206 65.3357 15.0421 65.3357 17.2339V24.2539C65.3357 24.541 65.5604 24.7756 65.8354 24.7756H67.8911C68.1661 24.7756 68.3908 24.541 68.3908 24.2539V16.8347C68.3874 12.9658 66.2613 10.5745 62.8541 10.5745Z" fill="white"/>
<path d="M78.1521 10.8616H75.1607V7.46188C75.1607 7.17477 74.936 6.94019 74.661 6.94019H72.6053C72.3303 6.94019 72.1056 7.17477 72.1056 7.46188V10.8616H70.07C69.795 10.8616 69.5703 11.0962 69.5703 11.3833V13.358C69.5703 13.6451 69.795 13.8797 70.07 13.8797H72.1056V19.5413C72.1056 23.0706 74.0674 24.9472 77.0119 24.9472C77.3674 24.9472 77.8201 24.9192 78.2192 24.8597C78.464 24.8247 78.6451 24.6041 78.6451 24.345V22.4613C78.6451 22.1567 78.3969 21.9186 78.1051 21.9431C77.9576 21.9571 77.8067 21.9606 77.6625 21.9606C76.1903 21.9606 75.154 21.2499 75.154 19.4852V13.8762H78.1454C78.4204 13.8762 78.6451 13.6416 78.6451 13.3545V11.3798C78.6518 11.0927 78.4271 10.8616 78.1521 10.8616Z" fill="white"/>
<path d="M86.5262 10.5745C82.6831 10.5745 79.6582 13.7046 79.6582 17.7451C79.6582 21.9011 82.6831 25.0592 86.5799 25.0592C89.6216 25.0592 92.026 23.3856 92.7437 20.7982C92.8275 20.4971 92.6129 20.196 92.3144 20.196H90.1648C89.9804 20.196 89.806 20.308 89.7356 20.4866C89.3365 21.5195 88.1359 22.1882 86.6369 22.1882C84.4839 22.1882 83.1224 20.9067 82.7401 18.8585H92.3748C92.7202 18.8585 93.0053 18.5749 93.022 18.2142C93.0354 17.9622 93.0422 17.6996 93.0422 17.521C93.0422 13.449 90.1246 10.5745 86.5262 10.5745ZM82.8206 16.152C83.2565 14.4434 84.5644 13.449 86.3653 13.449C88.1929 13.449 89.4706 14.5589 89.7456 16.152H82.8206Z" fill="white"/>
<path d="M102.699 10.6653C102.417 10.6127 102.129 10.5742 101.854 10.5742C100.274 10.5742 99.0468 11.3725 98.2554 12.71V11.3795C98.2554 11.0924 98.0307 10.8578 97.7557 10.8578H95.7301C95.4552 10.8578 95.2305 11.0924 95.2305 11.3795V24.2537C95.2305 24.5408 95.4552 24.7754 95.7301 24.7754H97.759C98.034 24.7754 98.2587 24.5408 98.2587 24.2537V17.3492C98.2587 14.8458 99.8382 13.4523 101.773 13.4523C102.018 13.4523 102.273 13.4803 102.528 13.5223C102.833 13.5748 103.111 13.3332 103.111 13.0111V11.1764C103.108 10.9243 102.937 10.7073 102.699 10.6653Z" fill="white"/>
<path d="M117.458 10.8298H115.402C115.127 10.8298 114.902 11.0644 114.902 11.3515V13.2212C113.95 11.5406 112.313 10.5742 110.187 10.5742C106.642 10.5742 103.809 13.7044 103.809 17.6013C103.809 21.4982 106.642 24.6598 110.187 24.6598C112.313 24.6598 113.95 23.6935 114.902 21.9849V24.5408C114.902 26.6766 113.185 28.0981 111.086 28.0981C109.349 28.0981 107.88 27.3663 107.571 26.0744C107.514 25.8433 107.316 25.6787 107.088 25.6787H105.039C104.734 25.6787 104.499 25.9623 104.546 26.2774C105.059 29.6982 108.638 30.7416 111.166 30.7416C115.036 30.7416 117.954 28.3222 117.954 24.4253V11.3515C117.957 11.0644 117.733 10.8298 117.458 10.8298ZM110.844 21.7013C108.581 21.7013 106.81 19.9086 106.81 17.6048C106.81 15.3289 108.581 13.5083 110.844 13.5083C113.162 13.5083 114.905 15.2729 114.905 17.6048C114.905 19.9646 113.158 21.7013 110.844 21.7013Z" fill="white"/>
<path d="M134.106 10.6655C133.825 10.613 133.536 10.5745 133.261 10.5745C131.682 10.5745 130.454 11.3728 129.663 12.7102V11.3798C129.663 11.0927 129.438 10.8581 129.163 10.8581H127.134C126.859 10.8581 126.635 11.0927 126.635 11.3798V24.2539C126.635 24.541 126.859 24.7756 127.134 24.7756H129.163C129.438 24.7756 129.663 24.541 129.663 24.2539V17.3494C129.663 14.846 131.243 13.4525 133.178 13.4525C133.422 13.4525 133.677 13.4805 133.932 13.5225C134.237 13.5751 134.516 13.3335 134.516 13.0114V11.1767C134.516 10.9246 134.345 10.7075 134.106 10.6655Z" fill="white"/>
<path d="M141.912 10.5745C138.016 10.5745 135.018 13.7046 135.018 17.8291C135.018 21.9536 138.016 25.0557 141.912 25.0557C145.809 25.0557 148.834 21.9536 148.834 17.8291C148.834 13.7046 145.809 10.5745 141.912 10.5745ZM141.912 22.0166C139.706 22.0166 138.016 20.196 138.016 17.8326C138.016 15.4412 139.706 13.6206 141.912 13.6206C144.119 13.6206 145.836 15.4412 145.836 17.8326C145.836 20.1925 144.119 22.0166 141.912 22.0166Z" fill="white"/>
<path d="M123.368 10.8611H121.34C121.065 10.8611 120.84 11.0957 120.84 11.3828V24.257C120.84 24.5441 121.065 24.7786 121.34 24.7786H123.368C123.643 24.7786 123.868 24.5441 123.868 24.257V11.3793C123.865 11.0922 123.643 10.8611 123.368 10.8611Z" fill="white"/>
<path d="M52.0043 10.8611H51.9775H50.1733H47.8493C47.5743 10.8611 47.3496 11.0957 47.3496 11.3828V13.501C47.3496 13.7882 47.5743 14.0227 47.8493 14.0227H49.677V24.2605C49.677 24.5476 49.9016 24.7822 50.1766 24.7822H52.2055C52.4805 24.7822 52.7052 24.5476 52.7052 24.2605V11.5858C52.7019 11.1832 52.39 10.8611 52.0043 10.8611Z" fill="white"/>
<path d="M122.378 5.01782C121.623 5.01782 121.204 5.01782 120.929 5.30493C120.654 5.59203 120.654 6.02969 120.654 6.81748C120.654 7.60527 120.654 8.04292 120.929 8.33003C121.204 8.61713 121.623 8.61713 122.378 8.61713C123.133 8.61713 123.552 8.61713 123.827 8.33003C124.102 8.04292 124.102 7.60527 124.102 6.81748C124.102 6.02969 124.102 5.59203 123.827 5.30493C123.555 5.01782 123.136 5.01782 122.378 5.01782Z" fill="white"/>
<path d="M51.1905 5.01782C50.436 5.01782 50.0168 5.01782 49.7418 5.30493C49.4668 5.59203 49.4668 6.02969 49.4668 6.81748C49.4668 7.60526 49.4668 8.04292 49.7418 8.33003C50.0168 8.61713 50.436 8.61713 51.1905 8.61713C51.9451 8.61713 52.3642 8.61713 52.6392 8.33003C52.9142 8.04292 52.9142 7.60526 52.9142 6.81748C52.9142 6.02969 52.9142 5.59203 52.6392 5.30493C52.3642 5.01782 51.9451 5.01782 51.1905 5.01782Z" fill="white"/>
<path d="M31.4898 2.84304C28.7667 5.34252e-07 24.6016 0 17.1064 0C9.61125 0 5.44615 5.34252e-07 2.72308 2.84304C5.1171e-07 5.68607 0 10.0347 0 17.86C0 25.6854 5.1171e-07 30.0339 2.72308 32.877C5.44615 35.72 9.61125 35.72 17.1064 35.72C24.6016 35.72 28.7667 35.72 31.4898 32.877C34.2128 30.0339 34.2128 25.6854 34.2128 17.86C34.2095 10.0347 34.2095 5.68607 31.4898 2.84304Z" fill="white"/>
<path d="M6.00539 11.3692C6.41116 10.9456 7.03492 10.9456 8.155 10.9456C9.27508 10.9456 9.89884 10.9456 10.3046 11.3692C10.7104 11.7929 10.7104 12.4441 10.7104 13.6135C10.7104 14.783 10.7104 15.4342 10.3046 15.8578C9.89884 16.2815 9.27508 16.2815 8.155 16.2815C7.03492 16.2815 6.41116 16.2815 6.00539 15.8578C5.59961 15.4342 5.59961 14.783 5.59961 13.6135C5.59961 12.4441 5.59961 11.7929 6.00539 11.3692Z" fill="#313131"/>
<path d="M20.0802 24.3517C19.6744 24.7754 19.0506 24.7754 17.9306 24.7754H8.155C7.03492 24.7754 6.41116 24.7754 6.00539 24.3517C5.59961 23.9281 5.59961 23.2768 5.59961 22.1074C5.59961 20.938 5.59961 20.2868 6.00539 19.8631C6.41116 19.4395 7.03492 19.4395 8.155 19.4395H17.9306C19.0506 19.4395 19.6744 19.4395 20.0802 19.8631C20.486 20.2868 20.486 20.938 20.486 22.1074C20.4893 23.2768 20.4893 23.9281 20.0802 24.3517Z" fill="#313131"/>
<path d="M28.2226 24.3517C27.8168 24.7754 27.1931 24.7754 26.073 24.7754C24.9529 24.7754 24.3291 24.7754 23.9234 24.3517C23.5176 23.9281 23.5176 23.2768 23.5176 22.1074C23.5176 20.938 23.5176 20.2868 23.9234 19.8631C24.3291 19.4395 24.9529 19.4395 26.073 19.4395C27.1931 19.4395 27.8168 19.4395 28.2226 19.8631C28.6284 20.2868 28.6284 20.938 28.6284 22.1074C28.6317 23.2768 28.6317 23.9281 28.2226 24.3517Z" fill="#313131"/>
<path d="M28.2228 15.8578C27.817 16.2815 27.1932 16.2815 26.0731 16.2815H16.2976C15.1775 16.2815 14.5537 16.2815 14.148 15.8578C13.7422 15.4342 13.7422 14.783 13.7422 13.6135C13.7422 12.4441 13.7422 11.7929 14.148 11.3692C14.5537 10.9456 15.1775 10.9456 16.2976 10.9456H26.0731C27.1932 10.9456 27.817 10.9456 28.2228 11.3692C28.6285 11.7929 28.6285 12.4441 28.6285 13.6135C28.6319 14.783 28.6319 15.4307 28.2228 15.8578Z" fill="#313131"/>
</svg>
