<svg width="175" height="40" viewBox="0 0 175 40" fill="none" xmlns="http://www.w3.org/2000/svg">
<path d="M53.8192 21.4914L56.7353 25.1681C56.971 25.452 57.0888 25.7809 57.0888 26.1545C57.0888 26.558 56.971 26.8794 56.7353 27.1185C56.4997 27.3576 56.1757 27.4772 55.7633 27.4772C55.3067 27.4473 54.9312 27.2456 54.6366 26.8719L50.7926 21.8277H46.9265V26.0424C46.9265 26.4908 46.8087 26.842 46.5731 27.0961C46.3522 27.3502 46.0355 27.4772 45.6231 27.4772C45.196 27.4772 44.8646 27.3502 44.629 27.0961C44.4081 26.842 44.2976 26.4908 44.2976 26.0424V13.7569C44.2976 13.3085 44.4228 12.9572 44.6732 12.7032C44.9236 12.4491 45.2697 12.322 45.7115 12.322H51.9635C53.5983 12.322 54.8354 12.7106 55.6749 13.4878C56.5291 14.265 56.9563 15.4084 56.9563 16.9179C56.9563 19.384 55.9106 20.8935 53.8192 21.4465V21.4914ZM46.9265 19.384H51.6984C53.4068 19.384 54.261 18.6143 54.261 17.0748C54.261 15.5354 53.4068 14.7657 51.6984 14.7657H46.9265V19.384Z" fill="white"/>
<path d="M68.6195 16.4695C69.0025 16.4695 69.3044 16.5891 69.5253 16.8282C69.7462 17.0674 69.8567 17.3887 69.8567 17.7923V26.1545C69.8567 26.573 69.7462 26.9018 69.5253 27.1409C69.3044 27.3651 69.0025 27.4772 68.6195 27.4772C68.2513 27.4772 67.9568 27.3651 67.7359 27.1409C67.5297 26.9018 67.4266 26.573 67.4266 26.1545V26.0424H67.3824C66.5282 27.0886 65.3058 27.6117 63.7151 27.6117C62.154 27.6117 60.9021 27.0961 59.9595 26.0648C59.5472 25.5716 59.2305 25.0485 59.0096 24.4955C58.7887 23.9276 58.6635 23.5165 58.634 23.2625C58.6046 23.0084 58.5751 22.5824 58.5457 21.9846C58.5457 21.1925 58.7003 20.3331 59.0096 19.4064C59.2894 18.5545 59.8712 17.8221 60.7548 17.2094C61.6385 16.5816 62.6253 16.2902 63.7151 16.335C65.3058 16.335 66.5282 16.8581 67.3824 17.9043H67.4266V17.7923C67.4266 17.3887 67.5297 17.0674 67.7359 16.8282C67.9568 16.5891 68.2513 16.4695 68.6195 16.4695ZM61.9036 24.4282C62.4927 25.041 63.2586 25.3474 64.2012 25.3474C65.1438 25.3474 65.917 25.0336 66.5208 24.4058C67.1247 23.7781 67.4266 22.971 67.4266 21.9846C67.4266 20.9832 67.1247 20.1687 66.5208 19.5409C65.9317 18.9132 65.1585 18.5993 64.2012 18.5993C63.2586 18.5993 62.4927 18.9132 61.9036 19.5409C61.3145 20.1687 61.0199 20.9832 61.0199 21.9846C61.0199 22.986 61.3145 23.8005 61.9036 24.4282Z" fill="white"/>
<path d="M78.3493 16.335C79.8073 16.335 80.9193 16.761 81.6851 17.6129C82.451 18.4648 82.8339 19.7053 82.8339 21.3344V26.1545C82.8339 26.573 82.7235 26.9018 82.5025 27.1409C82.2964 27.3651 82.0018 27.4772 81.6189 27.4772C81.2359 27.4772 80.934 27.3651 80.7131 27.1409C80.5069 26.9018 80.4038 26.573 80.4038 26.1545V21.6035C80.4038 20.632 80.1755 19.8922 79.719 19.384C79.2624 18.8609 78.5997 18.5993 77.7307 18.5993C76.8176 18.5993 76.1033 18.8983 75.5878 19.4961C75.0723 20.0939 74.8146 20.9085 74.8146 21.9397V26.1545C74.8146 26.573 74.7041 26.9018 74.4832 27.1409C74.277 27.3651 73.9825 27.4772 73.5995 27.4772C73.2166 27.4772 72.9147 27.3651 72.6938 27.1409C72.4876 26.9018 72.3845 26.573 72.3845 26.1545V17.7923C72.3845 17.3738 72.4876 17.0524 72.6938 16.8282C72.9147 16.5891 73.2166 16.4695 73.5995 16.4695C73.9825 16.4695 74.277 16.5891 74.4832 16.8282C74.7041 17.0524 74.8146 17.3738 74.8146 17.7923V17.8595H74.8588C75.6688 16.8432 76.8323 16.335 78.3493 16.335Z" fill="white"/>
<path d="M91.1658 21.2223L94.568 25.2353C94.8183 25.4894 94.9583 25.8257 94.9877 26.2442C94.9877 26.6178 94.8773 26.9167 94.6563 27.1409C94.4354 27.3651 94.1409 27.4772 93.7727 27.4772C93.3456 27.4473 92.9995 27.268 92.7344 26.9392L89.288 22.702L87.5649 24.0471V26.1545C87.5649 26.573 87.4544 26.9018 87.2335 27.1409C87.0273 27.3651 86.7327 27.4772 86.3498 27.4772C85.9669 27.4772 85.665 27.3651 85.444 27.1409C85.2379 26.9018 85.1348 26.573 85.1348 26.1545V12.8377C85.1348 12.4192 85.2379 12.0979 85.444 11.8737C85.665 11.6345 85.9669 11.515 86.3498 11.515C86.7327 11.515 87.0273 11.6345 87.2335 11.8737C87.4544 12.0979 87.5649 12.4192 87.5649 12.8377V21.2896L92.7344 16.8955C93.0289 16.6115 93.3529 16.4695 93.7064 16.4695C94.0599 16.4695 94.3397 16.5816 94.5459 16.8058C94.7668 17.03 94.8773 17.3215 94.8773 17.6802C94.892 18.0538 94.73 18.3826 94.3912 18.6666L91.1658 21.2223Z" fill="white"/>
<path d="M104.384 25.0784C104.384 25.3474 104.332 25.5641 104.229 25.7285C103.596 26.984 102.403 27.6117 100.65 27.6117C99.3837 27.6117 98.3896 27.2306 97.6679 26.4684C96.9462 25.7061 96.5854 24.645 96.5854 23.2849V14.2276C96.5854 13.8092 96.6885 13.4878 96.8947 13.2636C97.1156 13.0245 97.4175 12.9049 97.8005 12.9049C98.1834 12.9049 98.4779 13.0245 98.6841 13.2636C98.9051 13.4878 99.0155 13.8092 99.0155 14.2276V16.6041H102.683C103.066 16.6041 103.36 16.7087 103.566 16.9179C103.787 17.1122 103.898 17.3887 103.898 17.7474C103.898 18.0912 103.787 18.3677 103.566 18.5769C103.36 18.7712 103.066 18.8684 102.683 18.8684H99.0155V23.3521C99.0155 23.9799 99.1702 24.4731 99.4794 24.8318C99.7887 25.1755 100.216 25.3474 100.761 25.3474C101.482 25.3175 102.005 25.0261 102.329 24.4731C102.521 24.1443 102.83 23.9649 103.257 23.935C103.949 23.9649 104.325 24.346 104.384 25.0784Z" fill="white"/>
<path d="M111.72 16.4023C112.088 16.4023 112.383 16.5144 112.604 16.7386C112.825 16.9478 112.935 17.2467 112.935 17.6353C112.935 18.0239 112.825 18.3303 112.604 18.5545C112.383 18.7637 112.088 18.8684 111.72 18.8684C109.482 18.8684 108.362 20.1238 108.362 22.6347V26.1545C108.362 26.573 108.252 26.9018 108.031 27.1409C107.825 27.3651 107.53 27.4772 107.147 27.4772C106.764 27.4772 106.462 27.3651 106.241 27.1409C106.035 26.9018 105.932 26.573 105.932 26.1545V17.7923C105.932 17.3887 106.035 17.0674 106.241 16.8282C106.462 16.5891 106.764 16.4695 107.147 16.4695C107.53 16.4695 107.825 16.5891 108.031 16.8282C108.252 17.0674 108.362 17.3887 108.362 17.7923V18.1958H108.406C109.113 17.0001 110.218 16.4023 111.72 16.4023Z" fill="white"/>
<path d="M123.375 16.4695C123.757 16.4695 124.059 16.5891 124.28 16.8282C124.501 17.0674 124.612 17.3887 124.612 17.7923V26.1545C124.612 26.573 124.501 26.9018 124.28 27.1409C124.059 27.3651 123.757 27.4772 123.375 27.4772C123.006 27.4772 122.712 27.3651 122.491 27.1409C122.285 26.9018 122.182 26.573 122.182 26.1545V26.0424H122.137C121.283 27.0886 120.061 27.6117 118.47 27.6117C116.909 27.6117 115.657 27.0961 114.715 26.0648C114.302 25.5716 113.986 25.0485 113.765 24.4955C113.544 23.9276 113.418 23.5165 113.389 23.2625C113.36 23.0084 113.33 22.5824 113.301 21.9846C113.301 21.1925 113.455 20.3331 113.765 19.4064C114.044 18.5545 114.626 17.8221 115.51 17.2094C116.394 16.5816 117.38 16.2902 118.47 16.335C120.061 16.335 121.283 16.8581 122.137 17.9043H122.182V17.7923C122.182 17.3887 122.285 17.0674 122.491 16.8282C122.712 16.5891 123.006 16.4695 123.375 16.4695ZM116.659 24.4282C117.248 25.041 118.014 25.3474 118.956 25.3474C119.899 25.3474 120.672 25.0336 121.276 24.4058C121.88 23.7781 122.182 22.971 122.182 21.9846C122.182 20.9832 121.88 20.1687 121.276 19.5409C120.687 18.9132 119.913 18.5993 118.956 18.5993C118.014 18.5993 117.248 18.9132 116.659 19.5409C116.07 20.1687 115.775 20.9832 115.775 21.9846C115.775 22.986 116.07 23.8005 116.659 24.4282Z" fill="white"/>
<path d="M136.992 24.9663C136.992 25.2353 136.911 25.4745 136.749 25.6837C136.514 25.9826 136.227 26.2591 135.888 26.5132C134.931 27.2456 133.767 27.6117 132.397 27.6117C130.704 27.6117 129.334 27.0961 128.288 26.0648C127.773 25.5417 127.419 25.0336 127.228 24.5403C126.889 23.5838 126.72 22.7319 126.72 21.9846C126.72 21.1925 126.889 20.3405 127.228 19.4288C127.567 18.5769 128.215 17.8371 129.172 17.2094C130.129 16.5816 131.204 16.2902 132.397 16.335C134.017 16.335 135.365 16.8656 136.44 17.9268C136.661 18.151 136.772 18.4275 136.772 18.7563C136.757 19.4886 136.381 19.8772 135.645 19.922C135.365 19.922 135.1 19.8174 134.85 19.6082C134.187 18.9356 133.369 18.5993 132.397 18.5993C131.455 18.5993 130.682 18.9132 130.078 19.5409C129.489 20.1687 129.194 20.9832 129.194 21.9846C129.194 22.986 129.489 23.8005 130.078 24.4282C130.682 25.041 131.455 25.3474 132.397 25.3474C133.517 25.3474 134.356 24.9812 134.916 24.2489C135.122 23.9799 135.424 23.8304 135.822 23.8005C136.587 23.8454 136.978 24.2339 136.992 24.9663Z" fill="white"/>
<path d="M144.864 21.2223L148.266 25.2353C148.516 25.4894 148.656 25.8257 148.686 26.2442C148.686 26.6178 148.575 26.9167 148.354 27.1409C148.133 27.3651 147.839 27.4772 147.471 27.4772C147.043 27.4473 146.697 27.268 146.432 26.9392L142.986 22.702L141.263 24.0471V26.1545C141.263 26.573 141.152 26.9018 140.931 27.1409C140.725 27.3651 140.431 27.4772 140.048 27.4772C139.665 27.4772 139.363 27.3651 139.142 27.1409C138.936 26.9018 138.833 26.573 138.833 26.1545V12.8377C138.833 12.4192 138.936 12.0979 139.142 11.8737C139.363 11.6345 139.665 11.515 140.048 11.515C140.431 11.515 140.725 11.6345 140.931 11.8737C141.152 12.0979 141.263 12.4192 141.263 12.8377V21.2896L146.432 16.8955C146.727 16.6115 147.051 16.4695 147.404 16.4695C147.758 16.4695 148.038 16.5816 148.244 16.8058C148.465 17.03 148.575 17.3215 148.575 17.6802C148.59 18.0538 148.428 18.3826 148.089 18.6666L144.864 21.2223Z" fill="white"/>
<path d="M155.395 18.5321C155.042 18.5321 154.674 18.5919 154.291 18.7114C153.937 18.831 153.562 19.0402 153.164 19.3392C152.752 19.6231 152.457 20.1388 152.28 20.8861H158.444C158.267 20.1537 157.906 19.5858 157.361 19.1822C156.831 18.7637 156.176 18.547 155.395 18.5321ZM159.858 25.751C158.842 26.9915 157.391 27.6117 155.506 27.6117C153.783 27.6117 152.376 27.0961 151.286 26.0648C150.771 25.5417 150.417 25.0336 150.226 24.5403C149.887 23.5838 149.718 22.7319 149.718 21.9846C149.718 21.1925 149.887 20.3405 150.226 19.4288C150.565 18.5769 151.213 17.8371 152.17 17.2094C153.127 16.5816 154.202 16.2902 155.395 16.335C156.912 16.335 158.194 16.8208 159.239 17.7923C160.285 18.7637 160.808 19.937 160.808 21.312V21.4241C160.808 21.8725 160.675 22.2237 160.41 22.4778C160.16 22.7319 159.814 22.8589 159.372 22.8589H152.28C152.428 23.6361 152.788 24.2564 153.363 24.7197C153.952 25.183 154.666 25.4147 155.506 25.4147C156.596 25.4147 157.45 25.0485 158.068 24.3162C158.334 23.9873 158.635 23.8379 158.974 23.8678C159.725 23.8977 160.108 24.2788 160.123 25.0111C160.123 25.2802 160.035 25.5268 159.858 25.751Z" fill="white"/>
<path d="M168.482 16.4023C168.85 16.4023 169.144 16.5144 169.365 16.7386C169.586 16.9478 169.697 17.2467 169.697 17.6353C169.697 18.0239 169.586 18.3303 169.365 18.5545C169.144 18.7637 168.85 18.8684 168.482 18.8684C166.243 18.8684 165.124 20.1238 165.124 22.6347V26.1545C165.124 26.573 165.013 26.9018 164.792 27.1409C164.586 27.3651 164.292 27.4772 163.909 27.4772C163.526 27.4772 163.224 27.3651 163.003 27.1409C162.797 26.9018 162.694 26.573 162.694 26.1545V17.7923C162.694 17.3887 162.797 17.0674 163.003 16.8282C163.224 16.5891 163.526 16.4695 163.909 16.4695C164.292 16.4695 164.586 16.5891 164.792 16.8282C165.013 17.0674 165.124 17.3887 165.124 17.7923V18.1958H165.168C165.875 17.0001 166.979 16.4023 168.482 16.4023Z" fill="white"/>
<path d="M17.6143 7.25911C17.6143 6.22731 18.4386 5.39087 19.4553 5.39087C20.4721 5.39087 21.2963 6.22731 21.2963 7.25911V32.3636C21.2963 33.3954 20.4721 34.2318 19.4553 34.2318C18.4386 34.2318 17.6143 33.3954 17.6143 32.3636V7.25911Z" fill="#929292"/>
<path d="M23.8277 11.2291C23.8277 10.1973 24.6519 9.36088 25.6687 9.36088C26.6854 9.36088 27.5096 10.1973 27.5096 11.2291V28.3936C27.5096 29.4254 26.6854 30.2618 25.6687 30.2618C24.6519 30.2618 23.8277 29.4254 23.8277 28.3936V11.2291Z" fill="#929292"/>
<path d="M11.401 11.2291C11.401 10.1973 12.2252 9.36088 13.242 9.36088C14.2587 9.36088 15.083 10.1973 15.083 11.2291V28.3936C15.083 29.4254 14.2587 30.2618 13.242 30.2618C12.2252 30.2618 11.401 29.4254 11.401 28.3936V11.2291Z" fill="#929292"/>
<path d="M29.6958 14.9656C29.6958 13.9338 30.5201 13.0974 31.5368 13.0974C32.5536 13.0974 33.3778 13.9338 33.3778 14.9656V24.6571C33.3778 25.6889 32.5536 26.5253 31.5368 26.5253C30.5201 26.5253 29.6958 25.6889 29.6958 24.6571V14.9656Z" fill="#929292"/>
<path d="M5.30273 14.9656C5.30273 13.9338 6.12697 13.0974 7.14372 13.0974C8.16047 13.0974 8.98471 13.9338 8.98471 14.9656V24.6571C8.98471 25.6889 8.16047 26.5253 7.14372 26.5253C6.12697 26.5253 5.30273 25.6889 5.30273 24.6571V14.9656Z" fill="#929292"/>
</svg>
