<svg width="157" height="51" viewBox="0 0 157 51" fill="none" xmlns="http://www.w3.org/2000/svg">
<mask id="mask0_209_11879" style="mask-type:luminance" maskUnits="userSpaceOnUse" x="0" y="0" width="157" height="52">
<path d="M156.825 0.000488281H0V51.0005H156.825V0.000488281Z" fill="white"/>
</mask>
<g mask="url(#mask0_209_11879)">
<path d="M97.6222 14.3589L96.2171 17.2295H90.2632V36.6796H87.2849V17.2295H81.4844L82.8894 14.3589H97.6222Z" fill="#8F8F8F"/>
<path d="M102.393 19.8515C103.416 18.1028 104.792 16.7091 106.521 15.6681C108.25 14.6296 110.137 14.1079 112.185 14.1079C114.233 14.1079 116.094 14.6271 117.833 15.6681C119.571 16.7067 120.957 18.1028 121.992 19.8515C123.024 21.6004 123.541 23.4962 123.541 25.5317C123.541 27.567 123.029 29.4946 122.006 31.2434C120.981 32.9923 119.596 34.3786 117.847 35.3951C116.096 36.4139 114.209 36.9235 112.185 36.9235C110.162 36.9235 108.245 36.4189 106.506 35.4098C104.768 34.4031 103.392 33.0289 102.379 31.2876C101.366 29.5485 100.859 27.6282 100.859 25.5291C100.859 23.43 101.371 21.598 102.393 19.8491V19.8515ZM105.033 29.7934C105.769 31.0916 106.777 32.1203 108.058 32.8796C109.336 33.6414 110.734 34.0234 112.249 34.0234C113.763 34.0234 115.149 33.6487 116.408 32.8968C117.664 32.1448 118.658 31.116 119.386 29.8106C120.112 28.5027 120.477 27.0771 120.477 25.5341C120.477 23.991 120.109 22.5606 119.372 21.2428C118.636 19.9251 117.633 18.8865 116.364 18.1248C115.095 17.363 113.702 16.9835 112.19 16.9835C110.678 16.9835 109.285 17.3704 108.016 18.1419C106.748 18.9136 105.749 19.9593 105.024 21.2771C104.298 22.5949 103.933 24.0253 103.933 25.5683C103.933 27.1114 104.3 28.5027 105.038 29.7984L105.033 29.7934Z" fill="#8F8F8F"/>
<path d="M133.708 24.454L134.076 23.8686L143.162 14.3604H147L137.821 23.9323L147.521 36.6835H143.746L135.642 25.8477L133.769 27.6675L133.801 36.6835H130.762V15.7736L133.801 14.3604V23.3444L133.708 24.4565V24.454Z" fill="#8F8F8F"/>
<path d="M156.827 14.3576V36.6785H153.85V15.7685L156.827 14.3552V14.3576Z" fill="#8F8F8F"/>
<path d="M23.0266 15.6587L0.445312 19.3963C0.749709 21.1721 1.2197 22.9283 1.8358 24.6232C8.90023 21.635 15.9623 18.6469 23.0266 15.6587ZM23.6477 17.4662L2.81474 26.9892C3.57208 28.6205 4.47065 30.1906 5.50073 31.6601C11.5497 26.9304 17.5987 22.1983 23.6477 17.4686V17.4662ZM24.7337 19.0706L7.0495 33.6832C8.19159 35.0598 9.46519 36.3383 10.8386 37.4945C15.4703 31.3539 20.1021 25.211 24.7337 19.0706ZM26.1973 20.3515L12.8501 39.0473C14.3136 40.0883 15.8818 40.9921 17.4988 41.7538C20.3991 34.6189 23.2969 27.484 26.1973 20.3491V20.3515ZM27.9214 21.1942L19.8464 42.7336C21.5363 43.3532 23.2847 43.826 25.0552 44.1321C26.0097 36.4852 26.9668 28.8385 27.9214 21.1916V21.1942Z" fill="#8F8F8F"/>
<path d="M0.112018 16.8498C0.0438331 16.0537 0.00487035 15.2406 0 14.4324H22.8857C22.8857 14.4886 0.112018 16.8498 0.112018 16.8498Z" fill="#8F8F8F"/>
<path d="M61.0811 14.4324C61.0762 15.2406 61.0348 16.0537 60.9617 16.8498C53.3738 16.044 45.7834 15.2382 38.1953 14.4324H61.0811Z" fill="#8F8F8F"/>
<path d="M38.0466 15.6536C45.111 18.6393 52.1779 21.625 59.2424 24.6131C59.8585 22.9182 60.3284 21.1596 60.6328 19.379L38.0466 15.6536ZM37.4256 17.4611C43.477 22.1908 49.5284 26.9229 55.5799 31.6526C56.6099 30.1805 57.5133 28.6032 58.2659 26.9768L37.4256 17.4611ZM36.3443 19.0655C40.9786 25.2059 45.6102 31.3488 50.2444 37.4894C51.6129 36.3358 52.8865 35.0547 54.0286 33.6782L36.3443 19.0655ZM34.8809 20.3464C37.7835 27.4813 40.6863 34.6162 43.589 41.7511C45.206 40.9894 46.7669 40.0783 48.2329 39.0447L34.8809 20.349V20.3464ZM33.1567 21.1939C34.1162 28.8408 35.0757 36.4876 36.0351 44.1344C37.8055 43.8209 39.5515 43.3555 41.2367 42.7285L33.1543 21.1939H33.1567Z" fill="#8F8F8F"/>
<path d="M33.6991 50.8729C32.8225 50.9464 31.5903 50.9855 30.6917 50.9978H30.3872C29.4814 50.9855 28.254 50.9464 27.3848 50.8729L29.759 21.449C29.8223 20.697 29.7981 13.2119 29.0187 12.3473C28.5097 11.784 28.612 11.0345 28.7363 10.1699L29.1941 8.33777C29.8272 6.07949 30.2412 3.74282 30.4262 1.39881L30.5383 0.000244141L30.6503 1.41106C30.8378 3.75996 31.2542 6.09908 31.8898 8.36226L32.3476 10.165C32.4669 11.0345 32.574 11.7864 32.0602 12.3498C31.281 13.2144 31.2567 20.7044 31.32 21.4516L33.7015 50.8753L33.6991 50.8729Z" fill="#8F8F8F"/>
</g>
</svg>
