<svg width="93" height="65" viewBox="0 0 93 65" fill="none" xmlns="http://www.w3.org/2000/svg">
<path fill-rule="evenodd" clip-rule="evenodd" d="M34.9093 4.53259C34.8494 4.48646 34.5768 4.27675 33.588 4.68456C30.1161 6.11642 26.6454 10.3613 23.6701 16.553C22.7435 18.4812 21.8878 20.5504 21.112 22.705C23.8168 24.907 26.0624 28.5452 27.709 33.3066L27.7296 33.3662L27.7468 33.4268C29.7207 40.3905 30.4193 47.1165 29.7313 52.4898C29.0634 57.7064 26.945 62.4506 22.4882 63.9653C19.92 64.8381 17.5161 64.4388 15.663 62.7296C13.9877 61.1845 13.0286 58.8055 12.4806 56.2553C11.3715 51.0932 11.6661 43.8642 12.9432 36.4588C13.6046 32.6237 14.5408 28.6759 15.7204 24.8598C15.2489 24.7545 14.7926 24.7215 14.3585 24.7478C11.3126 24.933 7.38933 28.0071 4.23338 34.9524C3.72641 36.0681 2.41245 36.5609 1.29855 36.0532C0.184657 35.5454 -0.307357 34.2293 0.199608 33.1136C3.53309 25.7776 8.4757 20.6582 14.09 20.317C15.148 20.2527 16.1706 20.3577 17.1532 20.622C17.9221 18.5375 18.7651 16.5247 19.6767 14.6278C22.7452 8.24222 26.8265 2.67251 31.9005 0.579892C33.8461 -0.222484 35.8557 -0.277115 37.5363 0.957612C39.0259 2.05195 39.7887 3.84706 40.2364 5.54381C41.1442 8.98376 41.2099 13.9151 41.2212 18.6382C41.2223 19.1279 41.2229 19.6167 41.2234 20.1036C41.2281 24.4861 41.2327 28.7126 41.6994 32.0391C41.9592 33.8903 42.3373 35.247 42.8091 36.1222C43.237 36.9159 43.6057 37.0928 43.8997 37.1405C44.3975 37.189 44.8303 37.0498 45.3544 36.5279C45.9652 35.9195 46.5997 34.8671 47.2296 33.2936C48.3793 30.4214 49.2398 26.5559 50.1731 22.3633C50.2646 21.9521 50.3569 21.5376 50.4502 21.1207C51.4609 16.6038 52.5971 11.781 54.3387 8.18157C55.2154 6.3697 56.3287 4.68477 57.8165 3.5008C59.3725 2.26269 61.2647 1.6365 63.4397 1.89281L63.1812 4.09312M63.1812 4.09312L63.4397 1.89281C65.4644 2.13143 67.1141 2.94851 68.3147 4.32725C69.4704 5.65446 70.0468 7.31536 70.3339 8.97321C70.8768 12.1074 70.4955 16.024 70.1486 19.5875C70.1378 19.699 70.127 19.8101 70.1162 19.9209C69.7419 23.7757 69.4297 27.2615 69.8894 29.9609C70.1129 31.2733 70.495 32.2238 71.006 32.8851C71.4835 33.5028 72.1674 33.9932 73.2783 34.2512C75.3883 34.7413 77.3334 33.9454 79.2977 31.8522C81.2998 29.7187 83.0328 26.5024 84.4578 22.99C85.8678 19.5145 86.9069 15.9255 87.5951 13.1877C87.9381 11.8233 88.1915 10.6804 88.3584 9.88196C88.4419 9.48296 88.5036 9.17055 88.5441 8.96017C88.5644 8.85499 88.5793 8.77537 88.5889 8.72322L88.5995 8.66586L88.6018 8.6531C88.8168 7.44663 89.9679 6.64055 91.1725 6.85562C92.3774 7.07073 93.18 8.22339 92.9652 9.43017L90.7837 9.04069C92.9652 9.43017 92.9654 9.42949 92.9652 9.43017L92.9636 9.43931L92.96 9.45942L92.9467 9.53183C92.9352 9.59417 92.9183 9.68434 92.8959 9.80039C92.8513 10.0325 92.7849 10.3682 92.6962 10.7921C92.519 11.6394 92.2525 12.8409 91.8929 14.2716C91.1758 17.1239 90.0784 20.9273 88.5636 24.6611C87.0638 28.3581 85.0836 32.1681 82.5271 34.8924C79.9327 37.6569 76.4738 39.5502 72.2772 38.5755C70.2348 38.1011 68.6422 37.0782 67.5016 35.6025C66.3946 34.1703 65.8169 32.4474 65.5206 30.7073C64.9444 27.3238 65.343 23.22 65.6981 19.5632L65.7051 19.4911C66.0818 15.6124 66.4014 12.2386 65.9673 9.73194C65.7574 8.52034 65.4027 7.73663 64.9746 7.24502C64.5914 6.80496 64.0047 6.42904 62.9218 6.30142C61.9891 6.19151 61.2622 6.42837 60.5734 6.97645C59.8166 7.57868 59.0597 8.60308 58.3269 10.1175C56.8495 13.1708 55.8092 17.4687 54.7748 22.0915C54.6784 22.5222 54.5821 22.9559 54.4854 23.3914C53.5775 27.4782 52.6363 31.7152 51.3431 34.9456C50.6263 36.7365 49.7191 38.4408 48.4794 39.6755C47.164 40.9857 45.4446 41.7814 43.3737 41.5485L43.3445 41.5453L43.3155 41.5412C41.1916 41.2451 39.7845 39.8545 38.9094 38.2313C38.0652 36.6654 37.5964 34.6934 37.3107 32.6569C36.7978 29.002 36.7944 24.4438 36.7912 20.1376C36.7908 19.6373 36.7904 19.1404 36.7893 18.6487C36.7776 13.7504 36.6834 9.45101 35.9517 6.67815C35.5797 5.26849 35.1529 4.71167 34.9151 4.53695C34.9134 4.53574 34.9115 4.53427 34.9093 4.53259M19.5896 27.3836C18.6416 30.6207 17.8728 33.9531 17.3104 37.2143C16.074 44.3841 15.8774 50.9653 16.8133 55.3214C17.2879 57.5303 17.9854 58.8373 18.6651 59.4642C19.167 59.927 19.8164 60.1858 21.0642 59.7617C23.0055 59.1019 24.7244 56.6971 25.3354 51.9252C25.9245 47.3243 25.3489 41.2457 23.5006 34.7002C22.316 31.2925 20.9645 28.9418 19.5896 27.3836Z" fill="#939393"/>
</svg>
