<svg width="137" height="38" viewBox="0 0 137 38" fill="none" xmlns="http://www.w3.org/2000/svg">
<path d="M25.942 36.862C28.0201 32.611 32.6031 20.3837 25.472 6.01807C25.2435 5.55675 24.6831 5.37136 24.2217 5.60418C21.8203 6.79844 14.8788 11.5496 9.80859 28.0797C9.80859 28.0797 16.8578 22.8758 24.2778 36.8922C24.6356 37.5648 25.61 37.5519 25.942 36.8663V36.862Z" fill="#AEAEAE"/>
<path d="M3.37475 0.526627C1.29664 4.77769 -3.2864 17.0049 3.84471 31.3706C4.07322 31.8319 4.63369 32.0173 5.09501 31.7845C7.49648 30.5902 14.4379 25.839 19.5081 9.309C19.5081 9.309 12.4589 14.5129 5.03896 0.496457C4.68111 -0.176125 3.70673 -0.163192 3.37475 0.522325V0.526627Z" fill="#909090"/>
<path d="M42.0547 30.825V6.06445H49.41L56.1315 28.2769H56.6963V6.06445H60.4817V30.825H53.1264L46.4049 8.57801H45.8401V30.825H42.0547Z" fill="#E8E0F1"/>
<path d="M71.9755 31.3177C70.2079 31.3177 68.66 30.947 67.3407 30.2054C66.0215 29.4638 64.9867 28.4118 64.2451 27.058C63.5036 25.7043 63.1328 24.1306 63.1328 22.3371V21.9145C63.1328 20.0994 63.4993 18.5128 64.2279 17.1547C64.9565 15.8009 65.9783 14.7489 67.289 14.0074C68.5997 13.2658 70.113 12.895 71.8333 12.895C73.5535 12.895 74.9763 13.2658 76.2352 14.0074C77.4942 14.7489 78.4815 15.7837 79.1886 17.103C79.8957 18.4223 80.2492 19.9701 80.2492 21.7378V23.1174H66.845C66.8924 24.6523 67.4054 25.8724 68.3841 26.7778C69.3628 27.6875 70.583 28.1402 72.0445 28.1402C73.4113 28.1402 74.4417 27.8341 75.1401 27.2219C75.8343 26.6097 76.3732 25.9026 76.7483 25.1007L79.7534 26.6571C79.4214 27.3167 78.9471 28.0109 78.322 28.7438C77.6968 29.4768 76.8776 30.089 75.8645 30.5848C74.8513 31.0806 73.5535 31.3264 71.9755 31.3264V31.3177ZM66.8837 20.315H76.5414C76.4465 18.9957 75.9765 17.9653 75.1272 17.2194C74.2778 16.4778 73.1698 16.1027 71.8031 16.1027C70.4364 16.1027 69.3197 16.4735 68.4617 17.2194C67.5995 17.961 67.0778 18.9957 66.8881 20.315H66.8837Z" fill="#E8E0F1"/>
<path d="M80.2508 30.8262L86.899 22.018L80.3888 13.3865H84.67L89.2315 19.6467H89.7963L94.3578 13.3865H98.6736L92.1288 22.018L98.777 30.8262H94.4268L89.792 24.4237H89.2272L84.5924 30.8262H80.2422H80.2508Z" fill="#E8E0F1"/>
<path d="M107.985 31.3221C106.239 31.3221 104.691 30.9642 103.333 30.2442C101.975 29.5242 100.91 28.4938 100.129 27.1486C99.3533 25.8034 98.9609 24.2125 98.9609 22.3716V21.8412C98.9609 20.0003 99.349 18.418 100.129 17.0857C100.91 15.7535 101.975 14.7231 103.333 13.9901C104.687 13.2615 106.239 12.895 107.985 12.895C109.731 12.895 111.287 13.2615 112.654 13.9901C114.021 14.7231 115.094 15.7535 115.875 17.0857C116.655 18.418 117.043 20.0046 117.043 21.8412V22.3716C117.043 24.2125 116.655 25.8034 115.875 27.1486C115.099 28.4938 114.025 29.5242 112.654 30.2442C111.287 30.9642 109.731 31.3221 107.985 31.3221ZM107.985 28.0669C109.589 28.0669 110.891 27.5539 111.895 26.5278C112.895 25.5016 113.4 24.0832 113.4 22.2638V21.9447C113.4 20.1296 112.904 18.7068 111.912 17.6807C110.921 16.6546 109.615 16.1415 107.985 16.1415C106.355 16.1415 105.113 16.6546 104.113 17.6807C103.113 18.7068 102.608 20.1296 102.608 21.9447V22.2638C102.608 24.0789 103.109 25.5016 104.113 26.5278C105.113 27.5539 106.407 28.0669 107.985 28.0669Z" fill="#E8E0F1"/>
<path d="M119.795 30.8235V13.3838H123.37V16.0008H123.934C124.266 15.2937 124.853 14.6341 125.702 14.0219C126.551 13.4096 127.81 13.1035 129.487 13.1035C130.807 13.1035 131.979 13.401 133.006 13.9874C134.032 14.578 134.838 15.4101 135.429 16.4794C136.019 17.5529 136.312 18.842 136.312 20.351V30.8192H132.669V20.6313C132.669 19.1223 132.29 18.0099 131.535 17.2899C130.781 16.5699 129.742 16.2121 128.423 16.2121C126.914 16.2121 125.706 16.7079 124.797 17.6995C123.887 18.6911 123.434 20.1268 123.434 22.0153V30.8235H119.791H119.795Z" fill="#E8E0F1"/>
</svg>
