<svg width="14" height="10" viewBox="0 0 14 10" fill="none" xmlns="http://www.w3.org/2000/svg">
<path d="M8.65039 3.31665L11.6857 1.79931C11.7873 1.74854 11.9002 1.72457 12.0137 1.72968C12.1272 1.73479 12.2375 1.76881 12.3341 1.82852C12.4308 1.88822 12.5105 1.97163 12.5659 2.07083C12.6212 2.17003 12.6503 2.28172 12.6504 2.39531V6.90465C12.6503 7.01824 12.6212 7.12994 12.5659 7.22913C12.5105 7.32833 12.4308 7.41174 12.3341 7.47145C12.2375 7.53115 12.1272 7.56517 12.0137 7.57028C11.9002 7.5754 11.7873 7.55142 11.6857 7.50065L8.65039 5.98331V3.31665Z" stroke="white" stroke-width="1.3" stroke-linecap="round" stroke-linejoin="round"/>
<path d="M0.650391 1.98324C0.650391 1.62961 0.790866 1.29048 1.04091 1.04043C1.29096 0.790378 1.6301 0.649902 1.98372 0.649902H7.31706C7.67068 0.649902 8.00982 0.790378 8.25987 1.04043C8.50991 1.29048 8.65039 1.62961 8.65039 1.98324V7.31657C8.65039 7.67019 8.50991 8.00933 8.25987 8.25938C8.00982 8.50943 7.67068 8.6499 7.31706 8.6499H1.98372C1.6301 8.6499 1.29096 8.50943 1.04091 8.25938C0.790866 8.00933 0.650391 7.67019 0.650391 7.31657V1.98324Z" stroke="white" stroke-width="1.3" stroke-linecap="round" stroke-linejoin="round"/>
</svg>
