<svg width="14" height="14" viewBox="0 0 14 14" fill="none" xmlns="http://www.w3.org/2000/svg">
<path d="M6.65039 3.31641V6.64974L7.98372 7.98307" stroke="white" stroke-width="1.3" stroke-linecap="round" stroke-linejoin="round"/>
<path d="M9.98242 13.3164L13.3158 11.3164L9.98242 9.31641V13.3164Z" stroke="white" stroke-width="1.3" stroke-linecap="round" stroke-linejoin="round"/>
<path d="M7.32798 12.6115C6.07323 12.7541 4.80547 12.4972 3.70524 11.8773C2.60501 11.2575 1.72842 10.3063 1.20029 9.15916C0.672162 8.01207 0.519432 6.72758 0.763849 5.48863C1.00827 4.24968 1.63737 3.11943 2.56156 2.25884C3.48576 1.39826 4.65793 0.851219 5.91113 0.695625C7.16434 0.540032 8.4347 0.783819 9.54128 1.39227C10.6479 2.00072 11.5343 2.94281 12.0742 4.08438C12.6142 5.22594 12.7802 6.50878 12.5486 7.75019" stroke="white" stroke-width="1.3" stroke-linecap="round" stroke-linejoin="round"/>
</svg>
