<svg width="14" height="12" viewBox="0 0 14 12" fill="none" xmlns="http://www.w3.org/2000/svg">
<path d="M11.6591 6.37217L6.65905 11.3242L1.65905 6.37217C1.32926 6.05125 1.06948 5.66552 0.896087 5.23926C0.72269 4.81301 0.639429 4.35547 0.651547 3.89546C0.663664 3.43545 0.770897 2.98293 0.966493 2.5664C1.16209 2.14987 1.44181 1.77834 1.78805 1.47523C2.13428 1.17211 2.53953 0.943966 2.97826 0.805161C3.417 0.666356 3.87973 0.619896 4.3373 0.668708C4.79488 0.71752 5.23739 0.860545 5.63697 1.08878C6.03656 1.31701 6.38455 1.62551 6.65905 1.99484C6.93474 1.62819 7.28315 1.32239 7.68246 1.09658C8.08176 0.870766 8.52338 0.729807 8.97968 0.682521C9.43597 0.635234 9.89711 0.682639 10.3342 0.821768C10.7714 0.960898 11.1751 1.18876 11.5201 1.49108C11.8651 1.79341 12.144 2.1637 12.3393 2.57877C12.5347 2.99384 12.6422 3.44476 12.6553 3.90331C12.6683 4.36186 12.5866 4.81817 12.4151 5.24367C12.2437 5.66918 11.9863 6.05472 11.6591 6.37617" stroke="white" stroke-width="1.3" stroke-linecap="round" stroke-linejoin="round"/>
<path d="M6.6581 1.99072L4.46277 4.18606C4.33779 4.31107 4.26758 4.48061 4.26758 4.65739C4.26758 4.83417 4.33779 5.0037 4.46277 5.12872L4.82477 5.49072C5.28477 5.95072 6.03144 5.95072 6.49144 5.49072L7.1581 4.82406C7.55593 4.42623 8.09549 4.20274 8.6581 4.20274C9.22071 4.20274 9.76028 4.42623 10.1581 4.82406L11.6581 6.32406" stroke="white" stroke-width="1.3" stroke-linecap="round" stroke-linejoin="round"/>
<path d="M6.99219 8.32422L8.32552 9.65755" stroke="white" stroke-width="1.3" stroke-linecap="round" stroke-linejoin="round"/>
<path d="M8.6582 6.65771L9.99154 7.99105" stroke="white" stroke-width="1.3" stroke-linecap="round" stroke-linejoin="round"/>
</svg>
