<svg width="32" height="32" viewBox="0 0 32 32" fill="none" xmlns="http://www.w3.org/2000/svg">
<path d="M5.33203 10.6668V8.00016C5.33203 7.29292 5.61298 6.61464 6.11308 6.11454C6.61318 5.61445 7.29145 5.3335 7.9987 5.3335H10.6654" stroke="#FED500" stroke-width="1.7" stroke-linecap="round" stroke-linejoin="round"/>
<path d="M5.33203 21.3335V24.0002C5.33203 24.7074 5.61298 25.3857 6.11308 25.8858C6.61318 26.3859 7.29145 26.6668 7.9987 26.6668H10.6654" stroke="#FED500" stroke-width="1.7" stroke-linecap="round" stroke-linejoin="round"/>
<path d="M21.332 5.3335H23.9987C24.7059 5.3335 25.3842 5.61445 25.8843 6.11454C26.3844 6.61464 26.6654 7.29292 26.6654 8.00016V10.6668" stroke="#FED500" stroke-width="1.7" stroke-linecap="round" stroke-linejoin="round"/>
<path d="M21.332 26.6668H23.9987C24.7059 26.6668 25.3842 26.3859 25.8843 25.8858C26.3844 25.3857 26.6654 24.7074 26.6654 24.0002V21.3335" stroke="#FED500" stroke-width="1.7" stroke-linecap="round" stroke-linejoin="round"/>
<path d="M10.668 14.6665C10.668 15.1918 10.7714 15.7119 10.9725 16.1972C11.1735 16.6825 11.4681 17.1235 11.8395 17.4949C12.211 17.8664 12.6519 18.161 13.1372 18.362C13.6225 18.563 14.1427 18.6665 14.668 18.6665C15.1933 18.6665 15.7134 18.563 16.1987 18.362C16.684 18.161 17.125 17.8664 17.4964 17.4949C17.8678 17.1235 18.1625 16.6825 18.3635 16.1972C18.5645 15.7119 18.668 15.1918 18.668 14.6665C18.668 13.6056 18.2465 12.5882 17.4964 11.8381C16.7463 11.0879 15.7288 10.6665 14.668 10.6665C13.6071 10.6665 12.5897 11.0879 11.8395 11.8381C11.0894 12.5882 10.668 13.6056 10.668 14.6665Z" stroke="#FED500" stroke-width="1.7" stroke-linecap="round" stroke-linejoin="round"/>
<path d="M21.3333 21.3333L18 18" stroke="#FED500" stroke-width="1.7" stroke-linecap="round" stroke-linejoin="round"/>
</svg>
