<svg width="32" height="32" viewBox="0 0 32 32" fill="none" xmlns="http://www.w3.org/2000/svg">
<path d="M5.33398 17.3333C7.71144 17.6158 9.92471 18.69 11.6177 20.3829C13.3106 22.0759 14.3848 24.2891 14.6673 26.6666C15.8459 25.9871 16.8317 25.0184 17.5316 23.8518C18.2315 22.6853 18.6224 21.3596 18.6673 19.9999C20.9061 19.2123 22.8611 17.7786 24.2851 15.8799C25.7091 13.9813 26.5381 11.703 26.6673 9.33325C26.6673 8.27239 26.2459 7.25497 25.4957 6.50482C24.7456 5.75468 23.7282 5.33325 22.6673 5.33325C20.2975 5.46246 18.0193 6.29147 16.1206 7.71545C14.222 9.13944 12.7882 11.0944 12.0007 13.3333C10.641 13.3782 9.31526 13.769 8.14874 14.4689C6.98221 15.1689 6.01344 16.1547 5.33398 17.3333Z" stroke="#FED500" stroke-width="1.7" stroke-linecap="round" stroke-linejoin="round"/>
<path d="M9.33267 18.6667C7.94498 19.4502 6.82288 20.6302 6.11021 22.0555C5.39755 23.4808 5.1268 25.0865 5.33267 26.6667C6.91288 26.8726 8.51857 26.6019 9.9439 25.8892C11.3692 25.1765 12.5492 24.0544 13.3327 22.6667" stroke="#FED500" stroke-width="1.7" stroke-linecap="round" stroke-linejoin="round"/>
<path d="M18.666 12.0001C18.666 12.3537 18.8065 12.6928 19.0565 12.9429C19.3066 13.1929 19.6457 13.3334 19.9993 13.3334C20.353 13.3334 20.6921 13.1929 20.9422 12.9429C21.1922 12.6928 21.3327 12.3537 21.3327 12.0001C21.3327 11.6465 21.1922 11.3073 20.9422 11.0573C20.6921 10.8072 20.353 10.6667 19.9993 10.6667C19.6457 10.6667 19.3066 10.8072 19.0565 11.0573C18.8065 11.3073 18.666 11.6465 18.666 12.0001Z" stroke="#FED500" stroke-width="1.7" stroke-linecap="round" stroke-linejoin="round"/>
</svg>
