<svg width="32" height="32" viewBox="0 0 32 32" fill="none" xmlns="http://www.w3.org/2000/svg">
<path d="M28 13.3333H4" stroke="#FED500" stroke-width="1.7" stroke-linecap="round" stroke-linejoin="round"/>
<path d="M4 10.6666C4 9.2521 4.5619 7.89554 5.5621 6.89535C6.56229 5.89515 7.91885 5.33325 9.33333 5.33325H22.6667C24.0812 5.33325 25.4377 5.89515 26.4379 6.89535C27.4381 7.89554 28 9.2521 28 10.6666V21.3333C28 22.7477 27.4381 24.1043 26.4379 25.1045C25.4377 26.1047 24.0812 26.6666 22.6667 26.6666H9.33333C7.91885 26.6666 6.56229 26.1047 5.5621 25.1045C4.5619 24.1043 4 22.7477 4 21.3333V10.6666Z" stroke="#FED500" stroke-width="1.7" stroke-linecap="round" stroke-linejoin="round"/>
<path d="M9.33398 13.3333V15.3333C9.33398 15.8637 9.5447 16.3724 9.91977 16.7475C10.2948 17.1225 10.8036 17.3333 11.334 17.3333H20.6673C21.1977 17.3333 21.7065 17.1225 22.0815 16.7475C22.4566 16.3724 22.6673 15.8637 22.6673 15.3333V13.3333" stroke="#FED500" stroke-width="1.7" stroke-linecap="round" stroke-linejoin="round"/>
</svg>
