<svg width="32" height="32" viewBox="0 0 32 32" fill="none" xmlns="http://www.w3.org/2000/svg">
<path d="M15.9993 29.3333L21.3327 24L17.9993 9.33333L19.3233 5.80133C19.3989 5.59965 19.4246 5.38266 19.398 5.16892C19.3714 4.95518 19.2935 4.75105 19.1708 4.57401C19.0482 4.39696 18.8845 4.25227 18.6937 4.1523C18.5029 4.05234 18.2907 4.00008 18.0753 4H13.9233C13.708 4.00008 13.4958 4.05234 13.305 4.1523C13.1142 4.25227 12.9505 4.39696 12.8279 4.57401C12.7052 4.75105 12.6273 4.95518 12.6007 5.16892C12.5741 5.38266 12.5997 5.59965 12.6753 5.80133L13.9993 9.33333L10.666 24L15.9993 29.3333Z" stroke="#FED500" stroke-width="1.7" stroke-linecap="round" stroke-linejoin="round"/>
<path d="M14 9.33325H18L24.6667 16.6666" stroke="#FED500" stroke-width="1.7" stroke-linecap="round" stroke-linejoin="round"/>
</svg>
