<svg width="472" height="401" viewBox="0 0 472 401" fill="none" xmlns="http://www.w3.org/2000/svg">
<rect y="0.5" width="12" height="1" rx="0.5" fill="white" fill-opacity="0.2"/>
<rect y="21.5" width="12" height="1" rx="0.5" fill="white" fill-opacity="0.2"/>
<rect y="42.5" width="12" height="1" rx="0.5" fill="white" fill-opacity="0.2"/>
<rect y="63.5" width="12" height="1" rx="0.5" fill="white" fill-opacity="0.2"/>
<rect y="84.5" width="12" height="1" rx="0.5" fill="white" fill-opacity="0.2"/>
<rect y="105.5" width="12" height="1" rx="0.5" fill="white" fill-opacity="0.2"/>
<rect y="126.5" width="12" height="1" rx="0.5" fill="white" fill-opacity="0.2"/>
<rect y="147.5" width="12" height="1" rx="0.5" fill="white" fill-opacity="0.2"/>
<rect y="168.5" width="12" height="1" rx="0.5" fill="white" fill-opacity="0.2"/>
<rect y="189.5" width="12" height="1" rx="0.5" fill="white" fill-opacity="0.2"/>
<rect y="210.5" width="12" height="1" rx="0.5" fill="white" fill-opacity="0.2"/>
<rect y="231.5" width="12" height="1" rx="0.5" fill="white" fill-opacity="0.2"/>
<rect y="252.5" width="12" height="1" rx="0.5" fill="white" fill-opacity="0.2"/>
<rect y="273.5" width="12" height="1" rx="0.5" fill="white" fill-opacity="0.2"/>
<rect y="294.5" width="12" height="1" rx="0.5" fill="white" fill-opacity="0.2"/>
<rect y="315.5" width="12" height="1" rx="0.5" fill="white" fill-opacity="0.2"/>
<rect y="336.5" width="12" height="1" rx="0.5" fill="white" fill-opacity="0.2"/>
<rect y="357.5" width="12" height="1" rx="0.5" fill="white" fill-opacity="0.2"/>
<rect y="378.5" width="12" height="1" rx="0.5" fill="white" fill-opacity="0.2"/>
<rect y="399.5" width="472" height="1" rx="0.5" fill="white" fill-opacity="0.05"/>
</svg>
