<svg width="32" height="32" viewBox="0 0 32 32" fill="none" xmlns="http://www.w3.org/2000/svg">
<path d="M4 19.9998C4 19.6462 4.14048 19.3071 4.39052 19.057C4.64057 18.807 4.97971 18.6665 5.33333 18.6665H8C8.35362 18.6665 8.69276 18.807 8.94281 19.057C9.19286 19.3071 9.33333 19.6462 9.33333 19.9998V22.6665C9.33333 23.0201 9.19286 23.3593 8.94281 23.6093C8.69276 23.8594 8.35362 23.9998 8 23.9998H5.33333C4.97971 23.9998 4.64057 23.8594 4.39052 23.6093C4.14048 23.3593 4 23.0201 4 22.6665V19.9998Z" stroke="#FED500" stroke-width="1.7" stroke-linecap="round" stroke-linejoin="round"/>
<path d="M22.666 19.9998C22.666 19.6462 22.8065 19.3071 23.0565 19.057C23.3066 18.807 23.6457 18.6665 23.9993 18.6665H26.666C27.0196 18.6665 27.3588 18.807 27.6088 19.057C27.8589 19.3071 27.9993 19.6462 27.9993 19.9998V22.6665C27.9993 23.0201 27.8589 23.3593 27.6088 23.6093C27.3588 23.8594 27.0196 23.9998 26.666 23.9998H23.9993C23.6457 23.9998 23.3066 23.8594 23.0565 23.6093C22.8065 23.3593 22.666 23.0201 22.666 22.6665V19.9998Z" stroke="#FED500" stroke-width="1.7" stroke-linecap="round" stroke-linejoin="round"/>
<path d="M13.334 9.33333C13.334 8.97971 13.4745 8.64057 13.7245 8.39052C13.9746 8.14048 14.3137 8 14.6673 8H17.334C17.6876 8 18.0267 8.14048 18.2768 8.39052C18.5268 8.64057 18.6673 8.97971 18.6673 9.33333V12C18.6673 12.3536 18.5268 12.6928 18.2768 12.9428C18.0267 13.1929 17.6876 13.3333 17.334 13.3333H14.6673C14.3137 13.3333 13.9746 13.1929 13.7245 12.9428C13.4745 12.6928 13.334 12.3536 13.334 12V9.33333Z" stroke="#FED500" stroke-width="1.7" stroke-linecap="round" stroke-linejoin="round"/>
<path d="M13.3327 11.3335C11.559 11.6288 9.93653 12.513 8.72701 13.8435C7.51748 15.174 6.79144 16.8731 6.66602 18.6668" stroke="#FED500" stroke-width="1.7" stroke-linecap="round" stroke-linejoin="round"/>
<path d="M18.666 11.3335C20.4397 11.6288 22.0622 12.513 23.2717 13.8435C24.4812 15.174 25.2073 16.8731 25.3327 18.6668" stroke="#FED500" stroke-width="1.7" stroke-linecap="round" stroke-linejoin="round"/>
<path d="M13.334 10.6665H5.33398" stroke="#FED500" stroke-width="1.7" stroke-linecap="round" stroke-linejoin="round"/>
<path d="M26.666 10.6665H18.666" stroke="#FED500" stroke-width="1.7" stroke-linecap="round" stroke-linejoin="round"/>
<path d="M2.66602 10.6668C2.66602 11.0205 2.80649 11.3596 3.05654 11.6096C3.30659 11.8597 3.64573 12.0002 3.99935 12.0002C4.35297 12.0002 4.69211 11.8597 4.94216 11.6096C5.19221 11.3596 5.33268 11.0205 5.33268 10.6668C5.33268 10.3132 5.19221 9.97407 4.94216 9.72402C4.69211 9.47397 4.35297 9.3335 3.99935 9.3335C3.64573 9.3335 3.30659 9.47397 3.05654 9.72402C2.80649 9.97407 2.66602 10.3132 2.66602 10.6668Z" stroke="#FED500" stroke-width="1.7" stroke-linecap="round" stroke-linejoin="round"/>
<path d="M26.666 10.6668C26.666 11.0205 26.8065 11.3596 27.0565 11.6096C27.3066 11.8597 27.6457 12.0002 27.9993 12.0002C28.353 12.0002 28.6921 11.8597 28.9422 11.6096C29.1922 11.3596 29.3327 11.0205 29.3327 10.6668C29.3327 10.3132 29.1922 9.97407 28.9422 9.72402C28.6921 9.47397 28.353 9.3335 27.9993 9.3335C27.6457 9.3335 27.3066 9.47397 27.0565 9.72402C26.8065 9.97407 26.666 10.3132 26.666 10.6668Z" stroke="#FED500" stroke-width="1.7" stroke-linecap="round" stroke-linejoin="round"/>
</svg>
