<svg width="32" height="32" viewBox="0 0 32 32" fill="none" xmlns="http://www.w3.org/2000/svg">
<path d="M8 6.66667C8 5.95942 8.28095 5.28115 8.78105 4.78105C9.28115 4.28095 9.95942 4 10.6667 4H21.3333C22.0406 4 22.7189 4.28095 23.219 4.78105C23.719 5.28115 24 5.95942 24 6.66667V25.3333C24 26.0406 23.719 26.7189 23.219 27.219C22.7189 27.719 22.0406 28 21.3333 28H10.6667C9.95942 28 9.28115 27.719 8.78105 27.219C8.28095 26.7189 8 26.0406 8 25.3333V6.66667Z" stroke="#FED500" stroke-width="1.7" stroke-linecap="round" stroke-linejoin="round"/>
<path d="M14.666 5.3335H17.3327" stroke="#FED500" stroke-width="1.7" stroke-linecap="round" stroke-linejoin="round"/>
<path d="M16 22.6665V22.6798" stroke="#FED500" stroke-width="1.7" stroke-linecap="round" stroke-linejoin="round"/>
</svg>
