<svg width="32" height="32" viewBox="0 0 32 32" fill="none" xmlns="http://www.w3.org/2000/svg">
<path d="M2.66602 7.99984C2.66602 6.133 2.66602 5.19957 3.02932 4.48653C3.34891 3.85933 3.85884 3.3494 4.48604 3.02981C5.19908 2.6665 6.13251 2.6665 7.99935 2.6665C9.86619 2.6665 10.7996 2.6665 11.5127 3.02981C12.1399 3.3494 12.6498 3.85933 12.9694 4.48653C13.3327 5.19957 13.3327 6.133 13.3327 7.99984V23.9998C13.3327 25.8666 13.3327 26.8001 12.9694 27.5132C12.6498 28.1404 12.1399 28.6502 11.5127 28.9698C10.7996 29.3332 9.86619 29.3332 7.99935 29.3332C6.13251 29.3332 5.19908 29.3332 4.48604 28.9698C3.85884 28.6502 3.34891 28.1404 3.02932 27.5132C2.66602 26.8001 2.66602 25.8666 2.66602 23.9998V7.99984Z" stroke="#FED500" stroke-width="1.7"/>
<path d="M9.33268 25.3335H6.66602" stroke="#FED500" stroke-width="1.7" stroke-linecap="round"/>
<path d="M17.7523 6.57216L14.8961 9.42828C14.1253 10.199 13.74 10.5844 13.5369 11.0745C13.334 11.5645 13.334 12.1095 13.334 13.1995V26.0753L25.2947 14.1147C26.6148 12.7946 27.2748 12.1346 27.5221 11.3735C27.7396 10.704 27.7396 9.98283 27.5221 9.31335C27.2748 8.55226 26.6148 7.89223 25.2947 6.57216C23.9747 5.25211 23.3147 4.59208 22.5535 4.34479C21.884 4.12726 21.1629 4.12726 20.4933 4.34479C19.7323 4.59208 19.0723 5.25211 17.7523 6.57216Z" stroke="#FED500" stroke-width="1.7"/>
<path d="M8 29.3332H24C25.8668 29.3332 26.8003 29.3332 27.5133 28.9698C28.1405 28.6502 28.6504 28.1404 28.97 27.5132C29.3333 26.8001 29.3333 25.8666 29.3333 23.9998C29.3333 22.133 29.3333 21.1996 28.97 20.4865C28.6504 19.8593 28.1405 19.3494 27.5133 19.0298C26.8003 18.6665 25.8668 18.6665 24 18.6665H20.6667" stroke="#FED500" stroke-width="1.7"/>
</svg>
