<svg width="32" height="32" viewBox="0 0 32 32" fill="none" xmlns="http://www.w3.org/2000/svg">
<path d="M16 28C12.8174 28 9.76516 26.7357 7.51472 24.4853C5.26428 22.2348 4 19.1826 4 16C4 12.8174 5.26428 9.76516 7.51472 7.51472C9.76516 5.26428 12.8174 4 16 4C22.6267 4 28 8.776 28 14.6667C28 16.08 27.368 17.4373 26.2427 18.4373C25.1173 19.4373 23.5907 20 22 20H18.6667C18.0718 19.9904 17.4908 20.18 17.0162 20.5387C16.5415 20.8973 16.2004 21.4044 16.0471 21.9792C15.8938 22.5541 15.9371 23.1637 16.1702 23.711C16.4033 24.2584 16.8127 24.7121 17.3333 25C17.5996 25.2457 17.7821 25.5685 17.8554 25.9233C17.9287 26.278 17.8889 26.6468 17.7418 26.9778C17.5947 27.3089 17.3476 27.5855 17.0352 27.7688C16.7227 27.9521 16.3607 28.033 16 28Z" stroke="#FED500" stroke-width="1.7" stroke-linecap="round" stroke-linejoin="round"/>
<path d="M10 13.9998C10 14.3535 10.1405 14.6926 10.3905 14.9426C10.6406 15.1927 10.9797 15.3332 11.3333 15.3332C11.687 15.3332 12.0261 15.1927 12.2761 14.9426C12.5262 14.6926 12.6667 14.3535 12.6667 13.9998C12.6667 13.6462 12.5262 13.3071 12.2761 13.057C12.0261 12.807 11.687 12.6665 11.3333 12.6665C10.9797 12.6665 10.6406 12.807 10.3905 13.057C10.1405 13.3071 10 13.6462 10 13.9998Z" stroke="#FED500" stroke-width="1.7" stroke-linecap="round" stroke-linejoin="round"/>
<path d="M15.334 9.99984C15.334 10.3535 15.4745 10.6926 15.7245 10.9426C15.9746 11.1927 16.3137 11.3332 16.6673 11.3332C17.0209 11.3332 17.3601 11.1927 17.6101 10.9426C17.8602 10.6926 18.0007 10.3535 18.0007 9.99984C18.0007 9.64622 17.8602 9.30708 17.6101 9.05703C17.3601 8.80698 17.0209 8.6665 16.6673 8.6665C16.3137 8.6665 15.9746 8.80698 15.7245 9.05703C15.4745 9.30708 15.334 9.64622 15.334 9.99984Z" stroke="#FED500" stroke-width="1.7" stroke-linecap="round" stroke-linejoin="round"/>
<path d="M20.666 13.9998C20.666 14.3535 20.8065 14.6926 21.0565 14.9426C21.3066 15.1927 21.6457 15.3332 21.9993 15.3332C22.353 15.3332 22.6921 15.1927 22.9422 14.9426C23.1922 14.6926 23.3327 14.3535 23.3327 13.9998C23.3327 13.6462 23.1922 13.3071 22.9422 13.057C22.6921 12.807 22.353 12.6665 21.9993 12.6665C21.6457 12.6665 21.3066 12.807 21.0565 13.057C20.8065 13.3071 20.666 13.6462 20.666 13.9998Z" stroke="#FED500" stroke-width="1.7" stroke-linecap="round" stroke-linejoin="round"/>
</svg>
