<svg width="32" height="32" viewBox="0 0 32 32" fill="none" xmlns="http://www.w3.org/2000/svg">
<path d="M26.6661 10.7202L10.5034 26.8855C10.1497 27.2393 9.72981 27.5199 9.26766 27.7114C8.8055 27.9029 8.31015 28.0015 7.80989 28.0016C6.79957 28.0017 5.83058 27.6005 5.11609 26.8862C4.40159 26.1718 4.00013 25.203 4 24.1926C3.99988 23.1823 4.4011 22.2133 5.11542 21.4988L21.2781 5.3335" stroke="#FED500" stroke-width="1.7" stroke-linecap="round" stroke-linejoin="round"/>
<path d="M9.33398 17.3335H20.0007" stroke="#FED500" stroke-width="1.7" stroke-linecap="round" stroke-linejoin="round"/>
<path d="M25.3327 20L27.3327 22.1333C27.6721 22.5182 27.8933 22.9929 27.9697 23.5004C28.046 24.0079 27.9743 24.5266 27.7632 24.9943C27.552 25.4621 27.2104 25.859 26.7793 26.1374C26.3482 26.4158 25.8459 26.5638 25.3327 26.5638C24.8195 26.5638 24.3172 26.4158 23.8861 26.1374C23.455 25.859 23.1133 25.4621 22.9022 24.9943C22.691 24.5266 22.6193 24.0079 22.6957 23.5004C22.7721 22.9929 22.9932 22.5182 23.3327 22.1333L25.3327 20Z" stroke="#FED500" stroke-width="1.7" stroke-linecap="round" stroke-linejoin="round"/>
<path d="M20 4L28 12" stroke="#FED500" stroke-width="1.7" stroke-linecap="round" stroke-linejoin="round"/>
</svg>
